<?xml version="1.0" standalone="no"?>
<!DOCTYPE svg PUBLIC "-//W3C//DTD SVG 20010904//EN"
 "http://www.w3.org/TR/2001/REC-SVG-20010904/DTD/svg10.dtd">
<svg version="1.0" xmlns="http://www.w3.org/2000/svg"
 width="472.000000pt" height="393.000000pt" viewBox="0 0 472.000000 393.000000"
 preserveAspectRatio="xMidYMid meet">

<g transform="translate(0.000000,393.000000) scale(0.100000,-0.100000)"
fill="#000000" stroke="none">
<path d="M10 3241 c0 -542 3 -690 13 -694 9 -4 9 -6 0 -6 -9 -1 -12 -71 -13
-276 l-1 -275 348 2 348 3 11 123 c7 68 15 126 18 129 8 8 7 -80 -2 -179 l-8
-78 291 0 290 0 1 173 c1 94 6 190 12 212 l10 40 3 -45 c1 -25 3 -57 3 -72 1
-15 10 -36 20 -47 16 -17 17 -26 9 -44 -23 -47 -24 -59 -3 -64 18 -5 20 -14
20 -78 l0 -73 74 1 73 1 -19 27 c-23 31 -29 112 -10 131 8 8 15 9 20 3 4 -6
20 -16 35 -23 19 -8 27 -18 23 -27 -3 -9 0 -15 9 -15 20 0 19 -46 -1 -54 -9
-3 -14 -12 -11 -20 4 -10 -1 -12 -16 -9 -20 4 -20 3 -4 -7 25 -16 67 24 67 64
0 28 1 29 14 11 12 -17 16 -17 31 -5 15 12 16 11 9 -16 -4 -16 -12 -36 -18
-44 -10 -13 -9 -13 9 0 11 7 26 21 33 29 14 18 16 85 2 111 -8 15 -13 16 -35
7 -28 -14 -33 -27 -9 -27 11 0 14 -5 10 -16 -3 -9 -6 -18 -6 -20 0 -2 -4 -4
-10 -4 -5 0 -10 6 -10 13 0 8 -9 22 -20 32 -23 21 -24 24 -9 61 l10 28 17 -26
c12 -18 22 -24 31 -19 9 6 10 11 2 15 -16 10 -13 43 4 50 21 8 20 72 -2 85
-14 7 -15 12 -5 24 17 20 13 152 -6 207 -27 78 -12 137 28 112 28 -17 25 0 -6
29 -17 16 -34 23 -55 21 -24 -3 -29 0 -29 17 0 27 -10 26 -68 -3 -46 -24 -116
-86 -95 -86 5 0 18 9 28 20 25 28 60 25 85 -7 28 -35 22 -69 -26 -146 -35 -57
-37 -70 -20 -122 5 -15 4 -14 -5 3 -7 12 -15 22 -19 22 -8 0 -40 -145 -40
-183 0 -44 -17 -31 -23 18 -7 50 12 141 37 177 16 23 21 94 8 114 -14 21 -55
36 -82 30 l-28 -5 13 47 c27 96 43 137 45 117 3 -21 12 29 29 165 14 106 17
116 34 101 8 -6 17 -7 23 -2 5 5 37 -22 77 -66 50 -56 67 -83 67 -104 0 -21 4
-27 15 -23 8 4 15 1 15 -5 0 -19 17 -12 64 24 26 19 49 35 52 35 7 0 1 -34
-11 -65 -7 -16 -6 -18 6 -7 24 22 31 12 27 -42 -1 -30 0 -52 5 -49 4 2 7 25 8
51 0 40 2 43 10 24 5 -13 10 -47 11 -74 2 -46 5 -52 33 -64 26 -11 39 -27 62
-76 2 -4 -9 -1 -24 7 -15 8 -34 15 -41 15 -18 0 -51 40 -52 63 0 20 -10 22
-34 4 -25 -19 -13 -50 24 -64 l31 -12 -7 -68 c-11 -129 -44 -339 -64 -413 -11
-41 -20 -81 -20 -87 0 -10 26 -13 100 -13 l99 0 0 183 c0 100 4 205 9 232 8
40 10 9 12 -155 1 -113 1 -217 0 -232 l-2 -28 181 0 181 0 0 231 c0 152 -3
228 -10 224 -19 -11 -22 25 -5 51 13 20 14 28 4 40 -8 10 -8 14 0 14 8 0 11
186 11 690 l0 690 -1160 0 -1160 0 0 -689z m332 573 c32 -130 52 -278 41 -310
-13 -41 -42 -42 -84 -2 -33 32 -34 32 -37 11 -7 -47 -41 -24 -61 40 -9 27 -18
37 -34 37 -29 1 -72 34 -63 49 9 15 39 14 54 -1 9 -9 15 -8 26 8 13 16 18 17
35 6 18 -11 21 -10 21 7 0 25 25 45 46 37 15 -6 16 2 11 87 -4 52 -3 97 0 101
16 16 29 -5 45 -70z m-187 -292 c5 -12 17 -22 26 -22 9 0 21 -12 28 -27 11
-24 14 -26 22 -10 14 24 34 21 53 -8 10 -15 26 -25 41 -25 13 0 31 -8 41 -17
15 -16 15 -18 -13 -42 -90 -80 -96 -83 -138 -76 -22 3 -46 12 -53 19 -33 32
-60 243 -29 234 6 -3 16 -14 22 -26z m1646 -7 c38 -20 49 -38 53 -86 2 -24 7
-52 11 -61 6 -14 0 -17 -36 -20 -24 -2 -44 -9 -47 -16 -3 -10 6 -13 38 -10 28
2 44 -1 47 -9 3 -9 -5 -13 -24 -13 -16 0 -38 -7 -49 -16 -15 -12 -15 -15 -2
-10 9 2 19 -1 21 -8 6 -16 55 -27 63 -15 11 19 23 8 30 -26 5 -28 1 -47 -19
-85 -14 -27 -23 -58 -20 -69 3 -13 -3 -28 -19 -43 -13 -13 -30 -37 -37 -55
-22 -54 -102 -79 -160 -49 -31 16 -93 82 -111 118 -7 12 -22 33 -33 45 -16 19
-18 25 -7 38 9 11 10 29 5 63 -4 26 -8 68 -9 94 -1 42 3 52 37 86 20 21 37 47
37 57 0 31 76 113 108 117 31 4 85 -8 123 -27z m-1391 -69 c0 -8 -4 -18 -10
-21 -5 -3 -10 3 -10 14 0 12 5 21 10 21 6 0 10 -6 10 -14z m-280 -236 c5 0 10
7 10 15 0 13 8 11 43 -7 55 -30 94 -34 118 -12 35 31 21 -6 -16 -43 -33 -33
-39 -35 -80 -30 -46 5 -69 -8 -44 -24 32 -20 82 -10 118 24 29 27 32 28 19 7
-25 -40 -101 -89 -154 -99 -49 -9 -69 -6 -47 7 16 10 27 59 14 66 -6 4 -17 -8
-26 -26 l-15 -33 5 30 c3 17 8 46 11 65 17 112 16 107 25 83 5 -13 13 -23 19
-23z m1314 -49 c15 -16 17 -24 8 -33 -9 -9 -18 -6 -37 12 -30 28 -35 66 -7 51
9 -5 26 -19 36 -30z m-644 -386 c17 -9 30 -20 30 -26 0 -5 -10 -3 -22 5 -12 9
-36 16 -53 16 -23 0 -27 3 -15 10 20 13 26 13 60 -5z m-239 -44 c-13 -10 -58
-32 -100 -49 -115 -47 -114 -47 -110 -33 3 7 36 25 74 40 39 15 84 35 100 44
42 23 67 22 36 -2z m1019 -1 c0 -5 -2 -10 -4 -10 -3 0 -8 5 -11 10 -3 6 -1 10
4 10 6 0 11 -4 11 -10z m-418 -93 c4 -20 -11 -47 -26 -47 -12 0 -14 33 -3 50
16 26 24 25 29 -3z m448 -2 c0 -14 -4 -25 -10 -25 -11 0 -14 33 -3 43 11 11
13 8 13 -18z m-870 -15 c0 -5 -2 -10 -4 -10 -3 0 -8 5 -11 10 -3 6 -1 10 4 10
6 0 11 -4 11 -10z m-436 -27 c4 -9 2 -21 -3 -26 -12 -12 -45 18 -36 33 10 16
32 12 39 -7z m1101 -73 c3 -5 -3 -10 -15 -10 -12 0 -18 5 -15 10 3 6 10 10 15
10 5 0 12 -4 15 -10z m185 -130 c21 0 34 -26 18 -36 -12 -8 -49 31 -47 50 0 7
2 7 6 -1 2 -7 13 -13 23 -13z m-204 -22 c-3 -13 -6 -33 -6 -45 0 -14 -6 -23
-15 -23 -17 0 -20 16 -5 25 6 3 10 19 10 36 0 16 5 29 11 29 7 0 9 -9 5 -22z
m-559 -34 c-3 -3 -12 -4 -19 -1 -8 3 -5 6 6 6 11 1 17 -2 13 -5z m713 -85 c0
-6 -4 -7 -10 -4 -5 3 -10 11 -10 16 0 6 5 7 10 4 6 -3 10 -11 10 -16z m-41
-55 c-12 -14 -14 -14 -20 3 -4 12 -1 20 10 24 21 8 26 -7 10 -27z m-959 -110
c0 -8 -4 -12 -10 -9 -5 3 -10 10 -10 16 0 5 5 9 10 9 6 0 10 -7 10 -16z"/>
<path d="M301 3634 c0 -11 3 -14 6 -6 3 7 2 16 -1 19 -3 4 -6 -2 -5 -13z"/>
<path d="M301 3594 c0 -11 3 -14 6 -6 3 7 2 16 -1 19 -3 4 -6 -2 -5 -13z"/>
<path d="M1645 3340 c3 -5 15 -10 25 -10 10 0 22 5 25 10 4 6 -7 10 -25 10
-18 0 -29 -4 -25 -10z"/>
<path d="M1608 3298 c-31 -11 -38 -31 -10 -26 9 1 23 -1 30 -6 8 -5 18 -4 24
2 6 6 17 8 24 5 17 -6 18 9 2 25 -14 14 -33 14 -70 0z"/>
<path d="M1780 3180 c-8 -5 -30 -7 -47 -4 -21 4 -33 2 -33 -5 0 -6 9 -11 19
-11 11 0 23 -4 26 -10 10 -16 55 -12 62 6 8 21 -8 36 -27 24z"/>
<path d="M1676 3095 c-26 -20 -11 -39 17 -20 28 19 54 18 95 -4 l34 -18 -31
-26 c-25 -20 -39 -25 -61 -20 -18 3 -30 1 -30 -5 0 -14 25 -22 66 -22 30 0 37
5 50 35 19 47 18 72 -5 85 -28 15 -113 12 -135 -5z"/>
<path d="M2400 2960 l0 -970 1160 0 1160 0 0 970 0 970 -1160 0 -1160 0 0
-970z m1244 861 c50 -46 86 -102 86 -135 0 -31 -1 -31 -53 -32 -28 -1 -46 1
-39 3 6 3 12 9 12 14 0 6 -6 9 -12 8 -7 -1 -31 -1 -52 0 -37 1 -39 2 -20 16
17 12 17 14 2 15 -9 0 -28 -4 -42 -10 -20 -7 -26 -6 -26 5 0 26 61 28 113 5
27 -12 51 -20 53 -17 9 9 -120 66 -189 84 -37 10 -67 20 -67 24 0 16 41 40 81
48 64 13 119 3 153 -28z m-155 -90 c-27 -22 -32 -21 -23 3 3 9 15 16 26 16 19
0 19 -1 -3 -19z m781 -41 c0 -5 -4 -10 -10 -10 -5 0 -10 5 -10 10 0 6 5 10 10
10 6 0 10 -4 10 -10z m-110 -20 c0 -5 -2 -10 -4 -10 -3 0 -8 5 -11 10 -3 6 -1
10 4 10 6 0 11 -4 11 -10z m180 -20 c0 -5 -5 -10 -11 -10 -5 0 -7 5 -4 10 3 6
8 10 11 10 2 0 4 -4 4 -10z m-583 -16 c-3 -3 -12 -4 -19 -1 -8 3 -5 6 6 6 11
1 17 -2 13 -5z m427 -66 c15 -65 32 -72 46 -19 6 23 15 41 20 41 5 0 11 8 14
18 3 9 3 -9 1 -40 -5 -57 7 -78 23 -40 14 34 34 25 30 -15 -3 -37 -2 -38 30
-36 l33 1 -26 -24 c-14 -12 -25 -28 -25 -34 0 -6 -4 -9 -8 -6 -4 2 -8 -10 -8
-27 -1 -37 -8 -69 -25 -114 -15 -37 -5 -55 14 -29 12 16 15 14 26 -25 7 -24
19 -51 27 -60 8 -9 33 -70 55 -135 l41 -119 -13 -97 c-10 -78 -16 -98 -28 -98
-14 0 -14 2 -1 10 25 16 6 11 -36 -10 l-39 -19 35 -1 c33 0 33 -1 17 -17 -15
-15 -34 -18 -120 -16 -97 2 -127 8 -296 57 -63 18 -109 45 -93 55 7 4 7 12 3
20 -7 11 -15 11 -41 2 -43 -14 -42 -14 -35 9 13 40 -15 19 -40 -30 -14 -27
-25 -51 -25 -54 0 -2 21 -12 48 -22 26 -10 60 -27 75 -38 27 -20 43 -21 240
-21 175 0 226 -4 290 -20 60 -14 77 -23 77 -36 0 -13 -11 -20 -37 -24 -140
-23 -163 -38 -123 -81 l23 -24 -21 -23 c-12 -13 -22 -31 -22 -40 0 -14 -10
-17 -54 -17 -38 0 -56 4 -58 14 -2 11 -18 9 -78 -11 -108 -34 -145 -27 -199
39 -51 63 -54 86 -8 80 l32 -5 -24 27 c-14 14 -33 26 -43 26 -10 0 -36 9 -57
20 -38 19 -39 19 -56 0 -29 -32 -79 -26 -154 19 -81 47 -98 53 -135 43 -28 -8
-28 -8 -10 -26 14 -15 28 -17 66 -13 28 4 48 2 48 -3 0 -6 -7 -10 -16 -10 -8
0 -13 -4 -10 -9 3 -5 15 -7 26 -4 11 3 20 0 20 -6 0 -14 -47 -15 -55 -1 -3 6
-17 10 -30 10 -37 0 -72 19 -84 47 -6 13 -17 23 -23 21 -21 -7 -20 -26 1 -33
12 -3 26 -15 31 -26 9 -16 7 -19 -15 -19 -14 0 -34 -5 -44 -12 -32 -20 -88 33
-136 127 -6 11 -21 21 -33 23 -28 4 -60 53 -69 106 -6 39 -43 90 -50 69 -2 -6
5 -34 16 -63 20 -51 20 -70 1 -70 -5 0 -7 8 -3 18 3 9 2 13 -2 9 -5 -4 -19 11
-32 35 -21 40 -22 41 -23 16 0 -17 -6 -28 -13 -28 -8 0 -27 -12 -43 -26 l-29
-26 38 7 c33 5 39 3 44 -14 4 -14 14 -21 30 -21 19 0 24 -4 19 -16 -3 -9 -6
-20 -6 -25 0 -11 -220 -12 -238 -1 -10 7 -10 15 -2 36 13 36 13 43 -2 28 -14
-14 -38 -16 -38 -3 0 4 18 20 40 35 22 14 40 32 40 39 0 6 20 53 44 102 25 50
66 151 91 225 70 202 67 196 132 226 50 23 66 26 129 21 40 -3 81 -10 92 -16
13 -7 23 -7 27 -1 3 5 13 6 21 3 14 -5 15 -3 5 16 -12 21 -11 22 22 16 29 -6
38 -2 63 23 l30 29 28 -23 c33 -29 42 -30 58 -4 7 11 18 20 25 20 21 0 15 17
-12 34 -28 19 -92 17 -87 -3 1 -6 -7 -11 -18 -11 -11 0 -20 4 -20 9 0 5 -18
11 -40 15 -49 8 -44 26 5 22 19 -1 32 1 29 5 -2 4 4 10 13 12 13 3 12 5 -5 6
-24 1 -61 36 -62 58 -1 37 80 38 152 2 29 -15 37 -25 35 -41 -1 -15 5 -26 20
-32 12 -6 27 -21 34 -33 9 -17 16 -20 25 -12 19 15 25 -4 9 -32 -17 -29 -31
-59 -45 -95 -7 -19 -14 -23 -23 -16 -17 13 -49 7 -59 -12 -11 -19 -117 -23
-135 -5 -7 7 -12 6 -16 -5 -4 -9 -2 -16 3 -16 6 0 10 -8 10 -19 0 -40 69 -62
101 -32 11 10 29 17 39 14 10 -3 21 1 25 8 6 8 4 10 -5 4 -22 -14 -6 17 17 32
20 13 21 13 16 -5 -3 -15 3 -25 24 -38 15 -10 46 -33 67 -51 22 -18 47 -33 56
-33 9 0 35 -13 57 -29 22 -16 49 -32 62 -36 12 -4 37 -19 54 -34 18 -15 47
-33 65 -41 18 -7 45 -27 60 -45 23 -27 75 -55 103 -55 5 0 9 13 9 29 0 17 4
33 10 36 5 3 7 25 3 50 -5 42 -4 45 18 46 l24 0 -22 16 c-17 12 -23 26 -23 57
-1 54 -16 85 -67 140 -30 31 -41 50 -37 63 5 15 4 16 -5 3 -10 -13 -15 -8 -12
12 0 5 -2 7 -6 6 -5 0 -15 2 -23 5 -8 4 -28 12 -45 18 l-30 11 23 11 c18 8 32
7 55 -2 59 -24 65 -24 78 1 11 20 16 63 18 182 1 41 12 26 25 -36z m256 -48
c0 -5 -4 -10 -10 -10 -5 0 -10 5 -10 10 0 6 5 10 10 10 6 0 10 -4 10 -10z
m-926 -272 c-3 -5 -12 -4 -20 3 -19 16 -18 18 6 12 11 -3 17 -9 14 -15z m-374
-582 c-1 -16 -29 36 -30 54 0 8 7 2 15 -14 8 -15 15 -33 15 -40z m-162 -63
c39 -5 72 -31 72 -55 0 -24 -122 23 -150 57 -14 17 -13 18 10 11 14 -4 44 -10
68 -13z m1535 -240 c-13 -2 -35 -2 -50 0 -16 2 -5 4 22 4 28 0 40 -2 28 -4z"/>
<path d="M3485 3370 c-3 -5 -1 -10 4 -10 6 0 11 5 11 10 0 6 -2 10 -4 10 -3 0
-8 -4 -11 -10z"/>
<path d="M3480 3323 c0 -18 24 -27 55 -19 40 10 30 31 -15 32 -28 1 -40 -3
-40 -13z"/>
<path d="M4140 3316 c0 -3 9 -10 20 -16 11 -6 20 -8 20 -6 0 3 -9 10 -20 16
-11 6 -20 8 -20 6z"/>
<path d="M3405 3273 c7 -32 81 -129 112 -150 20 -13 25 -11 62 22 54 49 56 73
4 47 -65 -33 -120 -10 -154 63 -24 51 -34 58 -24 18z"/>
<path d="M3055 3130 c-4 -6 -3 -16 3 -22 6 -6 12 -6 17 2 4 6 3 16 -3 22 -6 6
-12 6 -17 -2z"/>
<path d="M4372 2890 c32 -82 42 -100 50 -92 12 12 -15 74 -40 94 -13 11 -15
11 -10 -2z"/>
<path d="M3944 2525 c4 -17 2 -25 -6 -25 -7 0 -3 -6 8 -14 23 -16 74 -10 74 9
0 12 -58 55 -75 55 -4 0 -4 -11 -1 -25z"/>
<path d="M4040 2535 c0 -2 10 -10 23 -16 20 -11 21 -11 8 4 -13 16 -31 23 -31
12z"/>
<path d="M10 1119 l0 -790 45 32 46 33 92 -19 c113 -23 157 -27 157 -15 0 6
26 10 59 10 46 0 75 8 137 37 44 20 98 38 123 39 24 1 48 7 54 13 6 6 19 11
28 11 10 0 26 16 36 35 10 19 46 79 80 134 35 55 61 106 57 114 -3 8 5 21 19
30 13 8 36 41 50 71 15 31 32 56 39 56 7 0 25 11 40 25 15 14 31 25 36 25 11
0 42 44 42 58 0 25 -33 3 -67 -44 -21 -30 -42 -54 -46 -54 -5 0 13 30 39 68
48 67 84 109 84 96 0 -4 11 3 25 16 29 27 24 45 -8 28 -20 -10 -21 -10 -8 5 8
11 28 17 52 17 33 0 43 -6 75 -45 21 -24 50 -47 64 -50 24 -5 27 -10 24 -40
-3 -37 12 -57 22 -30 4 10 13 13 25 10 25 -8 24 6 -1 38 l-21 26 30 16 c27 13
30 19 24 46 -6 30 -5 31 16 20 18 -10 21 -9 21 8 0 15 -5 19 -16 14 -19 -7
-34 13 -34 45 0 26 7 28 29 8 11 -10 22 -12 30 -6 12 7 12 12 -3 34 -9 14 -25
26 -35 26 -15 0 -21 10 -26 49 -8 60 15 112 46 104 23 -6 25 10 4 27 -20 16
-20 41 0 34 9 -4 15 0 15 9 0 8 -5 17 -12 19 -22 8 22 58 51 58 49 -1 178 -71
165 -91 -3 -5 6 -23 20 -39 14 -17 28 -47 32 -67 4 -23 13 -37 25 -40 11 -3
19 -9 19 -14 0 -5 9 -9 21 -9 12 0 18 4 13 11 -8 14 14 29 33 22 23 -9 14 -39
-23 -77 -27 -28 -43 -37 -60 -33 -25 4 -35 -18 -11 -26 8 -3 4 -20 -16 -62
l-28 -58 23 8 c66 20 76 18 93 -16 23 -44 20 -42 43 -28 17 11 24 9 50 -13 19
-16 49 -28 79 -32 26 -4 60 -9 75 -12 21 -3 28 1 33 18 7 22 52 67 67 68 4 0
16 -10 28 -22 18 -20 20 -31 15 -122 -4 -73 -10 -104 -22 -118 -13 -15 -14
-23 -5 -44 7 -13 12 -45 12 -69 0 -24 11 -119 25 -212 28 -189 30 -224 14
-291 -23 -98 -40 -141 -54 -136 -8 4 -20 -7 -30 -25 -16 -33 -35 -41 -35 -16
0 8 15 29 32 45 l33 29 -25 1 c-30 0 -51 -17 -44 -35 3 -7 0 -16 -6 -20 -7 -4
-14 2 -17 14 -5 20 -10 21 -52 15 -25 -4 -59 -14 -76 -23 l-30 -16 40 -5 40
-6 -40 -8 c-22 -4 -44 -9 -50 -11 -5 -2 77 -4 183 -4 l192 -1 0 955 0 955
-1160 0 -1160 0 0 -791z m1675 641 c-3 -5 -12 -10 -18 -10 -7 0 -6 4 3 10 19
12 23 12 15 0z m19 -68 c3 -5 -1 -9 -9 -9 -8 0 -12 4 -9 9 3 4 7 8 9 8 2 0 6
-4 9 -8z m186 -329 c0 -5 -13 -8 -29 -8 -16 0 -27 3 -24 8 2 4 15 7 29 7 13 0
24 -3 24 -7z m358 -245 c8 -10 -2 -12 -45 -9 -37 2 -51 6 -42 12 21 13 75 11
87 -3z m-138 -1072 c0 -2 -8 -10 -17 -17 -16 -13 -17 -12 -4 4 13 16 21 21 21
13z"/>
<path d="M2400 955 l0 -955 145 0 144 0 -39 86 c-22 47 -40 91 -40 97 0 12 19
16 108 18 61 2 58 9 -15 35 -53 18 -53 18 -76 -4 -24 -23 -37 -20 -37 7 0 8
-10 25 -22 38 -26 28 -22 33 28 36 25 2 38 7 37 15 -4 17 78 19 123 2 43 -17
33 4 -36 77 -72 75 -96 122 -45 89 28 -19 49 -12 95 30 14 13 45 39 69 56 25
18 46 40 49 48 4 12 2 13 -9 2 -7 -6 -22 -12 -34 -12 -11 0 -51 -23 -89 -50
-77 -56 -115 -68 -75 -23 29 33 2 16 -49 -31 -33 -31 -33 -31 -24 -5 6 14 23
45 39 70 17 24 33 53 37 63 5 16 4 17 -8 7 -22 -19 100 223 124 244 59 53 -15
44 -77 -9 -38 -32 -34 -13 8 47 33 46 44 55 55 46 16 -13 10 -29 -12 -29 -8 0
-14 -4 -14 -10 0 -16 6 -13 70 36 63 48 71 60 43 66 -10 2 23 18 73 36 50 18
110 46 135 63 24 16 47 29 51 29 4 0 8 -15 10 -32 2 -26 7 -32 22 -30 12 2 16
-1 10 -9 -5 -9 4 -11 37 -6 43 6 45 5 99 -54 59 -62 82 -72 100 -39 9 16 6 22
-18 34 -35 18 -56 64 -50 108 4 21 -3 50 -18 83 -13 27 -24 58 -24 68 0 21 23
22 40 2 15 -18 41 -20 35 -2 -4 8 8 13 36 15 23 1 46 5 51 8 19 12 -16 34 -64
40 -39 5 -48 10 -43 22 3 9 13 37 21 62 18 56 85 114 118 104 12 -4 30 -7 41
-8 11 -1 31 -14 45 -30 22 -27 25 -40 28 -136 3 -84 0 -114 -13 -145 -9 -22
-19 -57 -21 -77 l-3 -38 44 0 c36 0 45 -4 50 -21 6 -18 12 -20 44 -15 30 5 39
2 53 -16 12 -17 28 -23 60 -24 24 0 61 -6 83 -11 22 -6 65 -12 95 -12 51 -2
58 1 86 31 16 18 43 50 58 71 38 51 45 40 9 -15 -26 -40 -28 -49 -27 -143 1
-76 5 -108 19 -135 l18 -35 8 29 c5 16 3 51 -3 79 -14 68 -6 147 20 188 20 32
21 32 18 9 -1 -14 -6 -31 -10 -38 -4 -7 -1 -21 7 -32 11 -15 11 -30 4 -68 -13
-62 -3 -119 23 -127 22 -7 17 -25 -7 -25 -8 0 -27 -9 -41 -21 -23 -18 -35 -20
-83 -15 -53 6 -58 5 -103 -30 -33 -25 -61 -38 -90 -40 -55 -5 -74 -9 -82 -17
-4 -4 3 -7 16 -7 44 0 6 -20 -50 -27 l-53 -6 26 48 c15 26 26 49 25 51 -2 1
-14 -6 -27 -17 -13 -10 -20 -19 -15 -19 4 0 -3 -11 -15 -24 -26 -28 -31 -65
-34 -292 -2 -135 -5 -163 -19 -177 -9 -9 -22 -17 -29 -17 -7 0 -9 -3 -5 -7 4
-4 15 -8 24 -8 14 0 17 -10 17 -47 0 -25 3 -49 8 -54 10 -11 9 -44 -2 -44 -15
0 -26 23 -22 44 5 30 -9 72 -19 57 -8 -15 -10 -10 -30 114 -7 39 -16 89 -21
112 -5 23 -9 63 -9 90 0 94 -45 317 -62 307 -17 -11 -1 -124 21 -155 18 -25
21 -43 21 -143 l0 -115 -37 -37 c-31 -30 -33 -34 -10 -20 51 31 30 -6 -30 -53
l-26 -21 21 -23 c27 -29 28 -68 2 -92 -18 -16 -20 -16 -20 -2 0 23 -9 21 -39
-7 -35 -32 -102 -56 -155 -56 -26 0 -46 -5 -49 -12 -2 -7 -8 -10 -12 -6 -4 4
5 19 19 35 30 32 33 48 11 57 -8 3 -15 16 -15 29 0 13 -5 28 -12 35 -9 9 -6
12 14 12 25 0 26 1 16 34 -7 22 -16 32 -24 29 -21 -8 -17 14 4 22 15 6 14 8
-7 16 -19 7 -21 12 -11 24 6 8 9 19 5 25 -9 15 -25 2 -18 -15 3 -8 0 -15 -7
-15 -9 0 -9 -4 1 -17 12 -14 12 -16 -1 -11 -8 2 -15 19 -16 40 -2 28 1 37 17
41 29 8 23 31 -13 46 -30 11 -31 13 -13 21 19 8 19 8 -3 17 -13 5 -23 12 -23
16 3 30 -1 35 -26 33 -33 -4 -64 21 -42 34 10 7 7 11 -14 19 -30 12 -31 14
-18 39 4 9 13 31 18 49 9 27 8 32 -8 36 -11 3 -19 15 -20 29 -1 12 -2 51 -3
85 -1 37 -7 68 -15 75 -11 11 -13 5 -8 -36 9 -87 -17 -234 -58 -327 -20 -46
-41 -88 -46 -93 -5 -6 -19 0 -37 17 -19 19 -34 25 -50 20 -26 -6 -26 -7 -6
-39 12 -18 14 -28 6 -36 -12 -12 0 -47 34 -93 12 -17 45 -76 73 -132 l51 -102
24 24 c14 14 34 25 46 25 11 0 20 7 20 15 0 8 5 15 12 15 6 0 24 15 39 32 15
18 31 29 36 25 4 -5 0 -14 -10 -21 -21 -16 -22 -55 -2 -62 8 -4 15 -15 15 -25
0 -11 6 -22 14 -25 8 -3 12 -12 9 -20 -4 -12 105 -14 771 -14 l776 0 0 955 0
955 -1160 0 -1160 0 0 -955z m2108 855 c14 0 22 -6 22 -16 0 -9 18 -43 40 -75
42 -62 50 -79 25 -59 -8 6 -24 9 -37 5 -16 -4 -19 -4 -9 3 20 14 7 40 -24 48
-28 7 -29 31 0 26 10 -2 14 1 10 7 -3 6 -12 11 -19 11 -21 0 -81 -33 -68 -38
7 -2 12 -15 12 -29 0 -25 1 -25 18 -10 26 24 30 21 29 -18 -1 -40 0 -40 -32
-19 -22 14 -25 15 -25 1 0 -22 11 -47 21 -47 4 0 6 7 3 15 -4 8 -1 15 5 15 6
0 11 -6 11 -14 0 -19 24 -27 60 -19 17 3 30 2 30 -3 0 -13 -42 -54 -56 -54 -7
0 -17 -8 -23 -17 -8 -16 -12 -15 -43 6 -63 43 -69 125 -18 216 19 33 19 49 4
90 -7 19 -5 18 18 -2 13 -13 34 -23 46 -23z m-974 -176 c3 -8 2 -12 -4 -9 -6
3 -10 10 -10 16 0 14 7 11 14 -7z m866 -424 c0 -5 -5 -10 -11 -10 -5 0 -7 -4
-4 -10 3 -5 2 -10 -4 -10 -6 0 -15 9 -21 20 -9 18 -8 20 15 20 14 0 25 -4 25
-10z m-160 -19 c-7 -14 -7 -22 1 -27 8 -5 6 -10 -6 -17 -29 -16 -38 13 -13 40
26 28 32 29 18 4z m-1055 -31 c3 -5 1 -10 -4 -10 -6 0 -11 5 -11 10 0 6 2 10
4 10 3 0 8 -4 11 -10z m-359 -145 c-11 -8 -25 -15 -30 -15 -6 0 -2 7 8 15 11
8 25 15 30 15 6 0 2 -7 -8 -15z m1452 -42 c1 -34 0 -36 -10 -16 -6 12 -8 29
-5 37 10 24 13 19 15 -21z m-1172 -568 c-6 -22 -9 -25 -22 -14 -13 10 -12 14
2 30 21 24 28 18 20 -16z m-76 -79 c-14 -14 -22 -2 -14 18 5 14 9 15 15 4 4
-7 4 -17 -1 -22z m100 -86 c0 -5 -2 -10 -4 -10 -3 0 -8 5 -11 10 -3 6 -1 10 4
10 6 0 11 -4 11 -10z m20 -40 c0 -11 -4 -20 -10 -20 -5 0 -10 9 -10 20 0 11 5
20 10 20 6 0 10 -9 10 -20z m65 10 c3 -5 -1 -10 -9 -10 -9 0 -16 5 -16 10 0 6
4 10 9 10 6 0 13 -4 16 -10z m-175 -30 c0 -11 -7 -20 -16 -20 -9 0 -12 -5 -8
-12 5 -8 1 -8 -12 2 -10 8 -21 16 -23 17 -2 1 2 9 9 18 18 22 50 19 50 -5z"/>
<path d="M1574 1481 c3 -5 20 -11 37 -13 29 -5 30 -4 14 9 -21 14 -59 18 -51
4z"/>
<path d="M1600 1405 c0 -8 9 -15 20 -15 24 0 27 15 4 24 -22 9 -24 8 -24 -9z"/>
<path d="M1485 1330 c-3 -5 3 -10 15 -10 12 0 18 5 15 10 -3 6 -10 10 -15 10
-5 0 -12 -4 -15 -10z"/>
<path d="M3505 1330 c-4 -6 -5 -12 -4 -13 2 -1 13 -7 24 -13 27 -14 57 -6 53
14 -4 20 -62 29 -73 12z"/>
<path d="M3410 1185 c14 -16 56 -20 64 -6 7 11 -17 21 -51 21 -21 0 -24 -2
-13 -15z"/>
<path d="M3379 1149 c-7 -18 -5 -57 2 -71 11 -20 45 -23 69 -8 12 8 11 10 -6
10 -11 0 -29 9 -40 21 -19 21 -19 21 16 14 24 -4 41 -1 55 9 19 15 18 15 -22
16 -23 0 -48 3 -57 6 -9 3 -17 5 -17 3z"/>
<path d="M1250 1130 c0 -5 5 -10 11 -10 5 0 7 5 4 10 -3 6 -8 10 -11 10 -2 0
-4 -4 -4 -10z"/>
<path d="M1611 1096 c-25 -13 -52 -21 -61 -19 -14 4 -16 -1 -12 -26 4 -26 9
-31 31 -31 20 0 35 11 59 42 27 35 39 59 30 58 -2 -1 -23 -11 -47 -24z"/>
<path d="M1242 1088 c-18 -18 -16 -44 2 -29 8 6 18 11 22 10 5 -1 16 -1 24 0
12 1 11 5 -4 16 -24 18 -29 18 -44 3z"/>
<path d="M3545 1090 c-3 -5 -1 -10 4 -10 6 0 11 5 11 10 0 6 -2 10 -4 10 -3 0
-8 -4 -11 -10z"/>
<path d="M1497 1057 c-11 -29 -9 -53 4 -40 6 6 9 21 7 34 -3 21 -4 22 -11 6z"/>
<path d="M3490 1060 c0 -5 5 -10 10 -10 6 0 10 5 10 10 0 6 -4 10 -10 10 -5 0
-10 -4 -10 -10z"/>
<path d="M1890 1031 c0 -9 24 -21 42 -21 6 0 6 6 -2 15 -14 16 -40 20 -40 6z"/>
<path d="M1592 983 c-24 -8 -41 -18 -38 -21 8 -7 86 19 86 30 0 4 -1 8 -2 7
-2 0 -22 -7 -46 -16z"/>
<path d="M3251 959 c-69 -33 -79 -50 -13 -23 l41 16 34 -36 c19 -20 43 -36 54
-36 32 0 41 -18 33 -63 -4 -23 -10 -91 -13 -152 -5 -108 -5 -109 4 -25 5 47
14 114 20 150 6 36 11 75 11 87 0 20 3 21 21 12 16 -9 23 -8 32 4 7 9 24 15
46 14 29 -2 34 1 37 23 3 20 1 23 -9 13 -7 -7 -23 -13 -36 -13 -13 0 -32 -6
-43 -12 -17 -11 -22 -10 -30 2 -9 13 -12 13 -21 -3 -8 -14 -14 -16 -25 -6 -8
6 -14 19 -14 29 0 20 -31 50 -51 49 -8 0 -43 -14 -78 -30z"/>
<path d="M1340 944 c0 -14 3 -14 15 -4 8 7 15 14 15 16 0 2 -7 4 -15 4 -8 0
-15 -7 -15 -16z"/>
<path d="M1755 910 c-3 -6 1 -7 9 -4 18 7 21 14 7 14 -6 0 -13 -4 -16 -10z"/>
<path d="M3727 883 c-8 -14 -19 -73 -13 -73 6 0 27 72 22 78 -2 2 -6 0 -9 -5z"/>
<path d="M3490 841 c0 -5 5 -13 10 -16 6 -3 10 -2 10 4 0 5 -4 13 -10 16 -5 3
-10 2 -10 -4z"/>
<path d="M3935 784 c-15 -25 -24 -48 -22 -51 3 -3 17 18 31 46 33 63 27 67 -9
5z"/>
<path d="M3070 585 c0 -5 5 -17 10 -25 5 -8 10 -10 10 -5 0 6 -5 17 -10 25 -5
8 -10 11 -10 5z"/>
<path d="M3147 513 c-3 -5 -2 -15 2 -22 7 -10 10 -10 16 -1 4 6 3 16 -3 22 -5
5 -12 6 -15 1z"/>
<path d="M1054 499 c-3 -5 15 -18 39 -28 24 -10 53 -30 63 -42 11 -13 28 -31
39 -39 21 -16 -55 80 -77 97 -20 15 -57 22 -64 12z"/>
<path d="M853 456 c15 -14 33 -26 40 -26 13 1 -16 26 -48 41 -13 7 -10 1 8
-15z"/>
<path d="M1041 451 c12 -16 30 -32 41 -34 12 -4 6 7 -19 29 -45 42 -50 43 -22
5z"/>
<path d="M2760 406 c0 -8 5 -18 10 -21 6 -3 10 3 10 14 0 12 -4 21 -10 21 -5
0 -10 -6 -10 -14z"/>
<path d="M3621 404 c0 -11 3 -14 6 -6 3 7 2 16 -1 19 -3 4 -6 -2 -5 -13z"/>
<path d="M1125 390 c3 -5 10 -10 16 -10 5 0 9 5 9 10 0 6 -7 10 -16 10 -8 0
-12 -4 -9 -10z"/>
<path d="M3281 364 c0 -11 3 -14 6 -6 3 7 2 16 -1 19 -3 4 -6 -2 -5 -13z"/>
<path d="M1250 361 c-26 -14 -142 -22 -156 -10 -22 18 -69 7 -72 -18 -4 -26
16 -30 49 -12 19 9 18 8 -3 -25 -14 -21 -31 -36 -43 -36 -11 0 -38 -21 -61
-46 -40 -44 -42 -45 -62 -28 -11 9 -19 22 -18 28 2 6 1 8 -1 5 -2 -3 -17 -3
-33 -1 -17 2 -37 -2 -46 -9 -11 -9 -18 -9 -22 -2 -7 11 -124 17 -309 17 -57 0
-103 3 -103 8 0 4 -7 8 -16 8 -11 0 -14 5 -10 16 10 26 -21 42 -63 33 -22 -5
-37 -4 -39 1 -7 18 -28 10 -62 -24 -19 -18 -40 -31 -47 -29 -7 3 -13 0 -13 -6
0 -7 21 -11 55 -11 42 0 55 -3 55 -15 0 -23 -78 -26 -135 -6 -56 20 -77 40
-71 67 4 13 2 26 -4 29 -7 4 -10 -46 -10 -144 l0 -151 638 0 638 0 23 30 c12
17 39 39 59 48 20 9 43 22 50 29 19 18 90 25 161 15 63 -9 151 1 151 17 0 25
-98 72 -314 151 -43 16 -85 35 -94 42 -12 10 -16 10 -19 0 -7 -18 -23 -4 -23
19 0 21 -7 23 -30 10z m-964 -156 c-25 -19 -36 -19 -36 0 0 10 10 15 28 15 26
-1 26 -1 8 -15z m134 -25 c0 -5 -9 -10 -21 -10 -11 0 -18 -4 -15 -9 3 -5 -23
-9 -59 -9 -117 0 -63 29 68 37 15 0 27 -3 27 -9z m380 -31 c0 -5 -4 -8 -9 -5
-5 4 -12 0 -14 -6 -3 -8 -6 -6 -6 5 -1 9 6 17 14 17 8 0 15 -5 15 -11z m-506
-18 c3 -4 -6 -6 -19 -3 -14 2 -25 6 -25 8 0 8 39 4 44 -5z m-229 -11 c3 -5 1
-10 -4 -10 -6 0 -11 5 -11 10 0 6 2 10 4 10 3 0 8 -4 11 -10z"/>
<path d="M1622 353 c-7 -3 -24 -27 -38 -54 l-25 -50 30 16 c17 8 54 15 83 16
29 0 73 4 98 8 l45 7 -45 13 c-25 7 -56 19 -70 26 -35 18 -63 24 -78 18z"/>
<path d="M3338 346 c-20 -15 -23 -26 -8 -26 5 0 14 9 20 20 12 23 11 24 -12 6z"/>
<path d="M80 306 c0 -16 27 -29 42 -20 7 5 4 12 -7 21 -24 17 -35 17 -35 -1z"/>
<path d="M3282 311 c4 -13 18 -16 19 -4 0 4 -5 9 -11 12 -7 2 -11 -2 -8 -8z"/>
<path d="M2765 303 c-81 -10 -82 -15 -10 -34 39 -10 73 -18 77 -18 4 -1 -1 12
-10 29 -9 16 -19 29 -22 28 -3 0 -18 -3 -35 -5z"/>
<path d="M3333 257 c-18 -5 -33 -14 -33 -19 0 -5 -4 -6 -10 -3 -5 3 -10 -1
-10 -10 0 -9 4 -14 9 -10 10 6 51 -32 51 -47 0 -5 -13 -14 -29 -19 -27 -10
-48 -36 -37 -47 6 -5 97 59 139 97 l28 26 -23 6 c-13 3 -22 12 -21 20 3 18
-20 20 -64 6z"/>
<path d="M50 251 c0 -5 9 -11 21 -14 16 -4 18 -3 8 9 -13 16 -29 19 -29 5z"/>
<path d="M3646 231 c-4 -7 -5 -15 -2 -18 9 -9 19 4 14 18 -4 11 -6 11 -12 0z"/>
<path d="M1735 190 c28 -12 67 -12 60 0 -3 6 -23 10 -43 9 -30 0 -33 -2 -17
-9z"/>
<path d="M3360 130 c-30 -22 -51 -40 -46 -40 9 0 106 69 106 76 0 7 -3 5 -60
-36z"/>
<path d="M3046 61 c-3 -5 0 -11 7 -13 17 -7 38 2 31 13 -7 12 -31 12 -38 0z"/>
<path d="M3065 10 c-3 -5 1 -10 10 -10 9 0 13 5 10 10 -3 6 -8 10 -10 10 -2 0
-7 -4 -10 -10z"/>
</g>
</svg>
