<?xml version="1.0" standalone="no"?>
<!DOCTYPE svg PUBLIC "-//W3C//DTD SVG 20010904//EN"
 "http://www.w3.org/TR/2001/REC-SVG-20010904/DTD/svg10.dtd">
<svg version="1.0" xmlns="http://www.w3.org/2000/svg"
 width="300.000000pt" height="250.000000pt" viewBox="0 0 300.000000 250.000000"
 preserveAspectRatio="xMidYMid meet">
<metadata>
Created by potrace 1.10, written by Peter Selinger 2001-2011
</metadata>
<g transform="translate(0.000000,250.000000) scale(0.100000,-0.100000)"
fill="#000000" stroke="none">
<path d="M10 2061 c0 -342 3 -440 13 -444 9 -4 9 -6 0 -6 -10 -1 -13 -43 -13
-173 l0 -173 220 3 220 3 0 53 c0 61 9 116 20 116 3 0 5 -12 4 -27 -2 -16 -5
-54 -7 -85 l-4 -58 181 0 181 0 2 118 c0 64 6 128 11 142 9 21 11 17 11 -32 1
-31 6 -60 12 -64 6 -3 8 -15 6 -26 -5 -16 -3 -17 10 -6 14 11 15 10 10 -7 -3
-11 -7 -44 -8 -74 l-3 -54 63 1 c67 1 91 13 91 44 0 17 -3 15 -24 -9 -20 -23
-28 -26 -43 -17 -27 17 -28 62 -2 90 14 15 29 22 40 19 10 -4 19 1 24 12 6 16
8 15 18 -7 5 -14 9 -28 9 -32 -1 -5 2 -8 6 -8 13 0 7 -57 -7 -73 -9 -12 -8
-16 4 -21 35 -13 47 87 15 122 -21 22 -28 48 -10 37 6 -4 10 7 10 26 l0 32
-33 -37 -32 -38 -23 41 c-13 23 -28 41 -33 41 -6 0 -7 9 -4 20 4 12 2 20 -5
20 -8 0 -10 -10 -8 -25 3 -14 1 -25 -3 -25 -5 0 -9 -18 -9 -40 0 -47 -16 -53
-22 -8 -5 30 10 100 25 114 4 4 7 24 7 45 0 40 -21 56 -59 44 -18 -5 -18 -4 0
51 23 69 34 82 26 32 -6 -42 9 -51 37 -23 22 22 45 18 57 -9 9 -20 7 -33 -16
-75 l-28 -51 28 -65 c15 -36 31 -65 36 -65 14 0 23 24 11 28 -7 2 -12 10 -12
17 0 7 -7 26 -15 41 -8 16 -14 40 -14 54 l1 25 9 -25 c7 -22 8 -20 6 12 -3 43
9 42 15 -2 2 -16 0 -32 -6 -34 -7 -3 -4 -9 7 -16 9 -6 17 -23 17 -37 0 -26 0
-26 21 -7 22 20 22 48 3 182 -7 48 -1 52 28 20 15 -18 18 -19 14 -5 -3 9 5 33
19 53 14 20 25 41 25 45 0 5 6 9 14 9 9 0 15 -17 18 -52 3 -29 11 -54 17 -56
53 -18 72 -94 68 -274 l-3 -137 113 -3 113 -3 0 148 c0 96 -4 146 -10 142 -5
-3 -10 3 -10 14 0 12 4 21 10 21 6 0 9 171 10 455 0 400 -1 455 -15 455 -13 0
-15 -46 -15 -371 0 -293 -3 -369 -12 -363 -7 4 -5 -2 5 -13 16 -18 24 -53 12
-53 -3 0 -33 14 -66 31 -82 41 -85 32 -4 -11 63 -33 65 -36 65 -73 0 -21 -5
-48 -11 -59 -8 -14 -8 -23 0 -31 7 -7 11 -58 11 -133 l0 -122 -66 -4 c-107 -5
-104 -9 -104 134 0 140 -16 217 -53 257 -14 14 -28 42 -32 61 -4 19 -11 40
-15 45 -20 28 -18 59 6 91 52 68 65 177 33 287 -7 24 -5 33 6 40 8 4 15 18 14
30 0 21 -1 21 -11 -3 -11 -24 -11 -23 -18 18 -6 39 -30 83 -30 55 0 -7 5 -15
10 -18 5 -3 10 -20 10 -37 0 -30 0 -31 -20 -13 -11 10 -18 21 -15 24 4 7 -8 9
-70 11 -37 2 -39 19 -2 21 12 0 17 3 10 5 -7 3 -9 12 -6 21 5 12 2 13 -14 5
-11 -6 -25 -7 -33 -2 -17 10 -33 3 -24 -12 4 -6 -1 -8 -12 -4 -11 3 -29 -3
-44 -14 -20 -16 -22 -20 -7 -20 9 0 17 5 17 11 0 6 9 9 20 6 11 -3 27 1 35 10
8 8 20 11 26 8 16 -10 -20 -45 -44 -42 -14 1 -21 -5 -23 -22 -3 -14 -11 -32
-19 -41 -8 -9 -15 -22 -15 -29 0 -6 -9 -21 -19 -32 -20 -22 -32 -83 -19 -99 5
-7 4 -7 -4 0 -17 14 -44 12 -57 -4 -15 -17 7 -66 38 -88 17 -12 17 -16 5 -33
-8 -10 -14 -31 -14 -45 0 -15 -14 -75 -31 -134 -22 -78 -27 -111 -20 -120 6
-7 8 -16 4 -19 -9 -10 27 -47 46 -48 10 0 11 -3 4 -5 -7 -3 -21 -1 -31 5 -15
8 -23 6 -37 -9 -14 -15 -19 -44 -23 -135 l-5 -115 -138 0 c-77 0 -140 3 -140
8 -1 4 -2 32 -3 62 -1 30 -5 61 -9 68 -5 7 -3 12 5 12 8 0 20 6 26 12 7 7 32
20 55 30 23 9 34 17 23 17 -12 1 -16 6 -12 16 7 20 -38 31 -67 17 -20 -10 -18
-11 16 -11 20 -1 37 -5 37 -10 0 -12 -44 -22 -48 -11 -4 11 -42 13 -66 4 -9
-3 -15 -16 -15 -28 1 -16 2 -17 6 -3 5 21 63 24 63 3 0 -9 -8 -12 -25 -8 -18
3 -25 0 -25 -11 0 -9 -10 -17 -22 -19 -13 -2 -23 -10 -24 -18 -3 -43 -5 -50
-18 -50 -7 0 -21 -10 -29 -23 l-16 -22 -1 25 c-1 22 -2 23 -13 9 -7 -9 -22
-15 -35 -14 -12 1 -28 -5 -35 -13 -10 -13 -7 -14 25 -8 31 6 38 4 38 -9 0 -8
-4 -15 -10 -15 -5 0 -10 5 -10 12 0 7 -5 5 -12 -5 -14 -18 -68 -41 -68 -29 0
5 12 13 28 19 l27 11 -26 1 c-14 1 -29 -2 -33 -6 -3 -4 -35 -8 -70 -9 -35 -1
-69 -5 -76 -9 -18 -11 -24 3 -9 22 13 17 13 17 -13 0 -15 -9 -32 -17 -37 -17
-15 0 -13 253 2 262 9 6 9 8 0 8 -9 0 -10 7 -3 26 7 16 7 31 1 38 -5 6 -8 56
-7 111 5 176 1 162 40 157 76 -9 161 71 154 145 l-4 38 -13 -48 c-15 -55 -53
-89 -116 -106 -44 -12 -59 -1 -50 34 3 11 8 40 12 65 6 47 21 85 30 77 2 -3 0
-15 -7 -26 -8 -17 -8 -26 4 -43 15 -20 15 -19 9 17 -4 27 -3 36 5 31 7 -4 12
-13 12 -19 0 -20 39 -40 54 -28 7 6 16 8 19 4 4 -3 10 3 14 13 3 10 26 41 50
68 34 38 43 55 38 70 -8 24 -10 35 -26 174 -11 91 -15 106 -36 119 -20 13 -28
14 -48 3 -18 -10 -23 -20 -22 -46 1 -19 5 -34 10 -34 8 0 -13 -42 -28 -52 -5
-4 -25 -8 -42 -8 -18 0 -33 -5 -33 -11 0 -6 -6 -9 -12 -7 -9 3 -14 30 -15 79
-1 41 -2 77 -2 82 -1 4 -5 7 -11 7 -7 0 -10 -153 -10 -439z m221 316 c7 -40
13 -92 13 -117 1 -27 7 -50 16 -57 12 -9 5 -21 -47 -72 -33 -34 -69 -61 -79
-61 -17 0 -16 1 2 15 18 14 18 14 -8 15 -30 0 -41 26 -52 113 -4 37 -3 47 9
47 8 0 15 -4 15 -10 0 -5 8 -18 18 -28 9 -10 22 -27 29 -38 11 -17 12 -17 10
9 -1 15 -5 27 -8 27 -4 0 -12 15 -18 33 -8 24 -17 32 -36 33 -14 1 -22 -2 -19
-7 3 -5 1 -9 -5 -9 -8 0 -9 40 -2 58 0 1 9 -2 19 -7 13 -7 23 -6 30 1 15 15
28 2 35 -32 3 -14 5 -7 3 14 -2 31 1 40 17 44 17 4 19 11 14 62 -12 108 24 81
44 -33z m-180 -277 c-7 -19 -18 128 -11 155 3 11 8 -16 11 -60 3 -44 3 -87 0
-95z m1086 140 c31 -14 44 -26 48 -47 4 -15 11 -38 17 -50 6 -11 8 -25 5 -30
-4 -6 -2 -26 4 -46 7 -26 7 -43 -2 -59 -7 -12 -13 -31 -14 -43 -1 -11 -3 -25
-4 -30 0 -6 -17 -27 -37 -48 -58 -60 -110 -48 -172 41 -13 18 -28 30 -33 27
-5 -4 -9 3 -9 14 0 12 5 21 11 21 11 0 10 14 -6 92 -4 22 1 35 25 59 16 17 28
35 25 39 -2 3 10 23 26 43 35 42 55 45 116 17z m-229 -216 c21 -15 30 -44 14
-44 -5 0 -16 8 -24 18 -36 42 -31 55 10 26z m132 -204 c5 -9 4 -23 -1 -33 -7
-11 -6 -17 1 -17 5 0 10 4 10 9 0 5 8 7 19 4 12 -3 28 7 50 33 43 54 42 17 -3
-53 l-33 -52 -22 22 c-15 15 -21 17 -19 7 2 -9 -4 -14 -14 -14 -10 1 -15 -3
-12 -8 4 -6 1 -9 -6 -6 -20 6 -24 28 -6 28 9 0 16 5 16 10 0 6 -2 10 -5 10
-11 0 -70 -32 -86 -47 -15 -12 -17 -10 -23 26 -3 22 -2 51 4 66 5 14 10 46 10
70 0 26 5 45 13 48 11 4 89 -71 107 -103z m-8 -135 c-2 -14 -8 -25 -13 -25
-10 0 -12 34 -2 43 13 14 20 6 15 -18z m8 -44 c0 -5 3 -16 6 -25 3 -9 2 -16
-4 -16 -5 0 -12 11 -14 25 -3 14 -1 25 3 25 5 0 9 -4 9 -9z m-135 -41 c4 -6
-5 -10 -20 -10 -15 0 -24 4 -20 10 3 6 12 10 20 10 8 0 17 -4 20 -10z m151
-55 c0 -44 -1 -44 -13 -20 -10 18 -11 30 -3 45 6 11 12 20 13 20 2 0 3 -20 3
-45z m-173 -47 c-6 -35 -11 -44 -17 -37 -7 8 6 69 15 69 5 0 6 -15 2 -32z m93
-60 c17 -33 16 -33 -3 -15 -11 9 -25 17 -31 17 -6 0 -9 7 -6 15 9 23 22 18 40
-17z m-36 -68 c-12 -16 -18 -34 -15 -40 3 -5 1 -10 -5 -10 -15 0 -26 33 -12
38 7 2 12 12 12 22 0 10 8 26 18 36 16 16 17 16 20 1 2 -9 -6 -30 -18 -47z
m-440 40 c0 -5 -4 -10 -10 -10 -5 0 -10 5 -10 10 0 6 5 10 10 10 6 0 10 -4 10
-10z m-70 -60 c0 -11 -7 -20 -15 -20 -8 0 -15 -4 -15 -10 0 -5 -7 -10 -15 -10
-8 0 -15 5 -15 10 0 6 6 10 13 10 7 0 18 9 25 20 7 11 14 20 17 20 3 0 5 -9 5
-20z m67 -2 c-3 -8 -6 -5 -6 6 -1 11 2 17 5 13 3 -3 4 -12 1 -19z m3 -38 c0
-5 -2 -10 -4 -10 -3 0 -8 5 -11 10 -3 6 -1 10 4 10 6 0 11 -4 11 -10z m425
-10 c3 -5 1 -10 -4 -10 -6 0 -11 5 -11 10 0 6 2 10 4 10 3 0 8 -4 11 -10z"/>
<path d="M190 2302 c0 -18 5 -32 10 -32 6 0 8 11 4 28 -10 39 -14 40 -14 4z"/>
<path d="M160 2238 c1 -23 38 -58 60 -58 13 0 20 5 17 13 -2 6 -9 11 -16 10
-6 -2 -18 8 -27 22 -17 27 -34 33 -34 13z"/>
<path d="M1055 2130 c-18 -8 -17 -9 8 -9 15 -1 27 4 27 9 0 12 -8 12 -35 0z"/>
<path d="M1124 2116 c-13 -14 -7 -63 8 -72 6 -4 7 2 3 16 -6 19 -4 21 17 15
37 -12 43 -11 43 5 0 11 -10 14 -39 13 -30 -2 -37 0 -29 8 7 7 25 12 41 13 17
1 28 4 25 9 -7 12 -57 7 -69 -7z"/>
<path d="M1005 2090 c-4 -6 10 -10 35 -10 25 0 39 4 35 10 -3 6 -19 10 -35 10
-16 0 -32 -4 -35 -10z"/>
<path d="M1043 2008 c-9 -10 -14 -21 -10 -24 3 -3 10 3 16 14 9 18 16 19 43
11 44 -12 58 -11 58 4 0 21 -87 16 -107 -5z"/>
<path d="M1060 1970 c-8 -5 -11 -12 -7 -17 4 -4 16 -2 25 3 11 8 26 8 45 2 31
-11 34 -20 12 -38 -12 -10 -21 -10 -41 -1 -14 6 -28 11 -32 11 -13 -1 40 -40
53 -40 37 0 62 71 29 84 -23 9 -67 7 -84 -4z"/>
<path d="M941 1880 c0 -24 69 -117 69 -94 0 6 -7 18 -17 25 -9 8 -24 32 -34
54 -16 34 -19 36 -18 15z"/>
<path d="M1528 1884 c-2 -339 -2 -616 -1 -617 1 -1 332 -1 737 1 577 2 736 5
736 15 0 9 -115 12 -528 12 l-527 -1 -27 23 c-30 23 -66 38 -75 29 -3 -2 11
-11 30 -19 33 -14 54 -34 45 -42 -2 -2 -23 2 -47 9 -29 8 -60 10 -93 5 -28 -5
-60 -4 -74 1 -13 5 -24 6 -24 1 0 -13 -103 -9 -116 4 -8 7 -11 183 -12 585 -1
676 0 610 -12 610 -6 0 -11 -220 -12 -616z"/>
<path d="M658 2483 c7 -3 16 -2 19 1 4 3 -2 6 -13 5 -11 0 -14 -3 -6 -6z"/>
<path d="M868 2483 c7 -3 16 -2 19 1 4 3 -2 6 -13 5 -11 0 -14 -3 -6 -6z"/>
<path d="M2182 2464 c-7 -8 -17 -12 -23 -9 -5 4 -9 -1 -9 -9 0 -9 -4 -16 -9
-16 -5 0 -14 -13 -20 -30 -8 -25 -16 -30 -43 -31 l-33 -1 30 -7 c29 -7 48 3
58 33 2 6 8 8 12 4 4 -4 0 -19 -9 -33 -9 -14 -21 -36 -26 -50 -9 -23 -8 -25
14 -19 19 4 24 2 22 -10 -3 -20 -16 -33 -16 -16 0 7 -3 10 -6 7 -4 -4 -1 -13
6 -22 8 -10 9 -15 1 -15 -13 0 -15 -36 -2 -44 8 -5 32 39 34 61 0 4 7 14 14
21 17 18 8 32 -22 32 -13 0 -27 5 -30 10 -3 6 -1 10 5 10 6 0 8 5 5 10 -3 6
-2 10 3 10 5 0 14 11 20 25 10 21 16 24 39 19 16 -4 30 -10 33 -14 3 -4 16
-10 30 -13 14 -3 36 -8 50 -11 14 -4 0 6 -30 21 -30 15 -72 27 -92 27 -44 1
-46 5 -13 29 15 11 44 18 75 18 47 2 53 -1 85 -37 19 -22 34 -49 35 -60 0 -12
6 -24 13 -27 6 -2 18 -21 26 -42 13 -36 12 -39 -10 -57 -22 -18 -22 -18 -2 -9
21 11 21 9 16 -26 -3 -21 -11 -41 -17 -45 -6 -4 -9 -8 -6 -9 3 0 12 -2 21 -4
10 -2 16 6 18 24 8 85 8 117 1 126 -5 6 -8 12 -8 15 0 6 -21 60 -33 83 -6 10
-7 23 -3 29 4 6 3 8 -4 4 -6 -3 -19 4 -29 16 -10 13 -29 29 -41 36 -30 17
-114 15 -130 -4z"/>
<path d="M1651 2444 c0 -11 3 -14 6 -6 3 7 2 16 -1 19 -3 4 -6 -2 -5 -13z"/>
<path d="M970 2339 c-40 -37 -24 -37 22 -1 9 8 44 14 77 15 65 2 86 17 24 17
-21 0 -47 3 -58 6 -14 3 -33 -7 -65 -37z"/>
<path d="M2676 2363 c-10 -10 -16 -13 -13 -7 3 6 -2 10 -11 9 -25 -2 -58 -22
-50 -31 5 -4 3 -13 -3 -21 -9 -10 -8 -13 1 -13 8 0 10 -8 6 -25 -4 -14 -2 -34
4 -44 7 -15 6 -20 -6 -25 -9 -4 -22 -2 -29 4 -10 8 -22 3 -47 -20 -18 -18 -28
-29 -22 -26 7 3 14 -1 18 -9 3 -8 17 -20 31 -27 14 -6 25 -17 25 -25 0 -7 5
-13 10 -13 6 0 20 -12 33 -26 18 -21 22 -39 24 -100 l1 -74 -36 27 c-45 34
-67 48 -109 70 -18 9 -30 19 -28 23 2 4 -13 13 -34 20 -21 7 -52 23 -67 35
-28 22 -28 24 -11 42 9 11 14 22 11 26 -9 9 6 48 17 42 5 -4 9 -2 9 3 0 6 -7
12 -15 15 -10 4 -23 -12 -43 -56 l-29 -62 26 -16 c14 -9 32 -23 40 -32 7 -10
20 -17 28 -17 7 0 26 -8 41 -18 75 -52 109 -72 119 -72 6 0 20 -11 30 -24 10
-14 30 -28 44 -31 24 -6 27 -3 31 27 3 18 4 53 2 78 -1 25 -3 53 -3 63 -1 23
-103 127 -124 127 -10 0 -17 4 -17 9 0 18 32 21 61 6 28 -15 30 -15 39 11 7
17 7 50 2 90 -5 35 -6 66 -4 69 13 13 22 2 27 -32 11 -68 16 -85 22 -79 7 7
11 35 12 89 1 27 5 37 17 37 15 0 16 -9 10 -67 -7 -72 7 -72 19 -1 4 23 12 38
21 38 18 0 17 -5 -1 -66 -18 -59 -18 -54 -2 -54 8 0 22 9 32 20 18 19 45 27
45 13 0 -4 -16 -23 -35 -43 -28 -28 -35 -45 -41 -91 -5 -47 -2 -64 19 -110 48
-103 59 -148 51 -217 -8 -79 -21 -92 -87 -92 -69 0 -181 19 -185 31 -2 5 -18
9 -37 9 -18 0 -38 7 -45 15 -10 12 -8 16 11 24 13 5 18 10 11 10 -7 1 -10 6
-7 11 9 15 0 12 -39 -11 -43 -25 -45 -18 -8 26 78 92 88 113 28 55 -42 -39
-96 -125 -85 -134 2 -2 31 -15 63 -31 56 -25 65 -27 150 -21 121 8 246 -10
246 -36 0 -14 -8 -18 -34 -18 -19 0 -47 -5 -63 -11 l-28 -11 24 -19 24 -20
-22 -15 c-12 -8 -19 -19 -16 -23 7 -12 248 -8 252 4 4 13 -155 17 -179 4 -14
-7 -16 -6 -12 5 3 8 1 24 -6 35 -11 22 -11 22 38 24 9 1 24 12 33 24 8 13 17
21 20 19 2 -2 4 7 4 20 0 13 -4 22 -10 20 -5 -2 -18 1 -28 6 -14 7 -16 13 -8
22 13 16 30 173 20 183 -7 8 -31 78 -35 103 -2 8 -8 16 -14 18 -5 2 -8 8 -4
13 3 5 0 9 -6 9 -7 0 -10 7 -6 15 3 8 1 15 -4 15 -9 0 -6 45 6 84 3 11 17 33
31 47 34 36 29 74 -9 74 -40 -1 -34 37 7 48 16 4 15 5 -6 6 -15 0 -32 8 -39
16 -7 8 -18 15 -25 15 -7 0 -15 7 -19 15 -7 20 -28 19 -50 -2z"/>
<path d="M2162 2358 c-17 -17 -15 -38 2 -32 17 7 28 31 17 38 -4 3 -13 0 -19
-6z"/>
<path d="M2207 2363 c-4 -3 -7 -15 -7 -25 0 -10 -5 -18 -11 -18 -5 0 -7 -5 -3
-11 3 -6 15 -9 25 -6 11 3 19 2 19 -2 0 -4 17 -12 38 -17 27 -7 37 -14 37 -29
0 -11 8 -21 18 -23 9 -2 17 -10 17 -19 0 -23 24 -9 31 18 7 30 0 56 -11 39 -8
-13 -52 25 -63 55 -5 11 -13 14 -27 10 -28 -9 -63 4 -56 21 6 15 3 18 -7 7z"/>
<path d="M1139 2343 c-12 -16 -12 -17 1 -7 8 6 22 14 30 17 13 5 12 6 -1 6 -9
1 -23 -7 -30 -16z"/>
<path d="M2240 2350 c-8 -5 -10 -10 -5 -10 6 0 17 5 25 10 8 5 11 10 5 10 -5
0 -17 -5 -25 -10z"/>
<path d="M2066 2315 c4 -8 11 -15 16 -15 6 0 5 6 -2 15 -7 8 -14 15 -16 15 -2
0 -1 -7 2 -15z"/>
<path d="M2332 2323 c-10 -4 -9 -8 5 -19 29 -21 46 -18 31 6 -13 21 -15 22
-36 13z"/>
<path d="M2237 2247 c4 -6 -6 -8 -25 -4 -18 4 -32 3 -32 -2 0 -11 49 -21 55
-11 3 5 15 6 26 3 15 -4 20 -2 17 7 -2 7 -14 14 -26 15 -11 1 -18 -3 -15 -8z"/>
<path d="M2099 2205 c-1 -11 -1 -23 0 -28 1 -4 -25 -7 -56 -6 -36 2 -58 -2
-61 -9 -2 -7 -8 -12 -14 -12 -21 0 -48 -43 -64 -101 -20 -72 -45 -103 -73 -94
-12 4 -21 2 -21 -4 0 -6 11 -11 24 -11 14 0 28 -4 31 -10 6 -10 -5 -13 -40
-11 -16 1 -14 -2 8 -15 38 -21 27 -29 -18 -14 -48 16 -57 6 -11 -11 32 -12 49
-29 28 -29 -5 0 -16 -17 -26 -37 -10 -21 -26 -43 -37 -51 -13 -9 -18 -23 -17
-42 1 -16 6 -26 10 -24 4 3 8 -2 8 -10 0 -9 5 -16 12 -16 6 0 2 -10 -10 -23
-12 -13 -22 -27 -22 -33 0 -5 5 -1 11 9 14 24 51 21 109 -8 37 -19 48 -29 44
-43 -5 -15 -4 -15 10 2 8 10 20 15 27 10 8 -4 10 -3 5 4 -4 7 -2 12 3 12 6 0
12 0 14 1 1 0 22 4 46 9 47 8 71 4 71 -12 0 -6 -6 -8 -13 -5 -7 3 -26 -1 -42
-8 -29 -12 -28 -12 32 -16 56 -4 131 6 93 11 -8 1 -18 2 -22 1 -5 0 -8 4 -8
10 0 7 10 9 25 7 14 -3 25 -1 25 5 0 5 13 6 33 3 17 -4 46 -7 62 -7 29 0 29
-1 11 -14 -11 -9 -29 -13 -40 -10 -12 3 -16 2 -9 -1 7 -3 9 -13 6 -22 -4 -13
-3 -14 5 -3 6 8 18 11 33 6 18 -5 20 -4 9 4 -12 9 -12 11 2 16 26 10 63 1 60
-14 -2 -11 0 -12 11 -3 10 9 17 9 26 -1 10 -9 16 -8 28 8 12 15 14 16 10 3 -4
-11 7 -31 31 -57 l38 -41 248 5 c137 2 251 7 254 10 6 6 8 6 -276 9 l-212 3
-25 27 c-23 24 -45 59 -45 69 0 2 16 -1 35 -7 19 -6 35 -14 35 -18 0 -4 12 -3
26 2 34 13 34 13 27 -7 -6 -16 -5 -16 22 1 21 14 30 16 33 7 3 -8 8 -7 17 5
10 15 8 22 -13 46 -14 15 -28 26 -30 23 -3 -3 3 -14 13 -25 10 -11 15 -23 12
-27 -4 -3 -18 7 -32 22 -13 16 -28 26 -32 21 -4 -4 3 -16 16 -27 13 -11 22
-21 20 -24 -4 -4 -18 3 -69 33 -20 13 -21 12 -15 -7 7 -24 -7 -28 -25 -6 -7 8
-16 13 -20 10 -12 -7 -60 16 -60 28 0 6 -9 1 -20 -11 -12 -12 -25 -22 -31 -22
-6 0 -39 16 -75 36 -47 26 -68 33 -80 26 -16 -9 -16 -10 2 -19 10 -5 28 -9 39
-9 19 1 45 -16 45 -28 0 -10 -39 -6 -45 4 -3 6 -15 10 -25 10 -11 0 -27 11
-35 24 -9 13 -25 26 -36 29 -11 3 -23 15 -26 26 -3 12 -10 21 -15 21 -5 0 -7
4 -3 9 3 5 2 12 -3 15 -19 11 -9 -35 13 -58 13 -14 22 -26 19 -26 -3 0 1 -6 8
-14 7 -8 15 -12 17 -10 6 6 31 -17 31 -28 0 -5 -9 -7 -19 -3 -11 3 -22 1 -26
-5 -9 -15 -59 32 -75 71 -7 16 -20 29 -30 29 -17 0 -25 16 -46 85 -7 23 -15
30 -34 30 -14 0 -30 7 -37 15 -11 13 -12 13 -13 -2 0 -9 5 -20 10 -23 16 -10
12 -42 -6 -49 -9 -3 -29 -6 -45 -6 -19 0 -39 -10 -55 -25 -29 -29 -34 -31 -34
-10 0 9 10 20 23 26 19 9 87 128 87 153 0 5 17 54 37 108 33 91 40 100 72 114
24 10 57 14 99 12 46 -3 62 -1 62 9 0 7 -4 13 -9 13 -5 0 -16 15 -25 33 -12
25 -16 28 -17 12z m-129 -437 c12 -29 35 -70 51 -90 16 -20 29 -39 29 -43 0
-15 -43 19 -60 48 -24 39 -26 30 -3 -18 9 -19 24 -36 32 -36 9 -1 -9 -5 -39
-10 -44 -6 -63 -4 -96 11 -44 19 -71 46 -38 37 89 -23 114 -28 128 -25 15 2
15 6 4 21 -11 14 -30 18 -97 20 -48 1 -86 7 -88 12 -6 18 21 46 42 45 11 -1
37 -1 57 -1 28 0 35 -4 31 -15 -6 -16 -2 -17 21 -8 9 3 16 13 16 21 0 8 -4 12
-8 9 -4 -2 -8 3 -8 12 0 9 -4 27 -8 40 -15 45 12 21 34 -30z m424 -164 c9 -3
16 -12 16 -20 0 -16 -16 -19 -25 -4 -4 6 -11 8 -16 5 -5 -3 -6 1 -3 9 7 18 7
18 28 10z m-279 -14 c3 -5 1 -10 -4 -10 -6 0 -11 5 -11 10 0 6 2 10 4 10 3 0
8 -4 11 -10z"/>
<path d="M1831 1726 c-10 -12 -8 -13 8 -9 12 3 18 9 15 14 -7 12 -10 11 -23
-5z"/>
<path d="M2172 2198 c-19 -19 -14 -24 23 -25 19 -1 35 2 35 6 0 11 -23 31 -35
31 -6 0 -16 -5 -23 -12z"/>
<path d="M2253 2189 c-1 -14 3 -19 12 -15 8 3 14 2 14 -2 -3 -20 3 -20 22 -1
17 17 19 23 8 30 -26 16 -55 10 -56 -12z"/>
<path d="M2678 2187 c2 -10 5 -16 6 -15 1 2 7 10 13 18 10 13 8 16 -6 16 -13
0 -17 -6 -13 -19z"/>
<path d="M2656 2175 c-3 -8 -1 -15 4 -15 6 0 10 7 10 15 0 8 -2 15 -4 15 -2 0
-6 -7 -10 -15z"/>
<path d="M2180 2160 c0 -5 5 -10 10 -10 6 0 10 5 10 10 0 6 -4 10 -10 10 -5 0
-10 -4 -10 -10z"/>
<path d="M2250 2151 c0 -5 7 -12 16 -15 14 -5 15 -4 4 9 -14 17 -20 19 -20 6z"/>
<path d="M2210 2139 c0 -5 5 -7 10 -4 6 3 10 8 10 11 0 2 -4 4 -10 4 -5 0 -10
-5 -10 -11z"/>
<path d="M2160 2109 c0 -35 41 -103 72 -120 19 -10 62 12 72 39 7 16 -3 42
-16 42 -6 0 -7 -7 -4 -16 10 -26 -22 -44 -56 -32 -32 12 -38 33 -7 25 13 -4
28 1 38 10 14 15 14 16 -11 10 -15 -4 -30 -3 -33 3 -4 6 9 10 33 10 41 0 69
20 57 40 -5 8 -12 4 -22 -10 -13 -19 -23 -22 -60 -17 -32 3 -42 2 -34 -6 6 -6
11 -18 11 -26 -1 -13 -4 -12 -16 4 -8 11 -12 30 -9 42 3 12 1 25 -5 28 -6 4
-10 -7 -10 -26z"/>
<path d="M2218 2108 c8 -8 17 -8 34 0 22 10 21 11 -11 11 -27 1 -32 -2 -23
-11z"/>
<path d="M2651 2111 c-10 -6 -10 -10 -1 -16 13 -8 24 -1 19 14 -3 6 -10 7 -18
2z"/>
<path d="M2126 2093 c-6 -14 -5 -15 5 -6 7 7 10 15 7 18 -3 3 -9 -2 -12 -12z"/>
<path d="M2040 2089 c0 -5 5 -7 10 -4 6 3 10 8 10 11 0 2 -4 4 -10 4 -5 0 -10
-5 -10 -11z"/>
<path d="M2681 2095 c1 -19 18 -51 18 -35 0 8 -4 22 -9 30 -5 8 -9 11 -9 5z"/>
<path d="M2727 2083 c-4 -3 -7 -16 -6 -27 0 -19 1 -19 10 3 10 24 8 36 -4 24z"/>
<path d="M769 2053 c-13 -16 -12 -17 4 -4 9 7 17 15 17 17 0 8 -8 3 -21 -13z"/>
<path d="M2061 2054 c0 -11 3 -14 6 -6 3 7 2 16 -1 19 -3 4 -6 -2 -5 -13z"/>
<path d="M2091 2054 c0 -11 3 -14 6 -6 3 7 2 16 -1 19 -3 4 -6 -2 -5 -13z"/>
<path d="M2160 2031 c0 -6 4 -13 10 -16 6 -3 7 1 4 9 -7 18 -14 21 -14 7z"/>
<path d="M2724 2015 c3 -8 9 -22 12 -30 5 -11 -1 -15 -26 -15 -18 0 -29 -4
-25 -10 8 -13 75 -13 75 0 0 15 -29 70 -36 70 -4 0 -3 -7 0 -15z"/>
<path d="M165 2000 c-4 -6 -19 -10 -33 -8 -15 2 -28 -1 -30 -7 -4 -16 41 -16
62 0 11 8 17 17 14 21 -3 3 -9 0 -13 -6z"/>
<path d="M1940 1989 c0 -14 7 -19 25 -19 32 0 32 12 0 27 -22 10 -25 9 -25 -8z"/>
<path d="M2306 1991 c-4 -7 -5 -15 -2 -18 9 -9 19 4 14 18 -4 11 -6 11 -12 0z"/>
<path d="M56 1964 c-9 -22 3 -32 14 -14 12 19 12 30 1 30 -5 0 -12 -7 -15 -16z"/>
<path d="M661 1975 c3 -2 38 -11 79 -20 56 -12 76 -13 84 -4 8 9 8 10 -1 5 -7
-4 -39 0 -72 9 -58 15 -99 20 -90 10z"/>
<path d="M618 1953 c7 -3 16 -2 19 1 4 3 -2 6 -13 5 -11 0 -14 -3 -6 -6z"/>
<path d="M1685 1950 c-22 -5 -12 -7 39 -8 38 -1 67 0 65 2 -10 9 -77 13 -104
6z"/>
<path d="M1973 1953 c-23 -9 -14 -18 17 -18 17 0 29 5 27 10 -4 12 -27 16 -44
8z"/>
<path d="M2184 1948 c-3 -5 2 -9 12 -8 48 5 66 0 60 -17 -4 -10 -4 -14 0 -10
4 4 13 -1 20 -11 7 -9 15 -14 19 -10 4 4 -2 20 -14 36 -16 24 -29 30 -56 30
-19 0 -38 -4 -41 -10z"/>
<path d="M670 1941 c0 -5 8 -11 18 -14 9 -2 26 -8 36 -13 13 -5 17 -4 13 3 -9
14 -67 35 -67 24z"/>
<path d="M1906 1932 c-8 -14 -3 -62 6 -56 4 3 8 -2 8 -10 0 -8 5 -18 10 -21 7
-4 8 8 4 37 -7 46 -18 66 -28 50z"/>
<path d="M2042 1924 c10 -10 20 -16 22 -13 3 3 -5 11 -17 18 -21 13 -21 12 -5
-5z"/>
<path d="M755 1920 c-3 -5 1 -10 10 -10 9 0 13 5 10 10 -3 6 -8 10 -10 10 -2
0 -7 -4 -10 -10z"/>
<path d="M2100 1911 c0 -5 7 -14 15 -21 8 -7 12 -17 8 -24 -4 -8 -3 -8 7 1 9
9 8 15 -9 32 -12 12 -21 17 -21 12z"/>
<path d="M2760 1909 c0 -5 5 -7 10 -4 6 3 10 8 10 11 0 2 -4 4 -10 4 -5 0 -10
-5 -10 -11z"/>
<path d="M1978 1883 c7 -3 16 -2 19 1 4 3 -2 6 -13 5 -11 0 -14 -3 -6 -6z"/>
<path d="M2740 1883 c0 -7 5 -13 11 -13 5 0 19 -20 30 -45 22 -49 29 -55 29
-25 0 22 -69 104 -70 83z"/>
<path d="M2031 1876 c2 -2 20 -6 39 -10 25 -4 31 -3 20 4 -14 9 -69 15 -59 6z"/>
<path d="M2213 1864 c-3 -8 -16 -20 -29 -25 -13 -4 -24 -13 -24 -19 0 -14 19
-13 34 3 16 16 39 57 31 57 -3 0 -8 -7 -12 -16z"/>
<path d="M2330 1873 c0 -5 -7 -30 -15 -57 -19 -63 -7 -52 16 14 10 27 13 50 8
50 -5 0 -9 -3 -9 -7z"/>
<path d="M1661 1844 c0 -11 3 -14 6 -6 3 7 2 16 -1 19 -3 4 -6 -2 -5 -13z"/>
<path d="M2040 1830 c0 -5 7 -10 15 -10 8 0 15 5 15 10 0 6 -7 10 -15 10 -8 0
-15 -4 -15 -10z"/>
<path d="M375 1799 c-16 -10 -61 -35 -100 -54 -112 -57 -123 -64 -130 -85 -8
-25 27 -65 50 -56 9 3 19 15 22 26 3 11 11 20 18 20 7 0 43 14 80 30 37 17 73
30 80 30 8 0 18 7 23 17 9 15 13 15 61 -1 58 -19 71 -15 71 18 0 36 -33 60
-74 53 -24 -4 -39 -1 -47 9 -14 17 -17 17 -54 -7z m65 -37 c0 -9 -7 -8 -24 5
-13 10 -22 21 -20 25 7 11 44 -15 44 -30z m-60 18 c0 -5 -4 -10 -10 -10 -5 0
-10 5 -10 10 0 6 5 10 10 10 6 0 10 -4 10 -10z m141 -19 c13 -11 21 -23 17
-27 -5 -4 -17 1 -27 10 -13 11 -27 15 -40 11 -22 -7 -30 10 -8 18 23 10 35 7
58 -12z m-112 -17 c1 -1 0 -8 -4 -14 -5 -8 -11 -8 -20 0 -9 7 -35 0 -99 -29
-47 -22 -86 -36 -86 -31 0 12 12 19 95 56 59 27 97 33 114 18z m-214 -114 c-4
-6 -13 -4 -22 6 -14 13 -14 17 -2 24 15 10 34 -14 24 -30z"/>
<path d="M2080 1800 c-32 -32 -23 -47 10 -15 17 16 30 30 30 32 0 10 -23 0
-40 -17z"/>
<path d="M2205 1810 c-9 -14 3 -30 23 -30 15 1 15 2 -2 11 -15 9 -16 13 -5 20
9 6 10 9 2 9 -6 0 -15 -4 -18 -10z"/>
<path d="M2020 1781 c0 -5 5 -13 10 -16 6 -3 10 -2 10 4 0 5 -4 13 -10 16 -5
3 -10 2 -10 -4z"/>
<path d="M2366 1763 c-6 -14 -5 -15 5 -6 7 7 10 15 7 18 -3 3 -9 -2 -12 -12z"/>
<path d="M2677 1763 c-13 -12 -7 -23 11 -22 10 0 12 3 4 6 -6 2 -10 9 -6 14 6
10 0 12 -9 2z"/>
<path d="M1146 1734 c-4 -14 -5 -29 -2 -31 3 -3 8 7 12 21 3 15 4 29 1 32 -2
3 -8 -7 -11 -22z"/>
<path d="M696 1729 c-14 -11 -26 -27 -26 -34 0 -9 9 -5 25 10 28 29 42 31 73
9 12 -8 22 -11 22 -5 0 12 -40 41 -56 41 -6 0 -23 -9 -38 -21z"/>
<path d="M2127 1734 c6 -15 23 -19 23 -5 0 5 -7 11 -14 14 -10 4 -13 1 -9 -9z"/>
<path d="M2744 1714 c-18 -15 -18 -15 6 -10 14 3 31 6 38 6 6 0 12 5 12 10 0
15 -34 12 -56 -6z"/>
<path d="M703 1698 c-17 -22 -21 -42 -11 -61 6 -12 5 -23 -2 -32 -8 -10 -8
-19 -1 -33 6 -11 10 -37 8 -59 -2 -32 1 -38 18 -38 16 0 21 8 23 40 2 26 0 35
-6 26 -5 -7 -7 -22 -5 -32 4 -13 0 -19 -12 -19 -12 0 -15 5 -11 16 3 9 6 24 6
35 0 11 7 19 16 19 8 0 12 5 9 10 -3 6 -15 10 -26 10 -10 0 -19 5 -19 11 0 6
13 8 33 5 l32 -5 -22 19 c-26 20 -30 62 -10 79 11 8 16 5 25 -14 9 -19 9 -24
0 -22 -7 1 -14 -6 -16 -17 -6 -26 20 -16 35 14 8 16 9 30 2 42 -11 21 -52 24
-66 6z"/>
<path d="M401 1683 c7 -12 15 -20 18 -17 3 2 -3 12 -13 22 -17 16 -18 16 -5
-5z"/>
<path d="M441 1686 c-9 -11 -9 -19 1 -35 16 -26 34 -27 47 -3 19 36 -22 69
-48 38z m34 -16 c3 -5 -1 -10 -9 -10 -9 0 -16 5 -16 10 0 6 4 10 9 10 6 0 13
-4 16 -10z"/>
<path d="M371 1679 c-1 -9 7 -23 17 -30 15 -12 16 -12 6 1 -6 8 -14 22 -17 30
-5 13 -6 12 -6 -1z"/>
<path d="M1129 1683 c-1 -5 -1 -11 0 -16 1 -4 -10 -39 -23 -77 -14 -39 -23
-70 -21 -70 8 0 35 64 41 96 7 36 11 39 33 25 12 -7 12 -25 2 -107 -13 -102
-34 -216 -46 -246 -6 -16 0 -18 57 -18 l65 0 -1 171 c-1 156 -3 173 -20 183
-40 24 -66 48 -61 57 4 5 -1 9 -9 9 -9 0 -17 -3 -17 -7z m80 -243 c-1 -133 -3
-150 -17 -150 -36 0 -44 15 -33 56 5 21 15 75 21 119 25 173 31 168 29 -25z"/>
<path d="M952 1655 c0 -16 2 -22 5 -12 2 9 2 23 0 30 -3 6 -5 -1 -5 -18z"/>
<path d="M2855 1610 c-3 -5 -1 -10 4 -10 6 0 11 5 11 10 0 6 -2 10 -4 10 -3 0
-8 -4 -11 -10z"/>
<path d="M221 1597 c-6 -6 -10 -22 -10 -36 2 -24 2 -24 6 -3 2 12 11 22 18 22
9 0 12 -6 9 -15 -5 -11 0 -15 17 -14 13 0 18 3 12 6 -7 2 -13 13 -13 23 0 22
-23 33 -39 17z"/>
<path d="M1772 1602 c-26 -8 2 -22 33 -16 18 3 42 1 52 -5 17 -10 17 -10 -1
-11 -11 0 -17 -2 -14 -5 8 -8 58 5 58 15 0 8 -111 28 -128 22z"/>
<path d="M2660 1603 c0 -7 5 -15 10 -18 6 -3 10 -11 10 -16 0 -6 -5 -7 -12 -3
-7 4 -8 3 -4 -5 9 -14 26 -5 26 14 0 7 3 15 8 18 4 2 2 3 -4 1 -6 -1 -17 3
-23 9 -8 8 -11 8 -11 0z"/>
<path d="M2162 1555 c10 -11 68 -17 68 -8 0 5 -17 10 -37 11 -21 2 -34 0 -31
-3z"/>
<path d="M2625 1530 l-30 -8 33 -1 c17 0 32 4 32 9 0 6 -1 9 -2 9 -2 -1 -16
-5 -33 -9z"/>
<path d="M250 1520 c0 -5 -8 -7 -17 -4 -14 5 -15 4 -4 -4 15 -11 41 -5 41 9 0
5 -4 9 -10 9 -5 0 -10 -4 -10 -10z"/>
<path d="M1121 1454 c0 -11 3 -14 6 -6 3 7 2 16 -1 19 -3 4 -6 -2 -5 -13z"/>
<path d="M1785 1440 c11 -5 27 -9 35 -9 13 -1 13 0 0 9 -8 5 -24 9 -35 9 -20
0 -20 0 0 -9z"/>
<path d="M1661 1414 c0 -11 3 -14 6 -6 3 7 2 16 -1 19 -3 4 -6 -2 -5 -13z"/>
<path d="M674 1395 c-6 -16 31 -75 47 -75 12 0 3 17 -24 47 -11 13 -17 26 -13
30 4 5 21 -8 37 -27 33 -39 40 -27 8 14 -23 29 -47 34 -55 11z"/>
<path d="M1112 1390 c0 -14 2 -19 5 -12 2 6 2 18 0 25 -3 6 -5 1 -5 -13z"/>
<path d="M1776 1402 c-4 -7 0 -19 8 -28 17 -17 19 -11 7 20 -5 14 -10 16 -15
8z"/>
<path d="M1820 1390 c6 -11 16 -20 23 -20 8 0 7 4 -3 10 -8 5 -11 12 -7 16 4
4 20 -5 35 -19 16 -15 33 -27 39 -27 6 0 13 -6 16 -12 2 -7 8 -10 12 -6 9 9
-85 77 -108 78 -15 0 -16 -3 -7 -20z"/>
<path d="M850 1370 c0 -5 5 -10 10 -10 6 0 10 5 10 10 0 6 -4 10 -10 10 -5 0
-10 -4 -10 -10z"/>
<path d="M970 1375 c0 -12 42 -45 50 -40 6 4 13 -1 16 -9 3 -9 10 -13 15 -10
12 7 -45 64 -65 64 -9 0 -16 -2 -16 -5z"/>
<path d="M1790 1345 c0 -18 19 -40 26 -32 4 4 0 15 -9 24 -9 10 -17 13 -17 8z"/>
<path d="M977 1333 c-4 -3 -7 -13 -7 -22 1 -13 3 -13 11 2 11 19 8 33 -4 20z"/>
<path d="M2403 1333 c9 -2 23 -2 30 0 6 3 -1 5 -18 5 -16 0 -22 -2 -12 -5z"/>
<path d="M10 711 l0 -504 24 22 c25 23 25 23 105 9 44 -9 78 -11 75 -7 -3 5
18 9 46 9 32 0 66 8 93 21 23 12 53 23 67 25 14 1 34 5 45 9 21 7 120 154 120
178 0 8 8 22 18 31 10 10 24 33 32 52 8 19 18 33 22 32 12 -3 73 31 73 41 0 5
8 7 18 5 9 -2 40 2 67 10 49 15 49 15 10 11 -22 -2 -47 -6 -56 -10 -10 -3 -20
-1 -24 5 -5 8 -20 -1 -46 -26 -48 -47 -50 -37 -4 26 19 26 35 53 35 58 0 12
32 32 51 32 6 0 27 -16 46 -36 25 -27 39 -35 56 -30 41 11 43 17 37 104 -7 89
5 160 35 205 14 21 21 24 45 17 31 -9 120 -59 120 -67 0 -3 -10 -3 -22 0 -20
6 -19 4 6 -20 20 -18 27 -32 23 -49 -5 -29 -2 -30 26 -4 24 23 50 23 55 -1 4
-22 -47 -81 -65 -75 -7 3 -23 -4 -34 -15 -11 -11 -24 -17 -29 -14 -6 3 -15 -5
-21 -18 -11 -25 -69 -65 -69 -48 0 12 -32 2 -42 -13 -11 -16 -10 -36 2 -36 6
0 10 9 10 20 0 11 5 20 10 20 6 0 10 -7 10 -15 0 -31 37 -13 74 35 21 28 44
50 52 50 8 0 14 5 14 10 0 6 5 10 10 10 21 0 9 -31 -25 -65 -41 -40 -39 -43 7
-15 45 27 56 25 75 -14 10 -21 26 -37 41 -41 36 -9 37 0 2 15 -16 7 -30 16
-30 21 0 14 26 10 40 -6 7 -8 28 -17 49 -21 53 -8 63 -13 56 -24 -4 -7 -14 -6
-28 1 -20 11 -20 9 3 -13 14 -13 27 -23 29 -21 2 2 6 19 8 39 2 20 11 44 20
53 15 15 15 16 0 19 -9 2 -17 7 -17 12 0 15 36 21 64 11 30 -12 36 -36 6 -26
-23 7 -25 2 -7 -28 18 -30 11 -147 -9 -147 -16 0 -19 -16 -4 -25 6 -3 10 -23
10 -43 0 -20 7 -91 16 -158 19 -142 10 -214 -33 -261 -23 -24 -24 -28 -10 -31
9 -2 25 4 34 14 17 16 18 16 21 1 2 -9 10 -17 18 -17 12 0 14 88 14 608 l0
607 -735 0 -735 0 0 -504z m1080 463 c8 -8 9 -14 4 -13 -21 4 -35 -3 -68 -31
-29 -26 -41 -30 -85 -29 -29 1 -56 -2 -61 -7 -5 -5 8 -8 33 -6 23 2 53 -1 66
-6 21 -7 30 -4 58 24 48 48 89 53 152 17 28 -15 51 -32 51 -36 0 -5 9 -21 19
-36 16 -22 18 -38 14 -91 -4 -40 -9 -57 -13 -45 -4 10 -9 14 -13 9 -3 -6 -1
-16 4 -24 8 -13 11 -12 23 3 23 30 29 113 11 151 -18 37 -72 96 -89 96 -6 0
-20 7 -30 15 -18 13 -4 15 132 15 l152 0 0 -219 0 -219 -40 5 c-32 5 -44 2
-55 -13 -8 -11 -13 -24 -10 -31 8 -24 -19 -41 -52 -31 -18 5 -33 13 -33 18 0
5 -7 7 -15 4 -9 -4 -15 0 -15 10 0 9 -5 16 -11 16 -5 0 -7 -4 -4 -10 13 -21
-11 -8 -28 16 -18 24 -18 25 12 60 25 28 31 43 29 77 -2 82 -130 181 -264 205
-27 5 -59 6 -70 2 -12 -5 1 -9 39 -12 39 -3 64 -11 75 -23 16 -18 16 -18 0 -6
-15 11 -21 11 -33 1 -8 -7 -15 -9 -15 -6 0 21 -30 -27 -48 -77 -17 -43 -22
-80 -22 -147 0 -49 -4 -91 -8 -94 -4 -2 -23 9 -41 25 -48 41 -92 40 -125 -4
-15 -19 -26 -37 -26 -40 0 -4 -9 -18 -21 -31 -12 -13 -19 -26 -18 -28 2 -2 -8
-19 -23 -36 -15 -18 -29 -41 -33 -52 -3 -11 -10 -20 -15 -20 -5 0 -14 -16 -20
-35 -12 -37 -68 -127 -97 -158 -9 -9 -24 -15 -32 -12 -9 3 -29 -2 -46 -11 -39
-21 -56 -25 -142 -34 -39 -5 -88 -4 -109 0 -21 5 -50 6 -66 3 l-28 -5 0 456 0
456 518 3 c284 1 518 3 518 5 1 1 7 -5 14 -14z m64 -221 c40 -42 44 -53 18
-53 -24 0 -42 19 -42 46 0 15 -9 26 -27 32 -24 9 -25 11 -7 11 13 1 37 -15 58
-36z"/>
<path d="M1220 1050 c0 -5 5 -10 10 -10 6 0 10 5 10 10 0 6 -4 10 -10 10 -5 0
-10 -4 -10 -10z"/>
<path d="M1180 1022 c0 -4 16 -23 35 -42 36 -35 47 -31 19 8 -16 24 -54 48
-54 34z"/>
<path d="M1530 1219 c0 -11 0 -1177 0 -1196 0 -26 22 -30 40 -8 9 11 8 19 -5
37 -17 23 -17 23 -10 -12 6 -27 4 -32 -5 -24 -6 7 -10 22 -8 35 2 19 8 23 28
21 14 -1 20 1 14 5 -29 20 -31 60 -29 573 1 289 3 528 3 532 3 10 1242 10
1242 0 0 -5 -6 -14 -12 -21 -10 -11 -10 -13 0 -7 17 10 15 -15 -4 -63 -10 -25
-14 -56 -10 -86 3 -35 1 -51 -12 -64 -9 -10 -18 -24 -20 -32 -5 -28 -35 -89
-44 -89 -4 0 -8 -6 -8 -13 0 -19 -81 -88 -93 -80 -6 4 -7 1 -3 -6 14 -22 -24
-51 -66 -51 -21 0 -38 3 -38 8 0 4 -16 8 -35 10 -20 1 -47 9 -60 18 -13 9 -28
13 -33 10 -5 -3 -21 4 -36 15 -24 19 -25 22 -11 48 8 16 12 41 9 55 -2 15 -1
25 3 23 4 -3 8 6 8 19 0 28 -11 32 -18 7 -3 -11 -5 -8 -6 9 -1 19 3 26 12 22
10 -4 13 4 12 31 -1 20 -5 39 -9 42 -3 3 -6 13 -6 22 -1 23 -46 75 -59 67 -6
-4 -11 -1 -11 7 0 15 -58 42 -68 32 -3 -3 0 -5 7 -5 7 0 10 -4 7 -9 -4 -5 3
-7 13 -4 14 3 24 -3 35 -24 9 -16 16 -22 16 -13 1 10 4 9 10 -5 12 -28 12 -85
0 -85 -5 0 -10 6 -10 13 -1 17 -40 65 -40 48 0 -8 8 -20 18 -28 16 -13 15 -14
-5 -8 -18 5 -20 2 -16 -15 6 -21 23 -28 23 -8 0 6 8 1 19 -10 10 -12 21 -19
25 -15 3 3 6 0 7 -8 0 -8 1 -41 3 -74 2 -36 -2 -71 -11 -87 -21 -44 -17 -68
12 -68 14 0 28 -7 32 -16 4 -11 13 -13 33 -9 27 6 28 5 25 -37 -2 -24 -6 -52
-11 -63 -25 -68 -35 -85 -48 -85 -20 0 -21 16 -1 24 8 3 15 11 15 18 0 10 -3
10 -9 -1 -5 -8 -18 -12 -30 -8 -24 6 -25 6 -9 -28 6 -14 17 -25 24 -25 7 0 20
-3 30 -7 12 -4 15 -3 10 6 -4 6 -3 17 2 24 18 24 42 110 36 134 -7 26 -10 26
137 8 46 -6 47 -6 84 44 20 28 40 51 45 51 14 0 69 82 87 129 9 25 25 59 36
74 14 21 18 38 14 64 -4 25 0 51 15 86 17 40 19 53 10 68 -10 15 -9 19 2 19 8
0 16 -7 20 -15 3 -8 11 -12 18 -10 8 3 19 -8 27 -27 8 -18 25 -45 39 -60 l24
-27 -34 -43 c-51 -62 -58 -80 -64 -157 -4 -66 5 -97 22 -70 4 8 3 9 -4 5 -13
-8 -17 6 -5 17 3 4 8 22 10 39 8 84 23 128 43 128 6 0 10 5 10 11 0 7 8 19 18
28 33 29 32 46 -3 87 -35 40 -50 74 -33 74 5 0 7 4 3 10 -3 5 -12 7 -19 4 -8
-3 -17 -1 -21 5 -4 7 15 11 59 11 37 0 66 4 66 10 0 7 -246 10 -719 10 -396 0
-726 3 -735 6 -9 3 -16 5 -16 3z m779 -264 c0 -26 -2 -27 -9 -10 -5 11 -9 31
-9 45 -1 20 1 22 9 10 5 -8 9 -28 9 -45z"/>
<path d="M2850 1109 c0 -5 -4 -8 -9 -5 -5 3 -8 -6 -8 -20 0 -18 3 -22 10 -15
16 16 40 14 30 -1 -4 -7 -8 -17 -8 -22 0 -5 -6 -11 -14 -14 -8 -3 -11 0 -7 7
4 6 1 11 -8 11 -21 0 -9 -27 15 -33 21 -6 79 13 79 25 0 8 -16 12 -39 8 -13
-1 -13 1 -1 15 12 14 10 17 -8 22 -24 6 -29 19 -9 26 7 3 5 6 -5 6 -10 1 -18
-4 -18 -10z"/>
<path d="M2074 1095 c-12 -9 -14 -14 -6 -15 7 0 10 -5 7 -10 -4 -6 -10 -8 -14
-6 -4 3 -6 -5 -5 -17 1 -12 3 -25 3 -29 1 -5 7 -8 14 -8 7 0 12 14 12 38 0 30
4 39 25 49 22 10 23 11 4 12 -11 1 -29 -6 -40 -14z"/>
<path d="M2137 1081 c-10 -27 -12 -28 -23 -13 -12 15 -12 14 -7 -5 9 -37 37
-25 45 20 7 36 -1 35 -15 -2z"/>
<path d="M2160 1081 c0 -5 6 -14 14 -20 12 -10 13 -8 9 8 -5 21 -23 30 -23 12z"/>
<path d="M2185 1030 c3 -5 8 -10 11 -10 2 0 4 5 4 10 0 6 -5 10 -11 10 -5 0
-7 -4 -4 -10z"/>
<path d="M2157 1024 c7 -3 9 -12 6 -21 -4 -10 -2 -14 4 -10 6 4 13 1 16 -5 2
-7 7 -10 11 -6 9 8 -24 48 -39 47 -5 0 -5 -3 2 -5z"/>
<path d="M2100 1004 c0 -10 -6 -14 -15 -10 -8 3 -15 1 -15 -4 0 -6 9 -10 20
-10 11 0 20 -5 20 -11 0 -5 -4 -8 -9 -5 -5 4 -7 -3 -4 -15 4 -12 0 -25 -8 -30
-10 -6 -10 -9 -1 -9 16 0 15 -19 -2 -39 -17 -20 -29 -71 -17 -71 12 0 22 -26
27 -70 l5 -35 -21 24 c-11 13 -20 36 -20 51 0 19 -6 29 -20 33 -20 5 -29 37
-10 37 6 0 10 -4 10 -10 0 -5 4 -10 10 -10 5 0 7 7 4 15 -4 8 -12 15 -19 15
-22 0 -39 -28 -27 -43 9 -10 6 -17 -8 -30 -11 -9 -20 -13 -20 -9 0 5 -7 9 -15
9 -8 0 -12 -4 -10 -8 6 -8 -22 -32 -39 -35 -7 -1 -33 -11 -58 -23 -26 -11 -52
-21 -58 -21 -10 0 -67 -54 -100 -96 -9 -11 -16 -42 -16 -73 -1 -36 2 -49 8
-39 7 10 8 8 4 -5 -3 -10 -6 -21 -6 -23 0 -3 -4 -2 -10 1 -5 3 -10 -3 -10 -14
0 -11 -6 -26 -13 -33 -8 -7 -12 -19 -9 -26 2 -6 -1 -12 -6 -12 -5 0 -10 -6 -9
-12 1 -32 -4 -49 -13 -43 -5 3 -8 -7 -5 -25 2 -16 0 -30 -5 -30 -4 0 -10 -17
-12 -37 -5 -36 6 -70 26 -84 5 -4 6 -14 3 -23 -4 -9 -3 -16 1 -16 5 0 16 -22
26 -50 13 -35 23 -50 36 -50 16 0 15 6 -11 60 -15 32 -31 71 -35 85 -4 15 -13
29 -20 32 -46 18 37 48 104 38 l47 -7 -48 51 c-49 52 -66 92 -21 50 14 -13 24
-19 22 -13 -4 14 28 44 77 69 29 17 37 18 44 6 5 -7 14 -12 21 -9 10 3 9 7 -2
19 -8 8 -13 20 -10 27 4 14 -24 17 -33 2 -3 -5 -12 -7 -20 -3 -8 3 -15 1 -15
-5 0 -11 -78 -72 -93 -72 -5 0 14 27 42 59 29 33 48 62 43 65 -5 3 -21 -14
-36 -37 -31 -48 -116 -146 -116 -133 0 5 8 25 18 45 76 152 107 218 106 228
-1 7 2 11 6 8 5 -3 11 -1 15 5 17 27 58 -11 49 -46 -4 -17 -2 -24 8 -24 12 0
13 9 9 37 -5 29 -13 40 -32 47 -33 11 -84 -12 -85 -39 -2 -40 -4 -45 -21 -44
-11 0 -13 3 -5 6 6 2 10 9 6 14 -3 5 1 9 8 9 10 0 10 2 -1 9 -11 7 -6 19 25
59 38 49 57 61 154 97 25 9 60 26 78 37 l33 20 -7 -28 c-6 -23 -4 -26 10 -21
11 5 15 3 10 -5 -5 -8 1 -9 21 -4 24 6 34 1 71 -35 40 -39 45 -41 61 -28 10 8
31 21 46 27 17 7 25 17 21 24 -5 8 -10 7 -18 -4 -34 -47 -104 -15 -92 43 4 20
-1 40 -14 62 -24 38 -25 57 -5 57 8 0 15 -4 15 -10 0 -5 10 -15 23 -21 20 -11
21 -11 8 4 -12 15 -11 17 5 18 11 1 24 1 31 0 14 -2 27 16 16 22 -5 2 -20 7
-35 11 -22 5 -28 3 -28 -10 0 -30 -13 -5 -15 29 -1 17 -6 41 -10 52 -8 18 -7
18 8 7 14 -12 19 -12 32 2 9 9 26 16 38 16 16 0 10 6 -19 19 -23 10 -45 24
-48 30 -10 16 -26 13 -26 -5z m30 -15 c0 -5 -4 -9 -10 -9 -5 0 -10 7 -10 16 0
8 5 12 10 9 6 -3 10 -10 10 -16z m-85 -219 c3 -5 1 -10 -4 -10 -6 0 -11 -7
-11 -15 0 -19 -16 -20 -23 -1 -9 24 25 47 38 26z m-368 -467 c-4 -3 2 -16 13
-28 l20 -22 -37 -15 c-43 -16 -68 -14 -53 5 6 7 19 24 31 40 11 15 23 27 26
27 4 0 3 -3 0 -7z"/>
<path d="M2820 960 c8 -5 20 -10 25 -10 6 0 3 5 -5 10 -8 5 -19 10 -25 10 -5
0 -3 -5 5 -10z"/>
<path d="M998 943 c10 -4 9 -8 -5 -19 -16 -12 -14 -12 17 -4 19 6 36 10 38 10
1 0 7 -10 12 -22 6 -17 9 -18 9 -6 1 21 -36 48 -64 47 -11 0 -14 -3 -7 -6z"/>
<path d="M2786 935 c-5 -15 14 -45 28 -45 12 0 6 38 -8 49 -11 9 -15 8 -20 -4z"/>
<path d="M940 910 c0 -5 5 -10 10 -10 6 0 10 5 10 10 0 6 -4 10 -10 10 -5 0
-10 -4 -10 -10z"/>
<path d="M2020 913 c8 -3 19 -11 23 -17 6 -7 7 -6 4 4 -2 8 -12 16 -23 17 -13
2 -15 1 -4 -4z"/>
<path d="M2147 904 c3 -8 11 -14 19 -14 21 0 17 17 -5 23 -14 3 -18 1 -14 -9z"/>
<path d="M994 898 c-5 -7 -3 -8 6 -3 9 6 12 4 8 -7 -5 -11 0 -14 20 -10 24 5
24 6 7 18 -23 17 -32 17 -41 2z"/>
<path d="M2007 889 c7 -7 15 -10 18 -7 3 3 -2 9 -12 12 -14 6 -15 5 -6 -5z"/>
<path d="M2760 863 c-20 -54 -21 -58 -18 -60 2 -1 -6 -9 -17 -18 -11 -9 -14
-14 -7 -10 6 3 12 0 12 -7 0 -8 5 -6 11 5 5 9 17 17 24 17 8 0 15 4 15 10 0 5
-7 7 -15 4 -12 -5 -12 -2 1 25 9 17 20 31 26 31 6 0 5 -6 -2 -15 -18 -22 -8
-26 13 -5 17 17 17 18 -8 34 -25 16 -25 16 -35 -11z"/>
<path d="M941 851 c-10 -7 -8 -10 8 -16 27 -8 36 -2 18 13 -7 6 -18 7 -26 3z"/>
<path d="M1164 852 c-6 -4 -13 -15 -17 -24 -5 -15 -3 -16 12 -6 10 6 18 17 18
24 0 8 -1 14 -1 14 -1 0 -6 -4 -12 -8z"/>
<path d="M2224 848 c-8 -12 15 -29 34 -25 20 3 16 20 -7 29 -12 4 -23 3 -27
-4z"/>
<path d="M1073 820 c-3 -13 -14 -20 -28 -20 -12 0 -28 -7 -35 -15 -10 -12 -8
-13 17 -6 48 15 58 21 71 41 10 17 10 20 -4 20 -9 0 -18 -9 -21 -20z"/>
<path d="M2823 814 c-13 -21 -14 -30 -5 -45 15 -24 15 -36 0 -21 -21 21 -32
13 -12 -9 18 -20 18 -22 1 -51 -20 -35 -22 -54 -5 -64 8 -5 9 0 6 14 -4 12 -2
20 2 17 5 -3 12 0 16 6 4 8 3 9 -4 5 -16 -10 -15 -1 4 36 10 20 14 42 9 64 -3
19 -1 43 5 54 15 29 4 25 -17 -6z"/>
<path d="M1015 820 c-3 -6 1 -7 9 -4 18 7 21 14 7 14 -6 0 -13 -4 -16 -10z"/>
<path d="M932 793 c2 -10 11 -19 21 -21 21 -4 13 24 -9 32 -11 4 -14 1 -12
-11z"/>
<path d="M2638 773 c7 -3 16 -2 19 1 4 3 -2 6 -13 5 -11 0 -14 -3 -6 -6z"/>
<path d="M2756 709 c7 -96 20 -110 16 -16 -2 40 -8 76 -12 81 -6 6 -7 -21 -4
-65z"/>
<path d="M2160 761 c0 -15 30 -21 51 -11 25 14 25 15 -16 17 -19 2 -35 -1 -35
-6z"/>
<path d="M2695 750 c-3 -5 -1 -10 4 -10 6 0 11 5 11 10 0 6 -2 10 -4 10 -3 0
-8 -4 -11 -10z"/>
<path d="M941 741 c-10 -6 -10 -10 -1 -16 13 -8 24 -1 19 14 -3 6 -10 7 -18 2z"/>
<path d="M2240 739 c0 -12 -11 -14 -50 -12 -44 3 -50 2 -50 -15 0 -26 26 -46
47 -37 16 6 16 8 -4 16 -35 13 -27 21 17 17 32 -3 41 0 46 15 3 10 3 21 0 24
-3 4 -6 0 -6 -8z"/>
<path d="M2698 728 c-19 -16 -29 -75 -17 -106 6 -15 5 -21 -1 -17 -6 4 -10 -9
-10 -30 0 -28 5 -38 20 -42 29 -8 25 -16 -19 -36 -24 -11 -49 -15 -69 -11 -24
5 -38 0 -65 -20 -18 -14 -39 -26 -45 -26 -6 0 7 34 29 75 22 41 39 79 37 85
-2 6 -23 -28 -47 -74 -23 -47 -50 -87 -59 -89 -10 -2 -7 -3 5 -2 12 1 24 -2
26 -8 2 -6 11 -5 25 2 12 7 28 9 34 5 6 -4 17 1 24 11 12 16 19 17 49 8 19 -6
33 -7 30 -3 -3 5 4 11 15 15 54 17 142 135 101 135 -9 0 -24 -33 -26 -55 0
-16 -27 -11 -39 7 -13 21 1 38 15 18 8 -12 9 -11 5 5 -16 61 -17 75 -7 93 7
14 8 23 1 27 -14 8 -13 26 1 23 6 -2 14 3 16 10 3 6 1 12 -4 12 -5 0 -16 -6
-25 -12z"/>
<path d="M2641 697 c-26 -42 -30 -152 -6 -183 13 -17 14 -11 12 61 -1 49 4 93
12 113 19 45 8 50 -18 9z"/>
<path d="M746 712 c-2 -4 4 -8 14 -8 10 0 16 4 14 8 -3 4 -9 8 -14 8 -5 0 -11
-4 -14 -8z"/>
<path d="M787 693 c-13 -13 -7 -21 13 -16 11 3 17 9 14 14 -6 11 -18 12 -27 2z"/>
<path d="M2250 689 c0 -5 5 -7 10 -4 6 3 10 8 10 11 0 2 -4 4 -10 4 -5 0 -10
-5 -10 -11z"/>
<path d="M2040 671 c0 -11 5 -23 10 -26 6 -3 10 3 10 14 0 11 -4 23 -10 26 -5
3 -10 -3 -10 -14z"/>
<path d="M1910 676 c0 -21 42 -96 55 -96 20 0 29 20 15 33 -9 9 -11 9 -8 -2 2
-7 -4 -16 -12 -19 -8 -2 -12 -1 -7 3 4 5 0 20 -9 33 -15 23 -15 25 -1 19 9 -3
19 -2 22 3 4 6 -2 10 -12 10 -11 0 -24 5 -31 12 -7 7 -12 9 -12 4z"/>
<path d="M2298 650 c-2 -24 -7 -34 -18 -32 -8 2 -19 -3 -25 -11 -12 -16 -63
-28 -71 -16 -3 5 1 19 7 31 11 21 11 22 -4 9 -24 -19 -22 -62 3 -68 11 -3 23
-16 26 -29 3 -13 10 -24 15 -24 13 0 11 13 -7 38 -18 26 -15 35 10 26 9 -3 16
-15 16 -25 0 -10 4 -19 8 -19 5 0 7 13 4 29 -2 16 0 31 5 34 16 10 53 -4 53
-20 0 -8 -4 -12 -9 -8 -5 3 -12 1 -16 -5 -8 -12 15 -13 34 -1 12 8 12 12 2 24
-6 8 -8 17 -4 19 4 3 3 4 -4 2 -18 -4 -23 7 -12 27 6 13 6 25 0 36 -8 14 -10
11 -13 -17z"/>
<path d="M885 661 c-3 -6 -4 -11 -1 -11 3 0 -11 -16 -32 -35 l-37 -34 38 11
c20 6 37 17 37 24 0 7 10 14 21 16 l21 3 -20 18 c-13 12 -22 15 -27 8z"/>
<path d="M2729 663 c0 -5 -2 -15 -4 -24 -1 -9 1 -23 6 -30 6 -10 9 -2 9 24 0
20 -2 37 -5 37 -3 0 -5 -3 -6 -7z"/>
<path d="M1043 649 c1 -6 -7 -13 -18 -15 -24 -4 -68 -26 -77 -39 -11 -14 -10
-25 2 -25 6 0 10 6 10 13 0 7 22 20 49 29 48 15 49 15 55 -5 3 -12 8 -19 11
-16 7 8 -15 69 -26 69 -5 0 -8 -5 -6 -11z"/>
<path d="M1791 640 c-13 -11 -20 -20 -15 -20 4 0 -1 -7 -12 -15 -10 -8 -14
-14 -9 -14 6 0 28 15 50 34 22 19 33 35 25 35 -8 -1 -26 -10 -39 -20z"/>
<path d="M1990 643 c0 -22 29 -58 53 -66 10 -4 15 -3 12 2 -3 5 4 13 16 16 15
5 25 1 35 -14 9 -12 24 -21 35 -21 10 0 19 -3 19 -7 0 -5 -5 -50 -10 -101 -6
-52 -7 -99 -3 -105 4 -7 13 38 19 98 10 92 9 113 -2 126 -8 8 -14 20 -14 26 0
6 -7 16 -15 23 -12 10 -23 9 -55 -4 -54 -21 -57 -21 -65 14 -7 32 -25 41 -25
13z"/>
<path d="M1135 600 c-22 -23 -41 -36 -43 -30 -2 5 -8 10 -13 10 -5 0 -4 -9 3
-20 12 -18 14 -18 45 16 18 20 36 33 41 31 4 -3 9 3 9 14 1 10 1 19 -1 19 -1
0 -20 -18 -41 -40z"/>
<path d="M1870 606 c0 -8 5 -18 10 -21 6 -3 10 1 10 9 0 8 -4 18 -10 21 -5 3
-10 -1 -10 -9z"/>
<path d="M1840 601 c0 -6 4 -12 8 -15 5 -3 9 1 9 9 0 8 -4 15 -9 15 -4 0 -8
-4 -8 -9z"/>
<path d="M1915 593 c-4 -10 -8 -63 -10 -118 -3 -83 -8 -110 -30 -158 -15 -31
-28 -76 -30 -99 -2 -23 -8 -44 -15 -46 -9 -3 -10 6 -6 34 9 52 -9 78 -47 69
-27 -7 -35 -19 -18 -29 5 -4 11 -1 13 6 7 20 30 -3 24 -25 -6 -25 62 -157 81
-157 8 0 16 -6 19 -14 8 -20 33 -9 65 28 29 31 28 50 -3 77 -10 9 -18 19 -18
23 0 13 19 5 41 -19 26 -26 31 -63 11 -83 -7 -8 -9 -18 -6 -24 4 -7 10 -4 16
6 5 9 14 16 19 16 6 0 7 -4 4 -10 -3 -5 0 -10 7 -11 7 0 3 -4 -10 -10 -24 -9
-22 -29 4 -29 24 0 49 29 36 42 -6 6 -8 17 -5 25 5 12 1 14 -18 8 -18 -5 -20
-4 -9 4 12 8 12 13 -5 30 -22 25 -13 40 10 17 9 -9 13 -16 8 -16 -9 0 19 -20
29 -20 3 0 1 13 -5 29 -5 15 -7 36 -3 46 6 17 7 17 28 -1 12 -11 18 -14 14 -7
-4 8 3 15 21 19 17 5 28 3 31 -4 7 -22 18 -12 17 16 -2 35 -37 42 -58 13 -19
-28 -77 -19 -77 11 0 14 -5 18 -15 15 -19 -8 -31 13 -14 24 11 7 10 9 -3 9
-10 0 -18 5 -18 11 0 7 9 9 23 5 12 -3 26 -6 30 -6 5 0 6 -4 3 -9 -3 -5 1 -11
9 -15 10 -4 15 1 15 14 0 14 -7 20 -24 20 -15 0 -26 7 -29 20 -3 11 -1 20 4
20 5 0 9 -5 9 -11 0 -5 5 -7 10 -4 6 3 10 1 10 -6 0 -7 3 -10 6 -6 4 3 -2 17
-13 31 -19 24 -19 24 -32 4 -11 -17 -15 -18 -22 -7 -5 8 -9 9 -9 4 0 -6 5 -16
12 -23 9 -9 7 -12 -9 -12 -12 0 -24 -4 -28 -10 -3 -5 -13 -6 -23 -3 -14 5 -15
3 -4 -8 6 -7 12 -20 12 -29 -1 -12 -2 -12 -11 3 -5 9 -15 17 -20 17 -6 0 -1
-15 10 -34 25 -40 27 -58 4 -49 -13 5 -15 2 -11 -15 4 -15 2 -19 -8 -15 -8 3
-21 2 -30 -1 -15 -6 -15 -8 1 -26 15 -17 19 -17 32 -5 20 21 36 19 30 -4 -3
-14 -1 -18 9 -14 10 3 12 0 8 -10 -3 -8 -15 -18 -27 -21 -32 -9 -39 -7 -31 6
5 8 2 9 -9 5 -9 -3 -19 -2 -22 3 -4 6 -1 10 4 10 6 0 11 5 11 10 0 6 -7 10
-15 10 -20 0 -19 34 1 66 16 23 16 24 -2 17 -16 -6 -17 -5 -4 9 9 10 17 12 21
6 10 -15 29 0 23 17 -4 8 -11 12 -17 8 -14 -8 0 16 26 44 13 15 18 30 13 47
-4 15 -1 27 7 30 9 5 9 7 0 12 -18 8 -16 27 2 20 8 -3 15 -1 15 3 0 5 -5 11
-12 13 -8 3 -12 34 -12 96 0 51 -1 92 -2 92 -1 0 -5 -8 -9 -17z m64 -315 c-2
-13 1 -29 5 -37 7 -11 5 -13 -7 -8 -11 4 -14 2 -10 -9 6 -16 19 -18 28 -4 13
21 35 10 36 -17 0 -16 3 -22 6 -15 2 6 10 12 16 12 6 0 4 -7 -5 -16 -10 -10
-23 -14 -34 -10 -13 5 -15 9 -7 14 7 5 9 13 4 21 -7 11 -12 8 -21 -10 l-13
-23 -17 22 c-17 21 -17 72 1 72 5 0 9 7 9 15 0 8 3 15 6 15 3 0 4 -10 3 -22z
m181 -56 c0 -5 -7 -9 -15 -9 -8 0 -12 4 -9 9 3 4 9 8 15 8 5 0 9 -4 9 -8z"/>
<path d="M2785 600 c-3 -5 -1 -10 4 -10 6 0 11 5 11 10 0 6 -2 10 -4 10 -3 0
-8 -4 -11 -10z"/>
<path d="M2407 593 c-4 -3 -7 -13 -7 -22 1 -13 3 -13 11 2 11 19 8 33 -4 20z"/>
<path d="M2450 571 l21 -30 -55 -55 c-62 -62 -64 -68 -66 -251 -2 -220 -1
-235 16 -235 8 0 12 4 9 10 -3 5 -1 18 5 29 7 13 7 22 0 26 -14 9 -12 45 3 45
7 0 8 3 2 8 -11 8 -16 42 -6 42 3 0 6 49 6 110 l-1 109 51 6 c27 4 60 7 72 8
12 1 19 5 17 9 -3 4 0 8 5 8 6 0 11 5 11 10 0 6 -13 4 -30 -5 -35 -18 -44 -19
-34 -4 5 8 0 10 -17 6 -13 -3 -36 -9 -51 -12 -16 -4 -28 -3 -28 2 0 5 23 38
50 72 37 46 48 67 40 75 -5 7 -7 16 -3 19 3 4 1 7 -6 7 -7 0 -9 5 -6 10 3 6
-1 10 -10 10 -14 0 -13 -4 5 -29z"/>
<path d="M717 575 c-4 -8 -2 -17 3 -20 6 -4 10 3 10 14 0 25 -6 27 -13 6z"/>
<path d="M2592 560 c0 -14 2 -19 5 -12 2 6 2 18 0 25 -3 6 -5 1 -5 -13z"/>
<path d="M2037 551 c3 -11 -2 -21 -13 -25 -16 -6 -16 -8 -4 -16 20 -13 33 -13
25 0 -3 5 -1 18 4 29 8 14 7 20 -3 24 -9 4 -12 0 -9 -12z"/>
<path d="M667 540 c3 -11 9 -17 14 -15 10 7 1 35 -11 35 -5 0 -6 -9 -3 -20z"/>
<path d="M926 519 c-9 -57 -2 -59 11 -4 6 25 7 45 3 45 -4 0 -10 -19 -14 -41z"/>
<path d="M2005 540 c4 -6 11 -8 16 -5 14 9 11 15 -7 15 -8 0 -12 -5 -9 -10z"/>
<path d="M2396 534 c-8 -20 0 -32 14 -18 5 5 5 15 1 22 -6 11 -10 10 -15 -4z"/>
<path d="M1950 518 c0 -19 2 -20 10 -8 13 19 13 30 0 30 -5 0 -10 -10 -10 -22z"/>
<path d="M1174 511 c-11 -9 -19 -22 -16 -29 2 -8 11 -3 24 13 25 31 21 39 -8
16z"/>
<path d="M1970 505 c0 -8 7 -15 16 -15 14 0 14 3 4 15 -7 8 -14 15 -16 15 -2
0 -4 -7 -4 -15z"/>
<path d="M2070 505 c-9 -10 -9 -15 -1 -15 6 0 11 5 11 11 0 5 5 7 12 3 7 -4 8
-3 4 4 -9 15 -11 15 -26 -3z"/>
<path d="M1807 484 c3 -7 0 -14 -7 -14 -6 0 -8 -4 -5 -10 10 -16 22 -12 28 9
3 11 -1 22 -9 25 -8 3 -11 0 -7 -10z"/>
<path d="M2026 479 c3 -5 0 -9 -5 -9 -6 0 -11 -4 -11 -9 0 -4 11 -6 25 -3 30
5 33 18 5 25 -11 3 -18 1 -14 -4z"/>
<path d="M2237 478 c-6 -18 4 -81 16 -96 5 -7 12 -47 14 -88 4 -65 2 -78 -14
-89 -90 -69 -101 -75 -96 -55 4 14 0 20 -10 20 -26 0 -67 -19 -67 -31 0 -6 7
-9 15 -5 8 3 15 1 15 -4 0 -17 18 -11 23 8 4 16 5 16 6 0 1 -20 -43 -53 -58
-44 -7 4 -6 -4 0 -24 l11 -30 31 22 c18 11 44 32 58 45 l27 25 16 -23 c21 -31
20 -36 -9 -55 -25 -16 -41 -21 -118 -31 -20 -3 -40 -10 -44 -16 -5 -9 74 -5
148 7 15 2 57 36 45 36 -3 0 2 12 9 28 9 16 11 28 5 30 -16 6 -12 32 5 32 11
0 15 -11 15 -40 0 -48 31 -105 48 -88 8 8 8 14 -2 22 -12 10 -42 193 -45 281
-2 40 -29 175 -36 175 -2 0 -5 -6 -8 -12z m23 -296 c0 -9 -160 -125 -165 -120
-4 4 52 50 129 106 34 24 36 25 36 14z"/>
<path d="M2280 477 c0 -9 4 -17 9 -17 5 0 11 -9 14 -19 3 -15 1 -18 -11 -14
-12 5 -14 2 -9 -11 4 -10 7 -27 7 -39 0 -17 2 -19 9 -8 5 8 7 21 3 29 -4 12 0
14 23 8 24 -6 27 -5 17 7 -7 8 -8 18 -4 22 4 5 1 4 -7 0 -11 -6 -13 -4 -8 9 4
9 3 14 -2 11 -5 -3 -17 5 -25 17 -13 18 -16 19 -16 5z"/>
<path d="M1985 470 c-3 -5 -1 -10 4 -10 6 0 11 5 11 10 0 6 -2 10 -4 10 -3 0
-8 -4 -11 -10z"/>
<path d="M1950 459 c0 -5 5 -7 10 -4 6 3 10 8 10 11 0 2 -4 4 -10 4 -5 0 -10
-5 -10 -11z"/>
<path d="M2060 444 c0 -8 4 -13 9 -9 5 3 12 -5 14 -17 3 -17 5 -14 6 10 1 22
-3 32 -14 32 -8 0 -15 -7 -15 -16z"/>
<path d="M621 419 c-13 -39 -13 -39 -2 -39 5 0 14 14 20 31 13 39 13 39 2 39
-5 0 -14 -14 -20 -31z"/>
<path d="M1970 439 c0 -5 4 -8 9 -4 5 3 11 -1 13 -10 2 -10 7 -12 18 -5 13 9
13 11 0 20 -20 13 -40 13 -40 -1z"/>
<path d="M2189 424 c-13 -15 -18 -25 -10 -22 13 4 49 48 39 48 -2 0 -15 -12
-29 -26z"/>
<path d="M1692 400 c-18 -29 -15 -38 4 -12 9 13 14 25 12 27 -2 2 -9 -5 -16
-15z"/>
<path d="M1966 407 c3 -10 9 -15 12 -12 3 3 0 11 -7 18 -10 9 -11 8 -5 -6z"/>
<path d="M2040 410 c0 -5 5 -10 10 -10 6 0 8 -12 5 -27 -5 -26 -5 -26 4 -5 11
23 5 52 -10 52 -5 0 -9 -4 -9 -10z"/>
<path d="M2000 391 c-7 -15 -7 -21 0 -21 12 0 25 28 17 36 -3 3 -10 -4 -17
-15z"/>
<path d="M2075 377 c-8 -19 -2 -31 13 -26 5 2 6 13 2 24 -7 19 -8 19 -15 2z"/>
<path d="M1950 371 c0 -5 5 -13 10 -16 6 -3 10 -2 10 4 0 5 -4 13 -10 16 -5 3
-10 2 -10 -4z"/>
<path d="M622 350 c0 -14 2 -19 5 -12 2 6 2 18 0 25 -3 6 -5 1 -5 -13z"/>
<path d="M1940 340 c0 -5 5 -10 11 -10 5 0 7 5 4 10 -3 6 -8 10 -11 10 -2 0
-4 -4 -4 -10z"/>
<path d="M640 316 c0 -8 17 -28 37 -45 39 -32 53 -38 53 -21 0 6 -6 10 -14 10
-8 0 -28 16 -45 35 -18 21 -31 29 -31 21z"/>
<path d="M665 321 c-3 -5 4 -13 16 -16 12 -4 40 -23 63 -44 43 -37 34 -20 -18
37 -30 32 -50 40 -61 23z"/>
<path d="M870 323 c0 -4 15 -21 33 -38 19 -16 42 -43 53 -59 10 -16 20 -23 22
-17 2 6 -8 27 -22 46 -27 35 -86 82 -86 68z"/>
<path d="M1130 326 c0 -2 7 -6 15 -10 8 -3 15 -1 15 4 0 6 -7 10 -15 10 -8 0
-15 -2 -15 -4z"/>
<path d="M1767 310 c-3 -11 -2 -20 3 -20 12 0 31 26 23 33 -11 12 -21 7 -26
-13z"/>
<path d="M546 282 c61 -44 73 -47 30 -8 -22 20 -46 36 -54 36 -8 0 3 -13 24
-28z"/>
<path d="M585 290 c10 -11 22 -17 28 -13 6 4 3 12 -8 20 -28 20 -41 16 -20 -7z"/>
<path d="M770 285 c7 -8 17 -15 22 -15 6 0 5 7 -2 15 -7 8 -17 15 -22 15 -6 0
-5 -7 2 -15z"/>
<path d="M2093 288 c4 -10 2 -18 -3 -18 -6 0 -10 -11 -10 -25 0 -14 5 -25 11
-25 6 0 9 6 6 13 -2 6 0 20 5 31 7 12 6 22 -3 30 -9 8 -11 7 -6 -6z"/>
<path d="M2217 258 c-25 -38 -34 -68 -22 -68 7 0 57 101 53 106 -2 2 -16 -15
-31 -38z"/>
<path d="M830 280 c0 -5 5 -10 10 -10 6 0 10 -5 10 -11 0 -5 -4 -7 -10 -4 -5
3 -10 -2 -10 -11 0 -13 3 -15 11 -7 6 6 18 9 26 6 13 -5 12 -1 -2 20 -17 27
-35 35 -35 17z"/>
<path d="M1132 278 c-19 -19 -14 -30 8 -18 11 6 20 15 20 20 0 14 -14 12 -28
-2z"/>
<path d="M2300 259 c0 -11 4 -18 10 -14 5 3 7 12 3 20 -7 21 -13 19 -13 -6z"/>
<path d="M792 245 c3 -16 -4 -21 -40 -25 -26 -4 -53 -16 -70 -33 -16 -15 -31
-24 -35 -21 -3 3 -17 -7 -31 -22 -32 -36 -35 -63 -4 -34 12 11 26 20 32 20 5
0 21 10 34 23 14 12 22 16 18 10 -5 -9 -2 -11 8 -7 9 3 14 10 11 14 -5 8 25
22 41 19 18 -3 53 13 58 26 2 7 -2 21 -10 32 -14 17 -14 17 -12 -2z"/>
<path d="M502 234 c2 -10 12 -21 23 -24 22 -6 32 -30 16 -40 -7 -3 -3 -13 9
-23 20 -17 20 -16 14 10 -7 28 -7 28 15 9 30 -27 25 -7 -9 33 -15 18 -33 30
-39 26 -7 -3 -10 -1 -9 6 2 6 -3 14 -10 16 -9 4 -13 -1 -10 -13z"/>
<path d="M580 225 c27 -29 30 -30 30 -12 0 6 -12 18 -27 24 l-26 13 23 -25z"/>
<path d="M2061 234 c0 -11 3 -14 6 -6 3 7 2 16 -1 19 -3 4 -6 -2 -5 -13z"/>
<path d="M647 216 c-3 -8 -3 -16 0 -19 7 -8 53 14 53 25 0 14 -48 9 -53 -6z"/>
<path d="M1011 199 c-23 -38 -21 -45 9 -29 11 6 33 10 48 9 51 -4 96 1 87 9
-6 5 -30 14 -54 21 -23 7 -49 15 -57 18 -8 3 -21 -9 -33 -28z"/>
<path d="M54 205 c-4 -9 -3 -19 0 -23 9 -8 42 12 39 24 -4 16 -33 16 -39 -1z"/>
<path d="M833 206 c4 -10 3 -14 -3 -11 -11 7 -50 -25 -50 -40 0 -7 -12 -22
-26 -36 -29 -27 -78 -119 -63 -119 6 0 18 17 27 38 19 43 91 132 106 132 16 0
150 -52 161 -62 7 -6 5 -9 -5 -7 -8 2 -33 0 -55 -4 -22 -4 -55 -3 -72 2 -18 5
-33 6 -33 1 0 -4 17 -11 38 -15 31 -6 34 -9 17 -15 -11 -4 -31 -6 -44 -3 -21
3 -23 2 -11 -12 7 -8 8 -15 2 -15 -5 0 -12 -9 -15 -20 -6 -25 -2 -25 23 -2 11
10 40 29 66 41 36 19 54 22 91 16 24 -3 63 -3 84 0 37 6 39 8 25 24 -8 9 -39
25 -68 35 -29 11 -57 22 -63 26 -5 4 -28 13 -50 20 -22 7 -51 19 -64 27 -22
14 -24 14 -18 -1z m172 -84 c-3 -3 -11 0 -18 7 -9 10 -8 11 6 5 10 -3 15 -9
12 -12z"/>
<path d="M385 196 c-23 -25 -26 -40 -4 -19 12 12 21 24 18 27 -2 2 -9 -1 -14
-8z"/>
<path d="M10 103 c0 -62 4 -103 10 -103 6 0 10 8 10 19 0 10 9 21 20 24 16 4
18 2 10 -13 -9 -17 -4 -30 11 -30 5 0 6 7 2 17 -5 13 -2 15 16 10 13 -3 32 -1
42 6 23 14 36 2 19 -18 -10 -12 -10 -15 5 -15 9 0 19 8 22 18 3 14 25 22 100
35 52 9 103 22 112 30 28 24 60 27 71 6 10 -19 -5 -59 -22 -59 -5 0 -8 -7 -8
-16 0 -13 6 -11 29 8 17 12 50 36 75 51 51 32 61 53 19 42 -24 -6 -25 -5 -12
11 13 16 12 17 -11 12 -14 -3 -34 -9 -45 -13 -14 -5 -16 -4 -7 3 19 13 -250
15 -285 1 -37 -14 -126 -13 -152 1 -28 14 -27 29 2 23 21 -4 22 -4 3 11 -11 9
-23 22 -28 28 -4 7 -8 -33 -8 -89z m316 8 c-3 -4 5 -6 18 -4 13 3 26 1 29 -4
7 -11 -266 -53 -294 -46 -10 3 -19 12 -19 20 0 13 3 13 15 3 9 -7 18 -10 22
-6 3 3 1 6 -5 6 -7 0 -12 4 -12 9 0 5 18 8 39 7 22 -1 38 1 35 5 -6 10 34 16
114 18 35 0 61 -3 58 -8z m-278 -30 c3 -16 -1 -22 -10 -19 -7 3 -14 15 -14 27
-2 28 20 21 24 -8z m472 19 c0 -5 -4 -10 -10 -10 -5 0 -10 -8 -10 -17 0 -13
-3 -14 -11 -6 -7 7 -9 19 -6 27 7 17 37 22 37 6z"/>
<path d="M129 179 c-11 -11 -30 -24 -42 -29 -18 -7 -14 -9 23 -11 72 -2 91 1
107 21 15 19 -4 32 -28 19 -26 -14 -42 -11 -35 6 8 21 0 19 -25 -6z"/>
<path d="M491 182 c-13 -25 -14 -32 -2 -32 9 0 23 41 16 48 -2 2 -8 -5 -14
-16z"/>
<path d="M1743 192 c-47 -5 -41 -19 10 -24 50 -6 48 -6 34 12 -8 9 -24 14 -44
12z"/>
<path d="M420 169 c0 -5 5 -7 10 -4 6 3 10 8 10 11 0 2 -4 4 -10 4 -5 0 -10
-5 -10 -11z"/>
<path d="M1340 155 c7 -8 17 -15 22 -15 6 0 5 7 -2 15 -7 8 -17 15 -22 15 -6
0 -5 -7 2 -15z"/>
<path d="M1095 150 c-7 -11 9 -11 45 0 24 8 24 8 -7 9 -17 1 -35 -3 -38 -9z"/>
<path d="M1390 150 c-13 -8 -12 -10 3 -10 9 0 17 5 17 10 0 12 -1 12 -20 0z"/>
<path d="M1677 154 c-16 -16 -6 -31 18 -27 13 3 38 0 55 -5 19 -7 30 -7 30 -1
0 16 -90 45 -103 33z"/>
<path d="M2315 150 c-3 -5 -1 -10 4 -10 6 0 11 5 11 10 0 6 -2 10 -4 10 -3 0
-8 -4 -11 -10z"/>
<path d="M920 120 c8 -5 20 -10 25 -10 6 0 3 5 -5 10 -8 5 -19 10 -25 10 -5 0
-3 -5 5 -10z"/>
<path d="M1100 120 c20 -13 50 -13 50 0 0 6 -15 10 -32 10 -25 0 -29 -3 -18
-10z"/>
<path d="M1791 108 c-1 -10 -11 -18 -28 -20 -24 -4 -25 -5 -10 -12 19 -9 67
10 67 26 0 5 -4 7 -9 4 -5 -4 -12 0 -14 6 -4 8 -6 7 -6 -4z"/>
<path d="M567 64 c-8 -8 1 -24 14 -24 5 0 9 7 9 15 0 15 -12 20 -23 9z"/>
<path d="M626 46 c17 -26 19 -27 31 -10 16 22 17 34 2 34 -5 0 -7 -4 -4 -10 9
-14 -18 -12 -34 3 -8 6 -5 -1 5 -17z"/>
<path d="M1371 61 c-7 -5 -10 -14 -6 -20 5 -9 10 -9 21 0 26 22 14 38 -15 20z"/>
<path d="M2179 53 c-13 -15 -12 -15 9 -4 23 12 28 21 13 21 -5 0 -15 -7 -22
-17z"/>
<path d="M1723 53 c-7 -2 -13 -8 -13 -13 0 -9 61 -43 66 -37 8 7 -42 54 -53
50z"/>
<path d="M1870 52 c0 -5 7 -17 15 -28 15 -19 20 -8 9 20 -6 17 -24 22 -24 8z"/>
<path d="M606 37 c3 -10 9 -15 12 -12 3 3 0 11 -7 18 -10 9 -11 8 -5 -6z"/>
<path d="M773 35 c0 -7 6 -11 14 -8 7 3 13 6 13 8 0 2 -6 5 -13 8 -8 3 -14 -1
-14 -8z"/>
<path d="M1265 35 l-30 -14 40 -2 40 -2 -45 -7 -45 -7 41 -1 c31 -2 46 4 64
23 l23 25 -29 -1 c-16 0 -42 -7 -59 -14z"/>
<path d="M1785 40 c-4 -6 10 -10 35 -10 25 0 39 4 35 10 -3 6 -19 10 -35 10
-16 0 -32 -4 -35 -10z"/>
<path d="M1941 41 c-7 -5 -9 -11 -4 -14 5 -3 15 -2 22 2 7 5 9 11 4 14 -5 3
-15 2 -22 -2z"/>
<path d="M1340 15 c-10 -12 -10 -15 4 -15 9 0 16 7 16 15 0 8 -2 15 -4 15 -2
0 -9 -7 -16 -15z"/>
<path d="M1641 14 c0 -11 3 -14 6 -6 3 7 2 16 -1 19 -3 4 -6 -2 -5 -13z"/>
<path d="M1910 10 c0 -5 5 -10 11 -10 5 0 7 5 4 10 -3 6 -8 10 -11 10 -2 0 -4
-4 -4 -10z"/>
<path d="M493 3 c15 -2 39 -2 55 0 15 2 2 4 -28 4 -30 0 -43 -2 -27 -4z"/>
</g>
</svg>
