<?xml version="1.0" standalone="no"?>
<!DOCTYPE svg PUBLIC "-//W3C//DTD SVG 20010904//EN"
 "http://www.w3.org/TR/2001/REC-SVG-20010904/DTD/svg10.dtd">
<svg version="1.0" xmlns="http://www.w3.org/2000/svg"
 width="300.000000pt" height="185.000000pt" viewBox="0 0 300.000000 185.000000"
 preserveAspectRatio="xMidYMid meet">
<metadata>
Created by potrace 1.10, written by Peter Selinger 2001-2011
</metadata>
<g transform="translate(0.000000,185.000000) scale(0.100000,-0.100000)"
fill="#000000" stroke="none">
<path d="M125 1840 c-3 -5 -1 -10 4 -10 6 0 11 5 11 10 0 6 -2 10 -4 10 -3 0
-8 -4 -11 -10z"/>
<path d="M2600 1835 c-7 -9 -8 -15 -2 -15 5 0 12 7 16 15 3 8 4 15 2 15 -2 0
-9 -7 -16 -15z"/>
<path d="M2982 1830 c14 -22 24 -19 15 5 -4 8 -11 15 -17 15 -6 0 -6 -7 2 -20z"/>
<path d="M40 1829 c0 -5 5 -7 10 -4 6 3 10 8 10 11 0 2 -4 4 -10 4 -5 0 -10
-5 -10 -11z"/>
<path d="M53 1796 c-3 -4 -7 -317 -10 -695 -2 -377 -5 -698 -7 -714 l-3 -27
261 0 c144 0 800 -3 1459 -7 l1197 -6 0 726 0 727 -1446 2 c-808 2 -1448 -1
-1451 -6z m707 -243 l0 -223 -345 0 c-338 0 -345 0 -345 20 0 18 7 20 54 20
34 0 56 -5 59 -12 3 -8 6 -6 6 5 1 14 -8 17 -58 17 l-58 0 -2 198 -2 197 346
0 345 0 0 -222z m722 0 l-3 -223 -344 0 -345 0 0 223 0 222 348 0 347 0 -3
-222z m718 22 l0 -194 -272 -1 c-316 -2 -298 -2 -298 -9 0 -3 128 -5 285 -4
278 2 285 2 285 -17 0 -20 -8 -20 -345 -20 -331 0 -345 1 -345 19 0 16 51 51
74 51 14 0 5 -19 -11 -23 -10 -3 -2 -5 17 -5 19 0 29 2 23 5 -35 13 0 19 129
21 78 2 144 5 147 7 2 3 -80 5 -182 5 -162 0 -186 -2 -181 -15 4 -8 1 -15 -5
-15 -8 0 -11 56 -11 198 l1 197 345 -3 344 -3 0 -194z m725 98 c-1 -54 -3
-153 -4 -220 l-1 -123 -345 0 -345 0 0 220 0 220 349 0 349 0 -3 -97z m-2166
-588 l-2 -225 -343 0 c-339 0 -344 0 -344 20 0 20 5 21 120 18 66 -2 120 0
120 5 0 5 -30 8 -67 7 -38 -1 -92 -2 -121 -1 l-53 1 2 200 1 200 345 0 344 0
-2 -225z m721 -2 l0 -223 -345 0 -345 0 0 226 0 225 345 -3 345 -2 0 -223z
m720 0 l0 -223 -348 0 -348 0 3 223 c2 122 3 223 3 224 0 1 155 1 345 0 l345
-2 0 -222z m718 2 c-2 -124 -6 -225 -10 -225 -5 0 -161 0 -348 0 -337 0 -340
0 -340 21 0 18 5 20 45 18 24 -2 47 0 51 4 7 6 -53 12 -84 8 -11 -2 -12 17 -8
91 3 51 5 141 5 201 l1 107 345 0 345 0 -2 -225z m-2158 -470 l0 -226 -347 2
-348 2 3 223 3 224 344 0 345 0 0 -225z m719 0 l-4 -225 -342 0 -343 0 -1 203
c0 111 -2 212 -5 225 l-4 22 351 0 351 0 -3 -225z m715 120 c-1 -55 -2 -156
-3 -225 l-1 -125 -168 2 c-92 1 -247 2 -345 2 l-178 1 2 226 1 225 347 -3 346
-3 -1 -100z m392 95 l334 0 -2 -222 -3 -223 -305 3 c-168 1 -324 2 -347 2
l-43 0 0 226 c0 202 2 225 16 220 9 -3 166 -6 350 -6z"/>
<path d="M295 1750 c5 -9 -23 -15 -47 -11 -5 0 -8 -3 -8 -9 0 -5 10 -8 23 -6
12 3 38 5 57 7 24 1 28 3 13 6 -13 2 -23 9 -23 14 0 5 -5 9 -11 9 -5 0 -7 -4
-4 -10z"/>
<path d="M390 1752 c0 -6 -8 -13 -17 -15 -16 -4 -16 -5 -1 -6 18 -1 34 16 24
26 -3 4 -6 1 -6 -5z"/>
<path d="M543 1715 c0 -22 2 -30 4 -17 2 12 2 30 0 40 -3 9 -5 -1 -4 -23z"/>
<path d="M170 1720 c-11 -7 -5 -8 20 -4 43 8 51 14 19 14 -13 0 -31 -5 -39
-10z"/>
<path d="M465 1719 c-4 -6 -4 -13 -1 -16 3 -3 -4 -17 -14 -31 -11 -13 -20 -35
-20 -47 0 -28 -22 -37 -65 -29 -34 6 -139 -19 -162 -38 -9 -7 -18 -7 -28 2
-19 16 -20 0 -1 -25 13 -18 15 -17 60 8 32 18 46 22 46 12 0 -7 3 -21 6 -29 5
-12 1 -16 -17 -14 -20 3 -23 -1 -21 -20 2 -13 -5 -33 -15 -44 -17 -20 -17 -20
2 -17 13 3 22 15 25 32 l5 29 21 -24 c12 -12 24 -30 27 -38 4 -11 6 -10 6 4 1
11 -6 28 -16 38 -15 17 -15 18 3 18 11 0 25 5 31 11 9 9 20 9 44 0 17 -6 43
-11 55 -11 25 0 32 -22 15 -49 -7 -10 -13 -11 -30 -1 -12 6 -27 10 -33 8 -6
-2 4 -10 23 -18 19 -7 35 -14 37 -15 1 -1 0 -10 -4 -19 -5 -14 -24 -16 -126
-16 -82 0 -117 -3 -113 -11 8 -11 287 -12 455 0 l95 6 -145 5 -145 5 2 35 c1
24 10 42 31 60 16 14 40 49 53 78 22 49 26 52 61 52 21 0 38 4 38 8 0 5 -20
19 -45 31 l-45 22 -25 -27 c-20 -21 -28 -24 -39 -15 -15 12 -16 47 -2 69 8 13
0 32 -14 32 -5 0 -12 -5 -15 -11z m93 -106 c-14 -16 -29 -39 -33 -52 -13 -41
-40 -64 -67 -55 -12 4 -26 7 -30 6 -4 -1 -24 6 -44 14 -26 11 -39 13 -42 5 -6
-19 -30 -12 -37 10 -10 32 6 40 57 31 32 -6 50 -5 63 4 18 13 45 8 57 -10 5
-7 8 -7 8 2 0 7 4 10 10 7 6 -3 7 1 4 9 -3 9 -15 16 -25 16 -10 0 -19 7 -19
15 0 15 29 10 41 -7 7 -10 59 11 59 24 0 4 5 8 12 8 6 0 0 -12 -14 -27z"/>
<path d="M129 1711 c9 -6 12 -24 10 -60 l-4 -51 35 1 c30 2 31 3 8 6 -27 4
-28 7 -28 59 0 45 -3 54 -17 54 -14 0 -15 -2 -4 -9z"/>
<path d="M343 1670 c0 -30 2 -43 4 -27 2 15 2 39 0 55 -2 15 -4 2 -4 -28z"/>
<path d="M636 1685 c4 -8 8 -15 10 -15 2 0 4 7 4 15 0 8 -4 15 -10 15 -5 0 -7
-7 -4 -15z"/>
<path d="M238 1640 c-2 -22 0 -40 4 -40 5 0 8 18 8 40 0 22 -2 40 -4 40 -2 0
-6 -18 -8 -40z"/>
<path d="M170 1641 c0 -6 4 -13 10 -16 6 -3 7 1 4 9 -7 18 -14 21 -14 7z"/>
<path d="M116 1527 c3 -10 9 -15 12 -12 3 3 0 11 -7 18 -10 9 -11 8 -5 -6z"/>
<path d="M141 1514 c0 -11 3 -14 6 -6 3 7 2 16 -1 19 -3 4 -6 -2 -5 -13z"/>
<path d="M606 1478 c3 -4 9 -8 15 -8 5 0 9 4 9 8 0 5 -7 9 -15 9 -8 0 -12 -4
-9 -9z"/>
<path d="M642 1470 c0 -14 2 -19 5 -12 2 6 2 18 0 25 -3 6 -5 1 -5 -13z"/>
<path d="M140 1442 c0 -6 -12 -13 -27 -15 -18 -3 -12 -4 17 -5 25 -1 41 2 35
6 -5 4 -13 11 -17 16 -5 5 -8 5 -8 -2z"/>
<path d="M332 1414 c-11 -12 -5 -14 34 -14 50 0 56 6 14 12 -14 1 -27 6 -30 9
-3 4 -11 1 -18 -7z"/>
<path d="M508 1423 c7 -3 16 -2 19 1 4 3 -2 6 -13 5 -11 0 -14 -3 -6 -6z"/>
<path d="M540 1415 c0 -9 10 -15 23 -16 12 -1 37 -2 55 -4 17 -1 32 1 32 6 0
5 -24 10 -52 11 -33 1 -14 4 47 8 l100 6 -102 2 c-86 2 -103 -1 -103 -13z"/>
<path d="M95 1400 c5 -8 115 -4 123 5 4 3 -24 5 -60 4 -37 -1 -65 -5 -63 -9z"/>
<path d="M248 1403 c12 -2 32 -2 45 0 12 2 2 4 -23 4 -25 0 -35 -2 -22 -4z"/>
<path d="M488 1403 c7 -3 16 -2 19 1 4 3 -2 6 -13 5 -11 0 -14 -3 -6 -6z"/>
<path d="M660 1402 c0 -10 77 -9 86 1 4 4 -14 7 -39 7 -26 0 -47 -4 -47 -8z"/>
<path d="M1360 1749 c0 -5 5 -7 10 -4 6 3 10 8 10 11 0 2 -4 4 -10 4 -5 0 -10
-5 -10 -11z"/>
<path d="M923 1710 c0 -25 2 -35 4 -22 2 12 2 32 0 45 -2 12 -4 2 -4 -23z"/>
<path d="M1402 1730 c-7 -11 -8 -20 -2 -20 5 0 9 -22 9 -50 -1 -36 -6 -50 -18
-53 -14 -4 -14 -5 1 -6 13 -1 18 -13 21 -48 l3 -48 2 47 c2 35 6 48 20 51 16
4 16 5 0 6 -14 1 -18 13 -20 71 -3 61 -5 68 -16 50z"/>
<path d="M822 1710 c0 -19 2 -27 5 -17 2 9 2 25 0 35 -3 9 -5 1 -5 -18z"/>
<path d="M1123 1704 c0 -17 2 -22 7 -13 5 6 6 18 3 26 -8 19 -10 16 -10 -13z"/>
<path d="M1195 1710 c4 -11 2 -20 -4 -20 -15 0 -43 -59 -37 -77 5 -13 -2 -15
-45 -11 -31 3 -62 0 -78 -7 -41 -20 -94 -37 -121 -40 -15 -2 -24 -8 -22 -16 6
-24 26 -29 52 -12 76 49 70 47 70 25 0 -12 8 -25 18 -31 16 -9 16 -11 -2 -24
-18 -13 -18 -15 12 -32 17 -11 28 -24 25 -32 -3 -7 0 -13 6 -13 6 0 11 7 11
16 0 11 5 14 16 10 9 -3 19 -6 22 -7 4 0 -2 -4 -13 -9 -16 -7 -11 -9 22 -9 23
-1 45 4 48 9 3 6 21 10 40 10 37 0 52 14 36 34 -8 9 -3 31 16 80 25 64 28 67
55 61 40 -9 53 3 26 24 -45 35 -68 43 -84 31 -7 -7 -12 -16 -9 -20 7 -11 -31
-23 -44 -15 -6 3 -4 20 5 41 16 37 12 54 -12 54 -11 0 -13 -6 -9 -20z m14
-101 c-15 -9 -32 -2 -24 11 3 5 13 6 21 3 12 -4 13 -8 3 -14z m46 -11 c-4 -36
-21 -73 -41 -88 -10 -8 -15 -10 -12 -5 4 6 -2 12 -13 13 -10 1 -27 2 -36 3
-10 1 -23 5 -29 10 -5 4 -22 2 -37 -6 -22 -11 -28 -11 -37 0 -7 8 -9 19 -5 25
3 5 1 10 -6 10 -7 0 -5 6 6 14 12 8 28 11 44 6 14 -3 41 -2 59 4 24 7 39 7 53
-2 10 -7 18 -8 17 -3 -2 7 28 39 39 41 1 0 0 -10 -2 -22z m-110 -99 l44 -11
-15 -29 c-8 -16 -16 -29 -19 -29 -2 0 -19 9 -38 20 -26 15 -34 26 -30 40 6 23
3 23 58 9z m-75 -19 c0 -5 -7 -10 -15 -10 -8 0 -15 5 -15 10 0 6 7 10 15 10 8
0 15 -4 15 -10z m168 -17 c2 -8 -6 -13 -22 -13 -19 0 -24 4 -19 15 6 18 34 16
41 -2z"/>
<path d="M1115 1480 c-3 -5 -1 -10 4 -10 6 0 11 5 11 10 0 6 -2 10 -4 10 -3 0
-8 -4 -11 -10z"/>
<path d="M1022 1690 c0 -19 2 -27 5 -17 2 9 2 25 0 35 -3 9 -5 1 -5 -18z"/>
<path d="M883 1697 c0 -8 6 -14 14 -14 9 0 10 4 2 14 -6 7 -12 13 -14 13 -1 0
-2 -6 -2 -13z"/>
<path d="M1321 1694 c0 -11 3 -14 6 -6 3 7 2 16 -1 19 -3 4 -6 -2 -5 -13z"/>
<path d="M1117 1664 c7 -3 9 -13 6 -22 -5 -13 -3 -14 7 -5 14 13 5 33 -13 32
-9 0 -9 -2 0 -5z"/>
<path d="M921 1638 c-1 -25 -4 -27 -53 -31 -29 -2 -8 -3 47 -3 55 0 81 1 58 3
-36 4 -42 7 -46 31 l-4 27 -2 -27z"/>
<path d="M1417 1493 c-4 -3 -7 -19 -7 -34 l0 -28 -82 -4 c-70 -2 -65 -3 27 -4
61 0 99 2 87 4 -21 4 -23 9 -20 39 4 37 4 37 -5 27z"/>
<path d="M925 1479 c-4 -6 -5 -12 -2 -15 2 -3 7 2 10 11 7 17 1 20 -8 4z"/>
<path d="M1307 1459 c4 -13 8 -18 11 -10 2 7 -1 18 -6 23 -8 8 -9 4 -5 -13z"/>
<path d="M817 1417 c-6 -16 6 -17 136 -16 81 1 129 4 112 8 -16 4 -54 6 -82 5
-35 -2 -53 1 -53 9 0 8 -3 8 -12 -1 -16 -16 -85 -16 -90 0 -3 7 -7 6 -11 -5z"/>
<path d="M1182 1404 c11 -10 50 -13 71 -5 17 6 10 9 -27 9 -27 1 -46 -1 -44
-4z"/>
<path d="M1300 1400 c0 -5 7 -10 15 -10 8 0 15 5 15 10 0 6 -7 10 -15 10 -8 0
-15 -4 -15 -10z"/>
<path d="M1345 1401 c3 -3 32 -6 63 -8 39 -1 52 1 42 7 -16 10 -114 11 -105 1z"/>
<path d="M845 1373 c27 -3 53 -10 57 -16 6 -9 8 -9 8 0 0 9 67 12 272 13 149
0 274 2 276 5 3 3 -145 4 -329 3 -184 -1 -312 -3 -284 -5z"/>
<path d="M1630 1750 c0 -5 5 -10 10 -10 6 0 10 5 10 10 0 6 -4 10 -10 10 -5 0
-10 -4 -10 -10z"/>
<path d="M1735 1750 c3 -5 8 -10 11 -10 2 0 4 5 4 10 0 6 -5 10 -11 10 -5 0
-7 -4 -4 -10z"/>
<path d="M1930 1749 c0 -5 5 -7 10 -4 6 3 10 8 10 11 0 2 -4 4 -10 4 -5 0 -10
-5 -10 -11z"/>
<path d="M1983 1715 c0 -27 2 -38 4 -22 2 15 2 37 0 50 -2 12 -4 0 -4 -28z"/>
<path d="M2030 1749 c0 -5 5 -7 10 -4 6 3 10 8 10 11 0 2 -4 4 -10 4 -5 0 -10
-5 -10 -11z"/>
<path d="M2120 1750 c0 -5 7 -7 15 -4 8 4 15 8 15 10 0 2 -7 4 -15 4 -8 0 -15
-4 -15 -10z"/>
<path d="M1882 1720 c0 -19 2 -27 5 -17 2 9 2 25 0 35 -3 9 -5 1 -5 -18z"/>
<path d="M2083 1700 c0 -30 2 -43 4 -27 2 15 2 39 0 55 -2 15 -4 2 -4 -28z"/>
<path d="M1780 1685 c0 -32 3 -55 7 -52 7 8 5 98 -2 105 -3 3 -5 -21 -5 -53z"/>
<path d="M1930 1718 c0 -6 -9 -21 -20 -33 -11 -12 -22 -37 -23 -54 l-2 -33
-52 6 c-29 3 -54 2 -58 -3 -3 -5 -30 -17 -60 -25 -30 -9 -57 -21 -60 -26 -3
-5 -12 -7 -20 -3 -9 3 -15 -1 -15 -10 0 -26 16 -28 44 -6 15 12 33 18 42 15 8
-3 17 1 20 9 9 21 24 19 24 -4 0 -10 10 -25 22 -33 19 -13 21 -18 10 -31 -15
-17 -13 -19 48 -37 25 -7 49 -17 53 -21 16 -13 43 2 54 31 9 23 15 27 37 23
25 -5 36 -22 16 -24 -5 -1 -14 -2 -19 -3 -20 -2 -23 -16 -4 -16 11 0 28 9 37
19 16 18 16 20 -2 33 -19 13 -19 16 -5 58 20 60 35 75 61 61 27 -14 32 -14 32
3 0 8 -18 26 -41 39 -40 24 -42 24 -60 6 -10 -10 -19 -22 -19 -27 0 -12 -40
-33 -50 -27 -19 12 -10 26 12 19 20 -6 21 -5 10 9 -12 14 -11 21 2 48 20 40
20 49 1 49 -8 0 -15 -5 -15 -12z m90 -82 c0 -3 -4 -8 -10 -11 -5 -3 -10 -1
-10 4 0 6 5 11 10 11 6 0 10 -2 10 -4z m-46 -80 c-18 -53 -33 -61 -80 -41 -19
8 -47 12 -63 9 -29 -6 -65 18 -58 40 4 13 74 16 100 4 12 -6 17 -5 15 4 -2 8
8 13 29 13 18 1 35 4 39 8 4 4 13 7 20 7 10 0 10 -10 -2 -44z m-76 -63 c15 -4
22 -13 22 -29 0 -28 -10 -30 -50 -9 -34 17 -45 63 -12 50 9 -4 27 -10 40 -12z
m-78 -13 c0 -5 -4 -10 -10 -10 -5 0 -10 5 -10 10 0 6 5 10 10 10 6 0 10 -4 10
-10z"/>
<path d="M1680 1711 c0 -6 4 -13 10 -16 6 -3 7 1 4 9 -7 18 -14 21 -14 7z"/>
<path d="M1730 1649 c0 -5 5 -7 10 -4 6 3 10 8 10 11 0 2 -4 4 -10 4 -5 0 -10
-5 -10 -11z"/>
<path d="M2145 1650 c-3 -5 -1 -10 4 -10 6 0 11 5 11 10 0 6 -2 10 -4 10 -3 0
-8 -4 -11 -10z"/>
<path d="M1565 1640 c-3 -6 1 -7 9 -4 18 7 21 14 7 14 -6 0 -13 -4 -16 -10z"/>
<path d="M2116 1637 c3 -10 9 -15 12 -12 3 3 0 11 -7 18 -10 9 -11 8 -5 -6z"/>
<path d="M1630 1621 c0 -6 4 -13 10 -16 6 -3 7 1 4 9 -7 18 -14 21 -14 7z"/>
<path d="M1688 1603 c7 -3 16 -2 19 1 4 3 -2 6 -13 5 -11 0 -14 -3 -6 -6z"/>
<path d="M1728 1603 c7 -3 16 -2 19 1 4 3 -2 6 -13 5 -11 0 -14 -3 -6 -6z"/>
<path d="M2160 1584 c0 -6 -10 -15 -22 -21 -21 -9 -20 -10 10 -11 17 0 32 2
32 6 0 12 -20 37 -20 26z"/>
<path d="M2082 1568 c-1 -9 -11 -20 -22 -23 -21 -7 -28 -25 -10 -25 6 0 10 5
10 10 0 6 5 10 10 10 6 0 10 -25 10 -54 l0 -55 -52 -4 c-29 -2 -6 -3 52 -3 58
0 84 1 58 3 l-47 4 -4 77 c-1 42 -4 69 -5 60z"/>
<path d="M1587 1535 c-4 -8 -3 -16 1 -19 4 -3 9 4 9 15 2 23 -3 25 -10 4z"/>
<path d="M2100 1544 c0 -5 9 -15 20 -21 15 -10 21 -10 26 0 4 6 3 9 -1 4 -5
-4 -17 0 -27 10 -10 9 -18 12 -18 7z"/>
<path d="M1716 1507 c3 -10 9 -15 12 -12 3 3 0 11 -7 18 -10 9 -11 8 -5 -6z"/>
<path d="M1593 1468 c0 -21 1 -24 4 -10 3 14 9 20 16 15 7 -4 6 1 -2 10 -17
22 -17 22 -18 -15z"/>
<path d="M2116 1492 c-3 -5 1 -9 9 -9 8 0 12 4 9 9 -3 4 -7 8 -9 8 -2 0 -6 -4
-9 -8z"/>
<path d="M1578 1423 c34 -2 90 -2 125 0 34 2 6 3 -63 3 -69 0 -97 -1 -62 -3z"/>
<path d="M1778 1423 c6 -2 18 -2 25 0 6 3 1 5 -13 5 -14 0 -19 -2 -12 -5z"/>
<path d="M1958 1403 c17 -2 47 -2 65 0 17 2 3 4 -33 4 -36 0 -50 -2 -32 -4z"/>
<path d="M2104 1402 c5 -8 76 -4 76 4 0 2 -18 4 -41 4 -22 0 -38 -4 -35 -8z"/>
<path d="M2279 1723 c-2 -21 -1 -54 2 -73 5 -25 7 -15 8 38 1 77 -5 96 -10 35z"/>
<path d="M2335 1750 c3 -5 8 -10 11 -10 2 0 4 5 4 10 0 6 -5 10 -11 10 -5 0
-7 -4 -4 -10z"/>
<path d="M2382 1688 l-2 -78 -62 -1 c-35 0 -57 -3 -50 -6 6 -2 12 -9 12 -14 0
-6 -5 -7 -11 -4 -6 4 -5 -3 3 -14 13 -22 13 -22 16 3 3 25 5 25 89 25 47 0 88
2 91 5 3 3 -13 6 -36 6 l-41 0 -4 78 -3 77 -2 -77z"/>
<path d="M2720 1750 c0 -5 4 -10 9 -10 6 0 13 5 16 10 3 6 -1 10 -9 10 -9 0
-16 -4 -16 -10z"/>
<path d="M2820 1750 c0 -5 5 -10 10 -10 6 0 10 5 10 10 0 6 -4 10 -10 10 -5 0
-10 -4 -10 -10z"/>
<path d="M2483 1685 c0 -38 2 -53 4 -32 2 20 2 52 0 70 -2 17 -4 1 -4 -38z"/>
<path d="M2583 1700 c0 -30 2 -43 4 -27 2 15 2 39 0 55 -2 15 -4 2 -4 -28z"/>
<path d="M2873 1710 c0 -25 2 -35 4 -22 2 12 2 32 0 45 -2 12 -4 2 -4 -23z"/>
<path d="M2668 1733 c-10 -2 -18 -13 -18 -23 0 -10 -7 -20 -15 -24 -21 -7 -45
-68 -33 -83 7 -9 -5 -10 -46 -7 -41 4 -62 1 -78 -11 -12 -8 -39 -15 -59 -15
-21 0 -42 -7 -50 -16 -7 -9 -21 -19 -31 -23 -11 -4 -14 -11 -9 -20 7 -11 16
-8 46 12 21 14 44 23 52 20 8 -3 19 0 24 8 7 12 9 11 9 -2 0 -9 16 -30 35 -48
19 -17 35 -39 35 -48 0 -9 14 -28 30 -43 l30 -27 -147 2 c-82 2 -159 -1 -173
-6 -18 -6 -10 -8 32 -5 47 2 55 0 51 -13 -4 -12 -2 -13 4 -3 6 8 25 11 51 8
24 -2 42 0 42 6 0 7 4 7 13 0 7 -6 67 -9 157 -6 80 1 165 3 189 4 24 0 42 3
39 6 -8 7 -208 8 -215 0 -3 -3 -11 0 -18 7 -7 7 -25 23 -41 36 -33 29 -20 38
32 21 19 -7 37 -10 40 -7 4 4 -22 16 -68 31 -10 3 -18 12 -18 20 0 11 7 12 33
5 17 -4 49 -11 70 -14 20 -3 37 -11 37 -17 0 -6 -10 -8 -27 -3 -23 5 -25 4
-14 -9 10 -12 18 -13 37 -4 27 13 29 19 12 36 -9 9 -6 12 15 12 23 0 27 -4 27
-30 0 -16 5 -30 11 -30 6 0 9 16 7 38 -3 32 -7 37 -30 40 -24 3 -25 6 -18 31
17 61 27 71 61 59 42 -15 47 -3 14 32 -37 38 -74 40 -96 4 -15 -24 -17 -25
-32 -9 -13 12 -14 21 -7 36 6 10 7 19 3 19 -4 0 -2 4 6 9 8 5 15 19 16 30 1
12 1 20 1 20 -1 -1 -9 -3 -18 -6z m98 -105 c4 -7 3 -8 -4 -4 -6 4 -19 -3 -29
-15 -10 -12 -23 -27 -30 -34 -7 -7 -10 -15 -7 -18 3 -2 2 -16 -1 -30 -7 -24
-9 -25 -71 -20 -40 3 -69 1 -78 -6 -10 -9 -19 -4 -40 21 -25 31 -26 33 -9 46
11 8 34 11 62 8 25 -3 51 -1 57 5 8 7 14 6 19 -1 5 -8 14 -6 31 5 13 8 24 13
24 11 0 -3 11 6 25 19 27 28 40 31 51 13z m-101 -18 c3 -5 -3 -10 -14 -10 -12
0 -21 5 -21 10 0 6 6 10 14 10 8 0 18 -4 21 -10z"/>
<path d="M2317 1687 c-3 -8 1 -14 9 -14 7 0 11 4 8 8 -2 4 6 10 18 12 21 4 20
4 -3 6 -15 0 -29 -5 -32 -12z"/>
<path d="M2872 1640 c0 -14 2 -19 5 -12 2 6 2 18 0 25 -3 6 -5 1 -5 -13z"/>
<path d="M2786 1534 c-9 -24 -2 -26 12 -4 7 11 8 20 3 20 -5 0 -12 -7 -15 -16z"/>
<path d="M2863 1516 c0 -8 6 -12 14 -9 7 3 10 9 7 14 -8 14 -21 11 -21 -5z"/>
<path d="M2266 1502 c-3 -5 1 -9 9 -9 8 0 12 4 9 9 -3 4 -7 8 -9 8 -2 0 -6 -4
-9 -8z"/>
<path d="M2835 1491 c-3 -5 -1 -12 5 -16 5 -3 10 1 10 9 0 18 -6 21 -15 7z"/>
<path d="M2891 1486 c-9 -11 -9 -16 1 -22 7 -4 10 -4 6 1 -4 4 -3 14 3 22 6 7
9 13 6 13 -2 0 -10 -6 -16 -14z"/>
<path d="M2314 1462 c4 -3 14 -7 22 -8 9 -1 13 0 10 4 -4 3 -14 7 -22 8 -9 1
-13 0 -10 -4z"/>
<path d="M2380 1460 c0 -5 7 -7 15 -4 8 4 15 8 15 10 0 2 -7 4 -15 4 -8 0 -15
-4 -15 -10z"/>
<path d="M2475 1449 c-4 -6 -4 -13 -1 -16 3 -4 6 -1 6 6 0 7 5 9 12 5 7 -4 8
-3 4 4 -9 15 -13 15 -21 1z"/>
<path d="M2275 1410 c-3 -5 -1 -10 4 -10 6 0 11 5 11 10 0 6 -2 10 -4 10 -3 0
-8 -4 -11 -10z"/>
<path d="M2300 1411 c0 -12 218 -12 226 0 3 5 -47 9 -110 9 -66 0 -116 -4
-116 -9z"/>
<path d="M2606 1408 c7 -11 282 -9 290 3 3 5 -63 8 -145 8 -89 -1 -148 -5
-145 -11z"/>
<path d="M2865 1380 c-3 -5 -1 -10 4 -10 6 0 11 5 11 10 0 6 -2 10 -4 10 -3 0
-8 -4 -11 -10z"/>
<path d="M270 1280 c0 -5 5 -10 10 -10 6 0 10 5 10 10 0 6 -4 10 -10 10 -5 0
-10 -4 -10 -10z"/>
<path d="M460 1282 c0 -5 7 -9 15 -9 8 0 15 4 15 9 0 4 -7 8 -15 8 -8 0 -15
-4 -15 -8z"/>
<path d="M660 1280 c0 -5 5 -10 10 -10 6 0 10 5 10 10 0 6 -4 10 -10 10 -5 0
-10 -4 -10 -10z"/>
<path d="M702 1269 c-8 -12 -9 -18 -3 -15 6 4 11 -12 14 -41 3 -44 4 -42 5 15
1 34 1 62 -1 62 -1 0 -8 -9 -15 -21z"/>
<path d="M118 1240 c-2 -23 -1 -43 3 -46 9 -5 17 64 8 77 -4 6 -8 -7 -11 -31z"/>
<path d="M222 1243 c-2 -35 1 -43 16 -43 11 0 13 3 5 8 -6 4 -13 23 -16 42 -4
33 -4 33 -5 -7z"/>
<path d="M309 1263 c-8 -9 -9 -14 -2 -10 6 4 13 1 16 -5 3 -7 4 -3 4 10 -1 26
-1 26 -18 5z"/>
<path d="M422 1250 c0 -19 2 -27 5 -17 2 9 2 25 0 35 -3 9 -5 1 -5 -18z"/>
<path d="M396 1253 c-6 -14 -5 -15 5 -6 7 7 10 15 7 18 -3 3 -9 -2 -12 -12z"/>
<path d="M479 1253 c-1 -5 -1 -12 0 -17 1 -5 -7 -15 -17 -22 -11 -7 -25 -27
-32 -45 -11 -26 -11 -32 1 -41 10 -6 -3 -8 -40 -5 -34 3 -67 -1 -88 -9 -18 -8
-47 -14 -65 -14 -36 -1 -56 -13 -76 -49 -20 -35 -8 -36 32 -1 19 17 40 29 45
26 5 -4 12 -2 16 4 3 5 13 10 21 10 8 0 12 -4 9 -10 -3 -5 2 -24 11 -42 13
-24 14 -36 5 -50 -14 -22 14 -87 38 -89 64 -5 311 -3 331 3 14 3 -53 7 -147 7
-161 1 -174 2 -194 22 -11 11 -19 23 -17 27 2 4 10 19 17 35 17 32 27 34 41 7
6 -11 34 -32 63 -46 47 -22 63 -25 170 -23 64 1 117 5 117 9 0 5 -56 7 -125 6
-68 -2 -122 1 -119 5 3 5 0 9 -6 9 -23 0 -80 32 -80 45 0 10 21 13 80 12 59 0
80 -4 80 -14 0 -7 -7 -13 -15 -13 -8 0 -15 -4 -15 -10 0 -18 29 -11 40 10 14
26 26 25 57 -6 39 -39 37 -23 -2 19 -19 20 -44 37 -55 37 -24 0 -25 9 -6 55
16 38 21 40 60 25 38 -14 41 5 6 40 -36 36 -49 37 -84 9 -35 -28 -61 -18 -51
18 4 16 11 31 17 34 13 8 3 39 -12 39 -5 0 -11 -3 -11 -7z m71 -123 c-19 -20
-30 -43 -30 -61 l0 -29 -100 1 c-87 2 -100 4 -105 20 -10 31 4 40 58 39 81 -1
103 4 154 37 26 16 49 29 51 28 1 -1 -11 -17 -28 -35z m-60 15 c10 -13 9 -15
-9 -15 -12 0 -21 6 -21 15 0 8 4 15 9 15 5 0 14 -7 21 -15z"/>
<path d="M595 1240 c-3 -5 -1 -10 4 -10 6 0 11 5 11 10 0 6 -2 10 -4 10 -3 0
-8 -4 -11 -10z"/>
<path d="M360 1228 c0 -9 5 -20 10 -23 13 -8 13 5 0 25 -8 13 -10 13 -10 -2z"/>
<path d="M162 1217 c-11 -13 -28 -86 -17 -75 3 3 8 18 11 34 3 16 10 34 16 41
6 7 8 13 5 13 -2 0 -9 -6 -15 -13z"/>
<path d="M521 1204 c0 -11 3 -14 6 -6 3 7 2 16 -1 19 -3 4 -6 -2 -5 -13z"/>
<path d="M322 1180 c0 -19 2 -27 5 -17 2 9 2 25 0 35 -3 9 -5 1 -5 -18z"/>
<path d="M222 1160 c0 -19 2 -27 5 -17 2 9 2 25 0 35 -3 9 -5 1 -5 -18z"/>
<path d="M275 1181 c-3 -5 -2 -12 3 -15 5 -3 9 1 9 9 0 17 -3 19 -12 6z"/>
<path d="M121 1164 c0 -11 3 -14 6 -6 3 7 2 16 -1 19 -3 4 -6 -2 -5 -13z"/>
<path d="M712 1130 c0 -14 2 -19 5 -12 2 6 2 18 0 25 -3 6 -5 1 -5 -13z"/>
<path d="M154 1125 c-12 -8 -24 -11 -28 -8 -3 3 -6 1 -6 -5 0 -15 17 -16 25
-1 4 6 13 8 19 6 7 -3 13 1 13 9 0 17 2 17 -23 -1z"/>
<path d="M678 1133 c7 -3 16 -2 19 1 4 3 -2 6 -13 5 -11 0 -14 -3 -6 -6z"/>
<path d="M213 953 c9 -2 25 -2 35 0 9 3 1 5 -18 5 -19 0 -27 -2 -17 -5z"/>
<path d="M107 927 c-7 -4 18 -6 56 -5 37 1 67 6 67 11 0 10 -108 5 -123 -6z"/>
<path d="M248 928 c7 -7 16 -7 28 0 14 8 13 10 -10 10 -18 0 -24 -4 -18 -10z"/>
<path d="M373 933 c15 -2 37 -2 50 0 12 2 0 4 -28 4 -27 0 -38 -2 -22 -4z"/>
<path d="M710 910 c0 -5 5 -10 11 -10 5 0 7 5 4 10 -3 6 -8 10 -11 10 -2 0 -4
-4 -4 -10z"/>
<path d="M1245 1290 c-4 -6 3 -10 14 -10 25 0 27 6 6 13 -8 4 -17 2 -20 -3z"/>
<path d="M895 1280 c3 -5 8 -10 11 -10 2 0 4 5 4 10 0 6 -5 10 -11 10 -5 0 -7
-4 -4 -10z"/>
<path d="M932 1283 c13 -3 18 -18 21 -61 l3 -57 2 57 c2 44 6 58 20 61 9 3 -1
5 -23 5 -22 0 -32 -2 -23 -5z"/>
<path d="M1000 1281 c0 -6 4 -13 10 -16 6 -3 7 1 4 9 -7 18 -14 21 -14 7z"/>
<path d="M1021 1286 c11 -9 99 -15 99 -6 0 6 -23 10 -52 10 -28 0 -49 -2 -47
-4z"/>
<path d="M1190 1280 c0 -5 5 -10 11 -10 5 0 7 5 4 10 -3 6 -8 10 -11 10 -2 0
-4 -4 -4 -10z"/>
<path d="M1295 1280 c-3 -5 -1 -10 4 -10 6 0 11 5 11 10 0 6 -2 10 -4 10 -3 0
-8 -4 -11 -10z"/>
<path d="M1328 1283 c7 -3 16 -2 19 1 4 3 -2 6 -13 5 -11 0 -14 -3 -6 -6z"/>
<path d="M1390 1280 c-13 -8 -12 -10 3 -10 9 0 17 5 17 10 0 12 -1 12 -20 0z"/>
<path d="M848 1247 c-3 -19 -2 -25 4 -19 6 6 8 18 6 28 -3 14 -5 12 -10 -9z"/>
<path d="M1341 1257 c-1 -10 5 -25 13 -33 21 -20 32 -17 14 4 -9 9 -18 24 -21
32 -4 12 -6 11 -6 -3z"/>
<path d="M1053 1215 c0 -22 2 -30 4 -17 2 12 2 30 0 40 -3 9 -5 -1 -4 -23z"/>
<path d="M1151 1234 c0 -11 3 -14 6 -6 3 7 2 16 -1 19 -3 4 -6 -2 -5 -13z"/>
<path d="M1193 1236 c3 -8 -4 -21 -17 -30 -27 -17 -40 -65 -23 -84 9 -11 -1
-13 -49 -12 -78 2 -183 -10 -190 -21 -3 -5 -15 -9 -27 -9 -16 0 -18 -3 -8 -9
9 -6 10 -11 2 -15 -6 -4 -11 -15 -11 -23 0 -13 6 -11 28 9 29 27 122 57 102
33 -6 -7 -8 -24 -5 -38 5 -18 1 -29 -14 -39 -27 -19 -57 -88 -39 -88 9 0 8 -3
-2 -10 -10 -6 77 -10 254 -10 148 0 267 2 264 5 -3 3 -79 6 -169 7 -103 1
-147 4 -119 9 l45 7 -52 -3 c-63 -2 -80 12 -85 70 -2 32 0 39 12 36 8 -3 54
-7 101 -10 87 -6 122 -21 112 -47 -4 -11 -29 -15 -107 -16 l-101 -2 100 -3
c86 -3 101 -1 112 14 12 16 15 16 41 2 15 -9 47 -16 72 -17 l45 -1 -57 13
c-66 14 -88 30 -88 62 0 19 -5 24 -25 24 -31 0 -34 27 -6 61 17 21 21 22 50 9
43 -18 49 -7 17 35 -31 40 -42 42 -90 16 -29 -17 -37 -18 -53 -6 -17 13 -17
15 0 45 18 34 15 50 -10 50 -9 0 -13 -6 -10 -14z m90 -108 c-17 -18 -34 -48
-38 -66 l-7 -34 -51 6 c-29 2 -67 7 -85 9 -17 3 -35 1 -38 -4 -12 -19 -40 -9
-42 16 -2 28 16 35 83 33 22 0 47 2 55 4 8 3 33 11 55 18 23 6 52 20 65 31 37
28 38 23 3 -13z m-74 13 c9 -6 10 -10 2 -16 -16 -9 -44 2 -36 15 8 12 16 12
34 1z m101 -131 c0 -5 -2 -10 -4 -10 -3 0 -8 5 -11 10 -3 6 -1 10 4 10 6 0 11
-4 11 -10z m-250 -40 c6 -21 15 -42 20 -45 24 -15 6 -25 -46 -25 -86 0 -101
30 -40 82 42 37 53 35 66 -12z"/>
<path d="M980 942 c0 -5 16 -9 35 -10 19 -1 35 3 35 8 0 6 -16 10 -35 10 -19
0 -35 -4 -35 -8z"/>
<path d="M998 913 c12 -2 32 -2 45 0 12 2 2 4 -23 4 -25 0 -35 -2 -22 -4z"/>
<path d="M1302 1230 c0 -14 2 -19 5 -12 2 6 2 18 0 25 -3 6 -5 1 -5 -13z"/>
<path d="M848 1185 c-3 -14 -1 -25 3 -25 5 0 9 11 9 25 0 14 -2 25 -4 25 -2 0
-6 -11 -8 -25z"/>
<path d="M850 1139 c0 -5 9 -9 20 -9 11 0 20 2 20 4 0 2 -9 6 -20 9 -11 3 -20
1 -20 -4z"/>
<path d="M928 1133 c17 -2 47 -2 65 0 17 2 3 4 -33 4 -36 0 -50 -2 -32 -4z"/>
<path d="M1411 1064 c0 -11 3 -14 6 -6 3 7 2 16 -1 19 -3 4 -6 -2 -5 -13z"/>
<path d="M1340 1050 c0 -6 7 -10 15 -10 8 0 15 2 15 4 0 2 -7 6 -15 10 -8 3
-15 1 -15 -4z"/>
<path d="M804 943 c11 -11 114 -14 121 -3 4 6 -19 10 -61 10 -37 0 -64 -3 -60
-7z"/>
<path d="M1290 918 c0 -5 39 -8 87 -8 47 0 83 3 79 7 -9 10 -166 10 -166 1z"/>
<path d="M820 911 c0 -12 73 -12 91 0 9 6 -5 9 -38 9 -29 0 -53 -4 -53 -9z"/>
<path d="M900 890 c0 -5 5 -10 10 -10 6 0 10 5 10 10 0 6 -4 10 -10 10 -5 0
-10 -4 -10 -10z"/>
<path d="M1568 1283 c6 -2 18 -2 25 0 6 3 1 5 -13 5 -14 0 -19 -2 -12 -5z"/>
<path d="M1610 1280 c0 -5 5 -10 10 -10 6 0 10 5 10 10 0 6 -4 10 -10 10 -5 0
-10 -4 -10 -10z"/>
<path d="M1710 1280 c0 -5 -12 -10 -27 -10 -28 0 -28 0 -25 -61 4 -72 13 -73
14 -1 0 47 1 50 30 56 17 3 34 3 39 0 5 -3 6 2 3 10 -7 18 -34 22 -34 6z"/>
<path d="M1810 1280 c0 -5 5 -10 10 -10 6 0 10 5 10 10 0 6 -4 10 -10 10 -5 0
-10 -4 -10 -10z"/>
<path d="M1910 1280 c0 -5 5 -10 10 -10 6 0 10 5 10 10 0 6 -4 10 -10 10 -5 0
-10 -4 -10 -10z"/>
<path d="M2014 1281 c-5 -5 -20 -11 -34 -14 l-25 -4 25 -1 c26 -2 58 13 49 22
-3 3 -10 2 -15 -3z"/>
<path d="M2060 1275 c0 -8 4 -15 10 -15 5 0 7 7 4 15 -4 8 -8 15 -10 15 -2 0
-4 -7 -4 -15z"/>
<path d="M2100 1278 c0 -4 7 -8 15 -8 8 0 15 4 15 8 0 5 -7 9 -15 9 -8 0 -15
-4 -15 -9z"/>
<path d="M2163 1255 c0 -22 2 -30 4 -17 2 12 2 30 0 40 -3 9 -5 -1 -4 -23z"/>
<path d="M1563 1215 c0 -33 2 -45 4 -27 2 18 2 45 0 60 -2 15 -4 0 -4 -33z"/>
<path d="M1768 1263 c6 -2 18 -2 25 0 6 3 1 5 -13 5 -14 0 -19 -2 -12 -5z"/>
<path d="M1763 1212 c-1 -32 0 -33 7 -12 11 33 12 50 3 50 -5 0 -9 -17 -10
-38z"/>
<path d="M1930 1234 c0 -9 -10 -24 -22 -33 -14 -12 -22 -30 -22 -54 -1 -41 -1
-41 -81 -38 -58 2 -179 -24 -209 -45 -30 -21 -2 -19 76 6 75 23 75 23 60 8 -7
-7 -12 -19 -12 -28 0 -33 -123 -113 -159 -103 -10 2 -22 -1 -26 -8 -17 -27 77
-1 132 37 29 20 56 35 59 32 2 -3 -2 -11 -11 -18 -9 -7 -15 -29 -15 -51 0 -28
-4 -39 -15 -39 -8 0 -15 5 -15 10 0 7 -22 9 -57 6 -95 -7 -100 -9 -53 -15 25
-4 52 -4 61 0 8 4 22 3 30 -2 21 -13 456 -12 465 2 3 6 17 8 29 5 13 -3 27 -2
30 4 4 6 -12 10 -42 10 -35 0 -44 -3 -33 -10 10 -6 11 -10 3 -10 -24 0 -103
86 -103 112 0 13 63 -8 86 -29 14 -13 31 -22 37 -20 15 5 -56 57 -90 66 -34 9
-40 32 -16 65 21 30 29 31 65 12 39 -21 45 -2 11 39 -24 29 -33 33 -58 28 -16
-3 -31 -9 -33 -14 -4 -10 -33 -12 -55 -3 -13 5 -14 10 -1 39 18 44 18 55 -1
55 -8 0 -15 -7 -15 -16z m25 -93 c3 -5 -4 -13 -16 -16 -23 -8 -34 -1 -24 14 8
13 32 14 40 2z m69 -3 c-4 -7 -16 -23 -27 -35 -12 -14 -18 -31 -15 -46 5 -24
4 -24 -66 -19 -39 3 -94 5 -122 6 -47 1 -51 3 -44 21 7 18 15 20 73 17 38 -2
68 1 72 7 3 6 14 11 23 11 10 0 37 11 62 25 53 29 53 29 44 13z m-112 -125
l67 -5 40 -54 c40 -54 40 -54 15 -54 -14 0 -22 4 -19 10 3 6 2 10 -4 10 -5 0
-13 -4 -16 -10 -10 -17 -254 -13 -271 4 -22 23 -17 42 24 81 31 30 42 35 67
30 17 -3 60 -9 97 -12z"/>
<path d="M1723 944 c7 -8 278 -6 286 1 2 3 -62 5 -144 5 -82 0 -145 -3 -142
-6z"/>
<path d="M1798 913 c28 -2 76 -2 105 0 28 2 5 3 -53 3 -58 0 -81 -1 -52 -3z"/>
<path d="M1968 913 c7 -3 16 -2 19 1 4 3 -2 6 -13 5 -11 0 -14 -3 -6 -6z"/>
<path d="M2061 1234 c0 -11 3 -14 6 -6 3 7 2 16 -1 19 -3 4 -6 -2 -5 -13z"/>
<path d="M1865 1220 c3 -5 8 -10 11 -10 2 0 4 5 4 10 0 6 -5 10 -11 10 -5 0
-7 -4 -4 -10z"/>
<path d="M1613 1133 c48 -2 125 -2 170 0 45 1 6 3 -88 3 -93 0 -130 -2 -82 -3z"/>
<path d="M1561 1084 c0 -11 3 -14 6 -6 3 7 2 16 -1 19 -3 4 -6 -2 -5 -13z"/>
<path d="M2111 1034 c0 -11 3 -14 6 -6 3 7 2 16 -1 19 -3 4 -6 -2 -5 -13z"/>
<path d="M2134 1042 c4 -3 14 -7 22 -8 9 -1 13 0 10 4 -4 3 -14 7 -22 8 -9 1
-13 0 -10 -4z"/>
<path d="M2161 994 c0 -11 3 -14 6 -6 3 7 2 16 -1 19 -3 4 -6 -2 -5 -13z"/>
<path d="M1640 940 c-12 -8 -12 -10 5 -10 11 0 27 5 35 10 12 8 12 10 -5 10
-11 0 -27 -5 -35 -10z"/>
<path d="M2088 943 c17 -2 47 -2 65 0 17 2 3 4 -33 4 -36 0 -50 -2 -32 -4z"/>
<path d="M2311 1223 c0 -40 2 -73 7 -73 4 0 6 24 4 52 -5 89 -9 97 -11 21z"/>
<path d="M2350 1280 c0 -5 7 -10 15 -10 8 0 15 5 15 10 0 6 -7 10 -15 10 -8 0
-15 -4 -15 -10z"/>
<path d="M2450 1278 c0 -4 7 -8 15 -8 8 0 15 4 15 8 0 5 -7 9 -15 9 -8 0 -15
-4 -15 -9z"/>
<path d="M2850 1280 c0 -5 5 -10 10 -10 6 0 10 5 10 10 0 6 -4 10 -10 10 -5 0
-10 -4 -10 -10z"/>
<path d="M2413 1215 c0 -38 2 -53 4 -32 2 20 2 52 0 70 -2 17 -4 1 -4 -38z"/>
<path d="M2700 1269 c-8 -5 -10 -9 -5 -9 6 0 12 -14 13 -32 4 -46 9 -45 14 2
4 45 0 53 -22 39z"/>
<path d="M2803 1254 c-6 -13 -7 -24 -2 -24 12 0 31 38 21 44 -4 2 -12 -7 -19
-20z"/>
<path d="M2590 1266 c0 -4 7 -14 15 -22 8 -9 15 -11 15 -6 0 5 -7 15 -15 22
-8 7 -15 9 -15 6z"/>
<path d="M2511 1234 c0 -11 3 -14 6 -6 3 7 2 16 -1 19 -3 4 -6 -2 -5 -13z"/>
<path d="M2633 1237 c3 -7 -6 -24 -19 -36 -14 -13 -22 -26 -19 -29 2 -3 0 -11
-6 -19 -9 -10 -8 -17 1 -28 10 -12 9 -15 -6 -16 -11 0 -53 -2 -94 -3 -67 -2
-98 -6 -178 -22 -13 -2 -20 -9 -17 -14 11 -17 79 -11 113 10 18 11 34 20 36
20 2 0 -2 -15 -7 -33 -9 -26 -21 -39 -58 -55 -26 -12 -54 -22 -62 -22 -9 0
-19 -4 -22 -10 -9 -15 37 -12 60 3 11 8 28 17 38 20 16 6 16 4 -3 -23 -12 -16
-29 -34 -38 -39 -9 -5 -13 -13 -9 -17 4 -4 28 13 53 38 59 60 93 74 143 59 21
-6 59 -11 85 -11 30 0 46 -4 46 -12 1 -7 4 -31 9 -53 l7 -40 -164 3 c-156 3
-201 -3 -177 -25 4 -5 9 -3 11 2 3 6 88 9 236 7 217 -2 276 4 255 25 -5 4 -11
2 -15 -4 -7 -12 -92 -11 -111 1 -6 4 -11 4 -12 -1 -1 -20 -18 36 -18 65 -1 39
4 39 87 6 46 -18 67 -23 75 -15 8 8 3 11 -17 11 -40 0 -116 50 -116 75 0 11 9
31 19 45 18 22 22 23 48 11 46 -21 51 -12 16 33 -16 20 -32 28 -58 30 -24 1
-34 -3 -31 -10 8 -20 -25 -26 -50 -9 -28 18 -29 23 -8 53 8 12 12 27 9 32 -9
15 -38 12 -32 -3z m33 -98 c5 -9 -44 -25 -52 -17 -2 3 -2 12 1 20 6 16 40 14
51 -3z m100 4 c-4 -5 -13 -8 -19 -8 -7 0 -23 -24 -37 -52 -24 -51 -27 -53 -65
-53 -22 0 -58 5 -80 11 -22 6 -53 12 -69 13 -16 0 -31 7 -33 14 -5 13 0 15 72
18 68 2 126 17 166 42 32 19 81 30 65 15z"/>
<path d="M2680 1231 c0 -6 5 -13 10 -16 6 -3 10 1 10 9 0 9 -4 16 -10 16 -5 0
-10 -4 -10 -9z"/>
<path d="M2865 1230 c-3 -6 1 -7 9 -4 18 7 21 14 7 14 -6 0 -13 -4 -16 -10z"/>
<path d="M2846 1201 c-3 -5 1 -11 9 -15 8 -3 15 -1 15 4 0 13 -18 22 -24 11z"/>
<path d="M2355 1179 c-4 -6 -5 -12 -2 -15 2 -3 7 2 10 11 7 17 1 20 -8 4z"/>
<path d="M2348 1133 c23 -2 61 -2 85 0 23 2 4 4 -43 4 -47 0 -66 -2 -42 -4z"/>
<path d="M2498 1133 c12 -2 32 -2 45 0 12 2 2 4 -23 4 -25 0 -35 -2 -22 -4z"/>
<path d="M2850 1129 c0 -5 5 -7 10 -4 6 3 10 8 10 11 0 2 -4 4 -10 4 -5 0 -10
-5 -10 -11z"/>
<path d="M2860 1105 c-11 -13 -10 -14 4 -9 9 3 16 10 16 15 0 13 -6 11 -20 -6z"/>
<path d="M2819 1053 c-13 -16 -12 -17 4 -4 16 13 21 21 13 21 -2 0 -10 -8 -17
-17z"/>
<path d="M2261 944 c0 -11 3 -14 6 -6 3 7 2 16 -1 19 -3 4 -6 -2 -5 -13z"/>
<path d="M2395 940 c-4 -6 41 -10 129 -10 79 0 137 4 141 10 4 6 -41 10 -129
10 -79 0 -137 -4 -141 -10z"/>
<path d="M2710 941 c0 -10 116 -9 126 2 4 4 -23 7 -59 7 -37 0 -67 -4 -67 -9z"/>
<path d="M2863 943 c9 -2 23 -2 30 0 6 3 -1 5 -18 5 -16 0 -22 -2 -12 -5z"/>
<path d="M2293 933 c9 -2 23 -2 30 0 6 3 -1 5 -18 5 -16 0 -22 -2 -12 -5z"/>
<path d="M90 816 c0 -2 7 -6 15 -10 8 -3 15 -1 15 4 0 6 -7 10 -15 10 -8 0
-15 -2 -15 -4z"/>
<path d="M200 810 c0 -5 5 -10 10 -10 6 0 10 5 10 10 0 6 -4 10 -10 10 -5 0
-10 -4 -10 -10z"/>
<path d="M300 810 c0 -5 7 -10 15 -10 8 0 15 5 15 10 0 6 -7 10 -15 10 -8 0
-15 -4 -15 -10z"/>
<path d="M400 808 c0 -4 7 -8 15 -8 8 0 15 4 15 8 0 5 -7 9 -15 9 -8 0 -15 -4
-15 -9z"/>
<path d="M600 808 c0 -4 7 -8 15 -8 8 0 15 4 15 8 0 5 -7 9 -15 9 -8 0 -15 -4
-15 -9z"/>
<path d="M700 810 c0 -5 7 -10 16 -10 8 0 12 5 9 10 -3 6 -10 10 -16 10 -5 0
-9 -4 -9 -10z"/>
<path d="M151 794 c0 -11 3 -14 6 -6 3 7 2 16 -1 19 -3 4 -6 -2 -5 -13z"/>
<path d="M563 770 c0 -25 2 -35 4 -22 2 12 2 32 0 45 -2 12 -4 2 -4 -23z"/>
<path d="M661 784 c0 -11 3 -14 6 -6 3 7 2 16 -1 19 -3 4 -6 -2 -5 -13z"/>
<path d="M472 783 c-6 -3 -9 -9 -6 -15 3 -5 -3 -19 -14 -31 -24 -27 -34 -67
-21 -83 7 -9 -11 -11 -81 -7 -67 4 -94 2 -106 -8 -18 -15 -84 -20 -84 -7 0 4
-4 8 -10 8 -19 0 -10 -19 16 -36 27 -18 24 -18 105 24 3 1 4 -11 1 -29 -3 -23
-9 -30 -22 -26 -12 3 -26 -6 -39 -24 -12 -16 -30 -29 -41 -29 -10 0 -22 -4
-25 -10 -12 -19 41 -10 93 15 29 14 56 25 62 25 6 0 19 5 29 12 15 9 26 8 54
-5 19 -9 47 -17 61 -17 l26 0 -20 -41 c-12 -23 -19 -48 -16 -56 5 -13 1 -14
-25 -9 -17 3 -86 6 -152 6 -66 0 -118 2 -116 5 3 2 65 7 139 11 74 3 137 8
140 11 11 10 -25 21 -41 12 -10 -5 -33 -8 -51 -8 l-33 2 35 7 c23 5 2 7 -65 7
-92 0 -95 -1 -35 -7 l65 -7 -60 -3 c-123 -6 -137 -8 -146 -21 -7 -11 2 -15 39
-17 25 -2 52 -8 59 -14 7 -6 13 -7 13 -2 0 5 117 9 259 9 206 0 263 3 273 14
11 11 6 12 -32 7 -64 -9 -66 -9 -157 -6 -44 1 -86 6 -92 10 -17 10 44 90 69
90 11 0 42 -21 71 -46 31 -27 57 -43 66 -40 8 3 30 6 49 6 24 0 33 4 28 11 -4
7 -24 9 -55 6 -47 -6 -49 -5 -89 40 -22 25 -40 53 -40 61 0 8 11 30 26 49 24
32 26 33 54 18 39 -20 50 -2 19 32 -41 43 -58 48 -90 24 -33 -24 -39 -25 -62
-8 -15 10 -16 17 -6 45 12 34 4 53 -19 45z m29 -103 c5 0 9 -4 9 -9 0 -9 -47
-21 -54 -14 -10 10 8 34 21 29 8 -3 19 -6 24 -6z m99 1 c0 -5 -8 -12 -18 -15
-11 -4 -25 -18 -32 -31 -7 -14 -17 -25 -21 -25 -4 0 -5 -8 -2 -18 3 -13 -4
-22 -23 -31 -16 -7 -30 -8 -33 -3 -3 5 -14 8 -23 6 -10 -1 -20 2 -23 6 -3 5
-12 7 -20 3 -8 -3 -15 0 -15 5 0 7 -19 9 -50 7 -53 -5 -58 0 -37 30 11 14 21
16 43 11 39 -10 85 -8 99 4 7 5 14 7 17 4 7 -7 108 38 108 48 0 4 7 8 15 8 8
0 15 -4 15 -9z"/>
<path d="M175 770 c-3 -5 -12 -7 -20 -3 -8 3 -15 0 -15 -5 0 -19 17 -22 30 -7
7 8 17 12 23 8 6 -3 7 -1 3 5 -9 14 -13 15 -21 2z"/>
<path d="M283 765 c0 -8 4 -12 9 -9 5 3 6 10 3 15 -9 13 -12 11 -12 -6z"/>
<path d="M316 772 c-3 -5 1 -9 9 -9 8 0 12 4 9 9 -3 4 -7 8 -9 8 -2 0 -6 -4
-9 -8z"/>
<path d="M107 749 c7 -7 15 -10 18 -7 3 3 -2 9 -12 12 -14 6 -15 5 -6 -5z"/>
<path d="M620 751 c0 -5 5 -13 10 -16 6 -3 10 -2 10 4 0 5 -4 13 -10 16 -5 3
-10 2 -10 -4z"/>
<path d="M662 740 c0 -14 2 -19 5 -12 2 6 2 18 0 25 -3 6 -5 1 -5 -13z"/>
<path d="M206 737 c3 -10 9 -15 12 -12 3 3 0 11 -7 18 -10 9 -11 8 -5 -6z"/>
<path d="M152 710 c0 -14 2 -19 5 -12 2 6 2 18 0 25 -3 6 -5 1 -5 -13z"/>
<path d="M247 716 c-3 -8 0 -17 8 -19 7 -3 12 0 11 8 -3 22 -13 27 -19 11z"/>
<path d="M356 715 c-3 -8 -1 -15 4 -15 6 0 10 7 10 15 0 8 -2 15 -4 15 -2 0
-6 -7 -10 -15z"/>
<path d="M183 688 c4 -13 -1 -18 -21 -21 -20 -3 -17 -4 12 -6 35 -1 37 0 25
17 -21 27 -23 28 -16 10z"/>
<path d="M105 670 c-19 -8 -19 -9 3 -9 12 -1 22 4 22 9 0 6 -1 10 -2 9 -2 0
-12 -4 -23 -9z"/>
<path d="M144 561 c0 -11 4 -17 8 -15 4 3 8 12 8 20 0 8 -4 14 -8 14 -4 0 -8
-9 -8 -19z"/>
<path d="M98 483 c12 -2 32 -2 45 0 12 2 2 4 -23 4 -25 0 -35 -2 -22 -4z"/>
<path d="M468 468 c-7 -4 19 -8 61 -8 41 0 71 3 67 7 -10 10 -113 11 -128 1z"/>
<path d="M800 810 c0 -5 5 -10 10 -10 6 0 10 5 10 10 0 6 -4 10 -10 10 -5 0
-10 -4 -10 -10z"/>
<path d="M843 813 c9 -2 25 -2 35 0 9 3 1 5 -18 5 -19 0 -27 -2 -17 -5z"/>
<path d="M900 811 c0 -13 46 -22 101 -19 38 2 44 5 33 15 -15 15 -34 17 -34 3
0 -5 -16 -10 -35 -10 -19 0 -35 5 -35 10 0 6 -7 10 -15 10 -8 0 -15 -4 -15 -9z"/>
<path d="M953 813 c9 -2 23 -2 30 0 6 3 -1 5 -18 5 -16 0 -22 -2 -12 -5z"/>
<path d="M1047 812 c7 -4 14 -37 16 -72 l3 -65 2 68 c2 50 6 67 16 67 8 0 17
-6 19 -12 3 -8 6 -6 6 5 1 13 -7 17 -36 17 -22 0 -33 -4 -26 -8z"/>
<path d="M1120 810 c0 -5 5 -12 12 -16 6 -4 8 -3 5 3 -5 8 21 11 78 11 54 0
83 -4 79 -10 -4 -6 2 -5 14 1 28 15 82 14 82 -1 0 -10 2 -10 8 -2 4 7 18 14
32 17 14 2 -50 5 -142 5 -93 1 -168 -3 -168 -8z"/>
<path d="M862 758 c-1 -25 -5 -55 -8 -65 -5 -17 -5 -17 6 0 6 9 9 39 7 65 l-3
47 -2 -47z"/>
<path d="M1150 789 c0 -5 5 -7 10 -4 6 3 10 8 10 11 0 2 -4 4 -10 4 -5 0 -10
-5 -10 -11z"/>
<path d="M1253 750 c0 -30 2 -43 4 -27 2 15 2 39 0 55 -2 15 -4 2 -4 -28z"/>
<path d="M1353 750 c0 -30 2 -43 4 -27 2 15 2 39 0 55 -2 15 -4 2 -4 -28z"/>
<path d="M1439 723 c0 -43 -2 -88 -3 -101 -2 -13 1 -25 5 -27 4 -3 8 42 8 100
1 58 -1 105 -4 105 -3 0 -5 -35 -6 -77z"/>
<path d="M959 778 c-6 -24 -7 -78 -1 -78 4 0 8 18 9 40 1 22 0 40 -3 40 -2 0
-4 -1 -5 -2z"/>
<path d="M1195 770 c-3 -5 -3 -14 0 -20 3 -5 2 -10 -4 -10 -14 0 -44 -59 -37
-75 7 -19 -16 -25 -71 -19 -34 4 -65 0 -106 -14 -32 -10 -60 -15 -63 -11 -3 5
-12 9 -19 9 -12 0 -11 -4 2 -20 22 -25 53 -25 86 0 l25 20 4 -30 c4 -24 1 -30
-14 -30 -10 0 -34 -16 -54 -35 -28 -28 -31 -35 -16 -35 10 0 24 11 30 25 6 14
16 25 21 25 14 0 23 -34 14 -56 -6 -17 -5 -17 10 -5 12 10 14 18 7 31 -14 25
-14 25 23 28 47 5 77 4 119 -4 l37 -6 -15 -30 c-12 -24 -21 -29 -44 -26 -16 1
-28 -2 -27 -7 4 -19 62 -5 80 20 26 35 34 31 39 -20 3 -45 3 -45 -29 -45 -18
0 -33 5 -33 10 0 6 -5 10 -11 10 -5 0 -7 -4 -4 -10 3 -6 -36 -11 -102 -13 -59
-1 -6 -4 120 -5 146 -1 227 2 227 8 0 6 15 11 33 11 31 2 32 2 3 6 -16 3 -33
0 -39 -6 -6 -6 -37 -11 -68 -11 -99 0 -112 38 -53 148 46 85 46 85 78 71 43
-20 44 0 2 39 -24 21 -41 31 -44 24 -2 -7 -8 -12 -14 -12 -6 0 -16 -8 -23 -17
-12 -16 -16 -16 -39 -3 -18 9 -25 19 -21 29 14 35 17 71 7 71 -6 0 -14 -4 -17
-10z m26 -113 c-12 -12 -45 -1 -37 12 3 5 15 7 27 4 13 -4 17 -9 10 -16z m52
-19 c-16 -24 -35 -55 -42 -70 -11 -21 -17 -25 -35 -18 -70 28 -84 31 -124 32
-37 0 -49 13 -31 34 7 9 20 12 33 8 34 -11 60 -11 74 0 8 5 28 9 46 8 21 -2
45 6 67 22 19 13 35 25 37 25 2 1 -10 -18 -25 -41z"/>
<path d="M1152 750 c0 -14 2 -19 5 -12 2 6 2 18 0 25 -3 6 -5 1 -5 -13z"/>
<path d="M1387 749 c7 -7 15 -10 18 -7 3 3 -2 9 -12 12 -14 6 -15 5 -6 -5z"/>
<path d="M995 740 c-3 -5 -1 -10 4 -10 6 0 11 5 11 10 0 6 -2 10 -4 10 -3 0
-8 -4 -11 -10z"/>
<path d="M863 663 c37 -2 96 -2 130 0 34 2 4 3 -68 3 -71 0 -99 -1 -62 -3z"/>
<path d="M1098 663 c6 -2 18 -2 25 0 6 3 1 5 -13 5 -14 0 -19 -2 -12 -5z"/>
<path d="M851 624 c0 -11 3 -14 6 -6 3 7 2 16 -1 19 -3 4 -6 -2 -5 -13z"/>
<path d="M1353 575 c0 -33 2 -45 4 -27 2 18 2 45 0 60 -2 15 -4 0 -4 -33z"/>
<path d="M850 533 c0 -55 -2 -61 -19 -56 -10 3 -22 0 -25 -6 -5 -8 33 -11 128
-11 134 0 136 0 136 23 0 13 -3 17 -8 10 -8 -13 -41 -17 -135 -15 l-68 2 2 50
c2 27 0 53 -4 56 -4 4 -7 -20 -7 -53z"/>
<path d="M820 571 c0 -6 4 -13 10 -16 6 -3 7 1 4 9 -7 18 -14 21 -14 7z"/>
<path d="M1410 549 c0 -5 5 -7 10 -4 6 3 10 8 10 11 0 2 -4 4 -10 4 -5 0 -10
-5 -10 -11z"/>
<path d="M1271 534 c-1 -13 6 -24 17 -26 11 -3 19 0 19 7 0 7 -6 11 -13 8 -7
-2 -14 4 -17 14 -4 15 -5 15 -6 -3z"/>
<path d="M820 520 c-9 -6 -10 -10 -3 -10 6 0 15 5 18 10 8 12 4 12 -15 0z"/>
<path d="M1190 469 c0 -5 5 -7 10 -4 6 3 10 8 10 11 0 2 -4 4 -10 4 -5 0 -10
-5 -10 -11z"/>
<path d="M1243 473 c8 -7 207 -7 215 1 3 3 -46 6 -108 6 -62 0 -110 -3 -107
-7z"/>
<path d="M804 438 c-6 -10 49 -9 131 2 56 7 54 8 -33 7 -51 -1 -96 -5 -98 -9z"/>
<path d="M1013 443 c9 -2 23 -2 30 0 6 3 -1 5 -18 5 -16 0 -22 -2 -12 -5z"/>
<path d="M900 420 c0 -5 7 -10 15 -10 8 0 15 5 15 10 0 6 -7 10 -15 10 -8 0
-15 -4 -15 -10z"/>
<path d="M1413 423 c9 -2 25 -2 35 0 9 3 1 5 -18 5 -19 0 -27 -2 -17 -5z"/>
<path d="M1538 813 c8 -3 12 -27 12 -69 0 -35 3 -64 8 -64 4 0 5 29 4 65 -3
54 -1 65 12 65 9 0 16 -4 16 -10 0 -5 13 -10 30 -10 l29 0 4 -72 3 -73 2 73 2
72 45 0 45 0 -1 -50 c-1 -28 1 -53 4 -57 4 -3 7 19 7 50 0 38 4 57 13 58 6 1
-4 5 -23 9 l-35 7 38 2 c20 0 37 -3 37 -9 0 -5 14 -10 30 -10 28 0 30 -2 32
-42 l1 -43 4 40 c3 22 10 43 16 47 7 4 -2 8 -20 8 -17 0 -34 4 -38 9 -3 6 -69
10 -148 10 -78 -1 -136 -3 -129 -6z m140 -10 c-10 -2 -28 -2 -40 0 -13 2 -5 4
17 4 22 1 32 -1 23 -4z"/>
<path d="M1882 806 c7 -7 19 -11 25 -9 21 8 15 18 -12 21 -21 1 -23 -1 -13
-12z"/>
<path d="M1938 813 c7 -3 16 -2 19 1 4 3 -2 6 -13 5 -11 0 -14 -3 -6 -6z"/>
<path d="M1985 811 c3 -5 -5 -12 -17 -14 -13 -3 -8 -4 11 -4 37 2 57 27 21 27
-12 0 -19 -4 -15 -9z"/>
<path d="M2038 813 c7 -3 16 -2 19 1 4 3 -2 6 -13 5 -11 0 -14 -3 -6 -6z"/>
<path d="M2082 806 c7 -7 19 -11 26 -8 11 4 11 6 0 13 -7 5 -19 9 -26 9 -10 0
-10 -3 0 -14z"/>
<path d="M2142 795 c0 -16 2 -22 5 -12 2 9 2 23 0 30 -3 6 -5 -1 -5 -18z"/>
<path d="M2037 792 c6 -4 13 -21 16 -37 4 -27 4 -27 6 8 1 29 -3 37 -16 37
-12 0 -14 -3 -6 -8z"/>
<path d="M1909 773 c-1 -5 -1 -11 0 -15 0 -5 -8 -17 -19 -28 -11 -11 -20 -33
-20 -49 0 -34 -12 -41 -58 -30 -22 5 -46 2 -69 -7 -19 -9 -45 -14 -57 -13 -11
0 -36 1 -54 0 -29 -1 -31 -3 -23 -20 6 -10 7 -21 4 -25 -14 -13 34 -5 75 14
42 19 42 19 42 0 0 -11 5 -20 11 -20 5 0 7 -4 4 -10 -3 -5 -16 -10 -27 -10
l-21 0 21 -23 c12 -13 22 -33 22 -45 0 -12 5 -22 10 -22 6 0 8 11 4 25 -6 25
-5 25 20 14 14 -7 26 -18 26 -26 0 -7 7 -13 15 -13 22 0 2 37 -25 45 -25 8
-26 21 0 35 14 7 33 7 66 -1 43 -11 46 -13 28 -26 -10 -8 -19 -17 -20 -21 0
-4 -9 -21 -20 -39 -18 -31 -21 -32 -99 -36 -44 -1 6 -3 110 -4 113 0 178 3
160 7 -20 6 -4 8 50 6 44 -2 89 0 100 5 11 4 -43 7 -125 7 -83 -1 -130 -5
-110 -9 30 -5 27 -7 -22 -8 -63 -1 -74 11 -38 44 17 16 23 16 62 3 25 -8 76
-13 123 -12 122 2 118 2 103 18 -7 8 -14 10 -16 5 -2 -5 -48 -9 -103 -9 l-99
0 0 30 c0 17 5 30 11 30 5 0 24 29 40 65 20 42 35 62 42 58 18 -11 57 -15 57
-5 0 15 -56 62 -74 62 -9 0 -27 -11 -39 -23 -39 -42 -77 -54 -77 -25 0 5 10 6
22 2 19 -6 21 -5 11 8 -9 10 -10 24 -3 49 6 18 10 37 10 41 0 10 -30 10 -31 1z
m82 -117 c-13 -14 -21 -28 -18 -33 3 -5 -8 -24 -23 -43 -26 -31 -31 -34 -49
-22 -12 6 -30 12 -40 12 -11 0 -22 4 -26 9 -5 9 -17 9 -53 -1 -8 -1 -19 5 -25
15 -17 25 8 39 53 32 23 -4 42 -1 55 9 14 10 25 11 38 4 13 -6 23 -6 33 3 8 6
14 8 14 4 0 -3 12 3 26 14 36 28 43 26 15 -3z m-231 -110 c0 -11 -19 -15 -25
-6 -3 5 1 10 9 10 9 0 16 -2 16 -4z m160 -41 c0 -9 -6 -12 -16 -8 -13 5 -13 7
-2 14 17 11 18 11 18 -6z"/>
<path d="M1781 751 c-8 -5 -9 -11 -3 -15 5 -3 12 1 16 9 6 17 6 18 -13 6z"/>
<path d="M1952 730 c0 -14 2 -19 5 -12 2 6 2 18 0 25 -3 6 -5 1 -5 -13z"/>
<path d="M1575 660 c4 -6 11 -8 16 -5 14 9 11 15 -7 15 -8 0 -12 -5 -9 -10z"/>
<path d="M1618 663 c7 -3 16 -2 19 1 4 3 -2 6 -13 5 -11 0 -14 -3 -6 -6z"/>
<path d="M2136 605 c-3 -8 -1 -15 4 -15 6 0 10 7 10 15 0 8 -2 15 -4 15 -2 0
-6 -7 -10 -15z"/>
<path d="M1540 606 c0 -2 7 -7 16 -10 8 -3 12 -2 9 4 -6 10 -25 14 -25 6z"/>
<path d="M1543 558 c-2 -18 0 -20 7 -8 12 18 13 30 2 30 -4 0 -9 -10 -9 -22z"/>
<path d="M1655 549 c-4 -6 -5 -12 -2 -15 2 -3 7 2 10 11 7 17 1 20 -8 4z"/>
<path d="M1535 470 c3 -5 10 -10 16 -10 5 0 9 5 9 10 0 6 -7 10 -16 10 -8 0
-12 -4 -9 -10z"/>
<path d="M1570 470 c0 -12 146 -7 157 4 4 3 -30 6 -75 6 -50 0 -82 -4 -82 -10z"/>
<path d="M1520 439 c0 -8 270 -1 280 8 2 2 -60 3 -138 2 -78 0 -142 -5 -142
-10z"/>
<path d="M1620 420 c0 -5 5 -10 10 -10 6 0 10 5 10 10 0 6 -4 10 -10 10 -5 0
-10 -4 -10 -10z"/>
<path d="M2362 785 c-2 -34 1 -41 17 -41 19 0 22 19 6 33 -4 4 -5 2 -1 -4 4
-7 3 -13 -3 -13 -5 0 -12 15 -14 33 -3 29 -4 29 -5 -8z"/>
<path d="M2396 808 c3 -4 9 -8 15 -8 5 0 9 4 9 8 0 5 -7 9 -15 9 -8 0 -12 -4
-9 -9z"/>
<path d="M2451 778 c2 -30 3 -35 6 -15 2 15 9 25 14 22 14 -9 11 5 -6 21 -13
14 -15 11 -14 -28z"/>
<path d="M2643 760 c0 -25 2 -35 4 -22 2 12 2 32 0 45 -2 12 -4 2 -4 -23z"/>
<path d="M2265 770 c-4 -12 -5 -24 -2 -27 3 -2 8 5 12 17 4 12 5 24 2 27 -3 2
-8 -5 -12 -17z"/>
<path d="M2520 779 c0 -5 5 -7 10 -4 6 3 10 8 10 11 0 2 -4 4 -10 4 -5 0 -10
-5 -10 -11z"/>
<path d="M2565 760 c4 -12 2 -20 -5 -20 -6 0 -10 -16 -8 -40 2 -47 -2 -53 -32
-42 -14 5 -40 5 -62 -1 -47 -12 -58 -41 -33 -89 10 -18 18 -55 19 -81 l1 -48
-110 4 c-66 3 -92 2 -65 -2 l45 -8 -44 -1 c-24 -1 -42 -5 -39 -8 9 -8 545 -3
603 6 42 6 33 8 -56 9 -102 1 -107 2 -113 24 -9 34 -7 63 6 94 6 15 12 33 13
38 10 61 19 96 26 101 5 3 9 1 9 -4 0 -5 10 -8 23 -7 34 3 26 23 -21 51 -23
14 -41 21 -40 17 2 -5 -8 -25 -22 -45 -25 -37 -55 -54 -66 -37 -3 5 4 9 15 9
12 0 21 5 21 10 0 6 -8 10 -19 10 -21 0 -35 38 -21 55 11 14 3 25 -17 25 -10
0 -12 -6 -8 -20z m101 -130 c-6 -27 -17 -55 -25 -62 -8 -7 -11 -8 -8 -3 3 6
-5 11 -16 11 -30 2 -62 11 -85 23 -14 7 -25 6 -41 -5 -12 -9 -23 -14 -24 -13
-1 2 -7 14 -14 26 -11 19 -10 23 6 28 10 3 33 3 51 0 23 -4 38 -1 53 12 14 13
21 15 24 6 7 -19 27 -16 54 7 35 28 37 25 25 -30z m-206 -74 c0 -18 -17 8 -24
34 l-7 25 15 -25 c9 -14 15 -29 16 -34z m118 0 l42 -11 -2 -57 -2 -57 -57 0
c-55 1 -58 2 -73 34 -19 40 -19 38 -1 81 12 29 19 35 32 29 10 -5 37 -13 61
-19z m75 -125 c-2 -3 -8 0 -14 6 -8 8 -9 27 -3 60 l8 48 6 -55 c4 -30 5 -57 3
-59z m-183 45 c0 -8 3 -23 6 -33 5 -13 4 -15 -5 -7 -15 14 -23 54 -10 54 5 0
9 -6 9 -14z"/>
<path d="M2500 469 c0 -5 20 -9 45 -9 25 0 45 4 45 10 0 5 -20 9 -45 8 -25 0
-45 -4 -45 -9z"/>
<path d="M2840 770 c-8 -5 -11 -12 -7 -16 4 -4 13 -2 19 4 15 15 7 24 -12 12z"/>
<path d="M2766 762 c-2 -4 -1 -14 5 -22 7 -12 9 -10 9 8 0 23 -5 28 -14 14z"/>
<path d="M2410 729 c0 -5 -4 -8 -8 -5 -5 3 -9 -1 -9 -8 0 -20 23 -15 24 6 1
10 0 18 -3 18 -2 0 -4 -5 -4 -11z"/>
<path d="M2362 700 c0 -19 2 -27 5 -17 2 9 2 25 0 35 -3 9 -5 1 -5 -18z"/>
<path d="M2452 705 c0 -16 2 -22 5 -12 2 9 2 23 0 30 -3 6 -5 -1 -5 -18z"/>
<path d="M2859 728 c-5 -18 -6 -38 -1 -34 7 8 12 36 6 36 -2 0 -4 -1 -5 -2z"/>
<path d="M2262 700 c0 -14 2 -19 5 -12 2 6 2 18 0 25 -3 6 -5 1 -5 -13z"/>
<path d="M2832 668 c2 -6 10 -13 16 -14 7 -1 8 0 2 3 -5 2 -8 9 -4 14 3 5 0 9
-6 9 -7 0 -10 -5 -8 -12z"/>
<path d="M2283 653 c26 -2 67 -2 90 0 23 2 2 3 -48 3 -49 0 -68 -1 -42 -3z"/>
<path d="M2794 642 c0 -10 8 -18 18 -18 22 0 22 3 4 22 -19 18 -22 18 -22 -4z"/>
<path d="M2730 609 c0 -5 5 -7 10 -4 6 3 10 8 10 11 0 2 -4 4 -10 4 -5 0 -10
-5 -10 -11z"/>
<path d="M2362 590 c0 -14 2 -19 5 -12 2 6 2 18 0 25 -3 6 -5 1 -5 -13z"/>
<path d="M2855 600 c-3 -5 -1 -10 4 -10 6 0 11 5 11 10 0 6 -2 10 -4 10 -3 0
-8 -4 -11 -10z"/>
<path d="M2262 565 c0 -16 2 -22 5 -12 2 9 2 23 0 30 -3 6 -5 -1 -5 -18z"/>
<path d="M2261 508 c-1 -19 -7 -28 -18 -28 -9 0 -14 -3 -11 -6 8 -7 188 -8
195 0 4 3 -30 6 -75 6 -80 0 -81 0 -85 28 l-4 27 -2 -27z"/>
<path d="M2700 470 c-10 -7 18 -10 84 -10 55 0 97 3 93 6 -11 11 -161 14 -177
4z"/>
<path d="M0 1770 c0 -5 5 -10 10 -10 6 0 10 5 10 10 0 6 -4 10 -10 10 -5 0
-10 -4 -10 -10z"/>
<path d="M0 1701 c0 -25 6 -27 13 -6 4 8 2 17 -3 20 -6 4 -10 -3 -10 -14z"/>
<path d="M2991 1424 c0 -11 3 -14 6 -6 3 7 2 16 -1 19 -3 4 -6 -2 -5 -13z"/>
<path d="M2991 994 c0 -11 3 -14 6 -6 3 7 2 16 -1 19 -3 4 -6 -2 -5 -13z"/>
<path d="M2985 850 c3 -5 8 -10 11 -10 2 0 4 5 4 10 0 6 -5 10 -11 10 -5 0 -7
-4 -4 -10z"/>
<path d="M2977 714 c-8 -8 1 -24 14 -24 5 0 9 7 9 15 0 15 -12 20 -23 9z"/>
<path d="M2980 570 c0 -5 5 -10 10 -10 6 0 10 5 10 10 0 6 -4 10 -10 10 -5 0
-10 -4 -10 -10z"/>
<path d="M2991 524 c0 -11 3 -14 6 -6 3 7 2 16 -1 19 -3 4 -6 -2 -5 -13z"/>
<path d="M2991 414 c0 -11 3 -14 6 -6 3 7 2 16 -1 19 -3 4 -6 -2 -5 -13z"/>
<path d="M85 339 c-11 -17 -3 -19 79 -22 50 -2 75 1 73 7 -2 7 -33 11 -75 10
-39 0 -69 3 -66 8 3 4 3 8 0 8 -3 0 -8 -5 -11 -11z"/>
<path d="M523 336 c0 -7 16 -13 39 -15 34 -2 38 0 26 13 -7 8 -14 10 -16 6 -2
-5 -14 -5 -26 0 -16 6 -23 5 -23 -4z"/>
<path d="M0 325 c0 -8 4 -15 10 -15 5 0 7 7 4 15 -4 8 -8 15 -10 15 -2 0 -4
-7 -4 -15z"/>
<path d="M254 329 c-4 -7 4 -10 22 -7 22 2 30 -2 32 -16 2 -10 -2 -23 -9 -30
-9 -8 -11 -7 -7 4 4 11 -1 16 -13 17 -10 1 -19 -2 -19 -8 0 -5 -7 -9 -16 -9
-8 0 -13 -4 -10 -9 12 -19 17 -101 6 -101 -6 0 -8 5 -4 12 4 7 3 8 -4 4 -8 -5
-12 1 -12 14 0 12 -4 19 -9 16 -13 -8 -2 -44 16 -50 21 -9 33 2 33 29 0 22 55
87 83 98 7 3 6 6 -4 6 -9 1 -19 10 -22 21 -6 22 -51 28 -63 9z m32 -60 c7 -12
-15 -31 -28 -23 -9 6 1 34 12 34 5 0 12 -5 16 -11z"/>
<path d="M330 335 c0 -2 14 -18 30 -35 17 -17 30 -27 30 -22 0 5 -7 15 -15 22
-9 7 -14 18 -12 25 3 6 -4 12 -14 12 -10 1 -19 0 -19 -2z"/>
<path d="M380 330 c0 -5 5 -10 10 -10 6 0 10 5 10 10 0 6 -4 10 -10 10 -5 0
-10 -4 -10 -10z"/>
<path d="M410 330 c0 -5 5 -10 10 -10 6 0 10 5 10 10 0 6 -4 10 -10 10 -5 0
-10 -4 -10 -10z"/>
<path d="M460 330 c0 -5 11 -10 25 -10 14 0 25 5 25 10 0 6 -11 10 -25 10 -14
0 -25 -4 -25 -10z"/>
<path d="M2080 330 c0 -5 5 -10 10 -10 6 0 10 5 10 10 0 6 -4 10 -10 10 -5 0
-10 -4 -10 -10z"/>
<path d="M2115 330 c-3 -5 3 -10 14 -10 12 0 21 5 21 10 0 6 -6 10 -14 10 -8
0 -18 -4 -21 -10z"/>
<path d="M2180 330 c0 -5 5 -10 11 -10 5 0 7 5 4 10 -3 6 -8 10 -11 10 -2 0
-4 -4 -4 -10z"/>
<path d="M2210 330 c0 -5 5 -10 11 -10 5 0 7 5 4 10 -3 6 -8 10 -11 10 -2 0
-4 -4 -4 -10z"/>
<path d="M2248 329 c10 -10 112 -17 112 -8 0 4 -4 11 -10 14 -5 3 -10 0 -10
-7 0 -8 -3 -9 -8 -3 -4 6 -26 10 -49 10 -24 1 -39 -2 -35 -6z"/>
<path d="M2370 329 c0 -4 9 -9 20 -12 13 -3 20 0 20 8 0 8 -9 13 -20 12 -11
-1 -20 -4 -20 -8z"/>
<path d="M2430 329 c0 -5 11 -9 25 -9 33 0 33 15 0 16 -14 1 -25 -2 -25 -7z"/>
<path d="M2490 329 c0 -4 5 -11 10 -14 6 -3 10 -3 10 2 0 12 74 10 82 -2 4 -6
8 -2 8 8 0 15 -8 18 -55 16 -30 -1 -55 -6 -55 -10z"/>
<path d="M2620 329 c0 -5 12 -9 27 -9 30 0 27 9 -6 15 -11 2 -21 0 -21 -6z"/>
<path d="M2680 328 c0 -4 14 -8 32 -8 17 0 28 3 25 7 -10 9 -57 10 -57 1z"/>
<path d="M2775 329 c7 -11 35 -12 35 -1 0 4 -9 8 -20 9 -11 1 -18 -2 -15 -8z"/>
<path d="M2860 330 c0 -5 9 -10 21 -10 11 0 17 5 14 10 -3 6 -13 10 -21 10 -8
0 -14 -4 -14 -10z"/>
<path d="M1664 293 c-3 -21 -13 -49 -22 -63 -14 -23 -14 -24 1 -11 15 12 17
11 17 -7 0 -12 5 -24 10 -27 7 -4 10 20 8 69 -1 42 -3 76 -4 76 -2 0 -6 -17
-10 -37z"/>
<path d="M50 316 c0 -2 7 -7 16 -10 8 -3 12 -2 9 4 -6 10 -25 14 -25 6z"/>
<path d="M1375 310 c-3 -6 1 -7 9 -4 18 7 21 14 7 14 -6 0 -13 -4 -16 -10z"/>
<path d="M2525 302 c-12 -8 -13 -28 -2 -36 4 -3 5 -3 2 0 -2 4 0 15 6 25 11
21 9 23 -6 11z"/>
<path d="M2633 293 c-18 -9 -33 -21 -33 -26 0 -13 30 -40 37 -33 4 3 -2 13
-13 20 -18 14 -16 16 26 35 25 11 38 20 30 20 -8 0 -30 -8 -47 -16z"/>
<path d="M2946 297 c-17 -12 -17 -14 1 -27 10 -8 15 -11 11 -6 -4 5 -3 17 3
27 12 22 9 23 -15 6z"/>
<path d="M1044 288 c-5 -7 -3 -8 6 -3 9 6 11 -2 8 -33 -2 -22 0 -38 4 -36 5 3
8 20 8 39 0 18 6 36 13 38 6 3 2 6 -10 6 -12 1 -25 -4 -29 -11z"/>
<path d="M1245 279 c2 -11 0 -31 -5 -45 -5 -13 -6 -24 -2 -24 11 0 28 52 24
73 -2 9 -7 17 -12 17 -5 0 -7 -9 -5 -21z"/>
<path d="M1688 295 c-7 -7 3 -55 11 -55 4 0 6 14 3 30 -4 32 -5 33 -14 25z"/>
<path d="M1968 293 c7 -3 16 -2 19 1 4 3 -2 6 -13 5 -11 0 -14 -3 -6 -6z"/>
<path d="M2490 276 c0 -8 4 -17 9 -20 5 -4 7 3 4 14 -6 23 -13 26 -13 6z"/>
<path d="M2561 280 c0 -8 4 -22 9 -30 12 -18 12 -2 0 25 -6 13 -9 15 -9 5z"/>
<path d="M2663 283 c-15 -6 -17 -29 -3 -38 6 -4 7 1 3 11 -4 10 -2 15 4 11 5
-3 10 0 10 8 0 8 -1 15 -1 14 -1 0 -7 -3 -13 -6z"/>
<path d="M2740 270 c6 -11 13 -20 16 -20 2 0 0 9 -6 20 -6 11 -13 20 -16 20
-2 0 0 -9 6 -20z"/>
<path d="M168 273 c6 -2 18 -2 25 0 6 3 1 5 -13 5 -14 0 -19 -2 -12 -5z"/>
<path d="M1100 265 c0 -6 7 -12 15 -12 8 0 15 6 15 12 0 6 -7 12 -15 12 -8 0
-15 -6 -15 -12z"/>
<path d="M1150 265 c0 -8 9 -15 20 -15 13 0 18 5 14 15 -4 8 -12 15 -20 15 -8
0 -14 -7 -14 -15z"/>
<path d="M1306 271 c-3 -5 1 -14 8 -20 16 -13 32 2 21 19 -8 12 -22 13 -29 1z
m24 -11 c0 -5 -2 -10 -4 -10 -3 0 -8 5 -11 10 -3 6 -1 10 4 10 6 0 11 -4 11
-10z"/>
<path d="M1360 266 c0 -9 7 -16 16 -16 17 0 14 22 -4 28 -7 2 -12 -3 -12 -12z"/>
<path d="M1404 269 c-3 -6 -1 -16 5 -22 6 -6 11 -9 12 -6 0 2 2 12 4 22 4 19
-10 23 -21 6z"/>
<path d="M1440 266 c0 -18 16 -29 30 -21 13 8 1 35 -16 35 -8 0 -14 -6 -14
-14z"/>
<path d="M1532 260 c0 -14 2 -19 5 -12 2 6 2 18 0 25 -3 6 -5 1 -5 -13z"/>
<path d="M1561 256 c0 -12 3 -15 6 -8 2 6 9 10 14 6 5 -3 9 1 9 9 0 7 -7 14
-15 14 -9 0 -15 -9 -14 -21z"/>
<path d="M1725 270 c-8 -13 4 -32 16 -25 12 8 12 35 0 35 -6 0 -13 -4 -16 -10z"/>
<path d="M1767 273 c9 -3 10 -10 3 -24 -8 -15 -7 -17 5 -13 21 9 19 44 -2 43
-11 0 -13 -3 -6 -6z"/>
<path d="M1812 260 c0 -14 2 -19 5 -12 2 6 2 18 0 25 -3 6 -5 1 -5 -13z"/>
<path d="M1845 270 c-8 -13 4 -32 16 -25 12 8 12 35 0 35 -6 0 -13 -4 -16 -10z"/>
<path d="M1890 259 c0 -12 5 -16 15 -13 8 4 15 12 15 18 0 7 -7 13 -15 13 -8
0 -15 -8 -15 -18z"/>
<path d="M421 254 c0 -11 3 -14 6 -6 3 7 2 16 -1 19 -3 4 -6 -2 -5 -13z"/>
<path d="M2385 249 c-4 -6 -5 -12 -2 -15 2 -3 7 2 10 11 7 17 1 20 -8 4z"/>
<path d="M2410 245 c-15 -18 0 -20 19 -2 11 10 13 9 8 -6 -4 -11 -3 -16 3 -12
15 9 12 35 -4 35 -7 0 -19 -7 -26 -15z"/>
<path d="M2460 250 c0 -5 5 -10 11 -10 5 0 7 5 4 10 -3 6 -8 10 -11 10 -2 0
-4 -4 -4 -10z"/>
<path d="M2530 250 c-8 -5 -12 -12 -9 -15 4 -3 12 1 19 10 14 17 11 19 -10 5z"/>
<path d="M2695 251 c-3 -5 -2 -12 3 -15 5 -3 9 1 9 9 0 17 -3 19 -12 6z"/>
<path d="M2776 248 c3 -4 0 -8 -7 -8 -7 0 -9 -3 -6 -7 4 -3 2 -12 -3 -18 -8
-9 -6 -14 4 -18 9 -4 18 -1 22 5 4 7 3 8 -4 4 -16 -10 -15 5 2 30 13 17 13 21
1 21 -8 0 -12 -4 -9 -9z"/>
<path d="M320 241 c0 -6 4 -13 10 -16 6 -3 7 1 4 9 -7 18 -14 21 -14 7z"/>
<path d="M361 222 c-4 -9 -5 -26 0 -37 6 -16 8 -14 8 12 1 25 5 31 16 27 8 -4
15 -4 15 -1 0 14 -31 14 -39 -1z"/>
<path d="M420 220 c-9 -6 -10 -10 -3 -10 6 0 15 5 18 10 8 12 4 12 -15 0z"/>
<path d="M2580 220 c0 -5 5 -10 11 -10 5 0 7 5 4 10 -3 6 -8 10 -11 10 -2 0
-4 -4 -4 -10z"/>
<path d="M486 212 c-3 -5 1 -9 9 -9 8 0 12 4 9 9 -3 4 -7 8 -9 8 -2 0 -6 -4
-9 -8z"/>
<path d="M2418 208 c5 -5 16 -8 23 -6 8 3 3 7 -10 11 -17 4 -21 3 -13 -5z"/>
<path d="M2659 211 c11 -7 11 -9 0 -14 -8 -3 -9 -6 -3 -6 6 -1 16 5 22 12 8
10 6 13 -11 14 -15 2 -18 0 -8 -6z"/>
<path d="M300 200 c-13 -8 -12 -10 4 -10 12 0 16 -5 13 -15 -9 -21 9 -27 24
-8 8 9 9 14 3 10 -7 -4 -14 0 -17 7 -3 8 -1 17 6 20 8 3 6 5 -3 5 -8 0 -22 -4
-30 -9z"/>
<path d="M2848 203 c7 -3 16 -2 19 1 4 3 -2 6 -13 5 -11 0 -14 -3 -6 -6z"/>
<path d="M182 180 c14 -22 24 -19 15 5 -4 8 -11 15 -17 15 -6 0 -6 -7 2 -20z"/>
<path d="M397 180 c-3 -11 -1 -20 4 -20 5 0 9 9 9 20 0 11 -2 20 -4 20 -2 0
-6 -9 -9 -20z"/>
<path d="M1410 189 c0 -5 29 -9 65 -9 36 0 65 4 65 8 0 4 -29 8 -65 9 -36 1
-65 -3 -65 -8z"/>
<path d="M1550 190 c0 -5 7 -10 15 -10 8 0 15 5 15 10 0 6 -7 10 -15 10 -8 0
-15 -4 -15 -10z"/>
<path d="M53 179 c9 -6 15 -14 12 -18 -2 -5 1 -9 8 -8 47 1 87 -5 87 -14 0 -6
-9 -8 -20 -4 -12 4 -20 2 -20 -5 0 -6 5 -8 10 -5 6 3 10 0 10 -7 1 -14 40 28
40 42 0 4 -16 6 -35 3 -21 -3 -48 2 -66 11 -36 18 -54 21 -26 5z"/>
<path d="M2402 178 c-7 -7 -12 -15 -12 -20 0 -4 74 -7 165 -7 91 1 163 5 160
9 -2 4 -75 7 -160 6 -128 -1 -153 1 -138 11 9 7 12 13 7 13 -6 0 -15 -5 -22
-12z"/>
<path d="M2730 173 c0 -10 4 -14 8 -8 4 6 11 13 16 18 5 4 2 7 -7 7 -10 0 -17
-8 -17 -17z"/>
<path d="M1726 168 c3 -5 10 -6 15 -3 13 9 11 12 -6 12 -8 0 -12 -4 -9 -9z"/>
<path d="M1320 155 c0 -6 7 -12 15 -12 8 0 15 6 15 12 0 6 -7 12 -15 12 -8 0
-15 -6 -15 -12z"/>
<path d="M1371 158 c-1 -10 6 -18 14 -18 8 0 15 8 15 18 0 13 -2 14 -9 3 -7
-11 -9 -11 -14 0 -4 10 -6 9 -6 -3z"/>
<path d="M1417 153 c3 -7 6 -13 8 -13 2 0 5 6 8 13 3 8 -1 14 -8 14 -7 0 -11
-6 -8 -14z"/>
<path d="M1450 155 c0 -8 7 -15 15 -15 8 0 15 7 15 15 0 8 -7 15 -15 15 -8 0
-15 -7 -15 -15z"/>
<path d="M1490 155 c0 -6 7 -12 15 -12 8 0 15 6 15 12 0 6 -7 12 -15 12 -8 0
-15 -6 -15 -12z"/>
<path d="M1531 154 c0 -11 3 -14 6 -6 3 7 2 16 -1 19 -3 4 -6 -2 -5 -13z"/>
<path d="M1560 155 c0 -6 14 -12 30 -12 17 0 30 6 30 12 0 6 -13 12 -30 12
-16 0 -30 -6 -30 -12z"/>
<path d="M1633 155 c0 -8 6 -15 12 -15 6 0 12 7 12 15 0 8 -6 15 -12 15 -6 0
-12 -7 -12 -15z"/>
<path d="M2215 159 c-3 -4 33 -7 80 -7 47 0 85 4 85 9 0 10 -159 9 -165 -2z"/>
<path d="M2760 158 c0 -4 4 -8 9 -8 6 0 12 4 15 8 3 5 -1 9 -9 9 -8 0 -15 -4
-15 -9z"/>
<path d="M263 123 c9 -2 17 -9 17 -14 0 -15 17 -10 24 6 4 12 -2 15 -27 14
-18 -1 -24 -3 -14 -6z"/>
<path d="M317 124 c-15 -15 -6 -24 22 -24 16 0 32 6 34 13 4 10 6 10 6 0 1
-18 41 -16 41 2 0 8 -5 15 -11 15 -5 0 -7 -6 -3 -12 6 -10 4 -10 -7 -2 -8 6
-25 11 -39 12 -19 1 -21 -1 -10 -8 13 -8 13 -10 -2 -10 -9 0 -18 5 -20 11 -2
5 -7 7 -11 3z"/>
<path d="M430 115 c0 -8 5 -15 10 -15 6 0 10 7 10 15 0 8 -4 15 -10 15 -5 0
-10 -7 -10 -15z"/>
<path d="M477 124 c-8 -8 1 -24 14 -24 5 0 9 7 9 15 0 15 -12 20 -23 9z"/>
<path d="M517 124 c-13 -14 -7 -20 23 -22 21 -2 30 2 30 13 0 8 -7 15 -16 15
-8 0 -12 -4 -9 -10 3 -5 2 -10 -4 -10 -5 0 -11 5 -13 11 -2 5 -7 7 -11 3z"/>
<path d="M580 115 c0 -8 5 -15 10 -15 6 0 10 7 10 15 0 8 -4 15 -10 15 -5 0
-10 -7 -10 -15z"/>
<path d="M610 115 c0 -13 4 -14 21 -4 15 8 19 8 15 0 -4 -6 0 -11 8 -11 9 0
16 7 16 15 0 10 -10 15 -30 15 -20 0 -30 -5 -30 -15z"/>
<path d="M680 115 c0 -9 9 -15 21 -15 18 0 19 2 5 15 -8 8 -17 15 -20 15 -3 0
-6 -7 -6 -15z"/>
<path d="M750 115 c0 -5 16 -11 35 -11 45 -2 45 13 0 18 -20 2 -35 0 -35 -7z"/>
<path d="M848 123 c-24 -6 -23 -18 2 -20 11 -1 20 4 20 13 0 8 -1 13 -2 13 -2
-1 -11 -3 -20 -6z"/>
<path d="M890 116 c0 -9 8 -16 20 -16 11 0 20 5 20 12 0 6 -3 8 -7 5 -3 -4
-12 -2 -20 4 -10 9 -13 8 -13 -5z"/>
<path d="M953 115 c0 -8 6 -15 13 -15 8 0 11 6 8 15 -4 8 -9 15 -13 15 -4 0
-8 -7 -8 -15z"/>
<path d="M990 115 c0 -8 5 -15 10 -15 6 0 10 6 10 13 0 9 2 9 9 -1 11 -17 91
-13 91 5 0 7 -7 13 -16 13 -8 0 -12 -4 -9 -10 3 -5 1 -10 -4 -10 -6 0 -11 5
-11 10 0 7 -7 7 -21 -1 -15 -8 -19 -8 -15 0 5 7 -2 11 -18 11 -16 0 -26 -6
-26 -15z"/>
<path d="M1120 115 c0 -9 5 -15 11 -13 6 2 11 8 11 13 0 5 -5 11 -11 13 -6 2
-11 -4 -11 -13z"/>
<path d="M1170 113 c0 -16 16 -17 26 -2 5 8 9 8 14 -1 5 -8 9 -8 13 3 4 12 -1
15 -24 15 -17 -1 -29 -6 -29 -15z"/>
<path d="M1237 117 c-5 -14 -1 -17 23 -17 20 0 30 5 30 15 0 8 -7 15 -16 15
-8 0 -12 -4 -9 -10 3 -5 2 -10 -4 -10 -5 0 -11 5 -13 12 -3 7 -7 6 -11 -5z"/>
<path d="M1300 114 c0 -14 3 -14 15 -4 10 9 15 9 15 1 0 -6 4 -11 8 -11 5 0 9
7 9 15 0 9 -10 15 -24 15 -15 0 -23 -6 -23 -16z"/>
<path d="M1355 120 c-3 -5 -5 -10 -3 -11 2 0 18 -3 36 -5 24 -4 32 -1 32 10 0
19 -16 21 -23 4 -4 -10 -6 -10 -6 0 -1 14 -27 16 -36 2z"/>
<path d="M1723 115 c0 -9 9 -14 24 -13 13 1 23 9 23 16 0 12 -3 12 -15 2 -10
-9 -15 -9 -15 -1 0 6 -4 11 -8 11 -5 0 -9 -7 -9 -15z"/>
<path d="M1783 115 c0 -8 4 -15 9 -15 4 0 8 7 8 15 0 8 -4 15 -8 15 -5 0 -9
-7 -9 -15z"/>
<path d="M1848 122 c-39 -5 -35 -17 7 -20 19 -2 35 2 35 7 0 14 -11 17 -42 13z"/>
<path d="M2000 118 c0 -13 8 -18 30 -18 34 0 40 15 10 23 -11 3 -20 0 -20 -6
0 -7 -5 -5 -10 3 -8 13 -10 12 -10 -2z"/>
<path d="M2083 114 c0 -8 4 -14 9 -14 4 0 8 6 8 13 0 9 2 9 8 -1 9 -14 45 -12
50 3 1 5 -15 10 -36 11 -28 2 -39 -2 -39 -12z"/>
<path d="M2197 124 c-13 -13 -7 -24 12 -24 21 0 37 17 26 28 -3 3 -10 0 -14
-7 -6 -10 -10 -10 -12 -2 -3 7 -8 9 -12 5z"/>
<path d="M2250 116 c0 -9 5 -16 10 -16 6 0 10 4 10 9 0 6 -4 13 -10 16 -5 3
-10 -1 -10 -9z"/>
<path d="M2286 116 c3 -9 11 -16 16 -16 13 0 5 23 -10 28 -7 2 -10 -2 -6 -12z"/>
<path d="M2343 123 c-37 -7 -26 -21 17 -21 35 -1 38 1 26 14 -8 8 -16 13 -18
13 -2 -1 -13 -4 -25 -6z"/>
<path d="M2421 114 c0 -11 3 -14 6 -6 3 7 2 16 -1 19 -3 4 -6 -2 -5 -13z"/>
<path d="M2440 117 c0 -8 7 -14 15 -14 8 0 15 6 15 14 0 7 -7 13 -15 13 -8 0
-15 -6 -15 -13z"/>
<path d="M2480 116 c0 -9 5 -16 10 -16 6 0 10 4 10 9 0 6 -4 13 -10 16 -5 3
-10 -1 -10 -9z"/>
<path d="M2520 115 c0 -8 2 -15 4 -15 2 0 6 7 10 15 3 8 1 15 -4 15 -6 0 -10
-7 -10 -15z"/>
<path d="M2545 122 c-13 -13 -2 -19 35 -18 25 1 36 4 29 11 -10 10 -56 15 -64
7z"/>
<path d="M2640 116 c0 -15 41 -16 52 -1 5 6 8 5 8 -2 0 -7 7 -13 15 -13 9 0
12 6 9 15 -8 20 -84 21 -84 1z"/>
<path d="M1460 112 c0 -5 23 -9 50 -11 28 -1 50 2 50 7 0 5 -22 10 -50 11 -27
0 -50 -3 -50 -7z"/>
<path d="M1570 111 c0 -5 9 -11 20 -14 13 -3 20 0 20 9 0 8 -9 14 -20 14 -11
0 -20 -4 -20 -9z"/>
<path d="M1630 110 c0 -5 7 -10 15 -10 8 0 15 5 15 10 0 6 -7 10 -15 10 -8 0
-15 -4 -15 -10z"/>
<path d="M1675 99 c-5 -15 -14 -19 -32 -17 -15 2 -28 -2 -30 -8 -2 -7 8 -9 27
-6 29 4 30 3 30 -32 0 -20 5 -36 10 -36 6 0 10 5 10 10 0 6 19 10 42 10 51 0
45 10 -8 13 -36 2 -39 4 -40 35 -1 17 2 32 7 32 5 0 9 5 9 10 0 18 -19 10 -25
-11z"/>
<path d="M1904 113 c11 -11 75 -13 81 -3 4 6 -13 10 -41 10 -26 0 -44 -3 -40
-7z"/>
<path d="M2860 105 c0 -8 2 -15 4 -15 2 0 6 7 10 15 3 8 1 15 -4 15 -6 0 -10
-7 -10 -15z"/>
<path d="M115 100 c-8 -13 3 -30 18 -30 8 0 7 3 -2 9 -7 5 -10 14 -7 20 4 6 5
11 2 11 -3 0 -8 -4 -11 -10z"/>
<path d="M2750 90 c0 -5 5 -10 11 -10 5 0 7 5 4 10 -3 6 -8 10 -11 10 -2 0 -4
-4 -4 -10z"/>
<path d="M176 82 c-3 -5 1 -9 9 -9 8 0 15 4 15 9 0 10 -17 10 -24 0z"/>
<path d="M243 74 c-5 -13 -7 -13 -14 -2 -6 9 -9 9 -9 1 0 -22 19 -24 30 -3 6
11 8 20 5 20 -3 0 -8 -7 -12 -16z"/>
<path d="M365 80 c3 -5 16 -10 28 -10 18 0 19 2 7 10 -20 13 -43 13 -35 0z"/>
<path d="M450 81 c-24 -2 -30 -5 -18 -10 21 -8 138 -2 138 7 0 8 -64 9 -120 3z"/>
<path d="M580 78 c0 -4 14 -8 30 -8 17 0 30 2 30 4 0 2 -13 6 -30 8 -16 3 -30
1 -30 -4z"/>
<path d="M653 78 c-2 -5 11 -8 30 -8 31 0 34 -2 30 -24 -5 -22 -2 -24 44 -27
62 -5 133 0 133 9 0 4 -39 6 -87 4 -74 -3 -85 -1 -75 11 7 7 8 17 4 21 -4 5 2
7 13 6 32 -4 59 0 52 6 -8 9 -138 10 -144 2z"/>
<path d="M865 80 l-60 -7 68 -1 c43 -1 66 2 62 8 -3 6 -7 9 -8 8 -1 -1 -29 -4
-62 -8z"/>
<path d="M955 80 c-3 -5 -1 -10 4 -10 6 0 11 5 11 10 0 6 -2 10 -4 10 -3 0 -8
-4 -11 -10z"/>
<path d="M980 78 c0 -5 32 -8 70 -8 39 0 70 3 70 8 0 4 -31 7 -70 7 -38 0 -70
-3 -70 -7z"/>
<path d="M1400 80 c-9 -6 -10 -10 -3 -10 6 0 15 5 18 10 8 12 4 12 -15 0z"/>
<path d="M1430 78 c0 -5 23 -8 50 -8 36 0 52 -4 56 -15 6 -15 65 -22 63 -7 -2
27 -15 39 -34 31 -19 -7 -19 -8 0 -8 14 -1 16 -4 7 -13 -9 -9 -16 -8 -29 4
-18 16 -113 29 -113 16z"/>
<path d="M1820 78 c0 -4 12 -8 26 -8 14 0 23 4 19 9 -6 11 -45 10 -45 -1z"/>
<path d="M1921 83 c-35 -5 -69 -29 -56 -41 3 -4 11 1 16 11 7 11 22 17 44 17
19 0 35 5 35 10 0 6 -1 9 -2 8 -2 0 -18 -3 -37 -5z"/>
<path d="M2025 80 l-40 -7 43 -2 c23 0 42 4 42 9 0 6 -1 9 -2 9 -2 -1 -21 -5
-43 -9z"/>
<path d="M2085 80 c-3 -5 -1 -10 4 -10 6 0 11 5 11 10 0 6 -2 10 -4 10 -3 0
-8 -4 -11 -10z"/>
<path d="M2110 80 c0 -5 12 -10 28 -9 24 0 25 1 7 9 -27 12 -35 12 -35 0z"/>
<path d="M2190 80 c0 -5 7 -10 16 -10 8 0 12 5 9 10 -3 6 -10 10 -16 10 -5 0
-9 -4 -9 -10z"/>
<path d="M2250 78 c0 -4 23 -8 52 -8 28 0 48 3 45 7 -10 9 -97 11 -97 1z"/>
<path d="M2364 78 c-3 -4 27 -8 67 -8 40 0 69 3 66 7 -10 9 -128 10 -133 1z"/>
<path d="M2510 76 c0 -7 21 -10 56 -8 67 5 64 13 -5 16 -31 2 -51 -2 -51 -8z"/>
<path d="M273 72 c-9 -6 -7 -11 5 -19 14 -8 24 -7 43 4 17 10 18 13 4 8 -34
-11 -40 -10 -37 3 2 14 1 14 -15 4z"/>
<path d="M1132 74 c8 -7 149 -7 156 1 3 3 -32 5 -78 5 -46 0 -81 -3 -78 -6z"/>
<path d="M1308 73 c7 -3 16 -2 19 1 4 3 -2 6 -13 5 -11 0 -14 -3 -6 -6z"/>
<path d="M1348 73 c6 -2 18 -2 25 0 6 3 1 5 -13 5 -14 0 -19 -2 -12 -5z"/>
<path d="M1762 73 c27 -3 35 -8 31 -19 -4 -10 3 -14 27 -14 18 0 29 4 25 10
-3 6 -13 10 -21 10 -8 0 -14 5 -14 10 0 6 -19 9 -42 8 l-43 -1 37 -4z"/>
<path d="M2640 71 c0 -10 19 -25 25 -20 1 2 -3 10 -11 17 -8 7 -14 8 -14 3z"/>
<path d="M2835 60 c-3 -6 1 -7 9 -4 18 7 21 14 7 14 -6 0 -13 -4 -16 -10z"/>
<path d="M203 45 c0 -8 4 -15 9 -15 4 0 8 4 8 9 0 6 -4 12 -8 15 -5 3 -9 -1
-9 -9z"/>
<path d="M560 51 c0 -7 23 -11 55 -11 72 0 72 16 0 19 -33 1 -55 -2 -55 -8z"/>
<path d="M680 50 c0 -5 5 -10 10 -10 6 0 10 5 10 10 0 6 -4 10 -10 10 -5 0
-10 -4 -10 -10z"/>
<path d="M770 53 c0 -5 36 -8 80 -8 44 0 80 3 80 8 0 4 -36 7 -80 7 -44 0 -80
-3 -80 -7z"/>
<path d="M943 53 c9 -8 77 -11 77 -3 0 5 -18 8 -40 8 -23 0 -39 -2 -37 -5z"/>
<path d="M1033 40 c2 -26 17 -26 17 0 0 11 -4 20 -9 20 -6 0 -9 -9 -8 -20z"/>
<path d="M1061 43 c-1 -18 4 -23 22 -22 15 1 17 3 5 6 -9 2 -19 12 -21 21 -3
12 -5 10 -6 -5z"/>
<path d="M1088 51 c8 -4 24 -7 38 -5 30 3 32 -13 2 -19 -13 -2 -3 -5 22 -5 34
0 40 2 25 8 -11 5 -15 9 -10 9 25 3 -24 21 -55 21 -23 0 -30 -3 -22 -9z"/>
<path d="M1180 48 c0 -5 15 -8 33 -9 30 -1 31 -1 7 -9 -24 -8 -24 -8 5 -9 24
-1 31 3 31 17 0 15 -8 19 -38 18 -21 0 -38 -4 -38 -8z"/>
<path d="M1290 37 c1 -19 2 -19 10 -6 6 11 18 15 35 11 14 -2 25 0 25 5 0 5
-16 10 -35 11 -30 1 -35 -2 -35 -21z"/>
<path d="M1380 52 c0 -5 14 -9 30 -10 17 0 28 4 25 9 -8 11 -55 12 -55 1z"/>
<path d="M1460 50 c-13 -8 -12 -10 3 -10 9 0 17 5 17 10 0 12 -1 12 -20 0z"/>
<path d="M1486 45 c-4 -11 -22 -15 -71 -15 -36 0 -65 -4 -65 -8 0 -12 134 -2
138 9 2 5 10 9 18 9 9 0 12 5 9 10 -9 15 -22 12 -29 -5z"/>
<path d="M1635 50 c3 -5 10 -10 16 -10 5 0 9 5 9 10 0 6 -7 10 -16 10 -8 0
-12 -4 -9 -10z"/>
<path d="M1720 50 c8 -5 25 -10 37 -10 12 0 23 -6 25 -13 2 -9 11 -11 28 -6
24 7 24 7 2 8 -12 1 -25 7 -28 14 -3 8 -21 14 -42 15 -27 1 -33 -1 -22 -8z"/>
<path d="M1895 50 c3 -5 8 -10 11 -10 2 0 4 5 4 10 0 6 -5 10 -11 10 -5 0 -7
-4 -4 -10z"/>
<path d="M1920 53 c0 -5 11 -9 25 -9 14 -1 25 2 25 7 0 5 -11 9 -25 9 -14 0
-25 -3 -25 -7z"/>
<path d="M1980 51 c0 -5 21 -7 46 -5 27 3 44 2 40 -4 -3 -5 -54 -10 -112 -11
-59 0 -110 -3 -112 -6 -3 -3 47 -5 110 -5 96 0 117 3 122 16 3 9 6 18 6 20 0
2 -22 4 -50 4 -27 0 -50 -4 -50 -9z"/>
<path d="M2090 51 c0 -6 12 -9 28 -8 17 1 26 -3 25 -10 -2 -7 1 -13 6 -13 6 0
9 9 8 20 -1 16 -8 20 -34 20 -18 0 -33 -4 -33 -9z"/>
<path d="M2175 50 c3 -6 17 -7 30 -4 13 3 30 2 37 -3 9 -5 -2 -10 -32 -14 -43
-6 -42 -6 18 -7 41 -1 61 2 57 8 -4 6 -10 8 -15 5 -4 -3 -13 2 -20 10 -14 17
-85 21 -75 5z"/>
<path d="M2268 53 c7 -3 16 -2 19 1 4 3 -2 6 -13 5 -11 0 -14 -3 -6 -6z"/>
<path d="M2303 54 c10 -11 116 -13 122 -3 4 5 -21 9 -61 9 -37 0 -65 -3 -61
-6z"/>
<path d="M11 26 c9 -10 35 -19 60 -21 l44 -4 -44 9 c-24 5 -51 15 -60 22 -15
11 -15 11 0 -6z"/>
<path d="M904 28 c-3 -4 23 -7 58 -7 66 1 62 6 -10 11 -24 2 -46 0 -48 -4z"/>
<path d="M2103 33 c-13 -2 -23 -8 -23 -12 0 -5 11 -6 25 -3 14 2 25 8 25 13 0
5 -1 8 -2 8 -2 -1 -13 -4 -25 -6z"/>
<path d="M235 20 c3 -5 8 -10 11 -10 2 0 4 5 4 10 0 6 -5 10 -11 10 -5 0 -7
-4 -4 -10z"/>
<path d="M1318 23 c7 -3 16 -2 19 1 4 3 -2 6 -13 5 -11 0 -14 -3 -6 -6z"/>
<path d="M1500 20 c0 -5 7 -7 15 -4 8 4 15 8 15 10 0 2 -7 4 -15 4 -8 0 -15
-4 -15 -10z"/>
<path d="M1563 23 c10 -9 97 -10 97 0 0 4 -23 7 -52 7 -28 0 -48 -3 -45 -7z"/>
<path d="M2695 20 c-3 -5 -1 -10 4 -10 6 0 11 5 11 10 0 6 -2 10 -4 10 -3 0
-8 -4 -11 -10z"/>
<path d="M2950 20 c0 -5 5 -10 10 -10 6 0 10 5 10 10 0 6 -4 10 -10 10 -5 0
-10 -4 -10 -10z"/>
</g>
</svg>
