<?xml version="1.0" standalone="no"?>
<!DOCTYPE svg PUBLIC "-//W3C//DTD SVG 20010904//EN"
 "http://www.w3.org/TR/2001/REC-SVG-20010904/DTD/svg10.dtd">
<svg version="1.0" xmlns="http://www.w3.org/2000/svg"
 width="300.000000pt" height="199.000000pt" viewBox="0 0 300.000000 199.000000"
 preserveAspectRatio="xMidYMid meet">
<metadata>
Created by potrace 1.10, written by Peter Selinger 2001-2011
</metadata>
<g transform="translate(0.000000,199.000000) scale(0.100000,-0.100000)"
fill="#000000" stroke="none">
<path d="M2015 1980 c3 -5 8 -10 11 -10 2 0 4 5 4 10 0 6 -5 10 -11 10 -5 0
-7 -4 -4 -10z"/>
<path d="M2430 1986 c0 -6 49 -56 55 -56 10 0 -26 48 -41 54 -8 3 -14 4 -14 2z"/>
<path d="M1850 1970 c0 -5 5 -10 11 -10 5 0 7 5 4 10 -3 6 -8 10 -11 10 -2 0
-4 -4 -4 -10z"/>
<path d="M1890 1970 c0 -5 10 -10 23 -10 18 0 19 2 7 10 -19 13 -30 13 -30 0z"/>
<path d="M2046 1963 c-6 -14 -5 -15 5 -6 7 7 10 15 7 18 -3 3 -9 -2 -12 -12z"/>
<path d="M10 1959 c0 -5 5 -7 10 -4 6 3 10 8 10 11 0 2 -4 4 -10 4 -5 0 -10
-5 -10 -11z"/>
<path d="M2135 1960 c3 -5 8 -10 11 -10 2 0 4 5 4 10 0 6 -5 10 -11 10 -5 0
-7 -4 -4 -10z"/>
<path d="M2280 1962 c0 -19 91 -34 107 -18 3 3 -13 5 -36 4 -23 0 -48 5 -56
12 -9 8 -15 8 -15 2z"/>
<path d="M206 1945 c-3 -8 -1 -15 4 -15 6 0 10 7 10 15 0 8 -2 15 -4 15 -2 0
-6 -7 -10 -15z"/>
<path d="M125 1940 c3 -5 11 -10 16 -10 6 0 7 5 4 10 -3 6 -11 10 -16 10 -6 0
-7 -4 -4 -10z"/>
<path d="M2091 1947 c2 -1 15 -11 28 -22 l24 -20 -14 23 c-8 12 -20 22 -28 22
-8 0 -12 -1 -10 -3z"/>
<path d="M2950 1941 c0 -6 4 -13 10 -16 6 -3 7 1 4 9 -7 18 -14 21 -14 7z"/>
<path d="M95 1931 c-3 -5 -2 -12 3 -15 5 -3 9 1 9 9 0 17 -3 19 -12 6z"/>
<path d="M260 1930 c0 -5 5 -10 11 -10 5 0 7 5 4 10 -3 6 -8 10 -11 10 -2 0
-4 -4 -4 -10z"/>
<path d="M1842 1926 c7 -8 16 -12 21 -9 11 7 -2 23 -19 23 -12 0 -12 -2 -2
-14z"/>
<path d="M2270 1936 c0 -2 8 -10 18 -17 15 -13 16 -12 3 4 -13 16 -21 21 -21
13z"/>
<path d="M2670 1928 c-12 -4 -25 -6 -30 -3 -4 3 -11 -2 -14 -10 -4 -12 0 -14
22 -9 15 4 41 12 57 19 24 10 26 13 8 12 -12 -1 -32 -5 -43 -9z"/>
<path d="M2388 1923 c6 -2 18 -2 25 0 6 3 1 5 -13 5 -14 0 -19 -2 -12 -5z"/>
<path d="M1898 1903 c7 -3 16 -2 19 1 4 3 -2 6 -13 5 -11 0 -14 -3 -6 -6z"/>
<path d="M2020 1899 c0 -5 5 -7 10 -4 6 3 10 8 10 11 0 2 -4 4 -10 4 -5 0 -10
-5 -10 -11z"/>
<path d="M2060 1900 c0 -5 7 -7 15 -4 8 4 15 8 15 10 0 2 -7 4 -15 4 -8 0 -15
-4 -15 -10z"/>
<path d="M2105 1901 c-3 -5 -2 -12 3 -15 5 -3 9 1 9 9 0 17 -3 19 -12 6z"/>
<path d="M1851 1884 c0 -11 3 -14 6 -6 3 7 2 16 -1 19 -3 4 -6 -2 -5 -13z"/>
<path d="M2558 1887 c20 -6 36 -6 42 -1 5 5 -8 9 -33 10 l-42 1 33 -10z"/>
<path d="M2756 1885 c4 -8 11 -15 16 -15 6 0 5 6 -2 15 -7 8 -14 15 -16 15 -2
0 -1 -7 2 -15z"/>
<path d="M2800 1890 c0 -5 5 -10 11 -10 5 0 7 5 4 10 -3 6 -8 10 -11 10 -2 0
-4 -4 -4 -10z"/>
<path d="M210 1880 c0 -5 7 -7 15 -4 8 4 15 8 15 10 0 2 -7 4 -15 4 -8 0 -15
-4 -15 -10z"/>
<path d="M1541 1880 c-29 -7 -38 -25 -17 -33 10 -4 13 -1 9 9 -4 10 1 13 18
10 13 -3 29 -5 34 -5 6 -1 4 -5 -4 -10 -9 -6 -6 -8 12 -8 20 0 23 2 14 11 -7
7 -16 13 -21 13 -5 1 -12 5 -15 10 -3 5 -17 7 -30 3z"/>
<path d="M1700 1880 c0 -9 39 -25 45 -18 2 2 -7 8 -21 15 -13 6 -24 7 -24 3z"/>
<path d="M2205 1880 c2 -4 -13 -6 -34 -4 -21 1 -44 -2 -52 -8 -10 -7 -3 -8 23
-3 30 5 40 2 58 -17 12 -14 19 -16 15 -7 -4 10 2 19 17 26 22 10 22 10 -4 15
-15 3 -25 2 -23 -2z"/>
<path d="M2020 1867 l-25 -10 24 -5 c13 -2 28 1 33 6 15 15 -4 21 -32 9z"/>
<path d="M2298 1873 c6 -2 10 -8 7 -12 -2 -5 6 -6 19 -4 13 3 27 0 30 -6 11
-17 23 -13 29 10 5 17 3 18 -9 8 -11 -9 -18 -9 -26 -1 -7 7 -23 12 -37 11 -15
0 -20 -3 -13 -6z"/>
<path d="M2439 1858 c9 -25 28 -35 28 -15 0 8 -8 19 -18 25 -16 10 -17 9 -10
-10z"/>
<path d="M2668 1873 c7 -3 16 -2 19 1 4 3 -2 6 -13 5 -11 0 -14 -3 -6 -6z"/>
<path d="M107 1863 c7 -2 15 -4 19 -3 4 1 10 -4 14 -10 6 -10 15 -10 36 -1
l29 11 -28 -5 c-19 -4 -26 -2 -22 5 4 6 -6 10 -27 9 -18 0 -27 -3 -21 -6z"/>
<path d="M1970 1860 c-8 -5 -12 -11 -9 -14 2 -3 11 -1 19 4 8 5 12 11 9 14 -2
3 -11 1 -19 -4z"/>
<path d="M2085 1860 c3 -5 8 -10 11 -10 2 0 4 5 4 10 0 6 -5 10 -11 10 -5 0
-7 -4 -4 -10z"/>
<path d="M2400 1866 c0 -2 7 -7 16 -10 8 -3 12 -2 9 4 -6 10 -25 14 -25 6z"/>
<path d="M238 1853 c7 -3 16 -2 19 1 4 3 -2 6 -13 5 -11 0 -14 -3 -6 -6z"/>
<path d="M1833 1853 c9 -2 23 -2 30 0 6 3 -1 5 -18 5 -16 0 -22 -2 -12 -5z"/>
<path d="M1918 1853 c7 -3 16 -2 19 1 4 3 -2 6 -13 5 -11 0 -14 -3 -6 -6z"/>
<path d="M2608 1853 c7 -3 16 -2 19 1 4 3 -2 6 -13 5 -11 0 -14 -3 -6 -6z"/>
<path d="M1010 1840 c0 -5 5 -10 11 -10 5 0 7 5 4 10 -3 6 -8 10 -11 10 -2 0
-4 -4 -4 -10z"/>
<path d="M1340 1840 c-12 -8 -10 -10 8 -10 13 0 20 4 17 10 -7 12 -6 12 -25 0z"/>
<path d="M1786 1825 c9 -14 20 -25 25 -25 5 0 -1 11 -13 25 -12 14 -23 25 -25
25 -2 0 4 -11 13 -25z"/>
<path d="M1885 1840 c3 -5 8 -10 11 -10 2 0 4 5 4 10 0 6 -5 10 -11 10 -5 0
-7 -4 -4 -10z"/>
<path d="M85 1830 c-3 -6 1 -7 9 -4 18 7 21 14 7 14 -6 0 -13 -4 -16 -10z"/>
<path d="M956 1831 c-3 -5 1 -11 9 -15 8 -3 15 -1 15 4 0 13 -18 22 -24 11z"/>
<path d="M1275 1830 c-3 -5 1 -10 10 -10 9 0 13 5 10 10 -3 6 -8 10 -10 10 -2
0 -7 -4 -10 -10z"/>
<path d="M2538 1833 c7 -3 16 -2 19 1 4 3 -2 6 -13 5 -11 0 -14 -3 -6 -6z"/>
<path d="M2677 1833 c-3 -5 5 -8 18 -8 13 0 21 3 18 8 -2 4 -10 7 -18 7 -8 0
-16 -3 -18 -7z"/>
<path d="M2876 1827 c3 -10 9 -15 12 -12 3 3 0 11 -7 18 -10 9 -11 8 -5 -6z"/>
<path d="M1165 1819 c-20 -5 -9 -6 30 -2 33 3 62 7 64 9 8 7 -63 2 -94 -7z"/>
<path d="M1395 1820 c-3 -5 -1 -10 4 -10 6 0 11 5 11 10 0 6 -2 10 -4 10 -3 0
-8 -4 -11 -10z"/>
<path d="M1641 1814 c0 -11 3 -14 6 -6 3 7 2 16 -1 19 -3 4 -6 -2 -5 -13z"/>
<path d="M2030 1826 c0 -2 9 -6 20 -9 11 -3 18 -1 14 4 -5 9 -34 13 -34 5z"/>
<path d="M2352 1823 c5 -18 -14 -53 -25 -46 -7 4 -6 -1 2 -10 9 -11 10 -17 2
-17 -6 0 -11 -5 -11 -11 0 -19 25 -3 26 17 1 11 6 29 13 41 14 27 14 33 1 33
-5 0 -9 -3 -8 -7z"/>
<path d="M2410 1826 c0 -3 9 -10 20 -16 11 -6 20 -8 20 -6 0 3 -9 10 -20 16
-11 6 -20 8 -20 6z"/>
<path d="M2495 1820 c-18 -8 -17 -9 7 -9 40 -1 107 -40 160 -93 54 -53 65 -49
16 5 -45 48 -157 108 -183 97z"/>
<path d="M2570 1820 c0 -5 5 -10 11 -10 5 0 7 5 4 10 -3 6 -8 10 -11 10 -2 0
-4 -4 -4 -10z"/>
<path d="M2610 1825 c0 -6 38 -45 45 -45 14 0 2 20 -20 34 -14 9 -25 14 -25
11z"/>
<path d="M1048 1813 c18 -2 45 -2 60 0 15 2 0 4 -33 4 -33 0 -45 -2 -27 -4z"/>
<path d="M1734 1808 c-4 -7 -4 -10 1 -6 4 4 14 3 22 -4 7 -6 16 -8 19 -5 3 3
-3 10 -15 16 -15 8 -22 8 -27 -1z"/>
<path d="M1916 1807 c-16 -12 -16 -13 2 -14 10 -1 19 5 19 13 0 17 1 17 -21 1z"/>
<path d="M2191 1812 c-1 -8 -6 -10 -13 -6 -10 5 -10 4 -1 -6 15 -16 28 -8 20
12 -4 11 -6 11 -6 0z"/>
<path d="M2230 1810 c0 -5 5 -10 11 -10 5 0 7 5 4 10 -3 6 -8 10 -11 10 -2 0
-4 -4 -4 -10z"/>
<path d="M2320 1810 c0 -5 5 -10 11 -10 5 0 7 5 4 10 -3 6 -8 10 -11 10 -2 0
-4 -4 -4 -10z"/>
<path d="M188 1803 c6 -2 18 -2 25 0 6 3 1 5 -13 5 -14 0 -19 -2 -12 -5z"/>
<path d="M453 1803 c9 -2 23 -2 30 0 6 3 -1 5 -18 5 -16 0 -22 -2 -12 -5z"/>
<path d="M495 1801 c-6 -5 -30 -12 -55 -14 -25 -2 27 -2 115 0 88 3 162 7 165
10 3 3 -43 3 -102 1 -59 -3 -109 -1 -110 4 -2 5 -8 4 -13 -1z"/>
<path d="M783 1803 c20 -2 54 -2 75 0 20 2 3 4 -38 4 -41 0 -58 -2 -37 -4z"/>
<path d="M1415 1800 c-3 -5 -1 -10 4 -10 6 0 11 5 11 10 0 6 -2 10 -4 10 -3 0
-8 -4 -11 -10z"/>
<path d="M2270 1801 c0 -6 4 -13 10 -16 6 -3 7 1 4 9 -7 18 -14 21 -14 7z"/>
<path d="M1975 1790 c4 -6 11 -8 16 -5 14 9 11 15 -7 15 -8 0 -12 -5 -9 -10z"/>
<path d="M82 1783 c-13 -5 -7 -23 9 -23 6 0 8 4 4 9 -3 5 8 9 25 9 17 -1 33 2
37 5 7 8 -56 8 -75 0z"/>
<path d="M350 1775 c14 -7 27 -11 30 -9 6 7 -22 24 -40 23 -9 0 -5 -6 10 -14z"/>
<path d="M2058 1783 c7 -3 16 -2 19 1 4 3 -2 6 -13 5 -11 0 -14 -3 -6 -6z"/>
<path d="M198 1773 c-10 -2 -18 -9 -18 -14 0 -12 17 -11 25 2 4 6 13 8 21 5 8
-3 14 -1 14 4 0 10 -12 11 -42 3z"/>
<path d="M1835 1770 c-3 -5 -1 -10 4 -10 6 0 11 5 11 10 0 6 -2 10 -4 10 -3 0
-8 -4 -11 -10z"/>
<path d="M1940 1769 c0 -5 11 -9 25 -9 14 0 25 2 25 4 0 2 -11 6 -25 8 -14 3
-25 1 -25 -3z"/>
<path d="M2095 1770 c3 -5 8 -10 11 -10 2 0 4 5 4 10 0 6 -5 10 -11 10 -5 0
-7 -4 -4 -10z"/>
<path d="M0 1766 c0 -2 9 -6 20 -9 11 -3 18 -1 14 4 -5 9 -34 13 -34 5z"/>
<path d="M251 1754 c0 -11 3 -14 6 -6 3 7 2 16 -1 19 -3 4 -6 -2 -5 -13z"/>
<path d="M991 1757 c-8 -10 -7 -14 4 -14 8 0 15 6 15 14 0 7 -2 13 -4 13 -2 0
-9 -6 -15 -13z"/>
<path d="M1736 1762 c-3 -5 1 -9 9 -9 8 0 12 4 9 9 -3 4 -7 8 -9 8 -2 0 -6 -4
-9 -8z"/>
<path d="M2000 1760 c0 -5 5 -10 10 -10 6 0 10 5 10 10 0 6 -4 10 -10 10 -5 0
-10 -4 -10 -10z"/>
<path d="M2255 1760 c-3 -5 -1 -10 4 -10 6 0 11 5 11 10 0 6 -2 10 -4 10 -3 0
-8 -4 -11 -10z"/>
<path d="M2678 1763 c6 -2 18 -2 25 0 6 3 1 5 -13 5 -14 0 -19 -2 -12 -5z"/>
<path d="M1630 1756 c0 -2 8 -10 18 -17 15 -13 16 -12 3 4 -13 16 -21 21 -21
13z"/>
<path d="M1925 1740 c-3 -5 -1 -10 4 -10 6 0 11 5 11 10 0 6 -2 10 -4 10 -3 0
-8 -4 -11 -10z"/>
<path d="M2137 1738 c2 -5 -1 -8 -7 -8 -6 0 -8 -5 -4 -11 3 -6 9 -7 13 -2 3 5
15 9 25 8 11 0 21 5 23 11 2 7 -8 11 -26 10 -16 -1 -27 -4 -24 -8z"/>
<path d="M2288 1743 c7 -3 16 -2 19 1 4 3 -2 6 -13 5 -11 0 -14 -3 -6 -6z"/>
<path d="M366 1732 c-4 -7 -4 -12 1 -13 4 0 18 -2 31 -5 15 -3 21 0 17 7 -4 6
-13 8 -20 5 -8 -3 -15 0 -18 7 -2 8 -5 8 -11 -1z"/>
<path d="M1825 1730 c3 -5 8 -10 11 -10 2 0 4 5 4 10 0 6 -5 10 -11 10 -5 0
-7 -4 -4 -10z"/>
<path d="M1880 1730 c0 -5 7 -7 15 -4 8 4 15 8 15 10 0 2 -7 4 -15 4 -8 0 -15
-4 -15 -10z"/>
<path d="M2060 1729 c0 -5 5 -7 10 -4 6 3 10 8 10 11 0 2 -4 4 -10 4 -5 0 -10
-5 -10 -11z"/>
<path d="M224 1718 c-3 -4 4 -8 15 -8 11 0 22 4 25 8 2 4 -4 8 -15 8 -11 0
-23 -4 -25 -8z"/>
<path d="M706 1718 c3 -5 10 -6 15 -3 13 9 11 12 -6 12 -8 0 -12 -4 -9 -9z"/>
<path d="M2220 1720 c0 -5 5 -10 11 -10 5 0 7 5 4 10 -3 6 -8 10 -11 10 -2 0
-4 -4 -4 -10z"/>
<path d="M1648 1708 c7 -7 12 -23 12 -36 0 -13 4 -20 10 -17 21 13 0 65 -26
65 -5 0 -3 -5 4 -12z"/>
<path d="M2313 1670 c1 -29 4 -45 9 -37 10 16 10 87 -1 87 -4 0 -8 -22 -8 -50z"/>
<path d="M180 1700 c0 -6 7 -13 15 -17 24 -9 27 1 5 15 -13 8 -20 8 -20 2z"/>
<path d="M2185 1700 c-3 -5 -2 -10 4 -10 5 0 13 5 16 10 3 6 2 10 -4 10 -5 0
-13 -4 -16 -10z"/>
<path d="M48 1693 c6 -3 10 -9 6 -14 -8 -14 2 -11 14 4 8 10 6 13 -11 14 -12
0 -16 -1 -9 -4z"/>
<path d="M125 1690 c-3 -6 1 -7 9 -4 18 7 21 14 7 14 -6 0 -13 -4 -16 -10z"/>
<path d="M2080 1690 c0 -5 5 -10 11 -10 5 0 7 5 4 10 -3 6 -8 10 -11 10 -2 0
-4 -4 -4 -10z"/>
<path d="M310 1681 c0 -5 7 -12 16 -15 24 -9 27 -7 10 9 -17 17 -26 19 -26 6z"/>
<path d="M1156 1658 c-28 -28 -34 -43 -40 -96 -9 -76 -44 -147 -89 -178 -19
-12 -42 -35 -52 -50 -17 -26 -17 -28 1 -40 25 -17 55 -47 51 -51 -2 -1 -28 6
-58 17 -29 11 -55 20 -56 20 -2 0 2 -8 8 -18 8 -12 20 -17 35 -14 13 2 40 -5
61 -18 24 -14 32 -16 24 -6 -8 9 -10 16 -7 16 4 0 0 10 -8 22 -18 25 -22 97
-6 99 14 2 22 5 44 14 14 6 23 3 32 -10 8 -10 14 -14 14 -7 0 6 -9 17 -21 25
-24 17 -5 30 23 16 10 -5 19 -5 22 0 3 5 -7 11 -24 14 l-29 6 16 33 c16 31 17
31 26 10 6 -12 17 -22 26 -22 13 0 13 -2 3 -9 -11 -7 -11 -9 2 -14 8 -3 18 -2
21 3 3 5 13 6 21 3 12 -4 11 2 -5 28 -25 40 -26 50 -6 43 8 -4 15 -1 15 5 0 6
-4 11 -10 11 -19 0 -11 69 11 91 17 17 30 20 66 16 24 -2 47 -7 50 -11 13 -13
6 -93 -12 -129 -17 -35 -21 -38 -48 -33 -17 4 -40 14 -51 24 -20 16 -20 16 -7
-1 8 -10 27 -25 43 -33 15 -8 29 -15 31 -17 2 -1 11 4 20 12 15 12 17 11 17
-3 0 -9 5 -16 11 -16 5 0 7 5 4 10 -3 6 0 10 7 10 10 0 13 20 12 78 -1 109 -1
108 -35 147 -27 30 -37 35 -76 35 -37 0 -50 -5 -77 -32z m53 5 c-3 -21 3 -24
24 -10 22 14 26 14 53 -9 21 -18 23 -22 7 -15 -23 11 -80 5 -89 -10 -3 -5 -10
-6 -16 -3 -6 4 -8 2 -4 -4 3 -5 2 -12 -4 -14 -5 -1 -12 -34 -14 -72 -3 -38 -7
-70 -9 -72 -1 -2 -8 10 -14 26 -9 23 -8 28 0 23 9 -5 9 -3 0 8 -8 10 -9 27 -4
51 5 21 7 39 5 41 -3 2 9 18 25 36 28 30 42 39 40 24z m118 -200 c-3 -10 -5
-4 -5 12 0 17 2 24 5 18 2 -7 2 -21 0 -30z m-341 -151 c-18 -16 -18 -16 -6 6
6 13 14 21 18 18 3 -4 -2 -14 -12 -24z"/>
<path d="M1803 1677 c2 -6 39 -12 83 -13 68 -2 73 -2 36 6 -72 15 -123 18
-119 7z"/>
<path d="M2115 1680 c-3 -6 1 -7 9 -4 18 7 21 14 7 14 -6 0 -13 -4 -16 -10z"/>
<path d="M2528 1683 c7 -3 16 -2 19 1 4 3 -2 6 -13 5 -11 0 -14 -3 -6 -6z"/>
<path d="M140 1670 c0 -5 7 -10 16 -10 8 0 12 5 9 10 -3 6 -10 10 -16 10 -5 0
-9 -4 -9 -10z"/>
<path d="M375 1660 c10 -11 20 -18 23 -15 7 6 -18 35 -31 35 -5 0 -2 -9 8 -20z"/>
<path d="M2225 1670 c-13 -6 -15 -9 -5 -9 8 0 22 4 30 9 18 12 2 12 -25 0z"/>
<path d="M2344 1647 c-1 -30 -1 -30 9 -9 6 14 7 26 1 32 -5 5 -9 -4 -10 -23z"/>
<path d="M2460 1670 c0 -5 5 -10 11 -10 5 0 7 5 4 10 -3 6 -8 10 -11 10 -2 0
-4 -4 -4 -10z"/>
<path d="M1036 1650 c10 -40 44 -70 44 -39 0 5 -4 7 -10 4 -5 -3 -16 9 -25 27
-10 23 -13 25 -9 8z"/>
<path d="M2405 1660 c3 -5 8 -10 11 -10 2 0 4 5 4 10 0 6 -5 10 -11 10 -5 0
-7 -4 -4 -10z"/>
<path d="M1531 1644 c0 -11 3 -14 6 -6 3 7 2 16 -1 19 -3 4 -6 -2 -5 -13z"/>
<path d="M2720 1656 c0 -2 8 -10 18 -17 15 -13 16 -12 3 4 -13 16 -21 21 -21
13z"/>
<path d="M1496 1642 c-3 -6 -1 -14 5 -17 15 -10 25 3 12 16 -7 7 -13 7 -17 1z"/>
<path d="M1610 1642 c0 -4 9 -8 20 -9 11 -1 18 2 15 8 -7 11 -35 12 -35 1z"/>
<path d="M1966 1641 c-6 -9 35 -24 43 -15 6 5 -18 24 -31 24 -4 0 -9 -4 -12
-9z"/>
<path d="M2440 1630 c-13 -8 -12 -10 3 -10 9 0 17 5 17 10 0 12 -1 12 -20 0z"/>
<path d="M507 1623 c-3 -2 -27 -5 -53 -6 -29 -1 -49 -7 -52 -15 -3 -11 9 -12
59 -7 37 3 70 1 79 -5 8 -5 12 -10 7 -10 -4 0 5 -18 19 -40 15 -22 30 -37 35
-34 16 10 15 -128 -2 -156 -6 -11 -8 -4 -9 23 0 20 -4 37 -9 37 -5 0 -7 -8 -4
-18 2 -10 -1 -31 -7 -47 -9 -24 -13 -27 -21 -15 -8 11 -9 10 -4 -7 3 -13 3
-28 -2 -35 -8 -14 -10 -19 -12 -43 -1 -16 -60 -47 -73 -38 -5 2 -3 13 2 24 9
15 7 19 -5 19 -8 0 -15 -7 -15 -16 0 -8 -4 -13 -9 -9 -5 3 -12 1 -15 -4 -3 -5
-14 -7 -25 -4 -13 3 -17 11 -14 26 4 21 4 21 -16 -3 -25 -31 -26 -40 -3 -41 9
0 31 -2 49 -2 31 -2 59 -17 32 -17 -9 -1 -7 -5 6 -13 22 -13 75 -16 75 -4 0 4
9 3 19 -2 17 -10 20 -5 30 54 6 36 14 73 17 82 5 15 4 15 -5 3 -11 -16 -27 -8
-16 9 13 23 35 11 35 -19 0 -24 3 -28 17 -23 10 4 12 8 5 11 -7 2 -8 11 -2 27
11 30 13 115 4 183 -8 61 5 68 50 27 14 -13 26 -19 26 -12 1 7 9 -4 20 -23 21
-38 27 -27 9 14 -11 23 -91 65 -111 58 -5 -1 -8 3 -8 8 0 5 -5 9 -12 8 -6 -2
-17 8 -24 22 -12 23 -56 44 -67 33z m82 -69 c11 -15 18 -31 14 -36 -3 -6 -10
-3 -16 8 -5 11 -17 27 -25 37 -9 9 -10 17 -4 17 6 0 20 -12 31 -26z m-39 -354
c0 -10 -39 -34 -46 -28 -2 3 4 14 13 25 17 21 33 22 33 3z"/>
<path d="M1448 1623 c7 -3 16 -2 19 1 4 3 -2 6 -13 5 -11 0 -14 -3 -6 -6z"/>
<path d="M1785 1620 c3 -5 8 -10 11 -10 2 0 4 5 4 10 0 6 -5 10 -11 10 -5 0
-7 -4 -4 -10z"/>
<path d="M2248 1622 c-21 -4 -22 -11 -7 -32 9 -13 10 -12 5 3 -5 16 -1 17 32
12 20 -3 30 -2 22 1 -8 4 -19 10 -25 14 -5 3 -18 5 -27 2z"/>
<path d="M2505 1619 c-26 -4 -9 -6 50 -6 88 -1 96 3 25 9 -19 2 -53 0 -75 -3z"/>
<path d="M1730 1610 c0 -4 7 -7 15 -6 23 3 26 12 5 13 -11 1 -20 -2 -20 -7z"/>
<path d="M1838 1613 c6 -2 18 -2 25 0 6 3 1 5 -13 5 -14 0 -19 -2 -12 -5z"/>
<path d="M2402 1606 c7 -7 19 -11 26 -8 11 4 11 6 0 13 -7 5 -19 9 -26 9 -10
0 -10 -3 0 -14z"/>
<path d="M369 1603 c-1 -5 -1 -11 0 -15 0 -5 -3 -8 -7 -8 -5 0 -17 -7 -28 -15
-18 -14 -17 -14 14 -15 20 0 31 4 27 10 -3 6 1 10 9 10 9 0 16 5 16 10 0 6 -5
10 -11 10 -5 0 -7 5 -4 10 3 6 1 10 -4 10 -6 0 -12 -3 -12 -7z"/>
<path d="M2758 1605 c-3 -3 -39 -7 -79 -9 -89 -3 -169 -33 -169 -65 0 -11 -11
-28 -24 -38 -13 -10 -26 -29 -30 -41 -4 -12 -11 -20 -15 -18 -3 3 -17 -10 -29
-28 -19 -27 -20 -37 -11 -70 9 -32 8 -41 -8 -58 -13 -15 -15 -22 -5 -25 6 -3
12 -9 12 -14 0 -4 -8 -5 -17 -2 -15 5 -16 4 -7 -8 20 -25 22 -57 6 -80 -9 -13
-10 -19 -3 -15 23 14 47 -21 45 -64 -1 -30 -8 -45 -27 -60 -35 -27 -50 -78
-41 -137 11 -82 20 -77 19 13 0 78 2 87 24 105 12 10 26 17 31 14 4 -2 5 -28
2 -57 -2 -30 -1 -49 4 -45 5 5 9 52 9 104 0 66 4 98 12 100 8 3 10 -3 6 -19
-3 -13 -6 -62 -7 -110 -1 -85 -2 -88 -35 -122 -46 -48 -34 -56 15 -10 48 44
99 84 107 84 4 0 7 -7 7 -15 0 -8 7 -15 15 -15 18 0 18 5 5 31 -13 24 -38 24
-70 -1 -14 -11 -28 -20 -32 -20 -10 0 1 58 19 97 8 18 13 38 10 45 -3 7 -6 3
-6 -9 -1 -12 -5 -25 -11 -28 -14 -9 -12 36 4 63 14 27 17 25 60 -50 25 -44 29
-47 58 -41 18 3 42 18 55 32 22 25 22 25 23 4 0 -12 -10 -30 -23 -40 -50 -40
-78 -113 -42 -113 8 0 15 5 15 11 0 6 11 25 25 43 14 18 25 36 25 40 0 4 10
16 23 27 18 15 19 20 8 28 -16 10 -5 35 13 28 7 -3 13 1 13 9 0 8 -6 14 -13
14 -10 0 -11 6 -4 26 15 40 12 42 -10 6 -11 -18 -31 -38 -45 -44 -17 -7 -21
-14 -14 -19 17 -10 -36 -42 -58 -35 -20 7 -60 63 -65 92 -2 16 3 19 35 19 20
0 37 3 37 7 0 4 -36 6 -80 6 -50 0 -86 4 -95 12 -17 14 -21 55 -4 44 8 -4 8 0
0 15 -7 13 -8 27 -3 37 8 14 10 13 23 -2 13 -16 12 -17 -6 -10 -16 6 -17 5 -8
-5 9 -9 18 -10 35 -1 18 8 19 11 6 11 -10 1 -18 5 -18 10 0 5 -9 13 -20 16
-11 3 -20 11 -20 17 0 5 7 7 15 4 38 -15 48 -16 23 -1 -34 19 -35 25 -4 25 19
0 27 -8 36 -36 7 -19 10 -46 7 -60 -5 -29 8 -32 23 -3 9 16 8 26 -4 44 -21 33
-20 57 4 83 22 24 30 26 46 15 5 -5 -1 2 -14 15 -13 12 -22 30 -20 40 3 15 7
13 31 -10 15 -15 27 -23 27 -17 0 14 -47 59 -62 59 -8 0 -14 -15 -16 -37 -2
-39 -19 -66 -33 -57 -5 3 -6 -2 -3 -10 6 -17 -4 -20 -30 -10 -24 9 -20 22 20
60 31 28 36 39 31 63 -4 20 -1 33 9 42 8 7 22 25 29 40 8 14 23 29 33 31 17 5
20 -1 25 -46 3 -35 18 -73 46 -121 23 -38 36 -72 31 -75 -6 -4 -4 -15 5 -27
12 -17 22 -21 49 -16 l35 5 -4 -43 -3 -44 -50 0 c-39 1 -53 -4 -62 -19 -11
-17 -10 -18 7 -11 38 15 56 18 50 8 -5 -7 0 -9 12 -6 22 6 -51 -77 -83 -94
-10 -6 -14 -13 -9 -16 5 -3 23 6 39 22 53 50 118 123 120 135 1 6 4 23 7 38 7
32 -21 62 -48 52 -14 -6 -16 -4 -10 6 5 8 4 11 -3 6 -13 -8 -47 48 -57 92 -4
18 -11 30 -16 26 -5 -3 -11 1 -13 8 -2 7 -7 22 -12 33 -10 27 -14 45 -19 76
-5 30 -3 31 107 31 101 1 166 -25 176 -72 2 -8 7 -21 12 -30 8 -13 9 -13 10 1
0 8 -6 21 -12 28 -11 10 -9 12 6 9 11 -1 18 -6 15 -9 -2 -4 4 -16 15 -28 10
-11 16 -26 13 -34 -3 -7 1 -14 8 -14 10 0 10 9 -2 41 -24 70 -76 116 -129 116
-19 0 -37 6 -42 15 -4 9 -11 13 -14 10z m-278 -171 c0 -8 -4 -12 -10 -9 -5 3
-10 10 -10 16 0 5 5 9 10 9 6 0 10 -7 10 -16z m-30 -32 c0 -11 -9 -27 -20 -37
-22 -20 -26 -9 -8 30 13 29 28 33 28 7z m248 -110 c2 -7 -2 -10 -12 -6 -9 3
-16 11 -16 16 0 13 23 5 28 -10z"/>
<path d="M950 1590 l-35 -7 32 -2 c17 0 35 4 38 9 3 6 5 9 3 9 -2 -1 -19 -5
-38 -9z"/>
<path d="M1018 1593 c7 -3 16 -2 19 1 4 3 -2 6 -13 5 -11 0 -14 -3 -6 -6z"/>
<path d="M1228 1593 c6 -2 10 -9 6 -14 -3 -5 2 -9 10 -9 10 0 13 6 10 15 -4 8
-14 15 -23 14 -10 0 -11 -2 -3 -6z"/>
<path d="M2049 1587 c6 -8 8 -17 4 -21 -4 -4 0 -4 10 0 10 3 17 1 17 -5 0 -6
5 -11 10 -11 16 0 -23 49 -39 50 -10 0 -11 -3 -2 -13z"/>
<path d="M2120 1586 c14 -8 27 -12 29 -10 6 6 -1 11 -29 18 l-25 7 25 -15z"/>
<path d="M2808 1593 c7 -3 16 -2 19 1 4 3 -2 6 -13 5 -11 0 -14 -3 -6 -6z"/>
<path d="M307 1570 c-40 -31 -54 -111 -33 -183 9 -31 21 -59 27 -62 5 -4 7
-15 4 -25 -3 -11 0 -22 8 -27 8 -4 17 -17 20 -28 4 -19 5 -19 6 1 1 27 24 37
47 20 13 -10 27 -11 52 -4 18 5 40 7 48 4 8 -3 14 1 14 9 0 11 -11 14 -42 13
-24 -2 -49 1 -55 5 -7 5 -13 4 -13 0 0 -5 -9 -9 -20 -9 -11 0 -18 5 -16 11 2
5 -9 24 -25 40 -33 35 -54 120 -39 159 5 13 7 26 4 29 -2 2 9 18 25 36 33 35
27 41 -12 11z"/>
<path d="M2298 1583 c7 -3 16 -2 19 1 4 3 -2 6 -13 5 -11 0 -14 -3 -6 -6z"/>
<path d="M487 1553 c19 -28 28 -30 13 -3 -7 14 -7 20 0 20 5 0 10 -4 10 -10 0
-5 5 -10 11 -10 8 0 8 4 0 14 -7 8 -21 14 -31 13 -16 -1 -17 -3 -3 -24z"/>
<path d="M710 1572 c0 -4 17 -6 38 -4 58 5 62 10 10 11 -27 1 -48 -3 -48 -7z"/>
<path d="M833 1573 c15 -2 37 -2 50 0 12 2 0 4 -28 4 -27 0 -38 -2 -22 -4z"/>
<path d="M1285 1569 c-11 -16 -1 -19 13 -3 7 8 8 14 3 14 -5 0 -13 -5 -16 -11z"/>
<path d="M73 1559 c-10 -5 11 -8 50 -8 52 -1 67 -4 67 -16 0 -9 6 -12 15 -9
26 10 17 21 -27 33 -45 12 -74 12 -105 0z"/>
<path d="M668 1563 c6 -2 18 -2 25 0 6 3 1 5 -13 5 -14 0 -19 -2 -12 -5z"/>
<path d="M1758 1563 c7 -3 16 -2 19 1 4 3 -2 6 -13 5 -11 0 -14 -3 -6 -6z"/>
<path d="M1835 1559 c-32 -16 -82 -119 -57 -119 18 1 32 18 26 33 -8 22 21 67
43 67 10 0 28 -12 41 -27 13 -16 20 -22 16 -14 -5 9 -3 12 5 7 6 -4 9 -12 6
-17 -4 -5 1 -16 9 -25 21 -20 20 -30 -4 -54 -11 -11 -16 -20 -11 -20 6 0 13 5
16 10 4 6 10 8 15 5 5 -3 12 0 16 6 4 8 3 9 -4 5 -7 -4 -12 -3 -12 2 0 8 22
22 36 22 13 0 1 -51 -14 -62 -10 -7 -26 -35 -37 -63 -10 -27 -25 -61 -34 -75
-14 -23 -14 -24 1 -12 9 7 24 29 33 48 19 41 42 42 64 2 14 -25 14 -32 -3 -75
-31 -82 -28 -91 7 -24 l34 65 -18 40 c-10 23 -19 49 -19 59 0 9 -4 17 -9 17
-5 0 -4 11 2 25 7 14 15 25 19 25 11 0 -4 45 -19 53 -7 4 -13 13 -13 18 0 6 5
7 10 4 14 -9 13 1 -5 35 -21 41 -94 61 -140 39z m108 -43 c15 -23 13 -36 -5
-36 -6 0 -8 6 -6 12 5 14 -9 32 -32 41 -10 4 -8 6 6 6 12 1 28 -9 37 -23z m31
-181 c3 -9 0 -15 -9 -15 -8 0 -15 7 -15 15 0 8 4 15 9 15 5 0 11 -7 15 -15z"/>
<path d="M2253 1555 c0 -11 4 -12 14 -4 7 6 13 13 13 15 0 2 -6 4 -13 4 -8 0
-14 -7 -14 -15z"/>
<path d="M2300 1562 c0 -5 7 -15 15 -22 8 -7 15 -9 15 -6 0 4 -7 14 -15 22 -8
9 -15 11 -15 6z"/>
<path d="M456 1541 c-3 -5 1 -16 9 -24 8 -9 15 -21 15 -27 0 -6 5 -8 10 -5 6
3 24 -9 40 -27 21 -22 26 -34 17 -36 -28 -6 -67 18 -97 60 -17 24 -34 43 -38
43 -4 0 -13 4 -21 9 -22 14 -2 -16 44 -65 22 -24 39 -48 37 -54 -2 -5 0 -7 4
-3 4 4 19 -5 34 -20 37 -38 47 -37 53 5 6 34 3 41 -45 87 -28 28 -50 53 -49
54 2 2 0 6 -2 8 -3 3 -8 1 -11 -5z m84 -151 c0 -15 -5 -12 -26 11 -19 22 -19
22 4 10 12 -6 22 -16 22 -21z"/>
<path d="M1261 1534 c0 -11 3 -14 6 -6 3 7 2 16 -1 19 -3 4 -6 -2 -5 -13z"/>
<path d="M329 1530 c-22 -13 -30 -49 -20 -85 9 -29 9 -29 10 10 1 45 7 57 36
73 14 8 15 11 5 11 -8 0 -22 -4 -31 -9z"/>
<path d="M520 1527 c0 -9 12 -25 28 -37 15 -12 30 -34 33 -48 l7 -27 1 27 c0
15 -5 33 -11 40 -7 8 -18 22 -24 33 -13 24 -34 31 -34 12z"/>
<path d="M1996 1527 c3 -10 9 -15 12 -12 3 3 0 11 -7 18 -10 9 -11 8 -5 -6z"/>
<path d="M2190 1536 c0 -18 22 -56 32 -56 10 0 10 2 0 9 -7 4 -14 18 -15 29
-1 12 -5 22 -9 22 -4 0 -8 -2 -8 -4z"/>
<path d="M2550 1521 c0 -11 4 -22 9 -25 4 -3 6 6 3 19 -5 30 -12 33 -12 6z"/>
<path d="M43 1516 c0 -15 50 -16 64 -2 4 4 -4 5 -20 1 -17 -5 -27 -3 -27 4 0
6 -4 11 -8 11 -5 0 -9 -6 -9 -14z"/>
<path d="M135 1520 c-4 -6 0 -10 9 -10 8 0 17 -6 19 -12 4 -8 6 -7 6 3 1 19
-25 33 -34 19z"/>
<path d="M1277 1517 c-3 -7 -2 -19 3 -26 5 -9 9 -8 14 5 4 9 3 21 -2 26 -6 6
-12 4 -15 -5z"/>
<path d="M2130 1520 c0 -5 5 -10 11 -10 5 0 7 5 4 10 -3 6 -8 10 -11 10 -2 0
-4 -4 -4 -10z"/>
<path d="M2350 1526 c0 -2 7 -6 15 -10 8 -3 15 -1 15 4 0 6 -7 10 -15 10 -8 0
-15 -2 -15 -4z"/>
<path d="M1236 1501 c-3 -5 0 -11 7 -14 8 -3 14 1 14 9 0 16 -13 19 -21 5z"/>
<path d="M2010 1490 c0 -5 5 -10 11 -10 5 0 7 5 4 10 -3 6 -8 10 -11 10 -2 0
-4 -4 -4 -10z"/>
<path d="M220 1480 c0 -5 5 -10 11 -10 5 0 7 5 4 10 -3 6 -8 10 -11 10 -2 0
-4 -4 -4 -10z"/>
<path d="M2040 1480 c0 -6 7 -10 15 -10 8 0 15 2 15 4 0 2 -7 6 -15 10 -8 3
-15 1 -15 -4z"/>
<path d="M2090 1469 c0 -5 5 -7 10 -4 6 3 10 8 10 11 0 2 -4 4 -10 4 -5 0 -10
-5 -10 -11z"/>
<path d="M17 1463 c-10 -9 -9 -23 1 -23 5 0 9 7 9 15 0 17 -1 18 -10 8z"/>
<path d="M50 1460 c0 -8 22 -30 30 -30 3 0 6 9 6 19 0 13 -7 19 -18 18 -10 -1
-18 -4 -18 -7z"/>
<path d="M130 1451 c-8 -6 -18 -7 -22 -5 -4 3 -8 0 -8 -5 0 -17 47 -13 54 4 6
17 -2 19 -24 6z"/>
<path d="M185 1450 c3 -5 10 -10 16 -10 5 0 9 5 9 10 0 6 -7 10 -16 10 -8 0
-12 -4 -9 -10z"/>
<path d="M1830 1444 c0 -8 5 -12 10 -9 6 4 8 11 5 16 -9 14 -15 11 -15 -7z"/>
<path d="M2255 1450 c3 -5 11 -10 16 -10 6 0 7 5 4 10 -3 6 -11 10 -16 10 -6
0 -7 -4 -4 -10z"/>
<path d="M2160 1440 c-9 -6 -10 -10 -3 -10 6 0 15 5 18 10 8 12 4 12 -15 0z"/>
<path d="M2325 1440 c3 -5 11 -10 16 -10 6 0 7 5 4 10 -3 6 -11 10 -16 10 -6
0 -7 -4 -4 -10z"/>
<path d="M2690 1429 c7 -11 14 -19 16 -16 7 7 -7 37 -17 37 -6 0 -5 -9 1 -21z"/>
<path d="M690 1429 c0 -5 5 -7 10 -4 6 3 10 8 10 11 0 2 -4 4 -10 4 -5 0 -10
-5 -10 -11z"/>
<path d="M780 1430 c0 -5 5 -10 11 -10 5 0 7 5 4 10 -3 6 -8 10 -11 10 -2 0
-4 -4 -4 -10z"/>
<path d="M1747 1434 c-3 -4 0 -22 8 -41 18 -41 18 -46 6 -38 -5 3 -12 1 -16
-5 -3 -5 -2 -10 2 -10 5 0 9 -9 9 -20 0 -11 -4 -20 -8 -20 -4 0 -12 -8 -17
-18 -8 -14 -6 -19 5 -19 7 0 14 6 14 12 0 25 24 34 50 20 32 -18 41 -18 34 -1
-3 8 -18 16 -32 18 -31 4 -45 38 -15 38 15 0 16 2 3 10 -13 9 -13 10 0 10 9 0
11 3 5 8 -13 9 -16 42 -4 42 5 0 9 5 9 11 0 8 -5 8 -15 -1 -10 -9 -15 -9 -15
-1 0 12 -13 15 -23 5z m33 -28 c0 -3 -4 -8 -10 -11 -5 -3 -10 -1 -10 4 0 6 5
11 10 11 6 0 10 -2 10 -4z"/>
<path d="M1688 1423 c6 -2 18 -2 25 0 6 3 1 5 -13 5 -14 0 -19 -2 -12 -5z"/>
<path d="M2020 1420 c0 -6 7 -10 15 -10 8 0 15 2 15 4 0 2 -7 6 -15 10 -8 3
-15 1 -15 -4z"/>
<path d="M2288 1418 c5 -5 16 -8 23 -6 8 3 3 7 -10 11 -17 4 -21 3 -13 -5z"/>
<path d="M2730 1420 c0 -5 5 -10 11 -10 5 0 7 5 4 10 -3 6 -8 10 -11 10 -2 0
-4 -4 -4 -10z"/>
<path d="M2902 1405 c0 -16 2 -22 5 -12 2 9 2 23 0 30 -3 6 -5 -1 -5 -18z"/>
<path d="M210 1405 c0 -8 4 -15 10 -15 5 0 7 7 4 15 -4 8 -8 15 -10 15 -2 0
-4 -7 -4 -15z"/>
<path d="M405 1411 c-16 -3 -25 -9 -20 -13 14 -8 75 2 75 13 0 10 -10 10 -55
0z"/>
<path d="M701 1394 c-17 -14 -31 -33 -31 -43 0 -9 -5 -22 -12 -29 -9 -9 -9
-12 0 -12 6 0 15 12 18 27 7 27 26 53 39 53 3 0 1 -9 -5 -20 -6 -11 -8 -20 -5
-20 3 0 -6 -16 -21 -35 -14 -19 -31 -32 -38 -28 -6 3 -8 3 -4 -2 4 -4 3 -14
-3 -22 -6 -7 -8 -13 -5 -13 4 0 -1 -13 -11 -30 -14 -24 -15 -32 -5 -42 11 -11
12 -10 7 5 -4 9 -3 17 3 17 6 0 13 8 15 18 3 9 5 3 6 -14 1 -18 12 -43 29 -61
33 -36 80 -68 89 -60 8 9 33 -25 26 -36 -3 -4 -12 -2 -21 5 -15 11 -15 11 -4
-4 9 -11 10 -18 2 -23 -5 -3 -10 -1 -10 4 0 6 -9 11 -20 11 -11 0 -20 -5 -20
-11 0 -5 -4 -7 -10 -4 -5 3 -10 -3 -10 -15 0 -14 -4 -19 -12 -14 -10 5 -10 4
0 -7 10 -11 15 -10 28 9 18 26 39 28 52 5 6 -10 16 -14 27 -9 18 7 18 -8 1
-59 -4 -11 0 -7 10 9 16 28 17 29 30 11 8 -10 17 -15 21 -12 3 4 -3 16 -15 27
-41 39 -26 50 33 26 19 -8 35 -11 35 -7 0 4 -18 14 -40 21 -31 10 -46 11 -66
1 -20 -9 -25 -9 -22 1 8 22 98 79 128 81 17 1 30 7 30 14 0 13 -40 5 -78 -16
-31 -16 -37 -13 -18 8 17 19 17 19 -1 17 -10 -2 -19 -13 -21 -24 -2 -12 -7
-22 -12 -22 -16 0 -1 123 16 140 15 14 16 13 9 -5 -4 -11 -9 -27 -12 -35 -3
-8 6 2 21 22 14 20 35 39 46 43 11 3 20 10 20 15 0 5 -8 6 -17 3 -16 -6 -16
-5 -4 10 11 14 11 18 -1 22 -8 3 -26 1 -40 -4 -14 -5 -28 -8 -30 -6 -2 2 -11
-10 -20 -26 -9 -16 -13 -29 -9 -29 5 0 12 7 15 16 3 8 11 12 17 8 8 -4 9 -3 5
4 -4 8 3 16 19 22 41 16 41 13 -4 -31 -26 -26 -47 -39 -57 -35 -8 3 -12 2 -9
-4 3 -6 -1 -10 -9 -10 -11 0 -16 14 -19 53 -3 43 -4 39 -5 -23 -1 -49 3 -85
12 -102 17 -32 14 -34 -19 -12 -21 13 -24 22 -21 62 2 26 4 63 5 83 1 27 9 45
33 68 28 28 33 29 48 16 9 -9 33 -14 56 -14 l39 2 -42 6 c-48 8 -63 18 -41 26
18 7 94 -18 91 -31 -1 -5 10 -9 23 -9 13 0 24 2 24 5 -1 11 -79 40 -121 45
-36 5 -48 2 -69 -17 -50 -46 -60 -69 -60 -142 0 -68 0 -69 -19 -50 -10 10 -17
20 -16 22 2 2 -1 19 -5 38 -8 32 -4 40 35 89 24 30 40 55 34 57 -7 2 -7 12 0
31 13 33 10 34 -28 1z m179 -148 c0 -3 -4 -8 -10 -11 -5 -3 -10 -1 -10 4 0 6
5 11 10 11 6 0 10 -2 10 -4z m-88 -118 l-9 -33 -17 33 c-17 32 -17 34 1 47 25
18 37 -3 25 -47z"/>
<path d="M1382 1397 c39 -23 58 -53 58 -90 0 -17 2 -19 9 -8 7 11 11 4 17 -25
4 -21 7 -51 7 -66 0 -15 7 -30 15 -33 21 -8 113 38 140 70 12 14 26 25 30 25
5 0 25 -16 45 -35 20 -19 42 -35 49 -34 8 0 5 5 -6 12 -10 7 -32 24 -48 40
-36 34 -49 34 -86 -3 -23 -22 -40 -30 -69 -31 -32 -1 -34 -2 -13 -8 22 -6 23
-8 7 -14 -31 -12 -34 -9 -47 41 -32 117 -78 183 -127 182 -12 -1 -5 -8 19 -23z"/>
<path d="M2087 1409 c7 -7 15 -10 18 -7 3 3 -2 9 -12 12 -14 6 -15 5 -6 -5z"/>
<path d="M2155 1410 c-3 -5 1 -10 10 -10 9 0 13 5 10 10 -3 6 -8 10 -10 10 -2
0 -7 -4 -10 -10z"/>
<path d="M313 1398 c2 -7 12 -11 23 -10 10 2 24 -4 31 -14 11 -16 13 -16 13
-2 0 19 -5 23 -43 32 -22 5 -28 4 -24 -6z"/>
<path d="M748 1405 c-3 -6 0 -16 8 -23 9 -8 14 -9 14 -2 0 7 12 9 35 4 24 -4
35 -2 35 6 0 7 -8 9 -20 5 -12 -4 -20 -2 -20 5 0 7 -6 8 -19 0 -14 -7 -21 -6
-23 2 -3 7 -7 8 -10 3z"/>
<path d="M1185 1400 c-3 -5 -13 -6 -22 -3 -10 4 -14 2 -10 -4 9 -14 56 -23 63
-12 3 5 -2 9 -11 9 -9 0 -13 5 -10 10 3 6 4 10 1 10 -3 0 -7 -4 -11 -10z"/>
<path d="M2 1235 c1 -123 4 -160 10 -135 10 38 13 110 8 180 -2 25 -1 54 3 66
4 12 1 28 -8 40 -13 17 -14 1 -13 -151z"/>
<path d="M1240 1396 c0 -9 39 -13 51 -5 10 6 4 9 -18 9 -18 0 -33 -2 -33 -4z"/>
<path d="M2213 1393 c9 -2 23 -2 30 0 6 3 -1 5 -18 5 -16 0 -22 -2 -12 -5z"/>
<path d="M2681 1383 c-16 -18 -6 -30 12 -15 17 15 27 6 27 -24 0 -13 5 -26 10
-29 6 -4 10 6 10 23 0 39 -38 67 -59 45z"/>
<path d="M421 1374 c8 -10 16 -11 30 -3 26 13 24 16 -11 16 -23 0 -27 -3 -19
-13z"/>
<path d="M2268 1383 c7 -3 16 -2 19 1 4 3 -2 6 -13 5 -11 0 -14 -3 -6 -6z"/>
<path d="M2320 1380 c34 -11 60 -11 35 0 -11 5 -29 8 -40 8 -16 0 -15 -2 5 -8z"/>
<path d="M2035 1370 c-3 -6 1 -7 9 -4 18 7 21 14 7 14 -6 0 -13 -4 -16 -10z"/>
<path d="M2827 1365 c-5 -10 -3 -14 5 -9 8 5 9 -6 6 -39 -3 -26 -2 -44 3 -41
11 7 11 75 0 92 -7 11 -9 10 -14 -3z"/>
<path d="M42 1358 c5 -14 58 -30 58 -17 0 5 -12 9 -26 9 -14 0 -23 4 -19 10 3
6 1 10 -5 10 -7 0 -10 -5 -8 -12z"/>
<path d="M330 1350 c6 -11 13 -20 16 -20 3 0 2 5 -2 11 -3 6 0 15 7 20 10 6 8
9 -9 9 -20 0 -21 -3 -12 -20z"/>
<path d="M1311 1354 c0 -11 3 -14 6 -6 3 7 2 16 -1 19 -3 4 -6 -2 -5 -13z"/>
<path d="M1810 1360 c0 -5 7 -7 15 -4 8 4 15 8 15 10 0 2 -7 4 -15 4 -8 0 -15
-4 -15 -10z"/>
<path d="M1913 1356 c-4 -7 -23 -21 -41 -30 -19 -10 -32 -20 -29 -23 9 -9 59
21 75 45 8 12 12 22 9 22 -3 0 -10 -6 -14 -14z"/>
<path d="M2946 1355 c-3 -9 -6 -26 -5 -38 1 -14 4 -9 9 13 9 37 7 52 -4 25z"/>
<path d="M1061 1290 c-1 -53 4 -82 15 -98 17 -24 4 -31 -16 -7 -7 8 -18 15
-26 15 -7 0 -19 6 -26 13 -17 16 -83 21 -106 8 -12 -8 -13 -10 -3 -11 8 0 -2
-14 -22 -31 -42 -36 -45 -44 -16 -46 14 -1 19 3 15 12 -6 17 19 39 35 29 7 -4
9 -3 6 3 -4 6 0 18 7 28 13 18 16 18 72 -5 33 -13 66 -29 75 -37 9 -7 19 -10
22 -6 4 3 8 -1 8 -10 1 -9 3 -21 4 -27 1 -5 3 -29 4 -53 1 -32 5 -44 16 -44
17 0 20 13 5 22 -6 4 -9 28 -6 56 2 27 0 49 -6 49 -5 0 -6 5 -2 12 4 6 3 8 -3
5 -14 -9 -26 64 -13 77 13 13 13 26 0 26 -5 0 -14 -15 -19 -32 l-9 -33 -1 31
c-1 16 3 34 7 40 5 5 3 27 -4 49 l-12 40 -1 -75z"/>
<path d="M2870 1336 c0 -31 6 -34 13 -6 3 11 1 23 -4 26 -5 3 -9 -6 -9 -20z"/>
<path d="M370 1341 c0 -6 4 -13 10 -16 6 -3 7 1 4 9 -7 18 -14 21 -14 7z"/>
<path d="M1397 1336 c-4 -9 -2 -18 4 -22 7 -4 8 -29 4 -69 -4 -34 -3 -65 1
-68 5 -3 9 32 9 78 0 82 -7 111 -18 81z"/>
<path d="M144 1328 c-6 -10 24 -9 51 2 16 6 14 8 -13 7 -18 0 -35 -4 -38 -9z"/>
<path d="M1194 1321 c0 -11 3 -18 7 -15 4 2 10 -2 12 -8 3 -7 6 -8 6 -2 1 5
-5 18 -12 28 -12 16 -13 16 -13 -3z"/>
<path d="M1660 1321 c-26 -11 -47 -26 -49 -37 -3 -17 -2 -17 14 0 25 25 65 38
95 32 14 -3 19 -3 12 0 -6 3 -10 10 -6 15 8 14 -16 10 -66 -10z"/>
<path d="M2815 1329 c-4 -6 -5 -12 -2 -15 2 -3 7 2 10 11 7 17 1 20 -8 4z"/>
<path d="M422 1325 c10 -10 49 -14 43 -4 -4 5 -16 9 -27 9 -12 0 -19 -2 -16
-5z"/>
<path d="M2145 1306 c10 -14 19 -26 22 -26 7 0 -17 39 -28 46 -6 3 -3 -5 6
-20z"/>
<path d="M781 1275 c-11 -19 -19 -35 -17 -35 2 0 16 16 30 35 15 19 23 35 17
35 -5 0 -18 -16 -30 -35z"/>
<path d="M2061 1275 c24 -19 47 -35 52 -35 4 0 7 -4 7 -10 0 -5 -12 -10 -27
-10 -25 0 -26 -1 -8 -14 17 -12 21 -12 32 4 18 25 9 42 -32 64 -19 11 -35 23
-35 28 0 4 -7 8 -16 8 -10 0 0 -14 27 -35z"/>
<path d="M1947 1272 c-10 -10 -17 -23 -18 -28 0 -5 -16 -22 -35 -38 -37 -30
-62 -29 -71 4 -3 11 -9 17 -15 14 -5 -3 -6 6 -3 23 3 15 2 22 -1 15 -5 -10 -9
-9 -20 5 -17 23 -17 8 0 -41 16 -47 54 -70 97 -61 16 4 29 11 29 16 0 6 -5 7
-12 3 -7 -4 -8 -3 -4 5 4 6 11 9 16 6 4 -3 15 6 24 20 9 14 23 36 32 50 19 29
5 34 -19 7z"/>
<path d="M2641 1269 c0 -13 3 -18 6 -10 5 11 7 11 14 0 5 -8 9 -9 9 -3 0 6 -7
17 -15 24 -13 10 -15 9 -14 -11z"/>
<path d="M2865 1270 c-3 -6 1 -7 9 -4 18 7 21 14 7 14 -6 0 -13 -4 -16 -10z"/>
<path d="M2913 1273 c-24 -8 -13 -23 13 -19 15 3 28 7 31 9 6 7 -30 14 -44 10z"/>
<path d="M2280 1256 c0 -2 7 -7 16 -10 8 -3 12 -2 9 4 -6 10 -25 14 -25 6z"/>
<path d="M1835 1240 c3 -5 11 -10 16 -10 6 0 7 5 4 10 -3 6 -11 10 -16 10 -6
0 -7 -4 -4 -10z"/>
<path d="M2689 1233 c-13 -17 -13 -17 6 -3 11 8 22 16 24 17 2 2 0 3 -6 3 -6
0 -17 -8 -24 -17z"/>
<path d="M2805 1241 c-3 -5 0 -13 6 -17 7 -4 9 -3 5 4 -3 5 0 13 6 15 9 4 10
6 1 6 -6 1 -14 -3 -18 -8z"/>
<path d="M600 1230 c-8 -5 -12 -12 -9 -15 4 -3 12 1 19 10 14 17 11 19 -10 5z"/>
<path d="M1325 1230 c-3 -5 0 -10 8 -10 8 0 20 -7 27 -15 7 -8 18 -15 24 -14
7 0 7 2 -1 5 -7 3 -9 13 -6 22 4 14 3 15 -6 2 -8 -12 -11 -12 -17 3 -7 19 -20
22 -29 7z"/>
<path d="M2641 1224 c0 -11 3 -14 6 -6 3 7 2 16 -1 19 -3 4 -6 -2 -5 -13z"/>
<path d="M2869 1213 l-24 -26 27 19 c15 10 28 22 28 27 0 12 -5 8 -31 -20z"/>
<path d="M2617 1210 c-3 -11 -1 -20 4 -20 5 0 9 9 9 20 0 11 -2 20 -4 20 -2 0
-6 -9 -9 -20z"/>
<path d="M1640 1204 c0 -10 5 -26 10 -34 8 -11 9 -7 4 15 -8 37 -14 45 -14 19z"/>
<path d="M2030 1210 c-8 -5 -10 -10 -5 -10 6 0 17 5 25 10 8 5 11 10 5 10 -5
0 -17 -5 -25 -10z"/>
<path d="M158 1203 c7 -3 16 -2 19 1 4 3 -2 6 -13 5 -11 0 -14 -3 -6 -6z"/>
<path d="M1126 1193 c-6 -14 -5 -15 5 -6 7 7 10 15 7 18 -3 3 -9 -2 -12 -12z"/>
<path d="M2124 1193 c-10 -15 -3 -29 39 -82 42 -54 77 -128 77 -162 0 -5 -9
-13 -21 -19 -15 -9 -24 -8 -36 2 -9 7 -18 12 -20 11 -14 -11 -56 2 -84 26 -18
17 -36 27 -39 24 -11 -11 65 -62 101 -68 46 -8 57 -21 36 -42 -18 -18 -41 -8
-33 16 5 12 2 11 -9 -3 -10 -14 -12 -23 -4 -32 7 -8 7 -14 -1 -19 -6 -4 -9
-13 -6 -20 3 -9 -2 -11 -17 -8 -20 4 -20 3 -4 -7 19 -12 37 -6 37 14 0 18 37
49 49 42 5 -4 13 4 17 16 17 54 159 190 178 171 4 -4 0 6 -8 22 -9 17 -16 38
-16 48 0 11 -5 15 -11 11 -8 -4 -8 0 0 15 11 19 9 21 -16 22 -15 1 -39 0 -53
0 -14 -1 -52 7 -84 19 -33 11 -60 20 -60 20 -1 0 -6 -8 -12 -17z m77 -20 c30
-10 71 -18 92 -18 25 1 37 -4 37 -13 0 -7 7 -20 15 -28 16 -16 20 -44 7 -44
-4 0 -20 -11 -35 -25 -15 -14 -27 -22 -27 -18 0 4 -9 -7 -20 -24 -11 -18 -22
-33 -25 -33 -4 0 -3 5 0 10 4 6 1 17 -5 25 -6 8 -9 18 -6 24 3 5 0 12 -6 15
-9 3 -6 11 11 25 13 12 18 21 13 21 -6 0 -14 -4 -17 -10 -3 -5 -11 -10 -17
-10 -6 0 -5 6 3 16 12 14 11 16 -6 12 -20 -4 -33 9 -68 65 -21 32 -17 32 54
10z"/>
<path d="M2310 1104 c-7 -8 -20 -12 -27 -10 -10 4 -13 1 -8 -13 3 -12 0 -21
-10 -25 -8 -3 -15 -11 -15 -17 0 -8 7 -6 23 4 12 8 22 19 22 25 0 6 4 14 9 19
5 5 6 3 2 -4 -4 -7 -2 -13 4 -13 7 0 10 7 7 14 -4 10 -1 13 9 9 7 -3 14 0 14
5 0 19 -17 22 -30 6z"/>
<path d="M1586 1174 c-4 -14 -5 -29 -2 -31 3 -3 8 7 12 21 3 15 4 29 1 32 -2
3 -8 -7 -11 -22z"/>
<path d="M2890 1189 c0 -5 5 -7 10 -4 6 3 10 8 10 11 0 2 -4 4 -10 4 -5 0 -10
-5 -10 -11z"/>
<path d="M1269 1173 c-13 -16 -12 -17 4 -4 9 7 17 15 17 17 0 8 -8 3 -21 -13z"/>
<path d="M1716 1177 c3 -10 9 -15 12 -12 3 3 0 11 -7 18 -10 9 -11 8 -5 -6z"/>
<path d="M2816 1175 c-4 -10 -2 -14 5 -9 6 4 15 0 21 -7 7 -11 8 -10 6 5 -4
25 -24 32 -32 11z"/>
<path d="M999 1162 c9 -7 -2 -10 -39 -10 -28 0 -56 -4 -62 -10 -6 -6 9 -9 48
-7 35 2 64 -1 73 -8 12 -9 13 -9 7 1 -5 8 1 15 16 21 23 10 23 10 1 10 -12 1
-30 4 -40 7 -14 4 -15 4 -4 -4z"/>
<path d="M1451 1164 c-1 -7 -10 -14 -21 -17 -11 -3 -20 -12 -20 -20 0 -12 7
-11 40 5 22 11 40 25 40 30 0 6 -5 6 -14 -1 -11 -9 -15 -9 -19 1 -3 8 -6 8 -6
2z"/>
<path d="M1696 1141 c4 -18 2 -37 -5 -45 -9 -11 -8 -15 4 -20 9 -3 14 -2 11 3
-3 5 8 14 24 20 37 12 93 51 86 59 -3 2 -12 -1 -21 -8 -12 -10 -18 -10 -32 1
-16 13 -17 12 -5 -3 11 -14 9 -18 -18 -31 -30 -15 -30 -15 -30 13 0 16 -4 32
-10 35 -6 4 -7 -6 -4 -24z"/>
<path d="M1930 1160 c-9 -6 -10 -10 -3 -10 6 0 15 5 18 10 8 12 4 12 -15 0z"/>
<path d="M2927 1156 c-11 -8 -24 -13 -30 -12 -7 2 -9 1 -4 -1 4 -3 4 -9 1 -15
-4 -6 -12 -1 -20 13 -7 13 -14 18 -15 12 -1 -7 -2 -18 -3 -24 0 -6 -17 -19
-36 -28 -27 -13 -34 -22 -32 -39 2 -17 -2 -22 -17 -22 -12 0 -21 -5 -21 -11 0
-6 -12 -26 -27 -44 -54 -63 -68 -80 -68 -85 0 -3 -4 -10 -8 -17 -4 -6 -3 -14
3 -18 6 -4 16 7 23 24 10 24 79 91 94 91 14 0 29 -28 25 -45 -3 -11 -3 -18 -1
-15 2 3 13 16 24 29 16 20 17 23 4 18 -23 -8 -62 36 -46 52 13 13 30 15 23 2
-4 -5 -3 -11 1 -14 5 -2 1 -2 -7 0 -12 3 -12 2 -3 -8 10 -10 32 -9 105 4 50 9
96 21 101 26 5 5 -24 3 -64 -5 -41 -8 -83 -14 -94 -14 -17 0 -17 2 -5 14 27
25 114 66 142 66 16 0 28 5 28 10 0 20 -50 9 -114 -24 -59 -31 -88 -33 -71 -6
13 21 135 72 160 68 20 -4 25 -2 23 11 -4 21 -48 25 -71 7z"/>
<path d="M103 1153 c9 -2 23 -2 30 0 6 3 -1 5 -18 5 -16 0 -22 -2 -12 -5z"/>
<path d="M195 1147 c-35 -19 -46 -40 -40 -80 3 -20 2 -37 -2 -36 -30 5 -53
-24 -30 -37 7 -4 9 -4 5 1 -4 4 -3 14 3 22 10 11 18 9 48 -8 31 -18 33 -18 13
-2 -19 16 -23 27 -20 59 3 36 6 40 38 45 47 9 74 -18 68 -66 -4 -32 -3 -33 13
-19 15 13 18 13 26 1 4 -8 24 -22 43 -31 33 -16 32 -14 -15 28 -27 25 -49 51
-47 57 11 45 -59 91 -103 66z"/>
<path d="M1305 1150 c-3 -5 -1 -10 5 -10 6 0 10 -8 8 -17 -2 -11 8 -23 27 -32
17 -8 35 -21 42 -30 11 -14 12 -14 13 -1 0 8 -14 23 -30 32 -17 9 -35 29 -40
43 -10 27 -16 30 -25 15z"/>
<path d="M2010 1156 c0 -2 7 -6 15 -10 8 -3 15 -1 15 4 0 6 -7 10 -15 10 -8 0
-15 -2 -15 -4z"/>
<path d="M48 1143 c6 -2 18 -2 25 0 6 3 1 5 -13 5 -14 0 -19 -2 -12 -5z"/>
<path d="M386 1142 c-3 -5 -5 -35 -5 -66 1 -41 6 -62 19 -74 24 -24 70 -106
70 -126 0 -9 4 -15 9 -11 24 14 -31 -212 -55 -230 -9 -6 -14 -15 -12 -20 9
-29 -128 -178 -216 -233 -25 -16 -42 -33 -38 -37 4 -5 2 -5 -5 -1 -7 4 -29 -4
-50 -18 -21 -14 -51 -28 -66 -32 -15 -3 -26 -9 -23 -12 3 -3 1 -11 -5 -19 -18
-21 -4 -16 94 33 102 51 119 62 112 75 -7 10 26 28 41 22 6 -2 34 19 63 46 64
61 152 201 109 175 -7 -4 -8 -3 -4 5 4 6 11 9 15 6 13 -7 51 125 52 180 0 39
2 46 10 30 7 -16 8 -14 4 10 -6 28 -63 130 -93 166 -12 14 -29 120 -18 108 26
-27 86 -106 86 -112 0 -5 -9 -7 -20 -4 -11 3 -18 1 -14 -4 3 -5 17 -9 31 -9
19 0 24 -4 19 -16 -3 -8 -2 -12 4 -9 5 3 14 -4 20 -16 10 -17 8 -23 -7 -35
-17 -14 -17 -14 4 -5 18 9 23 8 28 -8 3 -10 15 -27 26 -37 20 -18 19 -18 -13
-29 -18 -6 -32 -16 -31 -23 2 -7 -3 -12 -10 -12 -9 0 -14 -14 -15 -37 -2 -71
-4 -84 -10 -78 -3 3 -16 -21 -28 -53 -29 -77 -65 -135 -125 -199 -27 -28 -49
-50 -49 -47 0 3 -9 0 -20 -6 -14 -8 -20 -8 -20 0 0 6 -5 8 -11 4 -8 -5 -8 -9
1 -14 14 -9 -15 -28 -150 -99 l-92 -48 56 3 c31 2 56 -1 56 -6 0 -5 13 -1 30
8 16 9 30 21 30 26 0 4 -11 1 -24 -7 -22 -15 -49 -17 -61 -5 -3 3 7 11 22 17
15 6 59 33 98 61 38 27 72 45 73 40 2 -6 -1 -17 -7 -24 -9 -10 -5 -13 18 -12
26 1 27 2 14 23 -15 22 -5 37 19 28 7 -3 22 2 33 10 19 15 19 16 -3 5 -36 -18
-39 -3 -3 17 17 10 31 26 31 37 0 15 3 16 15 6 13 -11 15 -7 15 25 0 30 3 36
16 31 12 -4 14 -1 9 14 -4 13 0 23 13 31 11 7 18 19 15 26 -3 7 0 13 7 13 6 0
9 4 5 9 -3 5 0 13 6 16 5 4 8 14 5 22 -6 16 10 43 25 43 4 0 6 -46 4 -102 -4
-93 -6 -103 -30 -125 -14 -13 -25 -29 -25 -34 0 -6 -9 -23 -21 -37 -41 -54
-68 -102 -59 -107 4 -3 19 -1 32 4 12 6 19 10 13 11 -5 0 -3 5 5 10 24 15 32
12 20 -9 -14 -26 -13 -31 6 -31 10 0 14 7 12 23 -2 13 2 21 10 20 6 -2 12 2
12 8 0 7 -12 10 -30 7 -26 -4 -29 -2 -28 19 3 25 18 32 18 8 0 -8 5 -15 11
-15 5 0 7 5 4 10 -3 6 -1 10 4 10 6 0 11 20 11 44 0 36 4 46 20 51 11 3 20 12
20 18 0 7 4 6 10 -3 9 -13 11 -13 20 0 5 8 10 24 10 35 -1 19 -1 19 -15 1 -12
-16 -14 -8 -12 68 1 47 5 86 10 86 15 0 18 -28 9 -79 -7 -41 -7 -51 4 -51 9 0
14 12 14 34 0 34 1 35 48 41 26 3 56 10 67 15 14 6 6 7 -24 3 -36 -5 -43 -4
-36 8 5 8 0 7 -12 -4 -29 -25 -46 -22 -41 7 3 16 0 27 -10 31 -27 10 -8 13 36
5 31 -5 42 -4 39 4 -3 7 10 11 37 11 32 0 41 4 41 17 0 9 4 20 8 25 5 4 7 2 5
-6 -5 -24 45 -19 56 5 l10 21 45 -20 c25 -11 47 -24 49 -28 2 -5 12 -9 22 -9
10 0 20 -3 23 -7 2 -5 2 -3 1 4 -2 6 4 14 12 17 8 3 14 19 14 36 0 31 53 114
100 155 34 30 80 138 51 120 -5 -3 -12 -18 -16 -34 -3 -16 -18 -39 -32 -52
-57 -54 -107 -122 -112 -156 -7 -41 -29 -60 -57 -49 -18 8 -18 9 4 17 26 10
29 31 6 50 -9 7 -20 24 -25 37 -6 16 -15 22 -31 20 -15 -2 -23 2 -23 12 0 37
-68 90 -114 90 -26 0 -51 -10 -51 -21 0 -13 -37 -48 -44 -42 -3 4 -6 -1 -6
-10 0 -9 5 -19 12 -23 7 -4 8 -3 4 4 -4 7 -1 12 9 12 11 0 15 5 11 15 -3 8 -1
15 4 15 6 0 10 -5 10 -11 0 -6 12 -1 26 10 21 16 30 18 52 10 15 -6 35 -17 44
-26 16 -14 14 -18 -25 -50 -47 -38 -87 -83 -87 -98 0 -5 14 8 31 29 22 26 38
36 50 33 11 -3 17 -2 14 3 -3 4 5 20 16 35 16 19 25 23 33 15 6 -6 11 -15 11
-21 0 -5 5 -9 10 -8 6 1 9 6 7 12 -2 6 6 3 17 -7 24 -22 29 -35 6 -16 -23 19
-18 2 6 -23 12 -12 18 -15 14 -7 -6 12 -5 13 5 3 12 -11 11 -15 -5 -27 -17
-12 -25 -12 -55 0 -19 8 -38 20 -42 27 -5 8 -8 4 -8 -10 0 -12 -5 -25 -12 -29
-8 -5 -9 -1 -5 12 7 18 6 18 -7 2 -7 -10 -22 -18 -33 -18 -11 0 -26 -6 -32
-14 -6 -8 -33 -17 -59 -20 -26 -4 -54 -9 -63 -12 -9 -2 -26 4 -38 15 -21 19
-21 19 -4 72 10 29 23 54 28 56 13 4 6 -90 -7 -98 -5 -3 -3 -9 6 -12 13 -5 16
2 16 47 0 47 3 54 22 59 21 6 21 7 4 26 -11 13 -16 27 -12 38 4 9 4 15 1 11
-10 -10 -45 30 -45 52 0 11 -5 20 -11 20 -6 0 -9 7 -6 14 4 10 1 13 -9 9 -10
-3 -14 2 -14 18 0 12 -3 20 -6 16 -7 -7 -54 46 -54 62 0 6 5 11 10 11 6 0 10
4 10 9 0 5 -11 8 -25 5 -27 -5 -32 5 -13 24 9 9 7 12 -9 12 -12 0 -24 -4 -27
-8z m314 -226 c0 -2 -7 -7 -16 -10 -8 -3 -12 -2 -9 4 6 10 25 14 25 6z m114
-52 c5 -14 4 -15 -9 -4 -17 14 -19 20 -6 20 5 0 12 -7 15 -16z m-609 -504 c-3
-5 -11 -10 -16 -10 -6 0 -7 5 -4 10 3 6 11 10 16 10 6 0 7 -4 4 -10z"/>
<path d="M571 1142 c-1 -8 13 -43 29 -79 17 -35 30 -71 30 -79 0 -8 5 -14 11
-14 13 0 5 26 -37 115 -18 39 -33 64 -33 57z"/>
<path d="M1223 1143 c9 -2 25 -2 35 0 9 3 1 5 -18 5 -19 0 -27 -2 -17 -5z"/>
<path d="M2736 1119 c-8 -41 -3 -46 14 -14 9 18 10 29 3 36 -7 7 -12 0 -17
-22z"/>
<path d="M2806 1134 c-8 -20 -8 -24 2 -24 4 0 8 9 9 20 2 24 -3 26 -11 4z"/>
<path d="M510 1135 c0 -15 18 -40 24 -34 3 3 -1 14 -9 25 -8 10 -14 15 -15 9z"/>
<path d="M1664 1118 c-4 -13 -7 -42 -7 -65 -1 -23 -4 -40 -8 -38 -3 3 -15 -5
-25 -17 -11 -12 -13 -18 -6 -14 7 4 12 2 12 -7 0 -8 -10 -19 -22 -26 -17 -8
-18 -10 -4 -6 19 6 19 5 1 -15 -10 -11 -30 -20 -44 -21 -28 -1 -23 -3 23 -14
l29 -6 -28 -29 c-25 -26 -26 -31 -14 -47 12 -15 12 -16 -3 -10 -10 3 -18 2
-18 -3 0 -6 -5 -10 -11 -10 -7 0 -9 9 -5 23 4 17 -1 30 -19 47 -14 13 -25 18
-25 12 0 -7 -7 -12 -16 -12 -12 0 -14 -5 -9 -17 4 -10 10 -31 13 -46 4 -28 6
-29 48 -22 27 4 44 2 44 -4 0 -5 -5 -11 -11 -13 -7 -2 -5 -9 5 -18 10 -7 16
-9 15 -4 -3 20 1 45 9 41 4 -3 8 6 8 19 1 13 -2 24 -7 24 -12 0 -11 27 1 35 6
4 9 1 8 -6 -2 -6 3 -14 10 -16 8 -3 12 9 12 41 0 46 25 126 40 126 12 0 21 60
11 79 -6 10 -5 23 1 35 5 9 8 20 5 23 -3 2 -9 -6 -13 -19z m-146 -285 c6 -19
-25 -16 -32 3 -4 11 -1 14 11 12 9 -2 18 -9 21 -15z m2 -38 c0 -9 -6 -12 -15
-9 -8 4 -15 10 -15 15 0 5 7 9 15 9 8 0 15 -7 15 -15z"/>
<path d="M1900 1106 c19 -32 67 -82 59 -61 -8 19 -64 94 -71 95 -4 0 2 -15 12
-34z"/>
<path d="M482 1120 c16 -65 32 -110 40 -110 6 0 7 8 3 18 -4 9 -10 26 -13 37
-7 24 -35 76 -30 55z"/>
<path d="M660 1120 c0 -5 5 -10 11 -10 5 0 7 5 4 10 -3 6 -8 10 -11 10 -2 0
-4 -4 -4 -10z"/>
<path d="M960 1119 c-12 -9 -12 -10 4 -5 10 4 26 1 35 -6 14 -12 14 -11 2 5
-16 20 -21 21 -41 6z"/>
<path d="M1455 1110 c-3 -5 -15 -10 -26 -10 -14 0 -19 -7 -19 -26 0 -29 -18
-67 -28 -60 -4 2 -8 -4 -8 -14 0 -14 3 -16 13 -8 26 21 26 -23 -1 -71 -29 -54
-31 -61 -16 -61 6 0 10 6 10 13 0 24 31 77 45 77 28 0 28 -24 1 -45 -16 -13
-31 -38 -36 -61 -13 -55 -12 -61 9 -67 14 -3 18 -1 14 9 -3 8 -9 14 -15 14 -5
0 -6 5 -3 10 12 20 36 9 46 -20 6 -16 15 -30 20 -30 12 0 11 4 -3 35 -6 14
-15 25 -19 25 -14 0 -19 33 -7 48 10 12 10 14 1 8 -7 -4 -13 -3 -13 2 0 15 28
23 32 10 3 -7 12 -9 23 -4 14 5 16 9 7 18 -7 7 -12 20 -12 30 0 10 -11 23 -24
28 -22 8 -24 14 -24 69 1 63 16 80 37 44 9 -15 10 -12 11 15 0 33 -4 39 -15
22z"/>
<path d="M1255 1100 c-3 -5 -1 -10 4 -10 6 0 11 5 11 10 0 6 -2 10 -4 10 -3 0
-8 -4 -11 -10z"/>
<path d="M1777 1040 c-3 -41 -5 -76 -3 -77 7 -7 22 116 16 133 -4 10 -9 -14
-13 -56z"/>
<path d="M1978 1080 c-3 -17 -1 -33 4 -36 4 -3 8 10 9 28 l1 33 23 -48 c18
-39 23 -44 28 -27 3 11 2 20 -3 20 -4 0 -13 14 -20 30 -16 39 -36 38 -42 0z"/>
<path d="M562 1065 c2 -30 -2 -39 -12 -37 -11 3 -10 -1 3 -16 9 -10 26 -43 36
-73 11 -30 20 -45 20 -34 0 11 -7 38 -15 60 -21 57 -26 98 -11 88 9 -5 9 -3 1
8 -6 8 -14 21 -17 29 -4 8 -6 -3 -5 -25z"/>
<path d="M647 1080 c3 -11 7 -20 9 -20 2 0 4 9 4 20 0 11 -4 20 -9 20 -5 0 -7
-9 -4 -20z"/>
<path d="M690 1089 c0 -5 5 -7 10 -4 6 3 10 8 10 11 0 2 -4 4 -10 4 -5 0 -10
-5 -10 -11z"/>
<path d="M2757 1093 c-4 -3 -7 -11 -7 -17 0 -6 5 -5 12 2 6 6 9 14 7 17 -3 3
-9 2 -12 -2z"/>
<path d="M520 1076 c0 -8 4 -17 9 -20 5 -4 7 3 4 14 -6 23 -13 26 -13 6z"/>
<path d="M1010 1086 c0 -2 7 -6 15 -10 8 -3 15 -1 15 4 0 6 -7 10 -15 10 -8 0
-15 -2 -15 -4z"/>
<path d="M1180 1080 c-18 -12 -2 -12 25 0 13 6 15 9 5 9 -8 0 -22 -4 -30 -9z"/>
<path d="M1842 1070 c0 -14 2 -19 5 -12 2 6 2 18 0 25 -3 6 -5 1 -5 -13z"/>
<path d="M1135 1070 c-3 -5 -2 -10 4 -10 5 0 13 5 16 10 3 6 2 10 -4 10 -5 0
-13 -4 -16 -10z"/>
<path d="M1595 1059 c-25 -17 -41 -19 -99 -15 -80 6 -82 0 -3 -14 44 -9 63 -8
91 4 19 8 36 12 39 10 2 -3 7 4 10 16 6 24 1 24 -38 -1z"/>
<path d="M193 1056 c1 -11 9 -21 17 -23 10 -3 11 -2 4 4 -6 4 -14 15 -17 23
-5 11 -6 9 -4 -4z"/>
<path d="M860 1053 c0 -6 8 -17 18 -24 16 -13 16 -13 2 6 -8 11 -16 22 -17 24
-2 2 -3 0 -3 -6z"/>
<path d="M2893 1050 c-37 -15 -26 -18 30 -8 81 14 85 16 37 16 -25 0 -55 -3
-67 -8z"/>
<path d="M650 1041 c0 -11 29 -35 35 -29 2 2 -4 12 -15 21 -11 9 -20 13 -20 8z"/>
<path d="M1180 1041 c-14 -4 -26 -15 -28 -25 -3 -12 0 -16 7 -11 6 3 9 11 6
16 -4 5 3 9 14 9 12 0 21 -4 21 -10 0 -5 4 -10 8 -10 4 0 8 9 8 20 0 11 -3 20
-6 19 -3 -1 -16 -4 -30 -8z"/>
<path d="M1269 1039 c-22 -13 7 -17 31 -4 25 14 25 14 2 12 -12 -1 -28 -4 -33
-8z"/>
<path d="M920 1021 c0 -9 23 -22 51 -27 9 -2 16 3 16 10 0 8 -6 12 -13 9 -7
-2 -22 0 -33 7 -12 6 -21 7 -21 1z"/>
<path d="M1328 1023 c7 -3 16 -2 19 1 4 3 -2 6 -13 5 -11 0 -14 -3 -6 -6z"/>
<path d="M1590 1010 c0 -11 2 -20 4 -20 2 0 6 9 9 20 3 11 1 20 -4 20 -5 0 -9
-9 -9 -20z"/>
<path d="M1676 987 c-5 -30 -5 -52 2 -60 17 -21 27 -118 13 -127 -9 -5 -8 -9
5 -14 15 -6 16 0 10 66 -4 40 -11 98 -15 128 l-7 55 -8 -48z"/>
<path d="M1947 1009 c4 -13 8 -18 11 -10 2 7 -1 18 -6 23 -8 8 -9 4 -5 -13z"/>
<path d="M0 1013 c0 -4 5 -15 10 -23 8 -13 10 -13 10 2 0 9 -4 20 -10 23 -5 3
-10 3 -10 -2z"/>
<path d="M1496 1005 c4 -8 10 -12 15 -9 14 8 10 24 -6 24 -9 0 -12 -6 -9 -15z"/>
<path d="M1974 1008 c-3 -4 -2 -8 2 -8 5 0 -6 -15 -23 -32 -35 -38 -88 -126
-80 -134 3 -3 18 16 33 43 30 52 83 113 97 113 5 0 6 -11 3 -25 -4 -14 -3 -25
1 -25 5 0 8 -32 8 -70 0 -39 -3 -70 -7 -70 -4 0 -8 -5 -8 -11 0 -8 4 -8 13 -1
14 12 31 -3 55 -44 10 -16 11 -17 12 -2 0 9 -7 23 -15 31 -8 8 -11 17 -8 21 3
3 -2 8 -11 12 -14 5 -17 18 -15 68 2 71 -17 143 -38 143 -7 0 -16 -4 -19 -9z"/>
<path d="M1272 998 c2 -9 -8 -12 -32 -10 -26 1 -31 0 -20 -8 19 -12 60 -13 79
-1 11 7 9 11 -8 20 -17 9 -21 9 -19 -1z"/>
<path d="M1472 985 c0 -16 2 -22 5 -12 2 9 2 23 0 30 -3 6 -5 -1 -5 -18z"/>
<path d="M240 996 c0 -2 7 -7 16 -10 8 -3 12 -2 9 4 -6 10 -25 14 -25 6z"/>
<path d="M1164 989 c-3 -6 -1 -16 6 -22 10 -9 12 -8 7 5 -4 11 0 18 11 21 16
4 16 5 0 6 -9 0 -20 -4 -24 -10z"/>
<path d="M2320 985 c-14 -8 -20 -14 -15 -14 6 0 21 6 35 14 14 8 21 14 15 14
-5 0 -21 -6 -35 -14z"/>
<path d="M2497 980 c-3 -11 -1 -20 4 -20 5 0 9 2 9 4 0 2 3 11 6 20 3 9 2 16
-4 16 -5 0 -12 -9 -15 -20z"/>
<path d="M34 983 c4 -4 19 -9 34 -11 35 -4 25 5 -12 12 -16 3 -25 2 -22 -1z"/>
<path d="M310 987 c0 -2 15 -16 33 -33 l32 -29 -29 33 c-28 30 -36 37 -36 29z"/>
<path d="M1535 981 c-9 -16 18 -23 46 -12 16 6 18 10 7 10 -9 1 -23 4 -31 7
-8 3 -18 1 -22 -5z"/>
<path d="M1716 976 c3 -8 13 -17 22 -21 13 -5 13 -2 -3 15 -21 24 -26 25 -19
6z"/>
<path d="M990 971 c0 -6 4 -13 10 -16 6 -3 7 1 4 9 -7 18 -14 21 -14 7z"/>
<path d="M1040 966 c0 -8 4 -17 9 -20 5 -4 7 3 4 14 -6 23 -13 26 -13 6z"/>
<path d="M1320 970 c0 -5 9 -14 19 -19 14 -8 22 -7 31 4 9 11 9 15 1 15 -6 0
-11 -6 -11 -12 -1 -8 -6 -6 -14 5 -15 19 -26 22 -26 7z"/>
<path d="M2171 964 c0 -11 3 -14 6 -6 3 7 2 16 -1 19 -3 4 -6 -2 -5 -13z"/>
<path d="M1200 965 c0 -17 14 -32 47 -49 36 -18 83 -21 83 -6 0 6 -14 10 -31
10 -34 0 -68 15 -86 39 -7 9 -12 12 -13 6z"/>
<path d="M2856 953 c-6 -14 -5 -15 5 -6 7 7 10 15 7 18 -3 3 -9 -2 -12 -12z"/>
<path d="M2750 944 c0 -8 5 -12 10 -9 6 3 10 10 10 16 0 5 -4 9 -10 9 -5 0
-10 -7 -10 -16z"/>
<path d="M2895 955 c23 -8 85 -10 85 -3 0 4 -21 8 -47 7 -27 0 -43 -2 -38 -4z"/>
<path d="M390 939 c0 -5 5 -7 10 -4 6 3 10 8 10 11 0 2 -4 4 -10 4 -5 0 -10
-5 -10 -11z"/>
<path d="M910 936 c0 -18 27 -29 36 -14 4 5 0 14 -7 19 -20 13 -29 11 -29 -5z"/>
<path d="M1160 946 c0 -2 7 -9 15 -16 9 -7 15 -8 15 -2 0 5 -7 12 -15 16 -8 3
-15 4 -15 2z"/>
<path d="M1765 940 c3 -5 8 -10 11 -10 2 0 4 5 4 10 0 6 -5 10 -11 10 -5 0 -7
-4 -4 -10z"/>
<path d="M1981 934 c0 -11 3 -14 6 -6 3 7 2 16 -1 19 -3 4 -6 -2 -5 -13z"/>
<path d="M985 930 c3 -5 8 -10 11 -10 2 0 4 5 4 10 0 6 -5 10 -11 10 -5 0 -7
-4 -4 -10z"/>
<path d="M2057 888 c3 -29 10 -62 15 -73 7 -16 8 -15 4 8 -3 26 -1 28 20 23
32 -8 31 8 -2 23 -17 8 -24 17 -20 27 3 9 -1 22 -9 30 -12 13 -13 8 -8 -38z"/>
<path d="M1508 923 c6 -2 18 -2 25 0 6 3 1 5 -13 5 -14 0 -19 -2 -12 -5z"/>
<path d="M850 912 c0 -6 7 -17 15 -25 8 -8 11 -18 7 -22 -4 -5 -2 -5 4 -2 7 4
17 0 24 -8 7 -8 9 -15 5 -15 -5 0 -1 -8 8 -18 10 -10 14 -22 10 -26 -4 -4 0
-4 9 -1 16 6 16 9 -1 40 -19 35 -81 94 -81 77z"/>
<path d="M2735 909 c4 -5 0 -9 -8 -9 -28 0 -47 -46 -47 -115 0 -81 -15 -78
-24 5 -6 55 -9 61 -28 58 -40 -6 -109 -147 -107 -217 l1 -36 8 30 c6 24 8 26
9 8 0 -13 5 -23 10 -23 6 0 7 -24 4 -54 -5 -45 -2 -62 16 -91 27 -46 27 -60
-1 -41 -12 9 -34 16 -48 16 -14 0 -32 6 -39 13 -11 10 -12 8 -6 -11 4 -14 1
-30 -7 -40 -7 -10 -1 -7 16 6 30 23 73 31 60 10 -4 -7 -3 -8 5 -4 6 4 17 3 24
-2 7 -6 16 -10 20 -11 14 0 47 -68 47 -96 0 -16 6 -25 15 -25 8 0 15 5 15 11
0 5 -4 7 -10 4 -5 -3 -7 0 -4 8 2 7 -15 56 -40 107 -25 52 -43 97 -40 102 3 4
0 8 -5 8 -6 0 -11 7 -11 16 0 8 4 13 8 10 5 -3 6 12 2 32 -6 36 -4 38 58 87
l63 50 2 73 c3 94 15 107 100 107 34 0 96 -3 137 -8 45 -4 69 -3 61 2 -7 5
-61 12 -120 16 -58 4 -114 9 -124 11 -10 1 -15 -1 -12 -7z m-101 -134 c2 -17
7 -39 12 -49 6 -16 4 -18 -14 -14 -23 6 -31 -7 -9 -15 7 -4 6 -6 -4 -6 -9 -1
-20 -8 -23 -17 -4 -10 -12 -14 -22 -10 -12 5 -15 2 -10 -9 3 -9 2 -13 -4 -10
-21 13 -10 63 20 95 16 17 29 35 29 38 -1 4 -1 16 0 27 2 28 20 6 25 -30z"/>
<path d="M1131 905 c0 -5 11 -23 24 -40 14 -16 25 -25 25 -18 0 7 -11 25 -25
40 -13 15 -24 24 -24 18z"/>
<path d="M1515 901 c-3 -5 -1 -12 5 -16 5 -3 10 1 10 9 0 18 -6 21 -15 7z"/>
<path d="M1660 885 c7 -9 15 -13 17 -11 7 7 -7 26 -19 26 -6 0 -6 -6 2 -15z"/>
<path d="M1972 875 c0 -16 3 -39 8 -50 8 -18 9 -18 8 5 0 14 -4 36 -8 50 -8
24 -8 24 -8 -5z"/>
<path d="M1193 845 c0 -27 2 -38 4 -22 2 15 2 37 0 50 -2 12 -4 0 -4 -28z"/>
<path d="M1295 881 c-3 -5 -1 -12 5 -16 5 -3 10 1 10 9 0 18 -6 21 -15 7z"/>
<path d="M2259 871 c13 -24 71 -66 71 -51 0 6 -11 15 -25 22 -13 6 -22 15 -19
19 2 4 -5 13 -16 19 -20 11 -21 10 -11 -9z"/>
<path d="M2551 883 c9 -2 21 -14 27 -26 10 -21 11 -21 11 6 1 23 -3 27 -26 26
-16 -1 -21 -3 -12 -6z"/>
<path d="M510 866 c0 -2 11 -6 25 -8 13 -3 22 -1 19 3 -5 9 -44 13 -44 5z"/>
<path d="M1260 845 c0 -18 4 -23 15 -19 11 5 15 -2 16 -27 1 -19 1 -41 0 -49
-2 -13 0 -13 8 -1 13 20 1 81 -21 103 -17 17 -18 17 -18 -7z"/>
<path d="M2497 853 c-11 -10 -8 -20 9 -37 17 -17 64 -22 64 -7 0 5 -9 7 -20 4
-21 -6 -50 12 -50 30 0 5 10 2 23 -9 l22 -19 -19 23 c-22 25 -20 24 -29 15z"/>
<path d="M2989 788 c-1 -154 -7 -256 -16 -273 -6 -11 -8 -25 -6 -32 2 -6 -1
-14 -6 -18 -6 -3 -11 -15 -11 -25 0 -25 -41 -131 -49 -126 -3 2 -14 -2 -25 -9
-16 -12 -15 -13 15 -11 l34 3 36 114 c34 108 36 122 38 272 1 86 0 157 -3 157
-3 0 -6 -24 -7 -52z"/>
<path d="M1222 805 c0 -16 2 -22 5 -12 2 9 2 23 0 30 -3 6 -5 -1 -5 -18z"/>
<path d="M1316 815 c4 -8 10 -15 15 -15 4 0 6 7 3 15 -4 8 -10 15 -15 15 -4 0
-6 -7 -3 -15z"/>
<path d="M1361 813 c0 -13 -6 -23 -11 -23 -7 0 -7 -7 1 -21 6 -12 8 -36 5 -53
-5 -31 -5 -31 8 -6 9 17 11 40 6 75 -4 28 -8 40 -9 28z"/>
<path d="M1899 815 c-14 -8 -46 -13 -70 -11 -46 3 -69 -1 -69 -13 0 -7 102 -5
135 3 13 3 25 13 29 21 6 18 8 18 -25 0z"/>
<path d="M2845 819 c-4 -6 -4 -13 -1 -16 3 -4 6 -2 6 3 0 6 17 9 38 7 32 -2
33 -1 12 6 -35 13 -48 13 -55 0z"/>
<path d="M785 810 c3 -5 10 -10 16 -10 5 0 9 5 9 10 0 6 -7 10 -16 10 -8 0
-12 -4 -9 -10z"/>
<path d="M2298 801 c12 -12 22 -28 22 -36 0 -8 4 -15 9 -15 23 0 -1 45 -32 61
l-22 11 23 -21z"/>
<path d="M663 798 c3 -9 0 -22 -8 -28 -10 -8 -14 -8 -18 2 -2 7 -6 11 -9 8 -3
-3 1 -18 8 -35 9 -22 13 -25 14 -11 0 11 8 28 17 38 14 15 14 21 3 31 -10 10
-12 9 -7 -5z"/>
<path d="M600 747 l5 -52 3 44 c2 24 0 47 -5 52 -4 4 -6 -15 -3 -44z"/>
<path d="M1036 787 c3 -10 9 -15 12 -12 3 3 0 11 -7 18 -10 9 -11 8 -5 -6z"/>
<path d="M1640 793 c0 -15 88 -83 103 -79 7 1 8 1 4 -2 -10 -5 12 -32 26 -32
8 0 8 3 0 11 -6 6 -9 18 -6 25 3 9 -2 14 -13 14 -22 0 -83 36 -101 59 -7 10
-12 11 -13 4z"/>
<path d="M1965 790 c-3 -5 -1 -10 4 -10 6 0 11 5 11 10 0 6 -2 10 -4 10 -3 0
-8 -4 -11 -10z"/>
<path d="M1240 776 c0 -2 7 -7 16 -10 8 -3 12 -2 9 4 -6 10 -25 14 -25 6z"/>
<path d="M2097 773 c-4 -3 -7 -17 -7 -29 0 -13 -4 -25 -9 -28 -16 -10 -40 5
-44 27 -2 12 -5 -22 -6 -75 0 -53 -6 -108 -13 -122 -8 -19 -8 -32 0 -48 10
-21 11 -21 10 -3 -4 64 -2 65 48 48 30 -10 44 -20 40 -29 -3 -7 -1 -16 4 -19
6 -4 10 -31 10 -61 0 -42 -3 -53 -12 -48 -8 5 -7 0 2 -11 10 -12 10 -16 2 -11
-10 6 -11 1 -7 -21 12 -53 28 -73 67 -83 26 -8 38 -16 38 -29 0 -24 39 -101
40 -78 0 25 -68 167 -80 167 -5 0 -13 -8 -18 -17 -14 -24 -24 51 -14 97 4 19
4 55 0 80 -5 25 -11 65 -14 90 -3 25 -13 61 -23 80 -13 24 -17 49 -13 80 4 35
7 41 13 25 7 -19 8 -19 8 3 1 22 -9 29 -22 15z m-23 -99 c18 -7 22 -48 4 -42
-6 2 -15 14 -19 26 -9 24 -8 25 15 16z m18 -61 c7 2 10 2 6 0 -13 -7 -9 -25 9
-45 15 -16 15 -18 0 -18 -37 0 -66 22 -65 51 1 24 4 27 19 19 10 -6 24 -8 31
-7z m95 -318 c0 -8 -4 -15 -9 -15 -10 0 -11 14 -1 23 9 10 10 9 10 -8z"/>
<path d="M2370 759 c0 -11 -4 -18 -8 -15 -10 6 -5 -64 8 -111 8 -31 7 -32 -12
-22 -41 22 -113 15 -158 -15 -23 -15 -39 -30 -36 -33 3 -4 14 1 24 10 55 50
186 43 198 -11 3 -15 8 -36 11 -47 5 -18 5 -18 -20 -2 -34 22 -61 21 -114 -4
-46 -22 -58 -35 -20 -23 12 4 30 7 40 6 9 0 15 3 12 9 -4 5 -3 9 2 10 4 0 18
2 31 5 12 2 33 -3 46 -11 12 -8 26 -12 29 -8 4 3 7 -1 7 -10 0 -8 3 -23 7 -33
5 -13 3 -15 -7 -9 -30 18 -79 16 -100 -5 -11 -11 -20 -26 -20 -32 0 -7 11 0
25 15 14 15 31 27 37 27 7 0 -5 -17 -25 -38 -20 -21 -37 -44 -37 -52 0 -10 8
-6 23 11 36 42 72 59 109 53 18 -3 28 -2 23 3 -13 10 -38 98 -39 135 -1 14 -4
24 -8 21 -5 -2 -9 13 -10 34 -2 52 -2 56 -12 71 -4 7 -5 25 0 40 12 45 13 52
3 52 -5 0 -9 -9 -9 -21z"/>
<path d="M1330 750 c6 -11 13 -20 16 -20 2 0 0 9 -6 20 -6 11 -13 20 -16 20
-2 0 0 -9 6 -20z"/>
<path d="M1921 759 c-13 -5 -38 -16 -55 -24 -17 -7 -40 -16 -51 -18 -18 -4
-18 -5 3 -6 20 -1 18 -5 -20 -38 -24 -21 -45 -39 -47 -40 -2 -2 -2 -6 2 -9 3
-3 32 19 65 49 32 30 77 60 98 67 42 14 67 30 44 29 -8 0 -26 -5 -39 -10z"/>
<path d="M1005 751 c-3 -5 -1 -12 5 -16 5 -3 10 1 10 9 0 18 -6 21 -15 7z"/>
<path d="M1241 744 c0 -11 3 -14 6 -6 3 7 2 16 -1 19 -3 4 -6 -2 -5 -13z"/>
<path d="M1416 751 c-4 -5 -3 -17 1 -27 5 -13 3 -16 -10 -11 -34 13 -16 -3 43
-37 34 -20 71 -38 84 -42 22 -5 24 -2 28 38 3 24 2 47 -2 51 -4 4 -7 2 -7 -5
0 -21 -34 -69 -44 -62 -5 3 -9 11 -9 18 0 9 -9 12 -27 9 -23 -4 -25 -2 -13 7
13 10 12 11 -3 6 -26 -8 -41 3 -26 20 8 10 8 14 1 14 -6 0 -9 7 -6 15 7 16 -1
21 -10 6z"/>
<path d="M2770 756 c0 -8 100 -66 113 -66 6 0 2 6 -10 13 -73 41 -103 56 -103
53z"/>
<path d="M1472 725 c12 -28 16 -29 38 -15 13 8 12 10 -3 10 -10 0 -20 7 -23
15 -4 8 -10 15 -15 15 -5 0 -3 -11 3 -25z"/>
<path d="M1609 738 c-4 -61 -4 -119 2 -148 4 -23 7 -2 8 63 0 53 -1 97 -4 97
-3 0 -5 -6 -6 -12z"/>
<path d="M1956 715 c-11 -19 -22 -35 -27 -35 -13 0 -19 -29 -10 -52 7 -20 9
-19 15 14 7 41 32 69 41 47 6 -18 0 -97 -10 -126 -8 -25 -21 -30 -28 -10 -12
28 -6 -77 8 -150 20 -104 20 -154 0 -147 -11 4 -15 -1 -16 -17 0 -13 -3 -19
-5 -12 -4 8 -11 7 -25 -5 -25 -21 -25 -36 0 -22 11 5 27 10 36 10 24 0 48 28
61 71 12 40 8 178 -5 192 -5 5 -4 27 1 50 12 52 4 167 -12 177 -9 6 -9 13 -1
29 7 11 8 21 4 21 -5 0 -17 -16 -27 -35z m18 -262 c4 -37 3 -63 -2 -63 -5 0
-12 9 -15 20 -3 11 -1 18 4 14 5 -3 9 0 9 5 0 6 -5 11 -11 11 -7 0 -9 14 -5
38 3 20 5 39 6 41 1 18 9 -15 14 -66z"/>
<path d="M2130 736 c0 -9 5 -16 10 -16 6 0 10 -7 10 -15 0 -12 14 -15 73 -14
39 1 83 5 97 10 19 6 13 8 -27 6 -28 -1 -49 1 -47 4 2 4 -5 9 -17 12 -16 4
-18 3 -9 -8 9 -11 5 -13 -21 -11 -19 1 -39 12 -50 25 -15 18 -19 19 -19 7z"/>
<path d="M2446 735 c-9 -26 -7 -32 5 -12 6 10 9 21 6 23 -2 3 -7 -2 -11 -11z"/>
<path d="M1114 732 c4 -3 14 -7 22 -8 9 -1 13 0 10 4 -4 3 -14 7 -22 8 -9 1
-13 0 -10 -4z"/>
<path d="M2405 730 c-3 -6 1 -7 9 -4 18 7 21 14 7 14 -6 0 -13 -4 -16 -10z"/>
<path d="M1083 714 c-15 -16 -17 -40 -4 -49 5 -3 13 0 17 6 4 8 3 9 -4 5 -7
-4 -12 -1 -12 8 0 9 7 16 15 16 8 0 15 4 15 9 0 17 -15 19 -27 5z"/>
<path d="M1204 715 c4 -24 16 -30 16 -7 0 12 -4 22 -9 22 -5 0 -8 -7 -7 -15z"/>
<path d="M991 704 c0 -11 3 -14 6 -6 3 7 2 16 -1 19 -3 4 -6 -2 -5 -13z"/>
<path d="M1245 710 c-4 -6 -7 -25 -7 -43 -1 -17 -8 -43 -16 -57 l-14 -25 21
25 c11 14 21 34 22 45 1 11 3 30 4 43 2 24 0 28 -10 12z"/>
<path d="M1700 702 c0 -5 7 -9 15 -9 8 0 15 4 15 9 0 4 -7 8 -15 8 -8 0 -15
-4 -15 -8z"/>
<path d="M1374 691 c4 -5 0 -12 -6 -14 -10 -4 -9 -6 1 -6 8 -1 23 -9 34 -18
17 -15 16 -12 -3 15 -21 29 -39 45 -26 23z"/>
<path d="M2117 689 c7 -7 15 -10 18 -7 3 3 -2 9 -12 12 -14 6 -15 5 -6 -5z"/>
<path d="M2482 675 c0 -16 2 -22 5 -12 2 9 2 23 0 30 -3 6 -5 -1 -5 -18z"/>
<path d="M800 680 c0 -5 5 -10 10 -10 6 0 10 5 10 10 0 6 -4 10 -10 10 -5 0
-10 -4 -10 -10z"/>
<path d="M1289 678 c7 -9 9 -23 5 -30 -6 -10 -4 -11 7 0 11 10 10 15 -6 30
-17 15 -18 15 -6 0z"/>
<path d="M2305 680 c3 -5 13 -10 21 -10 8 0 12 5 9 10 -3 6 -13 10 -21 10 -8
0 -12 -4 -9 -10z"/>
<path d="M2439 673 c-13 -16 -12 -17 4 -4 16 13 21 21 13 21 -2 0 -10 -8 -17
-17z"/>
<path d="M737 661 c-6 -26 3 -72 14 -65 8 5 4 72 -4 81 -3 2 -7 -5 -10 -16z"/>
<path d="M1336 665 c-7 -19 3 -45 17 -45 7 0 7 4 -1 12 -7 7 -12 17 -12 23 1
5 17 -8 37 -30 20 -22 30 -32 24 -23 -7 9 -9 23 -5 29 4 7 3 9 -4 5 -6 -3 -19
5 -30 19 -16 20 -21 22 -26 10z"/>
<path d="M2233 673 c9 -2 23 -2 30 0 6 3 -1 5 -18 5 -16 0 -22 -2 -12 -5z"/>
<path d="M2694 664 c-18 -14 -18 -15 4 -4 13 6 30 9 38 6 8 -3 14 -1 14 4 0
15 -34 12 -56 -6z"/>
<path d="M1579 650 c-3 -14 0 -35 5 -48 7 -16 6 -33 0 -51 -10 -24 -9 -27 11
-27 12 0 22 6 22 13 0 7 -3 10 -6 7 -3 -3 -11 25 -17 63 -7 46 -12 60 -15 43z"/>
<path d="M2780 662 c0 -5 7 -9 15 -9 8 0 15 4 15 9 0 4 -7 8 -15 8 -8 0 -15
-4 -15 -8z"/>
<path d="M1160 635 c-16 -17 -19 -25 -9 -25 8 0 19 11 26 25 14 31 12 31 -17
0z"/>
<path d="M2320 650 c0 -5 5 -10 10 -10 6 0 10 5 10 10 0 6 -4 10 -10 10 -5 0
-10 -4 -10 -10z"/>
<path d="M796 637 c3 -10 9 -15 12 -12 3 3 0 11 -7 18 -10 9 -11 8 -5 -6z"/>
<path d="M825 640 c3 -5 8 -10 11 -10 2 0 4 5 4 10 0 6 -5 10 -11 10 -5 0 -7
-4 -4 -10z"/>
<path d="M990 636 c7 -7 13 -7 20 0 6 6 3 10 -10 10 -13 0 -16 -4 -10 -10z"/>
<path d="M1040 636 c0 -9 5 -16 10 -16 6 0 10 4 10 9 0 6 -4 13 -10 16 -5 3
-10 -1 -10 -9z"/>
<path d="M1202 630 c0 -14 2 -19 5 -12 2 6 2 18 0 25 -3 6 -5 1 -5 -13z"/>
<path d="M1458 644 c6 -3 9 -11 5 -16 -4 -7 1 -9 14 -6 11 3 28 -1 38 -8 10
-8 26 -14 34 -14 19 0 -44 35 -79 44 -14 3 -19 3 -12 0z"/>
<path d="M2245 640 c3 -5 11 -10 16 -10 6 0 7 5 4 10 -3 6 -11 10 -16 10 -6 0
-7 -4 -4 -10z"/>
<path d="M2853 635 c-9 -10 -6 -15 13 -24 31 -14 34 -14 34 0 0 5 -5 7 -10 4
-6 -3 -14 3 -18 13 -5 16 -9 17 -19 7z"/>
<path d="M951 624 c0 -11 3 -14 6 -6 3 7 2 16 -1 19 -3 4 -6 -2 -5 -13z"/>
<path d="M886 622 c-3 -5 1 -9 9 -9 8 0 12 4 9 9 -3 4 -7 8 -9 8 -2 0 -6 -4
-9 -8z"/>
<path d="M1275 611 c8 -26 -12 -74 -27 -65 -10 6 -10 4 -2 -7 7 -8 15 -29 19
-47 3 -18 10 -30 15 -27 5 3 13 -3 19 -12 10 -17 10 -17 11 0 0 9 -3 17 -7 17
-10 0 -33 49 -33 68 0 7 4 11 8 8 5 -3 10 15 10 39 1 27 -2 45 -9 45 -6 0 -8
-8 -4 -19z"/>
<path d="M1309 628 c-7 -23 -7 -87 0 -98 15 -23 23 -6 11 25 -9 25 -9 26 5 15
8 -7 12 -16 9 -21 -3 -5 0 -9 7 -9 8 0 8 -4 -1 -15 -10 -12 -10 -18 0 -29 9
-12 17 -13 38 -3 34 15 59 37 42 37 -7 0 -10 7 -6 15 6 17 -9 20 -20 4 -3 -6
0 -15 7 -20 11 -7 11 -9 -3 -9 -24 0 -31 16 -16 39 9 15 9 23 -2 36 -18 22
-35 4 -21 -23 6 -10 7 -22 4 -26 -9 -8 -35 32 -29 43 8 12 -3 41 -15 41 -5 0
-9 -1 -10 -2z m71 -56 c0 -15 -2 -15 -10 -2 -13 20 -13 33 0 25 6 -3 10 -14
10 -23z m-3 -58 c2 -5 -6 -10 -16 -11 -14 -1 -18 3 -14 13 6 16 25 14 30 -2z"/>
<path d="M1420 621 c0 -11 39 -41 53 -41 13 0 -12 29 -35 41 -12 6 -18 6 -18
0z"/>
<path d="M1640 615 c0 -8 2 -15 4 -15 2 0 6 7 10 15 3 8 1 15 -4 15 -6 0 -10
-7 -10 -15z"/>
<path d="M2797 619 c7 -7 15 -10 18 -7 3 3 -2 9 -12 12 -14 6 -15 5 -6 -5z"/>
<path d="M1488 615 c-3 -3 -2 -24 2 -46 5 -28 4 -39 -4 -36 -6 2 -11 9 -11 15
0 21 -14 24 -32 6 -17 -17 -17 -18 0 -11 11 4 20 1 23 -8 4 -8 12 -15 19 -15
8 0 17 -5 20 -10 4 -6 1 -9 -6 -8 -7 2 -15 -6 -17 -17 -2 -11 -15 -32 -28 -46
-19 -20 -33 -25 -60 -24 -19 2 -36 4 -37 6 -1 2 -14 26 -28 53 -14 28 -32 52
-40 55 -10 3 -9 -2 4 -20 10 -13 24 -38 31 -54 23 -49 49 -67 93 -63 21 2 37
8 36 13 -1 6 9 16 23 23 15 8 24 21 24 37 0 14 5 25 10 25 7 0 8 19 4 53 -7
55 -16 81 -26 72z"/>
<path d="M1821 604 c0 -11 3 -14 6 -6 3 7 2 16 -1 19 -3 4 -6 -2 -5 -13z"/>
<path d="M1885 609 c-4 -6 -5 -12 -2 -15 2 -3 7 2 10 11 7 17 1 20 -8 4z"/>
<path d="M2607 594 c-10 -13 -15 -29 -11 -35 4 -7 12 2 21 21 17 41 13 45 -10
14z"/>
<path d="M711 519 c2 -52 -3 -120 -10 -152 -14 -65 -8 -124 19 -176 15 -31 17
-32 22 -13 3 12 3 21 -1 20 -18 -2 -21 4 -7 18 9 8 16 30 15 47 -1 33 -3 30
-13 -15 -8 -33 -28 -38 -26 -5 1 12 1 24 0 27 -12 32 -8 61 10 72 11 7 20 22
20 32 0 20 0 20 -15 0 -19 -25 -19 -1 -1 41 8 19 10 38 5 53 -5 12 -4 33 1 48
14 37 12 70 -5 84 -14 11 -15 2 -14 -81z"/>
<path d="M780 600 c0 -5 5 -10 11 -10 5 0 7 5 4 10 -3 6 -8 10 -11 10 -2 0 -4
-4 -4 -10z"/>
<path d="M1024 596 c-15 -11 -22 -12 -33 -3 -12 9 -13 9 -7 0 7 -12 -5 -18
-27 -14 -5 1 -6 -3 -2 -9 3 -6 -4 -10 -17 -11 -13 0 -17 -3 -10 -6 6 -2 12
-10 12 -17 0 -7 9 -21 20 -31 24 -22 27 -9 3 17 -15 17 -15 21 -3 29 8 5 27
12 42 15 17 4 25 11 21 18 -4 6 0 6 9 -2 8 -7 23 -10 32 -6 11 4 15 2 11 -8
-5 -11 2 -15 27 -15 18 0 26 2 17 4 -10 2 -19 13 -22 24 -4 13 -10 17 -22 13
-9 -4 -20 -2 -24 5 -5 8 -12 7 -27 -3z"/>
<path d="M1685 600 c27 -12 43 -12 25 0 -8 5 -22 9 -30 9 -10 0 -8 -3 5 -9z"/>
<path d="M2674 602 c-19 -13 -25 -143 -7 -149 9 -3 10 4 3 27 -5 17 -6 41 -1
53 4 12 7 29 6 37 0 8 6 18 14 21 8 3 10 8 5 12 -6 3 -14 3 -20 -1z"/>
<path d="M810 592 c0 -18 61 -60 80 -55 32 8 23 23 -10 17 -20 -4 -30 -2 -30
5 0 8 8 10 20 6 11 -3 20 -3 20 2 0 5 -10 9 -22 10 -11 1 -24 6 -27 10 -8 11
-31 15 -31 5z"/>
<path d="M1253 585 c-7 -8 -9 -16 -4 -19 5 -3 12 1 15 10 8 22 4 25 -11 9z"/>
<path d="M2308 588 c10 -13 10 -17 0 -21 -9 -4 -9 -6 2 -6 8 -1 27 -8 43 -15
16 -9 27 -11 27 -4 0 5 -9 12 -20 15 -11 3 -20 9 -20 14 0 4 -10 14 -22 20
-20 11 -22 10 -10 -3z"/>
<path d="M1115 580 c-3 -5 -2 -10 4 -10 5 0 13 5 16 10 3 6 2 10 -4 10 -5 0
-13 -4 -16 -10z"/>
<path d="M1520 586 c0 -2 7 -6 15 -10 8 -3 15 -1 15 4 0 6 -7 10 -15 10 -8 0
-15 -2 -15 -4z"/>
<path d="M2255 568 c-6 -12 -16 -24 -24 -26 -8 -3 -11 0 -7 7 5 7 1 9 -9 4
-13 -5 -14 -7 -3 -14 7 -5 8 -9 2 -9 -6 0 -11 -6 -11 -14 0 -10 11 -6 34 12
18 15 33 35 33 45 0 22 -3 22 -15 -5z"/>
<path d="M2501 564 c-1 -20 5 -34 14 -38 17 -6 20 5 6 20 -5 5 -11 18 -14 29
-3 13 -5 10 -6 -11z"/>
<path d="M2636 575 c-3 -8 -1 -15 4 -15 6 0 10 7 10 15 0 8 -2 15 -4 15 -2 0
-6 -7 -10 -15z"/>
<path d="M2947 568 c-3 -13 -9 -33 -12 -45 -4 -14 -3 -23 3 -23 6 0 13 18 17
41 7 43 1 65 -8 27z"/>
<path d="M751 575 c0 -5 6 -31 14 -57 16 -54 13 -61 -9 -20 -19 34 -20 19 -2
-31 10 -30 15 -35 20 -21 6 16 7 16 21 -2 13 -16 4 14 -38 126 -3 8 -6 11 -6
5z"/>
<path d="M1157 560 c-3 -11 -3 -20 -1 -20 2 0 8 9 14 20 6 11 7 20 2 20 -6 0
-12 -9 -15 -20z"/>
<path d="M1565 570 c3 -5 8 -10 11 -10 2 0 4 5 4 10 0 6 -5 10 -11 10 -5 0 -7
-4 -4 -10z"/>
<path d="M1862 560 c-7 -11 -8 -20 -3 -20 9 0 24 30 18 36 -1 2 -8 -6 -15 -16z"/>
<path d="M2612 538 c-8 -11 -9 -23 -3 -39 8 -20 10 -21 16 -7 4 9 5 27 3 39
-3 19 -5 20 -16 7z"/>
<path d="M2886 537 c3 -10 9 -15 12 -12 3 3 0 11 -7 18 -10 9 -11 8 -5 -6z"/>
<path d="M1157 523 c-11 -12 -17 -13 -17 -5 0 7 -4 10 -10 7 -5 -3 -10 -11
-10 -16 0 -6 5 -7 10 -4 6 3 10 1 10 -4 0 -6 5 -11 11 -11 5 0 7 5 4 10 -3 6
-2 10 3 10 6 0 12 7 16 15 7 19 4 19 -17 -2z"/>
<path d="M1750 506 c-5 -15 -10 -35 -10 -44 1 -9 7 1 15 23 16 44 11 63 -5 21z"/>
<path d="M1222 500 c0 -14 2 -19 5 -12 2 6 2 18 0 25 -3 6 -5 1 -5 -13z"/>
<path d="M1538 513 c7 -3 16 -2 19 1 4 3 -2 6 -13 5 -11 0 -14 -3 -6 -6z"/>
<path d="M1793 505 c-3 -9 -3 -18 -1 -21 3 -3 8 4 11 16 6 23 -1 27 -10 5z"/>
<path d="M2900 500 c0 -5 5 -10 11 -10 5 0 7 5 4 10 -3 6 -8 10 -11 10 -2 0
-4 -4 -4 -10z"/>
<path d="M450 493 c0 -4 5 -15 10 -23 8 -13 10 -13 10 2 0 9 -4 20 -10 23 -5
3 -10 3 -10 -2z"/>
<path d="M1593 466 c-1 -19 1 -23 4 -11 3 11 9 25 14 31 5 7 4 11 -4 11 -8 0
-13 -13 -14 -31z"/>
<path d="M1855 479 c-4 -11 -4 -23 -1 -26 3 -4 6 1 6 11 0 9 5 14 10 11 6 -3
10 -2 10 4 0 20 -19 21 -25 0z"/>
<path d="M2786 484 c-4 -9 -4 -19 -1 -22 2 -3 7 3 11 12 4 9 4 19 1 22 -2 3
-7 -3 -11 -12z"/>
<path d="M905 480 c-3 -6 1 -7 9 -4 18 7 21 14 7 14 -6 0 -13 -4 -16 -10z"/>
<path d="M1058 483 c6 -2 18 -2 25 0 6 3 1 5 -13 5 -14 0 -19 -2 -12 -5z"/>
<path d="M1410 481 c0 -5 -8 -12 -17 -14 -15 -4 -15 -5 -2 -6 9 0 22 6 29 14
9 10 9 15 1 15 -6 0 -11 -4 -11 -9z"/>
<path d="M2198 485 c-8 -9 11 -45 44 -80 15 -16 26 -31 24 -32 -7 -7 -62 19
-83 39 l-23 21 0 -31 c0 -32 37 -72 67 -72 10 0 13 -6 9 -16 -3 -8 -2 -13 3
-9 5 3 9 -15 9 -40 0 -50 8 -69 27 -61 7 2 16 -2 19 -10 4 -10 2 -12 -6 -8 -8
5 -9 0 -5 -16 6 -21 -29 -115 -56 -150 -7 -9 5 2 25 24 l37 40 4 -45 c4 -46 4
-47 9 104 1 35 8 34 44 -4 47 -50 66 -54 239 -54 129 0 170 4 210 18 67 25
205 117 204 136 0 11 -2 12 -6 3 -2 -6 -10 -9 -16 -5 -7 3 -9 3 -5 -2 5 -5 -4
-17 -20 -27 -15 -10 -42 -30 -61 -43 -19 -14 -64 -34 -101 -45 -68 -20 -112
-26 -75 -10 16 7 17 9 3 9 -9 1 -22 -7 -27 -16 -6 -10 -11 -12 -11 -5 0 6 -5
12 -11 12 -5 0 -7 -5 -3 -12 5 -8 2 -9 -10 -5 -10 4 -39 8 -64 8 l-47 1 45 10
c214 47 294 71 298 88 2 10 0 11 -10 3 -15 -12 -70 -30 -108 -36 -14 -2 -33
-7 -43 -12 -9 -4 -29 -4 -45 -1 -17 4 -22 3 -14 -2 13 -9 -35 -20 -178 -42
-49 -8 -59 -6 -96 15 -48 28 -91 76 -100 111 -3 13 -11 24 -16 24 -7 0 -9 22
-5 58 4 45 1 64 -15 90 -11 17 -23 32 -28 32 -5 0 -12 12 -17 26 -5 14 -11 22
-15 19z m48 -136 c3 -5 2 -9 -1 -9 -9 0 -65 30 -65 35 0 7 60 -16 66 -26z"/>
<path d="M2305 480 c-3 -5 -16 -10 -28 -11 -13 0 -16 -3 -9 -6 8 -3 24 -1 35
5 12 6 31 13 42 15 15 4 13 5 -7 6 -15 0 -30 -3 -33 -9z"/>
<path d="M2733 478 c2 -7 0 -21 -5 -30 -5 -11 -5 -18 0 -18 6 0 12 10 16 23 8
31 7 37 -5 37 -6 0 -9 -6 -6 -12z"/>
<path d="M2870 480 c0 -5 -3 -9 -7 -8 -5 1 -19 -3 -33 -9 -14 -6 -33 -14 -42
-17 -10 -3 -18 -11 -18 -18 0 -9 3 -9 8 -2 9 14 52 25 52 13 0 -5 5 -9 10 -9
6 0 10 7 10 15 0 8 7 15 15 15 8 0 15 7 15 15 0 8 -2 15 -5 15 -3 0 -5 -4 -5
-10z"/>
<path d="M2909 441 c-12 -28 -25 -51 -30 -51 -5 0 -9 -6 -9 -14 0 -8 -5 -16
-12 -18 -9 -3 -21 -48 -13 -48 7 0 74 111 83 139 19 54 6 48 -19 -8z"/>
<path d="M1190 472 c0 -15 -37 -52 -44 -45 -3 3 -6 1 -6 -6 0 -7 -5 -9 -12 -5
-6 4 -8 3 -4 -4 4 -6 -10 -22 -31 -36 -21 -15 -31 -26 -23 -26 20 -1 -27 -40
-47 -40 -8 0 -11 -4 -8 -10 5 -9 -1 -12 -21 -9 -4 0 -10 -5 -14 -11 -4 -7 -18
-13 -32 -13 -14 -1 -25 -7 -25 -13 0 -15 14 -12 53 9 29 15 44 14 44 -4 0 -4
-8 -10 -17 -12 -13 -3 -12 -5 5 -6 18 -1 22 4 20 22 -3 23 14 37 18 15 2 -7 7
-26 13 -43 8 -25 9 -26 10 -7 1 12 5 22 10 22 5 0 12 7 15 16 5 14 4 15 -9 4
-9 -7 -16 -11 -18 -9 -22 38 -26 49 -18 49 6 0 15 -8 20 -17 11 -19 11 -19 14
45 2 22 39 51 45 34 5 -16 19 -15 25 2 4 11 1 13 -11 9 -11 -4 -6 7 14 28 48
54 58 69 45 69 -6 0 -11 -4 -11 -8z"/>
<path d="M1236 472 c-2 -4 -1 -14 5 -22 12 -20 11 -33 -1 -25 -14 9 -12 -8 3
-24 10 -11 10 -13 0 -7 -15 8 -17 -3 -4 -23 7 -10 12 -8 25 10 12 18 13 25 3
31 -9 6 -9 8 1 8 14 0 43 -60 36 -72 -3 -5 0 -8 6 -8 8 0 10 9 6 25 -4 14 -2
25 4 25 5 0 11 -8 11 -17 5 -59 -5 -93 -27 -93 -23 0 -16 -34 16 -78 33 -45
81 -63 119 -43 28 16 26 44 -5 78 l-25 28 17 -28 c19 -32 18 -33 -17 -42 -21
-5 -34 0 -64 27 -38 32 -38 33 -14 39 13 4 40 8 59 8 24 1 31 4 21 10 -7 5
-26 5 -42 1 -30 -9 -44 -3 -30 14 5 6 11 27 12 47 4 42 -20 76 -40 56 -7 -7
-11 -7 -11 0 0 16 -58 85 -64 75z"/>
<path d="M2690 460 c0 -19 3 -21 12 -12 9 9 9 15 0 24 -9 9 -12 7 -12 -12z"/>
<path d="M1066 462 c-3 -6 0 -12 6 -15 10 -3 10 -8 -1 -23 -14 -18 -14 -18 3
-3 13 13 16 21 8 34 -5 11 -12 14 -16 7z"/>
<path d="M1613 450 c2 -8 -2 -20 -9 -27 -15 -16 -7 -48 31 -120 23 -45 31 -53
56 -53 22 0 32 -7 44 -30 18 -34 13 -47 -19 -60 l-21 -9 22 0 c12 -1 25 4 28
9 4 6 16 8 28 5 12 -2 16 -2 8 1 -11 5 -8 10 10 20 24 14 24 14 -6 9 -16 -3
-24 -2 -17 1 8 4 6 11 -10 25 -23 19 -23 19 -3 31 19 12 19 12 -5 18 -14 4
-33 3 -43 -2 -24 -12 -51 -2 -43 17 3 8 0 18 -7 22 -26 17 -50 91 -36 115 4 7
3 20 -2 28 -9 13 -10 13 -6 0z"/>
<path d="M1682 446 c10 -7 15 -16 12 -19 -3 -3 2 -4 12 -3 10 2 20 8 22 14 2
7 -2 10 -11 6 -8 -3 -18 -1 -22 5 -3 6 -12 11 -18 11 -7 0 -4 -6 5 -14z"/>
<path d="M2015 449 c-4 -6 -5 -12 -2 -15 2 -3 7 2 10 11 7 17 1 20 -8 4z"/>
<path d="M837 435 c8 -26 23 -45 35 -45 5 0 4 6 -2 13 -6 6 -17 21 -25 32 -15
20 -15 20 -8 0z"/>
<path d="M1783 443 c-15 -5 -17 -23 -4 -23 5 0 11 7 15 15 3 8 4 15 3 14 -1 0
-8 -3 -14 -6z"/>
<path d="M1740 420 c0 -12 -5 -17 -14 -14 -8 3 -17 1 -21 -5 -3 -7 0 -8 9 -5
10 4 16 1 16 -9 0 -9 4 -18 9 -21 5 -3 9 12 9 34 0 22 -1 40 -4 40 -2 0 -4 -9
-4 -20z"/>
<path d="M1828 421 c-29 -34 -40 -62 -33 -88 3 -14 9 -23 12 -19 3 3 13 0 22
-6 13 -10 13 -9 -1 7 -9 11 -15 29 -13 40 2 11 4 24 4 29 1 5 9 2 19 -5 15
-13 16 -12 4 3 -12 15 -12 20 2 33 18 18 20 25 8 25 -4 0 -15 -9 -24 -19z"/>
<path d="M2100 425 c0 -8 2 -15 4 -15 2 0 6 7 10 15 3 8 1 15 -4 15 -6 0 -10
-7 -10 -15z"/>
<path d="M794 415 c10 -7 16 -17 13 -22 -8 -13 11 -53 25 -52 10 0 10 2 0 6
-6 2 -9 9 -6 14 11 19 -6 57 -28 62 -22 6 -22 5 -4 -8z"/>
<path d="M1212 410 c0 -14 2 -19 5 -12 2 6 2 18 0 25 -3 6 -5 1 -5 -13z"/>
<path d="M2630 421 c0 -6 6 -14 14 -18 7 -4 16 -15 19 -23 4 -11 6 -9 6 5 1
11 -8 26 -19 33 -11 7 -20 8 -20 3z"/>
<path d="M2798 423 c7 -3 16 -2 19 1 4 3 -2 6 -13 5 -11 0 -14 -3 -6 -6z"/>
<path d="M756 411 c-3 -5 1 -14 9 -21 9 -8 13 -22 10 -39 -5 -24 -5 -25 4 -3
7 14 7 31 1 47 -10 27 -16 30 -24 16z"/>
<path d="M960 416 c0 -2 7 -7 16 -10 8 -3 12 -2 9 4 -6 10 -25 14 -25 6z"/>
<path d="M1176 411 c-4 -6 -3 -18 2 -27 8 -15 10 -14 16 2 8 20 -8 42 -18 25z"/>
<path d="M2399 416 c-1 -3 -2 -11 -3 -18 0 -6 -7 -13 -15 -16 -9 -3 -11 0 -6
9 4 8 -14 -7 -39 -33 -25 -26 -46 -55 -46 -64 0 -11 12 1 29 28 27 42 51 67
51 53 0 -3 -11 -22 -23 -43 -28 -44 -39 -80 -26 -88 5 -3 9 -13 9 -24 0 -10 6
-20 14 -23 12 -5 12 -2 0 21 -17 33 -20 86 -3 62 8 -12 9 -11 4 6 -4 15 6 35
35 72 24 29 36 53 30 57 -5 3 -11 4 -11 1z"/>
<path d="M1670 399 c0 -5 5 -7 10 -4 6 3 10 8 10 11 0 2 -4 4 -10 4 -5 0 -10
-5 -10 -11z"/>
<path d="M1780 401 c0 -7 -4 -10 -8 -7 -5 3 -9 -2 -9 -10 0 -13 2 -13 16 0 8
9 12 19 8 22 -4 4 -7 2 -7 -5z"/>
<path d="M2718 404 c6 -3 10 -10 6 -15 -3 -5 4 -8 15 -6 22 3 40 17 25 18 -5
0 -20 2 -34 4 -14 2 -19 1 -12 -1z"/>
<path d="M2805 388 l-20 -21 23 12 c12 6 22 16 22 21 0 13 -2 12 -25 -12z"/>
<path d="M944 389 c-3 -6 -1 -16 6 -22 10 -9 11 -9 5 2 -4 8 -2 17 6 22 9 6
10 9 2 9 -6 0 -15 -5 -19 -11z"/>
<path d="M1557 385 c3 -8 9 -12 14 -9 12 7 11 11 -5 17 -10 4 -13 1 -9 -8z"/>
<path d="M2423 380 c-3 -11 -10 -20 -16 -20 -6 0 -8 -3 -4 -6 3 -3 -7 -30 -22
-59 -15 -29 -22 -51 -16 -49 7 3 18 17 26 32 8 15 20 33 27 40 7 8 10 17 7 22
-3 5 -1 20 5 34 5 14 7 26 4 26 -3 0 -8 -9 -11 -20z"/>
<path d="M1000 379 c0 -5 5 -7 10 -4 6 3 10 8 10 11 0 2 -4 4 -10 4 -5 0 -10
-5 -10 -11z"/>
<path d="M1466 373 c-6 -14 -5 -15 5 -6 7 7 10 15 7 18 -3 3 -9 -2 -12 -12z"/>
<path d="M1038 373 c7 -3 16 -2 19 1 4 3 -2 6 -13 5 -11 0 -14 -3 -6 -6z"/>
<path d="M2445 358 c-7 -30 -2 -228 6 -228 14 0 17 44 9 98 -5 31 -8 58 -5 60
8 8 61 -113 57 -131 -2 -10 2 -17 12 -17 22 0 20 13 -9 70 -14 27 -25 56 -25
63 0 8 -7 20 -15 27 -18 15 -20 51 -3 68 9 9 8 12 -5 12 -9 0 -19 -10 -22 -22z"/>
<path d="M2580 370 c-8 -5 -12 -12 -9 -15 4 -3 12 1 19 10 14 17 11 19 -10 5z"/>
<path d="M1160 369 c0 -4 7 -20 15 -35 12 -24 15 -25 15 -9 0 17 2 17 10 5 5
-8 10 -10 10 -5 0 6 -5 17 -10 25 -8 13 -10 13 -10 1 0 -11 -4 -9 -15 5 -8 10
-15 16 -15 13z"/>
<path d="M2537 363 c-4 -3 -7 -11 -7 -17 0 -6 5 -5 12 2 6 6 9 14 7 17 -3 3
-9 2 -12 -2z"/>
<path d="M2961 317 c-12 -28 -26 -60 -32 -70 -6 -11 -8 -21 -5 -24 7 -8 66
101 62 114 -3 6 0 13 7 16 8 2 8 5 0 10 -6 4 -19 -14 -32 -46z"/>
<path d="M1413 348 c2 -7 -2 -21 -11 -30 -8 -10 -11 -18 -6 -18 5 0 18 14 27
30 17 27 17 30 2 30 -9 0 -15 -6 -12 -12z"/>
<path d="M2800 349 c0 -5 5 -7 10 -4 6 3 10 8 10 11 0 2 -4 4 -10 4 -5 0 -10
-5 -10 -11z"/>
<path d="M790 331 c0 -12 -4 -19 -10 -16 -5 3 -10 -1 -10 -9 0 -9 4 -16 10
-16 11 0 25 48 16 57 -3 4 -6 -4 -6 -16z"/>
<path d="M1101 338 c0 -9 -4 -25 -7 -35 -5 -17 -5 -17 6 0 6 10 9 25 7 35 -4
15 -5 15 -6 0z"/>
<path d="M1227 344 c-4 -4 -7 -14 -7 -23 0 -11 3 -12 11 -4 6 6 10 16 7 23 -2
6 -7 8 -11 4z"/>
<path d="M1250 340 c0 -6 5 -8 10 -5 6 3 10 -3 10 -14 0 -11 4 -22 9 -25 5 -4
6 5 2 21 -7 27 -31 45 -31 23z"/>
<path d="M715 329 c-4 -6 -5 -12 -2 -15 2 -3 7 2 10 11 7 17 1 20 -8 4z"/>
<path d="M1730 329 c0 -5 5 -7 10 -4 6 3 10 8 10 11 0 2 -4 4 -10 4 -5 0 -10
-5 -10 -11z"/>
<path d="M740 321 c0 -6 4 -12 8 -15 5 -3 9 1 9 9 0 8 -4 15 -9 15 -4 0 -8 -4
-8 -9z"/>
<path d="M827 323 c-4 -6 -3 -14 3 -18 6 -4 7 -12 3 -18 -4 -7 -1 -7 10 1 14
12 16 11 14 -7 -1 -15 -6 -20 -17 -16 -8 4 -3 -7 13 -22 15 -16 27 -32 27 -36
0 -11 -53 -35 -93 -42 -33 -6 -37 -11 -37 -36 0 -16 -6 -29 -12 -30 -19 -1 33
-21 64 -25 15 -2 34 3 42 12 9 8 19 13 23 11 11 -5 38 25 37 41 -1 6 -2 26 -3
42 0 17 -10 39 -21 50 -24 24 -17 48 7 29 8 -7 4 3 -9 23 -13 19 -26 31 -29
25 -4 -5 -9 -1 -11 9 -2 13 -6 15 -11 7z m58 -180 c1 -18 -6 -25 -34 -35 -55
-18 -84 -19 -77 -3 3 8 0 15 -6 17 -7 3 -8 10 -4 17 7 11 10 11 17 0 7 -12 9
-12 9 0 0 7 6 11 14 8 8 -3 22 1 33 9 25 19 46 13 48 -13z"/>
<path d="M1136 315 c8 -20 -6 -41 -16 -25 -5 7 -9 2 -12 -14 -7 -33 -3 -33 27
2 23 26 24 26 25 5 0 -12 7 -26 16 -31 9 -5 14 -14 10 -21 -10 -16 -24 -13
-29 7 -3 9 -3 -6 0 -34 6 -63 -11 -94 -69 -124 -59 -31 -117 -32 -146 -3 -13
13 -26 23 -30 23 -4 0 -8 -22 -7 -50 0 -27 1 -46 3 -41 2 6 10 7 19 4 13 -5
14 -3 3 16 -14 28 -8 36 17 22 11 -5 38 -12 60 -14 32 -4 43 -1 48 11 5 14 7
14 15 2 7 -11 10 -11 10 -2 0 7 19 22 43 32 23 11 38 20 32 20 -5 0 -3 5 5 10
8 5 16 14 16 20 1 5 2 16 3 23 1 8 5 7 14 -4 21 -28 56 -42 72 -29 20 16 30
77 16 94 -6 7 -8 16 -5 19 4 3 -1 13 -10 22 -18 18 -22 40 -5 29 8 -4 8 0 0
15 -16 30 -21 26 -15 -11 3 -18 6 -41 7 -50 1 -10 5 -18 9 -18 15 0 8 -38 -11
-61 -19 -23 -21 -23 -37 -7 -14 13 -15 18 -4 18 7 0 10 3 7 7 -4 3 -1 13 5 22
10 12 8 12 -8 -1 -25 -22 -44 -23 -44 -3 0 8 7 15 15 15 21 0 19 25 -7 70 -22
38 -53 64 -42 35z"/>
<path d="M2562 300 c0 -14 2 -19 5 -12 2 6 2 18 0 25 -3 6 -5 1 -5 -13z"/>
<path d="M1206 275 c7 -50 19 -64 20 -24 1 16 -2 29 -7 29 -4 0 -10 8 -13 18
-3 9 -3 -1 0 -23z"/>
<path d="M1773 295 c0 -8 4 -15 9 -15 5 0 6 -6 2 -12 -5 -10 -4 -10 7 0 11 10
11 15 -2 28 -14 13 -16 13 -16 -1z"/>
<path d="M2607 294 c5 -13 3 -15 -8 -10 -8 4 -3 -1 11 -12 14 -12 27 -18 30
-15 3 3 -1 8 -7 10 -7 3 -13 11 -13 18 0 8 -4 17 -10 20 -6 4 -7 -1 -3 -11z"/>
<path d="M1685 289 c-4 -6 -5 -12 -2 -15 2 -3 7 2 10 11 7 17 1 20 -8 4z"/>
<path d="M2810 289 c0 -5 5 -7 10 -4 6 3 10 8 10 11 0 2 -4 4 -10 4 -5 0 -10
-5 -10 -11z"/>
<path d="M330 265 c-24 -14 -24 -14 -4 -15 12 0 24 7 28 15 6 18 7 18 -24 0z"/>
<path d="M781 264 c0 -11 3 -14 6 -6 3 7 2 16 -1 19 -3 4 -6 -2 -5 -13z"/>
<path d="M2885 269 c-12 -19 5 -23 22 -6 16 16 16 17 1 17 -9 0 -20 -5 -23
-11z"/>
<path d="M185 260 c-3 -6 1 -7 9 -4 18 7 21 14 7 14 -6 0 -13 -4 -16 -10z"/>
<path d="M400 259 c0 -6 9 -13 21 -16 17 -5 20 -11 15 -32 -17 -72 -19 -94 -9
-88 6 4 13 20 17 37 3 16 9 43 12 58 5 23 1 30 -21 40 -32 15 -35 15 -35 1z"/>
<path d="M805 260 c-3 -5 -1 -10 4 -10 6 0 11 5 11 10 0 6 -2 10 -4 10 -3 0
-8 -4 -11 -10z"/>
<path d="M2526 262 c-8 -14 21 -42 42 -42 16 1 16 1 0 11 -10 5 -21 17 -26 26
-6 10 -12 12 -16 5z"/>
<path d="M2655 250 c3 -5 8 -10 11 -10 2 0 4 5 4 10 0 6 -5 10 -11 10 -5 0 -7
-4 -4 -10z"/>
<path d="M217 243 c-4 -3 -7 -13 -7 -22 1 -13 3 -13 11 2 11 19 8 33 -4 20z"/>
<path d="M245 240 c3 -5 11 -10 16 -10 6 0 7 5 4 10 -3 6 -11 10 -16 10 -6 0
-7 -4 -4 -10z"/>
<path d="M1792 230 c7 -11 19 -20 27 -20 9 0 6 7 -9 20 -13 11 -25 20 -27 20
-2 0 2 -9 9 -20z"/>
<path d="M2850 246 c0 -2 7 -7 16 -10 8 -3 12 -2 9 4 -6 10 -25 14 -25 6z"/>
<path d="M780 223 c0 -16 -2 -16 -11 -3 -9 12 -10 12 -5 -4 4 -10 1 -24 -5
-32 -8 -10 -6 -11 13 -2 22 11 36 58 17 58 -5 0 -9 -8 -9 -17z"/>
<path d="M2370 233 c0 -4 5 -15 10 -23 8 -13 10 -13 10 2 0 9 -4 20 -10 23 -5
3 -10 3 -10 -2z"/>
<path d="M2596 233 c-3 -3 9 -16 27 -28 41 -27 67 -37 67 -25 0 6 -6 10 -14
10 -8 0 -28 11 -44 25 -16 13 -32 22 -36 18z"/>
<path d="M355 220 c-4 -6 2 -13 12 -17 10 -3 21 -8 26 -10 13 -8 7 2 -13 19
-11 10 -22 13 -25 8z"/>
<path d="M950 223 c0 -12 49 -73 50 -62 0 3 -11 20 -25 39 -14 19 -25 29 -25
23z"/>
<path d="M1035 206 c0 -13 3 -27 7 -31 4 -4 4 -13 1 -21 -3 -8 0 -14 7 -14 6
0 9 -4 6 -8 -3 -5 1 -9 9 -9 10 0 12 4 5 12 -5 6 -12 30 -16 53 -7 45 -20 57
-19 18z"/>
<path d="M1081 214 c0 -11 3 -14 6 -6 3 7 2 16 -1 19 -3 4 -6 -2 -5 -13z"/>
<path d="M1106 215 c4 -8 8 -15 10 -15 2 0 4 7 4 15 0 8 -4 15 -10 15 -5 0 -7
-7 -4 -15z"/>
<path d="M2720 216 c4 -4 16 -4 26 2 16 9 14 10 -8 9 -15 -1 -23 -6 -18 -11z"/>
<path d="M651 204 c0 -11 3 -14 6 -6 3 7 2 16 -1 19 -3 4 -6 -2 -5 -13z"/>
<path d="M1011 204 c0 -11 3 -14 6 -6 3 7 2 16 -1 19 -3 4 -6 -2 -5 -13z"/>
<path d="M1840 210 c0 -5 7 -10 16 -10 8 0 12 5 9 10 -3 6 -10 10 -16 10 -5 0
-9 -4 -9 -10z"/>
<path d="M1957 197 c-9 -11 -17 -31 -17 -44 0 -12 -10 -31 -22 -43 -12 -11
-17 -20 -11 -20 12 0 11 -13 -1 -41 -5 -11 -15 -14 -32 -11 -28 5 -32 19 -6
25 9 2 5 3 -9 1 -14 -2 -31 2 -36 7 -7 7 -12 4 -16 -10 -4 -15 0 -21 12 -21
32 0 81 -22 75 -32 -4 -6 -1 -9 7 -6 7 2 17 18 21 34 4 16 18 62 32 103 14 41
25 76 23 77 -1 2 -10 -7 -20 -19z"/>
<path d="M2765 210 c-3 -6 1 -7 9 -4 18 7 21 14 7 14 -6 0 -13 -4 -16 -10z"/>
<path d="M30 200 c0 -5 7 -7 15 -4 8 4 15 8 15 10 0 2 -7 4 -15 4 -8 0 -15 -4
-15 -10z"/>
<path d="M165 185 c-16 -14 -25 -25 -19 -25 6 0 21 11 34 25 30 32 24 31 -15
0z"/>
<path d="M923 185 c0 -8 4 -12 9 -9 5 3 6 10 3 15 -9 13 -12 11 -12 -6z"/>
<path d="M1068 182 c5 -9 12 -24 15 -32 3 -9 6 -4 6 11 1 15 -6 29 -14 33 -12
4 -13 2 -7 -12z"/>
<path d="M208 183 c6 -2 18 -2 25 0 6 3 1 5 -13 5 -14 0 -19 -2 -12 -5z"/>
<path d="M1110 175 c-11 -13 -10 -14 4 -9 9 3 16 10 16 15 0 13 -6 11 -20 -6z"/>
<path d="M1865 170 c3 -5 14 -10 23 -10 15 0 15 2 2 10 -20 13 -33 13 -25 0z"/>
<path d="M10 160 c-8 -5 -11 -10 -5 -10 6 0 17 5 25 10 8 5 11 10 5 10 -5 0
-17 -5 -25 -10z"/>
<path d="M1810 161 c0 -7 -16 -19 -36 -27 -38 -16 -84 -12 -84 7 0 8 -5 7 -15
-1 -23 -19 -18 -28 21 -45 29 -12 45 -13 76 -5 21 6 36 15 33 20 -3 5 -1 19 5
31 7 11 9 23 6 27 -3 3 -6 0 -6 -7z"/>
<path d="M2405 161 c-6 -11 9 -23 19 -14 9 9 7 23 -3 23 -6 0 -12 -4 -16 -9z"/>
<path d="M324 133 c6 -12 17 -23 24 -23 17 0 15 19 -3 26 -8 4 -13 9 -10 13 2
4 -2 8 -9 8 -10 0 -10 -6 -2 -24z"/>
<path d="M2213 145 c-6 -11 -18 -37 -26 -57 -13 -31 -13 -36 -1 -31 8 3 14 0
14 -7 0 -6 5 -8 10 -5 7 4 7 13 0 25 -15 28 8 64 30 47 12 -10 13 -10 4 3 -6
8 -13 22 -16 30 -4 12 -7 11 -15 -5z"/>
<path d="M224 124 c-18 -14 -18 -15 4 -4 12 6 22 13 22 15 0 8 -5 6 -26 -11z"/>
<path d="M693 128 c-20 -26 -26 -41 -15 -34 12 7 36 46 29 46 -3 0 -9 -6 -14
-12z"/>
<path d="M1300 130 c-9 -6 -10 -10 -3 -10 6 0 15 5 18 10 8 12 4 12 -15 0z"/>
<path d="M377 120 c10 -13 7 -18 -18 -29 -22 -10 -33 -10 -43 -2 -10 9 -15 8
-20 -5 -10 -26 6 -35 36 -20 22 12 29 12 37 2 6 -7 8 -16 4 -19 -3 -4 1 -7 10
-7 8 0 22 -3 31 -6 11 -4 16 -1 16 11 0 12 -5 15 -20 10 -17 -5 -19 -2 -15 24
2 20 -2 34 -13 43 -15 11 -15 11 -5 -2z m13 -40 c0 -5 -2 -10 -4 -10 -3 0 -8
5 -11 10 -3 6 -1 10 4 10 6 0 11 -4 11 -10z"/>
<path d="M1096 115 c-11 -8 -27 -15 -37 -15 -9 0 -22 -7 -29 -15 -11 -13 -7
-13 26 1 22 9 46 22 54 30 19 18 10 17 -14 -1z"/>
<path d="M2930 126 c0 -2 7 -7 16 -10 8 -3 12 -2 9 4 -6 10 -25 14 -25 6z"/>
<path d="M1186 104 c-3 -8 0 -11 9 -8 10 4 12 0 8 -15 -4 -16 -11 -20 -27 -16
-19 5 -19 5 -5 -7 13 -11 14 -16 4 -25 -7 -7 -16 -10 -19 -7 -3 2 -2 -1 3 -7
13 -16 26 -5 54 45 l25 44 -24 5 c-13 2 -25 -1 -28 -9z"/>
<path d="M176 94 c-22 -21 -20 -27 4 -12 11 7 20 16 20 20 0 12 -7 10 -24 -8z"/>
<path d="M410 94 c0 -21 17 -25 22 -6 3 11 0 19 -8 19 -8 0 -14 -6 -14 -13z"/>
<path d="M1308 103 c7 -3 16 -2 19 1 4 3 -2 6 -13 5 -11 0 -14 -3 -6 -6z"/>
<path d="M123 74 c4 -4 1 -14 -6 -23 -11 -14 -10 -15 8 -1 11 8 21 15 23 16 2
1 -5 5 -15 8 -9 4 -14 4 -10 0z"/>
<path d="M2480 61 c0 -5 7 -11 15 -15 8 -3 15 -1 15 3 0 5 -7 11 -15 15 -8 3
-15 1 -15 -3z"/>
<path d="M2078 47 c-33 -12 -52 -47 -25 -47 7 0 18 9 25 21 10 15 21 20 37 16
14 -2 22 -1 20 4 -3 4 1 10 7 12 22 9 -40 3 -64 -6z"/>
<path d="M2440 52 c0 -5 7 -15 15 -22 8 -7 15 -9 15 -6 0 4 -7 14 -15 22 -8 9
-15 11 -15 6z"/>
<path d="M2540 46 c0 -2 7 -9 15 -16 13 -11 14 -10 9 4 -5 14 -24 23 -24 12z"/>
<path d="M306 26 c6 -15 44 -29 44 -17 0 4 -11 13 -25 19 -19 9 -23 9 -19 -2z"/>
<path d="M2155 30 c3 -5 10 -10 16 -10 5 0 9 5 9 10 0 6 -7 10 -16 10 -8 0
-12 -4 -9 -10z"/>
<path d="M2830 33 c0 -5 -21 -14 -47 -20 l-48 -11 50 0 c28 1 61 7 74 15 13 8
34 13 47 10 13 -2 21 0 18 4 -7 13 -52 11 -59 -1 -5 -8 -11 -7 -21 1 -8 6 -14
7 -14 2z"/>
<path d="M1216 21 c-4 -7 -5 -15 -2 -18 9 -9 19 4 14 18 -4 11 -6 11 -12 0z"/>
<path d="M1790 15 c-8 -9 -8 -15 -2 -15 12 0 26 19 19 26 -2 2 -10 -2 -17 -11z"/>
<path d="M398 13 c7 -3 16 -2 19 1 4 3 -2 6 -13 5 -11 0 -14 -3 -6 -6z"/>
<path d="M768 3 c6 -2 18 -2 25 0 6 3 1 5 -13 5 -14 0 -19 -2 -12 -5z"/>
</g>
</svg>
