<?xml version="1.0" standalone="no"?>
<!DOCTYPE svg PUBLIC "-//W3C//DTD SVG 20010904//EN"
 "http://www.w3.org/TR/2001/REC-SVG-20010904/DTD/svg10.dtd">
<svg version="1.0" xmlns="http://www.w3.org/2000/svg"
 width="300.000000pt" height="238.000000pt" viewBox="0 0 300.000000 238.000000"
 preserveAspectRatio="xMidYMid meet">
<metadata>
Created by potrace 1.10, written by Peter Selinger 2001-2011
</metadata>
<g transform="translate(0.000000,238.000000) scale(0.100000,-0.100000)"
fill="#000000" stroke="none">
<path d="M2167 2373 c-3 -2 -24 -7 -48 -12 -36 -7 -24 -9 69 -10 105 -1 112
-2 112 -21 0 -11 -1 -20 -2 -20 -2 0 -36 7 -77 15 -89 19 -103 13 -27 -11 31
-10 56 -20 56 -23 -1 -3 -7 -17 -14 -30 -9 -17 -11 -35 -5 -62 5 -21 5 -47 1
-59 -8 -20 -9 -20 -52 12 -25 18 -50 33 -56 34 -6 1 -39 15 -73 32 -98 48 -70
21 33 -32 52 -26 113 -64 136 -83 l41 -36 -2 99 -2 99 32 3 c30 3 31 5 31 48
l0 44 173 1 c94 1 186 5 202 9 17 5 -94 8 -247 8 -153 -1 -279 -3 -281 -5z"/>
<path d="M2940 2222 l0 -157 -45 -11 c-25 -6 -45 -9 -45 -7 0 6 64 28 73 25 4
-1 7 2 7 8 0 21 -132 -19 -225 -68 -59 -31 -121 -78 -189 -143 -47 -45 -48
-47 -34 -73 l14 -28 39 46 c47 56 126 117 204 157 61 31 193 81 199 74 2 -2 6
-64 9 -139 l5 -136 -38 0 c-22 0 -54 -4 -72 -10 -32 -9 -37 -6 -85 38 l-51 47
38 -50 38 -50 -39 -11 c-35 -10 -41 -8 -70 15 -18 14 -33 34 -33 44 0 9 -4 17
-10 17 -18 0 -11 -20 22 -61 30 -37 34 -39 72 -33 59 8 186 33 208 39 17 6 18
-4 18 -215 0 -192 -2 -220 -14 -207 -28 27 -178 57 -293 58 -59 0 -120 -2
-136 -6 -27 -7 -39 8 -14 18 8 4 8 6 0 6 -23 2 -54 -66 -54 -121 -1 -71 14
-123 52 -183 30 -46 54 -51 30 -6 -8 14 -7 30 3 58 19 54 39 180 30 194 -13
22 240 5 324 -21 l72 -23 0 -106 c1 -58 3 -141 6 -183 3 -43 2 -78 -3 -78 -4
0 -20 11 -35 25 -15 14 -34 25 -42 25 -8 0 -21 6 -28 14 -8 7 -29 17 -46 21
-18 3 -30 10 -28 13 4 7 -27 10 -117 12 -27 1 -59 5 -72 10 -19 7 -23 6 -18
-6 4 -10 0 -12 -11 -8 -9 4 -16 3 -15 -2 4 -23 -2 -26 -16 -8 -10 13 -17 15
-22 8 -5 -6 -23 -15 -40 -19 -33 -7 -50 -21 -39 -32 4 -4 12 -1 18 5 7 7 19
12 27 12 22 0 -19 -29 -41 -30 -10 0 -18 -4 -18 -10 0 -5 -4 -9 -9 -7 -5 1
-29 -27 -53 -63 -31 -44 -53 -66 -69 -68 -13 -2 -28 -8 -33 -13 -14 -13 -42
-11 -55 5 -12 15 -5 46 11 46 11 0 68 58 68 70 0 4 14 26 30 48 17 23 27 42
23 42 -5 0 0 5 10 11 22 13 29 8 31 -25 0 -14 7 -26 14 -26 16 0 16 4 -9 52
-17 33 -18 42 -7 50 10 8 9 9 -4 5 -15 -5 -30 12 -32 37 -1 5 -17 20 -36 35
-19 14 -29 18 -21 9 11 -14 11 -18 1 -18 -8 0 4 -15 25 -33 l39 -34 -38 -66
c-38 -68 -145 -193 -146 -169 0 6 5 12 11 12 6 0 8 7 5 16 -3 8 -2 13 3 10 11
-7 43 29 34 38 -5 4 -1 13 7 19 17 14 46 60 63 100 6 15 15 27 19 27 4 0 8 5
8 12 0 6 -3 8 -7 5 -6 -7 -35 46 -37 68 -1 5 -18 10 -39 11 -21 2 -35 -1 -32
-7 4 -5 15 -9 25 -9 10 0 26 -10 34 -22 32 -45 10 -87 -24 -48 l-20 23 -30
-33 c-30 -32 -31 -32 -50 -15 -29 26 -25 41 23 90 32 32 47 41 58 34 8 -5 19
-9 24 -8 6 0 -3 7 -19 15 -28 16 -29 16 -85 -40 -31 -30 -60 -55 -66 -54 -5 1
-18 -14 -27 -32 -16 -32 -16 -33 10 -57 18 -16 23 -26 15 -29 -17 -7 7 -33 24
-27 7 3 13 1 13 -5 0 -17 -25 -20 -45 -6 -16 12 -17 18 -8 33 10 17 9 20 -14
26 -14 3 -31 1 -36 -4 -6 -6 -20 -11 -30 -11 -18 0 -17 -3 7 -26 14 -15 26
-32 26 -38 0 -6 -10 1 -21 17 -11 15 -27 27 -34 27 -25 0 -27 20 -3 29 21 9
21 10 3 10 -11 1 -30 -6 -41 -14 -19 -13 -23 -12 -44 10 l-23 25 34 1 c19 1
50 1 69 1 34 -1 34 0 10 10 -35 15 -50 18 -50 8 0 -5 -15 -7 -34 -6 -36 3 -70
28 -58 41 4 5 1 5 -6 1 -11 -6 -11 -11 0 -24 11 -13 10 -15 -4 -9 -10 3 -20 2
-23 -3 -4 -6 5 -10 18 -10 35 0 58 -30 51 -67 -5 -25 -2 -31 16 -36 17 -4 24
1 35 26 9 19 14 25 15 15 0 -11 8 -18 21 -18 17 0 20 -4 15 -27 -5 -21 -2 -31
13 -40 17 -10 22 -8 36 14 l17 25 20 -20 c16 -15 18 -24 10 -38 -8 -14 -7 -23
5 -36 15 -17 17 -16 46 8 26 22 32 23 44 11 13 -13 13 -18 -1 -44 -13 -27 -13
-31 1 -46 14 -14 18 -14 45 6 26 19 30 20 44 5 15 -15 15 -19 -4 -46 -18 -24
-19 -32 -9 -46 12 -17 15 -16 44 0 26 15 34 16 47 5 14 -12 14 -16 -1 -42 -10
-16 -21 -29 -26 -29 -4 0 -3 -9 3 -19 8 -17 14 -18 39 -8 16 6 27 16 24 21 -3
6 4 1 17 -10 26 -25 21 -59 -11 -69 -23 -8 -24 -15 -3 -41 8 -10 13 -13 9 -7
-4 8 10 16 41 24 41 11 44 13 26 20 -21 8 -27 23 -24 59 1 8 -6 36 -15 62 -16
45 -16 51 1 103 18 57 59 116 79 112 6 -1 11 3 12 10 0 7 7 18 15 25 12 11 12
11 1 -4 -9 -13 -10 -18 -2 -18 6 0 16 11 20 24 6 15 21 26 43 31 91 20 108 22
108 12 0 -6 2 -8 5 -5 3 3 2 13 -1 23 -6 14 -15 16 -56 12 -102 -12 -209 -99
-246 -200 -18 -46 -20 -49 -30 -30 -12 21 -52 38 -52 22 0 -5 7 -9 15 -9 8 0
16 -4 16 -10 1 -5 2 -16 3 -22 1 -7 11 -13 24 -12 25 1 30 -11 7 -19 -8 -4
-22 4 -33 17 -14 19 -22 22 -36 14 -23 -13 -30 -4 -16 21 9 17 8 22 -5 27 -12
5 -13 9 -4 20 13 16 49 19 49 4 0 -23 17 -7 37 33 98 199 367 260 558 126 31
-21 60 -39 65 -39 16 0 13 -547 -2 -553 -10 -3 -10 -7 -1 -18 7 -9 13 -56 15
-114 3 -86 5 -100 21 -103 12 -2 17 3 17 18 0 12 -4 18 -10 15 -5 -3 -10 1
-10 9 0 9 5 16 11 16 6 0 8 8 5 18 -2 9 -8 37 -11 61 -6 33 -4 42 5 36 9 -6 9
-3 1 13 -12 23 -15 252 -3 252 4 0 7 11 7 25 0 14 -2 25 -5 25 -3 0 -6 9 -7
20 -1 11 2 18 6 16 4 -3 7 11 7 29 -1 19 -3 35 -6 35 -3 0 -6 9 -6 19 0 11 3
18 7 16 3 -3 6 9 5 24 -1 16 -4 27 -8 24 -5 -2 -8 5 -8 16 0 12 4 21 8 21 14
0 8 73 -6 78 -18 6 -14 22 6 23 10 0 12 3 5 6 -7 2 -13 13 -13 24 0 10 6 19
13 19 6 0 4 5 -6 11 -18 10 -18 11 0 26 12 10 13 13 3 10 -13 -4 -14 7 -12 69
2 42 8 72 13 69 5 -4 9 -2 9 4 0 5 -5 13 -10 16 -8 5 -7 12 2 23 10 12 10 14
1 8 -9 -5 -13 -1 -13 13 0 10 6 21 12 23 9 3 8 9 -5 22 -20 20 -21 39 -6 68 6
11 7 18 2 15 -5 -3 -10 58 -11 141 -1 81 -5 198 -8 260 -6 107 -5 113 12 110
15 -2 19 4 21 27 l2 30 -8 -30 -8 -30 -11 28 c-7 16 -12 40 -12 54 0 21 2 23
15 13 12 -10 16 -9 21 3 3 9 4 24 1 34 -3 12 -5 8 -6 -10 -1 -38 -21 -24 -21
14 0 21 4 28 13 24 6 -4 4 0 -5 8 -23 18 -23 25 -1 23 12 -1 19 7 20 24 1 23
1 23 -4 2 -8 -37 -27 -19 -26 24 1 21 2 80 1 129 0 50 0 100 1 113 0 13 -5 22
-14 22 -13 0 -15 -25 -15 -158z m-101 -176 c-2 -2 -44 -25 -94 -50 -112 -59
-149 -84 -203 -142 -24 -26 -46 -43 -50 -39 -9 8 128 136 139 130 4 -3 12 2
17 11 5 9 47 33 93 54 75 35 111 48 98 36z m-289 -676 c-8 -5 -31 -9 -50 -9
l-35 2 35 7 c19 4 42 8 50 9 13 1 13 0 0 -9z m-13 -47 c-17 -90 -20 -109 -19
-115 1 -5 -3 -8 -9 -8 -5 0 -7 -4 -4 -10 3 -5 1 -10 -6 -10 -6 0 -9 -8 -6 -20
3 -11 1 -20 -4 -20 -5 0 -11 12 -15 28 -3 15 -10 44 -15 64 -11 42 -9 99 3 92
4 -3 8 -13 9 -22 0 -10 3 -12 5 -5 3 7 1 20 -5 31 -9 16 -5 18 31 21 39 2 40
1 35 -26z m-226 -180 c13 -15 12 -15 -8 -4 -24 12 -29 21 -14 21 5 0 15 -7 22
-17z m-211 -84 c26 -29 43 -40 55 -36 9 4 13 12 9 18 -4 8 -3 9 4 5 17 -10 15
-36 -3 -36 -8 0 -15 -5 -15 -11 0 -8 -4 -8 -15 1 -8 6 -20 10 -27 7 -7 -3 0
-10 17 -16 21 -8 31 -19 32 -34 2 -17 0 -18 -7 -7 -7 12 -12 12 -22 2 -10 -10
-10 -15 2 -22 8 -5 18 -10 22 -10 10 0 22 49 15 57 -4 3 2 17 13 30 18 23 18
53 -1 53 -5 0 -9 5 -9 11 0 5 4 8 9 5 5 -4 12 0 14 6 4 10 8 9 16 -2 21 -30
-13 -155 -46 -167 -10 -3 -28 -15 -39 -25 -20 -18 -23 -18 -38 -3 -21 21 -20
33 2 31 12 -1 17 6 16 21 -1 13 2 20 6 18 4 -3 14 3 21 12 12 14 12 16 0 9 -8
-5 -16 -4 -21 4 -6 9 -13 9 -29 1 -17 -10 -20 -9 -15 4 4 8 11 15 18 15 6 1
-1 8 -16 16 -16 8 -28 19 -28 25 0 6 4 8 8 5 5 -3 6 8 4 25 -2 16 -1 29 3 29
4 0 24 -19 45 -41z m415 -39 c-3 -5 -11 -10 -16 -10 -6 0 -7 5 -4 10 3 6 11
10 16 10 6 0 7 -4 4 -10z m-495 -56 c0 -17 -22 -14 -28 4 -2 7 3 12 12 12 9 0
16 -7 16 -16z m45 -93 c3 -5 1 -12 -5 -16 -5 -3 -10 1 -10 9 0 18 6 21 15 7z
m113 -63 c2 -8 -4 -15 -13 -15 -8 0 -15 9 -15 20 0 22 23 18 28 -5z m172 -142
c0 -16 -28 -42 -36 -33 -7 6 18 47 28 47 5 0 8 -6 8 -14z m20 -42 c0 -8 -5
-12 -10 -9 -6 4 -8 11 -5 16 9 14 15 11 15 -7z"/>
<path d="M37 2356 c-3 -8 2 -17 11 -21 14 -5 14 -7 2 -15 -13 -8 -12 -11 5
-24 18 -13 19 -18 7 -60 -25 -94 -21 -104 90 -228 89 -100 111 -150 106 -248
-5 -107 -39 -173 -145 -277 l-83 -82 -1 -68 c-1 -37 0 -72 1 -78 2 -5 5 -165
8 -355 6 -438 6 -397 5 -595 -1 -93 -1 -197 -1 -230 l1 -60 11 55 c11 49 13
53 24 35 11 -20 11 -20 12 1 0 12 7 27 15 34 9 7 14 19 11 27 -3 7 -1 13 4 13
6 0 10 6 10 14 0 8 9 17 19 21 10 3 26 20 34 37 14 29 14 33 0 43 -14 10 -12
13 14 18 21 4 35 16 46 39 9 18 12 34 7 36 -6 2 -10 10 -10 18 0 13 16 18 50
15 12 -1 12 1 -2 9 -20 12 -12 50 11 50 13 1 12 3 -4 12 -11 6 -22 12 -24 14
-6 6 27 34 41 34 10 0 11 2 0 8 -14 9 -6 42 10 42 6 0 0 9 -13 19 l-24 19 21
24 c12 12 24 28 27 34 8 13 -27 57 -37 47 -3 -3 -6 -1 -6 5 0 6 4 14 10 17 6
3 10 15 10 26 0 22 3 23 33 8 24 -11 21 -8 -36 37 -19 16 -24 27 -20 44 5 20
7 21 18 7 17 -23 130 -85 169 -92 44 -9 56 16 19 41 l-26 17 27 14 c20 10 25
19 21 34 -6 18 10 28 17 11 6 -15 98 -73 107 -67 22 13 21 -19 -1 -43 -14 -15
-41 -50 -62 -79 -20 -29 -59 -72 -86 -96 -37 -33 -46 -47 -37 -56 14 -14 2
-14 -24 -1 -12 7 -19 7 -19 1 0 -6 9 -15 19 -21 17 -9 28 0 82 67 92 115 86
111 87 58 0 -45 0 -46 -19 -29 -20 18 -24 13 -10 -14 11 -22 25 -99 16 -90 -4
4 -17 -12 -30 -35 -23 -43 -19 -67 11 -67 17 0 17 -5 4 -30 -8 -15 -6 -20 10
-25 11 -3 20 -11 20 -17 0 -5 -7 -8 -15 -4 -9 3 -20 -3 -27 -14 -7 -11 -23
-20 -35 -20 -36 0 -37 -19 -2 -51 l32 -30 -22 -15 c-29 -21 -25 -65 7 -79 26
-12 23 -31 -5 -27 -11 1 -20 -3 -20 -10 0 -7 -4 -21 -8 -30 -4 -11 -3 -18 4
-18 6 0 11 6 11 14 0 8 16 18 38 23 27 6 38 15 40 30 3 18 -4 24 -30 31 -26 6
-33 13 -33 33 0 21 5 24 38 27 20 2 37 7 37 12 0 5 3 15 6 24 4 11 1 16 -11
16 -31 0 -53 19 -48 40 4 16 14 20 44 20 22 0 39 4 39 9 0 5 3 16 6 25 4 10 1
16 -7 16 -8 0 -22 7 -32 14 -15 11 -16 18 -8 34 9 17 16 19 45 12 27 -6 36 -4
40 7 11 27 6 30 -34 20 -53 -15 -72 1 -48 41 13 21 15 49 13 127 -2 82 0 103
14 121 l17 22 28 -30 c27 -30 51 -77 42 -85 -3 -3 -16 17 -31 44 -29 54 -29
49 0 -20 15 -35 24 -45 37 -41 10 3 27 0 39 -6 17 -10 24 -9 36 3 14 14 13 18
-6 45 -19 27 -19 31 -5 43 13 11 21 11 44 -3 25 -14 30 -14 43 -1 13 13 13 18
-1 43 -14 24 -14 30 -3 44 13 15 16 15 36 -4 25 -24 38 -25 54 -6 10 11 9 21
-3 45 -15 28 -15 31 2 40 13 7 23 4 42 -14 21 -20 28 -22 43 -10 15 11 16 16
5 40 -11 24 -10 29 7 41 17 13 21 11 38 -16 10 -16 23 -27 28 -24 5 3 9 -3 9
-13 -1 -11 -26 -34 -68 -60 -86 -54 -179 -138 -237 -214 -100 -131 -173 -323
-180 -469 -4 -74 -3 -79 5 -35 5 28 12 75 15 105 3 30 10 59 14 65 5 5 12 26
16 45 15 72 143 309 158 294 4 -4 7 -2 7 5 0 7 30 44 67 82 60 62 67 67 79 51
11 -15 10 -18 -9 -27 -32 -14 -57 -38 -57 -52 0 -7 -5 -13 -11 -13 -14 0 -31
-18 -48 -52 -8 -16 -18 -28 -23 -28 -4 0 -8 -5 -8 -11 0 -11 -50 -82 -62 -87
-4 -2 -4 -10 -1 -18 3 -8 0 -14 -6 -14 -6 0 -11 -7 -11 -15 0 -8 -4 -15 -10
-15 -5 0 -10 -9 -10 -19 0 -11 -7 -27 -16 -35 -8 -9 -10 -16 -4 -16 7 0 7 -7
-1 -23 -7 -12 -14 -32 -15 -45 -2 -12 -9 -36 -18 -52 -8 -17 -11 -28 -5 -25 5
4 6 -7 2 -26 -11 -57 -7 -129 7 -129 6 0 10 20 10 44 0 100 49 263 112 377 40
71 147 204 163 202 25 -4 11 -35 -46 -104 -70 -83 -140 -220 -163 -319 -19
-78 -22 -216 -5 -186 9 14 13 16 20 5 4 -7 11 -10 15 -6 4 3 2 12 -3 19 -19
24 -21 57 -8 127 14 73 34 119 59 140 11 9 24 10 54 1 22 -6 42 -14 44 -18 2
-4 19 -15 38 -26 161 -85 206 -109 209 -112 2 -2 -10 -33 -27 -69 -18 -35 -32
-69 -32 -75 0 -5 -12 -10 -27 -10 -14 0 -24 -3 -21 -6 14 -13 78 -17 342 -18
154 0 266 2 250 5 -16 3 33 6 109 6 80 0 140 -4 143 -9 4 -6 -5 -8 -25 -3 -20
4 -31 3 -31 -4 0 -6 6 -11 13 -12 6 0 20 -2 29 -4 20 -4 43 20 33 35 -12 19
17 10 34 -11 16 -20 21 -20 71 -11 l55 11 -57 -3 c-32 -1 -58 1 -58 6 0 10 85
9 157 -1 29 -4 50 -4 47 1 -3 4 14 8 38 8 30 1 38 3 28 10 -9 4 -51 8 -95 8
-128 -1 -129 0 -115 17 7 9 11 18 8 21 -9 8 51 144 77 176 14 16 22 35 19 40
-5 7 -2 8 7 3 12 -8 12 -6 0 8 -14 18 -26 24 -17 8 7 -11 -29 -43 -38 -34 -4
5 -7 4 -6 -2 5 -24 -1 -34 -20 -30 -12 2 -18 0 -15 -6 4 -5 11 -7 16 -4 13 9
12 4 -15 -56 -13 -30 -27 -73 -31 -97 -6 -36 -10 -42 -31 -42 -13 0 -24 3 -24
6 0 18 34 132 45 155 l14 26 -47 -5 -47 -5 45 35 c56 43 107 67 150 70 26 2
34 -2 41 -20 6 -17 6 -21 -3 -16 -8 5 -9 2 -5 -10 13 -32 37 -160 37 -193 0
-26 4 -31 21 -30 21 1 21 5 16 82 -11 150 -47 224 -110 225 -25 0 -380 -170
-390 -187 -8 -15 42 -113 59 -113 8 0 14 6 11 13 -2 6 7 25 22 42 l26 30 -26
-23 c-29 -26 -49 -28 -49 -7 0 8 -5 15 -12 15 -8 0 -8 3 -2 9 13 13 164 89
164 83 0 -3 -10 -17 -22 -30 -23 -25 -23 -25 -1 -13 12 6 23 16 25 22 2 6 14
8 31 4 21 -6 27 -12 22 -24 -8 -19 -26 -99 -28 -122 -1 -14 -37 -17 -301 -22
-164 -4 -350 -7 -412 -7 l-113 0 45 81 c25 45 44 82 42 84 -26 19 -321 175
-341 180 -18 5 -35 2 -52 -9 l-26 -17 25 48 c14 26 37 66 51 88 22 33 25 35
21 14 -3 -14 1 -34 10 -47 13 -19 162 -108 204 -122 8 -3 43 -20 78 -38 55
-29 61 -35 52 -52 -5 -10 -10 -24 -10 -31 0 -7 9 4 20 26 20 39 25 65 14 65
-3 0 -15 -5 -26 -11 -18 -10 -20 -9 -14 6 5 15 4 16 -9 5 -12 -10 -16 -9 -20
2 -4 9 -24 21 -46 28 -21 7 -39 17 -39 22 0 5 -4 7 -9 4 -9 -6 -141 64 -173
92 -27 23 -22 72 12 111 15 18 33 30 39 27 7 -4 8 -1 5 8 -8 22 9 20 30 -3 20
-22 46 -33 136 -56 l66 -17 34 -66 c19 -37 34 -73 34 -79 -1 -7 3 -10 8 -7 6
4 8 -3 3 -17 -5 -19 -4 -21 4 -9 8 11 11 11 11 2 0 -7 -7 -15 -15 -18 -15 -6
-21 -24 -7 -24 4 0 15 7 25 15 18 13 16 18 -32 105 -28 51 -51 94 -51 96 0 2
7 4 15 4 10 0 15 10 15 34 0 35 -13 55 -25 36 -3 -5 -15 -10 -26 -10 -26 0
-20 -22 11 -38 15 -7 17 -10 5 -6 -11 3 -42 11 -70 19 -77 20 -151 62 -151 86
0 12 5 18 13 15 7 -3 13 2 13 10 0 11 -6 15 -18 12 -11 -3 -19 0 -19 8 0 8 4
14 8 14 4 0 29 18 55 40 54 45 64 48 64 23 0 -14 2 -15 9 -5 4 7 4 38 -1 69
-6 41 -5 59 4 72 11 14 11 14 -3 3 -14 -10 -18 -8 -28 15 -6 16 -10 50 -9 76
3 53 18 69 86 96 17 8 32 19 32 26 0 8 5 15 10 17 6 2 12 18 14 35 3 18 8 38
12 44 4 6 8 28 9 48 0 20 10 101 20 180 16 124 24 153 53 208 18 34 39 63 46
63 8 0 35 -9 62 -21 27 -11 60 -25 73 -30 13 -5 21 -12 18 -15 -3 -3 -16 0
-29 7 -20 11 -22 11 -10 -3 13 -17 56 -32 47 -18 -11 18 17 20 67 4 61 -20 77
-30 88 -59 5 -13 3 -22 -7 -25 -11 -5 -11 -9 2 -25 13 -18 14 -18 9 -2 -4 11
23 -10 60 -46 36 -36 66 -70 66 -76 0 -6 -19 -23 -42 -38 -24 -16 -44 -31 -46
-35 -2 -5 -28 -8 -57 -8 -30 0 -57 -4 -60 -10 -10 -17 -25 -11 -19 8 5 16 5
16 -6 0 -6 -10 -10 -34 -8 -55 3 -37 3 -37 -40 -41 -24 -2 -57 1 -73 7 -26 9
-34 7 -53 -12 -43 -42 -61 -47 -79 -26 -22 25 -32 24 -51 -3 -11 -15 -12 -26
-6 -39 14 -25 13 -28 -8 -24 -10 2 -25 -1 -33 -6 -11 -7 -8 -9 11 -10 14 -1
37 -3 52 -4 18 -1 25 2 21 12 -3 8 2 13 12 13 9 0 14 4 11 9 -3 4 -17 6 -31 3
-17 -3 -25 0 -25 10 0 10 8 13 28 11 15 -3 38 0 52 5 21 8 26 5 37 -16 16 -31
2 -44 -37 -35 -19 4 -22 3 -13 -7 12 -13 73 -5 73 11 0 11 59 8 66 -3 3 -5 11
-6 17 -2 7 3 3 -2 -8 -10 -11 -9 -25 -14 -33 -11 -7 2 -11 1 -8 -4 3 -5 -2
-15 -11 -22 -12 -10 -14 -10 -9 -1 4 6 2 12 -3 12 -6 0 -11 -9 -11 -20 0 -26
-14 -25 -59 2 -25 15 -32 17 -23 6 11 -14 10 -16 -7 -11 -12 3 -19 8 -17 12 6
10 -80 34 -96 28 -7 -3 -2 -6 12 -6 37 -1 91 -37 84 -56 -3 -8 -10 -13 -14
-10 -5 3 -6 -5 -4 -17 3 -18 1 -17 -8 4 -7 16 -20 31 -31 34 -28 9 -33 -4 -6
-15 17 -7 19 -10 7 -10 -10 -1 -18 -7 -18 -13 0 -7 -7 -2 -16 10 -8 12 -21 22
-27 22 -8 0 -8 -3 -2 -8 6 -4 16 -15 24 -25 12 -15 11 -20 -4 -37 -19 -21 -18
-22 33 -33 26 -6 27 -4 6 29 -12 18 -14 28 -6 36 8 8 14 4 23 -15 19 -41 47
-35 51 10 4 50 34 58 49 14 8 -23 17 -31 34 -31 19 0 24 6 27 33 2 24 8 32 23
32 14 0 21 -8 25 -30 4 -21 12 -31 27 -33 18 -3 24 3 31 30 12 47 45 46 52 -2
7 -48 40 -54 57 -10 7 20 18 30 32 30 16 0 20 -8 23 -37 4 -49 31 -56 52 -15
15 29 15 30 -16 36 -23 4 -28 9 -20 18 8 10 3 14 -20 15 -35 3 -69 -12 -65
-29 1 -7 -7 -14 -18 -16 -17 -4 -18 -2 -6 12 9 10 10 16 2 16 -6 0 -11 7 -11
16 0 8 -5 12 -10 9 -6 -3 -10 2 -10 11 0 13 -7 9 -30 -14 -30 -31 -48 -36 -62
-18 -4 6 -2 18 3 28 5 10 7 18 3 18 -18 0 21 30 40 30 34 1 -43 32 -84 34 -22
1 -34 6 -32 14 1 6 -2 12 -8 12 -5 0 -10 5 -10 10 0 6 19 10 42 10 47 0 46 11
-1 12 -17 1 -31 5 -31 11 0 5 14 6 33 3 17 -4 41 -8 53 -9 29 -3 56 -27 50
-44 -3 -8 -2 -12 3 -9 13 8 20 -28 9 -48 -7 -12 2 -10 38 9 58 31 62 31 59 3
-1 -14 0 -16 2 -5 3 11 10 16 19 13 18 -7 47 36 38 57 -7 19 -31 29 -39 17 -4
-6 1 -10 9 -10 9 0 16 -4 16 -9 0 -14 -38 -20 -44 -7 -2 6 -5 3 -5 -7 -1 -24
-26 -16 -26 8 0 10 -6 19 -13 21 -7 1 -8 0 -2 -3 19 -9 10 -21 -20 -25 -19 -3
-31 0 -35 10 -10 26 -6 35 10 22 13 -10 15 -9 15 10 0 14 5 20 13 17 8 -3 12
7 12 32 0 35 1 36 40 37 22 1 58 9 80 18 22 9 41 16 42 14 1 -2 18 14 37 36
l36 38 -20 29 c-12 15 -32 37 -45 47 -13 11 -22 22 -20 26 3 3 2 4 -2 1 -12
-9 -53 38 -53 62 0 13 -9 32 -19 42 -11 11 -16 23 -13 27 4 4 1 4 -6 0 -7 -4
-32 2 -57 14 -24 12 -53 20 -63 18 -10 -2 -46 10 -79 26 -57 28 -61 33 -124
142 -35 61 -66 111 -67 109 -2 -2 10 -27 27 -57 47 -82 82 -151 79 -153 -2 -2
-12 -5 -23 -7 -15 -2 -30 15 -70 84 -72 124 -77 122 -10 -5 31 -59 55 -110 52
-113 -3 -3 -16 0 -29 6 l-23 11 24 -19 c24 -19 24 -20 3 -26 -13 -5 -19 -13
-15 -22 3 -8 0 -20 -6 -28 -7 -8 -13 -27 -16 -42 -14 -108 -22 -157 -25 -161
-2 -2 -3 -6 -4 -10 -1 -5 -5 -14 -10 -22 -7 -11 -6 -12 5 -6 12 7 12 6 1 -7
-10 -13 -10 -18 -1 -24 9 -5 7 -11 -6 -20 -12 -9 -15 -19 -10 -31 12 -29 16
-73 6 -73 -5 0 -12 6 -15 13 -3 6 -4 -7 -2 -30 2 -32 -2 -50 -18 -71 -11 -16
-23 -29 -26 -30 -3 0 -17 -5 -32 -11 -15 -6 -35 -8 -43 -5 -8 4 -15 1 -15 -6
0 -6 4 -8 10 -5 5 3 10 2 10 -4 0 -17 -22 -24 -31 -10 -7 12 -9 11 -9 -1 0
-11 -2 -12 -8 -2 -6 9 -14 7 -30 -8 -12 -12 -22 -24 -22 -27 0 -3 8 1 18 10
15 13 26 15 61 8 2 -1 -2 -8 -9 -16 -7 -8 -8 -15 -3 -15 5 0 9 -14 8 -30 0
-26 -4 -30 -26 -30 -34 0 -53 -23 -45 -55 6 -23 5 -24 -19 -13 -19 8 -22 14
-13 20 10 6 10 8 0 8 -15 0 -70 -51 -70 -65 0 -5 4 -18 9 -27 13 -24 0 -23
-26 2 l-21 20 -28 -29 c-23 -24 -26 -32 -17 -49 15 -29 15 -29 -26 -28 -30 1
-39 -4 -50 -24 -11 -21 -9 -27 9 -47 32 -35 16 -37 -21 -3 -18 17 -29 30 -26
30 4 0 -7 19 -24 42 -17 23 -31 50 -31 59 0 18 -15 32 -38 35 -8 2 -22 10 -32
19 -18 16 -18 19 -3 41 13 20 13 27 3 39 -9 10 -10 19 -3 26 6 6 26 -4 56 -27
40 -31 45 -39 35 -53 -10 -13 -10 -14 1 -4 7 6 21 9 30 6 9 -4 -2 9 -24 27
-42 34 -43 38 -19 75 14 21 17 22 42 9 15 -7 34 -22 42 -34 8 -11 20 -20 27
-20 7 0 -5 16 -27 36 -22 20 -38 40 -35 44 6 10 133 100 140 100 3 0 14 9 25
20 12 12 25 18 30 15 6 -4 10 -1 10 5 0 6 4 9 9 6 5 -3 15 2 22 11 8 9 30 23
49 31 32 13 35 13 52 -8 21 -26 24 -19 6 10 -11 17 -10 22 2 30 9 6 17 5 22
-3 5 -7 7 -2 6 13 -2 15 -17 35 -36 50 -23 17 -44 49 -67 102 -30 71 -32 79
-17 88 13 8 11 9 -10 4 -19 -4 -28 -2 -28 6 0 6 -9 24 -21 38 l-21 27 44 6 43
6 -41 1 c-44 2 -70 22 -61 46 4 10 1 13 -9 9 -8 -3 -14 1 -14 10 0 8 -9 17
-21 20 -20 6 -20 7 11 65 64 120 240 282 370 340 126 56 278 92 388 92 86 0
220 -30 317 -71 200 -83 364 -251 436 -444 13 -33 23 -61 24 -62 3 -7 145 25
144 32 -2 13 -35 86 -72 160 -39 77 -73 127 -132 193 -46 51 -44 74 2 30 17
-15 23 -17 23 -7 0 8 9 20 21 27 12 7 18 16 15 19 -3 4 -14 -1 -24 -11 -18
-15 -21 -15 -58 1 -21 9 -42 16 -46 15 -3 -1 -28 14 -55 33 -92 67 -227 130
-343 162 -182 49 -354 46 -544 -11 -25 -8 -46 -10 -46 -5 0 14 -46 -8 -73 -35
-15 -14 -32 -26 -39 -26 -7 0 -24 -9 -38 -20 -14 -11 -31 -20 -39 -20 -41 0
-291 -229 -291 -267 0 -8 -10 -24 -22 -35 -13 -11 -17 -17 -10 -13 18 9 15 -6
-5 -21 -17 -13 -17 -14 0 -8 10 4 23 16 28 28 11 26 29 54 49 76 39 44 54 66
52 74 -2 5 4 6 12 3 9 -4 15 -3 14 1 -4 11 83 92 98 92 7 0 17 6 21 13 4 6 24
21 43 31 130 71 177 92 189 88 9 -3 11 0 6 8 -5 8 -4 11 3 6 6 -4 26 0 44 7
93 39 358 55 468 29 50 -11 108 -23 128 -24 6 -1 12 -5 12 -9 0 -7 47 -22 53
-17 2 2 11 -3 20 -11 10 -7 17 -10 17 -6 0 5 8 1 18 -7 9 -9 37 -26 62 -38 25
-13 47 -25 50 -29 3 -3 19 -13 35 -21 17 -8 56 -41 88 -75 32 -33 63 -59 68
-57 5 1 9 -2 9 -7 0 -12 61 -105 72 -109 5 -2 6 -7 3 -12 -3 -5 2 -16 11 -24
8 -9 12 -16 7 -16 -4 0 -1 -6 7 -13 18 -14 41 -62 46 -98 5 -25 -20 -59 -33
-46 -3 4 -13 2 -23 -3 -22 -12 -42 11 -58 65 -13 47 -91 166 -147 227 -46 48
-138 127 -169 145 -247 137 -489 167 -710 86 -23 -8 -45 -16 -51 -18 -5 -2
-21 -6 -34 -11 -134 -42 -336 -218 -429 -374 -22 -37 -24 -38 -55 -28 -18 6
-37 15 -44 20 -7 5 -21 7 -33 3 -25 -8 -25 -5 5 54 52 103 174 238 287 316 32
22 58 42 58 45 0 3 -15 5 -34 5 -55 -2 -111 -46 -143 -112 -19 -40 -33 -58
-45 -57 -10 1 -18 -3 -18 -8 0 -5 -20 -35 -44 -66 -24 -32 -56 -80 -71 -109
-15 -29 -32 -50 -37 -47 -9 6 -3 132 7 142 10 10 -28 42 -51 42 -42 0 -75 23
-95 66 -26 59 -25 94 3 94 21 0 21 1 3 13 -16 13 -17 19 -5 81 7 37 18 69 24
71 72 18 157 50 142 53 -17 4 -82 -9 -120 -24 -11 -4 -16 -1 -16 14 0 27 33
32 202 32 l139 0 -6 -22 c-5 -21 -5 -21 7 -6 12 13 38 17 146 20 79 2 133 -1
135 -7 2 -5 -9 -22 -25 -37 -21 -20 -24 -28 -13 -28 25 0 66 52 53 68 -7 8 -7
12 1 12 6 0 11 -5 11 -11 0 -6 9 -8 23 -3 19 6 97 12 195 13 17 1 32 5 32 9 0
5 -312 7 -693 6 -408 -1 -697 2 -703 7 -8 6 -14 4 -17 -5z m503 -34 c0 -4 -6
-16 -14 -27 -7 -11 -17 -47 -21 -80 -4 -33 -10 -78 -13 -100 -8 -65 -5 -102
14 -130 20 -31 83 -65 119 -65 20 0 25 -4 22 -17 -3 -10 -8 -40 -12 -68 -3
-27 -9 -60 -12 -72 -4 -19 3 -24 79 -47 45 -14 94 -33 107 -42 33 -24 128
-175 172 -274 23 -52 46 -90 60 -97 12 -6 27 -19 32 -29 6 -11 6 -15 -1 -10
-6 3 -14 1 -17 -5 -4 -5 -13 -8 -21 -5 -8 3 -14 1 -14 -4 0 -5 -28 -24 -62
-41 -65 -32 -197 -117 -233 -149 -46 -41 -122 -69 -201 -75 -44 -4 -84 -8 -91
-10 -34 -11 -111 33 -117 67 -1 7 -9 27 -18 43 -9 17 -19 50 -23 75 -4 25 -12
51 -17 58 -6 7 -8 30 -4 52 5 33 3 41 -15 51 -12 6 -38 9 -58 5 -30 -4 -40 -1
-60 19 -12 14 -27 22 -32 19 -5 -3 -9 5 -10 18 -1 23 -1 23 -8 -2 -5 -18 -3
-26 8 -29 26 -5 41 -22 41 -45 0 -28 -18 -46 -47 -46 -22 0 -23 3 -22 70 l2
71 57 50 c81 70 147 157 201 263 44 90 46 91 79 88 19 -1 63 -11 99 -22 86
-25 113 -28 118 -12 3 8 -5 12 -23 12 -16 0 -40 11 -58 28 -22 19 -25 21 -11
4 l19 -23 -29 5 c-15 3 -31 9 -34 13 -7 10 -23 13 -79 19 -31 3 -44 0 -48 -11
-3 -8 -10 -12 -15 -9 -5 3 -9 2 -7 -3 1 -4 -4 -27 -12 -50 -14 -45 -30 -48
-30 -6 0 59 -24 155 -46 188 -13 19 -22 35 -20 35 2 0 -30 35 -71 77 -73 77
-74 78 -72 128 3 62 9 85 21 85 5 0 7 -4 3 -9 -3 -5 4 -12 15 -16 11 -4 17
-11 14 -17 -5 -7 0 -9 14 -6 14 4 22 1 22 -6 0 -6 9 -12 20 -13 24 -2 125 -70
168 -114 19 -19 47 -55 64 -81 36 -55 43 -60 26 -20 -17 40 -82 124 -115 148
-40 30 -180 114 -190 114 -18 1 -50 37 -55 63 l-5 27 233 0 c129 0 234 -3 234
-8z m391 -245 c-10 -9 -11 -8 -5 6 3 10 9 15 12 12 3 -3 0 -11 -7 -18z m-658
-402 c-3 -9 -8 -14 -10 -11 -3 3 -2 9 2 15 9 16 15 13 8 -4z m-93 -377 c0 -9
3 -9 11 -1 6 6 19 8 30 6 26 -7 27 -63 1 -63 -40 0 -56 -48 -27 -80 14 -16 14
-18 -5 -23 -11 -3 -20 -1 -20 4 0 5 -3 8 -7 7 -11 -3 -63 33 -63 43 0 5 6 9
13 9 8 0 24 11 37 25 12 13 26 23 29 20 4 -2 8 5 8 16 1 10 -2 19 -8 19 -5 0
-9 -5 -9 -10 0 -22 -53 -60 -83 -60 -22 0 -27 -3 -19 -12 9 -12 -1 -58 -13
-58 -3 0 -5 24 -5 53 0 50 1 53 28 55 16 1 37 13 52 32 26 31 50 40 50 18z
m65 -86 c10 -7 11 -11 20 -106 2 -33 10 -65 16 -70 7 -8 8 -3 4 17 -10 37 0
35 14 -3 6 -18 6 -28 1 -25 -6 4 -10 2 -10 -3 0 -6 21 -24 47 -41 47 -32 105
-41 141 -22 9 4 35 11 57 14 34 6 41 4 41 -11 1 -9 4 -24 8 -33 12 -27 -26
-34 -46 -9 -23 28 -53 13 -53 -27 0 -21 -5 -29 -22 -31 -19 -3 -23 1 -23 22 0
37 -45 37 -54 1 -4 -17 -13 -25 -27 -25 -19 0 -21 4 -16 34 4 27 2 35 -12 39
-21 5 -59 -24 -54 -40 3 -7 -8 -20 -24 -30 -39 -24 -33 -54 10 -50 44 3 49
-26 8 -48 -31 -15 -44 -53 -18 -52 43 1 57 -4 57 -23 0 -14 -9 -21 -35 -26
-28 -5 -35 -11 -35 -29 0 -17 7 -24 30 -28 17 -4 30 -11 30 -16 0 -16 -30 -41
-50 -41 -25 0 -35 -32 -14 -47 9 -7 21 -14 27 -16 5 -1 7 -13 2 -26 -6 -19
-12 -22 -37 -19 -43 7 -58 -25 -23 -48 29 -19 30 -24 12 -48 -10 -14 -18 -15
-38 -8 -21 8 -28 7 -38 -10 -11 -17 -10 -22 8 -35 40 -28 14 -71 -32 -54 -38
15 -54 -9 -31 -44 17 -25 16 -27 -4 -48 l-22 -21 0 69 c0 64 3 75 36 124 159
236 156 549 -7 726 -45 49 -48 63 -15 94 l24 23 31 -23 c36 -26 39 -33 11 -26
-23 6 -45 -16 -36 -38 8 -22 18 -19 56 15 18 17 41 30 51 30 9 0 20 7 23 16 9
24 7 34 -8 34 -22 0 -38 24 -24 38 14 14 28 15 43 4z m1098 -9 c-7 -2 -19 -2
-25 0 -7 3 -2 5 12 5 14 0 19 -2 13 -5z m302 -33 c-3 -5 -13 -10 -21 -10 -8 0
-12 5 -9 10 3 6 13 10 21 10 8 0 12 -4 9 -10z m85 0 c0 -5 -10 -10 -22 -10
-19 0 -20 2 -8 10 19 13 30 13 30 0z m-210 -76 c0 -8 -19 -13 -24 -6 -3 5 1 9
9 9 8 0 15 -2 15 -3z m-1414 -118 c1 -11 7 -22 13 -24 6 -2 11 -11 11 -19 0
-9 3 -13 7 -9 14 14 54 -138 54 -206 0 -104 -29 -238 -51 -238 -4 0 -11 -17
-15 -37 -4 -21 -19 -63 -33 -93 l-27 -55 -3 70 c-2 39 2 88 8 110 8 29 8 50 0
75 -6 19 -13 142 -16 275 l-4 240 27 -35 c16 -19 29 -43 29 -54z m1334 64 c0
-5 -4 -10 -9 -10 -6 0 -13 5 -16 10 -3 6 1 10 9 10 9 0 16 -4 16 -10z m-780
-45 c-7 -8 -20 -15 -29 -15 -13 1 -13 3 3 15 26 19 42 19 26 0z m610 -13 c0
-5 -7 -9 -15 -9 -8 0 -12 4 -9 9 3 4 9 8 15 8 5 0 9 -4 9 -8z m-795 -156 c34
-21 37 -26 22 -32 -10 -3 -23 -2 -30 5 -6 6 -17 11 -24 11 -8 0 -25 7 -39 16
-23 16 -24 18 -8 35 15 17 18 17 28 4 6 -9 29 -26 51 -39z m662 12 c-3 -7 -5
-2 -5 12 0 14 2 19 5 13 2 -7 2 -19 0 -25z m-23 -13 c3 -10 -1 -15 -12 -15
-10 0 -23 -5 -29 -11 -6 -6 -16 -8 -22 -4 -8 4 -4 13 11 25 28 23 44 25 52 5z
m-69 -45 c3 -6 -1 -13 -10 -16 -19 -8 -30 0 -20 15 8 14 22 14 30 1z m222
-206 c-9 -9 -28 6 -21 18 4 6 10 6 17 -1 6 -6 8 -13 4 -17z m-682 -114 c3 -6
-4 -9 -19 -8 -13 1 -22 6 -20 10 7 11 32 10 39 -2z"/>
<path d="M465 1960 c-3 -5 1 -10 10 -10 9 0 13 5 10 10 -3 6 -8 10 -10 10 -2
0 -7 -4 -10 -10z"/>
<path d="M355 1740 c-9 -17 -11 -30 -5 -30 5 0 10 5 10 11 0 6 8 8 19 4 12 -3
21 0 25 10 3 10 -1 15 -12 15 -15 0 -15 2 -2 10 13 8 13 10 -2 10 -10 0 -24
-13 -33 -30z"/>
<path d="M537 1744 c-4 -4 -19 -7 -33 -8 -33 -1 -39 -15 -20 -41 14 -20 15
-20 22 0 4 11 16 28 28 37 12 10 18 18 15 18 -3 0 -9 -3 -12 -6z m-37 -24 c0
-5 -2 -10 -4 -10 -3 0 -8 5 -11 10 -3 6 -1 10 4 10 6 0 11 -4 11 -10z"/>
<path d="M576 1723 c-6 -14 -5 -15 5 -6 7 7 10 15 7 18 -3 3 -9 -2 -12 -12z"/>
<path d="M614 1702 c6 -17 3 -22 -10 -22 -13 0 -14 -3 -4 -15 18 -21 27 -19
32 10 3 15 -1 30 -10 37 -13 11 -14 10 -8 -10z"/>
<path d="M416 1701 c-4 -5 3 -7 14 -4 23 6 26 13 6 13 -8 0 -17 -4 -20 -9z"/>
<path d="M300 1651 c-12 -24 -13 -34 -1 -27 5 3 12 -1 15 -10 3 -8 10 -12 16
-9 15 10 12 35 -5 35 -18 0 -20 16 -2 23 9 4 9 6 0 6 -7 1 -17 -8 -23 -18z"/>
<path d="M774 1662 c3 -5 0 -13 -6 -15 -9 -4 -10 -6 -1 -6 17 -1 25 16 12 25
-7 4 -9 3 -5 -4z"/>
<path d="M407 1649 c7 -7 15 -10 18 -7 3 3 -2 9 -12 12 -14 6 -15 5 -6 -5z"/>
<path d="M716 1651 c-9 -14 4 -41 21 -41 9 0 13 8 11 22 -3 23 -23 35 -32 19z
m24 -11 c0 -5 -2 -10 -4 -10 -3 0 -8 5 -11 10 -3 6 -1 10 4 10 6 0 11 -4 11
-10z"/>
<path d="M483 1591 c-18 -8 -33 -20 -33 -27 0 -7 -5 -14 -10 -16 -6 -2 -13
-23 -16 -48 -4 -37 -1 -51 16 -73 60 -76 176 -36 187 66 6 52 -8 84 -45 99
-40 16 -64 16 -99 -1z m112 -31 c11 -12 19 -36 19 -57 0 -47 -48 -93 -98 -93
-34 0 -62 20 -48 34 4 4 0 6 -8 4 -11 -2 -16 7 -18 35 -3 30 2 43 27 67 37 37
97 42 126 10z"/>
<path d="M524 1561 c4 -5 0 -11 -6 -13 -7 -3 0 -7 15 -10 27 -5 27 -5 11 13
-18 20 -29 25 -20 10z"/>
<path d="M575 1540 c3 -5 8 -10 11 -10 2 0 4 5 4 10 0 6 -5 10 -11 10 -5 0 -7
-4 -4 -10z"/>
<path d="M520 1511 c0 -5 7 -11 15 -15 8 -3 15 -1 15 3 0 5 -7 11 -15 15 -8 3
-15 1 -15 -3z"/>
<path d="M480 1499 c0 -25 22 -49 45 -49 24 0 45 25 45 52 0 7 -6 2 -13 -12
-12 -25 -57 -41 -57 -21 0 6 8 11 17 11 15 0 14 2 -3 15 -23 17 -34 19 -34 4z"/>
<path d="M807 1568 c4 -22 4 -23 -11 -4 -13 16 -16 17 -16 4 0 -8 6 -21 14
-27 10 -9 17 -6 29 13 15 22 15 25 1 30 -22 9 -23 8 -17 -16z"/>
<path d="M226 1529 c-6 -33 17 -79 39 -79 22 0 47 32 42 52 -3 11 -1 18 5 16
5 -2 9 -7 9 -11 -1 -4 -1 -15 -1 -26 0 -11 -12 -23 -30 -31 -28 -12 -33 -10
-57 11 -25 23 -24 10 3 -21 18 -22 29 -70 15 -70 -9 0 -9 -5 -1 -20 6 -11 15
-18 21 -15 5 4 6 12 2 18 -19 31 4 87 35 87 12 0 12 -3 1 -17 -12 -16 -11 -16
8 0 16 14 22 15 26 5 3 -7 4 1 2 17 -1 17 -3 42 -4 58 -1 29 -29 47 -82 54
-23 2 -28 -2 -33 -28z m71 -22 c3 -23 0 -27 -21 -27 -28 0 -47 20 -19 21 16 0
16 1 -2 8 -19 8 -19 8 0 19 27 16 38 10 42 -21z"/>
<path d="M716 1539 c-15 -12 -31 -17 -38 -13 -10 6 -10 5 -1 -7 7 -8 10 -24 7
-35 -3 -12 1 -26 10 -33 9 -8 16 -19 16 -25 0 -6 8 -20 17 -31 13 -16 15 -17
10 -3 -7 20 42 52 66 42 7 -2 14 1 14 8 0 7 3 23 7 35 5 16 -1 28 -26 52 -39
37 -47 38 -82 10z m59 -15 c33 -22 33 -57 0 -72 -35 -16 -49 -15 -68 6 -26 28
-4 71 41 81 1 1 14 -6 27 -15z"/>
<path d="M708 1498 c-4 -10 -1 -24 8 -33 18 -18 20 -18 45 -5 20 11 26 40 8
40 -5 0 -7 -4 -4 -10 3 -6 -5 -10 -19 -10 -15 0 -26 6 -28 18 -3 16 -4 16 -10
0z"/>
<path d="M864 1538 c-4 -6 -3 -8 3 -5 6 4 16 -12 23 -38 7 -25 17 -48 22 -52
11 -6 5 19 -18 74 -16 36 -19 39 -30 21z"/>
<path d="M120 1434 c1 -12 25 -44 34 -44 3 0 6 12 5 28 0 15 -3 21 -6 14 -4
-10 -8 -10 -19 -1 -8 6 -14 8 -14 3z"/>
<path d="M770 1420 c-8 -5 -12 -12 -9 -15 4 -3 12 1 19 10 14 17 11 19 -10 5z"/>
<path d="M868 1423 c6 -2 12 -9 12 -15 0 -6 -7 -8 -15 -4 -19 7 -20 -8 -1 -23
11 -9 15 -8 20 5 11 28 6 44 -11 43 -11 0 -13 -3 -5 -6z"/>
<path d="M946 1410 c4 -14 12 -38 19 -55 10 -23 13 -25 14 -10 0 11 -9 36 -20
55 -15 26 -18 29 -13 10z"/>
<path d="M341 1394 c0 -11 3 -14 6 -6 3 7 2 16 -1 19 -3 4 -6 -2 -5 -13z"/>
<path d="M822 1370 c0 -19 2 -27 5 -17 2 9 2 25 0 35 -3 9 -5 1 -5 -18z"/>
<path d="M315 1360 c-4 -6 -5 -10 -3 -11 25 -6 38 -6 38 1 0 12 -29 20 -35 10z"/>
<path d="M743 1345 c0 -8 3 -13 5 -10 3 3 12 -1 21 -7 10 -8 9 -4 -3 10 -23
26 -23 26 -23 7z"/>
<path d="M876 1306 c4 -11 13 -12 37 -5 41 12 56 11 37 -1 -12 -7 -10 -11 10
-18 37 -14 60 7 28 24 -33 19 -119 18 -112 0z"/>
<path d="M760 1304 c0 -6 7 -19 16 -30 14 -18 14 -18 3 6 -14 31 -19 36 -19
24z"/>
<path d="M853 1291 c0 -11 5 -18 9 -15 4 3 5 11 1 19 -7 21 -12 19 -10 -4z"/>
<path d="M822 1278 c-14 -14 -16 -32 -3 -24 11 7 8 -21 -4 -31 -4 -4 -5 -2 -1
5 4 6 3 12 -2 12 -5 0 -10 -10 -10 -22 0 -13 -1 -27 -2 -33 -6 -28 0 -36 20
-25 19 10 29 41 13 39 -20 -3 -23 2 -9 17 9 8 16 29 16 45 0 33 -1 34 -18 17z"/>
<path d="M920 1276 c0 -4 5 -16 11 -27 11 -22 29 -17 29 8 0 9 -3 13 -7 10 -3
-4 -12 -2 -20 4 -7 6 -13 8 -13 5z"/>
<path d="M325 1250 c3 -5 8 -10 11 -10 2 0 4 5 4 10 0 6 -5 10 -11 10 -5 0 -7
-4 -4 -10z"/>
<path d="M400 1252 c-25 -9 -62 -47 -82 -85 -18 -36 -18 -41 -4 -72 36 -75
110 -98 163 -51 30 27 43 36 48 36 10 0 5 -25 -10 -54 -9 -16 -13 -31 -11 -33
11 -11 29 46 32 101 4 71 -11 111 -54 143 -28 21 -52 25 -82 15z m75 -28 c25
-10 47 -62 40 -93 -7 -33 -50 -76 -84 -84 -13 -3 -35 -1 -49 4 -62 24 -71 92
-18 145 34 34 71 43 111 28z"/>
<path d="M377 1146 c-12 -35 23 -64 62 -51 25 8 37 43 21 59 -10 8 -11 6 -5
-11 5 -18 1 -25 -20 -35 -33 -15 -56 2 -35 26 7 9 16 13 21 10 5 -3 9 -1 9 4
0 14 -48 12 -53 -2z"/>
<path d="M864 1245 c-10 -8 -14 -15 -8 -15 6 0 17 7 24 15 16 19 9 19 -16 0z"/>
<path d="M295 1212 c3 -7 5 -16 5 -18 0 -13 18 -1 22 14 4 12 -1 18 -14 18
-11 0 -17 -5 -13 -14z"/>
<path d="M694 1143 c-7 -11 -8 -27 -3 -41 10 -27 29 -29 29 -3 0 11 10 27 22
35 12 9 17 16 11 16 -7 0 -15 -4 -18 -10 -9 -15 -23 -12 -27 5 -2 13 -5 13
-14 -2z m16 -23 c0 -5 -2 -10 -4 -10 -3 0 -8 5 -11 10 -3 6 -1 10 4 10 6 0 11
-4 11 -10z"/>
<path d="M624 1058 l-19 -21 28 18 c28 18 33 25 19 25 -5 0 -17 -10 -28 -22z"/>
<path d="M555 1060 c-7 -12 12 -50 25 -50 6 0 10 9 10 21 0 11 -4 18 -9 14 -5
-3 -12 -1 -15 4 -4 5 2 12 11 14 16 4 16 5 1 6 -9 0 -20 -3 -23 -9z"/>
<path d="M186 1067 c2 -7 -4 -21 -15 -31 -18 -17 -19 -46 -1 -46 4 0 21 12 38
26 35 31 33 64 -4 64 -15 0 -22 -5 -18 -13z m15 -30 c-10 -9 -11 -8 -5 6 3 10
9 15 12 12 3 -3 0 -11 -7 -18z"/>
<path d="M270 1006 c0 -2 8 -10 18 -17 15 -13 16 -12 3 4 -13 16 -21 21 -21
13z"/>
<path d="M236 986 c3 -9 -5 -21 -20 -31 -20 -14 -24 -21 -16 -35 13 -24 42
-16 62 18 12 19 14 32 7 45 -12 21 -41 23 -33 3z"/>
<path d="M70 959 c0 -5 5 -7 10 -4 6 3 10 8 10 11 0 2 -4 4 -10 4 -5 0 -10 -5
-10 -11z"/>
<path d="M94 914 c4 -10 19 -57 32 -104 25 -85 26 -105 10 -272 -4 -43 1 -49
13 -15 5 14 4 25 -2 29 -7 4 -6 12 3 23 8 10 13 33 11 52 -2 27 0 33 11 28 10
-6 11 -5 1 6 -15 16 -18 63 -3 54 13 -8 13 -3 -4 31 -8 16 -16 43 -18 59 -1
17 -7 33 -13 37 -6 5 -5 8 3 8 8 0 5 8 -8 22 -11 12 -20 27 -20 34 0 7 -5 16
-12 20 -8 5 -9 2 -4 -12z"/>
<path d="M60 885 c0 -4 5 -15 10 -26 17 -30 22 -84 23 -209 0 -81 3 -106 9
-85 22 76 -2 301 -33 321 -5 3 -9 2 -9 -1z"/>
<path d="M2813 2347 c-46 -20 -50 -24 -38 -40 7 -10 16 -14 19 -8 3 5 0 11 -6
14 -12 3 53 31 76 32 5 0 11 6 14 13 5 16 -4 15 -65 -11z"/>
<path d="M2901 2335 c0 -35 1 -37 10 -17 6 15 5 30 -1 40 -7 13 -9 8 -9 -23z"/>
<path d="M6 2336 c-3 -15 -2 -35 3 -45 6 -10 10 -79 11 -152 0 -210 9 -552 15
-557 3 -3 5 22 5 54 0 34 5 66 12 73 10 11 10 12 1 7 -10 -5 -12 18 -7 106 9
200 0 454 -18 475 -5 7 -7 17 -3 22 3 6 2 18 -3 27 -8 14 -10 12 -16 -10z m41
-358 c-2 -13 -4 -3 -4 22 0 25 2 35 4 23 2 -13 2 -33 0 -45z"/>
<path d="M1565 2351 l30 -7 -35 -11 c-19 -7 -61 -17 -92 -23 -32 -6 -58 -13
-58 -16 0 -13 138 11 162 29 19 14 51 22 110 27 l83 7 -115 0 c-63 1 -101 -2
-85 -6z"/>
<path d="M2738 2353 c7 -3 16 -2 19 1 4 3 -2 6 -13 5 -11 0 -14 -3 -6 -6z"/>
<path d="M705 2283 c-3 -26 -9 -69 -14 -95 -4 -27 -5 -48 -1 -48 4 0 11 21 14
48 19 141 10 132 100 102 32 -11 62 -17 67 -14 5 2 11 -8 14 -23 4 -15 10 -38
15 -50 6 -15 6 -23 -1 -23 -11 0 -72 -94 -75 -118 -2 -9 -5 -27 -8 -41 -3 -17
1 -12 14 14 10 22 19 45 19 51 2 27 60 73 105 85 25 6 46 15 46 20 0 13 -24
11 -39 -3 -10 -11 -16 -8 -32 11 -26 31 -24 47 7 67 48 32 189 39 164 9 -8
-10 -8 -15 1 -21 7 -4 9 -3 5 4 -3 6 -2 14 4 17 24 15 -13 35 -62 35 -59 0
-140 -19 -132 -31 9 -15 -23 -10 -35 5 -6 7 -39 19 -74 26 -34 6 -70 14 -79
16 -13 4 -18 -5 -23 -43z"/>
<path d="M1680 2311 c8 -6 27 -11 41 -11 22 0 162 -33 244 -57 43 -12 5 9 -51
28 -68 24 -82 28 -144 34 -25 3 -58 8 -75 11 -23 4 -26 3 -15 -5z"/>
<path d="M2911 2274 c0 -11 3 -14 6 -6 3 7 2 16 -1 19 -3 4 -6 -2 -5 -13z"/>
<path d="M2616 2261 c-4 -5 -20 -12 -36 -16 -35 -8 -38 -20 -11 -35 25 -13 41
-13 21 0 -13 9 -13 11 0 19 8 5 18 7 24 4 5 -3 6 -1 2 5 -4 7 -1 12 8 12 8 0
17 -6 20 -12 3 -7 5 -4 3 6 -2 22 -22 32 -31 17z"/>
<path d="M1135 2235 c-29 -13 -29 -13 -5 -14 14 0 34 6 44 14 26 19 2 19 -39
0z"/>
<path d="M553 2223 c-24 -9 -13 -18 22 -18 31 0 33 2 18 13 -18 13 -21 13 -40
5z"/>
<path d="M1128 2200 c-24 -7 -80 -40 -68 -40 3 0 32 11 65 25 58 24 59 32 3
15z"/>
<path d="M1016 2192 c-2 -4 0 -14 6 -22 8 -12 9 -12 5 2 -3 9 -1 19 6 22 9 3
9 5 0 5 -6 1 -14 -3 -17 -7z"/>
<path d="M2455 2169 c-4 -5 -27 -23 -52 -38 l-44 -28 25 -17 c14 -9 26 -12 26
-6 0 5 -4 10 -10 10 -5 0 -10 5 -10 10 0 6 5 10 10 10 6 0 20 9 32 19 11 11
28 17 37 14 14 -4 14 -3 1 7 -12 9 -8 10 19 4 32 -6 34 -5 19 10 -19 18 -44
21 -53 5z"/>
<path d="M1443 2125 c-72 -14 -108 -35 -116 -67 l-6 -23 17 21 c21 26 82 57
82 42 0 -7 4 -7 13 0 14 11 126 26 177 23 19 -1 45 -9 58 -17 22 -15 23 -14
13 4 -6 11 -18 22 -27 26 -25 10 -143 5 -211 -9z"/>
<path d="M1692 2127 c9 -7 38 -14 65 -14 l48 -2 -40 10 c-90 20 -92 21 -73 6z"/>
<path d="M683 2095 c0 -22 2 -30 4 -17 2 12 2 30 0 40 -3 9 -5 -1 -4 -23z"/>
<path d="M1820 2104 c0 -7 52 -25 57 -20 2 2 -10 8 -26 14 -17 6 -31 9 -31 6z"/>
<path d="M1749 2073 c-11 -15 -11 -16 1 -5 25 21 40 14 41 -20 l1 -33 8 29 c5
16 7 33 4 38 -9 14 -41 9 -55 -9z"/>
<path d="M2778 2083 c7 -3 16 -2 19 1 4 3 -2 6 -13 5 -11 0 -14 -3 -6 -6z"/>
<path d="M1900 2073 c0 -5 -14 -16 -31 -26 -18 -10 -29 -20 -26 -23 3 -3 16 0
29 8 36 20 60 18 98 -6 19 -13 58 -37 86 -54 60 -38 102 -82 97 -102 -3 -9 0
-8 7 3 14 22 6 35 -53 85 -69 60 -207 136 -207 115z"/>
<path d="M597 2063 c-4 -3 -7 -11 -7 -17 0 -6 5 -5 12 2 6 6 9 14 7 17 -3 3
-9 2 -12 -2z"/>
<path d="M1194 2035 c-10 -8 -14 -14 -9 -14 6 0 19 6 29 14 11 8 15 15 10 15
-6 0 -19 -7 -30 -15z"/>
<path d="M1730 2049 c0 -3 -20 -65 -45 -139 -25 -73 -43 -135 -41 -138 7 -6
15 16 61 156 21 62 35 116 31 119 -3 4 -6 4 -6 2z"/>
<path d="M104 1947 c0 -65 -6 -94 -26 -142 -33 -76 -23 -99 11 -25 26 59 40
186 24 227 -5 15 -8 -5 -9 -60z"/>
<path d="M1232 2018 c-16 -16 -15 -40 4 -64 15 -19 16 -19 8 1 -13 38 -10 60
8 59 10 -1 15 2 12 7 -7 12 -18 11 -32 -3z"/>
<path d="M2581 2016 c-10 -12 -8 -13 8 -9 12 3 18 9 15 14 -7 12 -10 11 -23
-5z"/>
<path d="M1775 1998 c-24 -69 -75 -231 -75 -240 0 -16 10 -4 15 18 2 11 11 39
20 64 24 65 54 170 49 170 -3 0 -7 -6 -9 -12z"/>
<path d="M2884 1999 c-80 -15 -249 -114 -309 -181 -67 -75 -65 -71 -53 -109
l10 -36 47 9 c105 20 100 17 61 38 -42 23 -57 25 -41 6 9 -11 7 -15 -11 -20
-37 -9 -46 -7 -53 14 -9 27 63 107 148 164 42 29 52 32 41 14 -5 -9 -2 -9 9 1
19 15 23 26 5 15 -7 -4 -8 -3 -4 5 4 6 11 9 15 6 5 -2 30 6 57 19 27 13 64 27
81 30 29 7 51 23 42 30 -2 1 -23 -1 -45 -5z"/>
<path d="M2360 1981 c0 -6 4 -13 10 -16 6 -3 7 1 4 9 -7 18 -14 21 -14 7z"/>
<path d="M1104 1969 c-26 -7 -122 -98 -175 -166 -22 -28 -31 -56 -23 -77 10
-25 22 -19 17 8 -11 53 182 258 200 213 4 -9 6 -9 6 1 1 19 32 14 58 -10 13
-12 23 -16 23 -10 0 11 -58 53 -70 51 -3 0 -19 -5 -36 -10z"/>
<path d="M2420 1901 c22 -32 24 -33 37 -15 7 10 13 21 13 26 0 13 -18 9 -23
-4 -3 -9 -11 -7 -27 7 l-24 20 24 -34z"/>
<path d="M170 1893 c0 -6 8 -17 18 -24 16 -13 16 -13 2 6 -8 11 -16 22 -17 24
-2 2 -3 0 -3 -6z"/>
<path d="M1438 1841 c9 -16 18 -28 20 -27 5 6 -21 56 -29 56 -5 0 0 -13 9 -29z"/>
<path d="M1593 1858 c0 -7 -4 -22 -7 -33 -5 -13 -2 -12 8 5 17 29 20 40 8 40
-5 0 -9 -6 -9 -12z"/>
<path d="M2200 1857 c0 -4 16 -29 35 -56 19 -26 35 -53 35 -58 0 -6 9 -18 20
-28 29 -26 25 -10 -15 54 -31 52 -75 103 -75 88z"/>
<path d="M2122 1825 c-7 -8 -9 -15 -4 -15 5 0 15 7 22 15 16 19 -1 19 -18 0z"/>
<path d="M2971 1804 c0 -11 3 -14 6 -6 3 7 2 16 -1 19 -3 4 -6 -2 -5 -13z"/>
<path d="M2991 1804 c0 -11 3 -14 6 -6 3 7 2 16 -1 19 -3 4 -6 -2 -5 -13z"/>
<path d="M1771 1788 c0 -9 -4 -25 -7 -35 -5 -17 -5 -17 6 0 6 10 9 25 7 35 -4
15 -5 15 -6 0z"/>
<path d="M2017 1708 c-87 -44 -156 -83 -153 -85 5 -6 149 63 248 119 73 41 93
46 101 23 6 -15 4 -16 -226 -135 -58 -30 -102 -56 -97 -58 11 -4 318 154 339
174 19 17 -2 44 -33 44 -11 -1 -92 -37 -179 -82z"/>
<path d="M1006 1754 c-4 -9 -4 -19 -1 -22 2 -3 7 3 11 12 4 9 4 19 1 22 -2 3
-7 -3 -11 -12z"/>
<path d="M1998 1763 c7 -3 16 -2 19 1 4 3 -2 6 -13 5 -11 0 -14 -3 -6 -6z"/>
<path d="M865 1709 c-4 -6 -5 -12 -2 -15 2 -3 7 2 10 11 7 17 1 20 -8 4z"/>
<path d="M1296 1707 c3 -10 9 -15 12 -12 3 3 0 11 -7 18 -10 9 -11 8 -5 -6z"/>
<path d="M1375 1680 c-3 -5 -1 -10 4 -10 6 0 11 5 11 10 0 6 -2 10 -4 10 -3 0
-8 -4 -11 -10z"/>
<path d="M2195 1676 c-11 -7 -51 -30 -90 -51 -104 -56 -137 -77 -131 -83 3 -2
11 0 18 6 7 5 31 20 53 32 135 76 169 92 191 87 13 -2 24 0 24 4 0 5 7 9 16 9
10 0 14 -6 11 -14 -3 -8 1 -17 8 -20 11 -4 12 -11 4 -36 -6 -16 -15 -31 -20
-31 -5 -1 -12 -2 -16 -4 -52 -14 -63 -18 -63 -26 0 -5 -6 -9 -13 -9 -23 0
-190 -109 -217 -141 -22 -26 -31 -29 -55 -24 -24 5 -27 4 -13 -5 21 -13 13
-40 -13 -40 -12 0 -16 -5 -13 -14 3 -8 1 -17 -5 -21 -6 -3 -11 -1 -11 4 0 6
-3 10 -7 9 -5 -1 -18 2 -31 6 -18 6 -30 1 -58 -23 -19 -17 -31 -31 -26 -31 4
0 14 6 21 13 11 10 13 9 8 -5 -4 -11 1 -18 15 -21 17 -5 20 -12 16 -38 -4 -25
-1 -33 14 -37 10 -2 18 -12 18 -22 0 -21 -25 -44 -39 -36 -5 4 -12 2 -16 -4
-3 -6 4 -10 18 -10 32 0 55 36 52 78 -2 26 1 32 16 32 15 0 19 -7 19 -33 0
-27 8 -39 53 -74 56 -45 69 -51 75 -33 2 6 0 10 -5 9 -47 -8 -42 9 22 84 103
122 263 220 413 252 77 17 157 38 115 31 -13 -2 -23 1 -23 7 0 8 -3 9 -8 1 -7
-10 -121 -36 -157 -35 -10 0 -33 -8 -50 -19 -17 -10 -44 -21 -60 -24 -17 -3
-36 -13 -42 -23 -7 -9 -13 -14 -13 -10 0 4 -25 -9 -55 -29 -30 -20 -52 -40
-49 -45 3 -5 -7 -14 -22 -19 -15 -6 -24 -13 -21 -16 7 -8 -16 -33 -24 -28 -9
5 -28 -18 -48 -58 -19 -38 -50 -55 -31 -17 11 23 10 23 -5 4 -13 -17 -17 -17
-29 -5 -8 8 -16 24 -18 35 -2 15 3 19 22 20 14 0 31 -7 38 -15 11 -13 11 -12
3 7 -7 13 -17 20 -28 17 -10 -3 -27 2 -38 11 -16 13 -16 16 -3 11 12 -3 15 -1
11 10 -3 7 -12 14 -20 14 -8 0 -11 -5 -7 -11 5 -8 -1 -10 -20 -7 -25 5 -30 -1
-27 -29 1 -7 -3 -13 -10 -13 -7 0 -9 10 -6 28 4 20 -1 34 -20 54 l-25 26 21
12 c18 9 26 7 48 -10 l26 -21 66 66 c36 36 89 81 116 101 66 46 194 110 261
130 l54 15 -25 48 c-13 27 -31 51 -40 55 -28 10 -80 7 -100 -8z m135 -70 c0
-17 -14 -29 -23 -20 -8 8 3 34 14 34 5 0 9 -6 9 -14z"/>
<path d="M1415 1586 c0 -36 3 -68 8 -72 4 -4 21 2 37 14 41 31 43 28 19 -20
-16 -31 -23 -38 -30 -27 -5 8 -9 10 -9 4 1 -5 16 -26 35 -45 19 -19 35 -30 35
-26 0 5 6 3 13 -3 10 -8 14 -7 14 4 0 8 -4 12 -8 10 -4 -3 -17 4 -30 14 -22
17 -22 21 -10 57 7 22 13 44 13 49 0 6 9 22 20 38 19 27 19 27 -2 27 -11 0
-31 6 -43 14 -12 8 -31 17 -42 20 -19 5 -20 1 -20 -58z m59 18 c21 -8 20 -24
-1 -40 -27 -20 -33 -17 -33 16 0 31 6 35 34 24z"/>
<path d="M1570 1634 c0 -8 -5 -14 -11 -14 -8 0 -7 -6 2 -17 8 -9 9 -14 3 -10
-7 4 -14 0 -18 -8 -4 -10 1 -15 14 -15 11 0 20 6 20 13 0 9 2 9 9 -1 4 -8 11
-13 15 -13 18 3 20 0 6 -9 -8 -5 -10 -10 -4 -10 5 0 21 -14 33 -31 19 -25 21
-33 10 -40 -8 -4 -25 -5 -39 -2 -22 6 -23 4 -12 -9 11 -14 8 -17 -18 -26 -31
-11 -38 -26 -19 -37 6 -4 16 0 22 8 7 8 20 17 31 21 14 5 17 2 12 -10 -3 -9
-9 -28 -12 -42 -6 -26 -5 -26 11 3 9 16 15 39 12 51 -2 15 5 25 25 37 27 16
28 16 28 -8 0 -18 6 -25 18 -25 10 0 22 -3 26 -7 7 -7 56 -13 56 -7 0 1 -16
12 -35 24 -19 12 -35 28 -35 36 0 22 -31 65 -41 58 -5 -3 -7 -10 -4 -15 3 -5
-1 -6 -9 -3 -14 5 -14 8 0 21 8 9 12 18 9 21 -3 4 -10 1 -14 -6 -6 -10 -10
-10 -20 2 -7 8 -10 20 -6 25 3 7 0 8 -9 5 -8 -3 -23 0 -33 6 -14 9 -14 10 -2
7 9 -3 20 -2 25 3 10 9 54 -5 54 -18 0 -5 6 -9 14 -9 22 0 6 27 -23 39 -55 22
-91 27 -91 12z"/>
<path d="M985 1619 c80 -25 259 -69 263 -64 3 3 3 5 -1 5 -3 0 -65 16 -137 35
-120 32 -198 47 -125 24z"/>
<path d="M1108 1623 c7 -3 16 -2 19 1 4 3 -2 6 -13 5 -11 0 -14 -3 -6 -6z"/>
<path d="M2566 1597 c3 -10 9 -15 12 -12 3 3 0 11 -7 18 -10 9 -11 8 -5 -6z"/>
<path d="M2693 1603 c9 -2 17 -9 17 -14 0 -5 7 -9 15 -9 8 0 15 5 15 11 0 5 4
8 9 4 5 -3 12 -1 15 4 3 4 -16 8 -42 8 -26 0 -39 -2 -29 -4z"/>
<path d="M2805 1595 c17 -8 38 -14 48 -15 9 0 17 -7 17 -15 0 -18 16 -20 26
-3 5 7 3 8 -6 3 -10 -6 -12 -4 -6 11 4 10 4 15 0 12 -4 -4 -14 -4 -23 1 -9 4
-32 11 -51 14 l-35 6 30 -14z"/>
<path d="M1375 1589 c-4 -5 -18 -14 -31 -19 -13 -5 -24 -15 -23 -22 0 -10 2
-10 6 0 2 6 13 12 22 12 10 0 26 9 36 20 10 11 13 20 7 20 -6 0 -14 -5 -17
-11z"/>
<path d="M2405 1560 c-3 -5 -1 -10 4 -10 6 0 11 5 11 10 0 6 -2 10 -4 10 -3 0
-8 -4 -11 -10z"/>
<path d="M2510 1560 c-131 -16 -334 -97 -439 -174 -55 -41 -170 -156 -155
-156 5 0 32 23 59 51 105 107 267 199 422 240 121 32 312 36 438 10 109 -22
138 -21 54 3 -112 32 -250 41 -379 26z"/>
<path d="M1090 1543 c0 -11 79 -37 86 -30 3 3 -8 9 -23 15 -15 5 -36 13 -45
17 -10 4 -18 3 -18 -2z"/>
<path d="M1366 1535 c-10 -8 -22 -12 -26 -10 -4 3 -14 -3 -21 -13 -13 -15 -12
-16 4 -3 20 15 23 2 5 -19 -7 -7 4 -1 25 15 20 15 37 31 37 36 0 12 -1 11 -24
-6z"/>
<path d="M1564 1529 c-8 -14 11 -33 25 -25 11 7 4 36 -9 36 -5 0 -12 -5 -16
-11z"/>
<path d="M1929 1523 c-13 -15 -12 -15 9 -4 23 12 28 21 13 21 -5 0 -15 -7 -22
-17z"/>
<path d="M2440 1510 c-91 -19 -104 -24 -192 -64 -96 -44 -211 -127 -276 -198
-19 -21 -38 -35 -43 -32 -5 3 -9 0 -9 -5 0 -13 10 -14 30 -1 9 6 17 5 23 -3 5
-7 7 -3 4 11 -3 13 -3 21 0 18 4 -3 16 2 27 11 21 18 21 18 4 -3 -10 -11 -18
-24 -18 -29 0 -4 9 4 21 19 11 14 18 30 14 35 -5 10 19 28 40 30 6 1 10 5 10
10 0 6 6 16 13 23 6 6 12 8 12 3 0 -5 11 2 25 15 14 13 25 19 25 15 0 -5 7 1
16 13 8 12 22 22 30 22 8 0 14 5 14 11 0 6 9 8 21 4 15 -5 19 -4 15 4 -4 7 1
11 13 11 12 0 21 5 21 10 0 6 11 10 24 10 14 0 27 4 30 9 11 18 149 45 233 46
28 0 49 3 47 7 -3 4 5 6 16 5 11 -1 20 -6 20 -12 0 -5 4 -4 8 2 6 10 26 11 82
4 41 -5 77 -8 81 -5 4 2 9 0 11 -5 1 -6 20 -12 41 -14 60 -7 29 12 -49 28 -96
20 -278 18 -384 -5z"/>
<path d="M1086 1501 c-3 -5 5 -11 19 -13 30 -6 32 -2 6 12 -11 6 -22 6 -25 1z"/>
<path d="M1349 1483 c-13 -16 -12 -17 4 -4 9 7 17 15 17 17 0 8 -8 3 -21 -13z"/>
<path d="M1410 1488 c0 -10 -4 -18 -8 -18 -19 0 -120 -156 -108 -168 3 -3 0
-12 -6 -20 -10 -11 -8 -17 7 -28 12 -9 14 -14 5 -14 -7 0 -10 -3 -7 -6 4 -4
14 -1 23 7 17 14 20 15 67 17 19 1 26 6 21 14 -5 8 -2 9 9 5 24 -9 21 0 -3 13
-16 8 -20 8 -18 -2 2 -8 -10 -14 -32 -16 -19 -2 -37 -8 -40 -12 -3 -5 -12 -5
-20 1 -13 8 -12 11 4 24 10 8 23 12 27 9 5 -3 13 6 19 20 5 14 14 26 20 26 5
0 10 4 10 10 0 18 -29 -2 -37 -26 -5 -16 -12 -21 -21 -15 -10 6 -8 16 9 47 13
21 24 41 26 43 2 3 13 -5 26 -16 23 -21 93 -41 82 -23 -3 6 -1 10 4 10 6 0 11
-6 11 -12 0 -9 3 -8 10 2 11 18 -8 32 -29 20 -24 -12 -56 -7 -75 12 -16 16
-16 19 0 43 9 14 20 25 25 25 12 0 11 -37 -1 -43 -6 -3 -5 -4 1 -3 21 4 28 40
13 66 -10 19 -13 21 -14 8z"/>
<path d="M1511 1473 c0 -24 2 -25 8 -9 7 18 8 18 14 3 3 -9 11 -17 16 -17 12
0 2 32 -13 42 -20 14 -26 8 -25 -19z"/>
<path d="M1874 1485 c-8 -21 14 -45 40 -44 17 0 16 2 -7 11 -21 8 -27 15 -24
29 6 23 -1 25 -9 4z"/>
<path d="M1960 1480 c-9 -6 -10 -10 -3 -10 6 0 15 5 18 10 8 12 4 12 -15 0z"/>
<path d="M32 1455 c3 -28 11 -24 13 5 1 11 -2 20 -7 20 -4 0 -7 -11 -6 -25z"/>
<path d="M2717 1463 c-4 -3 -31 -6 -60 -5 -28 1 -59 -2 -67 -8 -10 -6 8 -9 60
-9 66 0 256 -31 281 -47 5 -3 9 0 9 5 0 6 -6 11 -13 11 -8 0 -24 9 -37 20 -26
22 -45 27 -33 8 4 -7 -5 -5 -20 5 -15 9 -27 13 -27 7 0 -5 -5 -10 -11 -10 -5
0 -7 5 -3 11 4 8 -1 9 -16 4 -15 -5 -20 -4 -16 4 8 12 -36 16 -47 4z"/>
<path d="M1334 1445 c-10 -8 -14 -15 -8 -15 6 0 17 7 24 15 16 19 9 19 -16 0z"/>
<path d="M2115 1450 c-3 -5 -1 -10 4 -10 6 0 11 5 11 10 0 6 -2 10 -4 10 -3 0
-8 -4 -11 -10z"/>
<path d="M1650 1433 c0 -10 4 -14 8 -8 4 6 11 13 16 18 5 4 2 7 -7 7 -10 0
-17 -8 -17 -17z"/>
<path d="M2600 1420 c0 -5 5 -10 10 -10 6 0 10 5 10 10 0 6 -4 10 -10 10 -5 0
-10 -4 -10 -10z"/>
<path d="M2645 1419 c-16 -6 -14 -8 13 -8 33 -1 41 4 20 12 -7 2 -22 1 -33 -4z"/>
<path d="M1654 1395 c-9 -14 -14 -28 -11 -31 3 -3 13 8 22 25 19 37 12 41 -11
6z"/>
<path d="M2725 1410 c-3 -5 1 -10 10 -10 9 0 13 5 10 10 -3 6 -8 10 -10 10 -2
0 -7 -4 -10 -10z"/>
<path d="M1458 1403 c7 -3 16 -2 19 1 4 3 -2 6 -13 5 -11 0 -14 -3 -6 -6z"/>
<path d="M2800 1404 c0 -2 9 -8 20 -14 11 -6 20 -7 20 -2 0 6 -9 12 -20 15
-11 3 -20 3 -20 1z"/>
<path d="M1686 1383 c-6 -14 -5 -15 5 -6 7 7 10 15 7 18 -3 3 -9 -2 -12 -12z"/>
<path d="M2418 1360 c-9 -22 -13 -40 -8 -40 4 0 14 15 21 33 7 17 14 35 17 40
2 4 0 7 -5 7 -4 0 -16 -18 -25 -40z"/>
<path d="M1550 1382 c0 -4 9 -13 21 -20 18 -12 20 -11 17 4 -3 16 -38 30 -38
16z"/>
<path d="M1525 1370 c3 -5 2 -10 -3 -10 -6 0 -12 -6 -15 -14 -4 -11 -1 -11 18
-2 21 10 24 36 3 36 -5 0 -6 -4 -3 -10z"/>
<path d="M1996 1353 c-6 -14 -5 -15 5 -6 7 7 10 15 7 18 -3 3 -9 -2 -12 -12z"/>
<path d="M2328 1349 c-2 -3 -16 -12 -32 -20 -16 -8 -32 -20 -34 -28 -3 -10 5
-7 23 7 15 12 36 22 45 22 10 0 23 6 30 14 9 12 8 15 -9 13 -11 -1 -22 -4 -23
-8z"/>
<path d="M1418 1343 c7 -3 16 -2 19 1 4 3 -2 6 -13 5 -11 0 -14 -3 -6 -6z"/>
<path d="M1430 1324 c-17 -9 -20 -14 -9 -14 9 0 22 7 29 15 15 18 13 18 -20
-1z"/>
<path d="M1535 1329 c-19 -9 -19 -9 2 -5 16 3 23 -2 26 -18 3 -17 5 -15 6 7 1
29 -3 31 -34 16z"/>
<path d="M2371 1307 c-1 -16 16 -70 37 -120 21 -51 37 -98 34 -105 -2 -6 -24
16 -49 51 -60 81 -123 150 -123 134 0 -7 13 -26 29 -41 16 -16 51 -59 78 -97
48 -68 83 -89 83 -50 0 11 -16 61 -36 113 -20 51 -40 104 -44 118 l-8 25 -1
-28z"/>
<path d="M1463 1305 c-3 -9 -3 -18 -1 -21 3 -3 8 4 11 16 6 23 -1 27 -10 5z"/>
<path d="M2230 1295 c-8 -9 -8 -15 -2 -15 12 0 26 19 19 26 -2 2 -10 -2 -17
-11z"/>
<path d="M1480 1291 c0 -10 19 -25 25 -20 1 2 -3 10 -11 17 -8 7 -14 8 -14 3z"/>
<path d="M1528 1283 c7 -3 16 -2 19 1 4 3 -2 6 -13 5 -11 0 -14 -3 -6 -6z"/>
<path d="M1695 1280 c3 -5 11 -10 16 -10 6 0 7 5 4 10 -3 6 -11 10 -16 10 -6
0 -7 -4 -4 -10z"/>
<path d="M1810 1280 c0 -5 5 -10 11 -10 5 0 7 5 4 10 -3 6 -8 10 -11 10 -2 0
-4 -4 -4 -10z"/>
<path d="M2577 1283 c-4 -3 -7 -19 -7 -34 0 -15 -9 -56 -20 -90 -12 -41 -16
-67 -10 -73 9 -9 15 4 11 27 0 4 3 7 8 7 6 0 10 8 10 18 0 59 14 129 29 140
14 10 14 12 1 12 -9 0 -19 -3 -22 -7z"/>
<path d="M2777 1249 c7 -7 15 -10 18 -7 3 3 -2 9 -12 12 -14 6 -15 5 -6 -5z"/>
<path d="M2678 1243 c7 -3 16 -2 19 1 4 3 -2 6 -13 5 -11 0 -14 -3 -6 -6z"/>
<path d="M1367 1229 c7 -7 15 -10 18 -7 3 3 -2 9 -12 12 -14 6 -15 5 -6 -5z"/>
<path d="M1761 1224 c0 -11 3 -14 6 -6 3 7 2 16 -1 19 -3 4 -6 -2 -5 -13z"/>
<path d="M2120 1185 c-29 -30 -56 -52 -59 -50 -2 3 1 11 7 17 7 7 12 19 12 28
0 8 -8 0 -16 -17 -10 -19 -24 -33 -35 -33 -10 0 -21 -5 -24 -11 -9 -14 4 -27
13 -13 10 15 42 25 42 13 0 -6 23 15 51 45 55 60 65 64 109 41 17 -9 30 -14
30 -11 0 3 -67 46 -73 46 -2 0 -27 -25 -57 -55z"/>
<path d="M1183 1190 c0 -25 2 -35 4 -22 2 12 2 32 0 45 -2 12 -4 2 -4 -23z"/>
<path d="M1140 1211 c0 -6 4 -13 10 -16 6 -3 7 1 4 9 -7 18 -14 21 -14 7z"/>
<path d="M1507 1195 c-18 -13 -17 -13 2 -20 11 -3 29 -2 38 4 16 9 16 10 1 11
-9 0 -18 4 -20 9 -1 5 -11 4 -21 -4z"/>
<path d="M2815 1199 c-19 -7 -19 -8 3 -8 12 -1 25 -8 28 -16 4 -9 11 -15 18
-14 24 3 37 -1 31 -11 -8 -13 4 -50 16 -50 6 0 7 6 2 13 -4 6 -6 22 -5 34 3
23 -23 44 -47 35 -8 -2 -11 0 -7 6 8 14 -15 21 -39 11z"/>
<path d="M1760 1185 c0 -8 5 -15 10 -15 6 0 10 7 10 15 0 8 -4 15 -10 15 -5 0
-10 -7 -10 -15z"/>
<path d="M1094 1178 c-4 -6 -3 -8 4 -4 21 13 25 -18 4 -35 -12 -9 -22 -20 -22
-24 0 -4 7 -2 15 5 8 6 18 10 22 7 4 -3 13 1 19 7 8 9 7 18 -6 34 -21 25 -26
27 -36 10z"/>
<path d="M1393 1173 c-18 -6 -16 -23 1 -23 17 0 30 16 19 23 -5 2 -14 2 -20 0z"/>
<path d="M2686 1167 c3 -10 9 -15 12 -12 3 3 0 11 -7 18 -10 9 -11 8 -5 -6z"/>
<path d="M2727 1167 c-3 -7 3 -13 14 -13 13 0 15 3 7 13 -6 7 -12 13 -13 13
-2 0 -5 -6 -8 -13z"/>
<path d="M1795 1150 c-3 -5 -1 -10 4 -10 6 0 11 5 11 10 0 6 -2 10 -4 10 -3 0
-8 -4 -11 -10z"/>
<path d="M1046 1133 c6 -4 14 -15 17 -23 5 -11 6 -9 4 4 -1 11 -9 21 -17 23
-10 3 -11 2 -4 -4z"/>
<path d="M1736 1127 c-33 -20 -57 -47 -43 -47 13 0 87 47 87 55 0 9 -25 4 -44
-8z"/>
<path d="M1007 1107 c4 -20 -8 -32 -74 -75 -43 -29 -100 -73 -128 -98 -47 -44
-47 -45 -5 -10 25 20 84 63 132 94 64 42 87 63 87 79 1 12 -3 24 -8 27 -4 3
-6 -5 -4 -17z"/>
<path d="M1030 1094 c0 -8 5 -12 10 -9 6 3 10 10 10 16 0 5 -4 9 -10 9 -5 0
-10 -7 -10 -16z"/>
<path d="M1546 1091 c-4 -5 -2 -12 3 -15 5 -4 12 -2 15 3 4 5 2 12 -3 15 -5 4
-12 2 -15 -3z"/>
<path d="M1875 1080 c3 -5 13 -10 21 -10 8 0 12 5 9 10 -3 6 -13 10 -21 10 -8
0 -12 -4 -9 -10z"/>
<path d="M1191 1071 c-12 -8 -11 -12 4 -28 18 -17 18 -17 13 4 -5 17 -1 23 16
26 19 4 19 4 1 5 -11 1 -26 -2 -34 -7z"/>
<path d="M1157 1063 c-11 -10 -8 -43 4 -43 5 0 7 -5 4 -10 -4 -6 5 -20 19 -31
15 -12 36 -38 46 -60 11 -21 27 -39 36 -39 8 0 12 -5 9 -10 -9 -15 16 -78 33
-85 12 -4 12 -3 3 9 -7 8 -15 30 -18 48 -2 18 -11 40 -19 49 -8 8 -14 21 -14
27 0 7 -23 35 -51 63 -36 36 -49 56 -46 70 5 20 4 23 -6 12z"/>
<path d="M1198 1013 c7 -3 16 -2 19 1 4 3 -2 6 -13 5 -11 0 -14 -3 -6 -6z"/>
<path d="M1140 987 c0 -10 8 -17 18 -17 9 0 13 4 7 8 -5 4 -13 11 -17 16 -5 5
-8 2 -8 -7z"/>
<path d="M2478 974 c-39 -21 -35 -28 5 -8 37 19 44 24 31 24 -5 -1 -21 -8 -36
-16z"/>
<path d="M2671 968 c7 -12 14 -16 18 -10 3 5 19 8 34 5 21 -4 25 -8 17 -18 -9
-11 -7 -12 8 -8 28 7 77 -22 139 -80 44 -41 53 -46 53 -29 0 50 -140 139 -243
155 -35 5 -36 5 -26 -15z"/>
<path d="M1390 960 c-19 -4 -28 -8 -19 -9 18 -1 21 -31 4 -43 -5 -4 -18 0 -27
9 -15 13 -18 13 -18 2 1 -33 13 -36 103 -26 70 8 108 6 188 -7 55 -9 111 -21
124 -26 15 -6 27 -6 30 0 4 6 1 10 -4 10 -6 0 -10 6 -8 13 1 8 -10 11 -33 10
-27 -2 -30 0 -15 6 17 7 14 10 -17 16 -56 11 -48 28 10 22 l47 -6 -39 11 c-29
8 -44 8 -57 0 -10 -7 -20 -8 -24 -3 -3 5 1 12 7 14 8 4 7 6 -4 6 -30 2 -48
-11 -48 -33 -1 -19 -2 -20 -14 -4 -7 10 -15 16 -17 14 -2 -2 -23 -1 -46 4 -36
6 -43 5 -44 -9 0 -10 -2 -12 -6 -3 -7 17 -30 15 -37 -3 -8 -22 -26 -18 -26 5
0 11 6 20 14 20 8 0 18 5 21 10 7 11 7 11 -45 0z m245 -29 c7 -12 -12 -24 -25
-16 -11 7 -4 25 10 25 5 0 11 -4 15 -9z m-185 -11 c0 -5 -5 -10 -11 -10 -5 0
-7 5 -4 10 3 6 8 10 11 10 2 0 4 -4 4 -10z m223 -17 c-7 -2 -19 -2 -25 0 -7 3
-2 5 12 5 14 0 19 -2 13 -5z"/>
<path d="M1458 963 c7 -3 16 -2 19 1 4 3 -2 6 -13 5 -11 0 -14 -3 -6 -6z"/>
<path d="M1518 963 c18 -2 45 -2 60 0 15 2 0 4 -33 4 -33 0 -45 -2 -27 -4z"/>
<path d="M1160 953 c1 -14 27 -43 33 -37 7 7 -14 44 -25 44 -5 0 -8 -3 -8 -7z"/>
<path d="M2425 940 c-3 -5 -1 -10 4 -10 6 0 11 5 11 10 0 6 -2 10 -4 10 -3 0
-8 -4 -11 -10z"/>
<path d="M2322 920 c-8 -13 -8 -20 -2 -20 6 0 13 7 17 15 9 24 -1 27 -15 5z"/>
<path d="M1778 919 c13 -5 30 -15 38 -23 8 -9 21 -13 29 -10 23 9 18 -4 -7
-17 -18 -10 -24 -8 -35 7 -7 10 -13 13 -13 7 0 -6 -3 -18 -6 -27 -4 -11 5 -18
33 -25 55 -15 166 -92 244 -167 36 -36 69 -61 74 -57 4 4 5 2 1 -5 -5 -8 0
-22 12 -35 11 -12 41 -60 66 -107 25 -47 46 -80 46 -73 0 6 9 11 20 10 12 -1
19 -7 17 -17 -1 -8 3 -14 9 -13 7 1 17 -19 24 -45 7 -26 17 -51 21 -56 13 -15
11 -26 -4 -20 -8 3 -20 -2 -27 -10 -14 -17 -7 -46 11 -46 8 0 8 4 -1 15 -9 11
-10 19 -3 26 17 17 41 -17 48 -69 10 -74 16 -74 10 0 -7 88 -47 226 -90 310
-54 106 -107 177 -198 264 -70 67 -104 91 -196 138 -62 31 -120 56 -129 55
-12 0 -10 -3 6 -10z m140 -63 c54 -28 99 -61 70 -52 -10 3 -18 1 -18 -5 0 -6
-6 -7 -12 -3 -10 6 -10 4 0 -7 17 -18 15 -34 -3 -19 -8 7 -15 19 -15 27 0 8
-4 12 -9 8 -5 -3 -12 -1 -16 5 -4 6 -11 8 -16 5 -5 -3 -18 3 -30 13 -11 11
-16 23 -11 26 5 3 15 -1 22 -9 7 -8 20 -15 29 -15 9 0 3 8 -16 20 -30 18 -41
30 -28 30 3 0 27 -11 53 -24z m96 -90 c-1 -9 2 -16 7 -16 4 0 23 -12 41 -27
18 -16 42 -33 53 -39 21 -12 27 -35 10 -41 -5 -1 -38 24 -72 56 -34 32 -64 56
-67 54 -3 -3 -2 5 1 16 6 25 29 22 27 -3z m81 -36 c10 -16 -4 -11 -35 12 -17
12 -30 26 -30 31 0 9 55 -28 65 -43z m80 -90 c-3 -4 2 -11 11 -14 8 -3 13 -10
9 -15 -3 -5 -1 -12 5 -16 6 -4 8 -11 4 -16 -3 -5 -10 -6 -16 -3 -7 4 -8 2 -4
-5 4 -6 11 -9 15 -7 4 3 19 -7 33 -22 24 -25 28 -46 20 -97 -2 -10 -58 73 -84
124 -10 19 -10 25 0 29 6 2 12 8 12 13 0 4 -6 6 -14 3 -8 -3 -17 0 -22 7 -4 7
-3 14 4 17 6 2 8 11 5 20 -6 15 -5 15 10 3 9 -7 15 -17 12 -21z m105 -155 c7
-9 8 -15 2 -15 -5 0 -12 7 -16 15 -3 8 -4 15 -2 15 2 0 9 -7 16 -15z m10 -47
c5 -13 9 -18 10 -13 0 12 20 -16 20 -30 0 -5 -4 -4 -9 3 -5 8 -19 15 -33 15
-19 2 -23 6 -20 24 6 29 20 29 32 1z"/>
<path d="M620 905 c7 -9 15 -13 17 -11 7 7 -7 26 -19 26 -6 0 -6 -6 2 -15z"/>
<path d="M2619 909 c-131 -20 -210 -115 -208 -251 0 -65 29 -133 57 -134 27
-2 27 -3 2 39 -26 45 -35 120 -21 175 48 177 311 208 418 48 60 -88 64 -160
17 -243 -13 -23 -37 -51 -54 -63 l-30 -21 66 -45 c48 -33 70 -42 77 -35 8 8 5
11 -11 11 -27 0 -28 11 -2 35 11 10 20 31 20 47 l0 28 -37 -41 c-21 -23 -39
-36 -41 -30 -2 6 -11 11 -19 11 -10 0 -1 15 25 44 49 53 57 79 56 166 -2 167
-145 284 -315 259z m-192 -261 c-2 -13 -4 -5 -4 17 -1 22 1 32 4 23 2 -10 2
-28 0 -40z"/>
<path d="M1157 893 c-8 -7 71 -83 86 -83 7 0 -4 14 -23 30 -19 17 -27 27 -17
24 10 -4 17 -1 17 7 0 7 -3 9 -7 6 -3 -4 -16 -1 -29 7 -12 8 -24 12 -27 9z"/>
<path d="M726 875 c-17 -13 -50 -65 -41 -65 7 0 46 44 56 63 12 20 10 21 -15
2z"/>
<path d="M2420 830 c-12 -16 -19 -30 -16 -30 2 0 14 14 26 30 12 17 19 30 16
30 -2 0 -14 -13 -26 -30z"/>
<path d="M1380 843 c-38 -7 -40 -13 -41 -97 -1 -74 -2 -77 -22 -72 -50 12
-170 19 -164 9 3 -5 0 -10 -8 -10 -8 0 -15 4 -15 9 0 4 -9 8 -21 8 -12 0 -19
-5 -16 -12 2 -7 10 -12 16 -11 6 2 11 -1 11 -6 0 -5 17 -8 37 -7 44 1 58 -25
22 -44 -17 -10 -20 -9 -16 2 2 7 10 12 16 11 6 -2 11 2 11 7 0 15 -16 12 -34
-5 -13 -13 -15 -13 -18 7 -2 18 -5 20 -10 7 -9 -24 5 -40 45 -49 21 -4 35 -4
31 1 -3 5 6 14 20 21 29 13 31 19 14 36 -7 7 -8 12 -2 12 18 0 39 -31 104
-157 l64 -122 66 6 c46 4 76 1 101 -10 l36 -15 23 42 c13 22 56 100 97 172 66
118 74 137 71 177 -2 25 -5 45 -8 44 -3 -1 -14 4 -25 10 -61 33 -283 54 -385
36z m254 -28 c43 -7 83 -19 87 -27 5 -7 9 -9 9 -5 0 15 38 -13 43 -32 4 -18
-31 -97 -92 -206 -89 -157 -80 -146 -114 -140 -18 4 -58 7 -91 8 -64 2 -61 0
-112 106 -20 44 -64 109 -64 96 0 -12 -20 16 -20 28 0 4 6 7 13 5 6 -1 24 1
40 5 26 7 27 10 27 77 0 41 5 72 12 76 36 23 157 27 262 9z m-414 -160 c0 -8
5 -15 11 -15 5 0 7 -5 4 -11 -5 -6 -12 -4 -21 8 -16 22 -18 33 -4 33 6 0 10
-7 10 -15z"/>
<path d="M603 825 c3 -6 2 -17 -3 -25 -7 -11 -14 -12 -34 -2 -14 6 -28 7 -31
3 -5 -9 27 -21 56 -21 21 0 33 30 18 44 -8 7 -10 7 -6 1z"/>
<path d="M1173 818 c1 -36 -7 -48 -53 -76 -53 -33 -75 -68 -57 -90 7 -9 13
-10 21 -2 7 7 6 14 -2 22 -19 19 4 39 34 28 15 -6 24 -6 24 0 0 6 -9 10 -21
10 -12 0 -17 4 -14 11 4 6 13 8 21 5 7 -3 16 -1 19 4 4 6 15 10 25 10 14 0 18
5 13 17 -5 12 -3 14 8 8 11 -6 12 -5 2 6 -21 22 -15 34 7 14 30 -27 29 -14 -1
18 -15 15 -27 21 -26 15z"/>
<path d="M1241 778 c-1 -10 -6 -18 -11 -18 -6 0 -10 -8 -8 -17 2 -12 -3 -18
-14 -17 -22 2 -24 -12 -4 -19 8 -3 17 -1 20 6 5 9 7 9 12 0 3 -7 10 -13 15
-13 6 0 3 10 -5 22 -11 16 -12 25 -5 34 6 8 9 19 6 26 -4 8 -6 7 -6 -4z"/>
<path d="M1810 785 c0 -2 21 -16 48 -29 26 -13 56 -31 67 -39 19 -14 18 -15
-7 -10 -38 7 -56 -15 -165 -213 l-92 -169 26 -27 c15 -16 35 -28 45 -28 10 0
96 39 192 87 181 90 204 109 190 157 -9 31 44 -48 68 -101 11 -24 22 -42 24
-40 10 10 -57 127 -114 198 -65 82 -119 130 -208 183 -56 34 -74 42 -74 31z
m158 -114 c22 -16 43 -35 47 -41 3 -5 12 -7 18 -4 7 4 9 4 5 -1 -4 -4 7 -27
25 -49 55 -68 52 -106 -11 -139 -15 -8 -87 -44 -160 -81 l-134 -68 -31 28
c-18 16 -34 30 -36 31 -2 2 1 8 6 15 6 7 31 54 57 105 26 50 60 108 76 128 17
21 30 44 30 52 0 21 31 48 61 52 3 1 24 -12 47 -28z"/>
<path d="M1876 582 c-3 -5 1 -9 9 -9 8 0 12 4 9 9 -3 4 -7 8 -9 8 -2 0 -6 -4
-9 -8z"/>
<path d="M1876 485 c-11 -8 -17 -17 -14 -20 2 -3 13 4 23 15 21 23 18 25 -9 5z"/>
<path d="M2045 460 c-3 -6 1 -7 9 -4 18 7 21 14 7 14 -6 0 -13 -4 -16 -10z"/>
<path d="M1885 440 c-3 -5 -1 -10 4 -10 6 0 11 5 11 10 0 6 -2 10 -4 10 -3 0
-8 -4 -11 -10z"/>
<path d="M1840 430 c-9 -6 -10 -10 -3 -10 6 0 15 5 18 10 8 12 4 12 -15 0z"/>
<path d="M1840 370 c0 -5 5 -10 11 -10 5 0 7 5 4 10 -3 6 -8 10 -11 10 -2 0
-4 -4 -4 -10z"/>
<path d="M1807 353 c-13 -13 -7 -21 13 -16 11 3 17 9 14 14 -6 11 -18 12 -27
2z"/>
<path d="M1775 320 c3 -5 8 -10 11 -10 2 0 4 5 4 10 0 6 -5 10 -11 10 -5 0 -7
-4 -4 -10z"/>
<path d="M469 762 c16 -12 5 -36 -34 -72 -19 -17 -29 -21 -32 -12 -3 6 -9 9
-15 6 -5 -3 8 -18 29 -32 21 -14 41 -30 45 -36 5 -8 8 -8 8 0 0 7 -11 19 -25
28 l-25 17 35 35 c37 36 42 64 15 71 -12 4 -12 3 -1 -5z"/>
<path d="M1257 747 c-3 -7 1 -21 9 -32 8 -10 14 -14 14 -8 0 7 -4 14 -10 18
-5 3 -7 12 -3 20 3 8 3 15 0 15 -3 0 -7 -6 -10 -13z"/>
<path d="M2580 720 c-9 -6 -10 -10 -3 -10 6 0 15 5 18 10 8 12 4 12 -15 0z"/>
<path d="M2598 695 c-17 -39 0 -77 46 -99 36 -18 40 -18 72 -2 44 20 60 54 45
93 l-11 28 6 -31 c12 -74 -84 -117 -133 -59 -25 29 -28 47 -13 76 6 10 8 19 5
19 -3 0 -11 -11 -17 -25z"/>
<path d="M476 658 c3 -4 9 -8 15 -8 5 0 9 4 9 8 0 5 -7 9 -15 9 -8 0 -12 -4
-9 -9z"/>
<path d="M1100 635 c-8 -9 -8 -15 -2 -15 12 0 26 19 19 26 -2 2 -10 -2 -17
-11z"/>
<path d="M390 620 c8 -5 20 -10 25 -10 6 0 3 5 -5 10 -8 5 -19 10 -25 10 -5 0
-3 -5 5 -10z"/>
<path d="M685 610 c-3 -6 1 -7 9 -4 18 7 21 14 7 14 -6 0 -13 -4 -16 -10z"/>
<path d="M636 595 c-3 -8 -1 -15 4 -15 6 0 10 7 10 15 0 8 -2 15 -4 15 -2 0
-6 -7 -10 -15z"/>
<path d="M725 581 c3 -5 -4 -12 -15 -16 -24 -8 -26 -21 -4 -29 10 -4 22 1 30
11 17 23 17 30 -2 37 -8 3 -12 2 -9 -3z"/>
<path d="M2525 540 c-3 -5 -1 -10 4 -10 6 0 11 5 11 10 0 6 -2 10 -4 10 -3 0
-8 -4 -11 -10z"/>
<path d="M1162 515 c0 -16 2 -22 5 -12 2 9 2 23 0 30 -3 6 -5 -1 -5 -18z"/>
<path d="M2635 510 c11 -5 27 -9 35 -9 9 0 8 4 -5 9 -11 5 -27 9 -35 9 -9 0
-8 -4 5 -9z"/>
<path d="M402 489 c-16 -25 -10 -36 8 -14 7 8 20 15 29 15 14 0 14 2 1 10 -21
13 -23 13 -38 -11z"/>
<path d="M1080 490 c0 -5 5 -10 11 -10 5 0 7 5 4 10 -3 6 -8 10 -11 10 -2 0
-4 -4 -4 -10z"/>
<path d="M2420 481 c13 -26 13 -27 -34 -56 -10 -6 -14 -18 -10 -31 5 -19 11
-21 44 -17 21 3 40 1 44 -6 4 -6 19 -8 36 -5 58 12 238 -34 224 -57 -2 -4 1
-11 7 -15 8 -5 9 -3 4 6 -5 8 -3 11 6 8 8 -3 13 -14 13 -26 -1 -12 3 -19 7
-16 5 3 7 10 4 15 -4 5 -2 9 3 9 12 0 33 -25 27 -32 -3 -3 5 -13 17 -24 l23
-19 -19 23 c-11 12 -14 22 -8 22 16 0 79 -77 100 -124 45 -99 41 -95 40 -48
-1 23 -6 42 -11 42 -5 0 -7 7 -3 15 3 9 0 15 -9 15 -8 0 -15 7 -15 15 0 9 -7
18 -15 21 -8 4 -15 10 -15 14 0 10 -80 90 -91 90 -4 0 -13 9 -19 20 -6 11 -15
18 -19 15 -5 -2 -14 2 -21 10 -7 8 -16 12 -21 9 -5 -3 -9 0 -9 7 0 7 -3 10 -6
6 -4 -3 -19 0 -34 8 -22 11 -30 12 -34 2 -4 -8 -8 -8 -11 -1 -3 5 -19 9 -35 8
-17 -1 -33 2 -36 7 -3 5 -33 9 -68 9 -34 0 -65 3 -69 6 -3 3 8 18 25 32 25 21
39 25 86 24 140 -4 267 -57 369 -155 35 -33 63 -54 63 -47 0 23 -103 115 -171
153 -83 47 -164 67 -264 67 -51 0 -86 5 -94 13 -11 10 -11 8 -1 -12z"/>
<path d="M2694 492 c3 -5 17 -12 32 -15 30 -5 20 8 -15 18 -15 4 -21 3 -17 -3z"/>
<path d="M1130 456 c0 -2 8 -10 18 -17 15 -13 16 -12 3 4 -13 16 -21 21 -21
13z"/>
<path d="M1066 441 c-3 -5 1 -11 9 -14 9 -4 12 -1 8 9 -6 16 -10 17 -17 5z"/>
<path d="M409 427 c20 -20 12 -27 -24 -23 -19 2 -34 1 -34 -2 4 -27 -3 -34
-28 -28 -28 5 -28 5 2 -9 28 -12 30 -12 38 10 7 20 13 23 36 19 22 -5 29 -2
33 14 4 15 0 22 -15 26 -15 4 -17 2 -8 -7z"/>
<path d="M1165 388 c7 -18 45 -41 45 -28 0 5 0 12 0 15 0 3 -3 5 -7 6 -5 1
-16 5 -25 10 -13 7 -16 6 -13 -3z"/>
<path d="M1260 380 c0 -5 5 -10 10 -10 6 0 10 5 10 10 0 6 -4 10 -10 10 -5 0
-10 -4 -10 -10z"/>
<path d="M1473 354 c-3 -9 0 -20 8 -25 8 -5 9 -9 4 -9 -6 0 -17 6 -24 13 -8 6
-11 7 -8 2 3 -6 -15 -18 -39 -27 -38 -13 -46 -14 -51 -2 -4 10 -10 11 -24 3
-20 -10 -27 -49 -8 -49 6 0 2 -12 -8 -27 -45 -67 -57 -139 -26 -164 15 -13 16
-11 9 23 -10 52 11 114 54 159 71 74 170 74 243 -2 20 -22 37 -47 37 -55 0 -8
5 -12 10 -9 16 10 12 22 -20 58 -16 19 -27 36 -25 39 3 3 -13 11 -36 18 -23 8
-43 20 -46 27 -3 7 -12 13 -20 13 -9 0 -13 6 -9 15 3 8 1 15 -5 15 -5 0 -12
-7 -16 -16z m-123 -64 c0 -5 -4 -10 -10 -10 -5 0 -10 5 -10 10 0 6 5 10 10 10
6 0 10 -4 10 -10z"/>
<path d="M1632 358 c5 -15 28 -23 28 -10 0 5 -7 13 -16 16 -10 4 -14 1 -12 -6z"/>
<path d="M2268 345 c2 -14 8 -27 12 -30 4 -2 5 7 2 20 -2 14 -8 27 -12 30 -4
2 -5 -7 -2 -20z"/>
<path d="M1372 347 c-9 -10 -5 -13 15 -12 15 0 28 6 31 13 5 16 -32 16 -46 -1z"/>
<path d="M525 340 c3 -5 8 -10 11 -10 2 0 4 5 4 10 0 6 -5 10 -11 10 -5 0 -7
-4 -4 -10z"/>
<path d="M370 323 c0 -5 -19 -9 -41 -10 -23 -2 -48 -8 -55 -14 -7 -6 -17 -8
-23 -5 -29 19 -52 -30 -28 -61 5 -7 7 -24 3 -37 -4 -17 -1 -26 10 -30 26 -10
38 -7 26 7 -14 17 3 57 25 56 11 0 13 -3 6 -6 -7 -2 -13 -11 -13 -18 0 -7 -6
-15 -12 -18 -7 -2 10 -5 37 -5 28 0 67 -3 89 -7 22 -3 44 -1 52 5 10 10 7 17
-17 41 -17 16 -34 27 -38 24 -5 -2 -11 5 -14 16 -4 14 -11 20 -21 16 -8 -3
-17 0 -20 8 -3 10 2 12 21 9 15 -3 30 0 34 8 13 19 11 28 -6 28 -8 0 -15 -3
-15 -7z m-90 -53 c-8 -6 -21 -8 -27 -5 -7 2 -13 0 -13 -4 0 -5 6 -12 13 -14 7
-3 5 -6 -5 -6 -12 -1 -18 6 -18 20 0 15 4 19 19 14 11 -3 22 -1 26 5 4 6 10 9
13 5 4 -3 0 -10 -8 -15z m39 -1 c-11 -7 -9 -9 6 -9 17 0 17 -2 5 -10 -22 -14
-30 -12 -30 8 0 23 10 33 22 25 6 -3 4 -9 -3 -14z m51 -9 c0 -5 -5 -10 -11
-10 -5 0 -7 5 -4 10 3 6 8 10 11 10 2 0 4 -4 4 -10z m3 -41 c15 12 27 5 27
-15 0 -8 -14 -11 -40 -11 -22 1 -40 7 -40 13 0 18 13 24 27 13 9 -8 17 -8 26
0z m58 -19 c6 0 7 -4 4 -10 -12 -19 -25 -10 -24 18 1 16 3 20 6 10 2 -10 9
-18 14 -18z"/>
<path d="M2432 316 c-14 -7 -22 -18 -20 -31 3 -18 10 -20 58 -17 61 3 146 -16
132 -30 -5 -5 -24 -2 -45 7 -52 22 -65 20 -60 -9 4 -19 -1 -28 -25 -40 -16 -8
-33 -12 -37 -8 -4 4 -6 -2 -4 -13 3 -12 17 -23 41 -30 20 -5 40 -13 44 -17 4
-5 17 -8 29 -8 18 0 28 13 50 65 15 36 25 71 22 79 -8 20 -66 30 -130 23 l-52
-5 35 13 c49 19 121 18 149 -1 23 -17 24 -24 7 -94 -4 -14 2 -7 12 15 17 35
18 43 6 67 -17 33 -60 43 -142 35 -37 -4 -51 -3 -42 3 20 13 0 10 -28 -4z
m151 -92 c3 -4 -3 -24 -13 -45 -14 -26 -25 -37 -35 -33 -8 4 -15 10 -15 16 0
5 -5 6 -11 2 -12 -7 -12 -6 10 39 13 25 48 37 64 21z"/>
<path d="M1632 287 c-16 -19 3 -46 20 -29 9 9 9 12 0 12 -7 0 -12 4 -12 10 0
5 7 6 17 3 11 -4 14 -3 9 5 -9 16 -21 15 -34 -1z"/>
<path d="M2062 288 c-7 -7 -12 -17 -12 -22 0 -6 5 -3 11 7 6 9 15 14 21 11 7
-4 8 -2 4 4 -9 15 -9 15 -24 0z"/>
<path d="M1676 271 c-4 -7 -5 -15 -2 -18 9 -9 19 4 14 18 -4 11 -6 11 -12 0z"/>
<path d="M2680 245 c0 -14 -9 -44 -21 -66 -14 -28 -16 -40 -7 -37 7 2 21 30
31 60 20 61 25 63 77 26 l24 -18 -57 -51 c-31 -28 -57 -56 -57 -62 0 -6 19 7
43 29 49 47 97 79 97 64 0 -5 5 -10 11 -10 8 0 8 5 -1 15 -7 8 -17 12 -22 9
-5 -3 -8 0 -6 8 2 7 -1 15 -7 17 -5 2 -22 12 -37 22 -39 28 -68 25 -68 -6z"/>
<path d="M1766 247 c3 -10 9 -15 12 -12 3 3 0 11 -7 18 -10 9 -11 8 -5 -6z"/>
<path d="M1460 213 c-45 -8 -94 -73 -72 -95 6 -6 12 2 15 19 6 30 51 63 87 63
11 0 18 5 15 10 -3 6 -9 9 -13 9 -4 -1 -18 -4 -32 -6z"/>
<path d="M1668 181 c-12 -12 -18 -33 -18 -62 1 -34 3 -40 10 -27 6 9 12 29 14
45 2 15 7 36 11 46 9 21 5 21 -17 -2z"/>
<path d="M2166 172 c-18 -35 -31 -102 -20 -102 5 0 16 22 25 48 9 26 19 55 23
65 13 29 -12 20 -28 -11z"/>
<path d="M455 160 c3 -5 -2 -10 -11 -10 -25 0 -14 -6 24 -13 19 -4 32 -2 32 4
0 6 -4 8 -9 5 -5 -3 -11 1 -15 9 -3 8 -10 15 -16 15 -6 0 -8 -4 -5 -10z"/>
<path d="M1247 159 c7 -7 15 -10 18 -7 3 3 -2 9 -12 12 -14 6 -15 5 -6 -5z"/>
<path d="M2774 149 c-4 -8 1 -9 15 -4 33 10 69 -18 77 -60 6 -32 20 -53 29
-43 7 7 -35 91 -53 104 -21 16 -58 18 -68 3z"/>
<path d="M180 140 c0 -5 12 -12 28 -16 15 -3 32 -7 38 -9 12 -3 34 13 34 25 0
4 -22 8 -50 9 -28 1 -50 -3 -50 -9z"/>
<path d="M1717 143 c-14 -14 -7 -43 11 -42 10 0 12 3 5 6 -7 2 -13 9 -13 15 0
6 7 8 14 5 10 -4 13 -1 9 9 -6 15 -16 18 -26 7z"/>
<path d="M388 133 c7 -3 16 -2 19 1 4 3 -2 6 -13 5 -11 0 -14 -3 -6 -6z"/>
<path d="M1220 130 c0 -13 28 -25 38 -16 3 4 0 11 -8 16 -20 13 -30 12 -30 0z"/>
<path d="M2734 119 c-19 -22 -19 -22 4 -10 12 6 22 16 22 21 0 15 -5 12 -26
-11z"/>
<path d="M2631 116 c-7 -9 -28 -12 -64 -9 l-52 3 50 -14 c62 -19 68 -19 59 -4
-5 8 -2 9 9 5 12 -5 17 -1 17 13 0 24 -4 25 -19 6z"/>
<path d="M2786 122 c-8 -13 36 -91 54 -96 8 -2 -11 -4 -42 -5 -45 -1 -58 2
-58 14 0 23 -31 26 -240 23 -149 -2 -194 -6 -192 -16 1 -8 -11 -12 -35 -13
-35 0 -36 -1 -13 -10 13 -6 36 -7 50 -3 40 12 44 11 67 -3 25 -15 221 -17 288
-4 28 6 -6 9 -117 10 -98 1 -158 5 -158 11 0 9 41 15 65 10 6 -1 65 -3 133 -5
94 -2 127 -7 140 -18 22 -20 234 -24 250 -4 15 18 27 107 14 107 -6 0 -14 -5
-18 -12 -4 -7 -3 -8 4 -4 7 4 12 2 12 -3 0 -6 -7 -11 -15 -11 -10 0 -15 -11
-15 -35 0 -35 0 -35 -45 -35 -41 0 -47 3 -55 28 -24 67 -57 101 -74 74z"/>
<path d="M355 109 c-4 -6 -5 -12 -2 -15 2 -3 7 2 10 11 7 17 1 20 -8 4z"/>
<path d="M185 91 c7 -22 4 -24 -50 -23 -29 1 -29 1 5 -8 19 -5 41 -7 48 -5 15
5 16 41 1 51 -8 4 -9 0 -4 -15z"/>
<path d="M2748 89 c-18 -10 -25 -31 -10 -27 4 0 15 -2 25 -7 10 -4 21 -4 24
-1 4 4 -3 9 -15 13 -18 4 -20 8 -11 19 13 16 10 17 -13 3z"/>
<path d="M400 40 c-295 -5 -319 -19 -37 -21 85 0 145 -5 141 -10 -3 -5 6 -5
20 1 18 7 26 6 26 -1 0 -8 4 -8 14 0 9 8 43 12 89 10 41 -1 80 2 88 7 8 5 88
11 179 15 l165 5 -200 0 c-110 0 -328 -3 -485 -6z"/>
<path d="M70 31 c0 -5 9 -7 20 -4 11 3 20 7 20 9 0 2 -9 4 -20 4 -11 0 -20 -4
-20 -9z"/>
<path d="M1770 16 c0 -2 7 -7 16 -10 8 -3 12 -2 9 4 -6 10 -25 14 -25 6z"/>
</g>
</svg>
