<?xml version="1.0" standalone="no"?>
<!DOCTYPE svg PUBLIC "-//W3C//DTD SVG 20010904//EN"
 "http://www.w3.org/TR/2001/REC-SVG-20010904/DTD/svg10.dtd">
<svg version="1.0" xmlns="http://www.w3.org/2000/svg"
 width="300.000000pt" height="169.000000pt" viewBox="0 0 300.000000 169.000000"
 preserveAspectRatio="xMidYMid meet">
<metadata>
Created by potrace 1.10, written by Peter Selinger 2001-2011
</metadata>
<g transform="translate(0.000000,169.000000) scale(0.100000,-0.100000)"
fill="#000000" stroke="none">
<path d="M62 1665 c0 -16 2 -22 5 -12 2 9 2 23 0 30 -3 6 -5 -1 -5 -18z"/>
<path d="M112 1525 c1 -153 6 -183 24 -154 9 15 -6 319 -16 319 -5 0 -8 -74
-8 -165z"/>
<path d="M171 1663 c6 -16 11 -84 10 -152 0 -69 2 -128 5 -133 3 -4 16 -2 29
4 18 8 28 8 39 -1 17 -14 105 -12 125 3 12 9 13 7 6 -9 -4 -11 -7 -64 -6 -119
1 -54 -3 -103 -8 -110 -5 -6 -32 -11 -60 -11 -28 0 -51 -3 -51 -8 0 -4 48 -6
108 -3 59 2 125 5 146 5 22 1 36 4 32 8 -4 4 -39 6 -79 5 l-72 -2 -3 109 c-2
60 1 111 6 114 4 4 28 7 51 8 23 2 45 7 48 12 3 5 -19 7 -48 6 -53 -3 -54 -2
-53 24 0 15 1 68 2 117 l2 90 90 0 c65 0 90 3 90 13 0 9 -23 11 -90 9 l-90 -4
0 26 c0 17 -6 26 -15 26 -12 0 -14 -6 -8 -27 4 -16 6 -39 6 -53 -1 -14 -2 -65
-2 -115 -1 -49 -4 -94 -8 -100 -9 -11 -104 -14 -96 -2 2 4 -15 7 -39 7 l-43 0
-3 106 -3 105 96 -3 c81 -3 95 -1 93 12 -3 12 -23 16 -96 18 -90 3 -92 3 -92
27 0 15 -6 25 -15 25 -12 0 -13 -5 -4 -27z"/>
<path d="M608 1661 c-2 -17 -1 -28 3 -26 10 7 18 55 9 55 -4 0 -10 -13 -12
-29z"/>
<path d="M636 1675 c-3 -8 -1 -15 3 -15 5 0 11 7 15 15 3 8 1 15 -3 15 -5 0
-11 -7 -15 -15z"/>
<path d="M1620 1600 l0 -93 -66 7 c-93 10 -924 -5 -924 -16 0 -5 5 -6 10 -3 7
4 10 -56 10 -174 0 -179 6 -236 20 -195 4 10 4 30 0 44 -3 14 -6 93 -6 175 l1
150 47 3 c38 2 47 0 51 -15 4 -14 5 -14 6 -2 1 14 40 17 334 22 182 4 333 3
334 -1 4 -10 175 -4 185 6 9 9 13 170 4 179 -3 4 -6 -36 -6 -87z"/>
<path d="M2410 1065 l1 -625 24 16 c30 20 33 29 5 14 -17 -9 -20 -8 -20 13 0
13 7 32 15 43 19 25 22 354 3 354 -9 0 -9 3 0 12 13 13 17 32 5 25 -5 -3 -9 9
-10 26 -2 31 -2 31 10 9 11 -19 12 -8 9 70 -2 51 -8 101 -13 111 -6 11 -6 17
1 17 5 0 10 11 10 25 0 14 -4 25 -10 25 -5 0 -10 8 -10 18 0 13 2 14 9 3 5 -7
11 -9 13 -5 9 16 -4 254 -14 254 -5 0 -6 5 -3 10 4 6 11 7 17 4 5 -4 2 6 -8
22 -19 27 -19 28 0 21 16 -6 17 -5 6 8 -10 12 -11 24 -1 54 6 21 11 51 11 67
0 24 -5 30 -25 32 l-25 2 0 -625z m27 193 c-2 -13 -4 -5 -4 17 -1 22 1 32 4
23 2 -10 2 -28 0 -40z m0 -250 c-3 -8 -6 -5 -6 6 -1 11 2 17 5 13 3 -3 4 -12
1 -19z m0 -220 c-3 -7 -5 -2 -5 12 0 14 2 19 5 13 2 -7 2 -19 0 -25z m0 -170
c-3 -8 -6 -5 -6 6 -1 11 2 17 5 13 3 -3 4 -12 1 -19z"/>
<path d="M2483 1625 c0 -38 2 -53 4 -32 2 20 2 52 0 70 -2 17 -4 1 -4 -38z"/>
<path d="M2521 1588 c-3 -185 -11 -722 -11 -751 0 -16 -4 -26 -10 -22 -6 4
-10 -6 -9 -22 0 -25 1 -26 9 -8 6 14 9 -3 10 -55 2 -41 2 -82 1 -90 -2 -13 -1
-13 8 0 6 8 11 63 11 123 l0 107 100 0 100 0 0 -111 0 -110 -97 2 c-69 1 -98
-2 -101 -10 -3 -10 23 -12 107 -10 61 1 113 0 116 -2 2 -3 48 -3 102 -2 104 4
123 12 123 57 0 17 2 18 10 6 8 -12 10 -11 10 8 0 12 -4 22 -9 22 -9 0 -6 235
3 333 2 20 0 35 -5 31 -5 -3 -9 5 -9 18 0 13 -5 29 -12 36 -14 14 -116 16
-171 3 -37 -9 -39 -8 -33 12 3 12 6 66 6 120 l0 97 91 -5 c78 -4 94 -2 115 14
13 10 21 20 19 23 -3 2 -5 68 -6 146 -1 78 -6 142 -11 142 -4 0 -8 -11 -8 -25
0 -25 0 -25 -100 -25 -100 0 -100 0 -100 25 0 16 -6 25 -15 25 -17 0 -21 -39
-5 -58 7 -9 7 -9 -2 -2 -7 6 -56 10 -110 10 -98 0 -98 0 -98 25 0 14 -4 25 -9
25 -4 0 -9 -46 -10 -102z m219 -83 l0 -115 -100 0 -100 0 0 115 0 115 100 0
100 0 0 -115z m230 0 l0 -115 -98 0 c-54 0 -102 -3 -107 -7 -6 -5 -7 -4 -2 2
4 5 7 60 7 122 l0 113 100 0 100 0 0 -115z m-229 -139 c2 -2 2 -55 -1 -118 -4
-93 -8 -112 -20 -110 -8 2 -54 4 -103 4 -85 1 -88 2 -83 22 3 12 6 63 6 114
l0 92 98 0 c54 0 101 -2 103 -4z m-11 -356 l0 -110 -100 0 -100 0 0 110 0 110
100 0 100 0 0 -110z m230 98 c0 -5 0 -53 0 -108 l0 -100 -100 0 -101 0 2 103
c1 56 3 106 6 110 6 10 193 5 193 -5z m-200 -222 c0 -3 -4 -8 -10 -11 -5 -3
-10 -1 -10 4 0 6 5 11 10 11 6 0 10 -2 10 -4z m200 -126 l0 -110 -106 0 c-93
0 -105 2 -100 16 3 9 6 58 6 110 l0 94 100 0 100 0 0 -110z"/>
<path d="M2678 1583 c12 -2 20 -8 17 -13 -3 -4 1 -10 9 -13 10 -4 12 0 9 14
-4 13 -13 19 -32 18 -23 -2 -24 -2 -3 -6z"/>
<path d="M2608 1573 c6 -2 18 -2 25 0 6 3 1 5 -13 5 -14 0 -19 -2 -12 -5z"/>
<path d="M2690 1532 c0 -5 7 -13 16 -16 10 -4 14 -1 12 6 -5 15 -28 23 -28 10z"/>
<path d="M2640 1520 c-21 -7 -21 -8 -5 -9 11 0 27 4 35 9 18 11 5 11 -30 0z"/>
<path d="M2693 1472 c-8 -5 -3 -16 14 -32 23 -22 25 -22 15 -4 -6 12 -9 24 -6
27 9 9 -11 16 -23 9z"/>
<path d="M2556 1441 c-3 -5 1 -14 8 -20 12 -10 13 -8 9 8 -6 23 -9 25 -17 12z"/>
<path d="M2633 1433 c9 -2 23 -2 30 0 6 3 -1 5 -18 5 -16 0 -22 -2 -12 -5z"/>
<path d="M2790 1586 c0 -8 6 -16 13 -19 16 -6 57 10 57 23 0 15 -11 12 -33 -7
-19 -17 -20 -17 -14 0 4 11 1 17 -8 17 -8 0 -15 -6 -15 -14z"/>
<path d="M2875 1590 c-3 -5 -1 -10 4 -10 6 0 11 5 11 10 0 6 -2 10 -4 10 -3 0
-8 -4 -11 -10z"/>
<path d="M2783 1538 c-2 -18 0 -20 7 -8 12 18 13 30 2 30 -4 0 -9 -10 -9 -22z"/>
<path d="M2790 1430 c0 -11 5 -20 10 -20 6 0 10 9 10 20 0 11 -4 20 -10 20 -5
0 -10 -9 -10 -20z"/>
<path d="M2838 1423 c7 -3 16 -2 19 1 4 3 -2 6 -13 5 -11 0 -14 -3 -6 -6z"/>
<path d="M2893 1413 c9 -2 23 -2 30 0 6 3 -1 5 -18 5 -16 0 -22 -2 -12 -5z"/>
<path d="M2695 1681 c-3 -5 0 -13 6 -17 7 -4 9 -3 5 4 -3 5 0 13 6 15 9 4 10
6 1 6 -6 1 -14 -3 -18 -8z"/>
<path d="M2810 1675 c0 -11 9 -15 30 -13 17 1 30 6 30 10 0 4 8 8 18 8 14 0
15 -2 2 -10 -12 -8 -11 -10 8 -10 12 0 22 4 22 10 0 16 -51 24 -72 11 -11 -7
-18 -7 -18 -1 0 5 -4 10 -10 10 -5 0 -10 -7 -10 -15z"/>
<path d="M726 1633 c-6 -14 -5 -15 5 -6 7 7 10 15 7 18 -3 3 -9 -2 -12 -12z"/>
<path d="M622 1619 c-12 -19 -11 -19 7 -10 26 14 36 31 19 31 -7 0 -19 -9 -26
-21z"/>
<path d="M655 1609 c-22 -17 -42 -35 -44 -41 -2 -6 12 1 31 15 19 15 37 24 41
21 3 -3 10 4 17 15 15 28 3 25 -45 -10z"/>
<path d="M757 1621 c-4 -17 -3 -21 5 -13 5 5 8 16 6 23 -3 8 -7 3 -11 -10z"/>
<path d="M793 1624 c-7 -19 11 -41 21 -25 4 6 2 11 -4 11 -7 0 -10 7 -6 15 3
8 3 15 0 15 -2 0 -7 -7 -11 -16z"/>
<path d="M851 1624 c0 -11 3 -14 6 -6 3 7 2 16 -1 19 -3 4 -6 -2 -5 -13z"/>
<path d="M881 1618 c-14 -23 -14 -23 8 -4 22 20 25 26 13 26 -4 0 -13 -10 -21
-22z"/>
<path d="M1050 1618 c-12 -22 -12 -22 6 -6 10 10 15 20 12 24 -4 3 -12 -5 -18
-18z"/>
<path d="M1700 1636 c0 -9 40 -13 46 -5 3 5 -6 9 -20 9 -14 0 -26 -2 -26 -4z"/>
<path d="M1813 1633 c9 -2 23 -2 30 0 6 3 -1 5 -18 5 -16 0 -22 -2 -12 -5z"/>
<path d="M0 1620 c0 -5 13 -10 30 -10 28 0 30 -2 32 -42 l1 -43 4 38 c3 21 -1
45 -8 53 -13 16 -59 19 -59 4z"/>
<path d="M931 1614 c0 -11 3 -14 6 -6 3 7 2 16 -1 19 -3 4 -6 -2 -5 -13z"/>
<path d="M2168 1623 c7 -3 16 -2 19 1 4 3 -2 6 -13 5 -11 0 -14 -3 -6 -6z"/>
<path d="M2253 1590 c0 -25 2 -35 4 -22 2 12 2 32 0 45 -2 12 -4 2 -4 -23z"/>
<path d="M2501 1604 c0 -11 3 -14 6 -6 3 7 2 16 -1 19 -3 4 -6 -2 -5 -13z"/>
<path d="M580 1554 c-4 -47 -2 -60 8 -57 9 4 12 -56 14 -278 1 -156 2 -340 2
-408 1 -119 0 -124 -23 -139 l-23 -16 7 76 c4 44 3 83 -2 93 -9 16 -11 15 -16
-4 -3 -12 -1 -19 4 -15 5 3 9 -7 8 -23 0 -24 -1 -25 -9 -8 -8 19 -3 -85 6
-112 5 -17 41 -17 47 0 3 6 6 -1 6 -18 1 -23 -2 -26 -9 -15 -5 8 -10 10 -10 4
0 -7 -40 -14 -107 -18 -156 -9 -282 -22 -289 -29 -6 -6 105 -2 191 7 22 3 82
8 133 12 98 7 99 6 93 -43 -1 -6 4 -15 10 -19 9 -5 10 5 6 37 -4 24 -7 243 -8
487 -1 358 -4 442 -15 442 -9 0 -14 17 -16 53 l-3 52 -5 -61z"/>
<path d="M261 1584 c0 -11 3 -14 6 -6 3 7 2 16 -1 19 -3 4 -6 -2 -5 -13z"/>
<path d="M530 1565 c0 -19 5 -35 10 -35 6 0 10 16 10 35 0 19 -4 35 -10 35 -5
0 -10 -16 -10 -35z"/>
<path d="M2451 1564 c0 -11 3 -14 6 -6 3 7 2 16 -1 19 -3 4 -6 -2 -5 -13z"/>
<path d="M729 1550 c-17 -14 -20 -19 -9 -20 8 0 21 9 28 20 15 25 11 25 -19 0z"/>
<path d="M258 1535 c-3 -14 -1 -28 3 -31 5 -3 9 9 9 25 0 38 -6 40 -12 6z"/>
<path d="M2170 1540 c-12 -7 -10 -9 7 -7 12 0 19 5 17 9 -6 10 -6 10 -24 -2z"/>
<path d="M2491 1518 c0 -18 4 -42 8 -53 6 -14 8 -4 8 33 0 28 -4 52 -9 52 -4
0 -8 -15 -7 -32z"/>
<path d="M1660 1533 c0 -5 96 -7 212 -5 306 4 322 8 36 10 -137 1 -248 -1
-248 -5z"/>
<path d="M2240 1505 c0 -19 2 -35 4 -35 2 0 6 16 8 35 2 19 0 35 -4 35 -4 0
-8 -16 -8 -35z"/>
<path d="M60 1457 l0 -67 -30 0 c-17 0 -30 -5 -30 -11 0 -7 12 -10 30 -7 17 3
30 1 30 -4 0 -4 4 -8 8 -8 8 0 4 150 -4 159 -2 2 -4 -26 -4 -62z"/>
<path d="M510 1480 c-9 -6 -10 -10 -3 -10 6 0 15 5 18 10 8 12 4 12 -15 0z"/>
<path d="M1047 1474 c4 -10 10 -11 24 -3 18 9 23 5 20 -14 -1 -5 3 -6 9 -2 24
15 10 34 -24 33 -24 -1 -33 -5 -29 -14z"/>
<path d="M840 1473 c0 -10 67 -10 76 0 4 4 -11 7 -34 7 -23 0 -42 -3 -42 -7z"/>
<path d="M2015 1471 c-6 -5 -19 -11 -30 -14 -11 -3 -2 -5 20 -5 22 0 34 2 27
5 -6 2 -10 9 -6 14 7 12 1 12 -11 0z"/>
<path d="M261 1454 c0 -11 3 -14 6 -6 3 7 2 16 -1 19 -3 4 -6 -2 -5 -13z"/>
<path d="M465 1460 c-3 -5 -1 -10 4 -10 6 0 11 5 11 10 0 6 -2 10 -4 10 -3 0
-8 -4 -11 -10z"/>
<path d="M950 1458 c0 -5 20 -8 44 -7 25 2 43 6 40 10 -6 11 -84 8 -84 -3z"/>
<path d="M1130 1458 c0 -9 243 -15 272 -6 21 5 21 6 3 8 -53 6 -275 4 -275 -2z"/>
<path d="M1430 1460 c0 -5 7 -10 16 -10 8 0 12 5 9 10 -3 6 -10 10 -16 10 -5
0 -9 -4 -9 -10z"/>
<path d="M1537 1464 c-8 -8 1 -24 12 -24 4 0 8 7 8 15 0 16 -9 20 -20 9z"/>
<path d="M1572 1455 c-3 -5 -2 -7 3 -3 4 4 13 4 19 0 6 -4 92 -5 191 -2 182 6
143 12 -88 14 -70 1 -121 -3 -125 -9z"/>
<path d="M2075 1459 c-18 -4 10 -7 67 -8 77 -1 97 -4 100 -16 2 -10 6 -8 13 8
11 22 10 22 -70 22 -44 0 -93 -3 -110 -6z"/>
<path d="M755 1291 c0 -93 3 -167 8 -164 4 2 7 76 7 165 l0 160 25 -4 c14 -3
28 -1 31 3 3 5 -12 9 -33 9 l-38 0 0 -169z"/>
<path d="M896 1432 c-4 -13 -5 -26 -2 -29 10 -11 18 4 14 29 l-4 23 -8 -23z"/>
<path d="M1055 1417 l6 -39 -80 4 c-44 2 -77 0 -73 -4 4 -3 42 -8 85 -10 77
-3 77 -3 76 22 0 14 -5 34 -10 45 -7 15 -8 10 -4 -18z"/>
<path d="M1106 1441 c-4 -5 -2 -20 3 -33 9 -21 10 -21 10 10 1 32 -3 39 -13
23z"/>
<path d="M1430 1427 c-29 -7 -60 -34 -52 -44 1 -2 -5 -20 -13 -40 -20 -50 -25
-206 -7 -223 11 -10 13 5 10 84 -2 59 1 96 7 96 6 0 4 4 -3 9 -20 12 9 21 71
21 50 1 51 1 27 14 -14 8 -28 12 -32 10 -3 -2 -10 1 -14 7 -4 8 -9 7 -15 -2
-6 -10 -8 -7 -6 8 0 12 4 20 8 17 4 -2 9 0 11 4 1 5 16 12 31 16 18 4 26 3 23
-3 -4 -5 2 -14 11 -20 14 -9 15 -12 5 -19 -11 -8 -11 -10 2 -15 9 -4 13 -13
10 -22 -3 -8 -10 -12 -15 -9 -5 3 -9 0 -9 -6 0 -7 9 -14 20 -17 23 -6 36 -41
21 -56 -13 -13 -14 -27 -2 -27 5 0 15 15 21 34 6 19 18 40 26 46 21 18 17 44
-12 87 -31 47 -26 42 -60 52 -16 4 -45 4 -64 -2z m97 -44 c12 -36 11 -55 -3
-60 -6 -2 -9 10 -8 29 1 18 -2 39 -8 45 -7 9 -7 13 0 13 5 0 14 -12 19 -27z
m42 -73 c0 -9 -4 -8 -9 5 -5 11 -9 27 -9 35 0 9 4 8 9 -5 5 -11 9 -27 9 -35z
m-29 -10 c0 -5 -2 -10 -4 -10 -3 0 -8 5 -11 10 -3 6 -1 10 4 10 6 0 11 -4 11
-10z"/>
<path d="M2490 1431 c0 -6 4 -13 10 -16 6 -3 7 1 4 9 -7 18 -14 21 -14 7z"/>
<path d="M2243 1375 c0 -22 2 -30 4 -17 2 12 2 30 0 40 -3 9 -5 -1 -4 -23z"/>
<path d="M520 1380 c0 -5 4 -10 9 -10 6 0 13 5 16 10 3 6 -1 10 -9 10 -9 0
-16 -4 -16 -10z"/>
<path d="M1119 1370 c-3 -8 -3 -31 1 -50 11 -58 3 -65 -72 -65 l-66 0 -12 -40
c-7 -22 -17 -47 -24 -55 -9 -13 -9 -13 6 -2 9 7 19 24 22 37 6 23 11 25 61 25
45 0 55 -3 56 -17 4 -73 10 -130 14 -140 2 -7 0 -13 -6 -13 -6 0 -6 -6 0 -17
5 -10 14 -54 21 -98 7 -44 14 -89 16 -100 10 -46 17 -92 18 -117 1 -16 4 -28
7 -28 4 0 9 -16 11 -35 3 -30 1 -35 -22 -38 l-25 -4 26 -2 c23 -1 27 -6 32
-48 4 -27 9 -59 12 -73 3 -14 8 -45 11 -70 3 -25 10 -49 16 -55 6 -7 7 -1 4
15 -3 14 -17 99 -32 190 -28 180 -31 200 -64 399 -12 73 -20 153 -18 176 1 24
0 41 -4 38 -5 -2 -8 3 -8 11 0 9 9 16 20 16 20 0 24 -10 20 -40 -1 -10 2 -12
8 -5 7 7 4 45 -7 115 -9 58 -19 98 -22 90z m16 -140 c8 -13 -35 -13 -55 0 -11
7 -7 10 17 10 17 0 35 -4 38 -10z"/>
<path d="M1163 1370 c30 -9 174 -6 184 4 4 3 -43 6 -103 5 -75 0 -100 -3 -81
-9z"/>
<path d="M1653 1372 c-22 -3 -23 -7 -23 -123 0 -82 4 -119 11 -119 9 0 10 32
5 114 l-7 114 63 4 c35 2 150 5 255 7 l193 2 1 -238 c0 -131 1 -282 3 -335 l2
-96 -154 1 c-176 2 -169 -1 -191 107 -6 30 -18 90 -27 134 -17 83 -52 158 -75
162 -8 1 -22 5 -31 9 -15 6 -18 2 -18 -24 0 -49 -25 -98 -62 -121 -26 -17 -44
-20 -86 -16 -78 7 -99 24 -114 96 -10 48 -15 58 -25 48 -9 -10 -10 -43 -3
-148 6 -74 12 -151 15 -170 3 -19 7 -93 9 -165 7 -224 18 -390 28 -401 4 -6
40 -15 78 -18 103 -10 91 -36 -17 -36 -73 0 -64 -8 14 -13 52 -3 62 0 73 17
10 16 10 22 -3 31 -9 6 -17 27 -20 46 l-4 34 -1 -37 c-2 -29 -5 -35 -19 -32
-10 2 -34 6 -53 7 l-35 3 -1 89 c-1 50 -6 108 -12 130 -8 26 -8 43 -2 49 7 7
10 3 11 -9 0 -12 3 -15 6 -7 3 7 -1 19 -7 27 -18 21 -23 75 -7 75 9 0 9 2 0 8
-15 9 -24 130 -11 138 5 3 6 15 2 27 -4 12 -8 44 -9 72 -2 27 -6 74 -10 103
-4 28 -6 52 -3 52 2 0 23 -9 46 -20 22 -11 52 -20 66 -20 15 0 26 -7 29 -17 4
-17 5 -17 6 0 0 9 6 17 12 17 5 0 29 9 52 19 35 16 46 29 66 75 13 31 27 56
30 56 19 0 53 -80 55 -127 1 -13 4 -23 9 -23 4 0 7 -5 7 -11 0 -5 -4 -7 -10
-4 -15 9 -12 -4 5 -21 8 -9 15 -28 15 -44 0 -16 5 -32 10 -35 8 -5 7 -11 -1
-21 -9 -11 -9 -14 0 -14 7 0 10 -4 6 -10 -3 -5 3 -18 15 -30 12 -12 15 -20 8
-20 -7 -1 -2 -7 13 -15 25 -13 88 -17 257 -16 l82 1 0 329 c0 181 -3 337 -6
346 -6 14 -32 16 -248 14 -132 -2 -251 -5 -263 -7z"/>
<path d="M2970 1255 c0 -70 4 -115 10 -115 11 0 11 0 13 127 2 66 -2 94 -10
98 -10 3 -13 -23 -13 -110z"/>
<path d="M181 1340 c-2 -14 -4 -47 -4 -75 0 -27 -5 -53 -11 -57 -8 -6 -8 -8 0
-8 7 0 15 -26 20 -57 4 -32 9 -50 11 -40 3 10 14 17 29 17 13 0 24 4 24 8 0 4
-12 8 -27 7 l-28 0 -6 115 c-3 63 -7 104 -8 90z"/>
<path d="M559 1330 c-7 -35 -4 -48 7 -38 3 4 4 21 2 40 l-3 33 -6 -35z"/>
<path d="M934 1349 c1 -7 10 -13 19 -15 9 -1 15 2 11 7 -3 5 -9 7 -14 4 -4 -3
-11 0 -13 5 -3 6 -4 5 -3 -1z"/>
<path d="M2491 1325 c0 -31 2 -36 9 -23 6 10 7 25 1 40 -9 20 -10 18 -10 -17z"/>
<path d="M1070 1340 c0 -5 5 -10 11 -10 5 0 7 5 4 10 -3 6 -8 10 -11 10 -2 0
-4 -4 -4 -10z"/>
<path d="M1158 1333 c6 -2 18 -2 25 0 6 3 1 5 -13 5 -14 0 -19 -2 -12 -5z"/>
<path d="M1255 1330 l60 -7 -82 -1 c-103 -2 -112 -22 -10 -22 l72 0 -2 -85
c-1 -47 3 -85 8 -85 5 0 9 40 9 89 0 49 3 96 6 105 5 14 -3 16 -57 14 l-64 -1
60 -7z"/>
<path d="M1848 1333 c7 -3 16 -2 19 1 4 3 -2 6 -13 5 -11 0 -14 -3 -6 -6z"/>
<path d="M1898 1333 c12 -2 30 -2 40 0 9 3 -1 5 -23 4 -22 0 -30 -2 -17 -4z"/>
<path d="M1983 1333 c15 -2 39 -2 55 0 15 2 2 4 -28 4 -30 0 -43 -2 -27 -4z"/>
<path d="M2083 1333 c9 -2 23 -2 30 0 6 3 -1 5 -18 5 -16 0 -22 -2 -12 -5z"/>
<path d="M826 1322 c-4 -7 -4 -12 -1 -12 4 0 -1 -7 -9 -16 -20 -20 -21 -44 -1
-44 8 0 15 -7 15 -15 0 -8 5 -15 11 -15 5 0 7 5 4 10 -3 6 3 10 14 10 16 0 20
-8 23 -37 l3 -37 10 45 c9 38 8 45 -5 45 -8 0 -30 1 -48 2 -32 2 -32 2 -16 27
9 13 14 30 12 37 -3 9 -6 9 -12 0z"/>
<path d="M915 1319 c-4 -6 -5 -12 -2 -15 2 -3 7 2 10 11 7 17 1 20 -8 4z"/>
<path d="M994 1316 c-10 -25 0 -38 13 -17 8 13 9 22 3 26 -6 4 -13 -1 -16 -9z"/>
<path d="M70 1294 c0 -14 4 -23 9 -20 5 3 7 15 4 26 -7 28 -13 25 -13 -6z"/>
<path d="M1038 1313 c7 -3 16 -2 19 1 4 3 -2 6 -13 5 -11 0 -14 -3 -6 -6z"/>
<path d="M1868 1312 l-178 -2 0 -90 c0 -53 4 -90 10 -90 6 0 10 35 10 85 l0
85 193 0 192 0 0 -270 0 -269 -130 -4 -130 -3 138 -2 137 -2 0 284 0 285 -32
-2 c-18 -1 -113 -3 -210 -5z"/>
<path d="M2243 1275 c0 -27 2 -38 4 -22 2 15 2 37 0 50 -2 12 -4 0 -4 -28z"/>
<path d="M1090 1290 c-13 -8 -12 -10 3 -10 9 0 17 5 17 10 0 12 -1 12 -20 0z"/>
<path d="M1391 1284 c0 -11 3 -14 6 -6 3 7 2 16 -1 19 -3 4 -6 -2 -5 -13z"/>
<path d="M1671 1284 c0 -11 3 -14 6 -6 3 7 2 16 -1 19 -3 4 -6 -2 -5 -13z"/>
<path d="M1450 1260 c-11 -7 -12 -12 -3 -21 15 -15 43 -5 43 16 0 17 -18 19
-40 5z"/>
<path d="M76 1251 c-3 -5 1 -11 9 -14 9 -4 12 -1 8 9 -6 16 -10 17 -17 5z"/>
<path d="M1393 1242 c10 -10 17 -26 17 -35 0 -9 8 -22 19 -29 10 -7 21 -23 25
-35 5 -15 12 -20 23 -16 20 8 56 43 50 49 -2 2 -12 -5 -22 -16 -10 -11 -24
-20 -32 -20 -19 0 -16 27 4 34 15 6 15 8 0 23 -14 14 -19 15 -29 4 -11 -11
-10 -13 4 -8 10 3 20 1 24 -4 4 -7 -5 -9 -22 -7 -24 2 -30 8 -32 33 -4 29 -16
45 -36 45 -5 0 -2 -8 7 -18z"/>
<path d="M1673 1200 c0 -36 2 -50 4 -32 2 17 2 47 0 65 -2 17 -4 3 -4 -33z"/>
<path d="M2493 1205 c0 -33 2 -45 4 -27 2 18 2 45 0 60 -2 15 -4 0 -4 -33z"/>
<path d="M1551 1233 c0 -4 4 -17 9 -28 8 -19 9 -19 9 2 1 12 -3 25 -9 28 -5 3
-10 3 -9 -2z"/>
<path d="M73 1195 c0 -22 2 -30 4 -17 2 12 2 30 0 40 -3 9 -5 -1 -4 -23z"/>
<path d="M2245 1199 c-4 -6 -5 -12 -2 -15 2 -3 7 2 10 11 7 17 1 20 -8 4z"/>
<path d="M821 1164 c0 -11 3 -14 6 -6 3 7 2 16 -1 19 -3 4 -6 -2 -5 -13z"/>
<path d="M1547 1174 c-3 -4 0 -13 8 -20 7 -8 15 -19 18 -26 2 -7 7 -11 10 -8
3 3 -2 18 -12 33 -9 15 -20 24 -24 21z"/>
<path d="M864 1146 c-13 -15 -23 -96 -12 -96 8 0 12 14 22 78 6 36 6 37 -10
18z"/>
<path d="M817 1133 c-4 -3 -7 -11 -7 -17 0 -6 5 -5 12 2 6 6 9 14 7 17 -3 3
-9 2 -12 -2z"/>
<path d="M1398 1133 c6 -2 18 -2 25 0 6 3 1 5 -13 5 -14 0 -19 -2 -12 -5z"/>
<path d="M2240 1020 c0 -68 2 -121 4 -119 7 7 9 229 2 236 -3 4 -6 -49 -6
-117z"/>
<path d="M2494 995 c0 -82 2 -115 3 -72 2 43 2 110 0 150 -1 40 -3 5 -3 -78z"/>
<path d="M970 1119 c0 -12 41 -11 59 0 10 6 2 9 -23 9 -20 0 -36 -4 -36 -9z"/>
<path d="M1179 1126 c-7 -8 23 -132 35 -143 5 -5 6 4 2 20 -6 24 -4 27 21 28
l28 1 -30 7 c-25 5 -32 13 -40 49 -6 24 -13 41 -16 38z"/>
<path d="M1413 1112 c-13 -9 -6 -52 9 -52 5 0 4 9 -2 20 -9 17 -7 22 12 30 13
5 16 9 8 9 -8 0 -20 -3 -27 -7z"/>
<path d="M81 1094 c0 -11 3 -14 6 -6 3 7 2 16 -1 19 -3 4 -6 -2 -5 -13z"/>
<path d="M390 1090 c-2 -14 -4 -35 -5 -48 -2 -20 0 -21 11 -10 9 9 10 23 4 48
-7 30 -8 31 -10 10z"/>
<path d="M1636 1095 c-3 -9 -6 -22 -5 -28 0 -7 5 -1 10 12 5 13 8 26 5 28 -2
2 -6 -3 -10 -12z"/>
<path d="M665 1087 c-15 -15 -6 -560 8 -569 16 -10 22 -1 9 15 -12 14 -22 538
-11 531 4 -2 9 3 12 10 3 8 18 17 34 19 22 4 21 4 -7 4 -20 -1 -40 -5 -45 -10z"/>
<path d="M1250 1096 c0 -2 9 -6 20 -9 11 -3 20 -1 20 4 0 5 -9 9 -20 9 -11 0
-20 -2 -20 -4z"/>
<path d="M1308 1093 c7 -3 16 -2 19 1 4 3 -2 6 -13 5 -11 0 -14 -3 -6 -6z"/>
<path d="M783 1083 c9 -2 17 -11 17 -20 0 -11 -8 -14 -35 -11 l-34 4 4 -56
c18 -214 28 -290 41 -290 16 0 18 12 5 25 -7 8 -31 236 -31 293 0 7 12 12 29
12 23 0 30 5 33 25 5 22 2 25 -21 24 -17 -1 -20 -3 -8 -6z"/>
<path d="M960 1086 c0 -2 7 -6 15 -10 8 -3 15 -1 15 4 0 6 -7 10 -15 10 -8 0
-15 -2 -15 -4z"/>
<path d="M1028 1083 c12 -2 32 -2 45 0 12 2 2 4 -23 4 -25 0 -35 -2 -22 -4z"/>
<path d="M1459 1079 c16 -6 28 -6 35 1 7 7 -1 10 -24 9 -33 0 -34 -1 -11 -10z"/>
<path d="M963 1043 c15 -2 39 -2 55 0 15 2 2 4 -28 4 -30 0 -43 -2 -27 -4z"/>
<path d="M1275 995 c2 -33 8 -117 11 -187 4 -71 11 -125 16 -122 5 3 7 13 4
22 -2 10 -8 79 -11 155 -4 76 -11 150 -16 165 -6 20 -8 11 -4 -33z"/>
<path d="M1615 1031 c-4 -13 -13 -18 -25 -16 -11 2 -23 -2 -27 -9 -5 -7 -17
-18 -28 -24 -37 -21 4 -12 46 9 39 21 58 43 46 55 -3 3 -8 -4 -12 -15z"/>
<path d="M1420 1033 c0 -15 35 -53 49 -53 5 0 16 -3 25 -6 9 -3 16 -1 16 5 0
6 -3 10 -7 9 -16 -3 -62 22 -72 39 -6 10 -11 12 -11 6z"/>
<path d="M170 1005 c0 -9 6 -12 15 -9 8 4 15 7 15 9 0 2 -7 5 -15 9 -9 3 -15
0 -15 -9z"/>
<path d="M386 981 c1 -14 3 -28 4 -31 1 -3 1 -16 0 -30 -1 -14 1 -22 5 -18 13
13 14 105 0 105 -7 0 -11 -11 -9 -26z"/>
<path d="M836 983 c-6 -14 -5 -15 5 -6 7 7 10 15 7 18 -3 3 -9 -2 -12 -12z"/>
<path d="M1333 955 c0 -22 2 -30 4 -17 2 12 2 30 0 40 -3 9 -5 -1 -4 -23z"/>
<path d="M1697 983 c-4 -3 -7 -16 -6 -27 0 -19 1 -19 10 3 10 24 8 36 -4 24z"/>
<path d="M170 976 c0 -2 7 -7 16 -10 8 -3 12 -2 9 4 -6 10 -25 14 -25 6z"/>
<path d="M691 933 c0 -28 2 -54 7 -57 4 -2 6 14 4 37 -5 68 -10 76 -11 20z"/>
<path d="M1210 941 c5 -11 11 -38 12 -60 1 -23 4 -39 7 -36 6 7 3 72 -5 98 -3
9 -10 17 -15 17 -6 0 -6 -7 1 -19z"/>
<path d="M817 911 c-4 -17 -3 -21 5 -13 5 5 8 16 6 23 -3 8 -7 3 -11 -10z"/>
<path d="M285 900 c-3 -5 -1 -10 4 -10 6 0 11 5 11 10 0 6 -2 10 -4 10 -3 0
-8 -4 -11 -10z"/>
<path d="M340 900 c-24 -8 -23 -8 8 -9 20 -1 31 3 27 9 -3 6 -7 10 -8 9 -1 -1
-13 -5 -27 -9z"/>
<path d="M1343 840 c0 -41 2 -58 4 -37 2 20 2 54 0 75 -2 20 -4 3 -4 -38z"/>
<path d="M1690 902 c0 -14 40 -175 44 -180 2 -1 10 0 19 4 15 5 15 7 1 21 -13
13 -13 17 -2 24 10 7 9 9 -4 9 -12 0 -18 8 -18 24 0 13 -9 43 -20 67 -11 24
-20 38 -20 31z"/>
<path d="M0 890 c0 -5 5 -10 11 -10 5 0 7 5 4 10 -3 6 -8 10 -11 10 -2 0 -4
-4 -4 -10z"/>
<path d="M418 893 c6 -2 18 -2 25 0 6 3 1 5 -13 5 -14 0 -19 -2 -12 -5z"/>
<path d="M460 892 c0 -4 18 -6 40 -4 22 2 40 6 40 8 0 2 -18 4 -40 4 -22 0
-40 -3 -40 -8z"/>
<path d="M390 853 c0 -24 4 -43 9 -43 15 0 23 18 11 25 -6 4 -8 11 -5 16 4 5
1 17 -4 26 -8 14 -10 9 -11 -24z"/>
<path d="M586 875 c-3 -9 -6 -22 -5 -28 0 -7 5 -1 10 12 5 13 8 26 5 28 -2 2
-6 -3 -10 -12z"/>
<path d="M1669 869 c-2 -14 -8 -88 -9 -108 0 -30 23 -57 56 -65 28 -7 30 -22
7 -49 -10 -11 -13 -17 -6 -14 18 11 53 -72 53 -127 0 -29 -4 -45 -10 -41 -5 3
-10 -3 -10 -14 0 -11 -6 -26 -14 -33 -9 -9 -11 -20 -5 -36 5 -12 8 -39 7 -60
-2 -58 5 -122 14 -122 4 0 10 -22 14 -50 4 -29 14 -56 25 -66 11 -9 19 -13 19
-8 0 5 5 2 10 -6 13 -18 12 150 -1 190 -4 14 -5 -19 -2 -72 4 -70 2 -98 -6
-98 -13 0 -27 31 -34 76 -3 16 -8 36 -11 44 -12 33 -14 109 -2 115 8 3 8 7 -2
11 -6 3 -9 10 -6 15 3 6 1 15 -4 22 -14 16 -13 29 2 47 29 34 38 79 31 146 -5
51 -4 69 7 76 9 7 8 8 -7 6 -13 -3 -19 -10 -17 -23 3 -16 1 -17 -11 -7 -35 29
9 69 61 55 26 -6 29 -23 5 -23 -13 0 -15 -2 -5 -8 7 -5 10 -17 6 -28 -3 -10 3
-6 14 10 15 21 18 35 12 47 -11 20 -65 30 -81 15 -8 -8 -13 -7 -16 2 -3 6 -10
12 -16 12 -7 1 -23 9 -35 20 -21 17 -23 27 -20 79 1 33 0 63 -5 67 -4 4 -7 5
-8 3z"/>
<path d="M85 850 c-3 -5 -2 -10 4 -10 5 0 13 5 16 10 3 6 2 10 -4 10 -5 0 -13
-4 -16 -10z"/>
<path d="M1965 828 l-20 -21 23 12 c12 6 22 16 22 21 0 13 -2 12 -25 -12z"/>
<path d="M2472 830 c0 -14 2 -19 5 -12 2 6 2 18 0 25 -3 6 -5 1 -5 -13z"/>
<path d="M80 802 c0 -16 8 -36 17 -43 9 -8 14 -9 10 -2 -5 7 1 13 15 16 18 3
17 5 -7 6 -23 1 -27 3 -15 11 11 7 11 10 2 10 -7 0 -11 4 -7 9 3 5 1 12 -5 16
-6 4 -10 -6 -10 -23z"/>
<path d="M890 822 c0 -7 0 -13 1 -14 0 -2 -4 -15 -9 -29 -6 -14 -7 -31 -2 -38
4 -8 10 5 14 34 4 26 5 49 2 53 -3 3 -6 0 -6 -6z"/>
<path d="M2242 810 c0 -14 2 -19 5 -12 2 6 2 18 0 25 -3 6 -5 1 -5 -13z"/>
<path d="M1227 799 c4 -13 8 -18 11 -10 2 7 -1 18 -6 23 -8 8 -9 4 -5 -13z"/>
<path d="M391 755 c3 -49 13 -75 21 -53 7 21 -3 98 -14 98 -5 0 -8 -20 -7 -45z"/>
<path d="M1542 770 c0 -14 2 -19 5 -12 2 6 2 18 0 25 -3 6 -5 1 -5 -13z"/>
<path d="M163 773 c9 -2 25 -2 35 0 9 3 1 5 -18 5 -19 0 -27 -2 -17 -5z"/>
<path d="M1230 760 c0 -6 4 -9 9 -6 5 4 12 1 14 -4 3 -6 4 -5 3 2 -3 15 -26
23 -26 8z"/>
<path d="M2492 677 l3 -88 186 -1 c103 -1 214 -6 248 -11 63 -10 83 -5 64 14
-8 8 -8 20 -2 37 14 36 4 37 -18 2 l-20 -32 -204 2 c-147 0 -205 4 -211 13 -6
9 -8 9 -8 0 0 -7 -6 -13 -14 -13 -10 0 -14 20 -15 77 -1 43 -4 80 -7 83 -3 2
-4 -35 -2 -83z"/>
<path d="M130 730 c6 -11 13 -20 16 -20 2 0 0 9 -6 20 -6 11 -13 20 -16 20 -2
0 0 -9 6 -20z"/>
<path d="M1353 715 c0 -22 2 -30 4 -17 2 12 2 30 0 40 -3 9 -5 -1 -4 -23z"/>
<path d="M194 715 c1 -33 16 -33 16 0 0 14 -4 25 -9 25 -5 0 -8 -11 -7 -25z"/>
<path d="M1247 705 c2 -11 6 -39 9 -62 4 -24 11 -43 16 -43 5 0 7 9 4 20 -3
11 -9 30 -12 41 -4 13 -1 25 7 30 11 7 10 9 -3 9 -9 0 -18 6 -21 13 -2 6 -2 3
0 -8z"/>
<path d="M868 678 c-3 -24 -1 -47 3 -52 5 -6 9 6 9 26 0 20 3 43 6 52 3 9 2
16 -4 16 -5 0 -12 -19 -14 -42z"/>
<path d="M2472 695 c0 -16 2 -22 5 -12 2 9 2 23 0 30 -3 6 -5 -1 -5 -18z"/>
<path d="M911 706 c9 -8 139 -13 139 -5 0 5 -32 9 -72 9 -39 0 -69 -2 -67 -4z"/>
<path d="M1067 699 c7 -7 15 -10 18 -7 3 3 -2 9 -12 12 -14 6 -15 5 -6 -5z"/>
<path d="M1108 693 c6 -2 18 -2 25 0 6 3 1 5 -13 5 -14 0 -19 -2 -12 -5z"/>
<path d="M1546 693 c7 -4 14 -17 17 -28 5 -16 5 -15 4 4 -1 14 -9 26 -17 28
-10 3 -11 2 -4 -4z"/>
<path d="M85 670 c-4 -7 -19 -10 -34 -7 -15 3 -33 2 -40 -2 -8 -6 -2 -10 19
-15 45 -8 62 -8 56 3 -4 5 0 11 6 14 7 2 10 7 7 11 -4 4 -10 2 -14 -4z"/>
<path d="M482 660 c-50 -12 -46 -15 16 -15 32 -1 48 1 38 3 -15 3 -16 6 -5 13
18 11 0 11 -49 -1z"/>
<path d="M115 650 c-5 -8 63 -36 70 -28 1 1 -13 10 -31 19 -19 9 -37 13 -39 9z"/>
<path d="M761 644 c0 -11 3 -14 6 -6 3 7 2 16 -1 19 -3 4 -6 -2 -5 -13z"/>
<path d="M1667 626 c-4 -10 -1 -13 8 -9 8 3 12 9 9 14 -7 12 -11 11 -17 -5z"/>
<path d="M968 623 c23 -2 59 -2 80 0 20 2 1 4 -43 4 -44 0 -61 -2 -37 -4z"/>
<path d="M1095 620 c3 -5 11 -10 16 -10 6 0 7 5 4 10 -3 6 -11 10 -16 10 -6 0
-7 -4 -4 -10z"/>
<path d="M1353 595 c0 -22 2 -30 4 -17 2 12 2 30 0 40 -3 9 -5 -1 -4 -23z"/>
<path d="M2240 620 c0 -5 5 -10 11 -10 5 0 7 5 4 10 -3 6 -8 10 -11 10 -2 0
-4 -4 -4 -10z"/>
<path d="M1307 505 c3 -66 9 -147 14 -180 5 -39 6 -12 2 75 -3 74 -9 155 -13
180 -5 27 -6 -4 -3 -75z"/>
<path d="M1950 610 c0 -5 5 -10 10 -10 6 0 10 5 10 10 0 6 -4 10 -10 10 -5 0
-10 -4 -10 -10z"/>
<path d="M10 602 c20 -13 130 -21 136 -10 3 4 -8 8 -24 8 -16 0 -51 3 -78 6
-33 3 -44 2 -34 -4z"/>
<path d="M2048 603 c7 -3 16 -2 19 1 4 3 -2 6 -13 5 -11 0 -14 -3 -6 -6z"/>
<path d="M2268 594 c-4 -3 -101 -5 -217 -4 -116 0 -211 -3 -211 -7 0 -5 19 -9
42 -9 23 -1 44 -7 46 -13 2 -6 8 -11 13 -11 6 0 7 5 4 10 -4 6 46 10 144 10
96 0 152 -4 156 -11 5 -6 13 -2 22 11 14 19 14 38 1 24z"/>
<path d="M832 570 c0 -14 2 -19 5 -12 2 6 2 18 0 25 -3 6 -5 1 -5 -13z"/>
<path d="M1268 555 c2 -14 6 -25 8 -25 2 0 4 11 4 25 0 14 -4 25 -9 25 -4 0
-6 -11 -3 -25z"/>
<path d="M28 563 c7 -3 16 -2 19 1 4 3 -2 6 -13 5 -11 0 -14 -3 -6 -6z"/>
<path d="M318 563 c30 -2 50 -8 47 -14 -4 -5 -1 -9 4 -9 6 0 11 4 11 10 0 5
35 11 78 13 42 1 16 3 -58 3 -74 0 -111 -1 -82 -3z"/>
<path d="M1572 550 c0 -14 2 -19 5 -12 2 6 2 18 0 25 -3 6 -5 1 -5 -13z"/>
<path d="M2920 556 c0 -7 -9 -22 -20 -34 -12 -12 -17 -22 -12 -22 5 0 16 10
25 23 14 21 16 21 33 5 14 -14 16 -22 6 -42 -9 -19 -8 -24 3 -22 8 1 18 6 22
11 4 4 2 5 -4 1 -18 -10 -16 6 3 30 14 17 15 17 10 1 -3 -10 -2 -15 3 -12 13
7 9 45 -4 45 -5 0 -22 7 -37 14 -22 11 -28 12 -28 2z"/>
<path d="M702 535 c0 -16 2 -22 5 -12 2 9 2 23 0 30 -3 6 -5 -1 -5 -18z"/>
<path d="M2058 553 c6 -2 18 -2 25 0 6 3 1 5 -13 5 -14 0 -19 -2 -12 -5z"/>
<path d="M8 543 c7 -3 16 -2 19 1 4 3 -2 6 -13 5 -11 0 -14 -3 -6 -6z"/>
<path d="M121 531 c-16 -14 -36 -20 -67 -19 -25 0 -48 -2 -51 -6 -4 -3 21 -6
55 -6 34 0 62 5 64 11 2 6 14 8 31 4 29 -8 29 -8 28 -174 0 -35 3 -61 6 -57 4
3 6 54 5 111 l-1 105 194 0 c107 0 196 3 199 8 2 4 -87 6 -199 5 -125 -2 -206
1 -210 7 -3 6 -1 10 5 10 6 0 8 5 4 11 -4 8 -10 5 -17 -7 -10 -17 -11 -17 -16
0 -6 16 -8 16 -30 -3z"/>
<path d="M210 541 c0 -5 11 -8 25 -8 14 0 25 3 25 8 0 5 -11 9 -25 9 -14 0
-25 -4 -25 -9z"/>
<path d="M1362 520 c0 -19 2 -27 5 -17 2 9 2 25 0 35 -3 9 -5 1 -5 -18z"/>
<path d="M1522 525 c0 -16 2 -22 5 -12 2 9 2 23 0 30 -3 6 -5 -1 -5 -18z"/>
<path d="M815 500 c-4 -23 -5 -44 -2 -46 3 -3 8 13 12 36 4 23 5 44 2 46 -3 3
-8 -13 -12 -36z"/>
<path d="M2473 485 c0 -33 2 -45 4 -27 2 18 2 45 0 60 -2 15 -4 0 -4 -33z"/>
<path d="M2500 530 c0 -5 7 -7 15 -4 8 4 15 8 15 10 0 2 -7 4 -15 4 -8 0 -15
-4 -15 -10z"/>
<path d="M1836 519 c4 -7 23 -9 48 -7 l41 5 -1 -46 -1 -46 4 43 c3 34 8 42 19
38 9 -3 12 -1 9 4 -9 14 9 12 23 -2 9 -9 12 -9 12 -1 0 7 12 14 28 16 15 2
-22 5 -81 6 -77 1 -106 -2 -101 -10z"/>
<path d="M2073 523 c15 -2 39 -2 55 0 15 2 2 4 -28 4 -30 0 -43 -2 -27 -4z"/>
<path d="M2161 526 c8 -8 88 -10 95 -3 4 4 -17 7 -46 7 -29 0 -51 -2 -49 -4z"/>
<path d="M1482 500 c0 -14 2 -19 5 -12 2 6 2 18 0 25 -3 6 -5 1 -5 -13z"/>
<path d="M600 500 c-13 -8 -13 -10 2 -10 9 0 20 5 23 10 8 13 -5 13 -25 0z"/>
<path d="M1557 481 c-4 -18 -7 -43 -6 -55 1 -11 5 -1 10 24 5 25 7 49 6 55 -2
5 -7 -5 -10 -24z"/>
<path d="M1667 405 c5 -145 11 -165 11 -40 0 55 -3 111 -7 125 -4 14 -6 -24
-4 -85z"/>
<path d="M2010 481 c0 -15 -5 -32 -11 -38 -8 -8 -8 -13 0 -17 6 -4 11 0 11 8
0 13 13 16 68 16 l67 0 -3 -60 -4 -60 76 0 c67 0 83 -4 142 -35 36 -19 72 -35
79 -35 7 0 39 -17 71 -39 34 -23 64 -36 76 -33 31 8 31 22 -1 22 -21 0 -53 19
-116 68 l-87 69 -89 -4 c-94 -4 -96 -3 -89 47 1 8 -2 12 -6 7 -4 -4 -8 -17 -9
-30 -1 -12 -6 -21 -11 -19 -5 1 -8 27 -6 57 3 60 5 58 -76 69 -54 7 -52 18 3
16 74 -4 105 -1 105 9 0 4 -43 8 -95 8 l-95 0 0 -26z m403 -178 c22 -14 37
-26 35 -29 -5 -4 -20 2 -108 43 l-45 21 40 -5 c22 -4 57 -17 78 -30z"/>
<path d="M637 486 c-3 -8 -3 -24 0 -35 4 -16 13 -21 37 -21 22 0 33 -5 33 -15
0 -8 -4 -15 -9 -15 -5 0 -7 -4 -4 -9 3 -5 2 -30 -3 -55 -5 -25 -5 -46 -2 -46
11 0 32 121 30 168 -3 41 -3 42 -40 42 -22 0 -39 -5 -42 -14z m58 -21 c0 -11
-7 -21 -16 -23 -18 -3 -33 23 -23 39 10 17 39 5 39 -16z"/>
<path d="M1834 488 c3 -9 10 -35 16 -57 6 -22 22 -49 36 -60 16 -12 24 -27 21
-36 -4 -8 1 -19 11 -24 10 -6 12 -11 5 -11 -15 0 -18 -30 -4 -30 13 0 6 -197
-7 -213 -8 -9 -8 -17 0 -27 8 -12 9 -12 4 3 -3 11 0 20 9 24 9 3 15 10 14 17
-1 6 -1 64 0 130 1 111 2 118 19 105 15 -13 16 -12 3 3 -7 10 -17 15 -22 12
-5 -3 -9 11 -9 31 0 20 -3 34 -7 32 -13 -8 -55 12 -48 23 3 5 1 10 -4 10 -6 0
-11 6 -11 13 -1 6 -8 26 -16 42 -8 17 -12 22 -10 13z"/>
<path d="M2530 490 c0 -3 38 -7 85 -8 47 -1 85 2 85 6 0 4 -38 7 -85 8 -47 1
-85 -2 -85 -6z"/>
<path d="M118 355 l3 -135 -62 0 c-34 0 -59 -3 -56 -6 4 -4 32 -7 64 -7 l58
-1 3 142 c1 78 -1 142 -5 142 -5 0 -7 -61 -5 -135z"/>
<path d="M205 473 c4 -10 10 -64 13 -120 5 -117 -6 -107 111 -105 87 2 72 12
-17 12 l-82 0 0 100 0 101 158 -3 c86 -2 165 -7 175 -12 14 -7 17 -4 16 15 0
13 -3 18 -6 12 -7 -20 -23 -15 -16 5 6 14 4 15 -8 5 -19 -15 -344 -19 -334 -3
3 5 1 10 -5 10 -8 0 -9 -7 -5 -17z"/>
<path d="M1524 463 c1 -19 5 -28 10 -23 6 6 5 18 -1 32 -10 21 -10 21 -9 -9z"/>
<path d="M2733 483 c9 -2 25 -2 35 0 9 3 1 5 -18 5 -19 0 -27 -2 -17 -5z"/>
<path d="M2798 483 c7 -3 16 -2 19 1 4 3 -2 6 -13 5 -11 0 -14 -3 -6 -6z"/>
<path d="M598 455 c4 -24 3 -25 -57 -25 -39 0 -60 -4 -56 -10 3 -5 31 -10 60
-10 45 0 56 4 65 21 12 21 7 49 -8 49 -5 0 -7 -11 -4 -25z"/>
<path d="M0 456 c0 -4 18 -6 40 -4 l40 4 0 -76 c0 -41 3 -85 6 -97 6 -22 3
-23 -42 -23 -60 0 -52 -10 11 -15 l48 -3 -7 97 c-3 53 -6 104 -6 114 0 14 -8
17 -45 15 -25 -2 -45 -7 -45 -12z"/>
<path d="M2533 390 c0 -41 2 -58 4 -37 2 20 2 54 0 75 -2 20 -4 3 -4 -38z"/>
<path d="M2572 361 c-2 -91 -4 -102 -17 -91 -8 7 -15 19 -15 27 0 8 -5 11 -11
7 -6 -3 -28 10 -49 31 -21 21 -43 34 -48 31 -6 -3 -12 2 -14 11 -3 15 -5 14
-10 -4 -5 -18 -2 -23 12 -23 9 0 33 -14 51 -30 63 -57 117 -90 146 -89 l28 1
-32 9 -32 9 -4 108 -3 107 -2 -104z"/>
<path d="M1492 425 c0 -16 2 -22 5 -12 2 9 2 23 0 30 -3 6 -5 -1 -5 -18z"/>
<path d="M1792 438 c-7 -7 -8 -16 -3 -22 15 -18 17 -61 4 -59 -7 2 -10 -4 -7
-11 3 -8 11 -13 19 -10 7 3 15 -6 19 -22 8 -31 36 -75 36 -56 0 7 -7 27 -16
43 -20 39 -12 68 14 48 16 -13 16 -12 -1 7 -10 12 -15 28 -11 38 4 10 1 16 -9
16 -10 0 -13 -8 -9 -27 3 -20 1 -25 -6 -18 -6 6 -12 27 -14 48 -1 20 -3 37 -3
37 -1 0 -6 -5 -13 -12z"/>
<path d="M2431 436 c-16 -19 -11 -29 8 -17 7 5 12 14 9 21 -3 9 -8 7 -17 -4z"/>
<path d="M2628 443 c7 -3 16 -2 19 1 4 3 -2 6 -13 5 -11 0 -14 -3 -6 -6z"/>
<path d="M2790 439 c74 -5 137 -6 141 -1 5 4 -56 8 -134 9 l-142 1 135 -9z"/>
<path d="M800 424 c0 -8 5 -12 10 -9 6 4 8 11 5 16 -9 14 -15 11 -15 -7z"/>
<path d="M2056 415 c4 -8 8 -15 10 -15 2 0 4 7 4 15 0 8 -4 15 -10 15 -5 0 -7
-7 -4 -15z"/>
<path d="M2088 423 c6 -2 12 -11 12 -19 0 -9 -4 -12 -10 -9 -5 3 -10 1 -10 -4
0 -6 5 -11 10 -11 6 0 10 -9 10 -20 0 -11 5 -20 11 -20 8 0 9 12 4 37 -8 45
-13 53 -28 52 -9 0 -9 -2 1 -6z"/>
<path d="M2180 420 c0 -5 5 -10 10 -10 6 0 10 5 10 10 0 6 -4 10 -10 10 -5 0
-10 -4 -10 -10z"/>
<path d="M2926 405 c-20 -30 -33 -31 -66 -5 -28 22 -40 25 -40 9 0 -6 -9 -22
-20 -36 -11 -14 -20 -31 -20 -37 0 -6 11 6 26 27 24 37 31 38 63 13 24 -19 41
-15 62 15 12 17 19 32 16 35 -2 2 -12 -7 -21 -21z"/>
<path d="M1521 404 c0 -11 3 -14 6 -6 3 7 2 16 -1 19 -3 4 -6 -2 -5 -13z"/>
<path d="M2011 411 c-11 -7 -9 -11 8 -20 18 -10 21 -9 21 9 0 22 -7 25 -29 11z"/>
<path d="M455 338 c0 -72 0 -73 -27 -76 -16 -2 -28 -8 -28 -13 0 -13 76 -8 78
5 1 6 2 39 3 74 1 37 7 62 13 62 13 0 -15 20 -29 20 -6 0 -10 -31 -10 -72z"/>
<path d="M643 365 c0 -27 2 -38 4 -22 2 15 2 37 0 50 -2 12 -4 0 -4 -28z"/>
<path d="M595 389 c-4 -6 -5 -12 -2 -15 2 -3 7 2 10 11 7 17 1 20 -8 4z"/>
<path d="M1497 355 c7 -49 13 -58 13 -19 0 16 -5 36 -10 44 -6 10 -7 2 -3 -25z"/>
<path d="M1970 386 c0 -2 9 -6 20 -9 11 -3 18 -1 14 4 -5 9 -34 13 -34 5z"/>
<path d="M2026 355 c4 -8 10 -15 15 -15 4 0 6 7 3 15 -4 8 -10 15 -15 15 -4 0
-6 -7 -3 -15z"/>
<path d="M1226 323 c5 -31 5 -32 -38 -36 l-43 -4 48 -1 c50 -2 57 8 36 53 -7
15 -8 13 -3 -12z"/>
<path d="M2982 330 c0 -14 2 -19 5 -12 2 6 2 18 0 25 -3 6 -5 1 -5 -13z"/>
<path d="M572 318 c-2 -23 -7 -27 -39 -30 -20 -2 -38 -9 -39 -16 -1 -7 0 -8 2
-3 4 6 36 8 85 4 75 -6 79 -5 72 12 -4 12 -8 14 -11 7 -2 -7 -17 -12 -32 -12
-25 0 -29 4 -33 33 -3 28 -4 28 -5 5z"/>
<path d="M1542 310 c0 -19 2 -27 5 -17 2 9 2 25 0 35 -3 9 -5 1 -5 -18z"/>
<path d="M2015 321 c45 -6 47 -8 20 -12 -28 -6 -27 -6 9 -8 22 0 37 -4 33 -7
-3 -3 -2 -17 3 -30 11 -28 10 -28 -35 -10 -49 21 -43 13 13 -19 54 -31 157
-45 188 -26 16 10 13 11 -18 6 -42 -7 -54 5 -38 37 10 21 10 21 -3 6 -8 -10
-20 -18 -28 -18 -11 0 -11 -2 1 -10 13 -9 13 -10 0 -9 -8 1 -26 4 -40 8 l-25
7 23 8 c22 7 31 26 12 26 -5 0 -10 -4 -10 -10 0 -15 -30 -12 -31 3 0 6 -2 20
-4 30 -2 13 1 16 14 12 16 -5 109 -15 166 -19 17 0 36 -5 43 -10 8 -5 18 -4
24 2 16 16 -9 25 -96 33 -116 12 -283 19 -221 10z"/>
<path d="M410 295 c-13 -14 -19 -25 -13 -25 5 0 20 11 33 25 13 14 19 25 13
25 -5 0 -20 -11 -33 -25z"/>
<path d="M849 318 c-5 -17 -4 -50 3 -54 4 -3 8 6 8 20 0 13 6 27 13 29 7 3 5
6 -5 6 -10 1 -18 0 -19 -1z"/>
<path d="M890 308 c0 -5 26 -7 58 -7 61 1 55 6 -15 11 -24 2 -43 0 -43 -4z"/>
<path d="M1265 310 c3 -5 8 -10 11 -10 2 0 4 5 4 10 0 6 -5 10 -11 10 -5 0 -7
-4 -4 -10z"/>
<path d="M2750 294 c0 -8 5 -12 10 -9 6 3 10 10 10 16 0 5 -4 9 -10 9 -5 0
-10 -7 -10 -16z"/>
<path d="M1038 293 c12 -2 32 -2 45 0 12 2 2 4 -23 4 -25 0 -35 -2 -22 -4z"/>
<path d="M1872 276 c1 -14 5 -23 9 -20 7 4 0 44 -7 44 -2 0 -3 -11 -2 -24z"/>
<path d="M1980 280 c-15 -28 -13 -36 18 -49 l27 -13 -22 22 c-28 26 -28 29 -1
39 18 6 19 9 5 14 -11 4 -20 -1 -27 -13z"/>
<path d="M2828 293 c7 -3 16 -2 19 1 4 3 -2 6 -13 5 -11 0 -14 -3 -6 -6z"/>
<path d="M2980 290 c0 -5 -16 -8 -35 -6 -19 1 -35 -1 -35 -6 0 -4 20 -8 45 -8
35 0 43 3 39 15 -7 17 -14 20 -14 5z"/>
<path d="M1781 253 c-1 -23 3 -44 7 -47 4 -2 6 12 4 32 -5 56 -10 62 -11 15z"/>
<path d="M675 270 c3 -5 8 -10 11 -10 2 0 4 5 4 10 0 6 -5 10 -11 10 -5 0 -7
-4 -4 -10z"/>
<path d="M2726 265 c-3 -9 0 -15 9 -15 7 0 21 -7 29 -16 9 -8 20 -14 24 -12 5
2 -6 15 -24 31 -26 22 -33 24 -38 12z"/>
<path d="M2349 257 c7 -7 14 -8 21 -1 6 6 2 10 -12 11 -16 2 -18 -1 -9 -10z"/>
<path d="M1241 240 c0 -14 4 -32 9 -40 9 -13 10 -13 9 0 -1 8 -5 26 -9 40 l-8
25 -1 -25z"/>
<path d="M2817 252 c8 -5 9 -13 3 -22 -16 -25 -11 -36 6 -12 16 23 12 42 -9
42 -9 0 -9 -2 0 -8z"/>
<path d="M2893 205 c0 -33 2 -45 4 -27 2 18 2 45 0 60 -2 15 -4 0 -4 -33z"/>
<path d="M2952 243 c6 -8 19 -18 29 -23 14 -8 17 -5 15 14 -1 18 -7 23 -28 23
-23 0 -26 -3 -16 -14z"/>
<path d="M839 192 c-2 -34 -1 -62 4 -62 4 0 7 14 7 30 0 17 6 31 13 31 51 5
107 4 137 -2 19 -4 79 -10 133 -13 55 -3 103 -9 108 -12 5 -3 9 -1 9 5 0 12
-40 18 -237 32 -151 12 -162 14 -166 33 -2 12 -5 -7 -8 -42z"/>
<path d="M1331 229 c-1 -17 5 -29 15 -33 13 -5 14 -3 6 6 -5 7 -12 22 -15 33
-4 16 -5 14 -6 -6z"/>
<path d="M2947 213 c34 -33 42 -47 46 -84 l4 -44 1 46 c2 38 -2 49 -25 70 -48
43 -70 53 -26 12z"/>
<path d="M370 230 c0 -5 -42 -11 -92 -13 l-93 -3 93 -2 92 -2 0 -55 c0 -30 4
-55 10 -55 5 0 7 16 4 36 -4 31 -2 35 13 30 16 -5 16 -5 2 6 -19 16 -21 48 -2
48 8 0 11 5 8 10 -8 13 -35 13 -35 0z"/>
<path d="M513 234 c4 -4 22 -9 40 -10 17 0 34 -2 37 -4 3 -1 21 -1 41 0 35 1
36 0 33 -27 l-4 -28 11 28 c6 16 9 30 8 32 -9 7 -173 17 -166 9z"/>
<path d="M1911 224 c0 -11 3 -14 6 -6 3 7 2 16 -1 19 -3 4 -6 -2 -5 -13z"/>
<path d="M2268 233 c6 -2 18 -2 25 0 6 3 1 5 -13 5 -14 0 -19 -2 -12 -5z"/>
<path d="M2658 233 c6 -2 18 -2 25 0 6 3 1 5 -13 5 -14 0 -19 -2 -12 -5z"/>
<path d="M2370 220 c-47 -3 -69 -8 -50 -9 56 -5 124 0 140 10 8 4 11 8 5 7 -5
-1 -48 -5 -95 -8z"/>
<path d="M136 202 c-3 -6 -1 -14 5 -17 14 -9 20 -2 10 14 -6 8 -11 9 -15 3z"/>
<path d="M160 201 c0 -6 5 -13 10 -16 6 -3 10 1 10 9 0 9 -4 16 -10 16 -5 0
-10 -4 -10 -9z"/>
<path d="M755 173 c-4 -21 -10 -57 -14 -80 -5 -25 -4 -46 1 -51 6 -6 6 -12 -1
-16 -6 -4 -11 -12 -11 -19 0 -6 6 -3 14 8 7 11 16 59 19 108 6 90 2 114 -8 50z"/>
<path d="M2015 200 c3 -5 15 -10 25 -10 10 0 21 -8 23 -17 4 -17 5 -17 6 0 0
9 7 17 14 18 20 1 -26 18 -51 18 -13 1 -20 -3 -17 -9z"/>
<path d="M2628 193 c6 -2 18 -2 25 0 6 3 1 5 -13 5 -14 0 -19 -2 -12 -5z"/>
<path d="M2242 160 c0 -19 2 -27 5 -17 2 9 2 25 0 35 -3 9 -5 1 -5 -18z"/>
<path d="M2288 110 c-2 -44 0 -80 5 -80 4 0 7 33 7 74 0 71 1 74 24 74 18 0
23 -5 19 -17 -4 -14 -3 -14 6 -1 7 10 33 15 87 18 119 4 101 12 -29 12 l-115
0 -4 -80z"/>
<path d="M641 137 c-1 -27 -6 -57 -11 -68 -7 -13 -8 -25 -1 -37 8 -14 11 -14
11 -2 1 8 5 37 9 65 5 27 5 59 0 70 -6 15 -8 7 -8 -28z"/>
<path d="M2020 90 c0 -51 2 -91 5 -88 7 7 8 168 1 176 -3 3 -6 -37 -6 -88z"/>
<path d="M1346 138 c4 -18 10 -49 14 -68 7 -34 7 -34 11 17 2 28 1 49 -3 46
-5 -2 -8 3 -8 13 0 13 6 15 30 11 17 -4 30 -2 30 3 0 6 -18 10 -40 10 -39 0
-39 0 -34 -32z"/>
<path d="M1261 110 c-2 -25 -5 -55 -6 -68 -1 -14 1 -20 7 -14 5 5 7 36 5 68
-3 55 -3 56 -6 14z"/>
<path d="M1173 133 c15 -2 39 -2 55 0 15 2 2 4 -28 4 -30 0 -43 -2 -27 -4z"/>
<path d="M2063 80 c0 -36 2 -50 4 -32 2 17 2 47 0 65 -2 17 -4 3 -4 -33z"/>
<path d="M2353 105 c0 -22 2 -30 4 -17 2 12 2 30 0 40 -3 9 -5 -1 -4 -23z"/>
<path d="M2629 113 c-13 -16 -12 -17 4 -4 16 13 21 21 13 21 -2 0 -10 -8 -17
-17z"/>
<path d="M2930 102 c0 -13 4 -21 9 -17 5 3 12 1 16 -5 3 -5 -1 -10 -9 -10 -9
0 -16 -4 -16 -10 0 -5 17 -10 37 -10 37 0 37 0 16 15 -12 9 -29 26 -38 38
l-15 21 0 -22z"/>
<path d="M2670 93 c0 -5 9 -18 20 -28 11 -10 20 -16 20 -13 0 3 -9 15 -20 28
-11 13 -20 19 -20 13z"/>
<path d="M2901 94 c-1 -7 -17 -15 -36 -18 -22 -4 -43 -18 -59 -39 -28 -35 -26
-49 3 -23 13 12 29 16 52 12 72 -11 144 -15 119 -6 -14 4 -45 9 -70 10 -54 2
-93 15 -70 24 8 3 29 7 46 8 27 3 30 6 23 23 -4 11 -8 15 -8 9z"/>
<path d="M840 60 c-8 -5 -12 -11 -10 -14 3 -2 14 2 24 10 22 15 10 19 -14 4z"/>
<path d="M2352 30 c0 -19 2 -27 5 -17 2 9 2 25 0 35 -3 9 -5 1 -5 -18z"/>
<path d="M58 43 c12 -2 32 -2 45 0 12 2 2 4 -23 4 -25 0 -35 -2 -22 -4z"/>
<path d="M188 43 c23 -2 59 -2 80 0 20 2 1 4 -43 4 -44 0 -61 -2 -37 -4z"/>
<path d="M310 46 c0 -2 15 -6 34 -8 19 -2 32 0 30 4 -5 8 -64 12 -64 4z"/>
<path d="M855 30 c-3 -5 -1 -10 4 -10 6 0 11 5 11 10 0 6 -2 10 -4 10 -3 0 -8
-4 -11 -10z"/>
<path d="M1946 17 c3 -10 9 -15 12 -12 3 3 0 11 -7 18 -10 9 -11 8 -5 -6z"/>
</g>
</svg>
