<?xml version="1.0" standalone="no"?>
<!DOCTYPE svg PUBLIC "-//W3C//DTD SVG 20010904//EN"
 "http://www.w3.org/TR/2001/REC-SVG-20010904/DTD/svg10.dtd">
<svg version="1.0" xmlns="http://www.w3.org/2000/svg"
 width="300.000000pt" height="225.000000pt" viewBox="0 0 300.000000 225.000000"
 preserveAspectRatio="xMidYMid meet">
<metadata>
Created by potrace 1.10, written by Peter Selinger 2001-2011
</metadata>
<g transform="translate(0.000000,225.000000) scale(0.100000,-0.100000)"
fill="#000000" stroke="none">
<path d="M1310 2241 c0 -4 11 -6 25 -3 14 2 25 6 25 8 0 2 -11 4 -25 4 -14 0
-25 -4 -25 -9z"/>
<path d="M1268 2193 c7 -3 16 -2 19 1 4 3 -2 6 -13 5 -11 0 -14 -3 -6 -6z"/>
<path d="M1224 2164 c-18 -14 -18 -15 4 -4 12 6 22 13 22 15 0 8 -5 6 -26 -11z"/>
<path d="M658 2133 c6 -2 18 -2 25 0 6 3 1 5 -13 5 -14 0 -19 -2 -12 -5z"/>
<path d="M2489 1803 c-13 -16 -12 -17 4 -4 9 7 17 15 17 17 0 8 -8 3 -21 -13z"/>
<path d="M2579 1800 c-38 -11 -69 -29 -69 -41 0 -6 7 -3 16 5 8 9 21 17 27 18
7 0 17 2 22 2 6 1 15 5 22 9 15 10 43 -2 43 -18 0 -7 -6 -16 -12 -18 -10 -4
-10 -6 0 -6 7 -1 15 6 18 14 8 21 33 19 29 -2 -1 -10 0 -12 2 -5 4 10 8 9 19
-5 14 -17 14 -16 4 4 -10 23 -27 36 -46 39 -6 1 -20 4 -30 7 -11 3 -31 2 -45
-3z"/>
<path d="M2395 1770 c-27 -7 -28 -8 -5 -8 14 0 34 3 45 8 25 11 2 11 -40 0z"/>
<path d="M2297 1763 c-4 -3 -7 -11 -7 -17 0 -6 5 -5 12 2 6 6 9 14 7 17 -3 3
-9 2 -12 -2z"/>
<path d="M2320 1767 c-1 -21 25 -44 43 -39 14 3 18 1 13 -6 -5 -8 -2 -10 8 -6
22 9 10 24 -19 24 -13 0 -29 8 -34 18 -6 9 -11 14 -11 9z"/>
<path d="M2430 1730 c-25 -21 -45 -28 -72 -28 -23 0 -35 4 -31 11 3 5 -13 -1
-37 -14 -40 -23 -41 -24 -17 -27 14 -2 35 2 46 7 11 6 35 11 53 11 19 0 40 6
47 13 10 9 12 9 7 0 -5 -9 2 -11 24 -8 16 2 30 -1 30 -6 0 -5 -5 -9 -11 -9 -5
0 -7 -4 -4 -10 3 -5 1 -10 -4 -10 -6 0 -11 5 -11 10 0 15 -35 12 -75 -7 -41
-19 -43 -28 -13 -44 17 -9 20 -9 16 2 -3 9 8 21 29 32 l34 17 -4 -55 c-4 -60
-4 -60 24 -45 20 11 27 40 9 40 -14 0 -13 33 2 48 15 15 64 16 73 2 7 -12 45
-14 45 -2 0 11 -52 32 -64 25 -6 -3 -5 0 2 8 10 11 16 11 32 1 11 -6 23 -12
27 -12 5 0 1 4 -7 10 -8 5 -12 12 -8 15 3 4 19 -2 35 -12 26 -16 27 -16 14 0
-12 15 -12 17 2 12 19 -8 29 6 16 25 -6 10 -9 11 -9 3 0 -20 -31 -15 -57 9
-23 21 -24 21 -41 4 -9 -11 -12 -16 -5 -12 14 8 43 -3 43 -16 0 -5 -9 -7 -19
-3 -13 4 -24 -1 -35 -16 -9 -13 -19 -20 -22 -16 -4 4 -1 14 7 23 10 13 11 18
2 21 -7 2 -9 11 -6 19 9 24 -30 16 -67 -16z m59 -9 c9 -6 6 -8 -13 -8 -14 0
-23 3 -20 8 7 11 15 11 33 0z"/>
<path d="M2175 1725 l-30 -14 32 2 c18 1 33 5 33 9 0 4 7 4 17 1 11 -4 14 -3
9 5 -9 15 -23 14 -61 -3z"/>
<path d="M2765 1729 c-4 -5 10 -9 30 -9 26 0 34 -3 29 -12 -4 -7 -3 -10 1 -5
5 4 17 0 27 -10 10 -9 18 -11 18 -5 0 28 -91 64 -105 41z"/>
<path d="M2666 1718 c3 -5 10 -6 15 -3 13 9 11 12 -6 12 -8 0 -12 -4 -9 -9z"/>
<path d="M2120 1701 c0 -6 -15 -11 -32 -13 -18 -2 -32 -7 -30 -13 2 -5 -5 -12
-15 -16 -12 -5 -4 -7 22 -7 22 0 32 2 23 5 -39 10 -16 25 32 21 28 -1 50 0 50
5 0 4 -9 7 -21 7 -11 0 -17 5 -14 10 3 6 1 10 -4 10 -6 0 -11 -4 -11 -9z"/>
<path d="M2893 1696 c25 -20 22 -39 -6 -32 -14 3 -31 -1 -43 -10 -18 -14 -16
-15 20 -9 34 6 38 5 28 -8 -10 -11 -9 -17 4 -28 14 -12 14 -14 -2 -26 -10 -7
-13 -13 -8 -13 21 0 72 -56 79 -87 6 -28 3 -34 -17 -44 -26 -11 -35 -49 -13
-49 8 0 12 6 9 14 -3 8 3 19 15 26 16 8 21 20 21 49 0 33 -5 42 -40 66 -22 15
-40 29 -40 30 0 2 17 -1 38 -5 l37 -9 -27 24 c-31 26 -36 40 -13 32 8 -4 17
-2 20 3 4 6 -5 10 -19 10 -27 0 -37 25 -13 33 14 5 -19 47 -37 47 -6 0 -3 -7
7 -14z"/>
<path d="M2182 1673 c-24 -16 -37 -30 -31 -34 13 -8 0 -18 -38 -28 -16 -4 -27
-15 -30 -29 -4 -29 1 -28 39 8 35 34 50 37 69 13 13 -15 11 -16 -14 -11 -15 3
-30 1 -34 -5 -3 -5 -1 -7 5 -3 6 3 13 2 17 -4 3 -5 1 -10 -6 -10 -7 0 -10 -3
-7 -6 4 -3 18 2 33 12 15 10 41 19 58 21 17 2 36 8 41 13 10 10 -15 7 -46 -5
-11 -4 -18 -3 -18 5 0 6 -4 8 -10 5 -13 -8 -32 4 -25 15 3 5 16 5 31 0 17 -7
31 -6 43 2 15 9 25 8 48 -7 l28 -18 -18 21 c-18 20 -18 20 0 25 10 3 1 5 -20
4 -21 -1 -41 -5 -43 -9 -10 -15 -54 -9 -54 8 0 8 4 13 9 10 5 -3 14 1 20 8 22
26 -6 25 -47 -1z"/>
<path d="M2640 1696 c0 -11 27 -36 38 -36 5 0 20 -8 33 -19 13 -10 41 -23 61
-30 20 -7 42 -18 48 -26 7 -8 15 -13 19 -11 4 3 13 -5 20 -16 12 -19 11 -20
-8 -15 -12 3 -21 1 -21 -4 0 -5 7 -9 16 -9 8 0 13 -4 10 -8 -3 -5 -1 -22 4
-38 5 -18 9 -22 9 -10 1 12 6 16 16 12 9 -3 15 0 15 8 0 10 -7 12 -22 8 -20
-5 -21 -3 -11 10 7 8 9 19 5 23 -4 5 8 -2 25 -14 18 -12 37 -30 43 -39 5 -9
10 -13 10 -8 0 16 -50 76 -64 76 -8 0 -16 7 -20 15 -3 8 -17 20 -31 25 -20 8
-25 15 -20 30 4 11 2 20 -4 20 -6 0 -11 -7 -11 -16 0 -15 -2 -15 -25 0 -13 9
-31 16 -40 16 -8 0 -15 7 -15 15 0 13 4 14 20 5 14 -8 20 -8 20 0 0 6 -12 15
-26 20 -33 13 -34 13 -28 -7 5 -15 3 -15 -10 1 -10 13 -16 15 -16 6 0 -9 -6
-8 -20 5 -11 10 -20 15 -20 11z"/>
<path d="M2758 1693 c12 -3 28 -13 35 -24 15 -24 29 -25 20 -1 -9 23 -23 32
-53 30 -24 -1 -24 -1 -2 -5z"/>
<path d="M2348 1673 c7 -3 16 -2 19 1 4 3 -2 6 -13 5 -11 0 -14 -3 -6 -6z"/>
<path d="M2621 1649 c-5 -13 -5 -25 0 -27 4 -2 5 -10 2 -18 -3 -8 -2 -21 1
-30 5 -13 9 -14 21 -4 12 10 18 10 30 0 9 -7 18 -10 21 -7 3 3 -8 12 -24 21
-24 13 -42 34 -42 51 0 2 7 5 17 7 15 3 15 4 0 17 -15 12 -18 10 -26 -10z"/>
<path d="M1983 1653 c4 -3 1 -13 -6 -22 -11 -14 -10 -14 5 -2 16 12 16 31 1
31 -4 0 -3 -3 0 -7z"/>
<path d="M2770 1651 c0 -6 4 -13 10 -16 6 -3 7 1 4 9 -7 18 -14 21 -14 7z"/>
<path d="M2588 1636 c-17 -12 -17 -14 2 -31 11 -10 20 -13 20 -7 0 7 -5 12
-10 12 -7 0 -7 6 0 20 12 23 11 24 -12 6z"/>
<path d="M2070 1630 c0 -5 5 -10 11 -10 5 0 7 5 4 10 -3 6 -8 10 -11 10 -2 0
-4 -4 -4 -10z"/>
<path d="M2470 1630 c0 -5 5 -10 10 -10 6 0 10 5 10 10 0 6 -4 10 -10 10 -5 0
-10 -4 -10 -10z"/>
<path d="M2667 1616 c-4 -10 4 -17 24 -21 19 -4 29 -12 26 -19 -4 -9 6 -12 34
-11 22 1 42 -2 45 -6 3 -5 11 -9 17 -9 7 0 4 6 -5 14 -10 7 -15 16 -11 20 4 4
0 4 -10 0 -10 -3 -17 -1 -17 5 0 6 -9 11 -19 11 -11 0 -23 5 -26 10 -4 6 -10
8 -15 5 -5 -3 -11 -1 -15 5 -9 14 -22 12 -28 -4z"/>
<path d="M2846 1615 c-3 -9 0 -15 9 -15 16 0 20 16 6 24 -5 3 -11 -1 -15 -9z"/>
<path d="M2978 1623 c6 -2 9 -10 6 -15 -4 -7 -2 -8 4 -4 18 11 14 26 -5 25
-11 0 -13 -3 -5 -6z"/>
<path d="M2510 1605 c9 -11 10 -16 3 -11 -7 4 -13 3 -13 -3 0 -18 17 -21 30
-5 7 8 20 12 29 9 11 -4 13 -3 6 4 -5 5 -23 13 -40 17 -28 7 -29 6 -15 -11z"/>
<path d="M1705 1598 c-132 -4 -487 -11 -790 -17 -694 -14 -915 -22 -915 -33 0
-4 64 -6 143 -4 78 3 324 7 547 10 596 9 904 15 1099 22 158 6 174 5 168 -9
-3 -9 -2 -19 4 -23 15 -9 -9 -34 -27 -27 -7 3 -17 -2 -20 -12 -8 -19 41 -75
65 -76 12 0 11 -3 -4 -10 -17 -8 -17 -9 5 -4 14 2 30 5 35 5 6 0 -9 9 -32 19
-23 11 -46 28 -52 39 -15 28 -14 35 3 29 8 -3 20 1 27 9 9 12 15 12 27 2 12
-10 11 -6 -2 14 -12 18 -16 37 -12 53 4 14 2 25 -4 25 -5 0 -10 -6 -10 -12 0
-8 -3 -9 -8 -3 -4 7 -91 8 -247 3z"/>
<path d="M1987 1596 c-4 -9 4 -13 24 -13 16 0 28 5 26 10 -5 16 -44 18 -50 3z"/>
<path d="M2335 1600 c-4 -6 -10 -8 -15 -5 -13 8 -60 -5 -60 -17 0 -6 8 -7 18
-3 15 7 33 10 70 14 14 1 17 21 3 21 -6 0 -13 -5 -16 -10z"/>
<path d="M2392 1592 c-12 -2 -20 -8 -17 -13 3 -5 0 -6 -8 -3 -8 3 -17 -1 -19
-8 -4 -10 4 -12 33 -10 40 4 58 18 43 31 -5 4 -19 5 -32 3z"/>
<path d="M2583 1576 c0 -21 32 -33 116 -45 41 -5 77 -15 81 -22 6 -8 11 -6 18
7 9 16 6 19 -16 20 -92 4 -166 19 -181 36 -13 14 -18 15 -18 4z"/>
<path d="M2980 1579 c0 -5 5 -7 10 -4 6 3 10 8 10 11 0 2 -4 4 -10 4 -5 0 -10
-5 -10 -11z"/>
<path d="M2063 1570 c5 -17 -17 -42 -28 -32 -4 4 -2 -4 5 -18 16 -31 25 -41
17 -18 -3 10 1 24 9 33 12 11 13 19 4 32 -7 12 -10 13 -7 3z"/>
<path d="M2255 1555 l-40 -13 41 1 c23 1 47 8 53 15 15 15 1 15 -54 -3z"/>
<path d="M1655 1550 l-60 -7 63 -1 c36 -1 62 2 62 8 0 6 -1 9 -2 8 -2 -1 -30
-4 -63 -8z"/>
<path d="M1740 1550 c8 -5 50 -6 93 -4 60 4 82 2 88 -8 7 -10 9 -9 9 5 0 15
-11 17 -102 17 -67 0 -98 -4 -88 -10z"/>
<path d="M2005 1550 c-3 -6 1 -7 9 -4 18 7 21 14 7 14 -6 0 -13 -4 -16 -10z"/>
<path d="M2133 1548 c3 -10 3 -17 -1 -17 -18 3 -30 -2 -35 -15 -5 -11 1 -11
34 2 21 8 39 20 39 25 0 6 -3 7 -7 4 -3 -4 -13 -1 -21 6 -13 10 -15 9 -9 -5z"/>
<path d="M2501 1548 c-1 -10 9 -22 22 -28 19 -9 20 -9 6 2 -9 7 -18 20 -22 28
-4 12 -6 12 -6 -2z"/>
<path d="M740 1540 c0 -6 7 -10 15 -10 8 0 15 2 15 4 0 2 -7 6 -15 10 -8 3
-15 1 -15 -4z"/>
<path d="M850 1540 c0 -5 7 -7 15 -4 8 4 15 8 15 10 0 2 -7 4 -15 4 -8 0 -15
-4 -15 -10z"/>
<path d="M898 1543 c7 -3 16 -2 19 1 4 3 -2 6 -13 5 -11 0 -14 -3 -6 -6z"/>
<path d="M945 1540 c-7 -12 2 -12 30 0 19 8 19 9 -2 9 -12 1 -25 -3 -28 -9z"/>
<path d="M1005 1540 c4 -6 11 -8 16 -5 14 9 11 15 -7 15 -8 0 -12 -5 -9 -10z"/>
<path d="M1050 1540 c19 -12 77 -13 84 -1 3 4 -18 9 -47 9 -37 1 -48 -1 -37
-8z"/>
<path d="M1175 1540 c3 -5 8 -10 11 -10 2 0 4 5 4 10 0 6 -5 10 -11 10 -5 0
-7 -4 -4 -10z"/>
<path d="M1220 1546 c0 -2 9 -6 20 -9 11 -3 18 -1 14 4 -5 9 -34 13 -34 5z"/>
<path d="M1274 1542 c5 -8 66 -4 66 4 0 2 -16 4 -36 4 -19 0 -33 -4 -30 -8z"/>
<path d="M1368 1543 c12 -2 30 -2 40 0 9 3 -1 5 -23 4 -22 0 -30 -2 -17 -4z"/>
<path d="M1448 1543 c12 -2 30 -2 40 0 9 3 -1 5 -23 4 -22 0 -30 -2 -17 -4z"/>
<path d="M1523 1543 c9 -2 25 -2 35 0 9 3 1 5 -18 5 -19 0 -27 -2 -17 -5z"/>
<path d="M2465 1540 c3 -5 10 -10 16 -10 5 0 9 5 9 10 0 6 -7 10 -16 10 -8 0
-12 -4 -9 -10z"/>
<path d="M340 1530 c-12 -7 -10 -9 7 -7 12 0 19 5 17 9 -6 10 -6 10 -24 -2z"/>
<path d="M400 1530 c0 -5 5 -10 10 -10 6 0 10 5 10 10 0 6 -4 10 -10 10 -5 0
-10 -4 -10 -10z"/>
<path d="M458 1533 c18 -2 45 -2 60 0 15 2 0 4 -33 4 -33 0 -45 -2 -27 -4z"/>
<path d="M563 1533 c9 -2 23 -2 30 0 6 3 -1 5 -18 5 -16 0 -22 -2 -12 -5z"/>
<path d="M623 1533 c9 -2 23 -2 30 0 6 3 -1 5 -18 5 -16 0 -22 -2 -12 -5z"/>
<path d="M683 1533 c9 -2 23 -2 30 0 6 3 -1 5 -18 5 -16 0 -22 -2 -12 -5z"/>
<path d="M788 1533 c6 -2 18 -2 25 0 6 3 1 5 -13 5 -14 0 -19 -2 -12 -5z"/>
<path d="M2205 1530 c3 -4 -15 -13 -39 -19 -25 -6 -57 -16 -73 -23 -15 -6 -32
-12 -36 -12 -16 -2 -27 -33 -27 -82 0 -44 -4 -54 -24 -68 -26 -16 -44 -7 -30
16 4 7 3 8 -4 4 -17 -10 -15 -43 3 -50 8 -3 15 -10 15 -16 0 -14 -27 -13 -32
2 -3 9 -6 9 -11 1 -5 -7 2 -17 14 -24 18 -9 25 -9 33 2 6 8 20 14 31 14 14 0
19 6 17 19 -3 16 -1 18 11 8 11 -10 17 -9 27 3 7 9 8 15 2 15 -6 0 -12 -6 -15
-12 -3 -9 -7 -7 -12 5 -5 12 0 26 15 43 13 13 20 24 15 24 -4 0 -16 -10 -27
-22 l-20 -23 8 30 c10 43 36 54 71 32 6 -4 31 -4 55 -1 24 4 62 6 86 5 24 -1
49 2 55 6 6 4 21 8 34 9 20 2 21 0 13 -16 -16 -30 -12 -31 15 -5 31 32 58 32
83 0 11 -14 27 -25 35 -25 9 0 19 -4 22 -10 10 -16 35 -12 29 5 -4 8 -18 15
-33 15 -20 0 -31 7 -39 26 -7 14 -8 23 -2 19 5 -3 10 -1 10 5 0 8 -22 11 -75
7 -42 -2 -78 -1 -81 4 -3 5 -13 5 -23 0 -10 -6 -31 -12 -47 -15 -36 -7 -194
-10 -200 -3 -18 18 45 66 90 68 12 0 39 8 61 18 35 16 37 18 17 23 -12 4 -20
3 -17 -2z m-165 -209 c0 -13 -26 -32 -33 -24 -11 10 -8 25 3 18 6 -3 10 -1 10
4 0 6 5 11 10 11 6 0 10 -4 10 -9z"/>
<path d="M2546 1525 c4 -8 8 -15 10 -15 2 0 4 7 4 15 0 8 -4 15 -10 15 -5 0
-7 -7 -4 -15z"/>
<path d="M98 1523 c7 -3 16 -2 19 1 4 3 -2 6 -13 5 -11 0 -14 -3 -6 -6z"/>
<path d="M148 1523 c7 -3 16 -2 19 1 4 3 -2 6 -13 5 -11 0 -14 -3 -6 -6z"/>
<path d="M2400 1526 c0 -2 9 -6 20 -9 11 -3 18 -1 14 4 -5 9 -34 13 -34 5z"/>
<path d="M2454 1511 c5 -8 -21 -26 -35 -23 -3 0 -6 -6 -6 -14 0 -18 3 -18 27
6 12 12 26 18 33 13 7 -4 7 0 -2 10 -14 18 -26 23 -17 8z"/>
<path d="M2007 1503 c-4 -3 -7 -18 -7 -32 0 -24 1 -24 14 -5 8 10 10 21 5 22
-5 2 -7 8 -3 13 6 10 0 12 -9 2z"/>
<path d="M2815 1491 c2 -9 4 -18 4 -21 2 -6 21 23 21 31 0 3 -6 6 -14 6 -7 0
-12 -7 -11 -16z"/>
<path d="M107 1479 c7 -7 15 -10 18 -7 3 3 -2 9 -12 12 -14 6 -15 5 -6 -5z"/>
<path d="M448 1483 c7 -3 16 -2 19 1 4 3 -2 6 -13 5 -11 0 -14 -3 -6 -6z"/>
<path d="M570 1480 c0 -5 7 -7 15 -4 8 4 15 8 15 10 0 2 -7 4 -15 4 -8 0 -15
-4 -15 -10z"/>
<path d="M655 1480 c-3 -5 -1 -10 4 -10 6 0 11 5 11 10 0 6 -2 10 -4 10 -3 0
-8 -4 -11 -10z"/>
<path d="M2907 1476 c-6 -15 1 -26 15 -26 11 0 10 27 -1 34 -5 3 -11 0 -14 -8z"/>
<path d="M2281 1476 c2 -2 18 -6 34 -10 22 -5 26 -4 15 4 -14 9 -59 15 -49 6z"/>
<path d="M2357 1469 c7 -7 15 -10 18 -7 3 3 -2 9 -12 12 -14 6 -15 5 -6 -5z"/>
<path d="M2777 1473 c-4 -3 -7 -11 -7 -17 0 -6 5 -5 12 2 6 6 9 14 7 17 -3 3
-9 2 -12 -2z"/>
<path d="M2832 1465 c-11 -12 -10 -15 3 -15 8 0 15 7 15 15 0 18 -2 18 -18 0z"/>
<path d="M2566 1444 c-29 -11 -41 -12 -46 -3 -5 8 -10 8 -14 1 -12 -20 27 -31
54 -16 14 7 33 13 43 14 9 0 17 5 17 10 0 12 -4 12 -54 -6z"/>
<path d="M1215 1440 c28 -12 37 -12 30 0 -3 6 -16 10 -28 9 -21 0 -21 -1 -2
-9z"/>
<path d="M1651 1434 c0 -11 3 -14 6 -6 3 7 2 16 -1 19 -3 4 -6 -2 -5 -13z"/>
<path d="M80 1430 c-9 -6 -10 -10 -3 -10 6 0 15 5 18 10 8 12 4 12 -15 0z"/>
<path d="M1699 1431 c12 -8 51 -4 51 5 0 2 -15 4 -32 4 -23 0 -29 -3 -19 -9z"/>
<path d="M2780 1430 c0 -5 5 -10 10 -10 6 0 10 -5 10 -10 0 -7 -7 -7 -21 1
-15 8 -19 8 -15 0 4 -6 2 -11 -4 -11 -6 0 -8 -4 -5 -10 3 -5 11 -10 16 -10 6
0 7 5 4 10 -3 6 -2 10 4 10 5 0 13 -4 16 -10 3 -5 17 -10 31 -10 13 0 24 -4
24 -10 0 -5 5 -10 10 -10 21 0 8 19 -20 29 -16 5 -30 12 -30 15 0 3 12 1 26
-4 35 -14 42 -12 20 5 -11 8 -28 15 -38 15 -10 0 -18 5 -18 10 0 6 -4 10 -10
10 -5 0 -10 -4 -10 -10z"/>
<path d="M2855 1429 c-4 -6 3 -9 19 -7 34 5 40 13 11 16 -13 1 -27 -3 -30 -9z"/>
<path d="M256 1413 c-6 -14 -5 -15 5 -6 7 7 10 15 7 18 -3 3 -9 -2 -12 -12z"/>
<path d="M1778 1423 c12 -2 30 -2 40 0 9 3 -1 5 -23 4 -22 0 -30 -2 -17 -4z"/>
<path d="M616 1412 c-3 -5 1 -9 9 -9 8 0 12 4 9 9 -3 4 -7 8 -9 8 -2 0 -6 -4
-9 -8z"/>
<path d="M1918 1392 c-14 -23 -15 -32 -5 -52 7 -13 19 -26 27 -28 11 -4 10 0
-4 16 -19 22 -16 72 4 72 6 0 10 5 10 10 0 19 -16 10 -32 -18z"/>
<path d="M125 1400 c-19 -8 -19 -9 3 -9 12 -1 22 4 22 9 0 6 -1 10 -2 9 -2 0
-12 -4 -23 -9z"/>
<path d="M328 1403 c7 -3 16 -2 19 1 4 3 -2 6 -13 5 -11 0 -14 -3 -6 -6z"/>
<path d="M1730 1406 c0 -2 7 -7 16 -10 8 -3 12 -2 9 4 -6 10 -25 14 -25 6z"/>
<path d="M2985 1399 c-4 -6 -5 -12 -2 -15 2 -3 7 2 10 11 7 17 1 20 -8 4z"/>
<path d="M1964 1388 c-7 -10 20 -38 38 -38 18 0 7 18 -14 24 -19 5 -21 8 -8
16 9 6 10 10 3 10 -6 0 -15 -5 -19 -12z"/>
<path d="M2386 1391 c-4 -5 -3 -17 0 -26 4 -10 2 -15 -7 -13 -9 2 -13 -5 -12
-18 2 -21 -39 -50 -56 -40 -4 3 -8 -5 -8 -17 -2 -16 0 -18 6 -8 5 7 14 10 20
7 6 -4 11 -2 11 3 0 6 7 11 17 11 15 0 15 -1 0 -18 -10 -10 -14 -21 -11 -25 3
-3 -3 -10 -15 -16 -16 -9 -22 -8 -30 6 -5 10 -13 15 -16 11 -15 -15 21 -35 53
-30 20 2 32 0 32 -7 0 -6 -9 -11 -19 -11 -11 0 -22 -4 -26 -9 -5 -9 142 -13
157 -5 4 3 5 11 2 18 -4 10 -20 13 -55 10 -41 -2 -51 0 -60 17 -6 12 -8 23 -5
27 3 3 6 0 6 -7 0 -7 5 -9 11 -5 6 3 9 15 6 25 -3 11 -2 17 2 14 5 -2 16 2 26
9 22 16 76 0 68 -21 -3 -7 0 -13 5 -13 26 0 43 -32 36 -68 -10 -53 -24 -78
-35 -61 -5 9 -3 17 7 22 8 5 13 20 12 37 -2 33 -12 31 -13 -3 0 -16 -6 -22
-22 -21 -12 0 -19 -4 -16 -9 4 -6 -5 -8 -23 -4 -37 7 -206 -22 -198 -35 3 -5
-2 -16 -12 -24 -14 -11 -10 -11 16 2 19 9 63 23 99 30 73 15 93 7 96 -38 1
-13 5 -37 9 -55 7 -29 4 -33 -23 -47 -16 -9 -40 -30 -52 -48 -13 -18 -31 -42
-41 -52 -20 -22 -24 -81 -6 -92 8 -5 9 2 5 25 -4 20 -3 30 3 26 5 -3 7 0 5 7
-3 7 17 36 45 63 50 48 52 49 66 30 26 -37 56 -65 64 -60 9 6 21 -20 16 -37
-1 -7 -1 -9 2 -5 2 5 15 -2 28 -14 26 -25 34 -10 8 15 -14 15 -14 16 0 16 9 0
16 -5 16 -10 0 -16 42 -29 64 -20 15 5 20 18 22 51 1 24 0 47 -3 52 -2 4 -20
-6 -39 -23 -40 -35 -46 -36 -99 -11 -28 14 -34 20 -20 20 12 1 26 -4 33 -11 9
-9 12 -9 12 0 0 7 -21 18 -46 24 -56 15 -72 38 -43 64 21 18 21 18 40 -5 20
-24 23 -20 10 14 -5 12 -17 20 -32 20 -14 0 -24 6 -24 15 0 8 -4 21 -9 28 -5
8 -1 21 9 32 17 19 17 20 -6 29 -19 8 -20 10 -6 10 10 1 26 -6 35 -15 15 -15
14 -18 -3 -30 -10 -8 -13 -14 -6 -14 6 0 26 23 43 51 l32 50 19 -23 c36 -45
57 -83 57 -105 0 -13 5 -23 10 -23 6 0 10 -7 10 -16 0 -20 84 -104 104 -104 7
0 21 -10 29 -22 12 -17 16 -19 16 -7 1 9 -8 24 -19 34 -11 10 -20 16 -20 13 0
-3 -16 10 -36 28 -19 19 -40 34 -46 34 -6 0 -8 13 -6 30 3 23 -2 38 -24 62
-15 17 -26 33 -25 35 2 1 22 -4 45 -13 40 -16 138 -12 128 5 -3 4 -24 5 -48 1
-48 -7 -104 16 -127 53 -12 18 -11 22 5 34 16 12 16 13 1 13 -9 0 -17 -5 -17
-11 0 -6 -7 -8 -17 -5 -15 6 -16 5 -1 -11 9 -10 19 -29 22 -43 l7 -25 -20 25
c-27 32 -65 109 -58 116 3 3 13 2 22 -3 22 -13 105 6 105 24 0 7 -4 13 -10 13
-5 0 -10 -5 -10 -11 0 -7 -7 -8 -17 -4 -10 4 -31 9 -48 11 -61 6 -110 28 -100
45 4 5 1 8 -7 7 -7 -2 -17 11 -22 30 -8 24 -16 32 -32 32 -13 0 -25 -4 -28 -9z
m25 -23 c1 -7 1 -16 0 -20 -2 -13 17 -9 22 5 3 6 4 2 4 -10 -1 -15 -8 -23 -20
-23 -12 0 -17 6 -15 18 1 9 -1 23 -5 30 -5 7 -4 12 2 12 6 0 12 -6 12 -12z
m-26 -28 c3 -5 1 -10 -4 -10 -6 0 -11 5 -11 10 0 6 2 10 4 10 3 0 8 -4 11 -10z
m146 -73 c-13 -13 -26 -3 -16 12 3 6 11 8 17 5 6 -4 6 -10 -1 -17z m59 -3 c0
-2 -9 -4 -21 -4 -11 0 -18 4 -14 10 5 8 35 3 35 -6z m-153 -70 c-3 -3 -12 -4
-19 -1 -8 3 -5 6 6 6 11 1 17 -2 13 -5z m208 -314 c3 -6 -1 -7 -9 -4 -18 7
-21 14 -7 14 6 0 13 -4 16 -10z m-21 -16 c9 -3 16 -10 16 -15 0 -7 -18 -7 -48
0 -4 1 8 21 13 21 2 0 10 -3 19 -6z"/>
<path d="M2885 1391 c-3 -5 -1 -12 5 -16 17 -10 11 -21 -12 -22 -24 -2 -69
-53 -60 -67 3 -5 11 -52 17 -105 7 -53 13 -84 14 -69 1 24 25 49 42 45 3 -1
23 12 45 30 37 30 38 31 11 26 -15 -3 -32 -13 -37 -23 -12 -23 -47 -32 -54
-13 -3 8 -1 11 4 8 6 -4 10 7 10 25 0 18 4 29 10 25 6 -3 10 -1 10 4 0 6 7 11
15 11 23 0 18 28 -9 45 -17 11 -22 22 -18 37 4 18 6 19 17 5 10 -14 12 -14 23
3 10 16 8 22 -8 33 -11 8 -17 17 -13 20 3 4 4 7 0 7 -3 0 -8 -4 -12 -9z m1
-112 c4 -8 -1 -9 -17 -4 -22 7 -23 7 -9 -11 14 -18 14 -18 -2 -5 -10 7 -18 22
-18 33 0 15 3 17 19 8 11 -5 23 -15 27 -21z"/>
<path d="M2598 1383 c6 -2 18 -2 25 0 6 3 1 5 -13 5 -14 0 -19 -2 -12 -5z"/>
<path d="M2648 1383 c7 -3 16 -2 19 1 4 3 -2 6 -13 5 -11 0 -14 -3 -6 -6z"/>
<path d="M2170 1360 c29 -23 36 -24 46 -8 4 6 3 8 -4 4 -6 -3 -16 -1 -24 6 -7
7 -20 14 -28 16 -8 1 -4 -7 10 -18z"/>
<path d="M88 1363 c6 -2 18 -2 25 0 6 3 1 5 -13 5 -14 0 -19 -2 -12 -5z"/>
<path d="M600 1360 c0 -5 7 -7 15 -4 8 4 15 8 15 10 0 2 -7 4 -15 4 -8 0 -15
-4 -15 -10z"/>
<path d="M2795 1359 c-4 -6 -13 -8 -19 -6 -18 7 -41 -8 -27 -17 6 -4 11 -3 11
2 0 5 11 8 25 7 16 -2 25 2 25 11 0 17 -6 18 -15 3z"/>
<path d="M1438 1353 c7 -3 16 -2 19 1 4 3 -2 6 -13 5 -11 0 -14 -3 -6 -6z"/>
<path d="M2335 1350 c-3 -5 -1 -10 4 -10 6 0 11 5 11 10 0 6 -2 10 -4 10 -3 0
-8 -4 -11 -10z"/>
<path d="M2640 1351 c-23 -7 -22 -8 13 -15 21 -4 41 -14 44 -22 4 -11 9 -12
19 -3 8 6 14 17 14 23 0 7 -3 6 -8 -2 -7 -10 -14 -10 -35 1 -15 8 -24 17 -20
20 7 8 8 8 -27 -2z"/>
<path d="M1818 1343 c7 -3 16 -2 19 1 4 3 -2 6 -13 5 -11 0 -14 -3 -6 -6z"/>
<path d="M1733 1333 c9 -2 23 -2 30 0 6 3 -1 5 -18 5 -16 0 -22 -2 -12 -5z"/>
<path d="M2293 1323 c0 -7 4 -13 8 -13 4 0 9 6 12 13 3 8 0 14 -7 14 -7 0 -13
-6 -13 -14z"/>
<path d="M2560 1335 c0 -5 5 -17 10 -25 5 -8 10 -10 10 -5 0 6 -5 17 -10 25
-5 8 -10 11 -10 5z"/>
<path d="M1800 1326 c0 -2 9 -6 20 -9 11 -3 20 -1 20 4 0 5 -9 9 -20 9 -11 0
-20 -2 -20 -4z"/>
<path d="M1068 1313 c7 -3 16 -2 19 1 4 3 -2 6 -13 5 -11 0 -14 -3 -6 -6z"/>
<path d="M1888 1313 c7 -3 16 -2 19 1 4 3 -2 6 -13 5 -11 0 -14 -3 -6 -6z"/>
<path d="M2670 1310 c0 -5 5 -10 10 -10 6 0 10 5 10 10 0 6 -4 10 -10 10 -5 0
-10 -4 -10 -10z"/>
<path d="M2770 1310 c0 -13 18 -22 24 -11 3 5 -1 11 -9 15 -8 3 -15 1 -15 -4z"/>
<path d="M1678 1303 c7 -3 16 -2 19 1 4 3 -2 6 -13 5 -11 0 -14 -3 -6 -6z"/>
<path d="M2110 1300 c0 -5 5 -10 11 -10 5 0 7 5 4 10 -3 6 -8 10 -11 10 -2 0
-4 -4 -4 -10z"/>
<path d="M2150 1303 c0 -6 7 -13 15 -17 21 -8 19 -27 -2 -20 -15 5 -15 4 -3
-4 8 -6 32 -10 55 -10 32 1 36 3 20 9 -16 8 -15 8 6 4 31 -6 60 19 34 29 -9 3
-13 2 -10 -4 3 -6 -3 -10 -15 -10 -12 0 -31 -5 -43 -12 -21 -11 -21 -10 -7 7
10 13 11 16 2 11 -8 -5 -21 -1 -33 10 -10 9 -19 12 -19 7z"/>
<path d="M2925 1301 c-3 -5 -1 -12 5 -16 5 -3 10 1 10 9 0 18 -6 21 -15 7z"/>
<path d="M560 1280 c0 -5 5 -10 11 -10 5 0 7 5 4 10 -3 6 -8 10 -11 10 -2 0
-4 -4 -4 -10z"/>
<path d="M1478 1283 c7 -3 16 -2 19 1 4 3 -2 6 -13 5 -11 0 -14 -3 -6 -6z"/>
<path d="M1796 1281 c-4 -5 3 -7 14 -4 23 6 26 13 6 13 -8 0 -17 -4 -20 -9z"/>
<path d="M2673 1268 c-2 -15 1 -16 18 -5 24 15 25 26 1 24 -10 0 -19 -9 -19
-19z"/>
<path d="M2950 1276 c0 -11 -8 -29 -17 -40 -12 -14 -9 -13 10 4 16 14 31 24
34 22 2 -2 8 0 11 4 4 4 2 4 -5 0 -6 -3 -16 2 -22 11 -10 17 -10 17 -11 -1z"/>
<path d="M1257 1269 c7 -7 15 -10 18 -7 3 3 -2 9 -12 12 -14 6 -15 5 -6 -5z"/>
<path d="M2100 1265 c7 -8 19 -15 26 -15 17 0 19 -27 3 -32 -7 -2 -12 -39 -14
-96 -1 -60 1 -92 8 -89 6 2 12 12 13 23 2 10 12 26 24 34 12 8 42 34 66 58 25
23 52 42 61 42 12 0 13 3 3 15 -10 13 -15 12 -36 -3 -13 -9 -24 -21 -24 -25
-1 -22 -100 -100 -100 -79 0 6 4 22 10 36 5 14 12 45 15 70 5 42 3 46 -20 52
-14 3 -25 10 -25 15 0 5 -5 9 -11 9 -8 0 -8 -5 1 -15z"/>
<path d="M600 1260 c-13 -8 -12 -10 3 -10 9 0 17 5 17 10 0 12 -1 12 -20 0z"/>
<path d="M698 1263 c7 -3 16 -2 19 1 4 3 -2 6 -13 5 -11 0 -14 -3 -6 -6z"/>
<path d="M1568 1263 c7 -3 16 -2 19 1 4 3 -2 6 -13 5 -11 0 -14 -3 -6 -6z"/>
<path d="M2042 1260 c-21 -9 -22 -10 -5 -30 22 -25 22 -25 16 0 -3 11 0 20 6
20 6 0 11 -4 11 -9 0 -6 9 -9 20 -8 18 1 18 2 3 19 -18 20 -19 20 -51 8z"/>
<path d="M2740 1254 c0 -8 5 -14 11 -14 6 0 8 -7 5 -16 -3 -9 -2 -12 5 -9 6 4
8 13 5 21 -3 8 -1 14 4 14 6 0 10 -5 10 -11 0 -6 6 -9 14 -6 8 3 17 1 20 -6 2
-7 5 -7 5 -2 1 22 -19 39 -48 41 -21 1 -31 -3 -31 -12z"/>
<path d="M218 1243 c7 -3 16 -2 19 1 4 3 -2 6 -13 5 -11 0 -14 -3 -6 -6z"/>
<path d="M425 1240 c3 -5 8 -10 11 -10 2 0 4 5 4 10 0 6 -5 10 -11 10 -5 0 -7
-4 -4 -10z"/>
<path d="M868 1243 c7 -3 16 -2 19 1 4 3 -2 6 -13 5 -11 0 -14 -3 -6 -6z"/>
<path d="M1558 1243 c7 -3 16 -2 19 1 4 3 -2 6 -13 5 -11 0 -14 -3 -6 -6z"/>
<path d="M1183 1233 c9 -2 23 -2 30 0 6 3 -1 5 -18 5 -16 0 -22 -2 -12 -5z"/>
<path d="M1238 1233 c6 -2 18 -2 25 0 6 3 1 5 -13 5 -14 0 -19 -2 -12 -5z"/>
<path d="M1838 1233 c7 -3 16 -2 19 1 4 3 -2 6 -13 5 -11 0 -14 -3 -6 -6z"/>
<path d="M1939 1223 c-11 -15 -11 -16 1 -5 27 24 39 15 28 -23 -14 -42 1 -65
42 -65 16 0 31 -6 33 -12 4 -10 6 -10 6 -1 1 13 -48 63 -61 63 -12 0 -10 38 2
45 6 3 10 1 10 -4 0 -6 7 -11 16 -11 14 0 14 3 4 15 -17 20 -65 19 -81 -2z"/>
<path d="M2205 1230 c-3 -5 -1 -10 4 -10 6 0 11 5 11 10 0 6 -2 10 -4 10 -3 0
-8 -4 -11 -10z"/>
<path d="M275 1220 c-3 -6 1 -7 9 -4 18 7 21 14 7 14 -6 0 -13 -4 -16 -10z"/>
<path d="M530 1220 c0 -5 5 -10 10 -10 6 0 10 5 10 10 0 6 -4 10 -10 10 -5 0
-10 -4 -10 -10z"/>
<path d="M825 1220 c4 -6 11 -8 16 -5 14 9 11 15 -7 15 -8 0 -12 -5 -9 -10z"/>
<path d="M1088 1223 c6 -2 18 -2 25 0 6 3 1 5 -13 5 -14 0 -19 -2 -12 -5z"/>
<path d="M2646 1221 c-4 -7 -5 -15 -2 -18 9 -9 19 4 14 18 -4 11 -6 11 -12 0z"/>
<path d="M2685 1221 c-6 -11 42 -27 52 -17 8 8 3 12 -24 20 -12 4 -24 2 -28
-3z"/>
<path d="M728 1213 c7 -3 16 -2 19 1 4 3 -2 6 -13 5 -11 0 -14 -3 -6 -6z"/>
<path d="M1168 1213 c7 -3 16 -2 19 1 4 3 -2 6 -13 5 -11 0 -14 -3 -6 -6z"/>
<path d="M1385 1210 c-3 -6 1 -7 9 -4 18 7 21 14 7 14 -6 0 -13 -4 -16 -10z"/>
<path d="M1668 1213 c12 -2 30 -2 40 0 9 3 -1 5 -23 4 -22 0 -30 -2 -17 -4z"/>
<path d="M2070 1212 c0 -7 4 -12 10 -12 5 0 7 -7 3 -16 -3 -8 -12 -13 -19 -10
-8 3 -14 -1 -14 -8 0 -12 6 -12 30 -3 35 13 36 18 10 42 -11 10 -20 13 -20 7z"/>
<path d="M300 1200 l-35 -7 37 -2 c20 0 40 4 43 9 7 11 7 11 -45 0z"/>
<path d="M428 1203 c6 -2 18 -2 25 0 6 3 1 5 -13 5 -14 0 -19 -2 -12 -5z"/>
<path d="M776 1198 c3 -5 10 -6 15 -3 13 9 11 12 -6 12 -8 0 -12 -4 -9 -9z"/>
<path d="M938 1193 c6 -2 18 -2 25 0 6 3 1 5 -13 5 -14 0 -19 -2 -12 -5z"/>
<path d="M998 1193 c7 -3 16 -2 19 1 4 3 -2 6 -13 5 -11 0 -14 -3 -6 -6z"/>
<path d="M1070 1191 c0 -8 41 -23 47 -17 2 1 -8 8 -22 14 -14 6 -25 8 -25 3z"/>
<path d="M1300 1190 c0 -5 5 -10 11 -10 5 0 7 5 4 10 -3 6 -8 10 -11 10 -2 0
-4 -4 -4 -10z"/>
<path d="M1593 1193 c9 -2 25 -2 35 0 9 3 1 5 -18 5 -19 0 -27 -2 -17 -5z"/>
<path d="M2980 1190 c-13 -8 -12 -10 3 -10 9 0 17 5 17 10 0 12 -1 12 -20 0z"/>
<path d="M85 1180 c-19 -8 -19 -9 3 -9 12 -1 22 4 22 9 0 6 -1 10 -2 9 -2 0
-12 -4 -23 -9z"/>
<path d="M228 1183 c7 -3 16 -2 19 1 4 3 -2 6 -13 5 -11 0 -14 -3 -6 -6z"/>
<path d="M398 1183 c7 -3 16 -2 19 1 4 3 -2 6 -13 5 -11 0 -14 -3 -6 -6z"/>
<path d="M2653 1176 c-25 -12 -30 -25 -10 -27 6 -1 22 -3 34 -4 12 -1 20 2 17
6 -3 5 2 9 11 9 10 0 13 -5 9 -12 -4 -7 3 -4 16 7 13 11 20 15 16 8 -4 -8 2
-11 21 -10 22 2 29 -3 31 -20 2 -12 9 -27 17 -33 11 -9 11 -4 1 31 -7 25 -21
46 -32 50 -28 11 -105 8 -131 -5z"/>
<path d="M345 1170 c-16 -7 -17 -9 -3 -9 9 -1 20 4 23 9 7 11 7 11 -20 0z"/>
<path d="M485 1170 c-3 -6 1 -7 9 -4 18 7 21 14 7 14 -6 0 -13 -4 -16 -10z"/>
<path d="M558 1173 c7 -3 16 -2 19 1 4 3 -2 6 -13 5 -11 0 -14 -3 -6 -6z"/>
<path d="M798 1173 c7 -3 16 -2 19 1 4 3 -2 6 -13 5 -11 0 -14 -3 -6 -6z"/>
<path d="M1338 1173 c6 -2 18 -2 25 0 6 3 1 5 -13 5 -14 0 -19 -2 -12 -5z"/>
<path d="M1668 1173 c6 -2 18 -2 25 0 6 3 1 5 -13 5 -14 0 -19 -2 -12 -5z"/>
<path d="M1728 1173 c7 -3 16 -2 19 1 4 3 -2 6 -13 5 -11 0 -14 -3 -6 -6z"/>
<path d="M685 1160 c27 -12 43 -12 25 0 -8 5 -22 9 -30 9 -10 0 -8 -3 5 -9z"/>
<path d="M968 1163 c6 -2 18 -2 25 0 6 3 1 5 -13 5 -14 0 -19 -2 -12 -5z"/>
<path d="M1298 1163 c7 -3 16 -2 19 1 4 3 -2 6 -13 5 -11 0 -14 -3 -6 -6z"/>
<path d="M1495 1160 c4 -6 11 -8 16 -5 14 9 11 15 -7 15 -8 0 -12 -5 -9 -10z"/>
<path d="M1770 1149 c0 -5 5 -7 10 -4 6 3 10 8 10 11 0 2 -4 4 -10 4 -5 0 -10
-5 -10 -11z"/>
<path d="M5 1140 c-3 -5 0 -7 8 -4 8 3 18 1 22 -5 8 -14 25 -14 25 0 0 5 -4 8
-9 4 -5 -3 -12 -1 -16 5 -8 13 -22 13 -30 0z"/>
<path d="M188 1143 c7 -3 16 -2 19 1 4 3 -2 6 -13 5 -11 0 -14 -3 -6 -6z"/>
<path d="M285 1140 c-13 -6 -15 -9 -5 -9 8 0 22 4 30 9 18 12 2 12 -25 0z"/>
<path d="M560 1140 c8 -5 20 -10 25 -10 6 0 3 5 -5 10 -8 5 -19 10 -25 10 -5
0 -3 -5 5 -10z"/>
<path d="M1228 1143 c7 -3 16 -2 19 1 4 3 -2 6 -13 5 -11 0 -14 -3 -6 -6z"/>
<path d="M1638 1143 c7 -3 16 -2 19 1 4 3 -2 6 -13 5 -11 0 -14 -3 -6 -6z"/>
<path d="M438 1133 c7 -3 16 -2 19 1 4 3 -2 6 -13 5 -11 0 -14 -3 -6 -6z"/>
<path d="M798 1133 c6 -2 18 -2 25 0 6 3 1 5 -13 5 -14 0 -19 -2 -12 -5z"/>
<path d="M1278 1133 c6 -2 18 -2 25 0 6 3 1 5 -13 5 -14 0 -19 -2 -12 -5z"/>
<path d="M1470 1130 c-13 -8 -12 -10 3 -10 9 0 17 5 17 10 0 12 -1 12 -20 0z"/>
<path d="M1888 1133 c6 -2 18 -2 25 0 6 3 1 5 -13 5 -14 0 -19 -2 -12 -5z"/>
<path d="M106 1122 c-2 -4 4 -8 14 -8 10 0 16 4 14 8 -3 4 -9 8 -14 8 -5 0
-11 -4 -14 -8z"/>
<path d="M315 1120 c-3 -5 -2 -10 4 -10 5 0 13 5 16 10 3 6 2 10 -4 10 -5 0
-13 -4 -16 -10z"/>
<path d="M398 1123 c7 -3 16 -2 19 1 4 3 -2 6 -13 5 -11 0 -14 -3 -6 -6z"/>
<path d="M460 1120 c-9 -6 -10 -10 -3 -10 6 0 15 5 18 10 8 12 4 12 -15 0z"/>
<path d="M650 1121 c0 -5 12 -8 26 -8 18 0 22 2 13 8 -18 11 -39 11 -39 0z"/>
<path d="M848 1123 c6 -2 18 -2 25 0 6 3 1 5 -13 5 -14 0 -19 -2 -12 -5z"/>
<path d="M938 1123 c7 -3 16 -2 19 1 4 3 -2 6 -13 5 -11 0 -14 -3 -6 -6z"/>
<path d="M1510 1122 c23 -14 77 -25 65 -14 -5 6 -26 13 -45 16 -23 5 -30 4
-20 -2z"/>
<path d="M1885 1110 l-40 -7 37 -2 c20 0 40 4 43 9 3 6 5 9 3 9 -2 -1 -21 -5
-43 -9z"/>
<path d="M2001 1115 c-1 -13 19 -35 31 -35 4 0 8 5 8 10 0 6 -6 10 -14 10 -8
0 -17 6 -19 13 -3 6 -6 7 -6 2z"/>
<path d="M2066 1091 l-28 -29 21 -21 c12 -12 26 -19 32 -15 6 3 3 11 -8 20
-10 7 -13 14 -7 14 11 0 29 48 21 56 -2 2 -16 -9 -31 -25z"/>
<path d="M151 1107 c2 -1 13 -9 23 -17 11 -8 17 -10 13 -3 -4 6 -1 14 5 16 7
3 0 6 -16 6 -16 1 -27 0 -25 -2z"/>
<path d="M346 1102 c-4 -6 3 -8 16 -5 21 4 22 3 6 -10 -16 -13 -16 -15 9 -26
20 -9 29 -9 37 0 8 9 8 10 -1 5 -6 -3 -19 -3 -29 1 -14 5 -11 9 17 19 23 8 27
13 14 13 -11 1 -30 4 -41 7 -12 3 -25 1 -28 -4z"/>
<path d="M1040 1100 c-9 -6 -10 -10 -3 -10 6 0 15 5 18 10 8 12 4 12 -15 0z"/>
<path d="M1488 1103 c7 -3 16 -2 19 1 4 3 -2 6 -13 5 -11 0 -14 -3 -6 -6z"/>
<path d="M2337 1100 c-37 -4 -73 -12 -79 -18 -9 -9 -8 -12 3 -12 8 0 20 5 26
11 7 7 20 8 34 3 32 -11 71 -5 89 12 8 8 10 13 5 13 -6 -1 -41 -5 -78 -9z"/>
<path d="M2537 1089 c4 -13 8 -18 11 -10 2 7 -1 18 -6 23 -8 8 -9 4 -5 -13z"/>
<path d="M45 1090 c-25 -11 1 -11 35 0 20 6 21 8 5 8 -11 0 -29 -3 -40 -8z"/>
<path d="M507 1093 c-13 -12 -7 -23 11 -22 10 0 12 3 4 6 -6 2 -10 9 -6 14 6
10 0 12 -9 2z"/>
<path d="M753 1085 c-3 -9 -3 -18 -1 -21 3 -3 8 4 11 16 6 23 -1 27 -10 5z"/>
<path d="M1160 1096 c0 -2 7 -7 16 -10 8 -3 12 -2 9 4 -6 10 -25 14 -25 6z"/>
<path d="M1318 1093 c7 -3 16 -2 19 1 4 3 -2 6 -13 5 -11 0 -14 -3 -6 -6z"/>
<path d="M1388 1093 c7 -3 16 -2 19 1 4 3 -2 6 -13 5 -11 0 -14 -3 -6 -6z"/>
<path d="M2978 1093 c7 -3 16 -2 19 1 4 3 -2 6 -13 5 -11 0 -14 -3 -6 -6z"/>
<path d="M218 1083 c7 -3 16 -2 19 1 4 3 -2 6 -13 5 -11 0 -14 -3 -6 -6z"/>
<path d="M1010 1080 c8 -5 20 -10 25 -10 6 0 3 5 -5 10 -8 5 -19 10 -25 10 -5
0 -3 -5 5 -10z"/>
<path d="M1097 1079 c7 -7 15 -10 18 -7 3 3 -2 9 -12 12 -14 6 -15 5 -6 -5z"/>
<path d="M1753 1082 c-9 -6 -7 -11 6 -19 16 -10 18 -9 14 8 -3 10 -6 19 -7 19
0 0 -6 -4 -13 -8z"/>
<path d="M263 1073 c9 -2 23 -2 30 0 6 3 -1 5 -18 5 -16 0 -22 -2 -12 -5z"/>
<path d="M1690 1076 c0 -2 7 -7 16 -10 8 -3 12 -2 9 4 -6 10 -25 14 -25 6z"/>
<path d="M2407 1067 c-4 -10 -7 -26 -7 -35 1 -15 2 -15 11 1 6 10 9 25 7 35
-3 16 -4 15 -11 -1z"/>
<path d="M2841 1073 c0 -4 4 -17 9 -28 8 -19 9 -19 9 2 1 12 -3 25 -9 28 -5 3
-10 3 -9 -2z"/>
<path d="M965 1060 c-3 -5 -2 -10 4 -10 5 0 13 5 16 10 3 6 2 10 -4 10 -5 0
-13 -4 -16 -10z"/>
<path d="M1548 1063 c7 -3 16 -2 19 1 4 3 -2 6 -13 5 -11 0 -14 -3 -6 -6z"/>
<path d="M2945 1060 c28 -12 47 -12 40 0 -3 6 -18 10 -33 9 -24 0 -25 -1 -7
-9z"/>
<path d="M297 1054 c7 -3 9 -13 6 -22 -3 -11 -2 -13 4 -6 4 6 18 10 31 9 12
-1 22 3 22 8 0 5 -9 7 -20 4 -11 -3 -23 -1 -26 4 -3 5 -11 9 -17 8 -9 0 -9 -2
0 -5z"/>
<path d="M708 1053 c7 -3 16 -2 19 1 4 3 -2 6 -13 5 -11 0 -14 -3 -6 -6z"/>
<path d="M1580 1050 c0 -5 5 -10 11 -10 5 0 7 5 4 10 -3 6 -8 10 -11 10 -2 0
-4 -4 -4 -10z"/>
<path d="M1610 1053 c0 -5 14 -8 31 -9 20 -1 26 2 17 7 -16 11 -48 12 -48 2z"/>
<path d="M1960 1050 c0 -5 5 -10 11 -10 5 0 7 5 4 10 -3 6 -8 10 -11 10 -2 0
-4 -4 -4 -10z"/>
<path d="M2547 1049 c7 -7 15 -10 18 -7 3 3 -2 9 -12 12 -14 6 -15 5 -6 -5z"/>
<path d="M70 1046 c0 -2 7 -7 16 -10 8 -3 12 -2 9 4 -6 10 -25 14 -25 6z"/>
<path d="M530 1039 c0 -5 5 -7 10 -4 6 3 10 8 10 11 0 2 -4 4 -10 4 -5 0 -10
-5 -10 -11z"/>
<path d="M1130 1040 c0 -5 5 -10 10 -10 6 0 10 5 10 10 0 6 -4 10 -10 10 -5 0
-10 -4 -10 -10z"/>
<path d="M1928 1043 c7 -3 16 -2 19 1 4 3 -2 6 -13 5 -11 0 -14 -3 -6 -6z"/>
<path d="M2000 1040 c0 -4 9 -10 20 -13 11 -3 20 -2 20 3 0 4 -9 10 -20 13
-11 3 -20 2 -20 -3z"/>
<path d="M128 1033 c7 -3 16 -2 19 1 4 3 -2 6 -13 5 -11 0 -14 -3 -6 -6z"/>
<path d="M1525 1030 c-3 -5 1 -10 9 -10 9 0 16 5 16 10 0 6 -4 10 -9 10 -6 0
-13 -4 -16 -10z"/>
<path d="M1720 1032 c0 -7 -10 -13 -22 -13 -19 -1 -20 -2 -4 -6 20 -5 44 12
33 24 -4 3 -7 1 -7 -5z"/>
<path d="M1750 1030 c0 -6 7 -10 15 -10 8 0 15 2 15 4 0 2 -7 6 -15 10 -8 3
-15 1 -15 -4z"/>
<path d="M1800 1030 c-9 -6 -10 -10 -3 -10 6 0 15 5 18 10 8 12 4 12 -15 0z"/>
<path d="M15 1020 c-3 -5 -1 -10 4 -10 6 0 11 5 11 10 0 6 -2 10 -4 10 -3 0
-8 -4 -11 -10z"/>
<path d="M438 1023 c7 -3 16 -2 19 1 4 3 -2 6 -13 5 -11 0 -14 -3 -6 -6z"/>
<path d="M478 1023 c7 -3 16 -2 19 1 4 3 -2 6 -13 5 -11 0 -14 -3 -6 -6z"/>
<path d="M1243 1023 c9 -2 23 -2 30 0 6 3 -1 5 -18 5 -16 0 -22 -2 -12 -5z"/>
<path d="M1375 1020 c-8 -13 5 -13 25 0 13 8 13 10 -2 10 -9 0 -20 -4 -23 -10z"/>
<path d="M1845 1021 c-3 -5 0 -13 6 -17 7 -4 9 -3 5 4 -3 6 2 13 11 15 16 4
16 5 1 6 -9 0 -19 -3 -23 -8z"/>
<path d="M2878 1023 c7 -3 16 -2 19 1 4 3 -2 6 -13 5 -11 0 -14 -3 -6 -6z"/>
<path d="M2920 1018 c0 -5 18 -8 40 -8 22 0 40 2 40 4 0 2 -18 6 -40 8 -22 2
-40 0 -40 -4z"/>
<path d="M168 1013 c7 -3 16 -2 19 1 4 3 -2 6 -13 5 -11 0 -14 -3 -6 -6z"/>
<path d="M380 1008 c0 -4 4 -8 9 -8 6 0 12 4 15 8 3 5 -1 9 -9 9 -8 0 -15 -4
-15 -9z"/>
<path d="M688 1013 c7 -3 16 -2 19 1 4 3 -2 6 -13 5 -11 0 -14 -3 -6 -6z"/>
<path d="M952 1005 c-7 -8 -9 -15 -4 -15 5 0 15 7 22 15 16 19 -1 19 -18 0z"/>
<path d="M990 1015 c0 -7 39 -12 49 -5 7 4 -1 7 -18 8 -17 0 -31 -1 -31 -3z"/>
<path d="M2540 1009 c0 -5 5 -7 10 -4 6 3 10 8 10 11 0 2 -4 4 -10 4 -5 0 -10
-5 -10 -11z"/>
<path d="M2852 1002 c-1 -13 -6 -20 -12 -17 -5 3 -10 2 -10 -4 0 -5 5 -13 10
-16 6 -3 8 -18 5 -33 l-5 -27 10 25 c6 13 9 40 7 60 -2 19 -4 25 -5 12z"/>
<path d="M831 1000 c-11 -6 -9 -11 8 -20 12 -6 27 -9 34 -6 7 2 4 5 -6 5 -10
1 -16 5 -12 10 8 14 -8 21 -24 11z"/>
<path d="M2036 1002 c-2 -4 4 -14 15 -20 19 -12 19 -11 9 8 -12 22 -16 24 -24
12z"/>
<path d="M2097 1003 c-4 -3 -7 -11 -7 -17 0 -6 5 -5 12 2 6 6 9 14 7 17 -3 3
-9 2 -12 -2z"/>
<path d="M733 993 c9 -2 23 -2 30 0 6 3 -1 5 -18 5 -16 0 -22 -2 -12 -5z"/>
<path d="M1226 985 c-3 -9 0 -15 9 -15 9 0 12 6 9 15 -4 8 -7 15 -9 15 -2 0
-5 -7 -9 -15z"/>
<path d="M1605 990 c-3 -6 1 -7 9 -4 18 7 21 14 7 14 -6 0 -13 -4 -16 -10z"/>
<path d="M1758 993 c7 -3 16 -2 19 1 4 3 -2 6 -13 5 -11 0 -14 -3 -6 -6z"/>
<path d="M1918 993 c7 -3 16 -2 19 1 4 3 -2 6 -13 5 -11 0 -14 -3 -6 -6z"/>
<path d="M70 980 c-8 -5 -10 -10 -5 -10 6 0 17 5 25 10 8 5 11 10 5 10 -5 0
-17 -5 -25 -10z"/>
<path d="M238 983 c7 -3 16 -2 19 1 4 3 -2 6 -13 5 -11 0 -14 -3 -6 -6z"/>
<path d="M423 983 c9 -2 23 -2 30 0 6 3 -1 5 -18 5 -16 0 -22 -2 -12 -5z"/>
<path d="M676 981 c-4 -5 3 -7 14 -4 23 6 26 13 6 13 -8 0 -17 -4 -20 -9z"/>
<path d="M898 983 c7 -3 16 -2 19 1 4 3 -2 6 -13 5 -11 0 -14 -3 -6 -6z"/>
<path d="M1125 980 c-3 -6 1 -7 9 -4 18 7 21 14 7 14 -6 0 -13 -4 -16 -10z"/>
<path d="M1266 981 c-4 -5 3 -7 14 -4 23 6 26 13 6 13 -8 0 -17 -4 -20 -9z"/>
<path d="M1325 980 c-4 -6 3 -10 14 -10 25 0 27 6 6 13 -8 4 -17 2 -20 -3z"/>
<path d="M1370 981 c0 -6 4 -13 10 -16 6 -3 7 1 4 9 -7 18 -14 21 -14 7z"/>
<path d="M2890 980 c0 -5 5 -10 11 -10 5 0 7 5 4 10 -3 6 -8 10 -11 10 -2 0
-4 -4 -4 -10z"/>
<path d="M2920 975 c0 -9 6 -12 15 -9 8 4 15 7 15 9 0 2 -7 5 -15 9 -9 3 -15
0 -15 -9z"/>
<path d="M100 970 c-9 -6 -10 -10 -3 -10 6 0 15 5 18 10 8 12 4 12 -15 0z"/>
<path d="M305 970 c-3 -5 -1 -10 4 -10 6 0 11 5 11 10 0 6 -2 10 -4 10 -3 0
-8 -4 -11 -10z"/>
<path d="M1640 973 c0 -5 14 -8 30 -8 17 0 30 3 30 8 0 4 -13 7 -30 7 -16 0
-30 -3 -30 -7z"/>
<path d="M1776 968 c-9 -5 -20 -7 -25 -3 -5 3 -12 1 -15 -4 -5 -7 94 -4 102 4
8 8 -48 11 -62 3z"/>
<path d="M1863 973 c-7 -2 -13 -10 -13 -15 0 -6 3 -8 7 -5 3 4 12 2 20 -4 9
-9 13 -8 13 0 0 6 -6 11 -12 12 -7 0 -4 4 7 9 21 9 0 12 -22 3z"/>
<path d="M1910 965 c-11 -13 -10 -14 4 -9 9 3 16 10 16 15 0 13 -6 11 -20 -6z"/>
<path d="M2107 961 c-4 -17 -3 -21 5 -13 5 5 8 16 6 23 -3 8 -7 3 -11 -10z"/>
<path d="M129 953 c-13 -17 -13 -17 6 -3 11 8 22 16 24 17 2 2 0 3 -6 3 -6 0
-17 -8 -24 -17z"/>
<path d="M1408 963 c6 -2 18 -2 25 0 6 3 1 5 -13 5 -14 0 -19 -2 -12 -5z"/>
<path d="M1496 955 c5 -11 11 -12 25 -4 25 13 24 14 -6 17 -18 1 -23 -2 -19
-13z"/>
<path d="M1940 955 c-11 -13 -8 -15 19 -15 17 0 31 4 31 9 0 5 -10 7 -22 3
-14 -3 -19 -2 -14 6 10 17 1 15 -14 -3z"/>
<path d="M2162 958 c-15 -15 -16 -48 -1 -48 6 0 8 8 4 19 -4 13 0 23 12 30 10
6 13 11 8 11 -6 0 -16 -5 -23 -12z"/>
<path d="M2985 960 c3 -5 8 -10 11 -10 2 0 4 5 4 10 0 6 -5 10 -11 10 -5 0 -7
-4 -4 -10z"/>
<path d="M35 950 c3 -5 12 -7 20 -3 21 7 19 13 -6 13 -11 0 -18 -4 -14 -10z"/>
<path d="M208 948 c5 -5 16 -8 23 -6 8 3 3 7 -10 11 -17 4 -21 3 -13 -5z"/>
<path d="M548 953 c7 -3 16 -2 19 1 4 3 -2 6 -13 5 -11 0 -14 -3 -6 -6z"/>
<path d="M806 945 c4 -8 13 -15 21 -15 12 0 12 2 -1 15 -8 8 -17 15 -20 15 -3
0 -3 -7 0 -15z"/>
<path d="M986 951 c-11 -18 23 -35 47 -23 21 10 20 10 -8 9 -19 -1 -29 2 -27
11 2 14 -4 16 -12 3z"/>
<path d="M1074 945 c36 -19 45 -19 20 0 -10 8 -26 14 -34 15 -8 0 -2 -7 14
-15z"/>
<path d="M1450 952 c0 -5 7 -9 15 -9 8 0 12 4 9 9 -3 4 -9 8 -15 8 -5 0 -9 -4
-9 -8z"/>
<path d="M158 943 c6 -2 18 -2 25 0 6 3 1 5 -13 5 -14 0 -19 -2 -12 -5z"/>
<path d="M478 943 c6 -2 18 -2 25 0 6 3 1 5 -13 5 -14 0 -19 -2 -12 -5z"/>
<path d="M943 934 c-4 -11 -13 -14 -29 -10 -14 4 -24 2 -24 -4 0 -5 8 -10 18
-10 14 0 15 -2 2 -10 -8 -5 -10 -10 -4 -10 6 0 17 6 23 14 7 8 21 12 31 9 11
-3 20 0 20 6 0 6 -7 8 -17 4 -12 -5 -15 -2 -10 10 3 9 4 17 1 17 -2 0 -7 -7
-11 -16z"/>
<path d="M1143 935 c0 -12 3 -12 16 -3 9 7 18 14 20 15 2 2 -5 3 -16 3 -11 0
-20 -7 -20 -15z"/>
<path d="M1833 937 c0 -8 6 -14 14 -14 9 0 10 4 2 14 -6 7 -12 13 -14 13 -1 0
-2 -6 -2 -13z"/>
<path d="M2262 920 c-1 -19 -5 -46 -8 -60 -5 -19 -4 -22 5 -14 8 7 11 30 8 60
-2 37 -4 41 -5 14z"/>
<path d="M70 930 c0 -5 7 -10 15 -10 8 0 15 5 15 10 0 6 -7 10 -15 10 -8 0
-15 -4 -15 -10z"/>
<path d="M290 931 c0 -4 12 -7 26 -5 38 4 42 14 6 14 -18 0 -32 -4 -32 -9z"/>
<path d="M415 930 c-4 -6 -16 -8 -27 -4 -13 4 -18 2 -14 -5 4 -6 -12 -13 -44
-17 -28 -4 -48 -9 -45 -12 9 -10 89 -2 96 9 4 6 12 8 18 5 6 -4 11 -2 11 3 0
6 5 11 11 11 5 0 8 -4 5 -8 -7 -11 40 -9 51 2 4 4 -3 6 -17 4 -16 -2 -24 1
-22 10 3 15 -14 16 -23 2z"/>
<path d="M526 932 c-2 -4 7 -9 22 -10 21 -1 24 0 12 8 -18 12 -27 12 -34 2z"/>
<path d="M1280 930 c-12 -8 -11 -10 8 -10 12 0 22 5 22 10 0 13 -11 13 -30 0z"/>
<path d="M1550 933 c0 -5 -10 -14 -22 -19 -13 -6 -17 -9 -9 -7 23 6 32 -19 13
-34 -15 -12 -14 -13 5 -3 13 6 20 16 17 24 -4 10 5 13 32 12 23 -1 39 4 42 12
3 11 1 11 -16 1 -18 -11 -24 -10 -41 5 -12 11 -21 15 -21 9z"/>
<path d="M1668 933 c-10 -2 -15 -10 -11 -19 7 -18 23 -18 23 0 0 8 6 17 13 19
15 7 -1 6 -25 0z"/>
<path d="M1717 933 c-13 -12 -7 -22 8 -17 11 5 13 2 9 -10 -3 -9 -10 -16 -15
-16 -6 0 -1 -10 10 -21 11 -12 19 -34 19 -50 -1 -16 2 -32 5 -35 9 -9 37 3 37
15 0 6 -7 8 -15 5 -11 -5 -15 1 -15 25 0 17 -5 31 -11 31 -7 0 -9 11 -6 27 8
40 -7 66 -26 46z"/>
<path d="M1800 931 c0 -7 -6 -9 -12 -6 -7 4 -5 0 4 -7 16 -14 16 -16 -3 -32
-12 -10 -19 -20 -16 -23 3 -3 16 4 28 16 12 11 27 17 33 14 6 -4 2 4 -9 18
-11 13 -21 26 -22 28 -2 2 -3 -1 -3 -8z"/>
<path d="M1903 927 c-3 -7 -3 -9 1 -5 5 4 19 3 33 -3 13 -5 22 -5 19 0 -9 15
-46 20 -53 8z"/>
<path d="M2036 919 c-15 -12 -25 -24 -21 -27 3 -3 11 2 18 12 11 16 19 17 53
7 l39 -10 -25 19 c-31 24 -32 24 -64 -1z"/>
<path d="M2948 928 c9 -9 15 -9 24 0 9 9 7 12 -12 12 -19 0 -21 -3 -12 -12z"/>
<path d="M700 925 c0 -8 29 -12 39 -5 9 5 4 8 -13 8 -14 0 -26 -2 -26 -3z"/>
<path d="M1187 919 c7 -7 15 -10 18 -7 3 3 -2 9 -12 12 -14 6 -15 5 -6 -5z"/>
<path d="M1226 922 c-3 -5 1 -9 9 -9 8 0 12 4 9 9 -3 4 -7 8 -9 8 -2 0 -6 -4
-9 -8z"/>
<path d="M1985 920 c-3 -5 1 -10 10 -10 9 0 13 5 10 10 -3 6 -8 10 -10 10 -2
0 -7 -4 -10 -10z"/>
<path d="M2807 864 c-9 -38 -24 -82 -32 -98 -17 -31 -20 -50 -5 -26 5 8 12 11
16 7 9 -9 -15 -37 -29 -34 -7 1 -15 7 -19 12 -5 6 -8 3 -8 -7 0 -9 5 -20 10
-23 6 -3 10 -15 10 -26 0 -11 5 -17 10 -14 6 4 8 15 5 24 -6 21 9 37 46 46 20
5 28 2 34 -12 9 -21 10 -127 1 -141 -3 -6 -3 -17 0 -26 10 -26 -15 -81 -49
-107 -17 -13 -36 -23 -40 -21 -5 1 -6 -2 -2 -8 3 -5 -1 -10 -10 -10 -11 0 -15
-6 -11 -18 7 -19 -26 -62 -47 -62 -9 0 -9 -2 1 -8 9 -7 6 -15 -13 -36 -14 -15
-23 -31 -20 -36 3 -5 -13 -7 -35 -6 -31 3 -40 0 -36 -10 3 -8 -1 -14 -10 -14
-8 0 -17 7 -21 16 -5 13 -7 13 -14 2 -7 -10 -9 -10 -9 0 0 6 -4 12 -10 12 -13
0 -50 37 -50 50 0 6 -11 15 -24 21 -14 7 -27 22 -30 34 -3 13 -18 37 -32 54
-15 18 -24 38 -20 47 3 8 2 12 -4 9 -6 -3 -10 -1 -10 4 0 6 -5 11 -10 11 -10
0 3 -30 27 -60 6 -8 12 -18 13 -22 6 -49 20 -74 67 -122 31 -31 59 -54 63 -51
4 3 10 -1 13 -9 7 -18 59 -15 82 4 17 14 18 13 12 -2 -4 -12 -2 -15 9 -11 7 3
14 11 14 19 0 8 6 11 15 8 9 -4 15 0 15 8 0 8 9 23 20 33 11 10 20 28 20 39 0
17 2 18 10 6 7 -12 11 -10 18 10 5 14 19 33 31 44 11 10 18 22 15 27 -2 4 9
18 25 30 37 27 61 85 61 147 0 45 1 48 35 58 40 13 45 10 45 -26 0 -28 -17
-55 -38 -62 -8 -2 -20 -19 -28 -38 -15 -34 -14 -34 29 13 24 26 46 45 50 41 3
-3 6 30 5 75 -1 44 -4 81 -8 81 -10 0 -7 33 4 41 4 4 4 9 -2 13 -5 3 -15 -1
-22 -9 -9 -10 -9 -15 -1 -15 6 0 11 -5 11 -10 0 -7 -7 -7 -21 1 -15 8 -19 8
-15 0 9 -14 1 -14 -22 -1 -9 5 -36 14 -59 20 -26 7 -43 17 -43 25 0 8 5 15 12
15 6 0 8 3 5 6 -4 4 2 19 12 33 24 33 35 71 22 71 -5 0 -11 7 -13 16 -2 9 -11
-14 -21 -52z m26 6 c-3 -11 -7 -20 -9 -20 -2 0 -4 9 -4 20 0 11 4 20 9 20 5 0
7 -9 4 -20z m88 -176 l24 -26 -24 -19 c-36 -30 -55 -25 -47 12 3 17 6 38 6 45
0 21 14 17 41 -12z"/>
<path d="M138 913 c7 -3 16 -2 19 1 4 3 -2 6 -13 5 -11 0 -14 -3 -6 -6z"/>
<path d="M626 903 c-6 -14 -5 -15 5 -6 7 7 10 15 7 18 -3 3 -9 -2 -12 -12z"/>
<path d="M765 910 c3 -5 8 -10 11 -10 2 0 4 5 4 10 0 6 -5 10 -11 10 -5 0 -7
-4 -4 -10z"/>
<path d="M1320 909 c0 -5 9 -9 20 -9 11 0 20 2 20 4 0 2 -9 6 -20 9 -11 3 -20
1 -20 -4z"/>
<path d="M2200 905 c0 -8 2 -15 4 -15 2 0 6 7 10 15 3 8 1 15 -4 15 -6 0 -10
-7 -10 -15z"/>
<path d="M2421 905 c-1 -23 35 -59 49 -50 6 4 10 14 9 23 0 14 -2 13 -9 -3 -8
-18 -9 -19 -9 -1 -1 11 -6 16 -15 13 -10 -4 -16 2 -19 16 -4 20 -4 20 -6 2z"/>
<path d="M2898 913 c6 -2 18 -2 25 0 6 3 1 5 -13 5 -14 0 -19 -2 -12 -5z"/>
<path d="M240 896 c7 -7 13 -7 20 0 6 6 3 10 -10 10 -13 0 -16 -4 -10 -10z"/>
<path d="M503 903 c9 -2 23 -2 30 0 6 3 -1 5 -18 5 -16 0 -22 -2 -12 -5z"/>
<path d="M555 900 c-3 -5 -1 -10 4 -10 6 0 11 5 11 10 0 6 -2 10 -4 10 -3 0
-8 -4 -11 -10z"/>
<path d="M823 903 c-10 -3 -9 -8 2 -19 17 -18 37 -10 28 11 -5 16 -10 17 -30
8z"/>
<path d="M1155 900 c-3 -5 -2 -10 4 -10 5 0 13 5 16 10 3 6 2 10 -4 10 -5 0
-13 -4 -16 -10z"/>
<path d="M1390 895 c0 -13 -11 -19 -32 -17 -3 1 -8 -5 -11 -12 -4 -9 2 -12 19
-8 13 2 24 8 24 12 0 5 7 16 16 24 14 15 14 16 0 16 -9 0 -16 -7 -16 -15z"/>
<path d="M1434 901 c3 -5 15 -7 26 -4 28 7 25 13 -6 13 -14 0 -23 -4 -20 -9z"/>
<path d="M1856 903 c5 -5 12 -12 16 -18 4 -6 8 -2 8 8 0 9 -7 17 -17 17 -9 0
-12 -3 -7 -7z"/>
<path d="M2936 902 c-4 -7 -2 -12 4 -12 6 0 9 -4 5 -9 -3 -5 5 -13 17 -17 20
-6 20 -8 5 -19 -16 -11 -16 -13 -2 -19 9 -3 13 -2 10 4 -3 6 2 10 11 10 16 0
16 1 1 18 -10 10 -14 22 -10 25 3 4 -1 7 -9 7 -9 0 -18 5 -20 12 -3 9 -6 9
-12 0z"/>
<path d="M586 886 c3 -8 -2 -16 -13 -19 -15 -4 -15 -5 3 -6 21 -1 39 21 27 33
-12 11 -22 6 -17 -8z"/>
<path d="M781 886 c-15 -18 -2 -26 24 -15 18 7 18 8 2 8 -10 1 -15 6 -12 11 9
15 -1 12 -14 -4z"/>
<path d="M1118 893 c7 -3 16 -2 19 1 4 3 -2 6 -13 5 -11 0 -14 -3 -6 -6z"/>
<path d="M1194 885 c-10 -8 -14 -14 -9 -15 15 0 40 18 34 24 -3 3 -14 -1 -25
-9z"/>
<path d="M1273 893 c9 -2 23 -2 30 0 6 3 -1 5 -18 5 -16 0 -22 -2 -12 -5z"/>
<path d="M1680 890 c-13 -8 -12 -10 3 -10 9 0 17 5 17 10 0 12 -1 12 -20 0z"/>
<path d="M1905 890 c-3 -5 0 -11 7 -11 49 -5 75 -3 71 4 -3 5 -16 7 -29 4 -13
-2 -24 0 -24 4 0 12 -17 11 -25 -1z"/>
<path d="M2135 890 c4 -6 11 -8 16 -5 14 9 11 15 -7 15 -8 0 -12 -5 -9 -10z"/>
<path d="M2865 890 c3 -5 11 -10 16 -10 6 0 7 5 4 10 -3 6 -11 10 -16 10 -6 0
-7 -4 -4 -10z"/>
<path d="M120 880 c0 -4 9 -10 20 -13 11 -3 20 -2 20 3 0 4 -9 10 -20 13 -11
3 -20 2 -20 -3z"/>
<path d="M171 873 c0 -11 3 -13 6 -5 2 6 9 12 14 12 6 0 7 -4 4 -10 -3 -6 1
-7 10 -3 13 5 14 7 3 14 -21 14 -38 10 -37 -8z"/>
<path d="M450 878 c-12 -4 -26 -6 -31 -2 -5 3 -9 1 -9 -4 0 -14 28 -23 35 -11
4 5 10 7 13 5 4 -2 23 -1 42 3 l35 7 -31 5 c-18 3 -42 2 -54 -3z"/>
<path d="M740 875 c0 -8 4 -15 10 -15 5 0 7 7 4 15 -4 8 -8 15 -10 15 -2 0 -4
-7 -4 -15z"/>
<path d="M1048 883 c6 -2 18 -2 25 0 6 3 1 5 -13 5 -14 0 -19 -2 -12 -5z"/>
<path d="M1415 880 c3 -5 1 -10 -6 -10 -18 0 -5 -10 19 -15 32 -6 35 10 6 24
-15 6 -23 7 -19 1z"/>
<path d="M2117 873 c5 -13 2 -15 -13 -9 -40 17 -59 17 -31 1 16 -9 36 -14 44
-11 9 4 22 1 31 -6 13 -11 14 -10 4 8 -14 27 -44 41 -35 17z"/>
<path d="M2166 881 c-3 -5 1 -14 8 -20 12 -10 13 -8 9 8 -6 23 -9 25 -17 12z"/>
<path d="M2729 872 c14 -26 -12 -62 -38 -55 -11 3 -28 -4 -40 -16 -41 -41
-125 -56 -158 -29 -7 6 -13 7 -13 3 0 -4 -6 -2 -13 4 -8 6 -17 8 -21 4 -4 -4
-10 -3 -14 2 -13 18 -59 34 -69 24 -6 -6 -10 -4 -10 6 0 8 4 15 8 15 5 0 6 7
2 15 -8 24 -13 13 -18 -41 -4 -36 -2 -44 5 -29 7 15 8 7 6 -32 -2 -28 -11 -62
-21 -75 l-17 -23 5 28 c3 21 1 25 -8 17 -9 -8 -12 -3 -9 17 1 15 -2 30 -7 34
-11 6 -17 29 -18 67 -1 12 -6 22 -12 22 -8 0 -9 -12 -4 -37 10 -47 13 -72 14
-99 1 -22 147 -182 156 -172 3 3 -2 21 -10 41 -19 46 -19 53 0 37 9 -7 15 -8
15 -2 0 5 -7 13 -15 16 -18 6 -30 -16 -21 -39 3 -8 1 -15 -4 -15 -6 0 -10 5
-11 10 -3 33 -2 57 3 65 3 6 1 19 -3 30 -9 19 -9 18 -5 -2 2 -13 -3 -28 -12
-35 -14 -11 -15 -10 -9 6 4 10 3 24 -3 31 -8 9 -8 15 0 20 5 3 10 26 10 51 0
47 5 52 35 30 11 -8 24 -12 30 -10 6 3 30 -2 54 -11 24 -8 57 -15 73 -15 16 0
40 -7 53 -16 16 -11 25 -12 25 -5 0 6 -7 14 -15 18 -12 4 -8 13 19 39 43 42
70 46 56 9 -8 -22 -8 -24 8 -14 30 19 47 129 21 129 -6 0 -6 -7 0 -18z m-374
-240 c0 -9 6 -16 13 -14 6 1 12 -2 12 -8 0 -16 -27 -11 -34 6 -8 22 -8 49 1
40 4 -4 8 -15 8 -24z"/>
<path d="M255 870 c28 -12 47 -12 40 0 -3 6 -18 10 -33 9 -24 0 -25 -1 -7 -9z"/>
<path d="M686 871 c-3 -4 6 -6 19 -3 14 2 25 6 25 8 0 8 -39 4 -44 -5z"/>
<path d="M930 869 c0 -5 8 -9 18 -9 9 0 28 -3 42 -6 19 -4 22 -3 9 5 -22 14
-69 21 -69 10z"/>
<path d="M1264 866 c-5 -13 -14 -16 -33 -11 -19 4 -22 3 -11 -5 22 -15 50 -12
57 5 3 9 3 19 -1 22 -3 3 -8 -2 -12 -11z"/>
<path d="M1300 870 c0 -19 -3 -25 -18 -36 -9 -6 -24 -9 -34 -6 -10 2 -18 0
-18 -6 0 -6 -9 -8 -21 -5 -12 3 -18 11 -15 19 3 8 1 14 -4 14 -16 0 -11 -30 5
-36 12 -5 13 -10 4 -20 -6 -7 -7 -19 -2 -26 4 -7 8 -35 9 -63 1 -59 12 -115
23 -115 16 0 11 115 -6 150 -18 34 -18 35 5 57 24 24 38 30 27 13 -3 -5 1 -10
10 -10 9 0 14 4 10 9 -10 17 17 24 32 8 11 -11 12 -20 5 -32 -6 -12 -11 -14
-16 -6 -14 21 -25 11 -20 -18 4 -20 2 -30 -10 -34 -32 -13 -1 -44 51 -52 26
-4 57 -12 68 -18 18 -9 19 -9 6 6 -7 10 -22 17 -32 17 -27 0 -26 50 1 57 11 3
20 8 20 12 0 4 19 6 42 5 22 -1 37 1 32 4 -13 9 -12 42 1 41 6 0 9 -8 7 -17
-2 -15 -1 -15 12 1 9 12 16 14 21 7 4 -6 15 -8 25 -5 28 9 91 -21 84 -39 -4
-11 0 -16 11 -16 12 0 15 -5 11 -17 -4 -10 -4 -14 0 -11 6 7 34 -15 34 -26 0
-3 -9 -6 -19 -6 -11 0 -23 -5 -26 -10 -4 -6 -11 -8 -16 -5 -5 3 -6 -1 -3 -9 8
-20 24 -21 24 -2 0 19 43 26 65 10 15 -11 14 -13 -12 -17 l-28 -4 30 -1 c17
-1 37 3 45 8 13 9 13 10 0 10 -13 0 -13 2 0 11 12 9 12 10 -4 5 -31 -10 -118
97 -100 125 3 5 2 9 -3 10 -4 0 -21 2 -36 4 -16 2 -40 0 -54 -6 -19 -7 -24 -6
-20 3 3 9 -7 14 -29 15 -19 1 -34 -2 -34 -6 0 -4 -10 -13 -22 -19 l-23 -11 25
-1 25 -2 -25 -7 c-18 -5 -27 -3 -32 8 -6 14 -7 13 -7 -1 -1 -27 -17 -22 -41
12 -12 17 -17 30 -11 30 19 0 12 18 -8 25 -12 4 -18 12 -14 21 3 7 2 14 -1 14
-3 0 -6 -4 -6 -10z m27 -139 c-8 -9 -12 -23 -9 -31 4 -12 3 -13 -10 -3 -8 7
-18 10 -21 6 -4 -3 -7 -1 -7 5 0 6 4 13 10 17 5 3 7 12 4 19 -4 10 2 12 21 8
23 -4 24 -6 12 -21z"/>
<path d="M1621 860 c-25 -21 -51 -26 -51 -10 0 6 8 10 17 10 9 0 13 3 10 7 -4
3 -18 0 -32 -7 l-25 -13 27 -14 c20 -10 28 -11 34 -2 4 7 14 9 24 6 10 -4 14
-3 10 4 -4 5 -1 16 5 24 17 20 10 18 -19 -5z"/>
<path d="M319 854 c-13 -7 -20 -13 -16 -14 5 0 18 5 29 11 14 8 23 8 31 0 8
-8 7 -11 -5 -11 -9 0 -19 -7 -22 -16 -4 -9 -2 -13 5 -8 6 4 16 0 21 -7 8 -11
9 -10 4 3 -3 11 2 22 15 28 11 6 17 15 14 19 -7 13 -49 10 -76 -5z"/>
<path d="M1040 860 c-24 -6 -23 -7 9 -13 39 -8 44 -6 27 8 -6 6 -22 8 -36 5z"/>
<path d="M1810 862 c0 -5 7 -9 15 -9 8 0 12 4 9 9 -3 4 -9 8 -15 8 -5 0 -9 -4
-9 -8z"/>
<path d="M2880 863 c0 -6 6 -13 13 -16 9 -3 9 -7 -1 -20 -8 -9 -20 -13 -28
-10 -9 3 -14 -1 -14 -13 0 -11 4 -15 8 -9 10 14 32 17 32 5 0 -5 5 -10 11 -10
6 0 9 7 5 15 -3 8 2 19 12 24 14 8 14 10 2 11 -13 0 -13 2 0 11 13 9 13 10 -1
6 -9 -3 -22 0 -28 6 -8 8 -11 8 -11 0z"/>
<path d="M6 844 c-5 -14 -4 -15 9 -4 17 14 19 20 6 20 -5 0 -12 -7 -15 -16z"/>
<path d="M218 853 c7 -3 16 -2 19 1 4 3 -2 6 -13 5 -11 0 -14 -3 -6 -6z"/>
<path d="M824 845 c-12 -8 -25 -11 -29 -7 -5 4 -5 1 -1 -6 4 -7 12 -10 17 -7
5 4 9 1 9 -4 0 -6 -4 -11 -10 -11 -5 0 -10 -7 -10 -15 0 -8 5 -15 10 -15 9 0
11 6 14 43 1 6 8 17 16 24 21 17 9 16 -16 -2z"/>
<path d="M1100 843 c0 -8 7 -13 18 -11 9 2 17 7 17 12 0 5 -8 10 -17 12 -10 1
-18 -4 -18 -13z"/>
<path d="M1650 849 c0 -5 5 -7 10 -4 6 3 10 8 10 11 0 2 -4 4 -10 4 -5 0 -10
-5 -10 -11z"/>
<path d="M1705 851 c3 -6 -3 -14 -12 -20 -10 -6 -13 -11 -7 -11 5 0 18 6 28
13 17 13 18 14 2 20 -10 4 -14 3 -11 -2z"/>
<path d="M1860 849 c0 -5 5 -7 10 -4 6 3 10 8 10 11 0 2 -4 4 -10 4 -5 0 -10
-5 -10 -11z"/>
<path d="M1890 845 c-9 -10 -9 -15 -1 -15 6 0 11 4 11 9 0 5 10 12 23 14 21 4
21 4 1 6 -12 0 -27 -6 -34 -14z"/>
<path d="M2419 843 c-8 -9 -9 -14 -2 -10 6 4 14 1 16 -5 3 -7 6 -3 6 10 1 26
-2 27 -20 5z"/>
<path d="M2701 844 c0 -11 3 -14 6 -6 3 7 2 16 -1 19 -3 4 -6 -2 -5 -13z"/>
<path d="M65 840 c-3 -5 -16 -11 -28 -11 -18 -1 -19 -2 -4 -6 24 -6 67 5 67
17 0 13 -27 13 -35 0z"/>
<path d="M604 841 c-5 -5 -20 -12 -33 -16 -18 -6 -22 -4 -16 6 5 9 5 10 -2 4
-5 -5 -14 -22 -21 -37 -11 -26 -10 -28 11 -27 12 0 16 3 10 6 -7 2 -13 9 -13
14 0 15 62 38 90 33 14 -3 33 1 44 9 16 12 16 14 2 14 -9 0 -16 -3 -16 -7 0
-10 -34 -8 -41 1 -3 5 -9 5 -15 0z"/>
<path d="M752 843 c-13 -5 -7 -23 9 -23 6 0 8 4 5 9 -4 5 0 12 6 14 7 3 9 5 3
5 -5 0 -16 -2 -23 -5z"/>
<path d="M940 840 c-13 -8 -12 -10 3 -10 9 0 17 5 17 10 0 12 -1 12 -20 0z"/>
<path d="M1978 843 c6 -2 18 -2 25 0 6 3 1 5 -13 5 -14 0 -19 -2 -12 -5z"/>
<path d="M2050 835 c-7 -9 -8 -15 -2 -15 5 0 12 7 16 15 3 8 4 15 2 15 -2 0
-9 -7 -16 -15z"/>
<path d="M2495 840 c3 -5 8 -10 11 -10 2 0 4 5 4 10 0 6 -5 10 -11 10 -5 0 -7
-4 -4 -10z"/>
<path d="M158 833 c6 -2 18 -2 25 0 6 3 1 5 -13 5 -14 0 -19 -2 -12 -5z"/>
<path d="M204 826 c-3 -8 -15 -12 -27 -10 -21 4 -21 4 -2 -5 12 -6 15 -10 6
-10 -8 -1 -12 -3 -9 -6 9 -9 38 7 38 20 0 8 14 15 33 18 l32 4 -33 1 c-20 1
-35 -3 -38 -12z"/>
<path d="M403 830 c-13 -5 -23 -13 -23 -18 0 -5 10 -14 23 -19 22 -11 21 -11
-8 -18 -16 -5 -41 -15 -55 -25 -27 -18 -74 -25 -65 -9 4 5 17 9 30 9 12 0 25
6 28 14 5 13 1 13 -28 0 -19 -8 -36 -10 -40 -5 -3 5 3 11 12 13 15 3 14 5 -4
10 -16 4 -32 -3 -57 -26 -39 -34 -48 -61 -17 -53 22 5 54 -11 46 -24 -3 -5 0
-6 8 -3 18 7 29 -20 21 -52 -4 -14 -2 -24 5 -24 6 0 11 14 11 30 0 33 19 40
40 15 8 -9 21 -13 36 -9 19 5 23 3 18 -10 -7 -18 -53 -12 -66 8 -11 16 -10 -6
1 -23 5 -8 14 -10 21 -6 8 5 11 4 7 -2 -6 -9 12 -23 28 -23 5 0 18 45 21 73
l2 29 -20 -22 c-15 -16 -23 -18 -33 -10 -8 6 -11 18 -8 27 5 12 7 12 14 2 6
-11 9 -10 15 4 3 9 12 17 19 17 18 0 25 23 10 36 -9 9 -18 7 -36 -7 -13 -10
-19 -19 -14 -19 6 0 16 5 23 12 6 6 15 9 19 5 14 -14 -30 -35 -55 -26 -34 13
-41 11 -35 -10 3 -10 0 -22 -6 -26 -6 -3 -11 -3 -10 2 4 23 -3 33 -22 33 -14
0 -19 5 -16 15 5 11 1 12 -20 4 -35 -13 -41 -4 -12 21 28 23 55 22 51 -3 -2
-14 5 -17 37 -17 23 0 44 6 48 13 12 20 44 29 58 17 7 -6 25 -8 40 -4 18 4 23
9 15 14 -12 8 -7 12 55 50 20 12 20 12 0 5 -32 -12 -114 -14 -121 -4 -3 5 4 9
15 9 12 0 21 5 21 10 0 6 -1 10 -2 9 -2 0 -13 -4 -25 -9z m45 -54 c-10 -7 -15
-16 -11 -19 3 -4 0 -7 -9 -7 -8 0 -18 3 -21 7 -9 8 23 32 43 32 12 0 12 -2 -2
-13z m-118 -96 c0 -5 -5 -10 -11 -10 -5 0 -7 5 -4 10 3 6 8 10 11 10 2 0 4 -4
4 -10z"/>
<path d="M713 821 c-13 -22 -8 -31 19 -31 10 0 18 -5 18 -11 0 -5 -4 -8 -9 -5
-5 3 -11 -3 -14 -14 -6 -23 11 -27 19 -5 4 9 15 13 28 11 11 -2 15 -1 8 1 -7
3 -9 9 -6 15 4 7 2 8 -4 4 -7 -4 -12 -3 -12 3 0 5 8 12 18 14 9 3 -3 3 -28 -1
-41 -5 -44 -4 -31 12 8 9 12 18 10 21 -3 2 -10 -4 -16 -14z"/>
<path d="M850 840 c-8 -26 -7 -41 2 -32 6 6 8 16 5 24 -3 7 -6 11 -7 8z"/>
<path d="M907 833 c-4 -3 -7 -11 -7 -17 0 -6 5 -5 12 2 6 6 9 14 7 17 -3 3 -9
2 -12 -2z"/>
<path d="M990 831 l-25 -7 24 -7 c20 -5 22 -9 12 -21 -10 -12 -9 -14 9 -9 16
4 18 9 9 19 -6 7 -8 18 -4 24 3 5 5 10 3 9 -2 -1 -14 -4 -28 -8z"/>
<path d="M1355 830 c3 -5 8 -10 11 -10 2 0 4 5 4 10 0 6 -5 10 -11 10 -5 0 -7
-4 -4 -10z"/>
<path d="M1790 825 c12 -15 30 -12 30 6 0 5 -10 9 -21 9 -18 0 -19 -2 -9 -15z"/>
<path d="M2088 833 c7 -3 16 -2 19 1 4 3 -2 6 -13 5 -11 0 -14 -3 -6 -6z"/>
<path d="M2170 830 c-11 -7 -12 -12 -3 -18 6 -4 14 -19 18 -34 4 -15 13 -32
20 -38 11 -9 12 -7 8 10 -3 11 -9 23 -14 26 -5 3 -9 12 -9 20 0 8 12 1 30 -18
35 -40 40 -33 6 7 -14 16 -22 34 -19 39 4 6 -2 4 -12 -4 -17 -14 -18 -13 -12
3 7 20 7 20 -13 7z"/>
<path d="M2450 830 c0 -5 4 -10 9 -10 6 0 13 5 16 10 3 6 -1 10 -9 10 -9 0
-16 -4 -16 -10z"/>
<path d="M275 820 c-3 -5 1 -10 9 -10 9 0 16 5 16 10 0 6 -4 10 -9 10 -6 0
-13 -4 -16 -10z"/>
<path d="M445 820 c-3 -5 -2 -10 4 -10 5 0 13 5 16 10 3 6 2 10 -4 10 -5 0
-13 -4 -16 -10z"/>
<path d="M1386 818 c7 -11 34 -10 34 1 0 6 -9 9 -19 8 -11 0 -17 -5 -15 -9z"/>
<path d="M1538 823 c7 -3 16 -2 19 1 4 3 -2 6 -13 5 -11 0 -14 -3 -6 -6z"/>
<path d="M1900 820 c-13 -9 -13 -10 0 -9 8 0 24 4 35 9 20 9 20 9 0 9 -11 0
-27 -4 -35 -9z"/>
<path d="M1987 823 c-15 -2 -25 -9 -22 -14 10 -14 42 -11 49 6 3 8 4 14 3 14
-1 -1 -14 -4 -30 -6z"/>
<path d="M1077 804 c5 -14 2 -16 -15 -12 -12 4 -20 2 -16 -3 9 -15 44 -10 44
5 0 8 -4 18 -10 21 -6 4 -7 -1 -3 -11z"/>
<path d="M1620 808 c8 -7 24 -14 35 -15 11 0 35 -4 53 -8 21 -5 32 -4 32 4 0
6 -3 10 -7 10 -5 -1 -10 0 -13 1 -3 1 -14 3 -25 6 -93 18 -90 18 -75 2z"/>
<path d="M1846 808 c3 -4 -3 -8 -13 -9 -16 0 -16 -1 2 -8 16 -7 17 -9 5 -13
-8 -3 -5 -3 7 -2 12 2 25 0 28 -6 3 -5 0 -10 -8 -10 -8 0 -20 -7 -27 -15 -14
-17 0 -21 17 -4 7 7 15 5 27 -7 9 -9 19 -14 22 -11 3 2 -2 12 -11 20 -20 21
-20 28 0 40 20 11 35 -1 16 -12 -9 -6 -10 -11 -3 -15 6 -4 15 2 21 11 9 16 12
16 21 3 8 -12 10 -10 10 9 0 23 -2 24 -51 18 -40 -5 -49 -4 -40 6 7 9 5 13 -9
13 -10 0 -16 -4 -14 -8z"/>
<path d="M65 800 c-3 -6 1 -7 9 -4 18 7 21 14 7 14 -6 0 -13 -4 -16 -10z"/>
<path d="M600 800 c0 -5 5 -10 11 -10 5 0 7 5 4 10 -3 6 -8 10 -11 10 -2 0 -4
-4 -4 -10z"/>
<path d="M640 800 c0 -5 5 -10 11 -10 5 0 7 5 4 10 -3 6 -8 10 -11 10 -2 0 -4
-4 -4 -10z"/>
<path d="M1135 802 c-11 -4 -20 -12 -20 -19 0 -21 10 -19 32 4 23 24 22 25
-12 15z"/>
<path d="M2000 790 c-19 -11 -31 -19 -26 -20 5 0 3 -7 -4 -15 -6 -8 -9 -19 -5
-25 3 -5 -2 -10 -12 -10 -15 0 -16 -2 -3 -10 17 -11 31 6 22 28 -4 11 -1 14
11 9 11 -4 14 -2 11 8 -3 7 3 16 14 19 11 4 23 13 26 21 7 18 9 18 -34 -5z"/>
<path d="M2080 795 c0 -8 2 -15 4 -15 2 0 6 7 10 15 3 8 1 15 -4 15 -6 0 -10
-7 -10 -15z"/>
<path d="M2930 800 c-12 -8 -11 -10 8 -10 12 0 22 5 22 10 0 13 -11 13 -30 0z"/>
<path d="M877 794 c7 -3 11 -11 9 -17 -1 -7 -1 -9 1 -5 3 4 15 1 27 -7 22 -15
36 -12 36 7 0 5 -8 7 -19 3 -10 -3 -24 1 -31 10 -7 8 -18 15 -24 14 -7 0 -7
-2 1 -5z"/>
<path d="M2116 791 c-4 -5 3 -7 14 -4 23 6 26 13 6 13 -8 0 -17 -4 -20 -9z"/>
<path d="M20 775 c0 -8 -5 -15 -12 -15 -6 0 -9 -3 -6 -6 10 -9 49 16 43 27 -9
14 -25 11 -25 -6z"/>
<path d="M358 783 c7 -3 16 -2 19 1 4 3 -2 6 -13 5 -11 0 -14 -3 -6 -6z"/>
<path d="M135 764 c-16 -8 -39 -24 -50 -34 -11 -11 -29 -18 -40 -16 -11 2 -14
1 -7 -1 7 -3 10 -12 7 -23 -5 -16 -1 -18 22 -16 16 2 32 -3 38 -11 10 -13 13
-13 25 2 7 9 9 15 4 14 -20 -3 -28 2 -15 10 9 6 10 11 2 15 -6 4 -11 2 -11 -3
0 -6 -12 -11 -26 -11 -14 0 -23 4 -19 10 4 6 11 7 17 4 7 -4 8 -2 4 4 -4 7 -1
12 9 12 9 0 14 4 11 9 -7 11 17 21 48 21 13 0 23 6 23 15 0 19 -5 19 -42 -1z"/>
<path d="M572 764 c-12 -8 -27 -12 -32 -9 -6 3 -10 1 -10 -4 0 -6 9 -11 19
-11 11 0 22 -6 25 -12 3 -7 4 -4 3 7 -2 16 4 20 25 19 15 -1 25 2 23 7 -3 4 1
10 7 12 7 3 2 6 -12 6 -14 1 -36 -6 -48 -15z"/>
<path d="M665 770 c-8 -13 15 -13 35 0 12 8 11 10 -7 10 -12 0 -25 -4 -28 -10z"/>
<path d="M991 769 c-13 -5 -34 -20 -47 -34 -18 -19 -19 -25 -7 -29 23 -9 30
-7 13 4 -10 6 -11 10 -2 10 6 0 12 6 12 14 0 16 21 26 57 26 20 0 24 -4 20
-20 -3 -13 0 -20 9 -20 8 0 13 6 12 12 -2 7 7 14 20 16 12 2 22 0 22 -3 0 -4
-10 -15 -22 -26 -14 -12 -17 -18 -8 -17 8 2 20 8 27 15 7 6 18 14 25 16 22 9
-14 28 -45 24 -15 -2 -32 2 -38 10 -13 15 -16 15 -48 2z"/>
<path d="M2865 770 c-3 -5 -3 -10 2 -10 4 0 18 -3 31 -6 14 -4 22 -2 22 7 0 7
-3 9 -6 6 -4 -3 -15 -2 -25 3 -12 7 -20 7 -24 0z"/>
<path d="M1525 747 c-17 -25 -20 -46 -4 -30 8 8 19 6 40 -5 22 -14 31 -14 41
-4 9 9 8 12 -10 13 -41 3 -45 4 -49 16 -2 6 4 13 14 15 17 3 17 4 1 10 -12 5
-22 0 -33 -15z"/>
<path d="M1778 763 c6 -2 18 -2 25 0 6 3 1 5 -13 5 -14 0 -19 -2 -12 -5z"/>
<path d="M2033 763 c-27 -5 -30 -18 -7 -27 29 -11 44 -6 44 14 0 11 -3 19 -7
19 -5 -1 -18 -4 -30 -6z m24 -19 c-3 -3 -12 -4 -19 -1 -8 3 -5 6 6 6 11 1 17
-2 13 -5z"/>
<path d="M2097 752 c4 -9 2 -13 -4 -9 -5 3 -10 0 -10 -8 0 -8 6 -15 14 -15 7
0 13 -5 13 -10 0 -6 8 -10 18 -8 11 2 16 -3 14 -14 -5 -30 36 -23 44 7 8 30
-1 44 -18 27 -7 -7 -16 -12 -20 -12 -14 0 -8 22 10 37 16 14 16 14 0 9 -10 -3
-18 -2 -18 3 0 5 -11 9 -24 9 -18 0 -23 -5 -19 -16z m34 -15 c-13 -13 -26 -3
-16 12 3 6 11 8 17 5 6 -4 6 -10 -1 -17z"/>
<path d="M505 750 c3 -5 8 -10 11 -10 2 0 4 5 4 10 0 6 -5 10 -11 10 -5 0 -7
-4 -4 -10z"/>
<path d="M642 748 c2 -8 -4 -12 -15 -10 -9 2 -20 -4 -23 -13 -7 -18 -40 -20
-47 -2 -3 7 -6 5 -6 -5 -1 -10 3 -18 8 -18 5 0 8 -6 7 -14 0 -8 3 -14 9 -13 5
1 9 8 7 15 -2 7 8 12 25 13 15 0 22 3 16 6 -24 9 -13 23 12 17 19 -5 25 -2 25
9 0 9 -5 19 -10 22 -6 4 -9 1 -8 -7z"/>
<path d="M810 750 c-8 -5 -23 -7 -32 -4 -10 3 -18 1 -18 -4 0 -13 39 -22 46
-11 3 5 10 7 15 4 5 -4 9 1 9 9 0 19 0 19 -20 6z"/>
<path d="M843 754 c3 -4 2 -14 -2 -23 -7 -13 -2 -16 30 -18 37 -2 39 -1 29 17
-6 11 -16 20 -23 20 -8 0 -7 -4 3 -10 18 -11 8 -23 -13 -14 -9 3 -13 12 -10
20 3 8 -1 14 -8 14 -7 0 -9 -3 -6 -6z"/>
<path d="M1240 744 c0 -8 5 -12 10 -9 6 3 10 10 10 16 0 5 -4 9 -10 9 -5 0
-10 -7 -10 -16z"/>
<path d="M1655 750 c3 -5 8 -10 11 -10 2 0 4 5 4 10 0 6 -5 10 -11 10 -5 0 -7
-4 -4 -10z"/>
<path d="M1680 749 c0 -5 5 -7 10 -4 6 3 10 8 10 11 0 2 -4 4 -10 4 -5 0 -10
-5 -10 -11z"/>
<path d="M1724 725 c11 -36 26 -47 26 -20 0 8 5 15 11 15 5 0 7 -6 4 -12 -4
-7 1 -4 9 6 21 26 20 31 -6 33 -18 2 -20 0 -8 -7 13 -8 13 -10 1 -10 -8 0 -22
7 -31 15 -16 14 -16 13 -6 -20z"/>
<path d="M678 738 c5 -5 16 -8 23 -6 8 3 3 7 -10 11 -17 4 -21 3 -13 -5z"/>
<path d="M1163 736 c-13 -6 -23 -16 -23 -23 0 -7 -10 -13 -22 -14 -13 0 -17
-3 -10 -6 9 -3 7 -10 -9 -24 -12 -10 -25 -16 -29 -14 -10 6 -20 -33 -13 -51 8
-22 20 -17 33 16 7 17 16 30 21 30 4 0 11 9 14 20 8 24 24 26 40 3 10 -13 11
-11 7 16 -2 17 1 38 8 46 14 17 14 17 -17 1z"/>
<path d="M1802 729 c2 -13 -5 -26 -17 -33 -22 -13 -49 -36 -41 -36 12 0 56 24
56 30 0 4 10 11 23 15 18 6 19 8 5 12 -10 2 -15 10 -11 19 3 8 0 14 -7 14 -6
0 -10 -10 -8 -21z"/>
<path d="M2710 739 c0 -5 5 -7 10 -4 6 3 10 8 10 11 0 2 -4 4 -10 4 -5 0 -10
-5 -10 -11z"/>
<path d="M2983 730 c1 -11 5 -20 9 -20 4 0 8 9 8 20 0 11 -4 20 -9 20 -6 0 -9
-9 -8 -20z"/>
<path d="M28 733 c7 -3 16 -2 19 1 4 3 -2 6 -13 5 -11 0 -14 -3 -6 -6z"/>
<path d="M135 729 c-11 -4 -14 -8 -7 -8 8 -1 23 -11 33 -23 18 -20 19 -20 11
-3 -5 11 -11 25 -13 31 -3 7 -12 8 -24 3z"/>
<path d="M466 733 c-13 -13 -5 -21 17 -16 12 3 19 2 15 -2 -4 -4 3 -16 15 -26
14 -12 17 -18 8 -19 -11 0 -11 -3 -1 -15 10 -12 7 -15 -15 -21 -14 -3 -24 -11
-22 -17 4 -14 37 -18 34 -4 -1 7 4 11 12 9 10 -2 12 4 7 23 -4 16 -2 25 5 25
6 0 1 9 -12 20 -13 10 -18 19 -11 20 6 0 12 5 12 11 0 6 -6 9 -12 6 -7 -2 -20
-1 -29 4 -9 5 -19 5 -23 2z"/>
<path d="M976 731 c-14 -21 8 -33 30 -15 15 12 16 15 2 10 -9 -3 -18 0 -21 7
-2 8 -6 7 -11 -2z"/>
<path d="M1911 720 c-12 -11 -27 -18 -31 -15 -4 2 -15 -4 -25 -15 -10 -11 -26
-20 -36 -20 -24 0 -30 -12 -13 -27 8 -8 15 -9 19 -3 3 6 15 10 27 10 16 0 19
5 15 21 -5 17 -2 20 14 16 10 -3 17 -1 13 4 -3 5 2 9 10 9 8 0 20 9 26 20 13
25 11 25 -19 0z"/>
<path d="M2246 725 c4 -8 10 -15 15 -15 4 0 6 7 3 15 -4 8 -10 15 -15 15 -4 0
-6 -7 -3 -15z"/>
<path d="M2662 709 c-19 -23 -20 -29 -8 -29 9 0 16 -4 16 -10 0 -5 4 -10 8
-10 5 0 7 15 6 33 -3 29 -3 30 5 7 9 -24 9 -23 8 8 -2 39 -5 39 -35 1z"/>
<path d="M715 720 c-4 -7 -16 -10 -26 -7 -11 3 -17 2 -14 -2 2 -4 -11 -14 -30
-21 -29 -11 -32 -15 -22 -32 7 -10 16 -18 21 -18 4 0 3 6 -3 14 -14 17 4 33
48 42 31 6 48 20 38 30 -3 3 -8 0 -12 -6z"/>
<path d="M1420 720 c-8 -5 -12 -12 -9 -15 4 -3 12 1 19 10 14 17 11 19 -10 5z"/>
<path d="M1447 716 c-3 -8 -3 -23 -1 -33 4 -13 -2 -23 -18 -30 -13 -7 -17 -12
-10 -12 6 -1 21 8 31 18 19 19 20 19 36 1 15 -16 14 -18 -7 -18 -13 0 -39 -7
-58 -15 l-35 -15 55 5 c30 3 59 9 65 14 13 13 27 11 19 -2 -4 -7 -2 -10 6 -7
6 2 18 18 26 36 14 34 11 37 -29 32 -11 -1 -26 8 -34 19 -16 24 -38 27 -46 7z
m88 -46 c3 -6 -1 -7 -9 -4 -18 7 -21 14 -7 14 6 0 13 -4 16 -10z"/>
<path d="M2335 720 c-3 -5 -1 -10 4 -10 6 0 11 5 11 10 0 6 -2 10 -4 10 -3 0
-8 -4 -11 -10z"/>
<path d="M2417 709 c12 -12 24 -21 27 -18 2 2 -8 13 -22 23 l-27 19 22 -24z"/>
<path d="M2468 715 c15 -11 27 -14 33 -8 6 6 5 10 -3 10 -7 0 -22 4 -33 8 -16
6 -16 4 3 -10z"/>
<path d="M740 710 c0 -5 7 -10 16 -10 8 0 12 5 9 10 -3 6 -10 10 -16 10 -5 0
-9 -4 -9 -10z"/>
<path d="M784 699 c-3 -6 -1 -16 6 -22 10 -9 11 -9 6 1 -4 7 -1 12 8 12 8 0
16 -6 19 -12 3 -10 10 -8 23 5 11 10 13 17 6 17 -7 0 -12 -6 -12 -12 -1 -8 -6
-6 -14 5 -15 19 -32 22 -42 6z"/>
<path d="M1030 700 c-10 -6 -11 -10 -2 -10 6 0 12 -5 12 -11 0 -6 -7 -9 -15
-5 -8 3 -15 1 -15 -5 0 -13 68 -8 74 6 2 6 -6 11 -18 11 -12 -1 -20 4 -18 12
2 14 1 15 -18 2z"/>
<path d="M1695 701 c-3 -5 -1 -12 4 -15 5 -3 11 1 15 9 6 16 -9 21 -19 6z"/>
<path d="M2005 700 c-4 -7 -2 -16 6 -21 18 -11 23 -4 11 17 -7 12 -11 13 -17
4z"/>
<path d="M2040 690 c0 -11 5 -20 10 -20 6 0 10 5 10 11 0 5 5 7 10 4 6 -3 10
-2 10 3 0 8 -22 22 -36 22 -2 0 -4 -9 -4 -20z"/>
<path d="M8 693 c7 -3 16 -2 19 1 4 3 -2 6 -13 5 -11 0 -14 -3 -6 -6z"/>
<path d="M413 667 c-2 -26 0 -29 22 -24 14 2 25 0 25 -4 0 -5 -7 -9 -17 -9 -9
0 -14 -3 -11 -6 9 -8 -18 -100 -33 -117 -12 -13 -17 -13 -38 6 -13 12 -21 16
-17 9 7 -11 4 -11 -13 0 -12 7 -24 23 -27 35 -7 26 -33 38 -48 23 -8 -8 -6 -9
8 -4 16 6 18 4 13 -9 -4 -10 -2 -17 5 -17 6 0 9 -3 5 -6 -3 -4 -14 -3 -24 1
-34 15 -49 14 -28 -1 19 -14 17 -15 -27 -12 -39 3 -44 5 -35 17 10 12 9 13 -8
7 -11 -4 -24 -8 -30 -9 -5 -1 -13 -6 -17 -12 -5 -5 -5 6 -2 25 5 33 5 34 -11
15 -8 -11 -13 -25 -11 -32 3 -7 1 -13 -4 -13 -16 0 -25 5 -23 12 3 8 -58 30
-65 24 -2 -3 7 -8 22 -12 28 -7 36 -34 10 -34 -8 0 -12 5 -9 10 3 6 2 10 -3
10 -6 0 -13 -7 -16 -15 -7 -20 32 -36 57 -23 10 5 28 12 40 15 36 8 202 2 205
-8 2 -5 13 -9 23 -9 21 0 68 -46 69 -66 0 -7 -7 -14 -15 -18 -11 -4 -15 1 -15
19 0 26 -42 64 -49 44 -4 -13 19 -30 31 -23 4 3 8 -2 8 -12 0 -12 -3 -14 -13
-5 -10 8 -17 7 -25 -1 -9 -9 -12 -8 -12 7 0 17 -2 16 -25 -5 -29 -27 -32 -45
-9 -54 8 -3 13 -2 10 3 -7 11 25 25 33 14 9 -12 61 -13 61 -2 0 5 9 9 21 9 11
0 17 -4 14 -10 -3 -6 5 -10 19 -10 14 0 28 -4 31 -10 4 -6 -10 -10 -35 -10
-25 0 -39 4 -35 10 3 6 1 10 -4 10 -6 0 -11 -5 -11 -11 0 -5 -4 -8 -9 -5 -4 3
-19 -3 -31 -14 -15 -13 -38 -20 -63 -20 -52 0 -45 -6 15 -12 39 -5 48 -2 53
12 4 12 15 17 37 16 37 -2 52 -26 16 -26 -13 0 -34 -7 -46 -16 -20 -14 -28
-14 -83 0 -33 9 -84 16 -113 16 -29 0 -74 3 -99 6 l-46 7 17 23 c9 13 28 24
40 24 13 0 35 8 48 19 21 16 22 20 9 31 -25 21 -62 3 -94 -46 -17 -25 -31 -49
-31 -54 0 -5 16 -14 35 -20 19 -6 35 -15 35 -20 0 -5 16 -12 35 -16 20 -3 42
-15 49 -26 13 -19 14 -19 18 -1 2 10 -6 26 -17 35 -11 10 -15 17 -9 18 6 0 16
-6 22 -12 6 -8 35 -13 75 -13 36 0 63 -3 60 -7 -2 -5 -12 -8 -22 -8 -10 0 -26
-10 -37 -22 -12 -14 -13 -18 -3 -10 16 12 103 11 168 -4 25 -5 32 -4 27 4 -4
7 -2 12 5 12 7 0 6 8 -5 25 -15 22 -15 25 2 34 9 6 11 11 5 11 -21 0 -15 20 6
20 11 0 21 5 23 10 3 11 58 -10 58 -22 0 -4 -11 -10 -25 -14 -14 -4 -23 -9
-20 -12 3 -3 -5 -12 -17 -19 -17 -9 -19 -12 -7 -13 9 0 22 6 28 14 7 8 21 13
32 11 12 -3 17 0 13 7 -5 7 2 9 20 4 14 -3 26 -5 26 -3 0 2 -38 32 -84 66 -96
71 -119 103 -93 128 9 10 29 17 44 18 17 0 29 6 31 16 2 13 -3 15 -25 12 l-28
-5 33 21 33 22 -23 19 c-14 12 -18 19 -9 20 8 0 11 7 8 20 -3 10 0 21 7 23 17
7 -11 32 -37 32 -17 1 -22 -5 -24 -28z m37 3 c0 -5 -4 -10 -10 -10 -5 0 -10 5
-10 10 0 6 5 10 10 10 6 0 10 -4 10 -10z m5 -90 c3 -5 1 -10 -4 -10 -6 0 -11
5 -11 10 0 6 2 10 4 10 3 0 8 -4 11 -10z m-355 -160 c0 -5 -7 -10 -16 -10 -8
0 -12 5 -9 10 3 6 10 10 16 10 5 0 9 -4 9 -10z m300 -120 c0 -11 7 -20 15 -20
8 0 15 -7 15 -15 0 -19 -4 -19 -40 0 -31 16 -39 40 -17 48 22 10 27 7 27 -13z
m-140 0 c20 -6 21 -8 5 -8 -11 0 -31 4 -45 8 -20 6 -21 8 -5 8 11 0 31 -4 45
-8z m96 -37 c-6 -6 -36 9 -36 18 0 5 9 4 20 -3 10 -7 18 -14 16 -15z"/>
<path d="M854 675 c-12 -13 -20 -26 -17 -29 6 -6 53 35 53 46 0 14 -14 7 -36
-17z"/>
<path d="M904 676 c-15 -18 -15 -19 2 -11 11 4 37 11 59 15 l40 6 -42 5 c-33
3 -46 0 -59 -15z"/>
<path d="M2230 697 c0 -14 20 -46 45 -71 14 -14 25 -20 25 -13 0 6 -10 21 -23
32 -13 11 -29 29 -35 40 -6 11 -12 16 -12 12z"/>
<path d="M2528 693 c6 -2 18 -2 25 0 6 3 1 5 -13 5 -14 0 -19 -2 -12 -5z"/>
<path d="M2713 685 c0 -8 4 -15 9 -15 4 0 8 4 8 9 0 6 -4 12 -8 15 -5 3 -9 -1
-9 -9z"/>
<path d="M205 680 c3 -5 11 -10 16 -10 6 0 7 5 4 10 -3 6 -11 10 -16 10 -6 0
-7 -4 -4 -10z"/>
<path d="M670 675 c-15 -9 -19 -14 -10 -15 8 0 26 -3 40 -6 22 -5 23 -4 7 6
-9 6 -15 15 -12 21 8 12 5 11 -25 -6z"/>
<path d="M737 675 c36 -17 64 -55 39 -55 -8 0 -21 6 -28 14 -21 21 -67 -8 -68
-42 0 -10 3 -10 14 0 8 7 12 16 10 20 -8 12 18 20 29 9 6 -6 19 -11 29 -11 10
0 18 -7 18 -15 0 -8 -4 -15 -10 -15 -5 0 -10 5 -10 12 0 6 -2 9 -5 6 -9 -9 6
-38 20 -38 7 0 18 7 25 15 9 10 9 15 1 15 -6 0 -11 7 -11 15 0 20 30 19 47 -2
13 -16 14 -16 9 -1 -3 12 -1 15 10 11 9 -3 14 1 14 11 0 13 -4 15 -18 7 -13
-7 -23 -6 -30 1 -7 7 -12 8 -12 3 0 -4 -10 3 -22 17 -13 14 -36 28 -53 31
l-30 6 32 -14z"/>
<path d="M1590 680 c-18 -12 -2 -12 25 0 13 6 15 9 5 9 -8 0 -22 -4 -30 -9z"/>
<path d="M1944 683 c3 -4 17 -8 29 -10 17 -2 19 -1 7 7 -17 11 -47 14 -36 3z"/>
<path d="M2201 670 c0 -27 19 -99 37 -140 10 -24 11 -24 11 -2 1 12 -4 22 -10
22 -7 0 -10 14 -7 35 2 19 1 32 -1 29 -3 -3 -11 14 -17 38 -8 29 -12 35 -13
18z"/>
<path d="M2459 688 c0 -2 -2 -13 -3 -26 -2 -20 -1 -21 15 -6 12 11 25 13 41 8
32 -10 68 -11 62 -2 -3 4 -1 8 5 8 14 0 23 -18 16 -30 -4 -7 -13 -7 -26 0 -16
9 -19 7 -18 -12 0 -13 3 -18 5 -11 4 8 10 7 24 -4 19 -17 16 -47 -5 -39 -17 6
-40 -10 -26 -18 6 -4 11 -2 11 4 0 7 6 8 19 1 16 -9 20 -6 24 17 3 15 1 28 -3
30 -5 2 -6 10 -3 18 4 12 8 12 21 2 14 -11 15 -10 8 7 -5 11 -9 25 -9 32 0 8
-18 12 -56 10 -31 -1 -66 2 -78 6 -13 5 -23 7 -24 5z"/>
<path d="M11 657 c-12 -16 -5 -27 18 -27 14 0 14 2 1 10 -12 8 -10 10 8 10 13
0 21 -4 18 -9 -3 -5 2 -8 12 -7 12 1 16 -5 14 -19 -4 -20 -4 -20 12 0 13 18
15 18 16 3 0 -11 5 -15 15 -12 8 4 13 10 10 14 -3 4 10 10 28 12 17 3 41 9 51
13 15 6 17 5 11 -5 -5 -9 -4 -11 3 -6 7 4 12 2 12 -3 0 -6 -6 -11 -12 -11 -9
0 -8 -4 2 -10 13 -9 13 -10 0 -11 -8 -1 -19 -3 -25 -3 -5 -1 -16 -5 -22 -9 -8
-5 -13 -4 -13 2 0 6 -10 11 -22 11 -22 0 -22 0 2 -13 28 -15 92 -19 84 -5 -3
4 0 8 6 8 7 0 10 7 7 15 -4 8 -2 17 3 20 6 4 10 11 10 16 0 6 -4 7 -10 4 -5
-3 -10 -1 -10 4 0 14 -37 14 -45 1 -4 -6 -11 -8 -16 -4 -5 3 -7 10 -4 15 4 5
1 9 -5 9 -7 0 -10 -6 -7 -14 9 -23 -43 -26 -92 -5 -52 23 -46 22 -60 6z"/>
<path d="M941 653 c-5 -10 -12 -17 -15 -15 -3 1 -16 1 -28 1 -21 -1 -21 -2 -3
-7 20 -5 20 -5 0 -13 -17 -7 -16 -8 8 -8 16 -1 26 3 23 8 -3 5 4 11 15 14 13
4 18 10 14 17 -5 9 -1 10 14 5 12 -4 21 -2 21 4 0 18 -38 12 -49 -6z"/>
<path d="M1894 661 c8 -12 -20 -34 -33 -27 -5 4 -12 3 -15 -2 -8 -13 75 -14
106 -1 34 14 37 26 6 24 -13 -2 -22 -7 -21 -12 1 -5 -7 -10 -18 -10 -10 -1
-19 2 -19 8 0 5 5 9 11 9 5 0 7 5 4 10 -3 6 -11 10 -16 10 -6 0 -8 -4 -5 -9z"/>
<path d="M1995 660 c-3 -5 -1 -10 4 -10 6 0 11 5 11 10 0 6 -2 10 -4 10 -3 0
-8 -4 -11 -10z"/>
<path d="M601 652 c-1 -7 -6 -10 -13 -6 -7 4 -8 3 -4 -4 4 -6 -6 -19 -21 -29
-15 -9 -37 -27 -48 -38 -22 -24 -29 -66 -9 -58 8 3 11 -2 7 -16 -6 -23 -38
-29 -47 -8 -3 6 -5 3 -3 -8 1 -13 11 -21 27 -23 14 -2 32 -6 40 -9 8 -3 24 -7
34 -8 11 -1 28 -13 39 -26 11 -13 23 -23 26 -22 4 1 7 -7 7 -18 0 -10 -5 -19
-11 -19 -5 0 6 -10 25 -22 19 -12 37 -22 40 -21 3 0 17 3 33 7 20 5 27 3 27
-9 0 -8 7 -15 16 -15 11 0 14 -5 10 -17 -6 -13 -2 -12 17 5 l24 22 11 -25 c9
-19 9 -25 0 -25 -6 0 -9 -2 -7 -5 3 -2 15 -2 27 2 23 6 23 6 2 20 -11 8 -20
21 -20 29 0 18 16 18 23 1 3 -9 24 -14 56 -16 51 -1 59 5 52 43 -1 5 5 6 14 2
9 -3 23 -6 31 -6 8 0 14 -7 14 -16 0 -11 -6 -14 -22 -9 -20 5 -21 5 -5 -5 20
-13 52 4 41 21 -3 5 -1 9 4 9 5 0 12 -9 15 -20 3 -11 11 -20 17 -20 10 0 10 3
0 15 -11 13 -5 15 41 15 45 0 50 -2 35 -13 -16 -12 -16 -13 3 -13 14 0 21 7
21 18 0 10 7 18 15 18 8 0 15 -5 15 -12 0 -15 15 0 15 15 1 7 7 10 15 8 8 -2
32 -4 52 -5 20 -1 40 -4 44 -8 11 -11 26 -10 19 1 -8 14 23 20 80 17 28 -2 63
-4 80 -5 22 -1 26 -4 17 -13 -10 -10 -38 -14 -116 -17 -16 -1 -16 -3 5 -20 13
-11 26 -17 29 -15 2 3 -2 9 -10 14 -22 14 6 13 32 -1 16 -9 19 -8 13 1 -6 10
-1 12 19 8 18 -4 26 -1 26 9 0 11 52 31 71 26 6 -2 33 67 27 72 -2 2 -28 0
-58 -5 l-55 -9 48 2 c26 1 47 0 47 -2 0 -6 -50 -51 -57 -51 -3 0 1 7 8 17 13
15 7 16 -75 10 -74 -5 -86 -4 -71 7 15 11 16 14 2 19 -19 7 -57 -2 -57 -15 0
-5 6 -6 13 -2 8 5 9 4 2 -4 -19 -20 -513 -23 -500 -3 2 4 -12 5 -31 3 -19 -2
-34 0 -34 6 0 6 -16 9 -37 6 -28 -3 -34 -1 -23 6 13 8 12 10 -2 10 -10 0 -18
-5 -18 -11 0 -6 -5 -7 -12 -2 -7 4 -20 8 -28 8 -8 0 -16 7 -18 15 -2 11 6 16
30 17 68 2 98 6 98 14 0 13 -44 23 -48 10 -2 -6 -10 -11 -18 -11 -9 0 -12 5
-8 12 5 8 2 9 -10 5 -10 -4 -30 -7 -46 -7 -19 0 -30 -6 -32 -17 -2 -13 -9 -10
-35 15 -17 18 -36 32 -41 32 -5 0 -12 9 -15 20 -6 24 5 26 23 5 18 -22 33 -4
21 26 -6 16 -5 32 1 44 9 15 8 17 -11 12 -11 -3 -21 -2 -21 1 0 9 50 32 69 32
10 0 12 3 5 8 -6 4 -14 14 -17 22 -4 10 -6 11 -6 2z m-41 -92 c0 -5 -7 -10
-15 -10 -8 0 -15 5 -15 10 0 6 7 10 15 10 8 0 15 -4 15 -10z m10 -30 c0 -5 -2
-10 -4 -10 -3 0 -8 5 -11 10 -3 6 -1 10 4 10 6 0 11 -4 11 -10z m102 -160 c-2
-10 1 -10 14 1 15 12 17 12 12 -1 -8 -24 -44 -25 -44 0 0 11 5 18 11 16 5 -2
9 -9 7 -16z m79 -9 c7 11 10 9 15 -9 5 -18 9 -21 16 -10 8 10 11 11 15 0 4
-10 8 -10 18 -2 16 13 56 10 56 -5 1 -5 -12 -9 -29 -7 -17 2 -33 -1 -37 -7 -9
-16 -19 -14 -45 9 -23 20 -46 27 -36 11 3 -5 -5 -11 -19 -13 -33 -7 -32 3 3
24 17 11 28 13 31 6 2 -6 7 -5 12 3z m185 -31 c8 0 14 -7 14 -15 0 -8 -9 -15
-20 -15 -11 0 -20 5 -20 10 0 6 -5 10 -11 10 -5 0 -8 -4 -5 -8 3 -5 -1 -9 -8
-9 -11 0 -12 4 -3 19 7 10 18 16 25 13 8 -3 20 -5 28 -5z"/>
<path d="M1135 650 c-3 -6 1 -7 9 -4 18 7 21 14 7 14 -6 0 -13 -4 -16 -10z"/>
<path d="M1254 649 c-3 -6 6 -24 22 -40 20 -21 34 -27 53 -24 21 4 22 4 6 -3
-11 -5 -20 -17 -20 -28 0 -10 -8 -20 -17 -22 -13 -2 -18 3 -18 17 0 12 -5 21
-11 21 -5 0 -7 -6 -4 -12 4 -7 0 -5 -8 5 -17 21 -31 22 -23 2 7 -18 -3 -45
-16 -45 -5 0 -7 13 -3 29 5 22 1 35 -14 50 -10 10 -17 22 -13 25 3 3 -2 6 -11
6 -15 0 -15 -3 -5 -20 7 -11 15 -20 18 -20 3 0 6 -21 7 -47 1 -43 0 -45 -13
-28 -8 10 -14 31 -14 46 0 15 -9 37 -21 50 l-20 24 7 -30 c4 -16 7 -41 8 -55
1 -14 9 -32 20 -40 16 -14 16 -17 3 -29 -9 -7 -25 -10 -37 -6 -27 9 -74 71
-66 90 4 11 -1 15 -19 15 -28 0 -29 -3 -15 -30 8 -15 4 -22 -23 -39 -17 -11
-26 -21 -19 -21 6 0 12 -7 12 -16 0 -11 6 -14 22 -9 17 6 20 4 15 -9 -5 -13 1
-16 29 -16 19 0 43 4 53 10 16 8 17 6 13 -16 -4 -20 -1 -23 13 -17 13 4 16 3
10 -6 -6 -10 -3 -11 11 -3 11 5 36 12 57 16 20 4 37 11 37 15 0 8 41 5 70 -6
8 -3 31 -5 51 -4 25 2 38 -3 42 -13 4 -9 14 -16 24 -15 11 0 13 3 6 6 -7 2
-13 11 -13 19 0 10 -14 14 -50 14 -45 0 -50 2 -51 23 -6 110 -6 108 10 102 9
-4 34 -9 56 -12 22 -3 47 -9 55 -13 8 -5 28 -6 44 -3 18 4 31 1 37 -8 5 -8 9
-9 9 -4 0 6 41 10 108 10 100 0 112 2 185 34 42 19 76 36 74 38 -2 2 -20 -4
-40 -12 -20 -8 -62 -16 -94 -16 -50 -1 -53 -3 -23 -9 l35 -6 -37 -8 c-20 -4
-103 -6 -185 -4 -129 3 -154 6 -194 26 -25 12 -52 22 -61 22 -9 0 -22 7 -29
17 -13 15 -11 16 13 10 14 -4 33 -10 42 -13 9 -3 16 -1 16 6 0 6 5 8 10 5 6
-3 10 1 10 9 0 20 -18 30 -33 18 -15 -12 -87 -21 -87 -11 0 4 10 10 23 12 22
4 22 4 0 6 -12 0 -25 -4 -29 -10z m41 -131 l30 -3 -23 -13 c-21 -12 -25 -11
-38 5 -10 13 -13 14 -14 4 0 -8 -2 -12 -5 -9 -3 3 -2 13 1 22 4 10 10 13 13 8
3 -6 20 -12 36 -14z m-230 -6 c6 -4 11 -15 13 -24 3 -22 -22 -23 -57 -4 -23
13 -23 14 -5 24 22 13 35 14 49 4z m175 -25 c10 -4 8 -6 -7 -6 -16 -1 -23 5
-23 17 0 10 3 13 8 6 4 -6 14 -14 22 -17z m29 -11 c43 5 61 3 61 -5 0 -7 -20
-11 -50 -11 -34 0 -50 -4 -50 -13 0 -7 -11 -14 -25 -15 -13 -1 -28 -3 -32 -4
-14 -5 -15 6 -2 34 9 21 15 25 25 17 8 -6 35 -8 73 -3z m-176 -23 c-7 -2 -19
-2 -25 0 -7 3 -2 5 12 5 14 0 19 -2 13 -5z"/>
<path d="M1025 500 c-3 -5 1 -10 9 -10 9 0 16 5 16 10 0 6 -4 10 -9 10 -6 0
-13 -4 -16 -10z"/>
<path d="M2483 645 c-3 -9 -3 -19 1 -22 3 -4 6 -1 6 6 0 7 5 9 10 6 6 -3 10 1
10 9 0 21 -19 21 -27 1z"/>
<path d="M2723 643 c4 -19 2 -21 -13 -13 -9 5 -20 6 -24 3 -3 -3 -6 -1 -6 5 0
7 -4 12 -10 12 -5 0 -7 -7 -3 -16 3 -8 11 -13 18 -10 8 3 16 -2 19 -10 3 -8 2
-14 -2 -14 -4 0 -8 -11 -8 -25 -2 -35 3 -31 27 21 18 36 19 48 9 57 -10 10
-12 7 -7 -10z"/>
<path d="M1011 639 c17 -11 39 -12 39 -1 0 4 -12 8 -27 9 -19 1 -22 -1 -12 -8z"/>
<path d="M2430 638 c0 -9 7 -19 16 -22 15 -6 15 -4 3 11 -7 10 -15 20 -16 22
-2 2 -3 -3 -3 -11z"/>
<path d="M644 615 c-12 -8 -25 -11 -30 -7 -5 4 -3 0 4 -9 6 -9 9 -19 5 -22 -3
-4 -1 -7 6 -7 7 0 9 -5 5 -11 -4 -8 -12 -3 -21 12 -8 13 -12 16 -9 7 4 -12 0
-18 -12 -18 -14 0 -15 -2 -2 -9 8 -6 18 -7 22 -5 4 3 8 1 8 -5 0 -6 7 -8 15
-5 10 4 14 16 11 40 -3 25 -1 34 10 34 8 0 14 5 14 10 0 13 -2 13 -26 -5z"/>
<path d="M947 608 c-15 -11 -41 -21 -57 -22 -16 -1 -32 -5 -37 -10 -4 -4 12
-6 37 -5 38 3 45 0 42 -14 -2 -9 2 -17 8 -17 18 0 10 -18 -11 -23 -15 -4 -19
-2 -15 8 2 7 -1 18 -8 25 -18 14 -30 -12 -13 -29 6 -6 7 -11 2 -11 -6 -1 4 -7
20 -15 17 -7 24 -14 17 -14 -7 -1 -22 4 -33 10 -16 8 -25 7 -37 -4 -9 -8 -25
-14 -34 -14 -15 0 -15 3 -5 15 10 13 9 14 -10 4 -33 -18 -35 -28 -6 -30 14 -1
32 -10 40 -20 8 -9 16 -12 19 -7 2 6 34 9 71 9 38 -1 60 1 51 3 -10 2 -18 9
-18 14 0 5 -8 4 -18 -2 -12 -7 -33 -9 -55 -5 -42 8 -50 26 -12 26 14 0 25 -4
25 -10 0 -15 12 -12 40 11 16 13 19 19 8 15 -10 -3 -20 -1 -23 3 -6 12 21 22
39 15 8 -3 17 -1 21 5 3 6 0 9 -8 5 -15 -5 -44 22 -34 33 4 3 -1 12 -11 19
-16 11 -15 13 10 23 14 5 29 15 33 20 10 17 -8 12 -38 -11z"/>
<path d="M1630 620 c0 -6 7 -10 15 -10 8 0 15 2 15 4 0 2 -7 6 -15 10 -8 3
-15 1 -15 -4z"/>
<path d="M1720 620 l-25 -8 25 0 c14 0 36 4 50 8 l25 8 -25 0 c-14 0 -36 -4
-50 -8z"/>
<path d="M2510 620 c-9 -6 -10 -10 -3 -10 6 0 15 5 18 10 8 12 4 12 -15 0z"/>
<path d="M2642 614 c2 -10 7 -22 11 -25 4 -3 9 -16 10 -27 1 -12 5 -22 10 -22
14 0 0 59 -19 77 -14 15 -15 14 -12 -3z"/>
<path d="M18 613 c-10 -2 -18 -12 -18 -21 0 -14 2 -14 9 -3 5 8 16 11 26 8 9
-4 14 -3 10 2 -3 5 1 12 7 14 16 7 -10 7 -34 0z"/>
<path d="M1563 613 c9 -2 23 -2 30 0 6 3 -1 5 -18 5 -16 0 -22 -2 -12 -5z"/>
<path d="M998 593 c-27 -32 -28 -41 -7 -46 18 -5 20 -2 15 19 -5 17 -2 24 8
24 8 0 18 5 21 10 11 17 -21 11 -37 -7z"/>
<path d="M2271 570 c11 -19 28 -47 37 -62 10 -16 20 -28 24 -28 11 0 -3 32
-24 56 -10 11 -16 24 -13 27 3 4 2 5 -1 2 -4 -2 -15 6 -26 18 -15 18 -15 16 3
-13z"/>
<path d="M2490 593 c0 -7 -11 -13 -25 -13 -17 0 -25 -5 -25 -17 0 -11 3 -14 8
-7 10 16 41 13 35 -3 -3 -7 5 -23 18 -34 14 -12 25 -16 27 -10 2 6 9 8 15 4
21 -13 55 -14 63 -2 5 9 1 10 -14 7 -12 -4 -22 -2 -22 2 0 5 8 11 18 13 13 4
12 5 -5 6 -12 0 -24 -5 -26 -11 -4 -10 -6 -9 -6 1 -1 11 -4 11 -16 1 -8 -6
-18 -9 -23 -6 -15 9 -20 53 -7 53 7 0 10 -9 7 -20 -3 -13 -1 -18 6 -14 12 8
11 31 -2 34 -5 1 -13 7 -17 15 -7 10 -9 10 -9 1z"/>
<path d="M70 574 c0 -8 5 -12 10 -9 6 4 8 11 5 16 -9 14 -15 11 -15 -7z"/>
<path d="M38 573 c7 -3 16 -2 19 1 4 3 -2 6 -13 5 -11 0 -14 -3 -6 -6z"/>
<path d="M336 565 c4 -8 10 -15 15 -15 4 0 6 7 3 15 -4 8 -10 15 -15 15 -4 0
-6 -7 -3 -15z"/>
<path d="M718 573 c7 -3 16 -2 19 1 4 3 -2 6 -13 5 -11 0 -14 -3 -6 -6z"/>
<path d="M2636 565 c-6 -16 -9 -17 -16 -5 -6 9 -10 10 -10 3 0 -6 4 -14 8 -17
13 -8 35 10 30 25 -3 9 -7 7 -12 -6z"/>
<path d="M679 549 c-9 -9 -23 -19 -30 -23 -8 -3 -10 -8 -4 -11 27 -14 39 -24
33 -30 -10 -10 -58 6 -58 20 0 8 -4 16 -8 19 -5 3 -8 -4 -7 -16 2 -28 49 -52
74 -38 11 5 34 7 53 3 18 -3 30 -2 25 2 -4 5 7 15 25 23 18 8 28 16 21 19 -6
2 -25 -3 -42 -11 -34 -18 -71 -21 -71 -6 0 6 6 10 14 10 8 0 16 7 20 15 3 8
13 15 23 15 15 0 16 2 3 10 -9 6 -17 5 -22 -3 -6 -9 -11 -8 -21 3 -11 14 -14
14 -28 -1z m12 -32 c-16 -16 -26 0 -10 19 9 11 15 12 17 4 2 -6 -1 -17 -7 -23z"/>
<path d="M830 564 c0 -6 -10 -10 -21 -10 -12 1 -24 -5 -26 -11 -3 -7 3 -13 12
-13 9 0 13 5 10 10 -3 6 -1 10 4 10 10 0 15 -13 13 -31 -1 -4 8 -9 18 -12 25
-6 26 2 3 19 -17 12 -16 13 4 14 12 0 25 5 29 12 5 8 2 9 -11 4 -11 -4 -22 -2
-27 6 -4 7 -8 8 -8 2z"/>
<path d="M2993 490 c0 -47 2 -66 4 -42 2 23 2 61 0 85 -2 23 -4 4 -4 -43z"/>
<path d="M370 551 c0 -6 4 -13 10 -16 6 -3 7 1 4 9 -7 18 -14 21 -14 7z"/>
<path d="M1110 541 c0 -5 5 -13 10 -16 6 -3 10 -2 10 4 0 5 -4 13 -10 16 -5 3
-10 2 -10 -4z"/>
<path d="M1359 523 c-13 -16 -12 -17 4 -4 16 13 21 21 13 21 -2 0 -10 -8 -17
-17z"/>
<path d="M1386 510 c-14 -30 -14 -30 15 -30 19 0 29 -5 29 -15 0 -8 7 -15 16
-15 13 0 13 2 -2 17 -11 11 -13 18 -5 21 6 2 11 8 11 13 0 5 -11 4 -25 -1 -24
-9 -25 -8 -19 15 8 34 -1 31 -20 -5z"/>
<path d="M2450 533 c1 -14 27 -43 33 -37 7 7 -14 44 -25 44 -5 0 -8 -3 -8 -7z"/>
<path d="M745 520 c-3 -6 1 -7 9 -4 18 7 21 14 7 14 -6 0 -13 -4 -16 -10z"/>
<path d="M1520 510 c0 -5 5 -10 11 -10 5 0 7 5 4 10 -3 6 -8 10 -11 10 -2 0
-4 -4 -4 -10z"/>
<path d="M1686 491 c-21 -22 -39 -30 -74 -33 -26 -2 -56 0 -67 4 -30 13 -74
-6 -72 -31 1 -16 5 -18 19 -10 23 12 24 23 1 15 -10 -4 -14 -3 -9 1 4 4 18 8
31 8 16 1 21 -3 17 -15 -5 -12 -3 -13 9 -3 11 9 25 10 51 3 33 -9 39 -8 73 22
32 29 62 68 52 68 -2 0 -16 -13 -31 -29z"/>
<path d="M163 485 c-7 -15 -7 -25 -1 -25 16 0 40 29 33 40 -10 16 -19 12 -32
-15z"/>
<path d="M233 503 c-28 -5 -30 -18 -3 -20 11 -1 20 4 20 10 0 7 4 6 10 -3 8
-13 10 -12 10 3 0 9 -3 16 -7 16 -5 -1 -18 -4 -30 -6z"/>
<path d="M110 481 l-24 -19 37 11 c20 7 37 15 37 19 0 14 -24 8 -50 -11z"/>
<path d="M1570 490 c0 -5 5 -10 11 -10 5 0 7 5 4 10 -3 6 -8 10 -11 10 -2 0
-4 -4 -4 -10z"/>
<path d="M431 481 c-8 -5 -9 -11 -3 -15 5 -3 12 1 16 9 6 17 6 18 -13 6z"/>
<path d="M1485 480 c-3 -5 1 -10 9 -10 9 0 16 5 16 10 0 6 -4 10 -9 10 -6 0
-13 -4 -16 -10z"/>
<path d="M2250 480 c20 -13 33 -13 25 0 -3 6 -14 10 -23 10 -15 0 -15 -2 -2
-10z"/>
<path d="M10 465 c-10 -12 -10 -15 2 -15 8 0 15 7 15 15 0 8 -1 15 -2 15 -2 0
-8 -7 -15 -15z"/>
<path d="M207 465 c-9 -8 -22 -15 -31 -15 -8 0 -18 -5 -22 -11 -4 -6 1 -9 12
-8 11 2 25 0 31 -4 9 -6 11 -3 7 7 -4 11 0 16 15 16 12 0 21 4 21 9 0 18 -18
21 -33 6z"/>
<path d="M510 427 c0 -8 6 -20 14 -26 17 -14 86 -27 86 -16 0 12 -41 45 -56
45 -7 0 -19 3 -28 6 -10 4 -16 1 -16 -9z"/>
<path d="M808 423 c6 -2 18 -2 25 0 6 3 1 5 -13 5 -14 0 -19 -2 -12 -5z"/>
<path d="M890 420 c-22 -6 -23 -8 -7 -15 24 -10 115 -1 130 14 8 8 -3 11 -44
10 -29 -1 -65 -4 -79 -9z"/>
<path d="M235 410 c3 -5 8 -10 11 -10 2 0 4 5 4 10 0 6 -5 10 -11 10 -5 0 -7
-4 -4 -10z"/>
<path d="M1860 410 c0 -5 5 -10 11 -10 5 0 7 5 4 10 -3 6 -8 10 -11 10 -2 0
-4 -4 -4 -10z"/>
<path d="M209 408 c0 -2 -2 -11 -4 -21 -3 -15 -1 -16 11 -6 7 6 11 15 8 20 -5
9 -13 12 -15 7z"/>
<path d="M1026 400 c6 -6 21 -6 39 -1 30 9 30 9 -9 10 -26 1 -37 -2 -30 -9z"/>
<path d="M1323 403 c9 -2 23 -2 30 0 6 3 -1 5 -18 5 -16 0 -22 -2 -12 -5z"/>
<path d="M2845 399 c-4 -5 -4 -13 -1 -16 3 -4 6 0 6 8 0 11 2 11 10 -1 6 -9
10 -10 10 -3 0 17 -17 25 -25 12z"/>
<path d="M818 383 c6 -2 18 -2 25 0 6 3 1 5 -13 5 -14 0 -19 -2 -12 -5z"/>
<path d="M1175 380 c3 -5 8 -10 11 -10 2 0 4 5 4 10 0 6 -5 10 -11 10 -5 0 -7
-4 -4 -10z"/>
<path d="M1200 379 c0 -7 19 -8 58 -3 77 9 78 14 4 14 -38 0 -62 -4 -62 -11z"/>
<path d="M60 365 c0 -8 2 -15 4 -15 2 0 6 7 10 15 3 8 1 15 -4 15 -6 0 -10 -7
-10 -15z"/>
<path d="M958 373 c6 -2 18 -2 25 0 6 3 1 5 -13 5 -14 0 -19 -2 -12 -5z"/>
<path d="M1048 373 c23 -2 59 -2 80 0 20 2 1 4 -43 4 -44 0 -61 -2 -37 -4z"/>
<path d="M600 321 c19 -16 42 -30 50 -30 18 0 -9 22 -55 46 -29 15 -29 14 5
-16z"/>
<path d="M2610 340 c-9 -6 -10 -10 -3 -10 6 0 15 5 18 10 8 12 4 12 -15 0z"/>
<path d="M1230 304 c0 -8 5 -12 10 -9 6 3 10 10 10 16 0 5 -4 9 -10 9 -5 0
-10 -7 -10 -16z"/>
<path d="M1284 312 c-6 -4 -11 -15 -11 -26 0 -18 1 -18 14 0 8 11 21 18 30 16
8 -2 12 1 8 7 -7 13 -25 14 -41 3z"/>
<path d="M1358 312 c-10 -2 -18 -7 -18 -12 0 -5 6 -7 14 -4 20 8 30 -14 16
-31 -7 -8 -8 -15 -4 -15 5 0 15 9 22 20 7 11 8 20 3 20 -5 0 -11 6 -13 13 -2
7 -11 11 -20 9z"/>
<path d="M1598 305 c-9 -26 -13 -153 -5 -161 3 -4 0 -23 -7 -43 -31 -86 -35
-102 -24 -99 5 2 20 33 32 68 18 55 21 80 16 160 -3 55 -8 87 -12 75z"/>
<path d="M3 288 c-2 -18 0 -20 7 -8 12 18 13 30 2 30 -4 0 -9 -10 -9 -22z"/>
<path d="M582 294 c-7 -8 -11 -22 -9 -32 4 -14 6 -13 12 6 8 24 21 29 27 10 3
-9 6 -9 11 -1 12 19 -26 34 -41 17z"/>
<path d="M710 301 c0 -5 -17 -12 -37 -16 -32 -6 -35 -8 -20 -17 13 -7 22 -6
32 2 12 10 16 9 21 -4 3 -8 23 -33 44 -55 35 -36 40 -38 59 -24 12 8 26 11 31
8 6 -3 10 -1 10 4 0 6 -5 11 -12 11 -6 0 -4 8 6 19 16 17 16 18 -8 14 -14 -3
-23 -10 -20 -17 3 -7 -2 -18 -10 -25 -13 -11 -21 -7 -48 18 -20 19 -27 31 -18
31 9 0 7 5 -8 16 -18 13 -21 19 -11 30 8 10 8 14 0 14 -6 0 -11 -4 -11 -9z"/>
<path d="M1093 285 c0 -23 1 -24 12 -8 13 18 11 33 -4 33 -5 0 -8 -11 -8 -25z"/>
<path d="M30 280 c0 -13 6 -16 25 -12 28 5 26 17 -5 25 -14 4 -20 0 -20 -13z"/>
<path d="M1184 285 c-18 -15 -18 -15 5 -13 14 2 26 9 29 16 5 17 -10 15 -34
-3z"/>
<path d="M967 276 c-9 -7 -17 -19 -17 -25 0 -6 10 -3 22 9 25 23 22 35 -5 16z"/>
<path d="M1305 280 c-3 -5 -1 -10 4 -10 6 0 11 5 11 10 0 6 -2 10 -4 10 -3 0
-8 -4 -11 -10z"/>
<path d="M1535 280 c3 -4 14 -10 25 -13 11 -3 18 -2 15 3 -3 4 -14 10 -25 13
-11 3 -18 2 -15 -3z"/>
<path d="M190 268 c0 -6 3 -8 7 -5 3 4 12 2 20 -4 10 -9 13 -8 13 5 0 9 -8 16
-20 16 -11 0 -20 -5 -20 -12z"/>
<path d="M887 274 c-3 -4 0 -13 8 -20 18 -18 31 -18 16 -1 -6 8 -8 17 -4 20 3
4 2 7 -4 7 -5 0 -12 -3 -16 -6z"/>
<path d="M1010 267 c0 -8 7 -14 15 -14 8 0 15 6 15 14 0 7 -7 13 -15 13 -8 0
-15 -6 -15 -13z"/>
<path d="M1071 269 c-1 -9 7 -23 17 -30 15 -12 16 -12 6 1 -6 8 -14 22 -17 30
-5 13 -6 12 -6 -1z"/>
<path d="M1130 270 c0 -5 5 -10 10 -10 6 0 10 5 10 10 0 6 -4 10 -10 10 -5 0
-10 -4 -10 -10z"/>
<path d="M480 248 c-12 -22 -12 -22 6 -6 10 10 15 20 12 24 -4 3 -12 -5 -18
-18z"/>
<path d="M536 255 c5 -11 2 -13 -10 -9 -9 3 -16 1 -16 -5 0 -6 5 -11 10 -11 6
0 10 -8 10 -17 1 -17 1 -17 11 0 5 9 17 17 24 17 11 0 10 5 -5 20 -24 24 -31
25 -24 5z"/>
<path d="M1495 260 c-3 -5 -1 -10 4 -10 6 0 11 5 11 10 0 6 -2 10 -4 10 -3 0
-8 -4 -11 -10z"/>
<path d="M603 245 c0 -8 4 -12 9 -9 5 3 6 10 3 15 -9 13 -12 11 -12 -6z"/>
<path d="M1255 250 c-3 -6 1 -7 9 -4 18 7 21 14 7 14 -6 0 -13 -4 -16 -10z"/>
<path d="M678 243 c7 -3 16 -2 19 1 4 3 -2 6 -13 5 -11 0 -14 -3 -6 -6z"/>
<path d="M1200 230 c0 -11 4 -20 9 -20 5 0 7 9 4 20 -3 11 -7 20 -9 20 -2 0
-4 -9 -4 -20z"/>
<path d="M1320 245 c-2 -5 -4 -20 -5 -32 -2 -19 0 -21 18 -12 11 6 15 14 10
18 -6 3 -13 13 -16 21 -3 8 -6 11 -7 5z"/>
<path d="M1410 246 c0 -2 7 -9 15 -16 13 -11 14 -10 9 4 -5 14 -24 23 -24 12z"/>
<path d="M1547 230 c-3 -11 -1 -18 4 -14 5 3 9 0 9 -5 0 -6 5 -11 12 -11 9 0
9 3 1 11 -6 6 -9 18 -6 25 3 8 1 14 -5 14 -5 0 -12 -9 -15 -20z"/>
<path d="M1000 223 c0 -7 4 -13 9 -13 5 0 11 6 14 13 3 8 -1 14 -9 14 -8 0
-14 -6 -14 -14z"/>
<path d="M1376 231 c-4 -7 -5 -15 -2 -18 9 -9 19 4 14 18 -4 11 -6 11 -12 0z"/>
<path d="M10 223 c8 -3 19 -11 23 -17 6 -7 7 -6 4 4 -2 8 -12 16 -23 17 -13 2
-15 1 -4 -4z"/>
<path d="M86 211 c-18 -19 -17 -20 10 -12 15 4 29 12 32 19 6 19 -23 14 -42
-7z"/>
<path d="M190 220 c-13 -8 -12 -10 3 -10 9 0 17 5 17 10 0 12 -1 12 -20 0z"/>
<path d="M640 222 c0 -5 7 -9 15 -9 8 0 15 4 15 9 0 4 -7 8 -15 8 -8 0 -15 -4
-15 -8z"/>
<path d="M923 208 c6 -9 15 -14 19 -12 5 3 6 9 3 14 -3 4 1 10 7 13 7 2 1 4
-13 3 -22 -1 -24 -4 -16 -18z"/>
<path d="M1231 210 c-26 -22 -24 -24 13 -10 14 5 26 14 26 20 0 15 -12 12 -39
-10z"/>
<path d="M50 209 c0 -5 5 -7 10 -4 6 3 10 8 10 11 0 2 -4 4 -10 4 -5 0 -10 -5
-10 -11z"/>
<path d="M239 206 c-16 -11 -21 -56 -6 -56 4 0 12 0 18 0 8 0 7 5 -2 16 -11
14 -11 18 4 29 10 7 15 15 10 18 -5 3 -15 0 -24 -7z"/>
<path d="M385 210 c3 -5 8 -10 11 -10 2 0 4 5 4 10 0 6 -5 10 -11 10 -5 0 -7
-4 -4 -10z"/>
<path d="M449 209 c-20 -12 -8 -16 26 -9 27 5 28 6 9 12 -12 3 -28 2 -35 -3z"/>
<path d="M560 210 c0 -5 5 -10 11 -10 5 0 7 5 4 10 -3 6 -8 10 -11 10 -2 0 -4
-4 -4 -10z"/>
<path d="M590 209 c0 -5 5 -7 10 -4 6 3 10 8 10 11 0 2 -4 4 -10 4 -5 0 -10
-5 -10 -11z"/>
<path d="M1040 211 c0 -5 -3 -17 -7 -27 -5 -14 -2 -13 15 4 26 26 27 32 7 32
-8 0 -15 -4 -15 -9z"/>
<path d="M1117 213 c-4 -3 -7 -11 -7 -17 0 -6 5 -5 12 2 6 6 9 14 7 17 -3 3
-9 2 -12 -2z"/>
<path d="M2810 215 c0 -5 5 -17 10 -25 5 -8 10 -10 10 -5 0 6 -5 17 -10 25 -5
8 -10 11 -10 5z"/>
<path d="M303 202 c-13 -2 -23 -8 -23 -14 0 -6 12 -8 31 -4 17 3 35 6 40 6 5
0 9 4 9 9 0 9 -11 10 -57 3z"/>
<path d="M870 200 c0 -5 5 -10 11 -10 5 0 7 5 4 10 -3 6 -8 10 -11 10 -2 0 -4
-4 -4 -10z"/>
<path d="M1517 196 c-4 -10 -1 -13 8 -9 8 3 12 9 9 14 -7 12 -11 11 -17 -5z"/>
<path d="M146 184 c-3 -8 -10 -12 -16 -9 -5 3 -10 -1 -10 -9 0 -8 -12 -16 -27
-19 l-28 -4 30 -1 c30 -1 75 27 75 47 0 17 -17 13 -24 -5z"/>
<path d="M620 190 c0 -5 5 -10 11 -10 5 0 7 5 4 10 -3 6 -8 10 -11 10 -2 0 -4
-4 -4 -10z"/>
<path d="M1146 185 c4 -8 8 -15 10 -15 2 0 4 7 4 15 0 8 -4 15 -10 15 -5 0 -7
-7 -4 -15z"/>
<path d="M1444 184 c1 -7 5 -16 8 -20 4 -3 4 -12 1 -20 -3 -8 0 -14 6 -14 15
0 33 38 24 53 -11 17 -41 18 -39 1z m36 -14 c0 -5 -4 -10 -9 -10 -6 0 -13 5
-16 10 -3 6 1 10 9 10 9 0 16 -4 16 -10z"/>
<path d="M2846 192 c-3 -5 1 -9 9 -9 8 0 12 4 9 9 -3 4 -7 8 -9 8 -2 0 -6 -4
-9 -8z"/>
<path d="M180 180 c0 -5 5 -10 10 -10 6 0 10 5 10 10 0 6 -4 10 -10 10 -5 0
-10 -4 -10 -10z"/>
<path d="M460 180 c0 -5 5 -10 10 -10 6 0 10 5 10 10 0 6 -4 10 -10 10 -5 0
-10 -4 -10 -10z"/>
<path d="M590 179 c0 -5 5 -7 10 -4 6 3 10 8 10 11 0 2 -4 4 -10 4 -5 0 -10
-5 -10 -11z"/>
<path d="M650 186 c0 -9 30 -14 35 -6 4 6 -3 10 -14 10 -12 0 -21 -2 -21 -4z"/>
<path d="M721 164 c-8 -19 -15 -23 -24 -16 -13 11 -51 0 -62 -18 -11 -17 1
-23 22 -12 11 6 25 7 33 2 8 -5 17 -5 20 0 5 8 26 13 48 11 19 -2 15 -51 -5
-58 -10 -4 -22 -12 -26 -20 -4 -7 -18 -13 -30 -14 -14 0 -17 -2 -7 -6 8 -3 21
-12 28 -21 10 -14 12 -13 12 9 0 16 10 29 31 41 17 10 27 22 24 28 -11 17 5
50 24 50 41 0 62 -57 25 -66 -13 -3 -24 -10 -24 -15 0 -5 13 -3 30 6 36 19 50
19 50 1 0 -9 -18 -16 -57 -21 -31 -4 -66 -11 -77 -16 -16 -7 -13 -8 12 -3 22
4 32 2 32 -7 0 -8 6 -7 18 4 20 18 37 23 28 8 -4 -5 7 -4 22 1 16 6 33 21 38
32 6 15 17 20 34 18 24 -3 24 -2 5 12 -18 13 -21 13 -32 -1 -11 -14 -18 -10
-60 30 -39 38 -49 43 -58 30 -7 -10 -19 -12 -38 -8 -28 7 -36 20 -15 27 8 3 9
6 1 11 -5 3 -15 -5 -22 -19z"/>
<path d="M7 159 c-4 -16 -3 -18 9 -8 7 6 11 15 8 20 -8 13 -11 11 -17 -12z"/>
<path d="M373 173 c-7 -2 -13 -9 -13 -15 0 -14 43 -6 48 10 4 12 -12 15 -35 5z"/>
<path d="M429 163 c-13 -16 -12 -17 4 -4 9 7 17 15 17 17 0 8 -8 3 -21 -13z"/>
<path d="M530 170 c0 -6 7 -10 15 -10 8 0 15 2 15 4 0 2 -7 6 -15 10 -8 3 -15
1 -15 -4z"/>
<path d="M859 153 c-12 -16 -12 -17 1 -7 8 6 22 14 30 17 13 5 12 6 -1 6 -9 1
-23 -7 -30 -16z"/>
<path d="M915 160 c-3 -5 -1 -10 4 -10 6 0 11 5 11 10 0 6 -2 10 -4 10 -3 0
-8 -4 -11 -10z"/>
<path d="M1099 126 c-8 -32 -15 -43 -25 -39 -8 3 -14 0 -14 -6 0 -6 -17 -11
-42 -10 l-43 1 33 10 c35 12 41 28 16 49 -15 12 -16 11 -9 -10 6 -21 5 -23
-17 -19 -21 4 -24 1 -22 -19 2 -20 -2 -23 -32 -23 -25 0 -34 -4 -34 -16 0 -13
6 -15 28 -9 15 4 35 7 45 7 9 0 15 3 12 9 -4 5 -2 9 4 9 5 0 13 -10 16 -21 4
-12 10 -17 14 -11 3 6 18 14 34 17 15 4 24 12 21 17 -4 6 17 9 57 7 37 -2 64
0 64 6 0 6 -17 9 -38 8 -32 -1 -36 1 -26 13 10 12 8 16 -9 21 -12 3 -22 12
-22 20 0 8 4 11 10 8 6 -3 7 1 4 9 -9 24 -13 20 -25 -28z m-46 -73 c-7 -2 -19
-2 -25 0 -7 3 -2 5 12 5 14 0 19 -2 13 -5z"/>
<path d="M42 130 c3 -17 1 -30 -4 -30 -5 0 -6 -5 -3 -10 4 -6 11 -8 16 -5 5 4
9 1 9 -5 0 -6 -13 -13 -30 -16 -17 -4 -30 -12 -30 -18 0 -9 11 -10 45 -2 41
10 62 26 34 26 -7 0 -9 11 -6 26 3 16 0 28 -9 31 -7 2 -10 11 -7 19 3 8 0 14
-7 14 -8 0 -11 -11 -8 -30z"/>
<path d="M301 151 c-9 -6 -10 -10 -2 -16 7 -4 18 -2 25 4 7 6 16 8 19 4 4 -3
7 -1 7 5 0 14 -29 16 -49 3z"/>
<path d="M437 140 c-15 -18 -16 -21 -1 -27 21 -8 38 11 27 31 -8 14 -11 14
-26 -4z"/>
<path d="M1186 145 c-3 -8 -1 -15 4 -15 6 0 10 7 10 15 0 8 -2 15 -4 15 -2 0
-6 -7 -10 -15z"/>
<path d="M1513 143 c-18 -9 -33 -20 -33 -25 0 -12 18 -10 26 3 3 6 20 17 38
25 17 7 24 13 16 13 -8 0 -30 -8 -47 -16z"/>
<path d="M157 136 c-16 -12 -15 -13 8 -13 15 0 25 5 25 13 0 17 -10 17 -33 0z"/>
<path d="M505 140 c-3 -5 1 -10 9 -10 9 0 16 5 16 10 0 6 -4 10 -9 10 -6 0
-13 -4 -16 -10z"/>
<path d="M575 140 c3 -5 8 -10 11 -10 2 0 4 5 4 10 0 6 -5 10 -11 10 -5 0 -7
-4 -4 -10z"/>
<path d="M1414 135 c-10 -8 -14 -15 -8 -15 6 0 17 7 24 15 16 19 9 19 -16 0z"/>
<path d="M886 125 c-3 -8 -1 -15 4 -15 13 0 22 18 11 24 -5 3 -11 -1 -15 -9z"/>
<path d="M1253 122 c-18 -9 -33 -20 -33 -24 0 -14 27 -9 40 7 6 8 17 13 22 12
6 -1 13 4 15 11 6 16 -5 14 -44 -6z"/>
<path d="M1362 129 c-13 -5 -29 -6 -35 -3 -9 5 -9 4 -1 -5 12 -13 64 -5 64 10
0 5 -1 9 -2 8 -2 0 -14 -4 -26 -10z"/>
<path d="M534 105 c-12 -13 -19 -27 -15 -31 3 -3 -13 -3 -36 1 -24 4 -43 3
-43 -2 0 -4 16 -9 37 -11 37 -2 73 19 73 44 0 7 6 15 13 17 6 3 8 6 2 6 -5 0
-20 -10 -31 -24z"/>
<path d="M316 95 c-7 -26 -46 -37 -46 -13 0 9 -3 9 -12 0 -10 -10 -10 -15 2
-22 21 -14 28 -12 48 8 13 13 31 17 67 16 28 -2 40 0 28 2 -13 3 -23 12 -23
20 0 20 -18 18 -22 -3 -3 -15 -4 -15 -19 0 -16 15 -17 15 -23 -8z"/>
<path d="M1530 105 c-10 -13 -9 -15 9 -15 11 0 21 4 21 9 0 18 -18 21 -30 6z"/>
<path d="M178 92 c-16 -17 -16 -18 1 -29 14 -9 20 -7 30 8 11 19 8 40 -7 38
-4 0 -15 -8 -24 -17z"/>
<path d="M2125 101 c-3 -5 -2 -12 3 -15 5 -3 9 1 9 9 0 17 -3 19 -12 6z"/>
<path d="M120 90 c-13 -8 -13 -10 2 -10 9 0 20 5 23 10 8 13 -5 13 -25 0z"/>
<path d="M438 93 c7 -3 16 -2 19 1 4 3 -2 6 -13 5 -11 0 -14 -3 -6 -6z"/>
<path d="M596 88 c3 -5 10 -6 15 -3 13 9 11 12 -6 12 -8 0 -12 -4 -9 -9z"/>
<path d="M682 93 c-12 -2 -30 -15 -38 -29 -18 -26 -40 -33 -30 -9 7 18 -5 20
-22 3 -9 -9 -12 -9 -12 0 0 7 -10 12 -22 11 -19 0 -20 -2 -6 -7 15 -6 13 -9
-10 -20 -16 -7 -29 -18 -29 -26 0 -18 21 -15 45 7 20 18 52 23 52 7 0 -14 61
15 72 34 5 9 18 16 29 16 11 0 17 5 14 10 -3 6 -9 9 -13 9 -4 -1 -17 -4 -30
-6z"/>
<path d="M1273 92 c-26 -4 -30 -17 -7 -26 8 -3 12 -2 9 3 -3 5 5 11 17 13 13
2 19 5 13 9 -5 3 -20 3 -32 1z"/>
<path d="M1380 80 c-14 -10 -27 -15 -31 -9 -10 16 -37 -1 -58 -36 -14 -24 -16
-32 -6 -29 8 3 17 14 20 24 5 14 14 18 39 16 27 -2 36 3 49 26 9 15 15 28 14
28 -1 0 -13 -9 -27 -20z"/>
<path d="M1440 93 c0 -7 5 -15 11 -18 7 -5 4 -14 -7 -26 -9 -11 -14 -22 -11
-25 7 -7 37 20 37 33 -1 13 -30 48 -30 36z"/>
<path d="M1490 90 c0 -5 5 -10 10 -10 6 0 10 5 10 10 0 6 -4 10 -10 10 -5 0
-10 -4 -10 -10z"/>
<path d="M127 57 c-4 -10 4 -14 24 -14 25 0 26 2 11 13 -22 17 -29 17 -35 1z"/>
<path d="M344 52 l-21 -18 31 -10 c59 -20 61 -20 60 4 -1 12 3 22 7 22 5 0 9
5 9 12 0 6 -8 3 -20 -7 -11 -10 -17 -22 -14 -26 7 -11 -7 -11 -24 -1 -7 5 -10
16 -6 25 8 21 4 21 -22 -1z"/>
<path d="M1530 61 c0 -6 -8 -11 -17 -12 -11 0 -7 -5 10 -11 34 -12 45 -5 23
17 -9 9 -16 12 -16 6z"/>
<path d="M1765 60 c-3 -5 6 -21 22 -34 22 -20 29 -21 31 -10 4 16 -24 54 -39
54 -4 0 -11 -4 -14 -10z"/>
<path d="M1100 51 c0 -5 5 -13 10 -16 6 -3 10 -2 10 4 0 5 -4 13 -10 16 -5 3
-10 2 -10 -4z"/>
<path d="M1150 52 c0 -13 20 -38 20 -24 0 6 8 12 17 12 9 0 13 3 9 7 -10 10
-46 14 -46 5z"/>
<path d="M290 29 c0 -17 -4 -19 -22 -13 -13 4 -25 10 -28 15 -7 11 -50 0 -50
-13 0 -6 9 -8 20 -5 11 3 20 2 20 -2 0 -13 59 -11 67 2 11 18 12 37 2 37 -5 0
-9 -9 -9 -21z"/>
<path d="M463 43 c-13 -2 -23 -9 -23 -14 0 -12 2 -12 41 6 33 14 27 17 -18 8z"/>
<path d="M2345 40 c3 -5 10 -10 16 -10 5 0 9 5 9 10 0 6 -7 10 -16 10 -8 0
-12 -4 -9 -10z"/>
<path d="M2590 43 c0 -6 8 -17 18 -24 16 -13 16 -13 2 6 -8 11 -16 22 -17 24
-2 2 -3 0 -3 -6z"/>
<path d="M130 15 c0 -8 7 -15 16 -15 14 0 14 3 4 15 -7 8 -14 15 -16 15 -2 0
-4 -7 -4 -15z"/>
<path d="M1083 23 c9 -2 17 -9 17 -14 0 -6 5 -7 11 -3 14 8 -8 24 -31 23 -11
-1 -10 -3 3 -6z"/>
<path d="M1370 15 c-8 -9 -8 -15 -2 -15 12 0 26 19 19 26 -2 2 -10 -2 -17 -11z"/>
<path d="M460 9 c0 -5 5 -7 10 -4 6 3 10 8 10 11 0 2 -4 4 -10 4 -5 0 -10 -5
-10 -11z"/>
<path d="M678 3 c6 -2 18 -2 25 0 6 3 1 5 -13 5 -14 0 -19 -2 -12 -5z"/>
<path d="M1478 3 c7 -3 16 -2 19 1 4 3 -2 6 -13 5 -11 0 -14 -3 -6 -6z"/>
</g>
</svg>
