<?xml version="1.0" standalone="no"?>
<!DOCTYPE svg PUBLIC "-//W3C//DTD SVG 20010904//EN"
 "http://www.w3.org/TR/2001/REC-SVG-20010904/DTD/svg10.dtd">
<svg version="1.0" xmlns="http://www.w3.org/2000/svg"
 width="300.000000pt" height="180.000000pt" viewBox="0 0 300.000000 180.000000"
 preserveAspectRatio="xMidYMid meet">
<metadata>
Created by potrace 1.10, written by Peter Selinger 2001-2011
</metadata>
<g transform="translate(0.000000,180.000000) scale(0.100000,-0.100000)"
fill="#000000" stroke="none">
<path d="M573 1793 c9 -2 23 -2 30 0 6 3 -1 5 -18 5 -16 0 -22 -2 -12 -5z"/>
<path d="M154 1768 c0 -10 1 -18 3 -18 1 0 7 8 12 18 7 13 6 19 -2 19 -7 0
-13 -9 -13 -19z"/>
<path d="M396 1773 c-6 -14 -5 -15 5 -6 7 7 10 15 7 18 -3 3 -9 -2 -12 -12z"/>
<path d="M415 1761 c-3 -5 -2 -12 3 -15 5 -3 9 1 9 9 0 17 -3 19 -12 6z"/>
<path d="M1458 1758 c12 -15 9 -16 -30 -17 -45 -1 -113 -8 -163 -17 -16 -3
-43 -7 -60 -9 -16 -2 -49 -7 -72 -10 -43 -8 -136 12 -127 26 2 4 -1 11 -7 15
-8 4 -9 3 -5 -4 5 -8 -8 -10 -46 -5 -29 4 -72 7 -95 7 -27 0 -40 4 -36 10 4 6
-1 5 -10 -3 -9 -7 -24 -11 -32 -7 -8 3 -15 1 -15 -3 0 -5 -24 -14 -52 -21
-134 -30 -232 -75 -243 -110 -6 -18 -23 -25 -47 -21 -5 0 -8 -4 -8 -10 0 -5
-4 -8 -9 -4 -5 3 -13 0 -16 -6 -4 -5 -14 -8 -22 -5 -11 5 -13 2 -9 -10 5 -13
2 -15 -16 -11 -21 6 -21 5 -5 -7 16 -13 15 -46 -2 -46 -4 0 -16 -9 -28 -19
-23 -22 -73 -23 -73 -2 0 11 -3 11 -15 1 -13 -11 -14 -10 -9 4 5 13 2 15 -12
10 -11 -4 -26 -12 -34 -18 -13 -10 -13 -9 -1 7 12 15 11 17 -10 18 -23 1 -81
6 -123 12 -12 1 -20 -5 -22 -19 -4 -23 -10 -21 141 -39 17 -2 51 -5 77 -7 27
-2 48 -6 48 -10 0 -5 7 -8 15 -8 8 0 15 5 15 10 0 6 12 23 27 38 16 15 33 36
38 46 6 10 31 30 57 44 27 14 50 34 53 43 6 19 117 79 145 79 9 0 52 9 96 21
93 25 243 22 308 -5 44 -18 99 -20 177 -6 218 39 447 49 797 35 l114 -5 47
-47 c27 -27 72 -79 100 -118 29 -38 70 -90 91 -114 45 -50 96 -146 130 -241
13 -36 38 -82 56 -102 18 -20 40 -51 49 -68 9 -17 32 -52 51 -77 30 -40 34
-52 34 -102 -1 -31 6 -81 15 -111 17 -61 38 -211 39 -278 0 -34 -5 -47 -22
-61 -22 -16 -22 -20 -11 -70 16 -76 35 -118 79 -177 21 -27 50 -73 64 -102 25
-50 35 -59 49 -46 8 8 -42 104 -55 104 -6 0 -7 7 -4 16 3 8 2 13 -2 10 -12 -7
-91 128 -97 166 -3 18 -8 41 -11 50 -3 10 6 32 21 52 22 29 25 41 21 81 -3 26
-11 65 -17 87 -6 22 -8 46 -6 52 3 7 -1 37 -9 67 -8 30 -12 68 -9 84 3 19 2
25 -4 16 -15 -23 -23 6 -16 59 6 43 3 56 -18 93 -14 23 -35 53 -47 67 -12 14
-28 37 -35 51 -8 14 -27 40 -43 57 -25 27 -59 111 -54 135 1 4 -3 7 -9 7 -5 0
-8 4 -5 9 3 5 -1 14 -9 21 -8 7 -15 22 -15 34 0 11 -7 30 -15 41 -29 39 -70
87 -106 124 -20 20 -39 46 -43 58 -4 12 -20 36 -37 54 -16 17 -29 38 -29 47 0
8 -3 13 -6 9 -3 -3 -18 7 -33 22 -38 39 -103 81 -114 74 -10 -6 -70 -6 -300 1
-82 2 -151 6 -153 9 -3 3 -21 1 -40 -3 -20 -5 -37 -4 -40 2 -3 5 -12 4 -22 -4
-13 -11 -14 -11 -8 0 7 11 4 11 -12 1 -17 -11 -24 -10 -39 2 -16 13 -17 12 -5
-3z m-1408 -274 c0 -8 -19 -13 -24 -6 -3 5 1 9 9 9 8 0 15 -2 15 -3z m80 -14
c0 -5 -2 -10 -4 -10 -3 0 -8 5 -11 10 -3 6 -1 10 4 10 6 0 11 -4 11 -10z"/>
<path d="M1056 1742 c-3 -5 1 -9 9 -9 8 0 15 4 15 9 0 4 -4 8 -9 8 -6 0 -12
-4 -15 -8z"/>
<path d="M10 1723 c0 -27 56 -29 63 -3 4 16 2 18 -11 11 -10 -6 -23 -6 -34 0
-14 8 -18 6 -18 -8z"/>
<path d="M185 1701 c-3 -5 -2 -12 3 -15 5 -3 9 1 9 9 0 17 -3 19 -12 6z"/>
<path d="M1500 1695 c6 -8 18 -11 26 -8 18 7 13 12 -16 18 -18 3 -20 2 -10
-10z"/>
<path d="M1615 1701 c-3 -5 -2 -12 3 -15 5 -3 9 1 9 9 0 17 -3 19 -12 6z"/>
<path d="M90 1688 c0 -5 -6 -6 -12 -2 -10 6 -10 4 -2 -7 6 -8 13 -21 16 -29 3
-9 8 -3 15 16 9 25 8 31 -3 31 -8 0 -14 -4 -14 -9z"/>
<path d="M1389 1690 c-9 -6 -6 -8 14 -6 32 3 43 11 18 13 -9 1 -24 -2 -32 -7z"/>
<path d="M2101 1695 c4 -3 -6 -19 -22 -36 -20 -22 -36 -30 -56 -28 -16 1 -36
-2 -47 -6 -11 -5 -21 -3 -26 6 -5 8 -34 15 -73 17 -57 4 -66 2 -76 -16 -6 -10
-7 -22 -4 -26 3 -3 1 -6 -6 -6 -8 0 -11 8 -8 19 4 18 3 18 -27 2 -17 -9 -34
-20 -38 -26 -5 -6 -8 -4 -8 4 0 10 -8 7 -27 -10 -16 -14 -41 -26 -58 -28 -37
-4 -41 -7 -27 -24 9 -10 6 -21 -13 -47 -14 -19 -25 -40 -25 -48 0 -7 -5 -10
-10 -7 -7 4 -9 -2 -4 -19 7 -29 -11 -60 -30 -49 -6 3 -6 0 2 -8 15 -16 16 -33
1 -23 -7 4 -6 -3 2 -17 7 -13 12 -31 11 -39 -2 -12 -1 -12 6 -1 7 9 12 10 16
2 4 -6 1 -18 -7 -26 -9 -8 -13 -23 -11 -32 5 -22 -31 -67 -46 -58 -5 3 -10 1
-10 -4 0 -6 4 -11 9 -11 6 0 6 -12 1 -30 -8 -27 -6 -32 16 -42 28 -13 30 -25
7 -50 -27 -30 -12 -148 19 -148 5 0 3 9 -4 20 -10 15 -10 24 -2 38 10 14 24
17 78 15 37 -1 66 2 66 7 0 6 -3 9 -7 9 -24 -4 -53 2 -48 10 3 5 1 12 -5 16
-5 3 -10 1 -10 -5 0 -6 -10 -10 -22 -9 -13 2 -33 -3 -45 -9 -22 -12 -23 -11
-23 17 0 16 6 31 15 35 8 3 15 12 15 21 0 8 7 15 16 15 8 0 12 4 9 10 -4 6 2
7 17 2 21 -7 39 -8 77 -3 10 1 11 10 7 36 -9 46 1 78 21 70 13 -4 14 -3 3 10
-13 15 -35 22 -26 7 2 -4 -1 -14 -7 -23 -10 -13 -18 -14 -37 -6 -38 15 -58 18
-65 8 -5 -9 20 -21 54 -27 19 -3 57 -42 49 -50 -4 -3 -17 1 -30 10 -13 8 -32
15 -43 15 -11 -1 -31 2 -45 6 -14 4 -20 3 -14 -2 14 -11 24 -39 17 -47 -9 -8
-43 24 -43 40 0 7 18 35 40 63 45 56 47 61 24 61 -8 0 -12 5 -9 10 4 6 15 8
26 5 10 -4 19 -3 19 2 -1 16 -40 54 -50 48 -15 -9 -13 7 12 82 11 38 36 88 54
112 19 24 31 49 27 55 -4 7 -1 7 7 -1 10 -9 18 -8 38 5 14 9 44 17 66 18 49 3
86 13 86 25 0 5 -7 6 -15 3 -8 -4 -15 -1 -15 5 0 6 3 12 8 12 57 9 72 8 65 -4
-4 -6 -6 -19 -5 -28 2 -13 -4 -16 -33 -12 -31 3 -34 2 -23 -11 7 -8 17 -10 23
-6 6 5 17 5 25 0 8 -5 18 -6 22 -4 4 3 8 1 8 -3 0 -5 11 -10 25 -11 21 -1 24
1 17 14 -7 12 -4 23 7 35 15 19 57 27 46 10 -8 -15 4 -18 87 -25 83 -7 122
-17 134 -37 5 -9 2 -10 -12 -5 -41 16 -84 16 -84 1 0 -8 5 -15 10 -15 6 0 10
-5 10 -10 0 -5 -3 -9 -7 -9 -37 6 -67 -26 -41 -43 18 -11 28 -10 28 2 0 5 -3
9 -8 8 -4 -2 -8 2 -9 7 -2 6 3 10 10 10 6 0 18 4 25 9 8 5 18 4 25 -3 8 -8 6
-11 -8 -11 -18 -1 -17 -2 4 -14 15 -8 20 -16 12 -20 -19 -12 -12 -21 19 -23
29 -2 29 -1 15 21 -8 12 -12 26 -8 30 4 4 1 4 -8 1 -10 -4 -15 1 -16 14 -3 31
33 36 66 9 24 -19 38 -40 70 -102 2 -5 -2 -6 -9 -1 -10 6 -12 4 -7 -8 4 -11 1
-17 -8 -17 -8 0 -15 3 -16 8 0 4 -2 15 -4 25 -2 9 2 17 8 17 7 1 1 9 -12 20
-12 11 -28 17 -33 14 -6 -4 -2 -11 9 -18 11 -6 19 -19 17 -30 -5 -35 7 -48 37
-42 29 6 31 4 33 -39 2 -30 21 -34 24 -4 5 40 -33 129 -78 182 -48 59 -91 89
-153 107 -26 8 -47 18 -47 22 0 4 14 15 30 25 34 20 37 28 13 37 -10 4 -15 4
-12 1z m-161 -90 c0 -8 -5 -17 -10 -20 -6 -4 -8 -11 -5 -16 4 -5 1 -9 -5 -9
-7 0 -10 6 -7 14 3 8 -3 17 -16 21 l-22 8 23 4 c12 2 20 9 17 14 -3 5 1 6 9 3
9 -3 16 -12 16 -19z m128 2 c9 -10 4 -13 -23 -13 -19 0 -35 3 -35 6 0 22 42
27 58 7z m112 -77 c13 -8 13 -10 -2 -10 -9 0 -20 5 -23 10 -8 13 5 13 25 0z"/>
<path d="M746 1664 c4 -21 1 -36 -10 -47 -9 -8 -16 -19 -16 -24 1 -4 10 3 20
16 22 26 25 48 10 71 -7 11 -8 6 -4 -16z"/>
<path d="M850 1680 c-12 -8 -10 -10 8 -10 13 0 20 4 17 10 -7 12 -6 12 -25 0z"/>
<path d="M1305 1679 c-4 -6 -5 -12 -2 -15 2 -3 7 2 10 11 7 17 1 20 -8 4z"/>
<path d="M2055 1680 c3 -5 11 -10 16 -10 6 0 7 5 4 10 -3 6 -11 10 -16 10 -6
0 -7 -4 -4 -10z"/>
<path d="M793 1673 c4 -3 2 -12 -5 -20 -8 -11 -7 -12 6 -7 18 7 22 34 4 34 -6
0 -8 -3 -5 -7z"/>
<path d="M977 1665 c-20 -20 -84 -34 -72 -16 6 10 3 11 -12 3 -10 -6 -31 -9
-46 -8 -21 3 -31 -4 -46 -30 -11 -19 -26 -32 -33 -30 -7 1 -10 1 -5 -1 4 -3 4
-10 1 -16 -4 -7 9 3 28 21 31 29 45 35 99 39 35 3 75 6 88 5 18 0 21 2 10 9
-12 8 -12 10 1 18 8 6 12 13 8 16 -3 3 -13 -1 -21 -10z"/>
<path d="M195 1652 c-18 -16 -31 -42 -21 -42 3 0 14 14 26 30 24 34 23 37 -5
12z"/>
<path d="M652 1655 c-12 -9 -27 -15 -34 -14 -30 5 -118 -27 -118 -43 0 -5 13
-2 30 7 16 8 45 15 64 15 23 0 45 9 63 25 31 27 29 33 -5 10z"/>
<path d="M1254 1654 c-18 -15 -18 -15 2 -5 12 6 25 7 29 3 5 -4 5 -1 1 6 -9
15 -8 15 -32 -4z"/>
<path d="M320 1643 c0 -12 3 -13 14 -4 10 8 16 9 19 1 3 -6 5 -6 3 1 -3 18
-36 20 -36 2z"/>
<path d="M717 1646 c-4 -9 -12 -13 -19 -11 -8 3 -22 -2 -33 -11 -20 -16 -20
-16 0 -8 11 3 28 6 38 6 17 -1 35 23 24 34 -2 3 -7 -2 -10 -10z"/>
<path d="M1030 1640 c0 -6 5 -10 11 -10 8 0 8 -5 -1 -15 -18 -22 6 -81 26 -64
11 9 15 7 20 -5 3 -9 10 -16 16 -16 5 0 6 5 2 12 -5 8 0 9 14 6 14 -4 22 -2
22 7 0 8 -14 13 -40 13 -47 1 -60 7 -60 29 0 13 3 13 15 3 13 -10 18 -11 28
-1 9 10 8 11 -5 6 -14 -5 -18 -2 -18 13 0 11 -7 22 -15 26 -8 3 -15 1 -15 -4z"/>
<path d="M1645 1640 c-3 -5 -2 -10 4 -10 5 0 13 5 16 10 3 6 2 10 -4 10 -5 0
-13 -4 -16 -10z"/>
<path d="M146 1625 c4 -8 8 -15 10 -15 2 0 4 7 4 15 0 8 -4 15 -10 15 -5 0 -7
-7 -4 -15z"/>
<path d="M2115 1630 c-3 -5 1 -10 9 -10 9 0 16 5 16 10 0 6 -4 10 -9 10 -6 0
-13 -4 -16 -10z"/>
<path d="M1238 1612 c-48 -6 -31 -17 20 -14 26 2 54 4 62 6 24 4 -52 11 -82 8z"/>
<path d="M940 1599 c0 -5 5 -7 10 -4 6 3 10 8 10 11 0 2 -4 4 -10 4 -5 0 -10
-5 -10 -11z"/>
<path d="M1178 1603 c7 -3 16 -2 19 1 4 3 -2 6 -13 5 -11 0 -14 -3 -6 -6z"/>
<path d="M215 1576 c11 -8 27 -12 37 -11 10 2 18 0 18 -6 0 -5 -11 -7 -25 -5
-14 3 -25 0 -25 -5 0 -5 14 -9 30 -9 17 0 30 5 30 10 0 6 12 10 27 10 53 0 12
14 -72 26 -37 4 -38 4 -20 -10z"/>
<path d="M605 1580 c-3 -6 -24 -8 -46 -5 -27 3 -49 -1 -74 -15 -20 -11 -41
-20 -48 -20 -7 0 -23 -9 -37 -20 -21 -16 -14 -15 39 6 38 16 83 26 111 26 35
-1 53 4 66 19 9 10 12 19 6 19 -6 0 -14 -5 -17 -10z"/>
<path d="M4 1572 c2 -4 26 -9 53 -11 26 -1 51 -8 55 -14 5 -8 8 -8 8 -1 0 7
14 10 39 7 24 -3 42 0 46 8 6 9 2 11 -13 7 -12 -4 -22 -3 -22 0 0 4 -39 8 -86
10 -47 1 -83 -1 -80 -6z"/>
<path d="M669 1563 c-11 -15 -11 -16 1 -5 17 14 34 16 25 2 -10 -16 11 -12 25
5 11 13 9 15 -13 15 -13 0 -31 -8 -38 -17z"/>
<path d="M845 1570 c-3 -5 -1 -10 4 -10 6 0 11 5 11 10 0 6 -2 10 -4 10 -3 0
-8 -4 -11 -10z"/>
<path d="M1426 1565 c-11 -8 -17 -17 -14 -20 2 -3 13 4 23 15 21 23 18 25 -9
5z"/>
<path d="M1466 1571 c-4 -5 2 -10 11 -10 10 0 38 -3 63 -6 25 -4 42 -4 38 0
-3 4 -21 8 -40 10 -18 1 -40 6 -49 10 -10 3 -20 2 -23 -4z"/>
<path d="M787 1563 c-4 -3 -7 -13 -7 -20 0 -12 3 -12 15 1 8 8 15 17 15 20 0
8 -15 7 -23 -1z"/>
<path d="M910 1560 c-9 -6 -10 -10 -3 -10 6 0 15 5 18 10 8 12 4 12 -15 0z"/>
<path d="M1150 1558 c0 -5 7 -8 15 -4 10 3 15 -1 15 -12 0 -11 3 -13 8 -5 7
12 60 11 80 -1 7 -4 12 -2 12 3 0 6 5 11 11 11 5 0 7 -5 4 -10 -4 -7 3 -9 22
-6 15 2 34 5 41 5 7 1 10 6 7 11 -4 6 -12 7 -18 3 -16 -10 -30 -11 -42 -2 -5
4 -32 7 -60 7 -27 1 -60 3 -72 6 -13 3 -23 0 -23 -6z"/>
<path d="M1957 1553 c3 -7 9 -10 14 -7 14 8 11 21 -5 21 -8 0 -12 -6 -9 -14z"/>
<path d="M1995 1536 c0 -22 4 -31 10 -26 13 10 47 -14 37 -26 -4 -5 -3 -5 2
-1 18 14 14 35 -6 40 -11 3 -22 15 -25 26 -8 32 -18 25 -18 -13z"/>
<path d="M815 1540 c-4 -7 18 -22 37 -24 4 -1 13 -10 21 -20 10 -13 16 -15 21
-8 9 15 -1 32 -20 32 -8 0 -14 4 -14 9 0 12 -39 21 -45 11z"/>
<path d="M896 1528 c10 -14 21 -24 23 -22 3 3 -6 15 -18 27 l-24 22 19 -27z"/>
<path d="M2076 1523 c-6 -14 -5 -15 5 -6 7 7 10 15 7 18 -3 3 -9 -2 -12 -12z"/>
<path d="M2396 1523 c-6 -14 -5 -15 5 -6 7 7 10 15 7 18 -3 3 -9 -2 -12 -12z"/>
<path d="M1954 1519 c-3 -6 -1 -16 4 -21 8 -8 11 -5 9 11 -1 24 -3 25 -13 10z"/>
<path d="M470 1505 c-11 -13 -10 -14 4 -9 9 3 16 10 16 15 0 13 -6 11 -20 -6z"/>
<path d="M525 1506 c-22 -8 -57 -21 -78 -30 -22 -10 -36 -12 -32 -7 9 15 -1
14 -35 -4 -17 -9 -30 -19 -30 -24 0 -5 -9 -11 -21 -14 -12 -3 -18 -10 -14 -16
8 -14 56 -3 76 18 9 10 55 30 103 46 47 16 86 32 86 37 0 10 -6 10 -55 -6z"/>
<path d="M651 1509 c-14 -5 -30 -8 -37 -5 -15 6 -49 -30 -36 -38 6 -3 12 0 15
8 4 9 16 13 32 12 14 -2 28 1 31 5 3 5 10 9 16 9 7 0 6 -6 -2 -15 -7 -8 -25
-15 -41 -15 -16 0 -29 -4 -29 -10 0 -12 -2 -12 37 -1 20 6 35 6 38 0 8 -12 25
-11 25 2 0 5 -4 8 -9 4 -5 -3 -12 -1 -15 4 -4 5 -1 13 6 17 17 11 59 14 53 4
-3 -4 2 -11 11 -14 24 -9 31 -7 14 4 -13 9 -13 10 0 10 26 1 -21 23 -54 26
-17 1 -42 -2 -55 -7z"/>
<path d="M950 1510 c0 -5 5 -10 11 -10 5 0 7 -6 3 -12 -5 -9 -2 -9 9 1 9 7 17
19 17 25 0 6 -5 4 -10 -4 -6 -10 -10 -11 -10 -2 0 6 -4 12 -10 12 -5 0 -10 -4
-10 -10z"/>
<path d="M1910 1505 c0 -8 4 -15 10 -15 5 0 7 7 4 15 -4 8 -8 15 -10 15 -2 0
-4 -7 -4 -15z"/>
<path d="M425 1490 c3 -5 8 -10 11 -10 2 0 4 5 4 10 0 6 -5 10 -11 10 -5 0 -7
-4 -4 -10z"/>
<path d="M1033 1493 c-15 -6 -17 -33 -3 -33 6 0 10 5 10 10 0 6 5 10 10 10 6
0 10 -7 10 -15 0 -8 5 -15 11 -15 5 0 7 5 4 10 -10 15 21 23 44 11 14 -8 22
-8 27 1 4 6 3 8 -4 4 -5 -3 -12 -2 -14 3 -4 10 -77 21 -95 14z"/>
<path d="M1652 1487 c-2 -23 -8 -42 -17 -57 -10 -16 -20 -68 -11 -59 3 3 7 15
9 27 2 12 16 36 33 54 16 18 20 26 10 18 -18 -14 -19 -13 -13 2 3 10 3 20 -2
22 -4 3 -8 0 -9 -7z"/>
<path d="M986 1472 c-3 -5 1 -9 9 -9 8 0 15 4 15 9 0 4 -4 8 -9 8 -6 0 -12 -4
-15 -8z"/>
<path d="M1921 1467 c-9 -11 -8 -17 4 -27 10 -9 15 -9 15 -1 0 6 -6 11 -12 11
-9 0 -8 3 2 10 8 5 12 12 9 15 -4 3 -11 -1 -18 -8z"/>
<path d="M1721 1457 c0 -10 -5 -16 -9 -13 -4 2 -9 -6 -10 -19 -1 -13 3 -27 8
-30 6 -4 7 1 3 10 -3 10 0 20 7 25 6 4 10 16 7 26 -4 18 -5 18 -6 1z"/>
<path d="M1741 1454 c0 -11 3 -14 6 -6 3 7 2 16 -1 19 -3 4 -6 -2 -5 -13z"/>
<path d="M2007 1452 c5 -11 7 -11 15 0 7 10 11 10 15 1 2 -7 11 -13 20 -13 13
0 13 2 0 14 -18 19 -57 17 -50 -2z"/>
<path d="M2136 1445 c-3 -8 -1 -15 4 -15 6 0 10 7 10 15 0 8 -2 15 -4 15 -2 0
-6 -7 -10 -15z"/>
<path d="M1275 1440 c3 -5 8 -10 11 -10 2 0 4 5 4 10 0 6 -5 10 -11 10 -5 0
-7 -4 -4 -10z"/>
<path d="M1970 1426 c6 -8 19 -12 27 -9 14 6 14 8 -3 14 -30 12 -37 10 -24 -5z"/>
<path d="M2075 1430 c-3 -5 0 -10 7 -10 8 0 6 -5 -5 -11 -9 -6 -15 -14 -12
-20 9 -14 25 -11 25 5 0 8 8 17 18 19 16 4 16 5 -1 6 -10 0 -15 6 -12 11 3 6
2 10 -4 10 -5 0 -13 -4 -16 -10z"/>
<path d="M430 1421 c0 -6 -6 -11 -14 -11 -7 0 -19 -7 -27 -16 -11 -14 -9 -15
27 -8 21 3 46 10 55 15 18 9 61 1 54 -11 -3 -5 6 -3 19 3 14 7 22 15 18 18
-10 9 -92 16 -92 8 0 -4 -7 -10 -16 -13 -8 -3 -12 -2 -9 3 3 5 1 12 -5 16 -5
3 -10 1 -10 -4z"/>
<path d="M582 1410 c11 -17 48 -25 48 -9 0 5 -9 9 -21 9 -11 0 -18 4 -15 8 3
5 -1 9 -8 9 -11 0 -11 -5 -4 -17z"/>
<path d="M828 1423 c7 -3 16 -2 19 1 4 3 -2 6 -13 5 -11 0 -14 -3 -6 -6z"/>
<path d="M2020 1414 c0 -8 5 -12 10 -9 6 4 8 11 5 16 -9 14 -15 11 -15 -7z"/>
<path d="M1800 1405 c0 -8 2 -15 4 -15 2 0 6 7 10 15 3 8 1 15 -4 15 -6 0 -10
-7 -10 -15z"/>
<path d="M2130 1405 c0 -8 2 -15 4 -15 2 0 6 7 10 15 3 8 1 15 -4 15 -6 0 -10
-7 -10 -15z"/>
<path d="M644 1403 c3 -4 13 -8 20 -9 7 -1 24 -5 37 -8 24 -7 24 -7 -1 8 -25
15 -70 22 -56 9z"/>
<path d="M1838 1403 c7 -3 16 -2 19 1 4 3 -2 6 -13 5 -11 0 -14 -3 -6 -6z"/>
<path d="M1870 1395 c-7 -9 -8 -15 -2 -15 5 0 12 7 16 15 3 8 4 15 2 15 -2 0
-9 -7 -16 -15z"/>
<path d="M4 1388 c-5 -7 -2 -9 9 -5 9 3 17 2 19 -4 3 -8 24 -11 81 -9 35 0 52
-3 59 -14 5 -7 8 -7 8 2 0 7 5 10 10 7 20 -12 60 -15 60 -5 0 16 -22 21 -94
23 -36 1 -66 4 -66 7 0 11 -80 9 -86 -2z"/>
<path d="M730 1396 c0 -2 7 -9 15 -16 9 -7 15 -8 15 -2 0 5 -7 12 -15 16 -8 3
-15 4 -15 2z"/>
<path d="M2213 1384 c15 -8 25 -19 22 -24 -4 -6 -1 -10 4 -10 6 0 11 4 11 9 0
16 -30 41 -48 41 -11 -1 -8 -6 11 -16z"/>
<path d="M1930 1386 c0 -2 7 -7 16 -10 8 -3 12 -2 9 4 -6 10 -25 14 -25 6z"/>
<path d="M1977 1369 c5 -17 2 -20 -13 -16 -64 18 -80 18 -80 -2 0 -16 3 -17
14 -9 10 9 16 8 23 -3 6 -10 9 -10 9 -1 0 8 11 11 36 8 31 -4 35 -2 31 14 -3
11 0 21 7 24 6 2 1 5 -11 5 -17 1 -20 -3 -16 -20z"/>
<path d="M2150 1379 c0 -5 3 -8 8 -5 4 2 12 -7 19 -20 12 -26 5 -30 -42 -25
-20 2 -20 1 0 -13 11 -8 23 -12 27 -10 4 2 9 0 13 -6 3 -5 11 -10 18 -10 6 0
3 6 -7 13 -16 12 -16 15 -4 19 18 8 17 46 -3 59 -19 12 -29 11 -29 -2z"/>
<path d="M1830 1366 c14 -8 27 -12 29 -10 6 6 -1 11 -29 18 l-25 7 25 -15z"/>
<path d="M260 1360 c0 -6 5 -8 10 -5 6 3 10 0 10 -7 0 -9 3 -9 10 2 8 12 10
12 11 -5 0 -11 3 -14 6 -7 2 6 16 12 31 12 40 0 19 11 -32 16 -30 4 -46 2 -46
-6z"/>
<path d="M1690 1349 c-19 -4 -38 -5 -42 -3 -5 3 -8 0 -8 -5 0 -17 4 -26 11
-24 3 1 6 -12 7 -28 1 -27 -1 -29 -16 -17 -15 11 -15 11 -5 -3 7 -9 10 -18 7
-21 -3 -3 3 -5 13 -4 10 0 21 6 25 11 5 6 8 4 8 -5 0 -9 -6 -22 -12 -29 -7 -7
-8 -11 -3 -10 6 2 20 -2 33 -9 12 -7 26 -10 31 -7 5 3 12 -1 14 -7 4 -10 6
-10 6 0 1 6 8 12 17 12 9 0 14 6 11 13 -4 13 -16 13 -59 2 -19 -5 -28 -3 -28
5 0 6 4 9 9 6 5 -3 11 1 14 8 3 8 1 17 -6 19 -7 2 -9 7 -5 11 3 4 17 0 31 -9
13 -8 44 -17 68 -18 29 -1 49 -8 57 -19 7 -10 19 -18 25 -18 7 0 6 4 -3 10 -8
5 -16 15 -16 22 -5 45 -20 63 -46 59 -4 0 -5 5 -2 13 6 16 -21 46 -44 47 -9 1
-26 2 -37 3 -11 2 -36 -1 -55 -5z m89 -30 c17 -17 31 -39 31 -50 0 -10 -1 -19
-2 -19 -2 0 -30 9 -62 19 -48 15 -54 19 -34 23 14 2 36 1 49 -4 l24 -8 -25 20
c-20 16 -21 19 -5 13 20 -6 20 -6 1 15 -29 33 -12 26 23 -9z m-49 3 c0 -5 -11
-14 -25 -20 -14 -6 -25 -17 -25 -24 0 -10 -3 -9 -9 1 -5 8 -7 20 -4 27 4 11
14 15 56 23 4 0 7 -3 7 -7z"/>
<path d="M1260 1341 c0 -6 4 -13 10 -16 6 -3 7 1 4 9 -7 18 -14 21 -14 7z"/>
<path d="M2210 1331 c0 -25 6 -27 13 -6 4 8 2 17 -3 20 -6 4 -10 -3 -10 -14z"/>
<path d="M530 1336 c0 -10 28 -13 41 -5 10 6 7 9 -13 9 -16 0 -28 -2 -28 -4z"/>
<path d="M641 1330 c-9 -5 -4 -7 13 -7 29 0 32 2 13 10 -8 3 -20 2 -26 -3z"/>
<path d="M2360 1332 c0 -12 19 -26 26 -19 2 2 -2 10 -11 17 -9 8 -15 8 -15 2z"/>
<path d="M1986 1312 c18 -11 34 -26 37 -34 2 -7 8 -10 12 -6 10 10 -26 44 -55
53 -22 6 -21 4 6 -13z"/>
<path d="M2033 1324 c9 -9 45 -30 84 -49 35 -16 52 -35 31 -35 -7 0 -26 7 -42
15 -25 14 -27 14 -16 0 10 -12 10 -15 -4 -15 -9 0 -16 -4 -16 -10 0 -14 13
-13 28 2 9 9 12 9 12 -1 0 -9 8 -11 23 -7 38 9 67 -19 67 -64 0 -22 -4 -49 -9
-62 -19 -51 -32 -98 -36 -135 -3 -21 -7 -58 -10 -83 -5 -38 -4 -42 7 -25 6 11
13 31 14 45 3 47 4 51 13 46 4 -3 6 7 4 22 -4 22 -2 24 7 12 9 -12 10 -11 5 8
-4 13 -2 29 5 37 7 9 8 15 1 20 -7 4 -3 21 10 48 14 27 18 42 10 45 -6 2 -11
8 -11 14 0 6 7 7 16 4 15 -6 15 -4 -1 20 -9 15 -12 23 -6 20 6 -4 11 0 11 9 0
9 -5 13 -10 10 -6 -3 -13 1 -16 10 -4 10 -13 14 -28 10 -12 -4 -16 -3 -9 2 8
6 8 14 -2 33 -8 14 -14 20 -15 13 0 -16 -30 -5 -52 20 -10 11 -18 17 -18 14 0
-4 -12 -2 -27 4 -15 6 -24 7 -20 3z"/>
<path d="M2250 1321 c0 -5 9 -11 21 -14 16 -4 18 -3 8 9 -13 16 -29 19 -29 5z"/>
<path d="M1888 1306 c12 -10 26 -15 31 -12 5 4 12 0 14 -6 3 -8 6 -6 6 5 1 10
-6 17 -18 17 -11 0 -28 3 -38 6 -13 5 -12 2 5 -10z"/>
<path d="M2232 1293 c11 -3 15 -11 12 -21 -5 -15 -4 -15 5 -2 16 23 13 30 -11
29 -17 -1 -18 -3 -6 -6z"/>
<path d="M2342 1288 c-14 -14 12 -48 37 -48 12 0 12 3 3 12 -7 7 -12 20 -12
30 0 21 -11 23 -28 6z"/>
<path d="M203 1275 c0 -8 4 -12 9 -9 5 3 6 10 3 15 -9 13 -12 11 -12 -6z"/>
<path d="M1945 1260 c-3 -5 1 -10 10 -10 9 0 13 5 10 10 -3 6 -8 10 -10 10 -2
0 -7 -4 -10 -10z"/>
<path d="M2000 1256 c0 -2 7 -7 16 -10 8 -3 12 -2 9 4 -6 10 -25 14 -25 6z"/>
<path d="M0 1233 c0 -11 29 -16 145 -28 33 -3 83 -8 110 -11 28 -3 58 -5 68
-5 15 0 17 -5 11 -32 -4 -18 -8 -81 -9 -142 -1 -60 -5 -117 -9 -126 -4 -10 -2
-20 3 -24 6 -3 9 -11 6 -16 -4 -5 -2 -9 3 -9 5 0 10 17 10 38 1 20 3 75 6 122
3 47 6 109 7 138 1 28 5 52 10 52 5 0 6 6 4 13 -3 6 -24 13 -48 14 -23 1 -64
3 -92 6 -181 18 -225 19 -225 10z"/>
<path d="M1610 1227 c0 -8 -7 -17 -15 -21 -8 -3 -15 -11 -15 -18 0 -10 2 -10
9 0 7 11 9 11 14 -2 4 -9 12 -16 18 -16 8 0 7 5 -2 17 -8 10 -9 14 -2 10 19
-12 26 12 9 29 -14 13 -16 13 -16 1z"/>
<path d="M1916 1225 c4 -8 11 -15 16 -15 6 0 5 6 -2 15 -7 8 -14 15 -16 15 -2
0 -1 -7 2 -15z"/>
<path d="M1973 1219 c-1 -12 -1 -20 0 -18 2 2 9 12 16 22 11 14 11 17 -1 17
-7 0 -14 -10 -15 -21z"/>
<path d="M2330 1230 c0 -5 5 -10 10 -10 6 0 10 5 10 10 0 6 -4 10 -10 10 -5 0
-10 -4 -10 -10z"/>
<path d="M2003 1215 c-7 -8 -10 -21 -7 -29 5 -13 9 -12 25 7 16 19 18 20 19 4
0 -10 -4 -15 -10 -12 -5 3 -10 -1 -10 -10 0 -17 18 -11 55 20 15 13 16 15 3
12 -9 -3 -24 1 -35 8 -22 18 -25 18 -40 0z"/>
<path d="M2360 1219 c0 -5 5 -7 10 -4 6 3 10 -1 10 -10 0 -10 -5 -13 -12 -9
-7 4 -8 3 -4 -5 4 -6 11 -9 16 -6 4 2 10 -7 13 -20 3 -18 -2 -30 -16 -40 -20
-14 -20 -15 14 -27 18 -7 37 -11 42 -10 4 1 7 -2 7 -7 0 -5 14 -14 31 -20 40
-14 40 -14 32 4 -3 9 -8 14 -10 11 -3 -3 -24 13 -48 35 -31 29 -42 47 -43 71
0 17 -7 35 -14 39 -18 12 -28 11 -28 -2z m54 -87 c3 -5 -1 -9 -9 -9 -8 0 -12
4 -9 9 3 4 7 8 9 8 2 0 6 -4 9 -8z"/>
<path d="M2325 1192 c3 -7 2 -19 -2 -25 -11 -19 -10 -84 1 -83 6 1 11 -3 11
-9 0 -5 -4 -10 -10 -11 -5 0 -16 -2 -22 -2 -7 -1 -13 -10 -13 -19 1 -17 2 -16
15 1 11 15 17 17 29 7 12 -10 16 -8 21 10 5 15 2 26 -7 33 -17 13 -30 54 -18
58 5 2 11 15 15 29 5 20 3 26 -10 26 -10 0 -14 -6 -10 -15z"/>
<path d="M2107 1193 c-2 -5 -3 -20 -2 -35 0 -15 -3 -24 -7 -22 -4 3 -8 -2 -8
-10 0 -9 -4 -16 -10 -16 -5 0 -7 -6 -4 -14 5 -12 9 -12 32 0 15 8 33 14 40 14
20 0 14 31 -8 37 -11 3 -20 9 -20 14 0 15 32 10 52 -8 17 -15 18 -15 7 15 -9
26 -16 32 -39 32 -16 0 -30 -3 -33 -7z"/>
<path d="M500 1172 c0 -11 4 -23 9 -27 6 -3 8 4 6 16 -6 30 -15 37 -15 11z"/>
<path d="M530 1181 c0 -5 7 -11 15 -15 9 -3 15 0 15 9 0 8 -7 15 -15 15 -8 0
-15 -4 -15 -9z"/>
<path d="M585 1182 c-16 -4 -15 -6 10 -17 20 -8 34 -9 43 -2 8 6 12 6 12 -2 0
-7 5 -9 11 -5 8 5 6 10 -5 16 -10 6 -20 7 -23 4 -4 -3 -11 -2 -17 2 -6 5 -20
6 -31 4z"/>
<path d="M1920 1181 c0 -6 4 -13 10 -16 6 -3 7 1 4 9 -7 18 -14 21 -14 7z"/>
<path d="M40 1171 c0 -5 7 -12 16 -15 14 -5 15 -4 4 9 -14 17 -20 19 -20 6z"/>
<path d="M681 1164 c0 -11 3 -14 6 -6 3 7 2 16 -1 19 -3 4 -6 -2 -5 -13z"/>
<path d="M713 1168 c-10 -11 -8 -14 7 -15 11 -1 23 3 26 9 4 6 2 8 -4 4 -5 -3
-12 -1 -14 5 -2 7 -8 7 -15 -3z"/>
<path d="M1720 1170 c0 -5 5 -10 10 -10 6 0 10 5 10 10 0 6 -4 10 -10 10 -5 0
-10 -4 -10 -10z"/>
<path d="M1838 1173 c7 -3 16 -2 19 1 4 3 -2 6 -13 5 -11 0 -14 -3 -6 -6z"/>
<path d="M2075 1170 c3 -5 10 -10 16 -10 5 0 9 5 9 10 0 6 -7 10 -16 10 -8 0
-12 -4 -9 -10z"/>
<path d="M6 1144 c-5 -14 -4 -15 9 -4 17 14 19 20 6 20 -5 0 -12 -7 -15 -16z"/>
<path d="M864 1142 c23 -26 26 -27 26 -5 0 9 -3 13 -7 10 -3 -4 -13 -1 -22 5
-10 8 -9 4 3 -10z"/>
<path d="M85 1141 c-3 -5 0 -13 6 -17 7 -4 9 -3 5 4 -3 5 0 13 6 15 9 4 10 6
1 6 -6 1 -14 -3 -18 -8z"/>
<path d="M152 1126 c15 -13 25 -26 22 -28 -2 -3 3 -5 11 -5 22 0 13 20 -13 32
-12 5 -22 13 -22 17 0 5 -6 8 -12 8 -7 0 -1 -11 14 -24z"/>
<path d="M906 1142 c-3 -5 1 -9 9 -9 8 0 12 4 9 9 -3 4 -7 8 -9 8 -2 0 -6 -4
-9 -8z"/>
<path d="M1950 1142 c0 -5 8 -16 18 -25 16 -15 19 -15 19 -2 0 8 -5 15 -11 15
-6 0 -4 5 4 10 12 8 11 10 -7 10 -13 0 -23 -4 -23 -8z"/>
<path d="M493 1125 c0 -8 4 -15 9 -15 4 0 8 4 8 9 0 6 -4 12 -8 15 -5 3 -9 -1
-9 -9z"/>
<path d="M950 1136 c0 -2 9 -6 20 -9 11 -3 18 -1 14 4 -5 9 -34 13 -34 5z"/>
<path d="M1028 1123 c7 -3 16 -2 19 1 4 3 -2 6 -13 5 -11 0 -14 -3 -6 -6z"/>
<path d="M1120 1113 c0 -15 2 -15 9 -4 8 12 12 12 25 2 9 -8 16 -9 16 -3 0 10
-23 22 -41 22 -5 0 -9 -8 -9 -17z"/>
<path d="M1706 1114 c-5 -14 -4 -15 9 -4 17 14 19 20 6 20 -5 0 -12 -7 -15
-16z"/>
<path d="M1798 1113 c7 -3 16 -2 19 1 4 3 -2 6 -13 5 -11 0 -14 -3 -6 -6z"/>
<path d="M1901 1104 c0 -11 3 -14 6 -6 3 7 2 16 -1 19 -3 4 -6 -2 -5 -13z"/>
<path d="M1265 1100 c-3 -6 1 -7 9 -4 18 7 21 14 7 14 -6 0 -13 -4 -16 -10z"/>
<path d="M1755 1101 c-3 -5 -2 -12 3 -15 5 -3 9 1 9 9 0 17 -3 19 -12 6z"/>
<path d="M74 1091 c4 -5 2 -11 -3 -13 -13 -4 -21 -78 -9 -78 6 0 8 7 4 15 -3
10 1 15 12 16 10 0 12 3 5 6 -7 2 -13 9 -13 14 0 6 5 7 10 4 6 -4 10 5 10 19
0 14 -5 26 -11 26 -5 0 -8 -4 -5 -9z"/>
<path d="M641 1084 c0 -11 3 -14 6 -6 3 7 2 16 -1 19 -3 4 -6 -2 -5 -13z"/>
<path d="M1350 1091 c0 -5 15 -7 33 -4 45 7 47 13 4 13 -20 0 -37 -4 -37 -9z"/>
<path d="M2040 1100 c-1 -3 -4 -18 -6 -35 -3 -16 -9 -43 -14 -59 -19 -55 14
-63 55 -13 15 17 37 34 48 37 18 5 18 7 4 18 -13 11 -19 10 -36 -7 -23 -23
-30 -17 -42 33 -4 17 -8 29 -9 26z"/>
<path d="M2135 1080 c4 -6 11 -8 16 -5 14 9 11 15 -7 15 -8 0 -12 -5 -9 -10z"/>
<path d="M214 1041 c0 -15 5 -28 11 -28 7 0 10 10 7 24 -6 34 -18 37 -18 4z"/>
<path d="M493 1052 c-6 -11 -8 -24 -3 -33 12 -19 22 -6 18 25 -3 25 -4 25 -15
8z"/>
<path d="M1720 1060 c0 -6 7 -10 15 -10 8 0 15 2 15 4 0 2 -7 6 -15 10 -8 3
-15 1 -15 -4z"/>
<path d="M1689 1047 c6 -6 30 -17 53 -24 30 -8 38 -9 29 0 -6 6 -30 17 -53 24
-30 8 -38 9 -29 0z"/>
<path d="M1840 1044 c0 -8 5 -12 10 -9 6 4 8 11 5 16 -9 14 -15 11 -15 -7z"/>
<path d="M2237 1046 c-4 -10 1 -12 14 -9 23 6 24 9 5 16 -8 3 -17 0 -19 -7z"/>
<path d="M2364 1046 c-7 -17 13 -49 26 -41 4 2 16 -2 26 -10 17 -12 18 -14 2
-20 -9 -4 -15 -12 -13 -18 3 -7 6 -24 9 -39 5 -29 0 -29 -54 -1 -15 8 -26 9
-28 3 -5 -15 -19 -12 -26 6 -4 9 -1 23 5 30 8 10 8 14 0 14 -6 0 -11 -5 -11
-11 0 -5 -5 -7 -12 -3 -6 4 -8 3 -5 -3 7 -10 -21 -42 -30 -35 -3 2 -8 0 -11
-4 -4 -4 -1 -4 6 0 6 4 12 2 12 -4 0 -14 -25 -40 -38 -40 -5 0 -15 -7 -22 -15
-10 -12 -10 -15 0 -15 8 0 10 -3 7 -6 -4 -4 -13 -1 -22 6 -9 7 -16 11 -18 9
-1 -2 -7 -13 -13 -24 -6 -11 -21 -21 -33 -23 -12 -2 -19 -7 -16 -12 6 -9 -12
-23 -33 -26 -10 -2 -10 1 -2 10 8 10 5 12 -16 8 -15 -3 -21 -8 -14 -12 16 -10
-8 -26 -50 -33 -19 -3 -44 -9 -54 -13 -12 -4 -17 -4 -13 2 3 5 -2 10 -11 11
-129 12 -183 13 -178 5 3 -5 29 -13 58 -17 94 -13 103 -15 132 -23 23 -6 34
-4 48 10 10 10 28 18 41 18 19 0 17 -3 -11 -17 -18 -8 -31 -18 -28 -20 7 -7
139 67 167 93 28 27 39 30 39 11 0 -26 37 -49 67 -43 43 10 91 -28 138 -107
46 -78 69 -91 29 -17 -33 60 -26 79 8 21 13 -22 28 -41 33 -41 6 0 20 -18 33
-40 12 -22 35 -55 50 -72 15 -18 38 -54 51 -80 13 -26 31 -54 41 -63 17 -16
18 -15 16 1 -2 10 -8 20 -14 22 -7 2 -12 11 -12 20 0 22 -57 111 -75 118 -7 3
-12 11 -9 18 6 17 -67 110 -76 96 -4 -7 -15 3 -28 24 -12 20 -30 40 -39 43
-10 4 -27 16 -38 26 -25 24 -102 60 -114 53 -14 -9 -28 17 -28 51 0 20 5 29
13 26 15 -5 65 47 57 60 -3 5 5 2 18 -6 13 -8 40 -18 59 -22 93 -19 159 -81
221 -207 21 -45 48 -90 59 -100 20 -18 20 -18 20 6 0 13 -4 26 -8 28 -5 2 -12
18 -15 37 -6 28 -4 32 9 27 14 -5 15 -4 4 9 -7 9 -10 18 -7 21 8 9 -20 81 -45
117 -13 18 -23 35 -23 39 0 3 -11 16 -24 27 -13 12 -20 21 -16 21 5 0 2 6 -6
13 -9 6 -29 30 -46 52 -17 22 -49 50 -72 63 -36 20 -42 21 -47 8z m83 -48 c17
-18 43 -55 58 -81 15 -27 34 -51 41 -54 8 -3 12 -9 9 -13 -3 -4 2 -10 10 -14
8 -3 15 -12 15 -21 0 -8 5 -15 11 -15 12 0 39 -61 39 -87 -1 -17 -2 -16 -15 1
-16 22 -20 14 -6 -12 4 -9 11 -30 15 -46 6 -26 6 -27 -9 -12 -9 9 -19 31 -22
50 -3 20 -14 43 -24 52 -11 9 -19 22 -19 28 0 6 -20 33 -45 59 -25 27 -45 53
-45 58 0 5 -6 9 -14 9 -8 0 -17 7 -20 16 -9 24 -7 54 4 54 18 0 10 29 -12 44
-12 9 -18 16 -12 16 5 0 24 -15 41 -32z"/>
<path d="M2465 940 c9 -16 18 -30 21 -30 2 0 -2 14 -11 30 -9 17 -18 30 -21
30 -2 0 2 -13 11 -30z"/>
<path d="M1559 1039 c-11 -7 -9 -9 6 -9 24 -1 121 -55 119 -67 -3 -13 34 -45
40 -35 3 5 -10 27 -29 50 -38 43 -111 77 -136 61z"/>
<path d="M1790 1031 c0 -5 7 -12 16 -15 14 -5 14 -9 3 -24 -7 -9 -9 -14 -5
-10 5 4 15 3 22 -3 13 -11 13 1 0 33 -8 18 -36 33 -36 19z"/>
<path d="M2507 1033 c-4 -3 -7 -11 -7 -17 0 -6 5 -5 12 2 6 6 9 14 7 17 -3 3
-9 2 -12 -2z"/>
<path d="M1910 1019 c0 -5 5 -7 10 -4 6 3 10 8 10 11 0 2 -4 4 -10 4 -5 0 -10
-5 -10 -11z"/>
<path d="M100 1000 c6 -11 15 -20 20 -20 14 0 12 9 -4 26 -21 20 -28 17 -16
-6z"/>
<path d="M1540 1010 c-8 -5 -10 -10 -5 -10 6 0 17 5 25 10 8 5 11 10 5 10 -5
0 -17 -5 -25 -10z"/>
<path d="M11 984 c0 -11 3 -14 6 -6 3 7 2 16 -1 19 -3 4 -6 -2 -5 -13z"/>
<path d="M2275 990 c3 -5 10 -10 16 -10 5 0 9 5 9 10 0 6 -7 10 -16 10 -8 0
-12 -4 -9 -10z"/>
<path d="M2561 964 c0 -11 3 -14 6 -6 3 7 2 16 -1 19 -3 4 -6 -2 -5 -13z"/>
<path d="M230 966 c0 -2 7 -6 15 -10 8 -3 15 -1 15 4 0 6 -7 10 -15 10 -8 0
-15 -2 -15 -4z"/>
<path d="M491 960 c-1 -8 -4 -26 -7 -40 -5 -22 -4 -23 6 -7 6 10 9 28 7 40 -2
12 -5 15 -6 7z"/>
<path d="M2602 919 c6 -16 12 -28 14 -26 5 5 -13 57 -20 57 -3 0 0 -14 6 -31z"/>
<path d="M1847 929 c7 -7 15 -10 18 -7 3 3 -2 9 -12 12 -14 6 -15 5 -6 -5z"/>
<path d="M2037 927 c-3 -7 3 -18 12 -24 16 -10 17 -8 13 13 -5 26 -17 32 -25
11z"/>
<path d="M1573 914 c0 -7 5 -10 11 -7 19 12 57 12 50 1 -4 -7 -2 -8 4 -4 23
14 12 23 -26 23 -25 0 -39 -4 -39 -13z"/>
<path d="M2180 914 c0 -8 5 -12 10 -9 6 4 8 11 5 16 -9 14 -15 11 -15 -7z"/>
<path d="M400 890 c0 -5 5 -10 11 -10 5 0 7 5 4 10 -3 6 -8 10 -11 10 -2 0 -4
-4 -4 -10z"/>
<path d="M2022 884 c-8 -8 -11 -22 -8 -31 5 -13 4 -14 -8 -4 -12 10 -13 9 -9
-9 4 -15 10 -19 22 -14 9 3 21 7 27 7 6 0 9 9 6 19 -2 10 -9 15 -14 12 -6 -4
-8 2 -3 15 8 25 5 26 -13 5z"/>
<path d="M876 882 c-3 -5 1 -9 9 -9 8 0 12 4 9 9 -3 4 -7 8 -9 8 -2 0 -6 -4
-9 -8z"/>
<path d="M1550 880 c0 -5 9 -10 19 -10 11 0 23 5 26 10 4 6 -5 10 -19 10 -14
0 -26 -4 -26 -10z"/>
<path d="M836 867 c3 -10 9 -15 12 -12 3 3 0 11 -7 18 -10 9 -11 8 -5 -6z"/>
<path d="M1050 869 c0 -5 5 -7 10 -4 6 3 10 8 10 11 0 2 -4 4 -10 4 -5 0 -10
-5 -10 -11z"/>
<path d="M1621 861 c-25 -7 -42 -31 -19 -27 19 3 54 24 48 29 -3 2 -16 1 -29
-2z"/>
<path d="M1718 863 c7 -3 16 -2 19 1 4 3 -2 6 -13 5 -11 0 -14 -3 -6 -6z"/>
<path d="M1921 857 c-1 -11 -6 -15 -13 -11 -7 4 -8 3 -4 -4 5 -9 13 -9 27 -2
10 6 19 13 19 16 0 3 -4 3 -9 0 -5 -4 -12 0 -14 6 -3 8 -6 6 -6 -5z"/>
<path d="M2949 868 c-4 -12 -5 -57 0 -53 6 6 10 55 4 55 -1 0 -3 -1 -4 -2z"/>
<path d="M484 835 c4 -35 16 -44 16 -12 0 14 -4 28 -9 32 -5 3 -8 -6 -7 -20z"/>
<path d="M2255 835 c-14 -13 -25 -30 -25 -37 1 -8 7 -5 18 7 10 11 22 21 27
22 61 10 80 11 88 6 5 -3 4 -9 -3 -13 -8 -5 -7 -9 5 -13 9 -4 13 -3 10 3 -3 6
1 10 9 10 9 0 16 -4 16 -10 0 -5 16 -25 36 -44 19 -19 31 -37 25 -40 -5 -4
-20 4 -32 16 -12 13 -18 16 -14 8 4 -8 -2 -5 -14 8 -12 12 -30 22 -40 22 -10
0 -21 3 -25 7 -11 11 -45 13 -51 3 -3 -6 3 -10 15 -10 51 0 213 -144 259 -230
13 -25 29 -52 35 -60 7 -8 21 -32 31 -52 21 -42 41 -51 31 -15 -3 12 -6 27 -6
34 0 7 -7 10 -15 7 -8 -4 -15 -1 -15 5 0 6 7 11 16 11 11 0 14 6 9 23 -11 34
-29 47 -21 15 11 -48 -12 -31 -31 22 -10 28 -21 50 -25 50 -5 0 -8 6 -8 14 0
8 -8 21 -18 28 -10 7 -22 20 -27 28 -8 13 -7 13 11 0 19 -14 19 -14 0 7 -10
12 -31 25 -47 28 -23 5 -26 9 -16 19 9 11 14 10 25 -3 8 -9 2 5 -12 30 -14 26
-23 48 -21 51 11 11 -44 46 -87 57 -68 16 -86 14 -113 -14z m255 -159 c0 -3
-4 -8 -10 -11 -5 -3 -10 -1 -10 4 0 6 5 11 10 11 6 0 10 -2 10 -4z"/>
<path d="M857 843 c-4 -3 -7 -17 -7 -30 0 -16 -4 -22 -12 -17 -7 5 -9 2 -5 -9
5 -13 -1 -15 -43 -12 -27 3 -52 0 -55 -6 -4 -5 -16 -7 -28 -3 -12 4 -40 8 -62
9 -22 0 -46 4 -52 8 -6 4 -14 3 -18 -2 -3 -6 -41 -8 -86 -6 -45 2 -93 -1 -107
-6 -18 -7 -31 -5 -49 6 -19 13 -24 13 -29 2 -3 -10 -26 -14 -77 -15 -94 -2
-168 -9 -189 -17 -12 -5 -18 -2 -18 6 0 11 -3 11 -10 -1 -5 -8 -10 -18 -10
-22 0 -11 39 -20 52 -11 7 4 27 9 43 10 17 1 48 4 70 7 101 10 482 17 505 8
16 -6 43 -6 77 1 44 9 58 8 88 -6 32 -15 38 -15 58 -2 34 22 157 34 303 30
113 -3 139 -7 195 -30 35 -14 86 -30 114 -36 54 -10 77 -25 58 -37 -7 -5 -9
-13 -4 -21 5 -7 6 -21 4 -31 -4 -15 1 -19 26 -18 17 1 34 -2 38 -5 3 -4 18 2
32 12 14 10 33 21 41 24 8 3 -2 6 -22 6 -22 1 -40 -5 -45 -13 -7 -12 -13 -10
-38 9 -33 27 -28 44 9 27 13 -6 42 -8 66 -5 45 6 60 27 52 70 -3 18 -9 22 -25
17 -11 -3 -38 -6 -61 -6 -32 1 -37 -1 -23 -9 9 -6 25 -9 35 -8 33 3 52 -1 52
-11 0 -16 -47 -33 -67 -25 -10 4 -26 9 -36 10 -11 1 -22 6 -25 12 -6 8 -27 18
-62 28 -3 1 -25 6 -48 10 -24 4 -52 17 -63 28 -10 12 -19 15 -19 9 0 -18 -25
-15 -41 5 -8 9 -9 14 -3 10 11 -6 26 14 28 38 1 6 6 10 13 10 6 0 14 3 18 7 9
9 -17 5 -33 -5 -7 -5 -10 -12 -7 -17 3 -4 -6 -11 -20 -14 -14 -4 -25 -11 -25
-16 0 -18 -29 -11 -51 13 -12 12 -19 16 -15 9 4 -7 1 -15 -8 -18 -26 -10 -62
4 -75 28 -6 13 -9 15 -7 6 7 -24 -21 -45 -42 -31 -10 6 -16 16 -14 22 4 20
-16 11 -21 -9 -7 -27 -58 -29 -52 -2 2 12 -3 18 -16 19 -12 1 -19 -5 -19 -17
0 -23 -18 -35 -47 -32 -12 2 -34 -5 -48 -14 -34 -22 -46 -7 -34 44 8 38 7 47
-4 35z m158 -32 c3 -5 1 -12 -5 -16 -5 -3 -10 1 -10 9 0 18 6 21 15 7z"/>
<path d="M1265 840 c-3 -6 1 -7 9 -4 18 7 21 14 7 14 -6 0 -13 -4 -16 -10z"/>
<path d="M1555 840 c-3 -5 -2 -10 4 -10 5 0 12 -12 14 -27 4 -27 4 -26 6 4 1
32 -13 52 -24 33z"/>
<path d="M1410 830 c0 -5 7 -7 15 -4 8 4 15 8 15 10 0 2 -7 4 -15 4 -8 0 -15
-4 -15 -10z"/>
<path d="M2630 820 c6 -11 12 -20 14 -20 2 0 2 9 -1 20 -3 11 -9 20 -15 20 -5
0 -4 -9 2 -20z"/>
<path d="M910 820 c0 -5 5 -10 10 -10 6 0 10 5 10 10 0 6 -4 10 -10 10 -5 0
-10 -4 -10 -10z"/>
<path d="M310 810 c0 -5 5 -10 10 -10 6 0 10 5 10 10 0 6 -4 10 -10 10 -5 0
-10 -4 -10 -10z"/>
<path d="M760 811 c0 -6 4 -13 10 -16 6 -3 7 1 4 9 -7 18 -14 21 -14 7z"/>
<path d="M1760 811 c0 -6 4 -13 10 -16 6 -3 7 1 4 9 -7 18 -14 21 -14 7z"/>
<path d="M2023 810 c-23 -5 -54 -16 -70 -25 l-28 -15 38 5 c21 3 47 10 57 15
10 6 28 10 39 10 12 0 21 5 21 10 0 11 2 11 -57 0z"/>
<path d="M1648 793 c10 -4 9 -8 -5 -18 -16 -12 -15 -13 10 -8 22 4 25 8 16 19
-6 8 -17 14 -23 13 -6 0 -6 -3 2 -6z"/>
<path d="M1700 779 c0 -5 5 -7 10 -4 6 3 10 8 10 11 0 2 -4 4 -10 4 -5 0 -10
-5 -10 -11z"/>
<path d="M2487 778 c6 -7 27 -44 48 -83 38 -71 71 -118 41 -58 -9 18 -16 34
-15 35 3 4 -39 81 -54 101 -8 9 -18 17 -22 17 -4 0 -3 -6 2 -12z"/>
<path d="M1978 763 c-10 -2 -18 -8 -18 -13 0 -5 14 -4 30 1 45 16 36 25 -12
12z"/>
<path d="M1536 747 c3 -10 9 -15 12 -12 3 3 0 11 -7 18 -10 9 -11 8 -5 -6z"/>
<path d="M1128 743 c6 -2 18 -2 25 0 6 3 1 5 -13 5 -14 0 -19 -2 -12 -5z"/>
<path d="M1073 733 c9 -2 23 -2 30 0 6 3 -1 5 -18 5 -16 0 -22 -2 -12 -5z"/>
<path d="M1190 732 c0 -4 9 -8 20 -9 11 -1 20 2 20 8 0 5 -9 9 -20 9 -11 0
-20 -4 -20 -8z"/>
<path d="M1240 731 c0 -9 61 -22 69 -15 7 6 -2 11 -36 17 -18 4 -33 3 -33 -2z"/>
<path d="M901 721 c-8 -6 -9 -11 -3 -15 6 -3 14 -1 17 5 9 14 2 20 -14 10z"/>
<path d="M973 716 c-3 -5 -1 -6 5 -2 6 3 13 2 17 -4 9 -14 25 -12 25 3 0 15
-39 17 -47 3z"/>
<path d="M1320 716 c0 -18 23 -27 41 -15 11 7 11 9 1 9 -7 0 -10 5 -7 10 3 6
-3 10 -14 10 -12 0 -21 -6 -21 -14z"/>
<path d="M2086 715 c-3 -8 -1 -15 3 -15 5 0 11 7 15 15 3 8 1 15 -3 15 -5 0
-11 -7 -15 -15z"/>
<path d="M2218 725 c-11 -12 5 -45 22 -45 9 0 29 -12 44 -26 14 -15 26 -22 26
-17 0 13 -44 53 -58 53 -7 0 -16 9 -20 20 -4 12 -10 18 -14 15z"/>
<path d="M390 710 c0 -5 7 -7 15 -4 8 4 15 8 15 10 0 2 -7 4 -15 4 -8 0 -15
-4 -15 -10z"/>
<path d="M451 703 c-7 -8 -11 -16 -8 -19 2 -2 10 2 17 11 17 20 9 27 -9 8z"/>
<path d="M570 705 c-23 -12 -23 -14 -7 -21 20 -7 42 8 36 24 -3 7 -13 6 -29
-3z"/>
<path d="M2341 674 c19 -28 35 -50 37 -49 7 6 -27 61 -48 80 -17 15 -14 6 11
-31z"/>
<path d="M160 691 c14 -27 27 -34 36 -20 4 7 -1 18 -11 26 -27 19 -37 16 -25
-6z"/>
<path d="M259 701 c9 -6 10 -11 2 -15 -6 -4 -11 -15 -11 -24 0 -12 4 -10 14 8
14 27 12 40 -7 40 -8 0 -8 -3 2 -9z"/>
<path d="M684 702 c-14 -9 -40 -57 -26 -49 5 4 9 -6 8 -21 -1 -55 14 -219 25
-267 6 -27 23 -74 37 -103 14 -30 25 -61 25 -69 0 -8 32 -31 70 -51 38 -20 78
-41 89 -47 10 -5 16 -15 14 -22 -4 -9 1 -10 19 -1 29 13 31 21 10 38 -13 10
-12 14 2 28 10 11 12 17 4 20 -6 2 -11 8 -11 13 0 6 5 7 12 3 7 -4 8 -3 4 4
-13 21 -25 12 -32 -24 -5 -27 -2 -38 12 -50 18 -14 17 -15 -11 -9 -39 8 -52
22 -37 37 20 20 14 28 -14 18 -34 -13 -37 -13 -65 11 -19 17 -21 22 -9 29 9 6
10 10 3 10 -6 0 -15 -5 -18 -10 -4 -6 -11 -7 -17 -4 -7 4 -6 9 2 14 8 5 4 15
-14 35 -14 15 -23 31 -21 35 3 4 -2 21 -10 36 -14 28 -14 29 8 36 20 5 20 6 2
8 -11 1 -22 2 -25 2 -3 0 -7 8 -7 19 -1 11 2 17 7 14 5 -3 12 -1 15 5 4 6 3 9
-2 8 -4 -2 -9 1 -10 6 -1 5 -7 13 -15 17 -9 6 -9 9 -1 9 7 0 10 9 7 23 -3 12
-8 31 -11 42 -3 15 8 32 38 60 25 23 37 41 30 43 -7 2 -18 -2 -24 -10 -7 -7
-23 -22 -36 -33 l-24 -20 6 37 c3 20 2 38 -2 40 -4 2 -11 18 -14 36 -6 30 -1
36 24 34 3 -1 6 6 6 14 0 16 -6 17 -23 6z"/>
<path d="M775 699 c-7 -10 31 -59 47 -59 4 0 3 11 -4 25 -6 13 -16 23 -22 22
-6 -1 -10 4 -8 11 3 15 -4 16 -13 1z"/>
<path d="M1385 700 c-3 -6 1 -7 9 -4 18 7 21 14 7 14 -6 0 -13 -4 -16 -10z"/>
<path d="M1745 686 c7 -33 33 -76 47 -76 6 0 19 11 29 24 11 14 28 28 39 31
11 4 20 13 20 21 0 17 -10 18 -35 1 -11 -7 -34 -14 -51 -16 -23 -2 -33 3 -42
21 -12 22 -12 22 -7 -6z m65 -35 c0 -14 -18 -23 -31 -15 -8 4 -7 9 2 15 18 11
29 11 29 0z"/>
<path d="M363 687 c-4 -8 -15 -17 -23 -20 -9 -3 -4 -6 11 -6 15 -1 29 6 32 14
8 19 -9 29 -20 12z"/>
<path d="M850 685 c0 -9 5 -25 10 -36 8 -15 7 -19 -4 -19 -12 0 -26 -20 -26
-39 0 -4 16 -6 35 -5 27 3 35 -1 35 -13 0 -9 2 -14 5 -11 9 8 -16 98 -27 98
-5 0 -8 7 -6 16 2 10 -3 19 -9 21 -7 3 -13 -3 -13 -12z m24 -73 c3 -5 -1 -9
-9 -9 -8 0 -15 4 -15 9 0 4 4 8 9 8 6 0 12 -4 15 -8z"/>
<path d="M2005 680 c-13 -14 -22 -17 -29 -10 -17 17 -31 11 -78 -35 -40 -38
-57 -46 -98 -47 -3 -1 -20 2 -37 5 -30 6 -33 4 -33 -19 0 -14 -4 -23 -9 -20
-5 4 -20 2 -33 -3 -21 -9 -21 -10 -3 -12 11 -1 25 0 30 1 6 2 20 2 33 1 21 -1
22 1 8 15 -9 8 -16 17 -16 20 0 11 30 2 45 -13 21 -21 75 -26 82 -7 3 8 16 14
29 14 18 0 22 4 17 16 -4 12 -2 15 8 12 11 -4 13 -21 11 -72 -3 -81 7 -101 55
-117 35 -11 38 -10 60 15 13 15 23 36 23 46 0 22 -28 53 -41 45 -5 -4 -6 1 -3
9 3 9 1 17 -5 17 -6 1 -17 2 -23 3 -23 4 -30 -6 -14 -17 10 -8 14 -20 10 -34
-7 -26 -24 -31 -24 -8 0 9 -6 12 -17 9 -14 -5 -15 -4 -4 4 8 6 20 8 28 5 7 -3
13 -1 13 5 0 16 -33 24 -42 10 -6 -9 -8 -5 -6 12 2 20 8 25 31 25 15 -1 27 2
27 6 0 8 74 39 92 39 9 0 9 -3 0 -12 -8 -8 -8 -17 -1 -30 5 -10 7 -24 3 -30
-4 -7 -3 -8 4 -4 7 4 12 15 12 25 0 10 7 24 16 31 28 24 43 -7 45 -98 2 -92 8
-134 18 -128 3 2 4 50 1 106 -3 56 -2 104 3 107 4 2 5 8 2 13 -3 4 2 10 10 14
21 8 42 -33 24 -45 -14 -9 -6 -12 21 -10 12 1 20 -16 29 -61 8 -35 16 -58 18
-51 2 6 0 27 -5 46 -6 20 -6 39 -2 44 4 4 -1 22 -11 38 -16 25 -19 27 -20 10
0 -11 -9 5 -19 35 -10 30 -18 46 -19 34 -1 -11 -11 -26 -24 -33 -29 -15 -76 4
-132 54 -22 20 -34 33 -26 29 9 -5 12 -3 7 4 -10 17 -20 15 -41 -8z m-41 -26
c3 -8 2 -12 -4 -9 -6 3 -10 10 -10 16 0 14 7 11 14 -7z m72 -14 c16 0 16 -2 8
-24 -3 -9 -11 -16 -16 -16 -6 0 -8 7 -4 15 4 11 -1 15 -19 15 -24 0 -24 1 -7
20 14 17 18 18 20 5 2 -8 10 -15 18 -15z m-72 -33 c3 -12 3 -23 1 -25 -7 -8
-32 23 -32 40 0 22 24 11 31 -15z m46 -17 c0 -5 -4 -10 -9 -10 -6 0 -13 5 -16
10 -3 6 1 10 9 10 9 0 16 -4 16 -10z m28 -113 c2 -9 -6 -29 -17 -43 -12 -15
-21 -21 -21 -15 0 7 -4 9 -10 6 -5 -3 -10 -1 -10 5 0 6 -4 9 -8 6 -5 -3 -9 1
-9 7 0 9 11 12 30 9 28 -4 29 -3 23 23 -5 20 -3 26 6 23 7 -3 14 -12 16 -21z"/>
<path d="M2100 685 c-11 -13 -10 -14 4 -9 9 3 16 10 16 15 0 13 -6 11 -20 -6z"/>
<path d="M122 638 c-2 -29 -1 -50 2 -47 9 9 17 99 9 99 -4 0 -9 -24 -11 -52z"/>
<path d="M420 652 c-30 -19 -46 -31 -35 -27 11 3 24 7 30 8 5 1 15 9 22 17 11
12 14 13 22 1 5 -8 11 -9 15 -3 3 6 0 13 -6 15 -7 3 8 6 34 6 26 1 49 -2 51
-6 2 -5 7 -36 11 -70 6 -54 5 -62 -11 -66 -17 -4 -17 -5 0 -6 11 -1 15 -6 11
-13 -4 -6 -3 -8 3 -5 6 4 13 19 16 34 3 16 9 37 13 47 6 15 4 17 -7 11 -12 -8
-12 -6 0 8 13 16 8 22 -13 18 -5 -1 -3 5 4 14 7 8 11 17 9 18 -60 40 -104 39
-169 -1z"/>
<path d="M898 673 c6 -2 10 -8 8 -12 -3 -4 5 -8 17 -8 21 -2 22 -1 3 13 -11 8
-25 14 -30 13 -6 0 -5 -3 2 -6z"/>
<path d="M960 670 c0 -5 4 -10 9 -10 6 0 13 5 16 10 3 6 -1 10 -9 10 -9 0 -16
-4 -16 -10z"/>
<path d="M1063 601 c28 -42 61 -105 74 -140 13 -35 28 -71 33 -81 7 -13 5 -21
-5 -30 -12 -10 -15 -9 -15 9 0 11 -4 21 -8 21 -14 0 -1 -58 15 -64 61 -24 33
122 -46 237 -31 46 -32 49 -17 72 21 31 21 55 0 29 -8 -10 -13 -13 -9 -6 3 6
1 12 -4 12 -10 0 -15 -14 -12 -33 1 -5 -3 -6 -9 -2 -5 3 -10 14 -10 24 0 10
-8 21 -19 24 -14 3 -6 -15 32 -72z"/>
<path d="M1317 660 c-3 -10 0 -26 7 -35 10 -14 12 -11 13 19 1 39 -11 49 -20
16z"/>
<path d="M1415 669 c-4 -6 -4 -13 -1 -16 3 -4 6 -1 6 6 0 7 5 9 12 5 7 -4 8
-3 4 4 -9 15 -13 15 -21 1z"/>
<path d="M1518 668 c9 -9 15 -9 24 0 9 9 7 12 -12 12 -19 0 -21 -3 -12 -12z"/>
<path d="M600 660 c0 -5 7 -7 15 -4 8 4 15 8 15 10 0 2 -7 4 -15 4 -8 0 -15
-4 -15 -10z"/>
<path d="M1237 663 c-11 -11 -8 -21 9 -27 14 -5 15 -4 5 8 -9 11 -9 15 1 19 7
3 8 6 2 6 -6 1 -14 -2 -17 -6z"/>
<path d="M2190 651 c-6 -12 -7 -21 -1 -21 10 0 24 30 17 37 -2 3 -9 -5 -16
-16z"/>
<path d="M2230 665 c0 -2 10 -10 23 -16 20 -11 21 -11 8 4 -13 16 -31 23 -31
12z"/>
<path d="M300 649 c-13 -8 -11 -12 8 -29 l24 -19 -37 -38 c-21 -21 -42 -37
-47 -35 -5 1 -7 -2 -3 -8 3 -5 1 -10 -4 -10 -6 0 -11 -7 -11 -15 0 -8 7 -15
15 -15 8 0 15 4 15 9 0 5 17 31 38 58 47 60 59 79 44 69 -7 -4 -13 -2 -13 3
-3 26 -4 30 -9 35 -3 3 -12 1 -20 -5z"/>
<path d="M509 646 c-18 -18 -87 -56 -101 -56 -6 0 -5 6 3 17 12 14 12 16 0 12
-24 -8 -25 -30 -2 -36 27 -7 27 -19 1 -26 -11 -3 -20 -13 -20 -22 0 -9 -5 -13
-10 -10 -6 4 -9 2 -8 -3 2 -5 -8 -20 -22 -34 -14 -13 -40 -42 -57 -63 -22 -27
-33 -34 -33 -23 0 9 6 23 14 30 7 8 17 24 20 36 4 12 12 22 18 22 6 0 8 3 5 7
-4 3 -1 13 5 22 11 14 10 14 -4 1 -9 -8 -30 -38 -46 -67 -26 -44 -29 -53 -16
-63 11 -10 20 -6 43 19 35 37 50 41 27 6 -21 -33 -22 -63 -1 -45 8 7 15 22 15
34 0 24 42 95 81 137 13 14 33 37 44 50 12 13 32 31 45 40 14 9 22 19 19 23
-3 3 -12 -1 -20 -8z m-54 -56 c-3 -5 -11 -10 -16 -10 -6 0 -7 5 -4 10 3 6 11
10 16 10 6 0 7 -4 4 -10z"/>
<path d="M1456 631 c-20 -16 -32 -32 -27 -35 5 -3 12 0 14 6 4 10 8 9 17 -2
10 -13 11 -13 7 0 -2 8 5 25 16 38 28 30 17 28 -27 -7z"/>
<path d="M170 613 c0 -55 -11 -113 -20 -108 -5 3 -5 -5 -2 -17 5 -21 6 -21 19
10 7 18 15 55 16 82 2 27 6 52 10 56 8 8 29 -45 22 -56 -3 -4 3 -11 12 -14 14
-6 14 -8 -3 -21 -10 -8 -14 -15 -9 -15 20 0 31 21 27 50 -2 17 -8 30 -12 30
-4 0 -10 9 -13 20 -3 12 -14 20 -26 20 -18 0 -21 -6 -21 -37z"/>
<path d="M705 640 c-4 -6 6 -10 22 -10 22 0 25 2 13 10 -19 12 -27 12 -35 0z"/>
<path d="M945 621 c0 -9 4 -21 8 -27 10 -18 -7 -59 -25 -60 -35 -3 -39 -4 -34
-12 3 -5 15 -8 28 -6 13 1 28 3 35 3 7 1 10 7 7 14 -6 16 43 71 51 57 3 -6 2
-10 -4 -10 -5 0 -8 -14 -6 -31 5 -42 -12 -75 -51 -98 -31 -18 -33 -19 -48 -2
-9 10 -16 21 -16 26 0 5 -7 16 -16 26 -16 18 -12 59 7 59 5 0 9 4 9 9 0 5 -9
7 -20 4 -11 -3 -20 -10 -20 -16 0 -5 -9 -2 -20 8 -12 10 -19 24 -16 30 2 6 -5
17 -15 23 -27 17 58 -139 106 -195 41 -48 50 -52 58 -22 4 15 2 18 -7 10 -12
-10 -26 -5 -26 9 0 4 11 12 25 18 23 11 25 10 25 -15 0 -34 14 -20 30 30 6 20
16 37 21 37 5 0 9 9 9 20 0 11 4 20 8 20 20 0 6 37 -22 62 -34 31 -51 36 -43
13 4 -8 1 -17 -4 -21 -7 -4 -9 4 -7 21 2 20 -2 29 -13 30 -9 2 -15 -4 -14 -14z
m101 -63 c5 -7 3 -8 -6 -3 -10 6 -12 4 -7 -8 3 -9 2 -19 -3 -22 -6 -4 -10 5
-10 19 0 27 14 34 26 14z"/>
<path d="M1152 610 c0 -19 2 -27 5 -17 2 9 2 25 0 35 -3 9 -5 1 -5 -18z"/>
<path d="M1206 623 c-6 -14 -5 -15 5 -6 7 7 10 15 7 18 -3 3 -9 -2 -12 -12z"/>
<path d="M1730 626 c0 -9 5 -16 10 -16 6 0 10 4 10 9 0 6 -4 13 -10 16 -5 3
-10 -1 -10 -9z"/>
<path d="M91 630 c-1 -3 -4 -28 -6 -56 -2 -28 -13 -67 -24 -85 -25 -41 -27
-69 -5 -69 10 0 14 6 11 14 -3 8 -3 17 1 21 7 7 8 12 11 39 0 8 7 16 14 19 10
4 13 -2 9 -19 -2 -13 -9 -21 -15 -17 -6 3 -7 1 -3 -5 9 -15 -12 -92 -25 -92
-6 0 -7 -5 -3 -11 4 -8 11 -3 19 12 7 13 13 26 13 29 0 3 6 19 13 35 15 36 28
136 17 129 -4 -3 -12 10 -17 28 -5 18 -10 31 -10 28z"/>
<path d="M910 619 c0 -5 5 -7 10 -4 6 3 10 8 10 11 0 2 -4 4 -10 4 -5 0 -10
-5 -10 -11z"/>
<path d="M1118 614 c-3 -12 -2 -27 2 -34 11 -18 18 1 10 30 -6 24 -6 24 -12 4z"/>
<path d="M141 604 c0 -11 3 -14 6 -6 3 7 2 16 -1 19 -3 4 -6 -2 -5 -13z"/>
<path d="M1241 602 c-6 -11 -7 -22 -4 -26 3 -3 3 -6 -2 -6 -4 0 -14 8 -22 18
-13 16 -13 16 -11 -3 1 -11 -1 -26 -5 -33 -5 -8 -4 -11 3 -10 7 2 16 -7 21
-20 7 -18 5 -22 -7 -20 -24 4 -42 -28 -25 -44 11 -10 12 -10 7 -1 -4 7 -2 21
3 30 7 12 10 14 11 4 0 -10 3 -11 13 -3 10 9 12 -1 11 -49 0 -35 3 -55 7 -47
5 7 9 30 9 51 0 35 2 37 33 38 26 0 28 2 12 8 -11 5 -26 6 -32 4 -7 -3 -13 -1
-13 4 0 16 22 32 36 26 10 -4 12 0 8 11 -4 10 -13 15 -20 12 -15 -6 -15 -5
-19 32 -3 28 13 29 24 0 4 -12 11 -17 14 -11 4 5 -4 20 -17 32 -24 22 -24 23
-35 3z m-1 -51 c0 -5 3 -16 6 -25 10 -26 -10 -18 -23 9 -9 20 -8 25 3 25 8 0
14 -4 14 -9z"/>
<path d="M2280 615 c0 -6 4 -15 9 -20 5 -6 23 -53 40 -105 28 -85 60 -156 61
-138 0 15 -82 237 -95 255 -8 10 -15 13 -15 8z"/>
<path d="M2345 601 c5 -16 4 -21 -4 -17 -6 4 -11 6 -11 4 0 -10 70 -169 93
-213 15 -27 27 -58 27 -67 0 -10 4 -18 10 -18 12 0 -5 48 -64 178 -51 114 -53
120 -29 101 14 -12 13 -9 -2 16 -26 41 -29 43 -20 16z"/>
<path d="M50 595 c0 -8 -6 -15 -14 -15 -8 0 -18 -5 -22 -12 -4 -7 -3 -8 4 -4
8 5 12 -3 12 -24 0 -17 4 -29 9 -26 4 3 8 16 7 28 -1 13 4 29 11 36 16 16 17
32 3 32 -5 0 -10 -7 -10 -15z"/>
<path d="M360 595 c-11 -13 -10 -14 4 -9 9 3 16 10 16 15 0 13 -6 11 -20 -6z"/>
<path d="M515 600 c-3 -5 1 -10 10 -10 9 0 13 5 10 10 -3 6 -8 10 -10 10 -2 0
-7 -4 -10 -10z"/>
<path d="M1690 601 c0 -6 5 -13 10 -16 6 -3 10 1 10 9 0 9 -4 16 -10 16 -5 0
-10 -4 -10 -9z"/>
<path d="M602 559 c-7 -11 -11 -23 -9 -25 7 -7 29 24 25 36 -2 6 -9 1 -16 -11z"/>
<path d="M2461 562 c-1 -12 6 -38 13 -57 8 -19 12 -35 9 -35 -3 0 6 -10 21
-21 41 -33 43 -15 4 48 -19 32 -38 65 -41 73 -3 10 -6 7 -6 -8z"/>
<path d="M340 561 c0 -17 18 -21 24 -6 3 9 0 15 -9 15 -8 0 -15 -4 -15 -9z"/>
<path d="M1455 560 c-3 -6 0 -13 8 -16 11 -4 14 -19 11 -59 -4 -61 8 -105 31
-105 18 0 20 26 3 36 -7 5 -8 2 -3 -7 6 -11 5 -12 -6 -1 -11 10 -11 16 -1 33
7 11 10 29 7 40 -4 10 -2 19 4 19 7 0 7 8 -1 25 -6 13 -15 22 -19 19 -5 -3 -9
2 -9 10 0 18 -16 21 -25 6z m36 -57 c-8 -15 -10 -15 -11 -2 0 17 10 32 18 25
2 -3 -1 -13 -7 -23z"/>
<path d="M1574 520 c5 -27 14 -50 19 -50 5 0 7 14 3 31 -3 17 -6 40 -6 50 0
11 -6 19 -13 19 -11 0 -11 -10 -3 -50z"/>
<path d="M1905 550 c3 -5 8 -10 11 -10 2 0 4 5 4 10 0 6 -5 10 -11 10 -5 0 -7
-4 -4 -10z"/>
<path d="M2066 535 c-3 -8 -1 -15 4 -15 6 0 10 7 10 15 0 8 -2 15 -4 15 -2 0
-6 -7 -10 -15z"/>
<path d="M2398 543 c6 -2 18 -2 25 0 6 3 1 5 -13 5 -14 0 -19 -2 -12 -5z"/>
<path d="M480 529 c0 -5 5 -7 10 -4 6 3 10 8 10 11 0 2 -4 4 -10 4 -5 0 -10
-5 -10 -11z"/>
<path d="M1329 540 c0 -3 -2 -13 -4 -22 -2 -10 1 -18 5 -18 15 0 19 15 9 30
-5 8 -9 13 -10 10z"/>
<path d="M750 520 c6 -4 11 -10 11 -14 -1 -3 1 -6 4 -6 3 0 5 3 4 6 0 4 5 10
11 14 7 4 1 8 -15 8 -16 0 -22 -4 -15 -8z"/>
<path d="M1635 520 c3 -5 8 -10 11 -10 2 0 4 5 4 10 0 6 -5 10 -11 10 -5 0 -7
-4 -4 -10z"/>
<path d="M1775 466 c2 -36 8 -73 13 -82 5 -10 7 12 5 57 -2 40 -7 77 -12 82
-5 5 -8 -18 -6 -57z"/>
<path d="M2396 517 c3 -10 9 -15 12 -12 3 3 0 11 -7 18 -10 9 -11 8 -5 -6z"/>
<path d="M2681 514 c0 -11 3 -14 6 -6 3 7 2 16 -1 19 -3 4 -6 -2 -5 -13z"/>
<path d="M5 501 c-3 -10 -1 -29 4 -42 9 -21 10 -19 10 19 1 45 -4 54 -14 23z"/>
<path d="M610 513 c0 -6 -9 -13 -20 -16 -11 -3 -20 -11 -20 -18 0 -7 3 -9 7
-6 3 4 13 1 22 -6 14 -11 15 -10 1 7 -14 18 -13 19 6 14 15 -4 21 -1 20 8 -3
17 -16 31 -16 17z"/>
<path d="M1866 493 c9 -38 14 -42 14 -10 0 14 -5 29 -10 32 -7 4 -8 -3 -4 -22z"/>
<path d="M422 498 c-7 -7 -12 -17 -12 -24 0 -6 -10 -23 -21 -38 -12 -15 -19
-29 -17 -31 2 -2 19 18 37 46 31 48 38 72 13 47z"/>
<path d="M733 492 c0 -12 5 -22 9 -22 11 0 10 12 -2 30 -7 12 -9 10 -7 -8z"/>
<path d="M955 501 c-3 -5 -2 -12 3 -15 5 -3 9 1 9 9 0 17 -3 19 -12 6z"/>
<path d="M1060 501 c0 -5 -3 -17 -7 -27 -4 -10 -2 -15 3 -11 6 3 16 1 24 -4
13 -8 11 -13 -9 -29 -12 -11 -26 -18 -31 -15 -4 2 -12 -7 -19 -21 -8 -19 -16
-24 -30 -19 -23 7 -37 -11 -22 -28 6 -8 6 -18 1 -27 -14 -22 -12 -26 15 -26
13 0 27 6 29 13 3 7 -1 13 -8 13 -12 0 -33 30 -24 34 2 1 18 10 37 20 24 14
36 16 39 8 2 -7 8 -10 12 -7 5 3 7 12 4 19 -3 7 2 16 10 19 12 5 13 -1 9 -31
-6 -32 -4 -35 9 -24 12 10 14 22 7 59 -11 55 -49 121 -49 84z"/>
<path d="M1830 491 c0 -11 4 -22 9 -25 4 -3 6 6 3 19 -5 30 -12 33 -12 6z"/>
<path d="M2123 493 c-3 -10 -8 -21 -10 -25 -2 -5 2 -8 10 -8 9 0 15 10 15 25
0 29 -6 32 -15 8z"/>
<path d="M2230 495 c0 -8 2 -15 4 -15 2 0 6 7 10 15 3 8 1 15 -4 15 -6 0 -10
-7 -10 -15z"/>
<path d="M925 490 c-3 -5 -1 -10 4 -10 6 0 11 5 11 10 0 6 -2 10 -4 10 -3 0
-8 -4 -11 -10z"/>
<path d="M1353 481 c4 -29 17 -39 17 -13 0 11 -5 24 -10 27 -6 4 -9 -2 -7 -14z"/>
<path d="M490 480 c-8 -5 -15 -13 -15 -17 -1 -4 -6 -19 -13 -33 l-13 -25 20
25 c12 14 26 31 32 38 14 17 8 24 -11 12z"/>
<path d="M1903 472 c3 -13 0 -25 -8 -30 -10 -6 -10 -17 0 -57 7 -27 16 -93 20
-145 10 -131 11 -135 24 -133 6 2 11 -5 11 -16 0 -10 7 -24 15 -31 12 -10 15
-9 15 4 0 10 -4 14 -10 11 -5 -3 -10 1 -10 10 0 9 -7 29 -15 45 -9 17 -12 30
-8 30 5 0 8 16 9 35 0 19 -4 35 -9 35 -5 0 -3 8 4 17 10 11 10 14 2 9 -9 -5
-13 0 -13 16 0 18 2 20 10 8 8 -13 10 -13 10 2 0 9 -4 27 -9 40 -19 48 -23 64
-25 110 -1 26 -6 51 -11 55 -4 5 -5 -2 -2 -15z"/>
<path d="M2441 445 c32 -48 42 -56 32 -27 -10 26 -43 72 -53 72 -5 0 4 -20 21
-45z"/>
<path d="M762 467 c-16 -19 14 -56 31 -38 10 10 9 12 -2 9 -7 -2 -16 3 -19 11
-3 10 1 13 17 8 26 -6 27 -1 2 12 -13 8 -22 7 -29 -2z"/>
<path d="M835 460 c-3 -6 1 -17 9 -26 9 -8 16 -21 16 -28 0 -7 9 -21 20 -31
12 -11 18 -25 15 -36 -5 -14 -1 -16 15 -12 11 3 20 0 20 -6 0 -6 -7 -11 -15
-11 -12 0 -10 -7 9 -26 15 -17 23 -35 20 -50 -5 -27 11 -41 20 -17 6 15 8 15
16 3 6 -8 10 -10 10 -5 0 6 -5 17 -10 25 -7 11 -10 11 -10 2 0 -7 -5 -10 -10
-7 -8 5 -7 11 1 21 6 8 9 17 5 21 -3 3 -6 1 -6 -7 0 -10 -3 -10 -15 0 -18 15
-19 37 -2 43 9 4 8 8 -3 16 -8 6 -11 11 -6 11 4 0 -7 17 -25 38 -57 65 -68 80
-62 86 4 3 4 6 0 6 -3 0 -9 -5 -12 -10z"/>
<path d="M1310 460 c0 -6 7 -10 15 -10 8 0 15 2 15 4 0 2 -7 6 -15 10 -8 3
-15 1 -15 -4z"/>
<path d="M2231 454 c0 -11 3 -14 6 -6 3 7 2 16 -1 19 -3 4 -6 -2 -5 -13z"/>
<path d="M2675 460 c-3 -5 -1 -10 4 -10 6 0 11 5 11 10 0 6 -2 10 -4 10 -3 0
-8 -4 -11 -10z"/>
<path d="M505 432 c-11 -10 -29 -29 -40 -42 -20 -25 -20 -25 0 -10 11 8 28 22
38 32 26 26 50 24 42 -4 -5 -19 -4 -20 5 -8 10 12 11 10 6 -10 -3 -14 -6 -28
-6 -32 0 -3 -10 -4 -22 -1 -22 5 -22 5 -4 -9 14 -11 17 -22 12 -42 -4 -17 -12
-26 -19 -23 -9 3 -14 -6 -15 -26 -2 -17 -8 -35 -15 -39 -7 -4 -8 -8 -3 -8 6 0
5 -5 -2 -12 -26 -26 -10 -30 16 -4 26 24 30 25 42 11 7 -9 19 -14 26 -11 7 3
18 -1 24 -9 8 -10 8 -14 -2 -17 -8 -3 -6 -7 6 -11 9 -4 15 -3 12 1 -3 5 14 9
37 9 23 1 45 -3 48 -8 3 -5 15 -11 27 -14 11 -2 30 -9 42 -15 22 -12 60 -22
60 -15 0 1 -21 16 -47 33 -53 33 -120 55 -128 42 -6 -10 -21 -6 -83 21 -46 21
-48 28 -17 89 7 14 16 44 20 68 7 45 25 58 25 18 0 -14 5 -28 12 -32 7 -5 5
-12 -8 -22 -12 -9 -13 -13 -4 -10 8 3 31 -2 50 -10 l34 -14 -33 31 c-18 17
-30 35 -26 41 4 6 -5 26 -20 45 -29 39 -59 44 -90 17z"/>
<path d="M1380 436 c0 -9 7 -19 15 -23 25 -9 27 2 5 22 -18 17 -20 17 -20 1z"/>
<path d="M1538 414 c3 -24 9 -34 21 -33 10 0 11 2 4 6 -7 2 -13 9 -13 14 0 6
5 7 10 4 6 -3 10 1 10 9 0 8 -8 20 -18 25 -16 8 -17 6 -14 -25z"/>
<path d="M2116 403 c-4 -27 -9 -75 -11 -108 -2 -33 -8 -79 -13 -102 -8 -36 -7
-43 6 -43 8 0 13 3 10 6 -3 3 0 31 7 62 7 31 13 92 14 135 0 43 3 82 6 87 3 6
2 10 -3 10 -5 0 -13 -21 -16 -47z"/>
<path d="M166 432 c-2 -4 4 -8 14 -8 10 0 16 4 14 8 -3 4 -9 8 -14 8 -5 0 -11
-4 -14 -8z"/>
<path d="M804 415 c-9 -19 -8 -22 5 -20 10 1 15 10 13 21 -5 26 -6 26 -18 -1z"/>
<path d="M1315 430 c-3 -5 -1 -10 5 -10 6 0 8 -5 4 -12 -4 -7 -3 -8 4 -4 7 4
12 2 12 -3 0 -15 -27 -14 -34 2 -3 6 -4 3 -3 -8 2 -16 -4 -20 -24 -20 -15 1
-26 -5 -26 -12 0 -16 9 -17 25 -1 9 9 12 9 12 -2 1 -11 4 -10 15 4 7 10 18 15
24 11 6 -3 11 0 11 7 0 10 3 9 11 -2 9 -12 9 -11 4 5 -4 11 -10 28 -12 38 -6
19 -19 22 -28 7z"/>
<path d="M1735 429 c-4 -6 -5 -12 -2 -15 2 -3 7 2 10 11 7 17 1 20 -8 4z"/>
<path d="M1849 398 c4 -28 6 -29 9 -9 2 13 0 27 -5 32 -6 6 -7 -3 -4 -23z"/>
<path d="M2231 415 c0 -11 4 -29 9 -40 8 -18 9 -18 9 5 0 14 -4 32 -9 40 -8
12 -10 12 -9 -5z"/>
<path d="M10 411 c0 -6 4 -13 10 -16 6 -3 7 1 4 9 -7 18 -14 21 -14 7z"/>
<path d="M135 409 c-4 -6 -5 -12 -2 -15 2 -3 7 2 10 11 7 17 1 20 -8 4z"/>
<path d="M1201 404 c0 -11 3 -14 6 -6 3 7 2 16 -1 19 -3 4 -6 -2 -5 -13z"/>
<path d="M2520 406 c0 -8 5 -18 10 -21 6 -3 10 3 10 14 0 12 -4 21 -10 21 -5
0 -10 -6 -10 -14z"/>
<path d="M1947 374 c3 -22 11 -45 19 -53 10 -11 10 -4 -2 34 -18 61 -25 68
-17 19z"/>
<path d="M388 380 c-10 -9 -18 -19 -18 -22 0 -11 45 5 62 22 15 16 15 17 -5
17 -12 0 -30 -7 -39 -17z"/>
<path d="M1408 389 c-2 -7 6 -23 18 -36 13 -14 33 -43 45 -66 11 -23 25 -44
29 -47 7 -5 40 -65 40 -74 0 -3 -7 -3 -15 0 -8 4 -13 9 -11 13 2 3 -2 12 -10
18 -10 10 -15 10 -20 1 -4 -7 -2 -14 4 -16 7 -2 10 -8 6 -13 -3 -5 -2 -9 3 -8
22 4 33 -3 33 -22 0 -11 4 -18 10 -14 5 3 7 13 3 23 -3 9 6 4 21 -13 14 -16
25 -37 25 -45 1 -10 -6 -7 -20 10 -16 19 -18 20 -10 4 10 -21 41 -51 41 -41 0
3 12 -5 26 -20 38 -37 42 -19 6 25 -18 20 -57 80 -88 132 -76 126 -131 203
-136 189z"/>
<path d="M1696 383 c-6 -14 -5 -15 5 -6 7 7 10 15 7 18 -3 3 -9 -2 -12 -12z"/>
<path d="M1731 384 c0 -11 3 -14 6 -6 3 7 2 16 -1 19 -3 4 -6 -2 -5 -13z"/>
<path d="M206 375 c-3 -8 -3 -15 0 -15 3 0 12 7 20 15 13 13 13 15 1 15 -8 0
-17 -7 -21 -15z"/>
<path d="M2019 337 l4 -52 9 39 c6 29 5 43 -4 53 -11 10 -12 2 -9 -40z"/>
<path d="M2055 370 c3 -5 8 -10 11 -10 2 0 4 5 4 10 0 6 -5 10 -11 10 -5 0 -7
-4 -4 -10z"/>
<path d="M2157 361 c-4 -17 -3 -21 5 -13 5 5 8 16 6 23 -3 8 -7 3 -11 -10z"/>
<path d="M110 355 c0 -8 4 -15 10 -15 5 0 7 7 4 15 -4 8 -8 15 -10 15 -2 0 -4
-7 -4 -15z"/>
<path d="M655 360 c-3 -5 -1 -10 4 -10 6 0 11 5 11 10 0 6 -2 10 -4 10 -3 0
-8 -4 -11 -10z"/>
<path d="M1361 356 c-12 -15 -8 -20 11 -17 4 0 11 -11 14 -27 9 -36 22 -52 40
-45 13 5 19 -8 15 -30 -1 -5 3 -6 8 -3 5 4 14 -2 20 -11 15 -26 13 -10 -2 19
-23 46 -54 68 -48 35 1 -5 -3 -6 -8 -3 -5 4 -8 15 -6 26 2 11 -1 22 -6 26 -6
3 -14 15 -18 26 -6 18 -8 18 -20 4z"/>
<path d="M1510 361 c0 -4 10 -23 23 -42 41 -61 42 -63 23 -56 -13 5 -9 -4 12
-30 16 -21 32 -50 36 -66 8 -35 87 -146 104 -146 6 -1 12 9 11 22 0 20 -1 21
-8 2 -7 -18 -8 -17 -14 5 -3 14 -12 62 -19 108 -7 47 -15 75 -19 65 -3 -10 -2
-33 2 -53 4 -19 10 -48 13 -65 l5 -30 -19 25 c-10 13 -17 28 -14 31 2 4 0 9
-5 11 -5 1 -11 10 -13 18 -2 8 -7 18 -13 22 -5 4 -6 10 -2 14 3 4 15 1 24 -7
16 -12 17 -12 6 2 -7 9 -10 18 -7 22 3 3 -3 3 -13 1 -33 -9 -56 41 -54 116 1
25 -2 31 -8 20 -5 -8 -7 -19 -3 -25 3 -5 -2 -4 -12 4 -12 10 -13 16 -6 21 8 5
6 9 -5 14 -22 8 -25 8 -25 -3z"/>
<path d="M1807 363 c-11 -10 -8 -20 7 -26 10 -4 12 0 9 14 -6 21 -7 22 -16 12z"/>
<path d="M2521 348 c7 -13 28 -45 47 -73 20 -27 35 -56 35 -65 0 -8 8 -28 18
-44 12 -20 15 -36 9 -57 -6 -19 -5 -29 2 -29 5 0 8 -6 5 -14 -3 -8 0 -17 7
-19 10 -4 13 8 10 51 -1 31 -8 58 -14 60 -8 3 -8 8 0 17 13 16 8 28 -57 128
-25 37 -51 67 -59 67 -12 0 -13 -4 -3 -22z"/>
<path d="M160 350 c0 -5 5 -10 11 -10 5 0 7 5 4 10 -3 6 -8 10 -11 10 -2 0 -4
-4 -4 -10z"/>
<path d="M771 343 c0 -12 2 -13 6 -5 4 10 8 10 21 0 15 -12 16 -11 3 5 -7 9
-17 17 -22 17 -5 0 -9 -8 -8 -17z"/>
<path d="M1060 349 c0 -5 -4 -8 -9 -4 -5 3 -12 1 -16 -5 -4 -6 5 -10 19 -10
16 0 26 6 26 15 0 8 -4 15 -10 15 -5 0 -10 -5 -10 -11z"/>
<path d="M1740 355 c0 -5 5 -17 10 -25 5 -8 10 -10 10 -5 0 6 -5 17 -10 25 -5
8 -10 11 -10 5z"/>
<path d="M2480 350 c0 -5 5 -10 11 -10 5 0 7 5 4 10 -3 6 -8 10 -11 10 -2 0
-4 -4 -4 -10z"/>
<path d="M275 340 c-3 -5 1 -10 9 -10 9 0 16 5 16 10 0 6 -4 10 -9 10 -6 0
-13 -4 -16 -10z"/>
<path d="M1096 328 c-13 -20 -12 -32 6 -98 19 -69 22 -97 17 -142 -2 -15 -5
-15 -18 -5 -12 9 -13 9 -7 0 4 -7 2 -13 -3 -13 -6 0 -11 -5 -11 -11 0 -6 9 -8
20 -4 20 6 24 -2 14 -29 -3 -9 -12 -12 -22 -9 -14 5 -15 4 -4 -8 11 -12 15
-11 27 4 7 11 17 38 20 60 4 23 11 48 15 56 4 8 -5 45 -21 87 -26 67 -30 99
-14 124 3 6 4 10 1 10 -3 0 -12 -10 -20 -22z"/>
<path d="M1220 344 c0 -6 -15 -26 -33 -46 -18 -20 -33 -46 -34 -58 -2 -20 0
-21 12 -9 19 20 66 111 60 117 -3 3 -5 1 -5 -4z"/>
<path d="M2240 339 c0 -5 5 -7 10 -4 6 3 10 8 10 11 0 2 -4 4 -10 4 -5 0 -10
-5 -10 -11z"/>
<path d="M85 330 c-3 -5 -1 -10 4 -10 6 0 11 5 11 10 0 6 -2 10 -4 10 -3 0 -8
-4 -11 -10z"/>
<path d="M218 333 c7 -3 16 -2 19 1 4 3 -2 6 -13 5 -11 0 -14 -3 -6 -6z"/>
<path d="M341 323 c0 -11 3 -13 6 -5 2 6 8 10 12 8 4 -3 13 -1 21 5 11 6 8 9
-12 9 -20 0 -28 -5 -27 -17z"/>
<path d="M2347 319 c4 -13 8 -18 11 -10 2 7 -1 18 -6 23 -8 8 -9 4 -5 -13z"/>
<path d="M2193 315 c0 -8 4 -12 9 -9 5 3 6 10 3 15 -9 13 -12 11 -12 -6z"/>
<path d="M2417 318 c10 -17 12 -29 24 -128 5 -46 14 -89 19 -94 6 -6 10 -30
11 -56 l1 -45 9 33 c8 26 7 39 -4 56 -8 12 -18 56 -22 97 -8 90 -22 149 -36
149 -6 0 -7 -6 -2 -12z"/>
<path d="M2498 303 c5 -21 7 -23 10 -9 2 10 0 22 -6 28 -6 6 -7 0 -4 -19z"/>
<path d="M50 310 c0 -5 7 -10 16 -10 8 0 12 5 9 10 -3 6 -10 10 -16 10 -5 0
-9 -4 -9 -10z"/>
<path d="M170 309 c0 -5 5 -7 10 -4 6 3 10 8 10 11 0 2 -4 4 -10 4 -5 0 -10
-5 -10 -11z"/>
<path d="M750 310 c0 -5 5 -10 10 -10 6 0 10 5 10 10 0 6 -4 10 -10 10 -5 0
-10 -4 -10 -10z"/>
<path d="M797 308 c6 -7 13 -20 16 -28 3 -8 5 -3 4 13 -1 16 -7 27 -15 27 -10
0 -11 -4 -5 -12z"/>
<path d="M830 310 c0 -6 7 -10 15 -10 8 0 15 2 15 4 0 2 -7 6 -15 10 -8 3 -15
1 -15 -4z"/>
<path d="M1030 311 c0 -6 4 -12 8 -15 5 -3 9 1 9 9 0 8 -4 15 -9 15 -4 0 -8
-4 -8 -9z"/>
<path d="M1608 314 c-3 -5 -2 -20 2 -34 4 -18 8 -21 12 -10 6 17 -6 58 -14 44z"/>
<path d="M1701 304 c0 -11 3 -14 6 -6 3 7 2 16 -1 19 -3 4 -6 -2 -5 -13z"/>
<path d="M2240 301 c0 -25 6 -27 13 -6 4 8 2 17 -3 20 -6 4 -10 -3 -10 -14z"/>
<path d="M615 300 c-3 -6 4 -11 17 -11 17 -1 18 -3 5 -6 -9 -2 -15 -9 -11 -14
3 -5 10 -7 15 -4 5 4 9 -1 9 -10 0 -14 -3 -14 -29 -1 -25 14 -31 14 -41 1 -7
-8 -10 -20 -7 -27 4 -8 6 -7 6 5 1 20 8 21 42 4 14 -8 47 -21 75 -30 42 -14
46 -14 29 -1 -11 8 -30 17 -42 21 -13 3 -23 12 -23 21 0 13 3 12 20 -3 26 -23
34 -15 14 13 -20 28 -71 55 -79 42z"/>
<path d="M1236 298 c3 -5 10 -6 15 -3 13 9 11 12 -6 12 -8 0 -12 -4 -9 -9z"/>
<path d="M1754 288 c4 -18 2 -28 -5 -28 -6 0 -3 -7 6 -16 9 -10 12 -20 7 -23
-5 -3 -12 -26 -16 -51 -9 -64 -9 -70 -8 -122 2 -35 6 -48 17 -48 8 0 15 5 15
11 0 5 -5 7 -12 3 -7 -5 -8 -3 -3 7 5 7 10 53 11 102 2 49 5 91 7 94 8 7 -4
78 -15 88 -7 7 -9 1 -4 -17z"/>
<path d="M1966 283 c-6 -14 -5 -15 5 -6 7 7 10 15 7 18 -3 3 -9 -2 -12 -12z"/>
<path d="M2060 285 c-11 -13 -10 -14 4 -9 9 3 16 10 16 15 0 13 -6 11 -20 -6z"/>
<path d="M2635 290 c3 -5 10 -10 16 -10 5 0 9 5 9 10 0 6 -7 10 -16 10 -8 0
-12 -4 -9 -10z"/>
<path d="M1256 274 c-9 -8 -16 -21 -16 -28 0 -7 -9 -25 -21 -40 -11 -14 -17
-26 -14 -26 4 0 3 -6 -3 -13 -8 -10 -6 -13 8 -13 10 0 18 3 18 6 -2 20 4 30
14 24 7 -4 8 -3 4 4 -7 12 10 52 28 64 7 5 6 8 -3 8 -11 0 -11 3 -1 15 16 20
6 19 -14 -1z"/>
<path d="M1691 264 c0 -11 3 -14 6 -6 3 7 2 16 -1 19 -3 4 -6 -2 -5 -13z"/>
<path d="M1836 263 c-6 -14 -5 -15 5 -6 7 7 10 15 7 18 -3 3 -9 -2 -12 -12z"/>
<path d="M2518 274 c-5 -5 -1 -24 18 -76 4 -10 10 -18 15 -18 13 0 11 13 -7
38 -8 12 -12 22 -8 22 3 0 1 6 -5 13 -6 8 -8 17 -4 20 3 4 4 7 1 7 -2 0 -7 -3
-10 -6z"/>
<path d="M1350 259 c0 -5 5 -7 10 -4 6 3 10 8 10 11 0 2 -4 4 -10 4 -5 0 -10
-5 -10 -11z"/>
<path d="M850 251 c0 -5 5 -13 10 -16 6 -3 10 -2 10 4 0 5 -4 13 -10 16 -5 3
-10 2 -10 -4z"/>
<path d="M1630 245 c0 -8 4 -15 10 -15 5 0 7 7 4 15 -4 8 -8 15 -10 15 -2 0
-4 -7 -4 -15z"/>
<path d="M1856 243 c-6 -14 -5 -15 5 -6 7 7 10 15 7 18 -3 3 -9 -2 -12 -12z"/>
<path d="M1966 252 c-2 -4 -1 -14 5 -22 7 -12 9 -10 9 8 0 23 -5 28 -14 14z"/>
<path d="M2043 245 c-9 -24 1 -27 15 -5 8 13 8 20 2 20 -6 0 -13 -7 -17 -15z"/>
<path d="M2670 253 c0 -4 5 -15 10 -23 8 -13 10 -13 10 2 0 9 -4 20 -10 23 -5
3 -10 3 -10 -2z"/>
<path d="M85 240 c-3 -6 1 -7 9 -4 18 7 21 14 7 14 -6 0 -13 -4 -16 -10z"/>
<path d="M1387 227 c10 -10 17 -22 16 -26 0 -3 3 -13 8 -21 7 -13 8 -12 9 3 0
9 -4 17 -10 17 -5 0 -9 3 -9 8 4 23 -3 39 -16 39 -13 0 -12 -4 2 -20z"/>
<path d="M1600 241 c0 -6 4 -13 10 -16 6 -3 7 1 4 9 -7 18 -14 21 -14 7z"/>
<path d="M2252 230 c0 -14 2 -19 5 -12 2 6 2 18 0 25 -3 6 -5 1 -5 -13z"/>
<path d="M1998 233 c6 -2 18 -2 25 0 6 3 1 5 -13 5 -14 0 -19 -2 -12 -5z"/>
<path d="M2490 225 c0 -8 4 -15 10 -15 5 0 7 7 4 15 -4 8 -8 15 -10 15 -2 0
-4 -7 -4 -15z"/>
<path d="M2383 200 c-1 -11 2 -22 6 -24 4 -3 7 4 8 14 1 11 -2 22 -6 24 -4 3
-7 -4 -8 -14z"/>
<path d="M1430 201 c0 -6 4 -13 10 -16 6 -3 7 1 4 9 -7 18 -14 21 -14 7z"/>
<path d="M1970 179 c11 -45 23 -139 17 -139 -14 0 -56 28 -50 33 3 4 1 7 -5 7
-8 0 -11 -16 -11 -42 2 -30 3 -35 6 -15 5 30 20 36 30 11 3 -8 11 -13 19 -10
7 3 15 -3 18 -12 3 -9 3 25 1 77 -3 67 -8 99 -19 109 -14 14 -14 12 -6 -19z"/>
<path d="M2020 200 c0 -5 5 -10 11 -10 5 0 7 5 4 10 -3 6 -8 10 -11 10 -2 0
-4 -4 -4 -10z"/>
<path d="M2185 200 c3 -5 8 -10 11 -10 2 0 4 5 4 10 0 6 -5 10 -11 10 -5 0 -7
-4 -4 -10z"/>
<path d="M830 190 c0 -5 7 -7 15 -4 8 4 15 8 15 10 0 2 -7 4 -15 4 -8 0 -15
-4 -15 -10z"/>
<path d="M2155 190 c-4 -6 -11 -7 -17 -4 -7 4 -8 2 -4 -5 6 -8 12 -9 20 -2 7
6 17 7 21 3 5 -4 5 -1 1 6 -9 15 -13 15 -21 2z"/>
<path d="M2306 188 c3 -5 10 -6 15 -3 13 9 11 12 -6 12 -8 0 -12 -4 -9 -9z"/>
<path d="M2690 196 c0 -2 7 -9 15 -16 13 -11 14 -10 9 4 -5 14 -24 23 -24 12z"/>
<path d="M14 183 c4 -4 16 -8 28 -10 28 -4 18 6 -12 12 -12 2 -20 1 -16 -2z"/>
<path d="M865 181 c-6 -11 13 -26 22 -17 4 3 1 6 -6 6 -7 0 -9 5 -6 10 3 6 4
10 1 10 -3 0 -7 -4 -11 -9z"/>
<path d="M1825 181 c-3 -5 -2 -12 3 -15 5 -3 9 1 9 9 0 17 -3 19 -12 6z"/>
<path d="M1851 174 c0 -11 3 -14 6 -6 3 7 2 16 -1 19 -3 4 -6 -2 -5 -13z"/>
<path d="M1316 171 c-3 -5 1 -11 9 -14 9 -4 12 -1 8 9 -6 16 -10 17 -17 5z"/>
<path d="M2227 166 c-4 -10 -1 -13 8 -9 8 3 12 9 9 14 -7 12 -11 11 -17 -5z"/>
<path d="M151 159 c18 -11 39 -11 39 0 0 5 -12 9 -26 9 -18 0 -22 -3 -13 -9z"/>
<path d="M2555 160 c-3 -5 0 -20 7 -32 7 -13 13 -25 14 -28 0 -3 4 -13 7 -22
4 -10 9 -25 12 -34 3 -9 8 -15 11 -12 2 3 -1 18 -7 34 -7 16 -11 33 -10 38 1
5 -3 12 -9 16 -6 4 -12 17 -13 28 -1 25 -3 26 -12 12z"/>
<path d="M2600 158 c0 -9 7 -19 16 -22 15 -6 15 -4 3 11 -7 10 -15 20 -16 22
-2 2 -3 -3 -3 -11z"/>
<path d="M2676 162 c-3 -6 -1 -14 5 -17 14 -9 20 -2 10 14 -6 8 -11 9 -15 3z"/>
<path d="M225 150 c3 -5 8 -10 11 -10 2 0 4 5 4 10 0 6 -5 10 -11 10 -5 0 -7
-4 -4 -10z"/>
<path d="M390 149 c0 -5 9 -9 20 -9 11 0 20 4 20 8 0 4 -9 8 -20 9 -11 1 -20
-2 -20 -8z"/>
<path d="M1270 150 c-9 -6 -10 -10 -3 -10 6 0 15 5 18 10 8 12 4 12 -15 0z"/>
<path d="M2188 153 c7 -3 16 -2 19 1 4 3 -2 6 -13 5 -11 0 -14 -3 -6 -6z"/>
<path d="M2265 150 c-3 -5 -1 -10 4 -10 6 0 11 5 11 10 0 6 -2 10 -4 10 -3 0
-8 -4 -11 -10z"/>
<path d="M2393 142 c-1 -10 5 -19 12 -19 10 0 11 5 4 19 -5 10 -11 18 -12 18
-2 0 -3 -8 -4 -18z"/>
<path d="M2514 126 c0 -20 4 -36 9 -36 10 0 9 42 -2 59 -6 8 -8 1 -7 -23z"/>
<path d="M348 143 c6 -2 18 -2 25 0 6 3 1 5 -13 5 -14 0 -19 -2 -12 -5z"/>
<path d="M440 147 c8 -9 70 -18 150 -21 55 -3 68 -1 50 6 -27 10 -208 24 -200
15z"/>
<path d="M1816 142 c-9 -15 7 -122 20 -132 9 -9 12 -7 9 7 -2 10 -4 18 -5 18
-2 0 -12 64 -13 93 -2 24 -3 26 -11 14z"/>
<path d="M1846 137 c3 -10 9 -15 12 -12 3 3 0 11 -7 18 -10 9 -11 8 -5 -6z"/>
<path d="M2724 133 c3 -19 21 -29 29 -16 3 5 -3 14 -13 20 -15 10 -18 9 -16
-4z"/>
<path d="M1219 135 c-1 -3 -2 -8 -3 -12 -1 -5 -5 -14 -10 -21 -4 -7 -5 -16 -1
-20 3 -3 10 0 14 7 5 8 14 10 21 6 9 -5 11 -4 6 3 -4 7 -2 12 4 12 6 0 9 4 5
10 -3 5 -13 6 -22 3 -11 -4 -14 -3 -9 5 4 7 5 12 2 12 -3 0 -7 -2 -7 -5z"/>
<path d="M2080 128 c0 -6 3 -8 7 -5 3 4 12 2 20 -5 7 -6 16 -8 20 -4 3 3 1 6
-6 6 -7 0 -9 5 -6 10 3 6 -3 10 -14 10 -12 0 -21 -5 -21 -12z"/>
<path d="M1030 115 c-10 -12 -9 -15 4 -15 11 0 14 5 10 12 -5 8 -2 9 9 5 10
-3 17 -2 17 3 0 15 -26 12 -40 -5z"/>
<path d="M2200 119 c0 -5 5 -7 10 -4 6 3 10 8 10 11 0 2 -4 4 -10 4 -5 0 -10
-5 -10 -11z"/>
<path d="M2350 120 c0 -5 -6 -7 -14 -4 -8 3 -16 1 -20 -4 -8 -13 32 -8 46 6 9
9 9 12 0 12 -7 0 -12 -4 -12 -10z"/>
<path d="M695 110 c3 -5 13 -6 22 -3 11 4 14 3 9 -5 -4 -8 -2 -10 7 -6 8 3 18
1 22 -5 3 -6 14 -11 23 -11 11 0 6 6 -13 16 -34 18 -78 27 -70 14z"/>
<path d="M2060 120 c-7 -18 -5 -49 3 -41 5 5 7 17 4 27 -3 11 -6 17 -7 14z"/>
<path d="M2225 110 c-3 -5 -1 -10 4 -10 6 0 11 5 11 10 0 6 -2 10 -4 10 -3 0
-8 -4 -11 -10z"/>
<path d="M1782 101 c-11 -7 -11 -9 0 -14 9 -3 15 1 15 9 0 8 -1 14 -1 14 -1 0
-7 -4 -14 -9z"/>
<path d="M2677 104 c-3 -3 -2 -17 3 -29 6 -16 5 -25 -3 -29 -9 -3 -9 -7 -1
-13 6 -4 14 -15 17 -23 3 -8 4 10 1 40 -6 58 -7 63 -17 54z"/>
<path d="M2706 95 c4 -8 10 -12 15 -9 11 6 2 24 -11 24 -5 0 -7 -7 -4 -15z"/>
<path d="M820 96 c0 -2 8 -10 18 -17 15 -13 16 -12 3 4 -13 16 -21 21 -21 13z"/>
<path d="M1361 86 c-10 -12 -8 -13 8 -9 12 3 18 9 15 14 -7 12 -10 11 -23 -5z"/>
<path d="M1872 80 c0 -14 2 -19 5 -12 2 6 2 18 0 25 -3 6 -5 1 -5 -13z"/>
<path d="M2413 65 c1 -19 4 -35 8 -35 10 0 8 59 -1 65 -4 3 -7 -11 -7 -30z"/>
<path d="M1407 76 c-3 -8 0 -17 7 -19 10 -4 12 1 9 14 -6 23 -9 24 -16 5z"/>
<path d="M1535 79 c-4 -6 -5 -12 -2 -15 2 -3 7 2 10 11 7 17 1 20 -8 4z"/>
<path d="M2121 81 c-1 -22 22 -81 31 -81 5 0 3 10 -3 23 -7 12 -12 23 -11 24
1 2 -3 13 -8 25 -5 13 -9 17 -9 9z"/>
<path d="M2228 83 c7 -3 16 -2 19 1 4 3 -2 6 -13 5 -11 0 -14 -3 -6 -6z"/>
<path d="M2755 80 c-11 -5 -14 -9 -6 -9 10 -1 11 -4 2 -14 -8 -10 -7 -14 4
-14 8 0 15 9 15 19 0 11 5 16 10 13 6 -3 10 -1 10 4 0 13 -7 13 -35 1z"/>
<path d="M800 76 c0 -2 8 -10 18 -17 15 -13 16 -12 3 4 -13 16 -21 21 -21 13z"/>
<path d="M2517 65 c3 -8 9 -12 14 -9 12 7 11 11 -5 17 -10 4 -13 1 -9 -8z"/>
<path d="M2173 63 c-7 -3 -13 -12 -13 -21 0 -14 2 -14 9 -3 5 7 13 11 18 8 5
-3 15 -1 23 5 12 8 12 9 -2 5 -9 -3 -18 -2 -20 2 -2 4 -9 6 -15 4z"/>
<path d="M2250 60 c-9 -6 -10 -10 -3 -10 6 0 15 5 18 10 8 12 4 12 -15 0z"/>
<path d="M1235 52 c3 -3 -2 -14 -12 -24 -9 -10 -13 -21 -10 -25 4 -3 7 -1 7 6
0 8 8 10 23 7 12 -3 16 -3 10 0 -9 4 -10 11 -3 23 6 13 5 18 -6 18 -7 0 -12
-3 -9 -5z"/>
<path d="M2030 56 c0 -7 61 -13 65 -6 2 3 -12 7 -31 8 -19 2 -34 1 -34 -2z"/>
<path d="M1476 42 c-3 -5 3 -13 13 -19 14 -9 18 -8 18 3 0 15 -24 27 -31 16z"/>
<path d="M1600 31 c0 -5 5 -13 10 -16 6 -3 10 -2 10 4 0 5 -4 13 -10 16 -5 3
-10 2 -10 -4z"/>
<path d="M2516 24 c-4 -9 -4 -19 -1 -22 2 -3 7 3 11 12 4 9 4 19 1 22 -2 3 -7
-3 -11 -12z"/>
<path d="M895 18 c4 -10 29 -14 88 -15 l82 -1 -76 8 c-42 4 -82 10 -88 14 -6
4 -9 2 -6 -6z"/>
<path d="M1780 21 c0 -6 4 -13 10 -16 6 -3 7 1 4 9 -7 18 -14 21 -14 7z"/>
<path d="M2085 20 c-4 -6 -11 -7 -17 -4 -7 4 -8 2 -4 -5 6 -9 11 -9 22 0 14
11 18 19 10 19 -3 0 -8 -5 -11 -10z"/>
<path d="M1457 9 c7 -7 15 -10 18 -7 3 3 -2 9 -12 12 -14 6 -15 5 -6 -5z"/>
<path d="M1640 8 c0 -4 12 -8 26 -8 14 0 23 4 19 9 -6 11 -45 10 -45 -1z"/>
<path d="M2018 3 c7 -3 16 -2 19 1 4 3 -2 6 -13 5 -11 0 -14 -3 -6 -6z"/>
</g>
</svg>
