<?xml version="1.0" standalone="no"?>
<!DOCTYPE svg PUBLIC "-//W3C//DTD SVG 20010904//EN"
 "http://www.w3.org/TR/2001/REC-SVG-20010904/DTD/svg10.dtd">
<svg version="1.0" xmlns="http://www.w3.org/2000/svg"
 width="900.000000pt" height="539.000000pt" viewBox="0 0 900.000000 539.000000"
 preserveAspectRatio="xMidYMid meet">

<g transform="translate(0.000000,539.000000) scale(0.100000,-0.100000)"
fill="#000000" stroke="none">
<path d="M0 3766 l0 -1623 38 -7 c63 -10 106 -7 130 10 18 13 34 14 70 8 66
-11 115 -7 128 11 18 25 74 36 145 29 43 -4 74 -2 88 6 15 8 107 12 289 14
185 2 274 7 290 15 16 9 69 10 190 6 240 -7 274 -7 403 3 124 10 229 -1 304
-32 35 -15 42 -15 109 6 53 17 95 22 166 22 87 0 102 -3 179 -37 l84 -36 41
29 c23 17 57 35 76 40 62 18 309 48 538 66 214 17 230 17 395 0 369 -39 377
-41 473 -84 149 -67 276 -111 339 -117 72 -8 127 -24 120 -35 -3 -4 -14 -6
-25 -3 -12 3 -20 2 -19 -3 1 -5 -1 -17 -6 -27 -13 -31 13 -47 62 -38 34 7 45
5 58 -9 8 -9 13 -24 9 -33 -4 -11 0 -19 11 -23 13 -6 16 -18 13 -73 l-3 -66
61 -2 c34 -1 79 -6 100 -12 21 -6 40 -9 42 -7 2 3 -13 21 -32 42 -20 21 -36
42 -36 46 0 4 -8 8 -19 8 -10 0 -25 7 -32 16 -7 9 -24 20 -36 25 -13 5 -26 17
-29 26 -3 10 -10 26 -15 36 -16 29 58 22 127 -13 53 -26 62 -28 99 -18 22 6
72 13 110 15 105 5 115 9 115 41 1 15 7 38 15 52 8 14 14 40 15 59 0 29 2 32
15 21 8 -7 15 -18 15 -25 0 -7 9 -24 20 -38 11 -14 20 -31 20 -39 0 -58 70
-169 94 -149 7 6 17 6 26 1 24 -15 28 -12 22 17 -4 27 -4 27 11 8 14 -19 16
-19 22 -3 4 10 14 18 22 18 9 0 23 8 32 18 9 10 37 29 64 42 26 14 47 28 47
32 0 5 7 8 15 8 8 0 15 6 15 14 0 7 7 19 15 26 22 18 19 51 -5 57 -34 9 -23
25 13 18 84 -17 233 -57 240 -64 5 -5 -4 -14 -20 -20 -68 -28 -112 -65 -138
-115 -36 -71 -149 -153 -224 -163 -47 -6 -222 -4 -233 3 -4 3 -8 1 -8 -4 0 -5
18 -17 40 -27 21 -10 55 -35 74 -56 30 -34 40 -39 79 -39 25 0 57 -6 72 -14
28 -15 55 -12 55 6 0 15 56 67 85 78 14 5 37 10 51 10 20 0 24 5 24 28 0 37
75 110 99 95 9 -6 16 -19 17 -30 1 -11 4 -25 7 -30 4 -6 0 -19 -8 -29 -14 -18
-14 -18 -15 8 0 31 -17 45 -32 30 -8 -8 -8 -15 1 -26 6 -7 11 -18 10 -22 -1
-5 -1 -26 0 -46 1 -41 19 -50 41 -23 9 11 23 13 54 9 22 -4 43 -8 45 -10 10
-8 -26 -64 -42 -64 -10 0 -20 -7 -23 -15 -3 -8 -14 -17 -25 -20 -10 -4 -19
-15 -19 -26 0 -12 -7 -19 -19 -19 -11 0 -23 -4 -26 -10 -3 -5 1 -10 9 -10 9 0
16 -7 16 -15 0 -17 -16 -20 -25 -5 -13 20 -21 0 -18 -42 5 -66 34 -159 52
-166 9 -4 38 -20 64 -36 37 -22 65 -30 118 -34 l69 -5 43 48 c40 45 76 119 77
158 0 29 -42 109 -61 114 -10 3 -19 15 -21 27 -2 15 -9 20 -25 18 -16 -2 -23
2 -23 13 0 8 -8 18 -17 22 -10 3 -28 15 -41 27 -18 16 -25 18 -31 7 -7 -11
-10 -11 -17 0 -4 7 -3 14 4 17 7 2 12 10 12 17 0 7 26 26 58 40 70 33 173 75
184 75 4 0 8 -14 8 -31 0 -32 45 -119 62 -119 5 0 18 20 29 45 27 61 55 78
113 70 35 -6 47 -12 51 -29 11 -39 28 -66 42 -66 7 0 13 5 13 12 0 6 7 19 15
29 25 26 10 69 -24 69 -14 0 -71 19 -126 41 -79 33 -110 52 -145 89 -25 26
-65 60 -88 75 -39 26 -43 32 -38 58 5 23 1 35 -19 53 -14 13 -25 30 -25 38 0
8 39 38 88 66 172 102 198 119 250 169 66 63 102 69 102 17 0 -26 10 -45 45
-83 l44 -50 83 -6 c45 -3 84 -10 86 -16 2 -6 10 -11 18 -11 9 0 12 -4 9 -10
-3 -5 1 -10 9 -10 8 0 17 3 20 8 6 10 -15 37 -34 45 -10 4 -8 6 8 6 12 1 22
-5 22 -13 0 -8 7 -16 14 -19 10 -4 13 -1 9 9 -7 19 4 18 46 -8 69 -42 147
-132 218 -253 79 -134 145 -224 150 -208 3 7 -3 26 -12 43 -12 24 -14 35 -5
45 13 15 4 39 -11 30 -5 -3 -6 0 -3 8 3 8 -2 17 -11 21 -10 3 -15 12 -11 21 3
8 1 15 -3 15 -5 0 -15 15 -22 32 -7 18 -15 37 -17 41 -2 5 5 4 17 -2 11 -7 21
-18 21 -26 0 -8 3 -15 8 -15 8 0 42 -55 99 -162 8 -16 21 -28 30 -28 13 0 13
3 3 15 -10 12 -9 15 7 15 13 0 37 -30 82 -102 34 -57 76 -121 92 -143 16 -22
34 -50 39 -62 5 -13 14 -23 20 -23 6 0 15 -12 20 -26 6 -14 19 -28 29 -31 18
-5 51 -57 51 -81 0 -5 7 -12 15 -16 9 -3 15 -18 15 -35 0 -16 4 -33 10 -36 5
-3 17 -21 26 -41 9 -19 27 -44 40 -57 13 -12 24 -27 24 -33 0 -7 17 -27 39
-47 21 -19 41 -41 45 -48 3 -8 4 -2 1 13 -3 15 0 30 5 33 6 4 9 3 8 -2 -2 -4
2 -9 7 -11 15 -4 19 40 3 49 -10 6 -10 11 0 21 9 9 12 9 12 -4 0 -9 9 -19 19
-23 11 -3 22 -13 25 -22 6 -14 4 -14 -11 -2 -15 12 -16 12 -10 -4 4 -10 7 -33
8 -50 0 -18 3 -25 6 -17 17 53 43 79 43 43 0 -9 12 -66 26 -127 31 -126 112
-314 168 -388 12 -15 31 -41 44 -57 23 -31 29 -61 11 -61 -5 0 -8 4 -5 8 3 5
-4 16 -15 25 -10 9 -19 23 -19 31 0 8 -4 18 -10 21 -6 4 -7 -1 -3 -12 6 -14 1
-13 -24 7 -17 14 -29 27 -27 29 2 2 10 -2 19 -9 8 -7 15 -8 15 -2 0 5 -9 16
-20 23 -11 8 -21 25 -23 38 -4 28 -33 52 -53 44 -8 -3 -14 0 -14 7 0 7 -8 19
-17 26 -17 13 -17 13 2 14 18 1 18 2 4 13 -17 13 -53 81 -38 72 5 -4 9 -2 9 3
0 16 -43 22 -59 9 -8 -7 -16 -11 -18 -9 -3 2 -7 1 -11 -2 -5 -6 13 -10 31 -7
4 0 7 -7 7 -17 0 -29 24 -72 38 -67 7 3 12 -5 12 -21 0 -21 -3 -24 -27 -18
-62 13 -66 16 -52 25 11 6 11 11 2 20 -9 9 -16 9 -26 1 -19 -16 -100 57 -91
82 4 10 -2 23 -17 35 -20 16 -22 22 -11 33 11 11 13 10 10 -2 -2 -10 6 -16 25
-18 25 -3 39 12 17 20 -6 2 -6 9 0 17 7 12 11 12 24 2 8 -7 19 -10 25 -7 5 3
11 1 13 -6 7 -21 29 3 23 25 -11 38 -28 66 -37 61 -4 -3 -6 -10 -3 -15 9 -14
-8 -11 -33 7 -12 8 -22 21 -22 27 0 17 -37 39 -45 27 -3 -6 1 -10 9 -10 15 0
21 -21 18 -62 -1 -10 3 -18 8 -18 6 0 10 -4 10 -10 0 -5 -10 -8 -22 -6 -13 2
-22 10 -22 19 1 13 -2 14 -17 4 -23 -14 -25 -32 -4 -23 9 3 15 0 15 -10 0 -11
-4 -12 -18 -5 -25 13 -51 44 -31 36 10 -4 14 2 14 19 0 20 -3 22 -18 14 -29
-15 -35 2 -8 24 21 16 22 21 10 29 -7 5 -20 9 -26 9 -15 0 -17 17 -4 22 5 2 3
9 -5 16 -12 11 -14 10 -14 -3 0 -8 -5 -15 -11 -15 -5 0 -8 4 -4 9 3 5 1 12 -5
16 -6 4 -7 11 -4 17 5 7 1 9 -9 5 -11 -4 -17 -1 -17 8 0 8 -3 14 -7 14 -22 -4
-35 3 -45 26 -6 13 -15 22 -20 19 -5 -3 -6 12 -2 34 4 25 2 42 -5 46 -6 4 -11
20 -11 36 0 32 -6 37 -51 50 -36 11 -37 -9 -1 -25 16 -7 22 -18 22 -42 0 -19
8 -41 19 -52 14 -14 16 -22 8 -30 -19 -19 -36 -12 -52 19 -9 17 -17 30 -18 30
-9 0 2 -103 12 -113 6 -6 11 -20 11 -32 0 -11 18 -39 40 -63 22 -23 37 -48 34
-56 -3 -8 0 -17 5 -21 6 -3 9 -10 7 -14 -3 -4 8 -22 24 -40 17 -18 30 -37 30
-42 0 -6 5 -7 11 -3 7 4 9 0 5 -14 -4 -13 -1 -22 9 -26 8 -3 15 -15 15 -26 0
-21 -15 -27 -25 -9 -12 19 -28 3 -29 -30 -1 -25 3 -31 15 -28 9 2 21 -4 27
-14 10 -15 9 -17 -5 -12 -11 4 -14 3 -9 -6 5 -7 19 -16 33 -22 22 -8 24 -13
18 -49 -6 -34 -4 -39 9 -34 23 9 20 -3 -9 -33 -23 -25 -25 -26 -30 -7 -3 10
-12 31 -20 47 -8 15 -11 35 -8 43 5 13 2 15 -18 9 -22 -7 -23 -7 -9 10 12 14
12 19 2 22 -6 3 -10 9 -6 14 3 5 0 9 -5 9 -6 0 -11 11 -11 25 0 14 -5 25 -11
25 -6 0 -8 9 -4 20 4 11 2 20 -4 20 -6 0 -11 8 -11 18 0 9 -9 31 -20 47 -11
17 -20 38 -20 49 0 10 -8 26 -18 35 -9 9 -18 27 -19 41 -4 45 -10 64 -21 68
-6 2 -8 10 -5 18 3 8 0 14 -6 14 -6 0 -11 8 -11 19 0 10 -7 24 -15 31 -8 7
-15 18 -15 25 0 8 -8 11 -20 8 -20 -5 -28 -23 -11 -23 6 0 7 -15 4 -34 -5 -32
-3 -34 16 -29 12 3 21 1 21 -6 0 -6 -4 -11 -10 -11 -15 0 -12 -28 4 -37 7 -4
17 -30 22 -58 9 -43 13 -50 32 -48 21 3 32 -22 13 -29 -14 -5 -1 -58 14 -58
11 0 11 -6 2 -29 -9 -24 -8 -33 4 -48 20 -23 31 -51 34 -83 4 -43 5 -45 15
-30 13 20 13 4 0 -21 -8 -14 -7 -19 1 -19 7 0 9 -3 6 -7 -4 -3 -3 -11 2 -17
15 -19 43 -115 36 -126 -3 -5 1 -10 9 -10 9 0 13 -6 10 -14 -3 -8 -1 -17 5
-21 6 -3 11 -16 11 -29 0 -13 9 -31 20 -41 24 -22 24 -26 5 -51 -15 -18 -16
-17 -10 13 8 39 -11 46 -21 8 -9 -34 -23 -31 -31 6 -3 18 -14 34 -24 36 -29 8
-33 36 -7 57 l23 19 -24 -8 c-27 -8 -46 12 -29 32 7 8 7 13 0 13 -18 0 -21 49
-3 53 13 4 13 5 -1 6 -10 0 -18 8 -18 16 0 8 -6 15 -13 15 -8 0 -13 11 -12 27
1 33 -14 46 -32 31 -18 -14 -16 -48 2 -48 17 0 20 -16 5 -25 -8 -5 -8 -11 0
-20 8 -10 4 -15 -19 -23 -38 -13 -47 -2 -21 26 26 27 25 30 -5 24 -14 -2 -25
-11 -25 -18 0 -8 -4 -14 -8 -14 -5 0 -18 -9 -31 -21 -12 -12 -25 -19 -28 -16
-3 3 6 16 19 29 28 25 46 68 29 68 -6 0 -13 -11 -17 -25 -8 -33 -15 -31 -42
12 -14 22 -19 39 -13 47 16 20 -37 363 -62 394 -5 7 -7 15 -4 18 6 6 -16 34
-27 34 -11 0 -6 -36 6 -48 7 -7 13 -27 14 -45 0 -18 6 -54 13 -82 20 -84 30
-176 31 -265 0 -47 4 -92 10 -100 6 -9 5 -19 -3 -29 -9 -11 -9 -15 1 -18 13
-5 17 -33 5 -33 -5 0 -9 -12 -10 -27 -1 -17 2 -22 7 -13 6 10 12 4 23 -21 9
-22 10 -36 4 -40 -6 -4 -6 -15 -2 -25 8 -18 8 -18 12 -2 3 10 9 18 14 18 12 0
0 -51 -17 -71 -19 -21 -17 -32 4 -27 12 4 17 -2 18 -19 2 -23 1 -24 -17 -7
-16 15 -19 15 -19 2 0 -9 7 -21 15 -28 8 -7 12 -17 9 -22 -4 -6 0 -14 7 -19
12 -8 12 -10 0 -18 -12 -8 -12 -12 2 -25 13 -13 40 -16 141 -16 115 0 127 2
138 20 16 26 28 26 21 0 -5 -19 3 -19 651 -20 l656 0 0 2695 0 2695 -4500 0
-4500 0 0 -1624z m4887 1408 c-3 -3 -32 -8 -64 -10 -32 -2 -89 -6 -128 -10
-156 -15 -355 -23 -355 -13 0 7 52 14 225 29 102 9 330 12 322 4z m183 -4 c22
-14 5 -23 -20 -10 -12 6 -32 9 -43 7 -12 -3 -31 -1 -42 3 -14 6 -4 9 35 9 30
0 62 -3 70 -9z m-750 -35 c0 -11 -12 -15 -42 -16 -24 -1 -52 -3 -63 -4 -11 -2
-72 -11 -135 -20 -63 -9 -142 -21 -175 -26 -188 -29 -255 -39 -263 -38 -4 1
-9 1 -12 -1 -3 -1 -18 -3 -35 -5 -16 -2 -44 -7 -62 -10 -17 -3 -34 -2 -37 3
-4 7 63 21 329 67 71 12 180 27 410 54 39 5 73 9 78 10 4 0 7 -6 7 -14z
m-1805 -5 c4 -6 -7 -10 -27 -9 -27 0 -30 2 -13 9 27 12 33 12 40 0z m110 0 c4
-6 -11 -10 -37 -9 -33 0 -38 2 -23 9 28 12 53 12 60 0z m193 -6 c23 -3 42 -10
42 -15 0 -6 -8 -9 -17 -7 -10 2 -23 -3 -30 -12 -10 -12 -15 -13 -33 -2 -11 7
-25 10 -31 6 -6 -3 -17 2 -24 12 -13 17 -16 17 -25 4 -8 -12 -12 -12 -18 -2
-5 7 -16 10 -25 6 -16 -6 -23 6 -11 19 6 6 93 1 172 -9z m-375 -1 c-7 -2 -21
-2 -30 0 -10 3 -4 5 12 5 17 0 24 -2 18 -5z m-143 -13 c0 -5 -2 -10 -4 -10 -3
0 -8 5 -11 10 -3 6 -1 10 4 10 6 0 11 -4 11 -10z m713 -22 c22 -11 11 -31 -14
-25 -10 3 -20 0 -23 -7 -2 -6 -5 -3 -5 6 -1 13 -13 20 -41 24 -22 4 -43 11
-47 17 -7 12 103 0 130 -15z m82 -28 c8 -13 -15 -13 -35 0 -12 8 -11 10 7 10
12 0 25 -4 28 -10z m3365 -61 c46 -14 149 -109 173 -161 9 -20 55 -82 102
-138 47 -56 85 -110 85 -119 0 -10 9 -26 21 -37 12 -10 30 -37 42 -59 11 -22
54 -74 95 -115 79 -79 172 -183 172 -192 0 -3 26 -45 58 -94 32 -49 64 -105
72 -124 7 -19 26 -61 42 -93 16 -32 44 -101 64 -155 19 -53 41 -110 48 -127 8
-16 28 -70 45 -119 28 -78 40 -98 109 -175 84 -93 109 -128 168 -236 21 -38
61 -97 89 -130 149 -175 167 -226 147 -400 -8 -70 -7 -90 13 -160 76 -276 105
-412 105 -502 0 -67 -3 -83 -15 -83 -8 0 -15 -6 -15 -12 0 -9 -4 -8 -10 2 -9
13 -11 13 -20 0 -5 -9 -5 -19 0 -24 4 -4 6 -15 3 -22 -6 -17 14 -44 34 -44 9
0 14 9 13 23 -7 86 7 70 25 -29 8 -43 21 -108 30 -144 19 -84 19 -172 0 -234
-19 -63 -33 -79 -61 -72 -18 5 -22 3 -18 -9 4 -9 1 -15 -7 -15 -7 0 -21 -8
-31 -17 -19 -17 -19 -16 -12 12 8 36 14 44 14 21 0 -9 5 -14 10 -11 12 8 3 47
-14 57 -10 7 -25 -17 -32 -53 -2 -9 -9 -29 -16 -45 l-12 -29 -4 35 c-2 19 1
36 6 38 6 2 8 18 5 38 -4 27 -2 34 11 34 19 0 21 11 4 28 -6 6 -13 36 -14 66
-1 30 -7 63 -12 73 -5 10 -7 24 -5 31 3 6 0 12 -5 12 -6 0 -13 13 -17 30 -4
16 -11 32 -16 35 -5 4 -9 17 -9 30 0 18 4 23 15 19 9 -4 14 -11 13 -18 -1 -6
2 -21 6 -34 6 -19 10 -21 22 -11 8 7 11 16 6 23 -7 9 -9 112 -3 136 1 3 10 -6
21 -20 11 -14 20 -19 20 -12 0 6 5 12 11 12 6 0 8 -7 5 -16 -7 -17 10 -54 24
-54 6 0 10 7 10 15 0 8 -5 15 -11 15 -8 0 -8 4 0 14 10 11 8 19 -5 35 -16 19
-18 19 -30 3 -11 -15 -14 -14 -25 13 -8 17 -14 46 -14 65 -3 74 -6 95 -15 110
-9 13 -11 13 -20 0 -8 -12 -10 -9 -10 13 0 18 5 27 16 27 13 0 14 2 1 14 -9
10 -12 25 -9 43 l6 28 6 -30 7 -30 10 25 c12 29 5 92 -11 102 -8 5 -7 8 2 8
16 0 15 15 -1 32 -15 15 -30 47 -31 68 -1 8 -7 14 -14 12 -8 -1 -11 2 -7 8 3
5 13 10 21 10 11 0 8 9 -11 35 -15 19 -24 38 -21 43 3 5 -6 25 -19 45 -14 20
-25 40 -25 45 0 5 -9 17 -20 27 -11 10 -20 26 -20 36 0 19 -30 80 -44 91 -6 4
-4 13 3 22 11 13 11 16 -3 16 -14 0 -21 11 -17 33 0 4 -6 7 -14 7 -8 0 -15 6
-15 13 0 6 -14 20 -30 29 -16 9 -28 23 -27 30 2 7 2 10 0 6 -11 -20 -25 -5
-21 22 3 16 2 28 0 25 -3 -3 -12 4 -20 16 -8 11 -20 18 -28 15 -15 -6 -34 22
-27 42 3 7 -4 12 -15 12 -12 0 -22 9 -25 21 -3 12 -10 18 -16 15 -8 -5 -33 23
-66 74 -5 9 -20 32 -33 51 -12 20 -47 53 -77 74 -30 20 -55 42 -55 47 0 5 -4
6 -10 3 -5 -3 -10 -2 -10 3 0 5 -9 12 -21 15 -12 3 -19 10 -16 15 7 10 -29 43
-37 35 -3 -4 -6 -1 -6 5 0 7 -7 12 -15 12 -19 0 -19 14 0 30 8 7 12 16 9 21
-8 14 -24 10 -24 -6 0 -8 -4 -15 -10 -15 -5 0 -10 5 -10 11 0 5 -4 7 -10 4 -5
-3 -10 -1 -10 4 0 6 6 11 14 11 8 0 16 5 18 11 6 19 36 -2 47 -33 9 -26 14
-29 37 -24 25 7 88 -22 107 -48 5 -8 9 -7 15 1 4 6 19 10 34 10 14 -1 25 -4
22 -6 -7 -8 31 -61 44 -61 9 0 7 9 -9 31 l-22 32 26 -18 c16 -10 27 -13 27 -6
0 6 -5 11 -12 11 -6 0 -8 3 -5 6 4 4 12 2 20 -4 10 -9 13 -4 15 22 3 36 -20
69 -41 60 -17 -6 -42 39 -34 60 4 10 1 16 -8 16 -8 0 -15 7 -15 15 0 8 -10 20
-22 26 -21 11 -21 12 -3 25 14 10 15 14 4 14 -23 0 -41 37 -29 60 7 14 7 20 0
20 -5 0 -10 -7 -10 -15 0 -22 -21 -18 -27 5 -3 11 -12 20 -19 20 -8 0 -13 8
-12 18 3 37 -2 51 -17 46 -13 -5 -13 -2 0 30 9 21 11 36 5 36 -5 0 -10 -7 -10
-15 0 -8 -4 -15 -8 -15 -4 0 -7 12 -6 28 1 15 -1 31 -4 37 -7 11 -12 47 -15
97 -1 30 -7 40 -28 48 -23 10 -25 15 -19 48 4 24 11 36 20 34 11 -3 11 0 1 12
-7 8 -10 20 -6 26 4 6 -2 21 -13 33 -10 12 -27 37 -38 55 -10 17 -21 32 -25
32 -19 0 -75 71 -94 121 -20 49 -21 60 -9 70 11 9 14 8 14 -2 1 -9 4 -8 11 4
14 24 -14 57 -42 50 -14 -4 -19 0 -19 16 0 12 -4 19 -10 16 -5 -3 -10 3 -10
14 0 12 -4 21 -8 21 -4 0 -16 13 -25 30 -10 16 -23 35 -30 42 -12 12 -52 79
-84 141 -8 15 -19 24 -25 21 -12 -7 -78 54 -78 73 0 7 -6 13 -13 13 -8 0 -24
11 -37 25 -13 14 -31 25 -41 25 -9 0 -44 20 -78 45 -34 25 -66 43 -71 40 -6
-3 -31 4 -57 16 -66 31 -115 49 -134 49 -8 0 -24 6 -34 14 -18 13 -17 15 16
46 47 45 119 90 142 90 11 0 37 -5 57 -11z m-3830 -169 c0 -5 -5 -10 -11 -10
-5 0 -7 5 -4 10 3 6 8 10 11 10 2 0 4 -4 4 -10z m32 -22 c-9 -9 -12 -7 -12 12
0 19 3 21 12 12 9 -9 9 -15 0 -24z m-115 -25 c-9 -9 -20 -13 -24 -9 -4 4 -1
11 7 16 25 16 35 11 17 -7z m-53 -9 c3 -8 2 -12 -4 -9 -6 3 -10 10 -10 16 0
14 7 11 14 -7z m683 -57 c-3 -21 -4 -20 -15 6 -7 16 -9 33 -6 39 10 16 26 -19
21 -45z m1739 -290 c4 -4 -3 -7 -15 -7 -12 0 -32 -5 -44 -11 -22 -12 -22 -12
-2 8 19 19 48 24 61 10z m-6 -32 c0 -8 4 -15 8 -15 16 0 5 -54 -16 -77 -12
-13 -21 -27 -21 -31 3 -20 -2 -25 -11 -12 -8 12 -10 11 -10 -7 0 -28 -8 -29
-26 -5 -11 14 -16 15 -33 4 -23 -13 -28 -3 -9 16 9 9 7 13 -5 18 -9 3 -17 11
-17 16 0 6 7 4 16 -3 15 -12 16 -11 10 9 -5 13 -3 22 3 22 6 0 11 -4 11 -10 0
-5 7 -7 15 -4 8 4 15 12 15 20 0 8 -6 11 -15 8 -8 -4 -15 -3 -15 1 0 12 45 44
63 45 9 0 17 5 17 10 0 6 5 10 10 10 6 0 10 -7 10 -15z m210 -10 c0 -21 -17
-35 -33 -29 -10 3 -17 1 -17 -5 0 -6 -7 -11 -15 -11 -8 0 -15 -8 -15 -17 0
-13 -2 -15 -8 -5 -5 7 -16 10 -25 6 -9 -3 -15 -10 -12 -14 3 -5 1 -11 -5 -15
-12 -7 -13 15 -2 31 4 5 24 18 45 28 21 10 40 23 43 30 6 14 44 16 44 1z
m-118 -130 c-16 -20 -21 -22 -26 -9 -4 9 -2 13 5 8 7 -4 10 -1 7 7 -3 8 2 19
11 26 24 17 25 -3 3 -32z m-42 20 c0 -8 -4 -15 -10 -15 -5 0 -10 7 -10 15 0 8
5 15 10 15 6 0 10 -7 10 -15z m30 -101 c0 -17 -37 -37 -44 -25 -3 5 1 12 10
15 12 5 14 10 5 20 -6 7 -8 16 -4 19 9 9 33 -12 33 -29z m36 -73 c-4 -6 -15
-11 -24 -10 -11 0 -12 3 -4 6 6 2 12 12 12 21 0 12 3 13 11 5 6 -6 8 -16 5
-22z m164 -326 c0 -8 -9 -15 -20 -15 -20 0 -26 11 -13 23 12 13 33 7 33 -8z
m-360 -9 c0 -15 -18 -31 -26 -23 -7 7 7 37 17 37 5 0 9 -6 9 -14z m2380 4 c0
-5 -7 -10 -15 -10 -8 0 -15 5 -15 10 0 6 7 10 15 10 8 0 15 -4 15 -10z m-1846
-256 c9 -24 7 -36 -5 -28 -9 5 -10 -1 -5 -21 6 -23 4 -26 -9 -21 -9 3 -23 6
-30 6 -8 0 -11 7 -8 20 3 11 12 20 19 20 8 0 14 7 14 16 0 10 -6 14 -15 10 -8
-3 -15 -1 -15 4 0 17 47 11 54 -6z m-187 -51 c21 -10 39 -18 39 -18 1 0 5 -10
8 -22 5 -17 3 -23 -7 -23 -8 0 -14 8 -13 17 0 10 -8 19 -19 21 -11 2 -23 10
-28 18 -4 7 -15 10 -24 7 -11 -4 -14 -3 -9 5 9 15 8 15 53 -5z m113 1 c0 -8
-4 -13 -9 -9 -5 3 -11 -3 -13 -12 -2 -12 -6 -14 -11 -6 -4 6 0 19 9 27 19 20
24 20 24 0z m-236 -10 c4 -10 1 -14 -6 -12 -15 5 -23 28 -10 28 5 0 13 -7 16
-16z m-439 -4 c3 -5 1 -10 -4 -10 -6 0 -11 5 -11 10 0 6 2 10 4 10 3 0 8 -4
11 -10z m-18 -33 c-2 -6 -11 -11 -22 -13 -10 -1 -22 -9 -26 -16 -6 -10 -9 -8
-9 6 0 30 30 59 47 44 7 -6 12 -16 10 -21z m464 3 c16 0 10 -25 -10 -37 -23
-14 -31 -8 -31 25 0 18 4 23 16 18 9 -3 20 -6 25 -6z m49 -10 c-6 -11 -15 -20
-21 -20 -6 0 -6 7 1 20 6 11 15 20 21 20 6 0 6 -7 -1 -20z m50 10 c0 -5 -2
-10 -4 -10 -3 0 -8 5 -11 10 -3 6 -1 10 4 10 6 0 11 -4 11 -10z m58 -59 c4
-28 -13 -20 -21 9 -3 14 -1 20 6 17 7 -2 14 -14 15 -26z m37 -1 c-5 -8 -11 -8
-17 -2 -6 6 -7 16 -3 22 5 8 11 8 17 2 6 -6 7 -16 3 -22z m1981 -133 c1 -9 -4
-17 -11 -17 -8 0 -13 9 -12 20 2 24 19 21 23 -3z m-2566 -392 c-7 -8 -16 -15
-21 -15 -5 0 -9 7 -9 15 0 9 9 15 21 15 18 0 19 -2 9 -15z m-60 -15 c0 -5 -4
-10 -10 -10 -5 0 -10 5 -10 10 0 6 5 10 10 10 6 0 10 -4 10 -10z m2382 -159
c35 -1 69 -8 78 -15 8 -7 32 -17 53 -20 47 -9 153 -53 186 -78 13 -10 28 -18
33 -18 30 0 238 -199 238 -228 0 -5 10 -20 21 -33 12 -13 33 -46 46 -74 25
-52 36 -71 66 -117 9 -15 16 -30 15 -35 -2 -4 9 -33 24 -63 15 -30 43 -90 62
-132 19 -43 40 -78 46 -78 5 0 10 -9 10 -19 0 -11 8 -22 18 -25 14 -5 17 -14
14 -37 -3 -19 0 -34 8 -39 15 -9 6 -40 -11 -40 -6 0 -9 7 -5 15 3 8 1 15 -4
15 -6 0 -10 11 -10 25 0 14 -4 25 -10 25 -5 0 -10 9 -10 21 0 14 -5 19 -14 16
-10 -4 -13 -1 -9 9 3 8 -5 29 -19 47 -13 17 -30 46 -38 62 -8 17 -17 32 -20
35 -13 13 -30 52 -30 68 0 10 -3 22 -7 26 -8 7 -9 12 -12 39 0 7 -12 24 -26
39 -14 15 -25 33 -25 39 0 17 -66 134 -109 194 -51 71 -139 162 -188 193 -24
15 -43 30 -43 34 0 10 -89 48 -111 48 -11 0 -19 4 -19 9 0 9 -100 44 -158 56
-19 4 -57 7 -85 6 -52 -1 -107 14 -107 29 0 4 10 14 23 23 20 13 24 13 44 -3
15 -11 43 -18 85 -19z m72 -396 c94 -46 185 -124 282 -240 60 -72 109 -121
166 -166 50 -39 108 -109 108 -129 0 -6 15 -35 34 -64 19 -30 46 -78 61 -107
29 -60 40 -80 71 -124 34 -49 34 -52 17 -66 -15 -12 -16 -12 -11 8 4 13 2 21
-5 20 -6 -1 -15 8 -22 19 -14 29 -67 105 -82 122 -7 7 -13 18 -13 24 0 5 -7 8
-15 4 -8 -3 -15 -1 -15 4 0 6 5 10 12 10 9 0 9 3 0 12 -7 7 -12 20 -12 30 0
10 -7 21 -15 24 -8 4 -15 10 -15 15 0 6 -9 20 -21 32 -20 21 -88 107 -119 151
-8 11 -18 23 -22 24 -5 2 -8 8 -8 14 0 13 -21 32 -42 41 -10 3 -18 14 -18 24
0 15 -1 15 -12 1 -11 -15 -15 -15 -26 -3 -7 8 -12 18 -11 22 1 4 -6 12 -16 18
-26 15 -65 54 -65 65 0 6 -4 10 -10 10 -5 0 -18 8 -28 18 -58 56 -93 81 -109
76 -15 -5 -15 -4 -3 4 12 9 10 13 -10 21 -29 13 -59 31 -78 49 -7 6 -16 12
-20 12 -4 0 -22 13 -40 30 -18 16 -38 30 -44 32 -7 3 -8 9 -5 15 10 16 51 3
161 -52z m-1088 -236 c3 -6 1 -16 -5 -22 -9 -9 -14 -8 -21 3 -5 8 -10 18 -10
23 0 11 28 8 36 -4z m1964 -24 c0 -29 -5 -31 -27 -9 -14 13 -14 17 -2 25 23
14 29 11 29 -16z m-2073 -47 c-3 -8 -6 -5 -6 6 -1 11 2 17 5 13 3 -3 4 -12 1
-19z m-517 -48 c0 -5 -4 -10 -10 -10 -5 0 -10 5 -10 10 0 6 5 10 10 10 6 0 10
-4 10 -10z m-570 -48 c0 -4 -9 -13 -20 -20 -22 -13 -27 -3 -8 16 14 14 28 16
28 4z m1310 -42 c0 -5 -7 -10 -15 -10 -8 0 -15 5 -15 10 0 6 7 10 15 10 8 0
15 -4 15 -10z m-600 -120 c11 -7 12 -12 3 -21 -8 -8 -14 -6 -22 10 -12 22 -5
27 19 11z m2435 -30 c3 -5 1 -10 -4 -10 -6 0 -11 5 -11 10 0 6 2 10 4 10 3 0
8 -4 11 -10z m-1975 -84 c0 -3 -4 -8 -10 -11 -5 -3 -10 -1 -10 4 0 6 5 11 10
11 6 0 10 -2 10 -4z m1675 -25 c3 -5 1 -12 -5 -16 -5 -3 -10 1 -10 9 0 18 6
21 15 7z m-1551 -94 c-7 -20 -13 -21 -34 -7 -13 9 -12 12 4 25 23 17 40 6 30
-18z m-224 -77 c0 -5 -4 -10 -10 -10 -5 0 -10 5 -10 10 0 6 5 10 10 10 6 0 10
-4 10 -10z m2001 -72 c11 -18 22 -41 25 -50 4 -10 10 -18 14 -18 13 0 40 -60
40 -87 0 -14 -4 -21 -10 -18 -5 3 -10 15 -10 26 0 10 -9 28 -20 39 -11 11 -20
22 -20 25 0 3 0 9 0 13 0 5 -11 22 -25 38 -14 16 -25 40 -25 53 0 28 4 25 31
-21z m-1841 2 c0 -5 -4 -10 -10 -10 -5 0 -10 5 -10 10 0 6 5 10 10 10 6 0 10
-4 10 -10z m-110 -20 c0 -5 -5 -10 -11 -10 -5 0 -7 5 -4 10 3 6 8 10 11 10 2
0 4 -4 4 -10z m2140 -201 c0 -11 -4 -17 -10 -14 -5 3 -10 13 -10 21 0 8 5 14
10 14 6 0 10 -9 10 -21z m-275 -409 c3 -6 -1 -7 -9 -4 -18 7 -21 14 -7 14 6 0
13 -4 16 -10z m219 -116 c3 -8 2 -12 -4 -9 -6 3 -10 10 -10 16 0 14 7 11 14
-7z m56 6 c-20 -13 -33 -13 -25 0 3 6 14 10 23 10 15 0 15 -2 2 -10z m24 -26
c20 -8 21 -31 1 -31 -8 0 -13 3 -10 5 3 3 0 11 -6 19 -13 14 -9 16 15 7z
m-387 -66 c-3 -8 -6 -5 -6 6 -1 11 2 17 5 13 3 -3 4 -12 1 -19z m453 -15 c0
-7 -6 -13 -13 -13 -14 0 -39 35 -30 43 8 9 43 -16 43 -30z m-344 -43 c-3 -65
-12 -72 -26 -21 -8 32 -8 44 2 56 22 24 26 17 24 -35z m-246 -20 c0 -6 -11
-15 -24 -20 -13 -5 -26 -15 -29 -22 -3 -7 -6 0 -6 15 -1 16 3 26 7 23 4 -2 14
-1 22 5 20 12 30 11 30 -1z m800 -34 c-15 -15 -34 9 -26 31 7 17 8 17 22 -1 9
-13 11 -23 4 -30z m-933 -8 c-3 -8 -6 -5 -6 6 -1 11 2 17 5 13 3 -3 4 -12 1
-19z m116 -25 c-3 -7 -9 -13 -14 -13 -5 0 -9 -7 -9 -15 0 -8 6 -15 13 -15 8 0
13 -10 12 -22 -1 -13 3 -26 9 -31 6 -4 0 -6 -14 -5 -24 3 -40 15 -40 30 0 4 7
5 15 2 8 -4 15 -2 15 4 0 5 -7 12 -15 16 -8 3 -15 12 -15 20 0 7 -7 16 -15 20
-8 3 -15 10 -15 16 0 7 7 6 19 -1 25 -16 52 -5 45 18 -5 14 -4 15 4 4 6 -8 8
-20 5 -28z m287 -2 c0 -5 -7 -11 -14 -14 -10 -4 -13 -1 -9 9 6 15 23 19 23 5z
m594 -42 c28 -55 35 -84 11 -53 -8 10 -15 27 -15 37 0 10 -4 15 -10 12 -5 -3
-10 1 -10 11 0 9 -8 23 -17 30 -16 12 -16 13 -2 14 9 0 27 -21 43 -51z m-979
22 c3 -5 1 -12 -5 -16 -5 -3 -10 1 -10 9 0 18 6 21 15 7z m399 -34 c-7 -18
-24 -23 -24 -8 0 22 13 42 22 33 5 -5 6 -16 2 -25z m-186 -53 c5 -19 6 -34 1
-34 -5 0 -12 12 -15 28 -4 15 -14 32 -23 39 -14 10 -13 11 5 7 13 -4 25 -19
32 -40z m204 -9 c-2 -14 -6 -25 -8 -25 -2 0 -4 11 -4 25 0 14 4 25 9 25 4 0 6
-11 3 -25z m-332 -25 c-8 -5 -18 -6 -24 -3 -5 4 -1 10 10 13 24 9 34 2 14 -10z
m110 10 c0 -5 -2 -10 -4 -10 -3 0 -8 5 -11 10 -3 6 -1 10 4 10 6 0 11 -4 11
-10z m507 -12 c-3 -8 -6 -5 -6 6 -1 11 2 17 5 13 3 -3 4 -12 1 -19z m-377 3
c0 -12 -20 -25 -27 -18 -7 7 6 27 18 27 5 0 9 -4 9 -9z m-105 -40 c-8 -14 -35
-14 -35 0 0 5 4 8 9 4 5 -3 13 0 16 6 4 5 9 8 12 5 3 -2 2 -9 -2 -15z m-105
-1 c0 -5 -2 -10 -4 -10 -3 0 -8 5 -11 10 -3 6 -1 10 4 10 6 0 11 -4 11 -10z
m180 -77 c0 -2 -9 -3 -20 -3 -13 0 -20 7 -20 20 0 19 1 19 20 3 11 -10 20 -19
20 -20z m30 -8 c-7 -9 -15 -13 -18 -10 -3 2 1 11 8 20 7 9 15 13 18 10 3 -2
-1 -11 -8 -20z m760 15 c0 -5 -2 -10 -4 -10 -3 0 -8 5 -11 10 -3 6 -1 10 4 10
6 0 11 -4 11 -10z m-839 -47 c-8 -15 -10 -15 -11 -2 0 17 10 32 18 25 2 -3 -1
-13 -7 -23z m-31 -5 c0 -16 -3 -19 -11 -11 -6 6 -8 16 -5 22 11 17 16 13 16
-11z"/>
<path d="M2785 5100 c4 -6 11 -8 16 -5 14 9 11 15 -7 15 -8 0 -12 -5 -9 -10z"/>
<path d="M6348 4883 c-10 -2 -18 -9 -18 -14 0 -13 43 -11 64 4 16 12 15 13 -6
13 -13 1 -31 -1 -40 -3z"/>
<path d="M6636 4777 c3 -10 9 -15 12 -12 3 3 0 11 -7 18 -10 9 -11 8 -5 -6z"/>
<path d="M7370 3151 c0 -5 5 -13 10 -16 6 -3 10 -2 10 4 0 5 -4 13 -10 16 -5
3 -10 2 -10 -4z"/>
<path d="M7375 3050 c3 -5 11 -10 16 -10 6 0 7 5 4 10 -3 6 -11 10 -16 10 -6
0 -7 -4 -4 -10z"/>
<path d="M7700 2669 c0 -5 5 -7 10 -4 6 3 10 8 10 11 0 2 -4 4 -10 4 -5 0 -10
-5 -10 -11z"/>
<path d="M7850 2520 c0 -5 5 -10 10 -10 6 0 10 5 10 10 0 6 -4 10 -10 10 -5 0
-10 -4 -10 -10z"/>
<path d="M7890 2487 c0 -8 7 -28 16 -45 8 -18 13 -36 10 -41 -4 -5 -2 -12 3
-15 5 -3 11 4 14 15 6 23 -11 69 -26 69 -5 0 -4 7 3 15 10 12 10 15 -4 15 -9
0 -16 -6 -16 -13z"/>
<path d="M8030 1964 c-14 -35 -9 -38 13 -9 10 15 13 26 7 30 -6 3 -15 -6 -20
-21z"/>
<path d="M8036 1577 c-4 -9 -8 -24 -11 -32 -2 -8 0 -17 6 -21 6 -3 8 -12 5
-20 -3 -7 -1 -16 4 -19 6 -4 10 0 10 9 0 8 4 16 9 18 6 2 13 18 16 36 4 24 2
31 -6 26 -6 -3 -15 0 -20 7 -6 11 -9 10 -13 -4z"/>
<path d="M8040 1445 c0 -8 -4 -15 -10 -15 -5 0 -10 -5 -10 -11 0 -5 5 -7 10
-4 6 3 10 0 10 -9 0 -8 -5 -16 -11 -18 -18 -6 -18 -88 -1 -88 9 0 13 7 9 20
-3 13 0 20 9 20 8 0 14 5 14 12 0 9 3 9 12 0 26 -26 27 -10 4 33 -14 25 -23
52 -20 60 4 8 1 15 -5 15 -6 0 -11 -7 -11 -15z"/>
<path d="M8078 1418 c2 -10 6 -18 8 -18 2 0 8 8 13 18 7 14 6 18 -8 18 -12 0
-17 -6 -13 -18z"/>
<path d="M8056 1265 c4 -8 8 -15 10 -15 2 0 4 7 4 15 0 8 -4 15 -10 15 -5 0
-7 -7 -4 -15z"/>
<path d="M6655 2221 c-3 -5 -1 -12 5 -16 5 -3 10 1 10 9 0 18 -6 21 -15 7z"/>
<path d="M6934 2164 c-2 -24 36 -74 56 -74 19 0 10 46 -12 67 -36 32 -43 33
-44 7z"/>
<path d="M1250 2155 c-11 -13 -11 -18 0 -28 10 -10 12 -9 7 5 -3 9 -1 19 6 21
7 2 9 7 6 11 -3 4 -12 -1 -19 -9z"/>
<path d="M1207 2154 c-8 -8 3 -34 15 -34 7 0 6 5 -1 13 -6 8 -8 17 -4 20 3 4
4 7 1 7 -2 0 -7 -3 -11 -6z"/>
<path d="M3980 2147 c0 -17 28 -42 37 -33 3 3 1 6 -6 6 -7 0 -10 3 -8 8 3 4
-1 13 -9 20 -11 10 -14 10 -14 -1z"/>
<path d="M441 2126 c4 -30 -2 -36 -25 -30 -18 4 -28 0 -37 -14 -7 -11 -18 -18
-25 -15 -7 2 -11 -3 -11 -13 1 -9 -4 -19 -10 -21 -19 -7 -16 42 2 57 8 7 15
16 15 21 0 5 -7 9 -15 9 -8 0 -15 -7 -15 -15 0 -8 -7 -15 -15 -15 -8 0 -15 -6
-15 -12 0 -7 -7 -4 -16 7 -9 13 -24 19 -39 17 -14 -2 -25 1 -25 7 0 14 -90 7
-100 -8 -4 -7 -13 -11 -21 -10 -21 4 -62 -12 -76 -30 -10 -12 -12 -249 -13
-1039 l0 -1022 2024 0 c1602 0 2025 3 2029 13 4 9 6 9 6 0 1 -10 46 -13 190
-13 180 0 189 1 194 20 3 13 0 20 -9 20 -8 0 -14 5 -14 10 0 24 67 -4 75 -32
6 -17 20 -18 201 -18 127 0 194 4 194 10 0 6 -6 13 -14 16 -14 5 -30 44 -18
44 15 -1 39 -26 46 -47 6 -20 14 -22 74 -22 48 1 62 3 49 11 -10 5 -15 13 -13
17 3 4 -4 12 -15 19 -16 10 -19 9 -19 -5 0 -14 -2 -15 -9 -4 -7 11 -9 11 -13
0 -3 -8 -8 -12 -11 -9 -4 3 0 19 8 34 17 32 13 46 -13 40 -10 -3 -22 3 -30 16
-7 12 -8 20 -2 20 5 0 10 5 10 10 0 6 -7 10 -15 10 -8 0 -24 8 -35 17 -14 13
-17 20 -8 30 12 15 -5 43 -27 43 -7 0 -18 13 -23 30 -6 16 -22 41 -36 55 -15
14 -26 30 -26 35 0 6 -4 10 -10 10 -16 0 -11 -29 8 -48 16 -16 17 -22 6 -37
-16 -22 -44 -13 -44 15 0 11 -7 23 -15 27 -9 3 -24 22 -34 42 -11 20 -28 44
-39 54 -11 11 -18 25 -15 33 3 8 0 14 -6 14 -18 0 -60 50 -55 64 3 7 -7 18
-21 26 -14 7 -25 19 -25 27 0 7 -5 13 -11 13 -5 0 -7 5 -3 12 4 6 3 8 -3 5 -6
-4 -22 -1 -36 6 -21 10 -25 17 -20 40 4 22 2 26 -10 22 -18 -7 -17 -59 1 -77
16 -16 15 -35 -2 -41 -10 -4 -13 -1 -9 9 3 7 0 14 -6 14 -6 0 -11 11 -11 24 0
13 -7 26 -15 30 -17 6 -9 36 10 36 7 0 19 7 26 17 13 15 11 16 -13 10 -22 -6
-28 -3 -34 15 -4 13 -12 26 -18 30 -8 6 -7 8 2 8 6 0 12 7 12 15 0 8 -9 15
-21 15 -11 0 -18 -4 -14 -9 3 -5 1 -12 -5 -16 -5 -3 -10 -11 -10 -16 0 -6 4
-8 9 -5 5 3 11 -3 14 -14 3 -11 1 -20 -3 -20 -4 0 -6 -17 -3 -39 4 -30 2 -39
-12 -45 -10 -3 -24 -1 -31 5 -7 6 -17 8 -21 6 -5 -3 -16 0 -25 7 -16 12 -14
13 12 14 17 0 30 -4 30 -9 0 -5 10 -9 22 -9 l22 0 -21 20 c-12 10 -31 17 -42
15 -12 -2 -21 1 -21 7 0 6 -9 1 -19 -11 -12 -13 -22 -18 -26 -11 -3 5 -1 10 5
10 6 0 9 14 7 35 -2 20 -7 35 -10 35 -4 0 -11 0 -17 0 -5 0 -10 -9 -10 -20 0
-22 -15 -27 -23 -8 -3 8 -6 5 -6 -5 -1 -11 9 -28 22 -39 15 -13 17 -18 6 -15
-14 5 -16 -1 -11 -35 3 -26 1 -43 -8 -48 -7 -5 -8 -10 -2 -14 12 -7 62 41 62
60 0 8 5 14 10 14 6 0 10 -4 10 -9 0 -5 6 -9 13 -8 38 1 47 -4 47 -28 0 -13 8
-29 18 -34 15 -9 15 -10 -5 -11 -14 0 -24 9 -31 29 -8 24 -14 28 -36 24 -30
-6 -41 -18 -26 -28 5 -3 10 -1 10 6 0 7 3 10 6 7 3 -4 0 -16 -6 -28 -10 -19
-8 -26 12 -48 12 -14 18 -22 12 -19 -7 4 -14 -2 -17 -12 -3 -12 1 -22 9 -25 8
-3 14 -12 14 -21 0 -8 5 -15 11 -15 11 0 2 -43 -11 -48 -10 -4 0 -42 11 -42 5
0 9 7 9 15 0 9 6 12 15 9 10 -4 15 -20 15 -44 0 -23 7 -46 18 -56 16 -17 16
-17 -5 -12 -13 3 -23 3 -23 -2 0 -4 10 -10 22 -13 17 -5 19 -9 9 -20 -6 -8 -8
-23 -5 -33 5 -14 1 -12 -13 6 -11 14 -23 35 -27 48 -4 12 -12 22 -17 22 -5 0
-9 3 -8 8 3 20 -14 50 -26 46 -18 -7 -38 31 -30 56 5 15 3 18 -9 14 -9 -3 -16
-2 -16 3 0 5 -14 17 -30 27 -17 9 -28 22 -24 27 3 6 -4 18 -15 28 -21 19 -29
37 -11 26 6 -3 10 -1 10 4 0 6 -4 11 -9 11 -15 0 -31 58 -18 63 8 3 4 11 -9
21 -28 20 -38 56 -16 56 15 1 15 2 -2 15 -13 10 -17 21 -12 39 5 20 2 25 -16
28 -12 2 -24 9 -26 17 -3 10 0 12 12 8 11 -4 16 -1 16 9 0 11 -5 14 -17 9 -10
-4 -27 -9 -38 -12 -16 -4 -17 -3 -5 6 13 9 12 13 -7 26 -13 9 -23 22 -23 28 0
8 3 9 8 1 4 -5 18 -17 30 -26 22 -15 25 -15 43 3 23 23 24 38 3 67 -8 12 -14
28 -11 35 2 7 13 -2 23 -20 11 -18 24 -33 31 -33 6 0 15 -5 19 -12 5 -8 2 -9
-9 -5 -25 9 -29 -8 -13 -47 9 -21 11 -37 5 -40 -5 -2 -4 -3 3 -2 8 2 12 16 9
42 -3 39 -3 39 17 20 12 -10 26 -15 32 -11 8 5 6 11 -5 19 -9 6 -21 23 -28 36
-7 14 -18 25 -24 25 -6 0 -21 13 -33 28 -12 15 -25 26 -28 23 -3 -3 -11 -1
-19 5 -9 8 -13 8 -13 1 0 -6 5 -14 10 -17 6 -4 8 -11 4 -16 -3 -5 -10 -7 -15
-4 -5 4 -9 1 -9 -4 0 -6 8 -11 18 -11 26 0 41 -30 29 -60 -5 -15 -11 -20 -14
-12 -3 6 -11 12 -19 12 -8 0 -14 4 -14 10 0 5 7 7 16 3 11 -4 15 -2 12 7 -6
19 -56 32 -61 17 -2 -7 -8 -8 -13 -4 -5 5 -2 14 7 20 9 7 19 25 23 41 6 26 5
28 -8 17 -8 -7 -12 -20 -10 -29 4 -13 2 -12 -7 2 -9 15 -9 24 0 38 6 10 9 23
6 28 -4 6 -1 10 4 10 6 0 11 9 11 19 0 11 4 22 9 25 19 12 19 58 -1 78 -11 11
-17 22 -15 25 6 5 49 -17 58 -31 4 -4 10 -3 13 3 12 19 28 12 21 -9 -4 -12 -2
-20 5 -20 6 0 8 5 4 12 -5 8 -2 9 9 5 11 -4 17 -1 17 7 0 8 -10 17 -22 21 -20
6 -20 8 -5 12 9 2 17 9 17 14 0 5 5 9 11 9 8 0 9 -4 0 -13 -6 -8 -8 -17 -4
-20 14 -15 23 -6 23 22 0 21 -6 32 -20 36 -11 3 -20 11 -20 18 0 8 -4 7 -12
-1 -10 -10 -10 -15 1 -21 9 -6 10 -11 2 -15 -6 -4 -13 -1 -15 6 -16 53 -17 55
-29 31 -5 -13 -19 -23 -29 -23 -10 0 -21 -7 -24 -15 -4 -10 -13 -13 -24 -10
-12 4 -20 0 -23 -12 -4 -16 -6 -15 -12 4 -4 13 -11 20 -16 17 -5 -3 -2 -15 6
-27 9 -14 12 -36 9 -62 -3 -22 -6 -52 -6 -67 -1 -26 -12 -34 -40 -29 -5 0 -8
-4 -8 -9 0 -6 -16 -10 -36 -10 -30 0 -34 -3 -30 -18 5 -13 -1 -22 -16 -30 -22
-10 -21 -11 10 -11 19 -1 32 -6 30 -12 -2 -6 -8 -11 -13 -11 -16 -1 -37 -37
-32 -52 4 -9 -3 -16 -16 -20 -18 -5 -19 -8 -7 -16 12 -8 11 -12 -8 -30 -15
-14 -21 -28 -17 -41 4 -11 2 -19 -4 -19 -6 0 -11 -5 -11 -10 0 -14 -63 -109
-89 -136 -12 -12 -21 -29 -21 -38 0 -9 -5 -16 -10 -16 -6 0 -9 -12 -8 -26 2
-15 -3 -29 -9 -31 -9 -3 -13 9 -13 44 -1 40 -3 45 -13 32 -12 -16 -37 -14 -49
5 -11 16 13 37 34 30 17 -5 19 -2 13 15 -3 12 -2 21 3 21 5 0 13 -10 17 -22 6
-21 7 -20 17 12 5 19 15 38 21 42 8 5 6 9 -5 13 -10 4 -15 13 -12 23 5 13 2
13 -10 -2 -9 -12 -13 -28 -10 -39 4 -14 2 -17 -6 -12 -6 4 -10 16 -7 26 3 10
2 21 -3 24 -25 16 49 151 78 140 6 -2 12 0 12 5 0 6 18 10 41 10 25 0 38 4 34
10 -4 6 -11 8 -16 5 -16 -11 -9 7 9 21 15 13 15 14 -8 11 -14 -1 -27 -5 -30
-9 -3 -4 -12 -3 -20 2 -12 8 -12 14 3 44 9 20 22 36 28 36 6 0 8 7 5 15 -3 9
-2 23 3 33 11 21 34 73 39 87 2 6 -8 -3 -21 -19 -14 -16 -23 -35 -20 -43 3 -7
0 -13 -6 -13 -7 0 -34 -22 -60 -50 -45 -47 -81 -64 -81 -39 0 6 -7 9 -15 5 -8
-3 -15 0 -15 7 0 7 20 23 45 35 32 16 50 33 63 59 9 21 20 39 24 41 4 2 1 11
-8 19 -11 11 -12 19 -5 26 15 15 14 37 -1 33 -7 -1 -10 -1 -5 1 4 3 7 14 7 24
0 13 -4 18 -12 13 -8 -5 -9 -2 -5 10 4 10 7 22 7 27 0 6 4 8 10 4 5 -3 6 -13
3 -22 -5 -12 -2 -15 9 -11 9 4 21 1 27 -5 8 -8 11 -7 11 6 0 9 -8 17 -17 17
-14 0 -15 2 -4 9 9 6 11 18 7 35 -4 15 -2 35 4 45 8 16 7 18 -10 14 -21 -6
-29 20 -10 32 6 4 7 11 4 17 -4 6 -10 5 -16 -3 -10 -15 -4 22 9 57 5 13 3 16
-10 11 -9 -3 -19 -2 -22 3 -4 6 -1 10 4 10 6 0 11 13 11 29 0 16 7 36 15 45 8
8 14 30 14 48 l-2 33 -6 -35 c-4 -24 -9 -31 -15 -22 -6 10 -11 9 -22 -5 -8
-11 -13 -13 -14 -5 0 18 -18 15 -23 -5 -4 -15 -6 -15 -12 4 -4 13 -11 20 -16
17 -5 -3 -7 -9 -4 -14 3 -5 0 -22 -8 -37 l-14 -27 -13 23 c-6 13 -8 21 -2 17
6 -3 9 7 8 26 -1 18 -8 34 -16 36 -13 4 -13 3 -2 -10 18 -22 1 -29 -20 -8 -17
16 -17 18 3 38 11 12 16 22 11 22 -5 0 -15 -7 -22 -15 -13 -16 -35 -21 -25 -6
3 6 -1 13 -8 18 -7 4 -36 44 -65 88 -29 44 -63 94 -77 110 -13 17 -25 41 -25
55 0 20 -2 22 -10 10 -8 -12 -10 -10 -10 9 0 16 -4 21 -15 17 -8 -3 -19 2 -24
12 -9 15 -10 15 -11 1 0 -9 7 -22 15 -29 8 -7 15 -17 15 -22 0 -5 22 -41 48
-81 26 -40 53 -83 60 -97 6 -14 16 -32 22 -40 21 -32 70 -149 81 -196 6 -27
29 -95 50 -151 38 -101 45 -135 33 -167 -6 -15 -8 -15 -20 1 -7 10 -14 26 -14
36 0 9 -6 17 -13 17 -8 0 -13 11 -12 28 0 31 -19 57 -36 46 -8 -5 -8 -9 1 -14
9 -6 6 -11 -10 -20 -13 -7 -20 -8 -16 -1 4 5 3 18 -2 28 -5 10 -19 50 -31 88
-29 90 -49 135 -74 163 -11 12 -17 22 -13 22 4 0 0 10 -8 22 -9 12 -16 29 -16
37 0 8 -12 30 -27 50 -15 19 -28 48 -28 63 -1 26 -45 74 -45 49 0 -5 5 -11 11
-13 5 -2 7 -11 3 -21 -6 -17 -7 -16 -21 3 -8 11 -15 35 -16 54 -3 35 -17 63
-17 33 0 -9 -7 -17 -16 -17 -10 0 -14 6 -10 15 3 9 0 15 -10 15 -10 0 -14 -6
-11 -15 4 -8 2 -17 -2 -20 -9 -5 -24 31 -22 53 1 7 -4 11 -11 10 -8 -2 -12 4
-10 15 2 9 -1 17 -5 18 -44 4 -68 13 -82 29 -9 11 -32 23 -51 26 -19 3 -30 2
-25 -3 6 -4 10 -19 10 -33 0 -18 -6 -26 -23 -28 -20 -3 -23 0 -20 21 1 13 -5
31 -14 40 -18 18 -33 23 -24 8 3 -5 -5 -16 -18 -24 -26 -18 -46 -7 -46 25 0
22 -39 68 -58 68 -12 0 -12 -2 -1 -17 13 -15 12 -15 -8 -5 -24 13 -45 16 -26
4 17 -11 -22 -76 -41 -69 -8 3 -19 -6 -27 -21 -8 -15 -23 -36 -34 -47 -11 -11
-21 -26 -21 -32 -1 -7 -2 -23 -2 -35 l-2 -22 -22 24 c-15 16 -23 19 -26 11 -3
-8 0 -16 5 -20 5 -3 17 -25 26 -47 16 -41 55 -118 132 -259 67 -123 175 -246
244 -276 17 -8 31 -17 31 -21 0 -5 9 -8 20 -8 11 0 20 -4 20 -10 0 -5 -7 -10
-16 -10 -13 0 -12 -5 5 -34 32 -51 27 -108 -7 -74 -9 9 -12 9 -12 0 0 -7 -4
-12 -10 -12 -5 0 -10 8 -10 18 0 11 -9 27 -20 37 -10 9 -19 20 -18 24 2 20 -5
30 -27 35 -14 4 -25 11 -25 16 0 6 -5 10 -10 10 -14 0 -110 97 -110 111 0 17
-57 78 -66 71 -4 -4 -4 1 -1 11 4 9 2 17 -3 17 -11 0 -35 -41 -32 -53 1 -4 -3
-18 -10 -30 -7 -12 -12 -26 -13 -31 0 -5 -6 -11 -13 -14 -12 -4 -7 22 9 44 12
15 1 24 -19 17 -14 -5 -15 -3 -4 8 6 7 12 21 12 31 0 10 7 18 15 18 18 0 20
17 3 23 -10 3 -10 7 1 20 7 10 9 17 3 17 -5 0 -13 -7 -16 -16 -3 -9 -12 -14
-20 -11 -9 4 -12 -2 -9 -21 l3 -27 -11 25 c-7 14 -12 32 -13 40 -1 8 -10 15
-21 15 -15 0 -21 8 -23 33 -3 31 -15 41 -27 22 -12 -19 -35 1 -29 25 4 16 0
29 -14 41 -11 9 -18 23 -15 30 3 8 0 14 -7 14 -9 0 -10 3 -1 13 6 8 8 17 4 20
-11 12 -23 8 -23 -8 0 -8 -7 -15 -16 -15 -8 0 -12 4 -9 10 3 5 -6 12 -20 16
-20 5 -23 9 -15 19 8 10 7 16 -5 23 -17 9 -18 48 -1 43 17 -5 28 29 16 44 -14
16 -51 11 -86 -12 -19 -12 -22 -12 -27 2 -4 8 -4 21 -1 29 3 8 -4 16 -19 20
-19 4 -24 11 -20 25 4 14 -6 26 -36 47 -31 20 -40 32 -36 45 4 10 2 27 -4 36
-9 16 -10 15 -11 -6 0 -20 -2 -21 -15 -11 -9 8 -15 9 -15 2 0 -6 4 -13 8 -16
13 -8 13 -76 0 -76 -7 0 -7 -4 -1 -12 13 -18 14 -58 1 -58 -6 0 -7 -10 -3 -27
4 -16 8 -37 10 -48 1 -11 4 -20 5 -20 1 0 4 -38 5 -85 1 -47 5 -100 9 -117 6
-27 5 -33 -9 -33 -11 0 -15 5 -11 15 3 8 1 15 -4 15 -22 0 -9 -41 15 -50 22
-8 25 -15 23 -52 0 -24 -6 -46 -12 -50 -8 -6 -8 -10 0 -15 19 -14 23 -41 8
-53 -18 -16 -18 -34 0 -27 10 4 17 -4 21 -26 4 -18 16 -58 26 -89 11 -32 18
-62 15 -67 -8 -12 -84 10 -90 26 -7 16 8 17 37 2 12 -7 19 -8 15 -4 -4 5 -3
14 3 21 9 11 7 15 -7 21 -26 10 -53 45 -47 60 3 7 1 13 -5 13 -6 0 -12 -4 -14
-9 -6 -15 -48 -24 -49 -9 0 7 -2 32 -4 56 -2 30 0 42 8 39 7 -2 13 -10 13 -18
3 -31 5 -33 13 -20 8 13 12 13 27 0 16 -13 17 -12 11 4 -4 10 -7 21 -7 23 0 2
-7 4 -15 4 -8 0 -15 7 -15 15 0 9 7 18 15 21 8 4 15 11 15 17 0 6 -3 7 -7 4
-3 -4 -12 -2 -20 4 -10 9 -13 6 -13 -16 0 -17 -4 -25 -12 -22 -7 2 -12 14 -11
26 2 13 -3 21 -12 21 -8 0 -15 -7 -15 -15 0 -8 -9 -15 -20 -15 -14 0 -20 7
-20 23 0 15 3 18 9 9 6 -10 10 -10 21 3 10 12 10 18 0 30 -6 8 -8 20 -4 26 4
8 3 9 -5 5 -14 -9 -53 3 -46 14 3 5 13 6 22 3 13 -5 12 -1 -5 17 -25 28 -21
41 6 17 22 -20 39 -23 25 -4 -6 6 -9 26 -8 42 0 17 -3 36 -8 43 -7 9 -1 12 24
13 l34 1 -28 10 c-19 7 -30 19 -34 39 -3 16 -9 29 -13 29 -12 0 -20 -28 -13
-47 5 -13 2 -15 -15 -11 -15 4 -22 2 -22 -9 0 -8 -4 -11 -10 -8 -5 3 -10 1
-10 -4 0 -6 -9 -11 -20 -11 -11 0 -20 -5 -20 -11 0 -7 -8 -18 -17 -25 -17 -11
-16 -14 12 -36 16 -12 34 -24 40 -24 5 -1 16 -2 22 -3 7 0 12 -5 10 -9 -1 -5
12 -21 28 -36 l30 -27 -28 6 c-25 5 -28 3 -22 -15 4 -11 2 -20 -4 -20 -6 0
-11 6 -11 14 0 8 -7 17 -16 20 -8 3 -12 10 -9 16 3 6 -1 13 -9 16 -9 3 -16 13
-16 21 0 12 -3 13 -15 3 -8 -6 -19 -9 -25 -5 -7 5 -5 11 7 20 27 20 8 30 -21
12 -23 -16 -25 -16 -31 3 -4 11 -11 20 -16 20 -13 0 -11 -14 3 -28 9 -9 8 -12
-5 -12 -9 0 -17 4 -17 9 0 5 -8 12 -17 15 -10 4 -14 4 -10 0 4 -4 2 -13 -4
-21 -10 -11 -14 -10 -24 4 -14 19 0 53 21 53 7 0 14 6 17 14 5 11 1 11 -24 -1
-16 -8 -34 -11 -41 -7 -9 6 -6 10 10 14 13 3 22 10 20 15 -2 6 -6 9 -10 8 -5
-2 -8 2 -8 7 0 6 5 10 10 10 6 0 10 5 10 11 0 6 -7 8 -16 5 -12 -4 -15 -2 -10
9 3 9 0 15 -9 15 -18 0 -20 21 -3 38 7 7 9 12 5 12 -8 0 -47 -37 -47 -45 0 -3
0 -8 0 -11 0 -4 -7 -1 -15 6 -12 10 -13 16 -4 26 6 8 15 11 20 8 5 -3 9 1 9 8
0 7 9 19 20 26 11 7 20 20 20 30 0 10 7 28 16 40 14 21 14 22 -5 22 -16 0 -21
-6 -21 -24 0 -13 -6 -27 -12 -29 -10 -4 -10 -6 0 -6 16 -1 15 -18 -2 -24 -8
-3 -13 1 -12 11 0 9 -5 16 -11 15 -7 -2 -13 2 -13 8 0 6 7 9 15 6 11 -5 14 1
12 23 -1 17 -5 30 -9 30 -4 0 -10 16 -14 35 -6 36 -24 58 -24 32 0 -10 -7 -13
-20 -10 -11 3 -20 1 -20 -5 0 -5 -9 -12 -20 -15 -33 -9 -23 8 46 78 36 36 63
69 59 73 -4 4 -13 -1 -20 -11 -13 -18 -14 -18 -25 2 -6 12 -15 21 -21 21 -6 0
-8 -4 -5 -9 9 -13 -29 -42 -47 -36 -8 4 -18 1 -22 -5 -5 -8 -11 -5 -20 7 -11
14 -16 16 -26 6 -7 -7 -22 -13 -34 -12 -18 0 -17 1 5 10 33 13 35 16 20 34
-10 12 -10 15 1 15 10 0 10 3 2 11 -6 6 -9 17 -6 25 3 9 -3 12 -24 10 -15 -2
-36 -4 -46 -5 -14 -1 -16 -5 -7 -20 12 -24 13 -42 1 -22 -6 9 -15 11 -27 6
-11 -5 -25 -7 -32 -6 -6 1 -17 -10 -24 -24 -7 -16 -14 -21 -19 -14 -10 16 -29
2 -29 -22 0 -10 -6 -19 -14 -19 -8 0 -17 -11 -20 -25 -4 -16 -11 -22 -21 -19
-8 4 -15 1 -15 -5 0 -6 -5 -11 -12 -11 -6 0 -2 10 10 23 12 13 22 33 22 44 0
17 5 20 23 16 12 -3 19 -2 15 2 -4 5 -3 14 3 22 9 9 8 13 0 13 -6 0 -11 -4
-11 -10 0 -5 -7 -10 -17 -10 -15 0 -15 2 -1 18 9 9 18 26 20 37 2 14 13 22 36
25 18 3 33 10 33 15 0 6 7 9 15 7 8 -2 14 2 14 8 0 5 -3 9 -7 8 -14 -2 -43 14
-43 24 0 5 5 6 10 3 6 -3 13 1 16 9 3 9 15 16 25 16 10 0 19 5 19 11 0 7 -10
9 -25 5 -14 -4 -25 -2 -25 4 0 5 -7 10 -16 10 -10 0 -13 -6 -10 -18 4 -11 -1
-22 -14 -30 -18 -11 -19 -10 -10 14 14 37 12 43 -5 13 -10 -18 -33 -33 -77
-49 -35 -13 -68 -27 -74 -32 -7 -5 -16 -2 -24 6 -16 20 -3 79 15 72 8 -3 12 0
9 8 -3 7 -21 12 -45 11 -34 -1 -44 -6 -56 -29 -8 -16 -20 -25 -28 -23 -8 4
-11 0 -8 -12 3 -12 -3 -17 -21 -19 -14 -1 -26 2 -26 6 0 12 20 38 20 27 0 -5
5 -2 11 8 6 10 8 22 4 25 -4 4 -10 1 -12 -5 -3 -7 -12 -13 -20 -13 -9 0 -13 6
-10 15 4 8 2 17 -3 20 -15 9 -12 28 3 22 7 -3 13 3 13 12 0 13 -8 18 -28 18
-15 0 -28 -4 -28 -9 0 -5 5 -6 12 -2 8 5 9 2 5 -10 -4 -10 -7 -20 -7 -22 0 -2
-6 -4 -14 -4 -8 0 -17 11 -20 25 -4 14 -11 25 -16 25 -13 0 -13 -17 0 -25 6
-4 8 -11 5 -16 -4 -5 -1 -9 4 -9 6 0 11 -4 11 -10 0 -19 -28 -10 -33 10 -8 30
-25 24 -20 -7 4 -27 4 -27 -11 -9 -9 11 -24 20 -33 21 -30 3 -63 16 -63 25 0
5 -6 7 -14 4 -7 -3 -20 1 -27 8 -17 16 -60 19 -58 4z m299 -76 c0 -5 -7 -10
-15 -10 -8 0 -15 5 -15 10 0 6 7 10 15 10 8 0 15 -4 15 -10z m-440 -51 c0 -5
-2 -9 -4 -9 -2 0 -13 -3 -23 -7 -15 -6 -16 -4 -6 9 7 8 10 18 6 22 -4 4 0 4
10 0 9 -3 17 -10 17 -15z m455 -19 c-3 -5 -13 -10 -21 -10 -8 0 -12 5 -9 10 3
6 13 10 21 10 8 0 12 -4 9 -10z m49 -25 c-4 -8 -8 -15 -10 -15 -2 0 -4 7 -4
15 0 8 4 15 10 15 5 0 7 -7 4 -15z m-89 -5 c-3 -5 -12 -10 -18 -10 -7 0 -6 4
3 10 19 12 23 12 15 0z m10 -30 c-3 -5 -12 -10 -18 -10 -7 0 -6 4 3 10 19 12
23 12 15 0z m2055 -70 c0 -5 -4 -10 -10 -10 -5 0 -10 5 -10 10 0 6 5 10 10 10
6 0 10 -4 10 -10z m-43 -42 c-3 -8 -6 -5 -6 6 -1 11 2 17 5 13 3 -3 4 -12 1
-19z m102 -36 c-5 -2 -9 -8 -9 -14 0 -6 7 -8 15 -5 17 7 30 -9 15 -18 -6 -4
-8 -10 -6 -13 2 -4 -4 -19 -15 -32 -16 -21 -20 -23 -28 -10 -8 12 -12 10 -20
-10 -5 -14 -10 -20 -10 -13 -1 7 -8 10 -18 6 -14 -5 -15 -1 -10 25 5 26 3 32
-11 32 -13 0 -14 2 -3 9 7 5 11 13 7 19 -3 6 7 9 27 8 28 -1 32 2 35 27 3 28
4 28 21 10 10 -10 14 -19 10 -21z m128 22 c2 -5 -6 -10 -16 -11 -14 -1 -18 3
-14 13 6 16 25 14 30 -2z m-1509 -56 c-2 -6 -10 -14 -16 -16 -7 -2 -10 2 -6
12 7 18 28 22 22 4z m42 -40 c0 -14 -18 -9 -24 8 -11 28 -6 39 9 20 8 -11 15
-23 15 -28z m605 2 c-4 -11 -2 -20 4 -20 6 0 11 -4 11 -10 0 -16 -20 -12 -26
5 -6 16 1 45 11 45 4 0 3 -9 0 -20z m-655 -4 c0 -3 -4 -8 -10 -11 -5 -3 -10
-1 -10 4 0 6 5 11 10 11 6 0 10 -2 10 -4z m1265 -26 c4 -6 11 -8 16 -5 5 4 9
-1 9 -9 0 -9 -6 -15 -12 -13 -7 1 -12 -4 -10 -10 3 -16 -20 -17 -36 -1 -18 18
-14 27 11 21 22 -5 22 -5 2 10 -17 14 -18 16 -3 17 9 0 20 -5 23 -10z m237
-22 c8 6 19 7 27 3 10 -6 9 -12 -4 -25 -9 -9 -20 -16 -24 -16 -13 0 -41 36
-34 43 4 4 10 2 14 -5 6 -9 11 -9 21 0z m-102 -2 c0 -2 -7 -6 -15 -10 -8 -3
-15 -1 -15 4 0 6 7 10 15 10 8 0 15 -2 15 -4z m-1383 -12 c-3 -3 -12 -4 -19
-1 -8 3 -5 6 6 6 11 1 17 -2 13 -5z m750 -20 c-3 -3 -12 -4 -19 -1 -8 3 -5 6
6 6 11 1 17 -2 13 -5z m440 -24 c1 -17 -3 -30 -8 -30 -6 0 -9 6 -6 13 3 8 1
20 -4 28 -7 11 -9 10 -9 -6 0 -17 -2 -17 -10 -5 -15 23 -12 30 13 30 17 0 22
-6 24 -30z m273 20 c0 -5 -5 -10 -11 -10 -5 0 -7 5 -4 10 3 6 8 10 11 10 2 0
4 -4 4 -10z m51 -44 c-12 -5 -21 -13 -21 -18 0 -5 5 -6 10 -3 6 3 10 1 10 -4
0 -6 -9 -11 -20 -11 -29 0 -39 47 -14 65 16 12 22 11 37 -3 18 -16 18 -17 -2
-26z m-373 2 c16 -16 15 -29 -2 -22 -16 6 -30 34 -18 34 5 0 13 -5 20 -12z
m589 -14 c-3 -3 -12 -4 -19 -1 -8 3 -5 6 6 6 11 1 17 -2 13 -5z m-1737 -25 c0
-6 -4 -7 -10 -4 -5 3 -10 11 -10 16 0 6 5 7 10 4 6 -3 10 -11 10 -16z m1207
-1 c-3 -8 -6 -5 -6 6 -1 11 2 17 5 13 3 -3 4 -12 1 -19z m-7 -46 c0 -13 -3
-12 -15 4 -19 25 -19 40 0 24 8 -7 15 -20 15 -28z m-1123 -4 c-3 -8 -6 -5 -6
6 -1 11 2 17 5 13 3 -3 4 -12 1 -19z m1424 13 c-8 -5 -12 -18 -9 -29 5 -16 1
-19 -18 -18 -22 1 -36 16 -15 16 5 0 11 9 14 20 3 11 13 20 24 20 14 0 15 -2
4 -9z m-111 -16 c0 -8 -2 -15 -4 -15 -2 0 -6 7 -10 15 -3 8 -1 15 4 15 6 0 10
-7 10 -15z m-996 -26 c-3 -5 -12 -9 -20 -9 -8 0 -14 -5 -14 -12 0 -6 -2 -9 -5
-6 -3 2 1 16 7 30 10 20 16 24 25 16 7 -6 10 -14 7 -19z m-54 14 c-1 -5 -12
-21 -25 -38 -21 -25 -25 -27 -25 -11 0 11 7 28 17 38 16 18 33 24 33 11z
m1055 -42 c-3 -11 -2 -22 4 -25 11 -7 24 22 15 35 -3 5 -1 9 4 9 6 0 12 -6 15
-14 4 -9 14 -12 28 -9 16 5 20 3 14 -6 -4 -8 -17 -10 -31 -7 -18 5 -22 3 -18
-8 7 -18 -28 -38 -50 -30 -9 3 -16 1 -16 -6 0 -6 6 -8 13 -4 6 4 -1 -5 -16
-19 -28 -27 -57 -36 -57 -17 0 6 -7 10 -15 10 -20 0 -19 16 1 24 8 3 12 10 9
16 -10 16 21 41 55 43 19 1 28 6 25 15 -2 6 3 12 11 12 11 0 13 -6 9 -19z
m245 -36 c0 -8 -4 -15 -10 -15 -5 0 -7 7 -4 15 4 8 8 15 10 15 2 0 4 -7 4 -15z
m488 -117 c-3 -7 -13 -15 -24 -17 -16 -3 -17 -1 -5 13 16 19 34 21 29 4z
m-1008 -8 c0 -5 -5 -10 -11 -10 -5 0 -7 5 -4 10 3 6 8 10 11 10 2 0 4 -4 4
-10z m-680 -45 c0 -8 -4 -15 -10 -15 -5 0 -10 7 -10 15 0 8 5 15 10 15 6 0 10
-7 10 -15z m679 -39 c10 -12 8 -13 -8 -9 -12 3 -18 9 -15 14 7 12 10 11 23 -5z
m821 -14 c0 -5 -7 -17 -16 -28 -8 -10 -14 -14 -11 -9 2 6 7 18 10 28 7 17 17
23 17 9z m-490 -12 c0 -5 -4 -10 -10 -10 -5 0 -10 5 -10 10 0 6 5 10 10 10 6
0 10 -4 10 -10z m-345 -10 c3 -5 -1 -10 -10 -10 -9 0 -13 5 -10 10 3 6 8 10
10 10 2 0 7 -4 10 -10z m1425 -10 c0 -5 -4 -10 -9 -10 -6 0 -13 5 -16 10 -3 6
1 10 9 10 9 0 16 -4 16 -10z m-870 -29 c0 -11 -4 -22 -9 -25 -12 -8 -34 21
-26 34 11 17 35 11 35 -9z m290 5 c0 -3 -4 -8 -10 -11 -5 -3 -10 -1 -10 4 0 6
5 11 10 11 6 0 10 -2 10 -4z m530 -28 c0 -4 -9 -8 -20 -8 -11 0 -20 4 -20 9 0
6 9 9 20 8 11 -1 20 -5 20 -9z m-836 -18 c12 -12 -3 -32 -20 -26 -7 3 -17 -2
-22 -10 -7 -12 -10 -11 -19 9 -10 22 -9 24 8 20 21 -6 27 12 7 21 -7 3 -2 3
12 0 14 -4 29 -10 34 -14z m836 -10 c0 -5 -7 -7 -15 -4 -8 4 -15 8 -15 10 0 2
7 4 15 4 8 0 15 -4 15 -10z m-1970 -4 c0 -11 -19 -15 -25 -6 -3 5 1 10 9 10 9
0 16 -2 16 -4z m1925 -36 c3 -5 1 -10 -4 -10 -6 0 -11 5 -11 10 0 6 2 10 4 10
3 0 8 -4 11 -10z m-1807 -64 c-2 -19 -1 -33 3 -30 4 2 11 -6 15 -18 4 -13 9
-25 13 -28 17 -14 51 -71 51 -86 0 -15 -5 -13 -28 9 -15 15 -32 27 -36 27 -18
0 -50 55 -47 82 1 15 -2 28 -7 28 -16 0 -1 39 17 43 9 3 18 5 20 6 2 0 1 -14
-1 -33z m1819 -3 c-3 -3 -11 -2 -17 2 -9 6 -9 10 1 16 14 8 27 -7 16 -18z
m-1877 -3 c0 -5 -4 -10 -10 -10 -5 0 -10 5 -10 10 0 6 5 10 10 10 6 0 10 -4
10 -10z m1815 -10 c3 -5 1 -10 -4 -10 -6 0 -11 5 -11 10 0 6 2 10 4 10 3 0 8
-4 11 -10z m-1795 -30 c0 -5 -4 -10 -10 -10 -5 0 -10 5 -10 10 0 6 5 10 10 10
6 0 10 -4 10 -10z m1834 -41 c-10 -16 -24 -9 -24 12 0 18 2 19 15 9 8 -7 12
-16 9 -21z m-22 -34 c0 -5 -5 -11 -11 -13 -6 -2 -11 4 -11 13 0 9 5 15 11 13
6 -2 11 -8 11 -13z m-2 -46 c0 -4 -7 -6 -15 -3 -8 4 -15 10 -15 15 0 4 7 6 15
3 8 -4 15 -10 15 -15z m22 -92 c-5 -18 -7 -19 -10 -4 -2 9 -8 17 -14 17 -6 0
-8 -9 -5 -20 3 -11 1 -23 -5 -26 -15 -10 -20 3 -13 34 5 24 10 28 29 25 19 -4
22 -9 18 -26z m127 -53 c-14 -17 -29 -18 -29 -3 0 5 5 7 12 3 8 -5 10 5 6 37
l-6 44 15 -33 c11 -26 11 -37 2 -48z m-24 36 c3 -5 1 -10 -4 -10 -6 0 -11 5
-11 10 0 6 2 10 4 10 3 0 8 -4 11 -10z m-95 -30 c0 -5 -4 -10 -10 -10 -5 0
-10 5 -10 10 0 6 5 10 10 10 6 0 10 -4 10 -10z m470 0 c0 -5 -4 -10 -10 -10
-5 0 -10 5 -10 10 0 6 5 10 10 10 6 0 10 -4 10 -10z m-2298 -25 c99 -29 167
-61 252 -119 73 -49 59 -59 -21 -15 -91 51 -151 79 -171 79 -10 0 -22 4 -27 8
-6 5 -38 19 -73 32 -60 22 -87 40 -60 40 8 0 53 -11 100 -25z m2288 -1 c0 -3
-7 -12 -15 -21 -20 -19 -32 -10 -14 11 14 15 29 21 29 10z m30 -9 c0 -8 -2
-15 -4 -15 -2 0 -6 7 -10 15 -3 8 -1 15 4 15 6 0 10 -7 10 -15z m96 -22 c-10
-10 -19 5 -10 18 6 11 8 11 12 0 2 -7 1 -15 -2 -18z m-126 -13 c0 -5 -5 -10
-11 -10 -5 0 -7 5 -4 10 3 6 8 10 11 10 2 0 4 -4 4 -10z m35 -10 c-4 -11 -2
-20 4 -20 19 0 12 -22 -9 -27 -11 -3 -20 -9 -20 -14 0 -5 -4 -9 -10 -9 -5 0
-7 7 -4 15 4 10 0 15 -12 15 -15 0 -16 2 -5 13 11 10 14 10 18 0 8 -21 25 -14
18 7 -7 22 0 40 16 40 6 0 7 -9 4 -20z m42 -12 c-2 -7 3 -19 12 -26 14 -11 14
-12 -4 -10 -21 3 -35 48 -15 48 6 0 10 -6 7 -12z m87 -13 c-25 -19 -39 -19
-54 0 -11 13 -8 14 18 9 18 -4 32 -1 37 6 4 6 10 9 13 6 3 -4 -3 -13 -14 -21z
m-226 3 c19 -19 14 -29 -8 -16 -20 13 -27 28 -12 28 4 0 13 -5 20 -12z m228
-70 c-13 -21 -32 -23 -50 -5 -11 10 -10 15 1 25 10 10 13 10 13 -3 0 -8 6 -15
14 -15 10 0 12 7 8 22 -5 19 -4 20 10 8 12 -11 13 -19 4 -32z m-211 22 c3 -5
1 -10 -4 -10 -6 0 -11 5 -11 10 0 6 2 10 4 10 3 0 8 -4 11 -10z m95 6 c0 -3
-4 -8 -10 -11 -5 -3 -10 -1 -10 4 0 6 5 11 10 11 6 0 10 -2 10 -4z m40 -21 c0
-8 -7 -15 -15 -15 -8 0 -15 -5 -15 -11 0 -5 -5 -7 -12 -3 -9 6 -9 9 0 12 7 2
12 10 12 18 0 8 7 14 15 14 8 0 15 -7 15 -15z m-940 -21 c0 -8 -4 -12 -10 -9
-5 3 -10 10 -10 16 0 5 5 9 10 9 6 0 10 -7 10 -16z m1090 -19 c0 -5 -5 -3 -10
5 -5 8 -10 20 -10 25 0 6 5 3 10 -5 5 -8 10 -19 10 -25z m-33 19 c-3 -3 -12
-4 -19 -1 -8 3 -5 6 6 6 11 1 17 -2 13 -5z m-75 -49 c3 -14 1 -28 -4 -31 -4
-3 -8 -2 -7 3 4 21 -2 33 -17 33 -13 0 -14 3 -4 15 16 19 26 12 32 -20z m28
19 c0 -8 -5 -12 -10 -9 -6 4 -8 11 -5 16 9 14 15 11 15 -7z m47 -26 c6 16 23
16 23 -1 0 -8 -8 -14 -17 -14 -21 0 -44 27 -35 41 3 5 10 -1 15 -15 5 -14 11
-19 14 -11z m-114 -28 c-3 -11 -9 -18 -13 -15 -5 3 -6 14 -3 25 3 11 9 18 13
15 5 -3 6 -14 3 -25z m-903 16 c0 -3 -4 -8 -10 -11 -5 -3 -10 -1 -10 4 0 6 5
11 10 11 6 0 10 -2 10 -4z m760 -6 c0 -5 -2 -10 -4 -10 -3 0 -8 5 -11 10 -3 6
-1 10 4 10 6 0 11 -4 11 -10z m-813 -30 c1 -11 -2 -20 -7 -20 -4 0 -11 -12
-14 -26 -4 -15 -14 -33 -21 -41 -13 -13 -15 -9 -15 29 0 47 12 74 28 64 6 -3
13 -2 17 4 9 14 11 13 12 -10z m847 12 c3 -5 -1 -9 -9 -9 -8 0 -15 4 -15 9 0
4 4 8 9 8 6 0 12 -4 15 -8z m-804 -24 c0 -19 -2 -20 -10 -8 -13 19 -13 30 0
30 6 0 10 -10 10 -22z m1076 -8 c8 0 14 -4 14 -10 0 -5 -6 -10 -14 -10 -8 0
-17 -6 -20 -12 -3 -7 -3 -2 0 11 5 19 3 23 -9 18 -23 -9 -29 4 -9 19 14 10 18
10 20 -2 2 -8 10 -14 18 -14z m-72 -19 c-9 -10 -26 18 -18 30 5 9 9 8 14 -7 4
-10 6 -21 4 -23z m-1005 -47 c-6 -7 -15 -11 -21 -8 -5 3 -4 12 3 20 6 7 15 11
21 8 5 -3 4 -12 -3 -20z m1041 -4 c0 -5 -4 -10 -9 -10 -6 0 -13 5 -16 10 -3 6
1 10 9 10 9 0 16 -4 16 -10z m99 -38 c0 -9 -3 -12 -5 -6 -3 7 -13 11 -22 9 -9
-1 -11 0 -4 2 6 3 12 9 12 14 0 6 5 7 10 4 6 -3 10 -14 9 -23z m71 -18 c0 -8
-4 -12 -10 -9 -5 3 -10 10 -10 16 0 5 5 9 10 9 6 0 10 -7 10 -16z m-160 -4 c0
-5 -4 -10 -10 -10 -5 0 -10 5 -10 10 0 6 5 10 10 10 6 0 10 -4 10 -10z m215
-49 c3 -5 1 -12 -5 -16 -5 -3 -10 1 -10 9 0 18 6 21 15 7z m54 -20 c8 -5 9
-11 3 -15 -5 -3 -15 1 -22 9 -14 16 -3 20 19 6z m-469 -31 c0 -5 -2 -10 -4
-10 -3 0 -8 5 -11 10 -3 6 -1 10 4 10 6 0 11 -4 11 -10z m425 -78 c-3 -3 -11
0 -18 7 -9 10 -8 11 6 5 10 -3 15 -9 12 -12z m-75 -2 c0 -5 -2 -10 -4 -10 -3
0 -8 5 -11 10 -3 6 -1 10 4 10 6 0 11 -4 11 -10z"/>
<path d="M2789 1737 c-18 -14 -14 -37 6 -37 19 0 28 17 18 34 -6 11 -11 12
-24 3z"/>
<path d="M2960 1580 c0 -5 5 -10 11 -10 5 0 7 5 4 10 -3 6 -8 10 -11 10 -2 0
-4 -4 -4 -10z"/>
<path d="M1170 2105 c0 -8 7 -15 16 -15 14 0 14 3 4 15 -7 8 -14 15 -16 15 -2
0 -4 -7 -4 -15z"/>
<path d="M6660 2096 c0 -24 27 -79 34 -68 10 17 73 4 116 -23 50 -32 54 -11 6
27 -30 24 -134 78 -150 78 -3 0 -6 -6 -6 -14z"/>
<path d="M1695 2073 c-16 -16 -16 -17 4 -25 23 -8 51 -1 51 14 0 5 -10 6 -22
3 -17 -6 -20 -4 -15 9 8 20 3 20 -18 -1z"/>
<path d="M1246 2071 c-3 -5 1 -11 9 -14 9 -4 12 -1 8 9 -6 16 -10 17 -17 5z"/>
<path d="M7000 2067 c0 -19 60 -87 77 -87 14 0 -29 85 -44 85 -4 0 -14 4 -20
8 -8 5 -13 3 -13 -6z"/>
<path d="M1533 2035 c-15 -16 -1 -37 20 -29 12 4 17 1 17 -10 0 -9 4 -16 10
-16 5 0 7 7 4 15 -4 9 0 15 8 15 21 0 29 -11 18 -25 -11 -14 -3 -45 11 -45 5
0 9 9 9 20 0 11 4 20 10 20 5 0 7 -7 4 -15 -4 -8 -1 -15 6 -15 6 0 14 9 17 20
3 11 9 20 13 20 4 0 8 10 8 23 0 22 -4 23 -60 19 -32 -2 -64 1 -71 6 -8 7 -16
6 -24 -3z"/>
<path d="M1478 2023 c-16 -4 -26 -33 -12 -33 13 0 44 21 44 30 0 10 -3 11 -32
3z"/>
<path d="M940 2004 c0 -8 5 -12 10 -9 6 3 10 10 10 16 0 5 -4 9 -10 9 -5 0
-10 -7 -10 -16z"/>
<path d="M6690 2002 c0 -11 41 -34 48 -28 3 4 -3 13 -14 21 -21 16 -34 19 -34
7z"/>
<path d="M1382 1981 c2 -7 7 -12 11 -12 12 1 9 15 -3 20 -7 2 -11 -2 -8 -8z"/>
<path d="M2586 1974 c-5 -14 -4 -15 9 -4 17 14 19 20 6 20 -5 0 -12 -7 -15
-16z"/>
<path d="M1725 1971 c-11 -5 -25 -6 -32 -4 -15 6 -13 -148 2 -159 6 -5 5 -8
-2 -8 -18 0 -16 -35 2 -54 8 -8 15 -24 15 -35 0 -12 6 -21 13 -21 7 0 4 -7 -7
-15 -17 -13 -18 -15 -3 -15 9 0 17 -4 17 -10 0 -20 21 -9 30 16 7 19 7 31 -1
40 -10 12 -9 13 5 8 23 -9 20 15 -6 43 l-21 23 21 0 c11 0 24 5 28 12 5 8 0 9
-14 6 -25 -7 -29 4 -7 22 21 18 20 60 -2 61 -15 0 -15 2 2 9 17 7 17 9 3 9
-19 1 -25 21 -7 21 8 0 8 4 0 14 -6 7 -9 21 -5 30 7 17 0 19 -31 7z m45 -115
c0 -2 -7 -6 -15 -10 -8 -3 -15 -1 -15 4 0 6 7 10 15 10 8 0 15 -2 15 -4z m-35
-106 c3 -5 1 -10 -4 -10 -6 0 -11 5 -11 10 0 6 2 10 4 10 3 0 8 -4 11 -10z"/>
<path d="M1335 1950 c-3 -5 3 -10 14 -10 12 0 21 5 21 10 0 6 -6 10 -14 10 -8
0 -18 -4 -21 -10z"/>
<path d="M1537 1947 c6 -10 -44 -28 -62 -21 -11 5 -13 2 -9 -10 7 -19 9 -19
35 -3 17 10 23 10 26 0 7 -20 27 -15 51 10 30 32 28 37 -12 34 -19 -1 -32 -5
-29 -10z"/>
<path d="M1100 1934 c0 -14 3 -14 15 -4 8 7 15 14 15 16 0 2 -7 4 -15 4 -8 0
-15 -7 -15 -16z"/>
<path d="M1385 1939 c-11 -17 1 -21 15 -4 8 9 8 15 2 15 -6 0 -14 -5 -17 -11z"/>
<path d="M3243 1898 c0 -7 -2 -17 -3 -23 -5 -20 0 -36 10 -30 6 4 8 10 5 15
-3 5 -1 11 4 15 6 3 8 12 4 20 -6 18 -20 20 -20 3z"/>
<path d="M1377 1893 c-4 -3 -7 -11 -7 -17 0 -6 5 -5 12 2 6 6 9 14 7 17 -3 3
-9 2 -12 -2z"/>
<path d="M1405 1880 c-3 -5 -1 -10 4 -10 6 0 11 5 11 10 0 6 -2 10 -4 10 -3 0
-8 -4 -11 -10z"/>
<path d="M5350 1858 c0 -9 5 -20 11 -23 17 -11 18 -2 3 19 -12 17 -14 17 -14
4z"/>
<path d="M3450 1855 c0 -5 5 -17 10 -25 5 -8 10 -10 10 -5 0 6 -5 17 -10 25
-5 8 -10 11 -10 5z"/>
<path d="M4880 1832 c0 -6 9 -12 20 -15 11 -3 20 -3 20 -1 0 2 -9 8 -20 14
-11 6 -20 7 -20 2z"/>
<path d="M3370 1810 c0 -5 5 -10 11 -10 5 0 7 5 4 10 -3 6 -8 10 -11 10 -2 0
-4 -4 -4 -10z"/>
<path d="M1553 1803 c-13 -2 -23 -9 -23 -14 0 -6 10 -7 23 -3 22 6 22 6 -2
-15 -13 -11 -28 -21 -33 -21 -4 0 -8 -7 -8 -15 0 -24 18 -18 50 18 28 30 39
59 23 56 -5 -1 -18 -4 -30 -6z"/>
<path d="M6684 1793 c2 -24 37 -95 44 -89 3 3 -1 12 -8 20 -6 9 -12 31 -13 51
-1 19 -6 35 -13 35 -6 0 -11 -8 -10 -17z"/>
<path d="M1606 1792 c-2 -4 4 -13 15 -20 22 -14 25 -7 5 14 -8 8 -17 11 -20 6z"/>
<path d="M2396 1775 c4 -8 10 -12 15 -9 11 6 2 24 -11 24 -5 0 -7 -7 -4 -15z"/>
<path d="M3462 1764 c-7 -8 -8 -14 -3 -14 10 0 25 19 20 25 -2 1 -10 -3 -17
-11z"/>
<path d="M5210 1770 c0 -5 7 -10 16 -10 8 0 12 5 9 10 -3 6 -10 10 -16 10 -5
0 -9 -4 -9 -10z"/>
<path d="M2267 1753 c-4 -3 -7 -13 -7 -22 1 -13 3 -13 11 2 11 19 8 33 -4 20z"/>
<path d="M3395 1740 c-3 -5 -1 -10 4 -10 6 0 11 5 11 10 0 6 -2 10 -4 10 -3 0
-8 -4 -11 -10z"/>
<path d="M7387 1742 c-4 -6 -4 -24 0 -39 4 -15 6 -36 4 -46 -5 -37 32 -196 50
-216 11 -12 15 -22 9 -26 -16 -10 -12 -45 5 -45 9 0 18 -7 21 -15 12 -30 128
-83 140 -64 10 17 12 59 3 59 -5 0 -9 6 -9 13 0 6 -35 64 -78 127 -77 115
-113 179 -129 235 -6 18 -12 25 -16 17z"/>
<path d="M1971 1674 c0 -11 3 -14 6 -6 3 7 2 16 -1 19 -3 4 -6 -2 -5 -13z"/>
<path d="M6936 1648 c46 -152 68 -219 79 -248 7 -19 16 -44 19 -54 5 -14 10
-16 18 -8 7 7 3 36 -17 101 -16 50 -32 91 -37 91 -4 0 -8 6 -8 14 0 17 -48
126 -56 126 -3 0 -2 -10 2 -22z"/>
<path d="M1806 1636 c3 -8 13 -12 27 -8 20 5 20 6 1 13 -29 11 -34 10 -28 -5z"/>
<path d="M3460 1641 c0 -5 7 -11 14 -14 10 -4 13 -1 9 9 -6 15 -23 19 -23 5z"/>
<path d="M1697 1622 c-11 -12 -13 -22 -7 -32 8 -13 10 -12 10 3 0 15 3 16 22
6 18 -10 20 -9 15 6 -4 9 -7 21 -7 26 0 15 -16 10 -33 -9z"/>
<path d="M6535 1632 c-14 -9 -13 -125 0 -134 18 -13 27 -9 20 11 -3 10 -6 44
-7 75 -1 31 -2 56 -2 56 -1 0 -6 -4 -11 -8z"/>
<path d="M3665 1600 c0 -16 4 -30 8 -30 5 0 5 -4 2 -10 -3 -5 -1 -10 6 -10 7
0 9 9 5 23 -3 12 -6 30 -6 40 0 9 -3 17 -7 17 -5 0 -8 -13 -8 -30z"/>
<path d="M7065 1603 c4 -10 18 -52 32 -93 14 -41 51 -129 83 -195 31 -66 62
-132 68 -147 12 -30 19 -33 40 -19 10 6 8 18 -12 56 -15 26 -26 54 -26 60 0 7
-16 36 -35 65 -19 29 -35 54 -35 57 0 3 -13 34 -30 70 -16 35 -30 69 -30 74 0
5 -4 9 -9 9 -5 0 -12 15 -15 34 -4 19 -14 37 -22 40 -12 5 -15 2 -9 -11z"/>
<path d="M1661 1594 c0 -11 3 -14 6 -6 3 7 2 16 -1 19 -3 4 -6 -2 -5 -13z"/>
<path d="M3517 1594 c3 -7 9 -14 14 -14 14 0 10 17 -5 23 -10 4 -13 1 -9 -9z"/>
<path d="M3740 1594 c0 -8 5 -12 10 -9 6 3 10 10 10 16 0 5 -4 9 -10 9 -5 0
-10 -7 -10 -16z"/>
<path d="M1610 1584 c0 -9 5 -12 12 -8 8 5 9 2 5 -9 -5 -12 -1 -17 13 -17 11
0 20 5 20 10 0 6 -4 10 -10 10 -5 0 -10 7 -10 15 0 8 -7 15 -15 15 -8 0 -15
-7 -15 -16z"/>
<path d="M3836 1585 c4 -8 8 -15 10 -15 2 0 4 7 4 15 0 8 -4 15 -10 15 -5 0
-7 -7 -4 -15z"/>
<path d="M2340 1570 c0 -5 5 -10 10 -10 6 0 10 5 10 10 0 6 -4 10 -10 10 -5 0
-10 -4 -10 -10z"/>
<path d="M1555 1560 c-3 -5 1 -10 9 -10 8 0 18 5 21 10 3 6 -1 10 -9 10 -8 0
-18 -4 -21 -10z"/>
<path d="M2340 1530 c0 -5 5 -10 11 -10 5 0 7 5 4 10 -3 6 -8 10 -11 10 -2 0
-4 -4 -4 -10z"/>
<path d="M1597 1523 c-4 -3 -7 -11 -7 -17 0 -6 5 -5 12 2 6 6 9 14 7 17 -3 3
-9 2 -12 -2z"/>
<path d="M1950 1520 c0 -5 5 -10 11 -10 5 0 7 5 4 10 -3 6 -8 10 -11 10 -2 0
-4 -4 -4 -10z"/>
<path d="M3674 1495 c-5 -13 -9 -13 -22 -3 -13 11 -15 10 -9 -4 3 -9 1 -19 -6
-21 -7 -2 -9 -8 -5 -12 7 -7 68 34 68 47 0 14 -20 9 -26 -7z"/>
<path d="M3816 1461 c-3 -5 5 -11 19 -13 28 -6 34 6 9 16 -20 8 -22 8 -28 -3z"/>
<path d="M3687 1454 c-3 -4 -2 -15 4 -26 6 -10 7 -29 4 -41 -5 -20 -4 -19 9 3
8 14 11 29 6 34 -5 5 -6 15 -3 22 5 14 -8 19 -20 8z"/>
<path d="M1680 1419 c0 -5 5 -7 10 -4 6 3 10 8 10 11 0 2 -4 4 -10 4 -5 0 -10
-5 -10 -11z"/>
<path d="M6520 1419 c0 -8 5 -20 12 -27 9 -9 9 -12 0 -12 -12 0 -11 -34 3
-165 2 -16 4 -34 4 -38 1 -5 5 -5 11 -2 5 3 9 42 8 85 -1 44 -4 78 -7 76 -3
-2 -6 14 -6 35 -1 21 -6 44 -13 51 -9 9 -12 9 -12 -3z"/>
<path d="M1890 1411 c0 -6 5 -13 10 -16 6 -3 10 1 10 9 0 9 -4 16 -10 16 -5 0
-10 -4 -10 -9z"/>
<path d="M2420 1405 c0 -8 5 -15 10 -15 6 0 10 7 10 15 0 8 -4 15 -10 15 -5 0
-10 -7 -10 -15z"/>
<path d="M1920 1393 c0 -5 11 -9 25 -9 14 -1 22 2 19 7 -6 11 -44 12 -44 2z"/>
<path d="M3656 1384 c-11 -8 -16 -14 -10 -14 13 0 39 18 34 24 -3 2 -14 -2
-24 -10z"/>
<path d="M3729 1387 c-21 -16 -31 -45 -18 -53 6 -3 8 -12 5 -20 -3 -8 -2 -14
2 -14 14 0 29 16 34 36 5 18 2 21 -16 16 -21 -5 -21 -5 -2 16 22 25 19 36 -5
19z"/>
<path d="M3950 1354 c0 -8 5 -12 10 -9 6 4 8 11 5 16 -9 14 -15 11 -15 -7z"/>
<path d="M1940 1350 c0 -5 5 -10 10 -10 6 0 10 5 10 10 0 6 -4 10 -10 10 -5 0
-10 -4 -10 -10z"/>
<path d="M3630 1334 c0 -8 5 -12 10 -9 6 4 8 11 5 16 -9 14 -15 11 -15 -7z"/>
<path d="M3672 1330 c-10 -17 -10 -20 3 -20 8 0 15 9 15 20 0 11 -1 20 -3 20
-1 0 -8 -9 -15 -20z"/>
<path d="M7335 1340 c-3 -5 1 -10 10 -10 9 0 13 5 10 10 -3 6 -8 10 -10 10 -2
0 -7 -4 -10 -10z"/>
<path d="M4000 1325 c-1 -5 -3 -19 -4 -29 0 -11 -7 -21 -15 -24 -10 -3 -12 1
-9 15 3 12 0 20 -7 20 -14 0 -10 -19 13 -54 13 -20 12 -23 -2 -23 -9 0 -16 -7
-16 -16 0 -12 6 -11 29 8 19 15 25 27 19 35 -5 6 -5 13 -1 15 5 1 6 17 2 33
-4 17 -8 26 -9 20z"/>
<path d="M7047 1322 c-3 -4 8 -33 24 -66 16 -32 29 -65 30 -74 0 -11 2 -12 6
-5 2 7 -5 44 -17 83 -20 65 -32 82 -43 62z"/>
<path d="M7354 1308 c-4 -7 -2 -14 4 -16 6 -2 9 -9 6 -16 -3 -8 6 -23 20 -34
28 -22 33 -38 14 -45 -7 -2 -9 -8 -5 -13 4 -5 11 -4 15 2 4 6 13 13 20 15 10
3 8 11 -7 31 -12 14 -21 34 -21 45 0 24 -36 48 -46 31z"/>
<path d="M3690 1285 c0 -16 16 -20 24 -6 3 5 -1 11 -9 15 -9 3 -15 0 -15 -9z"/>
<path d="M3375 1281 c-3 -5 -1 -12 5 -16 5 -3 10 1 10 9 0 18 -6 21 -15 7z"/>
<path d="M3725 1255 c-4 -11 -11 -30 -16 -42 -11 -29 1 -29 22 0 10 14 13 29
9 42 l-8 20 -7 -20z"/>
<path d="M3927 1233 c-4 -3 -7 -19 -7 -35 0 -22 4 -28 23 -28 21 1 21 1 3 15
-12 9 -17 22 -13 35 5 21 4 24 -6 13z"/>
<path d="M4030 1222 c0 -12 19 -26 26 -19 2 2 -2 10 -11 17 -9 8 -15 8 -15 2z"/>
<path d="M7501 1204 c0 -11 3 -14 6 -6 3 7 2 16 -1 19 -3 4 -6 -2 -5 -13z"/>
<path d="M7440 1171 c0 -5 5 -13 10 -16 6 -3 10 -2 10 4 0 5 -4 13 -10 16 -5
3 -10 2 -10 -4z"/>
<path d="M3703 1155 c0 -8 4 -12 9 -9 4 3 8 9 8 15 0 5 -4 9 -8 9 -5 0 -9 -7
-9 -15z"/>
<path d="M7400 1151 c-7 -15 -7 -21 0 -21 12 0 25 28 17 36 -3 3 -10 -4 -17
-15z"/>
<path d="M7115 1150 c3 -5 8 -10 11 -10 2 0 4 5 4 10 0 6 -5 10 -11 10 -5 0
-7 -4 -4 -10z"/>
<path d="M1940 1140 c0 -5 5 -10 10 -10 6 0 10 5 10 10 0 6 -4 10 -10 10 -5 0
-10 -4 -10 -10z"/>
<path d="M7276 1131 c-9 -14 4 -41 20 -41 14 0 18 -12 15 -38 -1 -7 5 -19 14
-28 8 -8 15 -24 15 -33 0 -26 26 -46 36 -30 4 7 2 15 -4 17 -7 2 -19 28 -28
58 -8 30 -19 54 -24 54 -5 0 -10 10 -12 22 -3 23 -23 35 -32 19z"/>
<path d="M7431 1123 c-18 -20 -6 -29 14 -10 8 9 12 18 8 20 -5 3 -14 -2 -22
-10z"/>
<path d="M3600 1123 c0 -4 5 -15 10 -23 8 -13 10 -13 10 2 0 9 -4 20 -10 23
-5 3 -10 3 -10 -2z"/>
<path d="M3797 1099 c-10 -11 -15 -24 -12 -29 8 -14 -8 -13 -22 1 -8 8 -13 8
-18 0 -3 -6 -3 -11 2 -10 4 1 16 -1 25 -5 11 -5 28 1 50 16 18 12 35 24 37 25
1 1 0 7 -4 13 -6 9 -10 9 -16 -1 -6 -10 -9 -11 -9 -1 0 17 -12 14 -33 -9z"/>
<path d="M4094 1085 c3 -10 -5 -20 -24 -30 -20 -10 -30 -23 -30 -38 0 -25 41
-68 48 -49 2 7 10 12 18 12 9 0 13 4 9 9 -3 5 -1 12 4 15 5 4 12 2 16 -4 9
-15 25 -12 25 5 0 9 -8 18 -17 21 -10 3 -24 8 -32 10 -11 4 -10 9 5 25 16 17
16 22 4 29 -22 14 -33 12 -26 -5z m-7 -70 c-2 -14 -6 -25 -10 -25 -4 0 -11 0
-17 0 -17 0 -11 28 8 39 23 14 23 14 19 -14z"/>
<path d="M3982 1038 c-2 -18 -7 -34 -12 -36 -6 -2 -10 -8 -10 -14 0 -6 7 -8
15 -4 8 3 15 1 15 -4 0 -6 7 -10 15 -10 9 0 15 -6 14 -12 -3 -27 2 -36 24 -41
20 -6 20 -5 4 7 -10 8 -16 24 -15 37 2 18 -2 25 -19 27 -17 2 -23 10 -23 28 0
13 4 24 10 24 5 0 7 7 4 15 -10 25 -20 17 -22 -17z"/>
<path d="M6331 1019 c-5 -15 -5 -29 2 -37 8 -10 7 -16 -2 -22 -9 -5 -11 -20
-6 -51 3 -26 3 -39 -3 -31 -5 7 -8 -16 -7 -60 1 -40 -1 -77 -4 -83 -6 -10 -10
-42 -11 -80 -1 -10 -5 -24 -9 -30 -11 -14 -1 -136 11 -129 5 3 8 20 7 38 -2
17 1 38 6 46 5 8 11 23 12 34 2 10 10 51 19 90 9 39 22 108 29 154 l12 83 -24
-6 c-21 -5 -23 -3 -14 13 6 11 6 24 0 33 -13 20 -11 27 8 31 15 3 15 4 0 17
-15 12 -18 10 -26 -10z"/>
<path d="M7940 1006 c0 -4 7 -14 15 -22 8 -9 15 -11 15 -6 0 5 -7 15 -15 22
-8 7 -15 9 -15 6z"/>
<path d="M4111 954 c0 -11 3 -14 6 -6 3 7 2 16 -1 19 -3 4 -6 -2 -5 -13z"/>
<path d="M4133 955 c0 -17 13 -20 22 -5 4 6 15 8 26 5 11 -4 19 -2 19 4 0 6
-15 11 -33 11 -23 0 -34 -5 -34 -15z"/>
<path d="M3975 950 c3 -5 8 -10 11 -10 2 0 4 5 4 10 0 6 -5 10 -11 10 -5 0 -7
-4 -4 -10z"/>
<path d="M7340 937 c0 -8 3 -16 6 -20 8 -8 34 3 34 15 0 5 -4 6 -10 3 -5 -3
-10 -1 -10 4 0 6 -4 11 -10 11 -5 0 -10 -6 -10 -13z"/>
<path d="M4187 910 c3 -19 1 -30 -6 -30 -6 0 -11 5 -11 11 0 8 -5 8 -15 -1 -8
-7 -15 -9 -15 -4 0 4 -5 3 -12 -4 -8 -8 -15 -9 -25 -1 -9 8 -13 8 -13 0 0 -6
10 -16 23 -21 19 -8 20 -9 3 -9 -17 -1 -15 -16 2 -16 4 0 13 -4 20 -8 21 -14
13 -44 -18 -68 -31 -25 -38 -39 -20 -39 35 0 87 94 58 105 -8 3 -14 15 -13 25
2 33 14 34 26 4 10 -27 12 -28 20 -9 8 17 9 16 6 -7 -3 -17 1 -29 10 -32 21
-8 23 -8 23 9 0 8 -5 15 -11 15 -5 0 -8 4 -5 9 3 4 2 22 -3 38 -5 17 -5 37 1
46 7 13 5 17 -11 17 -17 0 -20 -5 -14 -30z"/>
<path d="M4090 921 c0 -6 4 -12 8 -15 5 -3 9 1 9 9 0 8 -4 15 -9 15 -4 0 -8
-4 -8 -9z"/>
<path d="M3700 909 c0 -5 5 -7 10 -4 6 3 10 8 10 11 0 2 -4 4 -10 4 -5 0 -10
-5 -10 -11z"/>
<path d="M4120 910 c0 -5 5 -10 11 -10 5 0 7 5 4 10 -3 6 -8 10 -11 10 -2 0
-4 -4 -4 -10z"/>
<path d="M4221 894 c0 -11 3 -14 6 -6 3 7 2 16 -1 19 -3 4 -6 -2 -5 -13z"/>
<path d="M4248 885 c-21 -28 -16 -47 17 -65 13 -7 25 -22 27 -33 3 -18 5 -17
18 9 8 16 19 32 25 36 6 5 6 8 -2 8 -6 0 -14 8 -16 18 -4 13 -5 11 -6 -5 -1
-27 -9 -28 -36 -6 -16 13 -17 15 -2 10 11 -4 17 -1 17 8 0 8 -4 15 -9 15 -5 0
-11 6 -13 14 -2 10 -8 7 -20 -9z"/>
<path d="M7364 884 c10 -37 14 -40 28 -26 14 14 1 43 -22 50 -10 4 -11 -3 -6
-24z"/>
<path d="M3691 814 c0 -11 3 -14 6 -6 3 7 2 16 -1 19 -3 4 -6 -2 -5 -13z"/>
<path d="M7908 789 c-13 -23 -14 -29 -4 -29 8 0 17 12 20 26 10 37 4 38 -16 3z"/>
<path d="M4247 803 c-12 -11 -8 -23 8 -23 8 0 15 7 15 15 0 16 -12 20 -23 8z"/>
<path d="M7387 790 c8 -29 20 -33 26 -9 3 12 3 18 0 15 -4 -3 -12 -1 -19 5 -9
8 -11 5 -7 -11z"/>
<path d="M7950 780 c0 -5 5 -10 10 -10 6 0 10 5 10 10 0 6 -4 10 -10 10 -5 0
-10 -4 -10 -10z"/>
<path d="M4170 769 c0 -5 5 -7 10 -4 6 3 10 8 10 11 0 2 -4 4 -10 4 -5 0 -10
-5 -10 -11z"/>
<path d="M4223 767 c3 -9 2 -19 -3 -22 -15 -9 -12 -25 4 -25 16 0 19 47 3 57
-6 4 -8 0 -4 -10z"/>
<path d="M7450 769 c0 -5 5 -7 10 -4 6 3 10 8 10 11 0 2 -4 4 -10 4 -5 0 -10
-5 -10 -11z"/>
<path d="M4270 750 c0 -5 5 -10 10 -10 6 0 10 5 10 10 0 6 -4 10 -10 10 -5 0
-10 -4 -10 -10z"/>
<path d="M7942 742 c-6 -2 -12 -11 -12 -19 0 -13 3 -13 15 -3 13 10 15 9 15
-10 0 -16 4 -20 16 -16 9 3 20 6 25 6 5 0 9 5 9 10 0 6 -6 10 -14 10 -8 0 -21
6 -28 13 -7 8 -19 12 -26 9z"/>
<path d="M4258 723 c7 -3 16 -2 19 1 4 3 -2 6 -13 5 -11 0 -14 -3 -6 -6z"/>
<path d="M4290 710 c0 -5 5 -10 10 -10 6 0 10 5 10 10 0 6 -4 10 -10 10 -5 0
-10 -4 -10 -10z"/>
<path d="M7490 710 c0 -5 5 -10 11 -10 5 0 7 5 4 10 -3 6 -8 10 -11 10 -2 0
-4 -4 -4 -10z"/>
<path d="M5740 680 c0 -5 5 -10 10 -10 6 0 10 5 10 10 0 6 -4 10 -10 10 -5 0
-10 -4 -10 -10z"/>
<path d="M7477 684 c-13 -13 -7 -44 8 -44 18 0 20 -17 3 -23 -10 -3 -10 -7 0
-19 10 -13 10 -17 0 -21 -9 -3 -10 -8 -3 -15 11 -11 55 2 55 16 0 5 -7 15 -15
22 -13 11 -13 15 -3 22 10 7 10 11 -3 21 -8 6 -20 20 -25 30 -6 10 -13 14 -17
11z"/>
<path d="M4125 670 c-3 -5 -1 -10 4 -10 6 0 11 5 11 10 0 6 -2 10 -4 10 -3 0
-8 -4 -11 -10z"/>
<path d="M8011 664 c0 -11 3 -14 6 -6 3 7 2 16 -1 19 -3 4 -6 -2 -5 -13z"/>
<path d="M7420 650 c0 -6 7 -10 15 -10 8 0 15 2 15 4 0 2 -7 6 -15 10 -8 3
-15 1 -15 -4z"/>
<path d="M8120 650 c0 -5 5 -10 10 -10 6 0 10 5 10 10 0 6 -4 10 -10 10 -5 0
-10 -4 -10 -10z"/>
<path d="M5770 620 c0 -5 0 -12 0 -15 0 -12 14 -4 16 10 1 8 -2 15 -7 15 -5 0
-9 -4 -9 -10z"/>
<path d="M7430 621 c0 -5 7 -15 17 -22 15 -13 15 -12 4 9 -12 23 -21 28 -21
13z"/>
<path d="M7718 565 c-3 -14 -2 -28 3 -30 12 -8 22 36 11 47 -6 6 -11 0 -14
-17z"/>
<path d="M4180 553 c0 -10 5 -25 10 -33 8 -12 10 -9 10 12 0 15 -4 30 -10 33
-5 3 -10 -2 -10 -12z"/>
<path d="M7450 545 c0 -14 -5 -25 -11 -25 -8 0 -8 -5 1 -15 13 -16 35 -21 26
-6 -4 5 0 12 6 14 10 4 10 6 0 6 -8 1 -10 9 -6 26 4 15 2 25 -5 25 -6 0 -11
-11 -11 -25z"/>
<path d="M4620 551 c0 -6 4 -13 10 -16 6 -3 7 1 4 9 -7 18 -14 21 -14 7z"/>
<path d="M5770 539 c0 -5 5 -7 10 -4 6 3 10 8 10 11 0 2 -4 4 -10 4 -5 0 -10
-5 -10 -11z"/>
<path d="M3470 510 c0 -5 5 -10 10 -10 6 0 10 5 10 10 0 6 -4 10 -10 10 -5 0
-10 -4 -10 -10z"/>
<path d="M7395 510 c3 -5 8 -10 11 -10 2 0 4 5 4 10 0 6 -5 10 -11 10 -5 0 -7
-4 -4 -10z"/>
<path d="M4165 501 c-3 -5 -1 -12 5 -16 5 -3 10 1 10 9 0 18 -6 21 -15 7z"/>
<path d="M5930 501 c0 -6 4 -13 10 -16 6 -3 7 1 4 9 -7 18 -14 21 -14 7z"/>
<path d="M5256 481 c-3 -5 1 -11 9 -15 8 -3 15 -1 15 4 0 13 -18 22 -24 11z"/>
<path d="M4657 465 c-4 -8 -2 -17 3 -20 6 -4 10 3 10 14 0 25 -6 27 -13 6z"/>
<path d="M5781 464 c0 -11 3 -14 6 -6 3 7 2 16 -1 19 -3 4 -6 -2 -5 -13z"/>
<path d="M7187 465 c-5 -11 -1 -22 10 -31 14 -11 14 -14 3 -12 -10 2 -16 -7
-18 -25 -4 -29 12 -57 32 -57 6 0 4 5 -4 10 -12 7 -12 12 -2 22 9 9 12 8 12
-6 0 -12 5 -16 15 -12 8 3 15 1 15 -4 0 -6 7 -10 15 -10 8 0 15 -5 15 -12 0
-6 3 -8 7 -5 3 4 -10 22 -30 41 -41 38 -44 46 -22 46 18 0 19 5 4 32 -9 16
-13 18 -20 7 -6 -10 -10 -8 -17 10 -8 21 -9 22 -15 6z"/>
<path d="M4683 446 c0 -14 6 -27 13 -30 15 -6 17 -1 8 32 -8 29 -21 28 -21 -2z"/>
<path d="M6280 460 c0 -5 5 -10 10 -10 6 0 10 5 10 10 0 6 -4 10 -10 10 -5 0
-10 -4 -10 -10z"/>
<path d="M5962 390 c3 -21 0 -30 -9 -30 -12 0 -11 -3 1 -16 19 -18 19 -20 5
-46 -6 -12 -7 -18 -1 -14 5 3 12 -4 16 -17 10 -37 7 -57 -10 -57 -8 0 -13 -4
-9 -10 3 -5 11 -7 18 -4 9 3 12 -7 10 -38 -3 -38 -2 -40 7 -18 7 15 8 51 4 95
-7 72 -11 123 -13 163 -1 12 -6 22 -12 22 -7 0 -10 -12 -7 -30z"/>
<path d="M4232 395 c-7 -8 -9 -15 -4 -15 5 0 15 7 22 15 16 19 -1 19 -18 0z"/>
<path d="M4665 400 c-3 -5 -1 -10 4 -10 6 0 11 5 11 10 0 6 -2 10 -4 10 -3 0
-8 -4 -11 -10z"/>
<path d="M4700 390 c0 -5 5 -10 10 -10 6 0 10 5 10 10 0 6 -4 10 -10 10 -5 0
-10 -4 -10 -10z"/>
<path d="M5236 374 c-8 -20 -8 -19 21 -28 12 -4 24 -2 28 3 3 7 0 8 -9 5 -10
-4 -16 -1 -16 9 0 23 -17 30 -24 11z"/>
<path d="M7000 349 c0 -5 5 -7 10 -4 6 3 10 8 10 11 0 2 -4 4 -10 4 -5 0 -10
-5 -10 -11z"/>
<path d="M7127 328 c-8 -29 -4 -32 11 -8 6 10 8 21 3 24 -5 3 -11 -4 -14 -16z"/>
<path d="M4281 324 c0 -11 3 -14 6 -6 3 7 2 16 -1 19 -3 4 -6 -2 -5 -13z"/>
<path d="M7212 324 c-7 -8 -10 -19 -7 -24 3 -6 2 -10 -4 -10 -5 0 -12 6 -15
13 -4 6 -4 2 -2 -10 3 -16 -1 -23 -12 -24 -13 0 -11 -3 5 -11 28 -13 39 -44
23 -63 -9 -11 -9 -15 -1 -15 13 0 14 -10 2 -29 -5 -7 -14 -10 -21 -6 -9 6 -9
9 1 16 9 5 10 11 4 17 -15 14 -77 33 -70 22 4 -6 13 -10 21 -10 8 0 14 -4 14
-10 0 -5 -7 -10 -15 -10 -8 0 -15 -6 -15 -14 0 -8 7 -21 15 -30 19 -19 19 -26
-2 -26 -15 0 -15 -1 1 -19 15 -16 15 -20 1 -31 -9 -7 -25 -10 -41 -6 -15 4
-23 3 -20 -3 3 -5 -1 -11 -9 -15 -9 -3 -15 0 -15 10 0 8 -4 12 -10 9 -6 -4 -5
-13 3 -25 15 -25 83 -29 73 -5 -3 8 -1 15 3 15 5 0 11 -7 15 -15 4 -12 25 -15
102 -15 l96 0 -7 37 c-6 35 -5 37 8 18 9 -11 19 -17 23 -13 4 4 1 15 -7 25
-12 15 -12 16 4 10 26 -10 21 0 -24 44 -39 38 -40 41 -23 54 18 13 17 14 -11
15 -20 0 -26 3 -17 9 8 4 13 19 11 32 -1 13 2 32 6 42 9 22 -1 35 -17 19 -17
-17 -33 -15 -18 3 10 12 10 18 0 30 -16 19 -31 19 -48 -1z m-37 -190 c17 -23
55 -108 55 -123 0 -3 -6 4 -14 14 -12 17 -16 18 -32 5 -18 -14 -18 -14 -1 6
19 23 22 44 6 44 -5 0 -7 5 -4 11 8 11 -27 49 -45 49 -6 0 -8 5 -5 10 10 16
19 12 40 -16z m139 -20 c20 -8 21 -20 2 -27 -8 -3 -16 2 -19 14 -6 21 -5 22
17 13z"/>
<path d="M5230 319 c0 -6 -7 -9 -14 -6 -10 4 -13 1 -10 -7 7 -17 44 -8 44 10
0 8 -4 14 -10 14 -5 0 -10 -5 -10 -11z"/>
<path d="M7025 320 c-3 -5 -1 -10 4 -10 6 0 11 5 11 10 0 6 -2 10 -4 10 -3 0
-8 -4 -11 -10z"/>
<path d="M6985 300 c-3 -5 -1 -10 4 -10 6 0 11 5 11 10 0 6 -2 10 -4 10 -3 0
-8 -4 -11 -10z"/>
<path d="M7050 299 c0 -5 5 -7 10 -4 6 3 10 8 10 11 0 2 -4 4 -10 4 -5 0 -10
-5 -10 -11z"/>
<path d="M7632 299 c2 -7 10 -15 17 -17 8 -3 12 1 9 9 -2 7 -10 15 -17 17 -8
3 -12 -1 -9 -9z"/>
<path d="M5464 219 c14 -186 19 -221 26 -209 16 26 -3 274 -22 286 -7 5 -8
-21 -4 -77z"/>
<path d="M5233 260 c3 -11 0 -20 -6 -20 -7 0 -6 -4 2 -9 8 -5 21 -7 29 -3 13
4 12 7 -3 18 -9 7 -14 17 -10 23 3 6 1 11 -6 11 -6 0 -9 -8 -6 -20z"/>
<path d="M7665 269 c-4 -6 -5 -12 -2 -15 2 -3 7 2 10 11 7 17 1 20 -8 4z"/>
<path d="M6980 250 c0 -5 5 -10 10 -10 6 0 10 5 10 10 0 6 -4 10 -10 10 -5 0
-10 -4 -10 -10z"/>
<path d="M7020 240 c-8 -5 -11 -12 -7 -16 4 -4 13 -2 19 4 15 15 7 24 -12 12z"/>
<path d="M7125 240 c-3 -5 -1 -10 4 -10 6 0 11 5 11 10 0 6 -2 10 -4 10 -3 0
-8 -4 -11 -10z"/>
<path d="M5910 180 c0 -33 4 -49 10 -45 12 8 10 84 -2 91 -4 3 -8 -18 -8 -46z"/>
<path d="M7065 220 c3 -5 10 -10 16 -10 5 0 9 5 9 10 0 6 -7 10 -16 10 -8 0
-12 -4 -9 -10z"/>
<path d="M7155 220 c-8 -13 15 -13 35 0 12 8 11 10 -7 10 -12 0 -25 -4 -28
-10z"/>
<path d="M4290 210 c0 -5 5 -10 10 -10 6 0 10 5 10 10 0 6 -4 10 -10 10 -5 0
-10 -4 -10 -10z"/>
<path d="M5223 203 c-15 -5 -18 -33 -4 -33 8 0 25 30 19 35 -2 1 -9 0 -15 -2z"/>
<path d="M5266 195 c5 -12 4 -16 -4 -11 -14 8 -27 -13 -15 -25 5 -5 15 -1 25
10 15 17 15 21 2 32 -12 10 -13 9 -8 -6z"/>
<path d="M5865 176 c-7 -34 11 -104 23 -92 2 3 13 -5 24 -17 l19 -22 -3 25
c-1 14 1 31 6 38 6 10 1 11 -18 6 -24 -6 -26 -3 -28 27 -2 52 -3 57 -10 64 -4
4 -10 -9 -13 -29z"/>
<path d="M7329 197 c15 -19 41 -23 41 -7 0 6 -4 10 -9 10 -5 0 -18 3 -28 7
-16 6 -16 5 -4 -10z"/>
<path d="M5806 174 c-4 -9 -1 -23 5 -30 6 -8 9 -21 5 -29 -3 -8 -1 -15 4 -15
6 0 10 20 10 45 0 45 -12 60 -24 29z"/>
<path d="M6761 174 c0 -11 3 -14 6 -6 3 7 2 16 -1 19 -3 4 -6 -2 -5 -13z"/>
<path d="M7035 171 c-3 -5 -1 -12 5 -16 5 -3 10 1 10 9 0 18 -6 21 -15 7z"/>
<path d="M5050 160 c0 -5 7 -10 16 -10 8 0 12 5 9 10 -3 6 -10 10 -16 10 -5 0
-9 -4 -9 -10z"/>
<path d="M6998 144 c3 -15 8 -22 14 -16 9 9 1 42 -12 42 -4 0 -5 -12 -2 -26z"/>
<path d="M5955 116 c0 -39 9 -67 18 -55 6 7 -5 99 -12 99 -3 0 -6 -20 -6 -44z"/>
<path d="M7330 150 c0 -5 5 -10 10 -10 6 0 10 5 10 10 0 6 -4 10 -10 10 -5 0
-10 -4 -10 -10z"/>
<path d="M5220 126 c0 -13 6 -27 13 -30 9 -5 9 -7 -1 -12 -10 -5 -10 -9 -1
-20 6 -8 9 -25 7 -39 -5 -23 -2 -25 29 -25 27 0 34 3 29 15 -3 8 -1 15 4 15 6
0 10 7 10 15 0 8 -4 15 -10 15 -5 0 -10 -6 -10 -14 0 -21 -26 -40 -35 -25 -4
6 -2 15 5 19 7 4 9 13 6 19 -4 6 -1 11 6 11 8 0 14 9 14 20 0 12 -5 19 -13 16
-7 -3 -10 1 -6 10 3 8 -1 14 -11 14 -9 0 -16 5 -16 10 0 6 -4 10 -10 10 -5 0
-10 -11 -10 -24z"/>
<path d="M5290 130 c0 -5 5 -10 11 -10 5 0 7 5 4 10 -3 6 -8 10 -11 10 -2 0
-4 -4 -4 -10z"/>
<path d="M7040 130 c0 -6 7 -13 15 -16 8 -4 15 -12 15 -19 0 -17 29 -40 38
-30 4 4 1 10 -5 12 -7 3 -13 11 -13 18 0 7 6 15 13 18 6 2 2 2 -10 1 -12 -2
-29 3 -37 12 -9 8 -16 10 -16 4z"/>
<path d="M5066 115 c4 -8 8 -15 10 -15 2 0 4 7 4 15 0 8 -4 15 -10 15 -5 0 -7
-7 -4 -15z"/>
<path d="M6975 120 c3 -5 8 -10 11 -10 2 0 4 5 4 10 0 6 -5 10 -11 10 -5 0 -7
-4 -4 -10z"/>
<path d="M5992 85 c6 -14 13 -24 14 -22 6 6 -9 47 -17 47 -5 0 -3 -11 3 -25z"/>
<path d="M5520 95 c0 -5 5 -17 10 -25 5 -8 10 -10 10 -5 0 6 -5 17 -10 25 -5
8 -10 11 -10 5z"/>
<path d="M5770 84 c0 -8 5 -12 10 -9 6 3 10 10 10 16 0 5 -4 9 -10 9 -5 0 -10
-7 -10 -16z"/>
<path d="M6930 81 c0 -6 -7 -11 -16 -11 -8 0 -13 -4 -10 -9 7 -11 46 -2 46 10
0 4 -4 11 -10 14 -5 3 -10 1 -10 -4z"/>
<path d="M6960 69 c0 -5 5 -7 10 -4 6 3 10 8 10 11 0 2 -4 4 -10 4 -5 0 -10
-5 -10 -11z"/>
<path d="M7007 74 c-8 -8 1 -24 14 -24 5 0 9 7 9 15 0 15 -12 20 -23 9z"/>
<path d="M7050 70 c0 -5 5 -10 10 -10 6 0 10 5 10 10 0 6 -4 10 -10 10 -5 0
-10 -4 -10 -10z"/>
<path d="M5826 51 c-4 -7 -5 -15 -2 -18 9 -9 19 4 14 18 -4 11 -6 11 -12 0z"/>
<path d="M6430 50 c0 -5 5 -10 10 -10 6 0 10 5 10 10 0 6 -4 10 -10 10 -5 0
-10 -4 -10 -10z"/>
<path d="M6635 50 c-3 -5 -1 -10 4 -10 6 0 11 5 11 10 0 6 -2 10 -4 10 -3 0
-8 -4 -11 -10z"/>
<path d="M6810 50 c0 -5 5 -10 10 -10 6 0 10 5 10 10 0 6 -4 10 -10 10 -5 0
-10 -4 -10 -10z"/>
<path d="M5517 25 c3 -14 10 -25 15 -25 13 0 6 43 -8 47 -7 2 -10 -6 -7 -22z"/>
<path d="M5782 25 c0 -17 2 -22 5 -12 2 9 2 23 0 30 -3 6 -5 -1 -5 -18z"/>
<path d="M6940 39 c0 -5 5 -7 10 -4 6 3 10 8 10 11 0 2 -4 4 -10 4 -5 0 -10
-5 -10 -11z"/>
<path d="M5924 20 c0 -11 4 -20 8 -20 4 0 8 9 8 20 0 11 -4 20 -8 20 -4 0 -8
-9 -8 -20z"/>
<path d="M6903 15 c0 -8 4 -12 9 -9 4 3 8 9 8 15 0 5 -4 9 -8 9 -5 0 -9 -7 -9
-15z"/>
<path d="M5825 10 c-3 -5 -1 -10 4 -10 6 0 11 5 11 10 0 6 -2 10 -4 10 -3 0
-8 -4 -11 -10z"/>
<path d="M5880 10 c0 -5 5 -10 10 -10 6 0 10 5 10 10 0 6 -4 10 -10 10 -5 0
-10 -4 -10 -10z"/>
<path d="M6720 10 c0 -6 7 -10 15 -10 8 0 15 2 15 4 0 2 -7 6 -15 10 -8 3 -15
1 -15 -4z"/>
</g>
</svg>
