<?xml version="1.0" standalone="no"?>
<!DOCTYPE svg PUBLIC "-//W3C//DTD SVG 20010904//EN"
 "http://www.w3.org/TR/2001/REC-SVG-20010904/DTD/svg10.dtd">
<svg version="1.0" xmlns="http://www.w3.org/2000/svg"
 width="300.000000pt" height="112.000000pt" viewBox="0 0 300.000000 112.000000"
 preserveAspectRatio="xMidYMid meet">
<metadata>
Created by potrace 1.10, written by Peter Selinger 2001-2011
</metadata>
<g transform="translate(0.000000,112.000000) scale(0.100000,-0.100000)"
fill="#000000" stroke="none">
<path d="M20 1100 c-1 -29 0 -500 1 -507 1 -4 1 -12 0 -18 -1 -5 -2 -134 -2
-285 l1 -275 291 1 c238 1 293 3 300 15 7 12 9 12 9 -1 0 -13 55 -15 436 -15
l435 0 -2 467 c-1 257 -6 465 -10 462 -12 -7 -29 -75 -23 -86 3 -5 -2 -16 -12
-23 -18 -13 -18 -14 -1 -15 9 0 17 -6 18 -12 0 -7 4 -4 9 7 9 20 9 20 9 0 1
-27 -14 -51 -23 -36 -10 16 -26 14 -26 -4 0 -8 9 -15 19 -15 11 0 23 -5 27
-11 5 -9 -3 -10 -29 -5 -21 4 -38 2 -42 -4 -3 -5 -1 -10 5 -10 6 0 9 -4 6 -9
-3 -5 8 -7 24 -6 37 3 38 -10 3 -30 -16 -8 -21 -15 -13 -14 28 2 40 -1 40 -11
0 -5 -6 -10 -14 -10 -8 0 -17 -7 -20 -16 -3 -8 -10 -13 -15 -10 -11 7 -8 -20
3 -31 4 -4 7 -3 6 2 -5 22 1 27 17 14 11 -10 14 -10 9 -1 -4 6 -3 12 3 12 34
0 8 -45 -31 -55 -15 -4 -29 -13 -32 -21 -6 -15 15 -15 26 1 6 9 58 16 58 8 0
-2 -9 -7 -20 -11 l-21 -8 21 -22 c22 -23 14 -32 -9 -9 -10 10 -11 9 -6 -5 5
-12 2 -18 -8 -18 -9 0 -19 -4 -22 -10 -4 -7 2 -7 19 0 16 6 27 6 31 0 4 -6 0
-10 -7 -10 -8 0 -9 -3 -3 -8 17 -11 16 -52 -1 -52 -8 0 -13 4 -10 9 3 4 -6 6
-19 3 -14 -2 -25 -12 -26 -21 0 -9 -2 -26 -3 -38 -2 -19 0 -21 18 -10 18 10
19 12 4 15 -29 6 -8 32 26 32 30 0 32 -2 28 -29 -3 -21 -9 -27 -20 -24 -10 2
-26 -3 -37 -12 -11 -9 -14 -13 -6 -9 11 5 13 3 8 -10 -4 -10 -7 -20 -7 -22 0
-3 -11 7 -23 22 -22 26 -25 26 -55 13 -18 -7 -34 -19 -36 -26 -3 -8 9 -5 31 7
37 20 50 20 38 1 -3 -6 -11 -9 -16 -6 -5 3 -6 -1 -3 -9 3 -9 10 -16 16 -16 5
0 7 4 3 9 -3 5 0 13 6 16 11 8 38 -23 35 -40 -2 -5 -1 -7 1 -2 9 14 23 7 23
-13 0 -11 7 -20 15 -20 8 0 15 5 15 11 0 5 -4 7 -10 4 -5 -3 -10 1 -10 9 0 8
-7 19 -15 23 -8 5 -11 13 -6 21 7 11 11 11 23 -2 9 -8 17 -13 20 -11 2 2 4
-14 4 -36 0 -34 -3 -40 -18 -36 -16 5 -29 -13 -27 -37 1 -10 -21 -26 -35 -26
-5 0 -2 8 5 18 13 15 12 16 -3 3 -21 -16 -24 -41 -5 -41 14 0 54 38 50 46 -2
2 -3 8 -3 13 0 12 38 2 47 -12 3 -5 1 -7 -4 -4 -6 4 -16 0 -22 -7 -10 -12 -8
-13 8 -9 12 3 21 1 21 -5 0 -15 -29 -42 -46 -42 -8 0 -14 -4 -14 -10 0 -5 -8
-10 -17 -11 -15 0 -15 -2 2 -9 19 -7 18 -8 -5 -12 l-25 -5 25 1 c15 1 25 7 25
16 0 8 5 15 10 15 6 0 16 4 23 8 7 5 12 3 13 -5 0 -7 2 -23 3 -35 1 -12 -1
-20 -6 -17 -5 4 -7 12 -4 20 3 8 -1 14 -10 14 -8 0 -12 -4 -9 -10 3 -5 -7 -12
-22 -16 -15 -3 -33 -7 -40 -9 -16 -5 -26 27 -11 37 10 6 8 8 -4 8 -10 0 -18 5
-18 11 0 6 -7 9 -15 6 -8 -4 -17 -2 -20 3 -10 17 -33 11 -40 -10 -5 -16 -13
-19 -48 -16 -33 3 -49 -1 -75 -20 -27 -21 -32 -22 -32 -8 0 12 -4 14 -12 7 -7
-6 -21 -10 -30 -10 -14 0 -15 3 -6 14 9 11 8 17 -3 24 -8 5 -18 9 -24 9 -5 0
-4 -4 4 -9 7 -5 10 -14 6 -20 -5 -9 -11 -7 -20 6 -13 17 -14 17 -9 -3 6 -25
-21 -41 -30 -18 -7 17 -33 19 -39 2 -3 -9 -10 -8 -26 6 -11 11 -23 17 -25 15
-1 -2 -9 -13 -15 -24 -8 -12 -11 -13 -8 -4 4 11 0 16 -11 15 -9 0 -19 -4 -22
-7 -3 -4 -15 -9 -27 -13 -18 -6 -23 -3 -23 11 0 15 2 16 10 3 8 -13 10 -12 10
4 0 12 -5 16 -15 12 -9 -3 -15 0 -15 9 0 8 -4 15 -10 15 -5 0 -10 -7 -10 -15
0 -8 5 -15 10 -15 6 0 10 -4 10 -10 0 -19 -22 -10 -27 11 -6 21 -6 21 -19 -2
l-14 -24 4 28 5 27 -26 -20 c-39 -31 -66 -26 -44 9 6 9 10 10 16 2 8 -14 35 4
35 23 0 6 -4 5 -9 -3 -5 -8 -16 -11 -25 -8 -19 7 -22 28 -3 23 6 -1 9 -1 5 1
-5 3 -8 9 -8 14 0 14 44 5 53 -11 5 -10 6 -7 3 8 -2 12 0 22 5 22 5 0 9 -7 9
-16 0 -10 6 -14 14 -11 8 3 17 1 20 -6 2 -7 5 -4 5 7 1 12 -4 16 -14 12 -11
-4 -15 2 -15 24 0 17 5 30 11 30 8 0 7 6 -2 17 -11 13 -11 15 -1 9 7 -4 24 -9
38 -11 23 -2 24 -1 8 16 -9 10 -13 22 -10 27 9 15 -4 42 -19 42 -7 0 -16 6
-18 13 -3 6 -6 3 -7 -8 -1 -11 -4 -36 -6 -55 -2 -19 -4 -44 -4 -54 -1 -11 -9
-25 -18 -32 -14 -10 -20 -10 -35 3 -16 15 -17 15 -18 -3 0 -19 -1 -19 -8 0 -4
11 -16 21 -27 22 -18 3 -18 2 -1 -10 15 -12 15 -14 2 -19 -15 -6 -40 25 -29
36 3 3 -4 11 -16 17 -18 10 -20 14 -9 21 10 6 9 8 -6 7 -11 0 -32 2 -47 5 -15
3 -30 2 -32 -2 -5 -7 2 -9 45 -13 23 -2 54 -41 54 -67 0 -9 6 -15 13 -14 6 2
12 -2 12 -9 0 -9 3 -9 12 0 18 18 27 14 24 -10 -5 -35 -17 -58 -28 -52 -5 3
-4 12 4 22 11 13 11 14 -2 10 -8 -3 -14 -15 -13 -27 2 -13 -3 -21 -12 -21 -8
0 -15 -6 -15 -12 0 -10 -3 -9 -9 1 -6 9 -11 10 -15 2 -10 -16 -26 -13 -20 3 3
8 15 16 27 18 25 4 35 27 11 24 -9 0 -19 5 -21 12 -3 7 1 10 11 6 9 -3 16 -1
16 6 0 6 -5 8 -10 5 -6 -4 -26 9 -43 29 -26 28 -36 33 -45 24 -9 -9 -12 -9
-12 1 0 7 -8 11 -17 9 -12 -2 -17 -13 -18 -35 -1 -27 2 -30 14 -20 12 10 14 9
8 -8 -6 -17 -5 -18 5 -4 13 15 38 15 38 0 0 -13 -55 -38 -89 -40 -10 0 -21 -9
-23 -19 -3 -10 -13 -19 -22 -19 -21 0 -20 13 2 27 14 10 14 11 0 6 -10 -3 -18
3 -23 17 -4 14 -8 17 -12 10 -10 -26 -29 -12 -30 22 0 19 3 32 8 29 5 -3 9 -1
9 5 0 28 -20 17 -29 -17 -13 -45 -47 -86 -67 -78 -9 3 -14 -1 -15 -12 0 -12
-3 -10 -10 7 -7 18 -6 27 3 33 10 6 10 8 1 8 -7 0 -19 -15 -27 -32 -13 -31
-14 -31 -15 -8 -1 50 54 88 65 45 3 -14 10 -22 15 -19 5 3 7 9 4 14 -3 4 2 11
11 14 8 3 12 10 9 16 -3 5 -1 10 6 10 6 0 9 8 6 20 -7 29 15 39 93 43 19 1 41
9 48 17 12 13 13 13 8 -2 -3 -10 -2 -18 3 -18 5 0 11 9 14 20 3 10 2 19 -2 18
-21 -2 -32 4 -28 15 3 8 -1 14 -8 14 -10 0 -11 -5 -4 -18 8 -15 5 -20 -17 -25
-17 -4 -29 -2 -35 7 -7 11 -9 10 -9 -3 0 -10 -5 -18 -11 -18 -16 0 -6 22 19
38 20 13 22 13 16 -2 -3 -9 -1 -16 4 -16 19 0 22 16 7 36 -8 10 -15 14 -15 9
0 -6 -9 -11 -20 -12 -11 -1 -18 1 -16 5 7 12 -22 44 -34 37 -6 -4 -19 -1 -28
7 -15 11 -15 11 -5 -3 7 -9 9 -20 5 -24 -4 -5 -2 -5 5 -2 6 4 14 1 16 -5 3 -8
6 -6 6 5 1 10 6 15 12 12 6 -4 8 -13 5 -20 -3 -8 0 -16 7 -18 9 -3 9 -7 0 -19
-10 -11 -10 -17 -1 -26 19 -19 -3 -14 -25 5 -11 10 -17 12 -13 6 4 -7 3 -13
-3 -13 -5 0 -13 9 -16 21 -6 16 -9 18 -22 8 -8 -7 -12 -21 -10 -31 7 -24 0
-23 -13 3 -7 12 -8 25 -3 32 5 7 6 28 2 47 l-6 35 -2 -37 c0 -20 -6 -40 -11
-43 -7 -4 -9 3 -6 18 2 15 -1 24 -9 24 -15 0 -8 -35 12 -59 10 -11 11 -18 3
-23 -15 -9 -2 -25 15 -19 9 4 19 -3 25 -17 9 -21 10 -19 6 12 -4 35 -4 36 20
25 22 -10 23 -12 6 -24 -14 -10 -14 -14 -3 -21 9 -6 10 -11 2 -15 -6 -4 -8
-12 -5 -18 4 -6 1 -8 -7 -4 -8 3 -22 9 -31 12 -21 7 -23 20 -6 27 10 4 10 6 1
6 -7 1 -20 -15 -29 -34 -9 -19 -18 -35 -20 -35 -8 0 2 45 11 52 6 5 5 8 -4 8
-8 0 -11 6 -7 16 6 14 4 15 -10 3 -14 -11 -15 -10 -12 7 2 12 -2 18 -10 16 -9
-2 -11 2 -5 10 4 7 6 21 5 31 -2 9 2 17 8 17 6 0 9 -4 5 -9 -3 -5 -1 -12 4
-15 10 -7 9 20 -2 30 -3 4 -1 16 5 28 7 11 11 25 10 30 -2 5 4 6 12 3 9 -4 18
-1 22 5 7 10 -38 6 -84 -8 -14 -5 -13 -2 2 10 11 9 16 16 11 16 -4 0 -1 8 7
18 26 30 31 42 14 36 -9 -3 -13 -10 -10 -15 7 -12 -7 -11 -26 1 -13 9 -13 10
0 10 12 0 12 2 2 9 -11 7 -10 10 3 15 42 16 78 -7 52 -33 -8 -8 -8 -11 1 -11
7 0 12 5 12 12 0 6 9 3 20 -7 11 -10 20 -13 20 -7 0 7 -4 12 -10 12 -5 0 -10
4 -10 10 0 10 31 2 40 -10 9 -13 50 -22 50 -11 0 6 -9 11 -21 11 -13 0 -18 4
-13 12 4 6 3 9 -2 6 -5 -3 -31 4 -58 17 -30 14 -44 25 -37 30 7 4 10 13 7 21
-3 8 1 17 9 20 8 4 15 11 15 16 0 6 -6 6 -14 -1 -11 -10 -15 -8 -19 6 -3 10
-4 0 -3 -22 1 -28 -3 -39 -12 -37 -8 1 -11 -1 -9 -5 3 -5 -6 -14 -19 -20 -23
-11 -24 -10 -18 9 5 17 3 19 -14 14 -11 -4 -23 -2 -27 4 -3 5 -16 10 -28 10
-20 0 -20 0 -1 15 16 12 21 12 30 0 6 -8 15 -10 23 -6 9 6 6 10 -11 16 -12 4
-26 7 -29 7 -3 -1 -6 6 -6 14 0 7 4 14 9 14 13 0 27 44 17 54 -5 6 -9 25 -9
43 0 18 -5 33 -11 33 -6 0 -9 9 -6 20 3 11 1 18 -3 15 -5 -3 -7 20 -5 52 2 31
-1 66 -7 76 -8 16 -7 19 5 14 13 -5 14 0 5 30 -6 24 -6 38 0 42 16 9 10 62 -6
56 -8 -3 -10 0 -6 7 4 6 7 26 6 44 -1 25 2 32 13 27 21 -7 19 14 -2 26 -10 5
-15 13 -11 17 4 4 14 1 23 -6 12 -10 15 -9 16 6 0 16 2 15 12 -4 8 -19 8 -26
-4 -33 -10 -8 -7 -8 11 -3 22 6 23 5 11 -10 -12 -14 -12 -16 3 -10 9 3 16 1
16 -6 0 -6 5 -8 10 -5 6 3 10 2 10 -4 0 -5 -6 -11 -13 -14 -6 -3 -2 -4 11 -4
16 1 21 6 16 17 -3 8 -7 21 -7 28 0 7 -7 10 -14 8 -8 -3 -11 -1 -8 4 3 6 -1
10 -9 10 -9 0 -16 7 -16 15 0 8 5 15 10 15 6 0 10 -4 10 -10 0 -5 5 -10 11
-10 15 0 39 -26 32 -34 -4 -3 1 -6 10 -6 25 0 20 25 -8 40 -21 11 -34 30 -22
30 20 0 102 -105 93 -119 -7 -11 22 -23 35 -15 6 3 16 1 23 -5 8 -7 28 -9 45
-6 18 3 31 1 31 -5 0 -5 -15 -10 -32 -10 -25 0 -29 -3 -18 -10 10 -6 11 -10 3
-10 -25 0 -13 -18 16 -25 l28 -6 -26 -30 c-14 -16 -30 -29 -36 -29 -5 0 -4 4
4 9 9 6 10 11 2 15 -6 4 -11 2 -11 -3 0 -6 -5 -11 -11 -11 -5 0 -7 5 -4 10 3
6 -1 10 -11 10 -13 0 -14 -3 -4 -15 10 -13 9 -15 -9 -15 -15 0 -20 4 -15 13 6
9 3 8 -8 -1 -14 -11 -21 -11 -45 4 l-28 16 25 -21 c20 -16 21 -21 8 -21 -9 0
-20 5 -23 10 -3 6 -14 10 -23 9 -12 0 -11 -3 6 -9 12 -5 22 -14 22 -20 0 -10
16 -8 56 7 11 4 20 -16 30 -61 8 -34 14 -31 14 7 0 20 -4 37 -10 37 -5 0 -10
5 -10 11 0 5 4 8 9 5 5 -4 11 0 14 6 3 9 10 8 26 -6 28 -26 52 -29 49 -8 -2
10 -7 20 -13 24 -6 5 -3 8 7 8 18 0 33 -33 23 -50 -4 -6 -1 -9 5 -8 7 2 14
-10 16 -27 2 -16 8 -31 14 -33 5 -2 8 -7 5 -12 -3 -4 3 -14 13 -21 15 -13 16
-12 3 4 -19 24 -2 21 27 -5 l25 -23 -13 24 c-6 13 -20 26 -30 28 -17 5 -50 81
-50 117 0 9 -7 16 -15 16 -8 0 -15 5 -15 11 0 5 4 8 9 4 5 -3 12 -1 16 5 4 6
11 7 17 4 19 -12 92 -14 99 -2 9 14 32 0 26 -16 -3 -7 4 -18 16 -26 15 -9 22
-10 25 -1 5 16 22 14 22 -4 0 -17 16 -20 25 -6 6 12 -24 43 -35 36 -4 -3 -7 1
-6 8 1 13 -1 15 -44 27 -16 5 -30 6 -30 2 0 -4 -16 -7 -35 -7 -24 0 -34 4 -30
13 3 9 0 10 -15 2 -27 -14 -37 -12 -15 3 17 13 17 14 -5 20 -13 3 -19 10 -15
17 4 6 14 9 24 6 9 -4 5 2 -8 13 -14 10 -34 17 -45 15 -11 -2 -24 2 -29 9 -6
8 -7 6 -3 -5 3 -10 1 -18 -4 -18 -6 0 -10 7 -10 16 0 11 -6 15 -20 11 -16 -4
-18 -2 -10 13 7 13 6 19 -5 23 -9 4 -12 1 -8 -9 8 -21 -5 -17 -33 11 -17 17
-20 25 -10 25 8 0 16 7 18 17 3 14 5 14 18 -2 8 -11 10 -16 4 -12 -7 4 -15 0
-18 -8 -4 -12 -2 -13 13 -6 10 6 21 8 24 4 4 -3 12 6 18 21 12 25 41 42 57 32
4 -2 14 -1 22 5 8 5 11 9 5 10 -41 6 -55 5 -55 -4 0 -5 -6 -4 -14 2 -8 7 -16
8 -18 4 -1 -4 -67 -6 -146 -3 -78 3 -142 3 -142 0z m220 -40 c0 -5 -5 -10 -11
-10 -5 0 -7 5 -4 10 3 6 8 10 11 10 2 0 4 -4 4 -10z m137 -156 c2 -6 -3 -11
-12 -11 -8 0 -15 7 -15 15 0 15 22 12 27 -4z m-322 -331 c5 -34 4 -43 -8 -43
-11 0 -14 15 -15 63 0 66 10 57 23 -20z m15 -135 c0 -4 6 -8 13 -8 7 0 18 -9
25 -21 12 -18 11 -20 -5 -15 -12 4 -23 -1 -31 -14 -10 -17 -10 -20 4 -20 8 0
12 -5 8 -11 -4 -6 3 -5 17 2 l24 14 -23 3 c-12 2 -20 8 -17 13 5 7 36 -2 53
-16 7 -6 -19 -45 -27 -40 -9 5 -38 -24 -33 -34 2 -3 -2 -7 -8 -9 -8 -3 -10 3
-5 19 7 21 6 22 -9 10 -9 -7 -16 -10 -17 -5 0 5 -2 16 -4 25 -2 12 3 15 19 12
17 -4 18 -3 6 6 -18 12 -24 62 -7 60 7 -1 19 -1 27 0 13 1 13 3 1 10 -8 5 -21
7 -29 3 -9 -3 -13 -1 -9 5 4 6 1 13 -5 16 -7 3 -3 4 10 4 12 -1 22 -5 22 -9z
m1399 -122 c7 -9 8 -17 2 -20 -14 -9 -41 4 -41 20 0 18 24 18 39 0z m-1337
-24 c24 -16 25 -19 12 -42 -7 -14 -13 -33 -14 -44 0 -16 -2 -17 -17 -5 -16 13
-17 12 -4 -4 8 -9 11 -20 8 -23 -9 -10 -47 16 -47 32 0 8 -5 12 -10 9 -14 -9
7 -45 25 -45 8 0 15 -4 15 -8 0 -5 6 -17 14 -27 12 -17 15 -17 29 -3 18 18 10
33 -9 17 -9 -7 -12 -6 -10 7 1 9 10 20 19 26 13 7 15 5 11 -7 -4 -8 0 -17 9
-21 18 -7 11 -44 -9 -44 -8 0 -14 -2 -14 -4 0 -2 -3 -13 -7 -23 -7 -17 -6 -17
11 0 24 23 34 15 27 -25 -3 -19 -6 -26 -9 -16 -4 19 -22 25 -22 7 0 -6 -9 -8
-20 -4 -11 3 -20 2 -20 -3 0 -14 -59 -10 -65 5 -2 8 0 11 5 8 6 -3 10 0 10 8
0 16 27 42 44 42 6 0 12 5 12 10 1 6 -2 9 -8 7 -5 -1 -7 3 -3 10 4 7 -4 1 -17
-14 -25 -30 -50 -40 -27 -11 8 9 9 14 2 10 -12 -8 -30 30 -19 40 3 4 6 -1 6
-10 0 -19 15 -23 26 -6 4 7 -1 16 -10 21 -9 5 -13 14 -10 20 4 6 1 14 -5 18
-9 5 -8 11 4 24 15 15 15 16 -2 17 -17 1 -17 2 0 6 15 4 16 7 5 21 -11 14 -10
15 5 9 25 -9 65 12 46 24 -8 5 -9 9 -4 9 6 0 22 -8 37 -18z m38 4 c-7 -7 -14
-6 -21 1 -9 9 -7 12 9 10 14 -1 18 -5 12 -11z m630 -37 c0 -5 -5 -9 -11 -9 -8
0 -7 -6 2 -17 12 -14 12 -16 -1 -11 -8 2 -16 17 -18 31 -3 21 0 26 12 21 9 -3
16 -10 16 -15z m-310 -110 c0 -5 -8 -9 -17 -8 -11 0 -13 3 -5 6 6 2 9 10 6 15
-4 7 -2 8 4 4 7 -4 12 -11 12 -17z m40 -15 c0 -8 3 -13 8 -11 4 1 7 -1 7 -4 0
-4 9 -16 19 -28 12 -13 14 -21 7 -21 -7 0 -21 -10 -32 -23 -13 -16 -18 -18
-19 -7 0 13 -1 13 -10 0 -6 -9 -10 -11 -10 -3 0 7 -7 10 -15 7 -8 -4 -15 -1
-15 4 0 16 18 24 25 12 5 -8 12 -7 23 2 13 11 15 11 7 -2 -4 -8 1 -6 12 5 25
24 22 31 -7 15 -28 -15 -39 -4 -14 15 18 15 18 15 0 29 -10 8 -15 20 -11 25 8
14 25 4 25 -15z m-215 -44 c-3 -6 1 -13 9 -16 9 -3 13 -10 10 -15 -3 -5 -1 -9
5 -9 5 0 12 8 14 18 3 11 5 7 6 -10 1 -24 -2 -26 -26 -22 -16 3 -35 6 -44 7
-14 1 -14 5 4 29 20 27 35 39 22 18z m1001 -7 c11 -15 13 -15 14 -3 0 13 2 13
9 1 17 -27 1 -42 -43 -40 -23 2 -48 -1 -56 -6 -8 -5 -11 -4 -6 3 4 8 -3 10
-24 7 -16 -2 -30 0 -30 5 0 13 54 19 63 7 5 -8 14 -4 30 15 27 32 26 32 43 11z
m-861 -51 c-4 -4 -10 -1 -12 6 -3 6 -10 10 -16 6 -7 -3 -3 2 8 11 18 15 20 15
23 0 2 -9 1 -20 -3 -23z m215 8 c12 -8 9 -10 -12 -10 -16 0 -28 5 -28 10 0 13
20 13 40 0z m50 0 c0 -5 -7 -7 -15 -4 -8 4 -15 8 -15 10 0 2 7 4 15 4 8 0 15
-4 15 -10z"/>
<path d="M111 276 c-9 -11 -7 -15 8 -19 14 -3 17 0 14 14 -6 23 -7 23 -22 5z"/>
<path d="M72 243 c2 -9 10 -18 18 -20 13 -4 13 -3 0 7 -12 9 -10 10 13 6 36
-8 34 -1 -4 13 -26 9 -30 8 -27 -6z"/>
<path d="M87 74 c5 -13 2 -16 -9 -12 -8 4 -15 1 -15 -7 0 -10 5 -11 19 -4 20
11 23 25 8 34 -6 4 -7 -1 -3 -11z"/>
<path d="M110 71 c0 -6 4 -13 10 -16 6 -3 7 1 4 9 -7 18 -14 21 -14 7z"/>
<path d="M1295 60 c3 -5 11 -10 16 -10 6 0 7 5 4 10 -3 6 -11 10 -16 10 -6 0
-7 -4 -4 -10z"/>
<path d="M1456 1049 c-3 -34 -6 -77 -6 -95 0 -24 -5 -34 -15 -34 -8 0 -15 8
-16 18 0 11 -2 12 -6 4 -3 -7 -17 -18 -31 -23 -19 -7 -22 -13 -14 -21 8 -8 15
-8 26 1 15 13 36 7 36 -10 0 -5 -25 -8 -55 -8 -50 2 -54 3 -42 18 18 22 19 58
1 65 -11 4 -13 -1 -10 -19 3 -17 0 -25 -10 -25 -8 0 -14 -5 -14 -11 0 -6 -9
-8 -21 -4 -15 5 -19 4 -15 -4 4 -6 -4 -15 -19 -21 -35 -13 -40 -13 -25 5 10
12 10 15 -4 15 -9 0 -16 -4 -16 -10 0 -5 -10 -10 -22 -10 -23 1 -23 1 -3 17
20 15 20 15 0 10 -11 -2 -29 -8 -40 -13 -16 -6 -15 -3 5 14 25 21 25 21 3 22
-35 0 -54 -44 -25 -59 10 -5 86 -9 170 -10 l152 -2 0 25 c0 14 4 27 9 30 5 4
12 41 16 84 4 42 9 85 11 95 3 9 1 17 -4 17 -5 0 -12 -28 -16 -61z"/>
<path d="M498 1093 c12 -2 32 -2 45 0 12 2 2 4 -23 4 -25 0 -35 -2 -22 -4z"/>
<path d="M608 1093 c7 -3 16 -2 19 1 4 3 -2 6 -13 5 -11 0 -14 -3 -6 -6z"/>
<path d="M1163 1093 c9 -2 23 -2 30 0 6 3 -1 5 -18 5 -16 0 -22 -2 -12 -5z"/>
<path d="M1253 1093 c15 -2 39 -2 55 0 15 2 2 4 -28 4 -30 0 -43 -2 -27 -4z"/>
<path d="M1348 1093 c6 -2 18 -2 25 0 6 3 1 5 -13 5 -14 0 -19 -2 -12 -5z"/>
<path d="M1398 1093 c6 -2 18 -2 25 0 6 3 1 5 -13 5 -14 0 -19 -2 -12 -5z"/>
<path d="M1510 553 l0 -546 107 6 c58 4 390 7 737 7 l631 0 0 540 0 540 -737
0 -738 0 0 -547z m269 526 c-8 -5 -22 -9 -31 -9 -16 0 -23 -18 -19 -43 1 -5
-3 -6 -8 -3 -5 4 -12 2 -16 -4 -3 -5 3 -10 14 -10 14 0 21 6 21 19 0 11 14 27
33 39 35 20 74 21 1020 9 81 -1 148 1 150 5 1 4 8 4 16 -1 10 -6 10 -13 2 -28
-5 -11 -7 -24 -3 -28 10 -10 9 -925 -2 -925 -5 0 -3 -6 3 -14 6 -7 9 -21 5
-30 -6 -17 -66 -19 -469 -18 -164 0 -149 0 -604 -1 -347 -2 -354 -2 -358 18
-9 44 -9 531 0 543 6 7 6 12 -1 12 -7 0 -9 59 -6 173 3 94 5 177 5 182 0 6 -2
33 -5 60 -2 28 -2 53 0 57 3 4 64 7 136 7 81 -1 126 -4 117 -10z"/>
<path d="M1666 1048 c-40 -51 -21 -58 143 -56 l136 2 -135 3 c-82 2 -139 8
-145 15 -7 8 -6 9 2 4 6 -3 15 -1 19 5 4 8 3 9 -4 5 -19 -12 -14 6 10 31 12
13 17 23 10 23 -6 0 -22 -15 -36 -32z"/>
<path d="M1550 1014 c0 -16 8 -19 48 -21 39 -1 43 0 23 8 -14 5 -32 15 -40 22
-12 10 -13 9 -6 -3 8 -13 7 -13 -8 -1 -15 12 -17 11 -17 -5z"/>
<path d="M2262 965 c-7 -8 -11 -19 -7 -24 3 -5 -1 -12 -7 -14 -7 -3 1 -6 18
-6 29 -1 54 14 54 32 0 5 -9 7 -20 4 -11 -3 -20 -1 -20 4 0 10 57 12 113 3 25
-5 37 -12 37 -23 0 -14 -2 -14 -10 -1 -8 13 -10 12 -10 -2 0 -14 9 -18 41 -18
35 0 41 3 37 18 -4 16 2 19 40 21 63 3 102 -7 95 -25 -3 -8 0 -14 5 -14 6 0
12 8 15 18 2 9 4 -16 5 -55 l1 -73 -52 -2 -52 -1 45 -6 c43 -6 45 -8 48 -41
l3 -36 -78 1 c-43 1 -127 2 -186 3 l-109 2 6 92 c3 60 2 87 -4 78 -5 -8 -10
-52 -10 -96 l0 -81 191 -8 c104 -4 192 -5 194 -4 2 2 6 22 9 43 4 22 8 41 9
42 5 6 114 7 123 1 6 -3 16 -2 24 3 7 4 24 4 36 0 14 -6 26 -5 29 1 4 5 12 6
18 3 8 -5 9 -4 2 4 -13 13 -86 19 -104 7 -10 -5 -12 -4 -7 3 4 7 2 12 -3 12
-6 0 -11 -4 -11 -10 0 -5 -25 -10 -55 -10 l-55 0 0 74 0 73 -37 7 c-53 8 -165
8 -160 -1 3 -5 -2 -14 -10 -22 -13 -12 -14 -11 -9 6 4 12 2 20 -6 21 -146 13
-163 12 -176 -3z"/>
<path d="M1884 945 c-2 -21 2 -25 25 -24 14 1 35 -2 45 -6 15 -7 18 -5 14 7
-4 8 -1 15 8 15 7 0 11 -4 8 -9 -3 -4 0 -8 5 -8 6 0 11 5 11 10 0 6 7 10 15
10 8 0 15 -4 15 -10 0 -5 15 -10 33 -10 21 0 34 5 34 13 0 15 -7 17 -99 17
-37 0 -69 4 -73 10 -13 20 -40 10 -41 -15z m36 -5 c0 -5 -4 -10 -10 -10 -5 0
-10 5 -10 10 0 6 5 10 10 10 6 0 10 -4 10 -10z"/>
<path d="M2125 952 c-18 -13 -15 -32 4 -32 11 0 18 6 17 15 -3 20 -10 25 -21
17z"/>
<path d="M2188 949 c-25 -14 -22 -29 5 -29 16 0 23 6 23 20 0 23 -4 24 -28 9z"/>
<path d="M2322 940 c-11 -19 -10 -20 28 -18 26 1 40 6 40 15 0 17 -40 17 -41
1 0 -7 -4 -5 -7 4 -7 17 -8 16 -20 -2z"/>
<path d="M2503 931 c-1 -12 8 -16 35 -15 25 1 36 6 34 15 -2 10 0 10 13 -1 8
-7 19 -10 22 -6 8 8 -16 26 -34 26 -7 0 -13 -4 -13 -10 0 -5 -5 -10 -11 -10
-5 0 -8 4 -5 8 2 4 -5 8 -18 8 -13 0 -23 -6 -23 -15z"/>
<path d="M2228 883 c-22 -26 -41 -64 -34 -71 3 -3 6 0 6 7 0 8 8 6 25 -5 23
-15 25 -15 19 0 -3 9 -10 13 -15 10 -5 -3 -9 -1 -9 4 0 6 7 12 15 16 8 3 15
11 15 18 0 9 -3 9 -10 -2 -5 -8 -12 -11 -16 -7 -4 4 1 16 11 27 10 11 16 20
13 20 -3 0 -12 -8 -20 -17z"/>
<path d="M2126 863 c-13 -17 -25 -23 -40 -19 -20 5 -20 4 -2 -9 10 -8 22 -12
27 -10 4 3 10 1 14 -5 4 -6 11 -8 16 -4 5 3 16 0 24 -6 12 -10 15 -9 15 3 0
22 -18 31 -35 17 -18 -15 -20 1 -4 32 16 29 7 30 -15 1z"/>
<path d="M1931 870 c-8 -4 -15 -18 -16 -31 -3 -22 1 -24 49 -25 40 -2 53 2 53
12 0 10 -4 11 -10 5 -6 -6 -19 -6 -33 -1 -15 6 -24 5 -27 -3 -2 -6 -6 -2 -9
10 -4 16 -2 20 8 16 8 -3 14 0 14 5 0 16 -14 22 -29 12z"/>
<path d="M2046 845 c-9 -14 -16 -28 -16 -32 0 -4 5 -1 10 7 9 13 10 13 11 0 0
-8 4 -4 8 10 5 16 13 24 24 22 9 -2 17 1 17 5 0 19 -40 10 -54 -12z"/>
<path d="M2360 855 c0 -10 10 -15 30 -15 22 0 30 5 29 18 0 9 -3 12 -5 5 -4
-8 -13 -9 -30 -3 -19 7 -24 6 -24 -5z"/>
<path d="M2460 855 c-2 -5 -3 -17 -4 -25 -1 -8 -12 -17 -26 -21 -20 -6 -21 -7
-5 -8 31 -1 47 14 42 40 -2 13 -6 20 -7 14z"/>
<path d="M2500 835 c0 -10 10 -15 30 -15 18 0 30 5 30 13 0 7 -13 14 -30 15
-21 2 -30 -2 -30 -13z"/>
<path d="M2303 803 c9 -2 25 -2 35 0 9 3 1 5 -18 5 -19 0 -27 -2 -17 -5z"/>
<path d="M2368 803 c6 -2 18 -2 25 0 6 3 1 5 -13 5 -14 0 -19 -2 -12 -5z"/>
<path d="M2493 803 c9 -2 25 -2 35 0 9 3 1 5 -18 5 -19 0 -27 -2 -17 -5z"/>
<path d="M2410 754 c0 -10 13 -14 45 -14 35 0 43 3 39 15 -7 18 -16 19 -33 3
-8 -8 -11 -8 -8 -2 4 7 -3 12 -18 12 -15 0 -25 -6 -25 -14z"/>
<path d="M2070 748 c0 -4 7 -8 15 -8 8 0 15 4 15 8 0 5 -7 9 -15 9 -8 0 -15
-4 -15 -9z"/>
<path d="M1739 737 c-8 -7 -23 -24 -33 -39 -17 -26 -17 -27 2 -37 15 -8 21 -7
25 3 4 10 0 12 -14 9 -15 -4 -18 -2 -13 11 3 9 10 14 14 11 4 -2 15 4 25 15
21 23 17 44 -6 27z m11 -11 c0 -2 -8 -10 -17 -17 -16 -13 -17 -12 -4 4 13 16
21 21 21 13z"/>
<path d="M2780 730 c0 -5 -26 -11 -57 -13 -32 -1 -4 -3 62 -3 66 0 99 2 73 4
-27 2 -48 7 -48 13 0 5 -7 9 -15 9 -8 0 -15 -4 -15 -10z"/>
<path d="M1910 715 c-8 -9 -21 -13 -34 -10 -20 6 -20 5 -3 -8 22 -18 13 -47
-13 -40 -10 3 -21 0 -24 -6 -11 -17 -46 -14 -40 4 8 20 -5 19 -29 -2 -20 -17
-20 -17 -14 2 7 18 6 19 -6 3 -8 -10 -22 -16 -33 -14 -10 2 -28 0 -39 -5 -13
-5 11 -8 64 -8 46 -1 81 -4 78 -8 -11 -11 13 -32 30 -26 13 5 13 2 -2 -20 -9
-14 -24 -28 -33 -30 -12 -3 -10 -5 6 -6 12 0 22 4 22 9 0 15 46 60 61 60 8 0
8 -4 -1 -15 -9 -11 -9 -15 -1 -15 7 0 10 -4 6 -10 -3 -5 -12 -7 -20 -3 -8 3
-15 0 -15 -6 0 -6 17 -11 40 -11 29 0 40 4 40 15 0 8 -4 15 -10 15 -5 0 -10
-4 -10 -10 0 -5 -4 -10 -9 -10 -4 0 -8 12 -7 28 1 22 -3 27 -21 25 -24 -3 -28
4 -15 22 8 12 37 11 66 0 14 -6 17 -5 14 6 -3 8 -11 13 -17 11 -7 -1 -19 5
-28 13 -14 14 -14 18 2 35 10 11 16 22 13 25 -3 3 -11 -1 -18 -10z m-43 -71
c-3 -3 -12 -4 -19 -1 -8 3 -5 6 6 6 11 1 17 -2 13 -5z m-7 -18 c0 -2 -7 -9
-15 -16 -12 -10 -15 -10 -15 4 0 9 7 16 15 16 8 0 15 -2 15 -4z"/>
<path d="M1970 685 c-10 -19 -11 -28 -2 -37 9 -9 8 -16 -6 -31 -16 -18 -16
-20 0 -31 13 -10 15 -15 6 -24 -9 -9 -7 -12 10 -12 19 0 21 3 12 19 -5 11 -14
21 -20 23 -18 6 15 40 35 37 18 -4 18 -5 1 -21 -10 -10 -13 -18 -7 -18 5 0 16
8 23 18 21 28 54 42 66 30 8 -8 15 -8 25 0 8 7 16 10 18 7 3 -2 5 4 5 13 1 9
4 26 8 37 5 12 0 9 -10 -7 -22 -33 -44 -43 -55 -26 -6 9 -10 8 -15 -5 -9 -25
-26 -21 -20 6 3 12 3 16 0 9 -3 -6 -10 -10 -15 -6 -5 3 -14 2 -21 -2 -8 -5 -6
-10 8 -15 16 -6 15 -8 -8 -8 -23 -1 -28 3 -28 22 0 13 5 28 12 35 7 7 8 12 2
12 -6 0 -17 -11 -24 -25z"/>
<path d="M2175 684 c-25 -26 -34 -51 -16 -39 5 3 12 2 14 -2 3 -5 27 -7 54 -5
26 1 59 3 72 3 13 1 20 4 15 7 -14 10 -11 35 5 40 8 3 11 0 7 -7 -5 -7 -1 -9
8 -5 23 9 20 24 -5 24 -11 0 -32 -13 -46 -30 -13 -16 -29 -30 -35 -30 -6 0 -5
6 2 15 8 9 8 15 2 15 -6 0 -13 -6 -15 -12 -4 -10 -8 -9 -16 2 -6 9 -7 18 -1
24 15 15 12 26 -5 26 -9 0 -27 -12 -40 -26z m35 1 c-7 -8 -9 -15 -4 -15 4 0 3
-5 -3 -11 -20 -20 -36 1 -17 22 20 22 42 26 24 4z"/>
<path d="M2416 671 c-13 -15 -26 -18 -52 -14 -23 4 -34 2 -34 -7 0 -7 7 -10
15 -6 8 3 15 1 15 -4 0 -6 9 -6 24 0 13 5 26 7 28 5 2 -2 8 7 15 21 13 29 11
30 -11 5z"/>
<path d="M2702 660 c-7 -12 -23 -25 -35 -30 -21 -8 -21 -9 -1 -9 11 -1 30 12
42 29 13 17 19 30 15 30 -5 0 -14 -9 -21 -20z"/>
<path d="M2729 654 c-12 -13 -18 -24 -12 -24 6 0 18 10 27 23 10 12 15 15 13
6 -3 -9 1 -16 9 -16 18 0 18 23 0 30 -8 3 -24 -5 -37 -19z"/>
<path d="M2797 669 c7 -7 15 -10 18 -7 3 3 -2 9 -12 12 -14 6 -15 5 -6 -5z"/>
<path d="M1648 663 c7 -3 16 -2 19 1 4 3 -2 6 -13 5 -11 0 -14 -3 -6 -6z"/>
<path d="M2448 663 c7 -3 16 -2 19 1 4 3 -2 6 -13 5 -11 0 -14 -3 -6 -6z"/>
<path d="M2490 646 c0 -11 9 -16 32 -16 17 0 29 1 27 3 -2 1 -13 9 -23 17 -18
13 -19 13 -11 0 8 -13 7 -13 -8 -1 -15 12 -17 11 -17 -3z"/>
<path d="M2620 630 c0 -5 5 -10 10 -10 6 0 10 5 10 10 0 6 -4 10 -10 10 -5 0
-10 -4 -10 -10z"/>
<path d="M2773 623 c9 -2 23 -2 30 0 6 3 -1 5 -18 5 -16 0 -22 -2 -12 -5z"/>
<path d="M2824 603 c1 -16 7 -28 14 -27 42 3 42 3 30 29 -16 35 -45 33 -44 -2z"/>
<path d="M2878 623 c7 -3 16 -2 19 1 4 3 -2 6 -13 5 -11 0 -14 -3 -6 -6z"/>
<path d="M2212 608 c-7 -7 -12 -18 -12 -26 0 -9 -7 -11 -19 -7 -11 3 -22 1
-25 -4 -4 -6 5 -9 19 -8 14 1 29 8 34 15 6 11 11 10 25 -3 9 -9 22 -15 29 -12
7 2 0 10 -16 17 -16 8 -26 19 -23 27 7 16 3 16 -12 1z"/>
<path d="M2090 595 c-7 -8 -19 -15 -26 -15 -8 0 -14 -7 -14 -15 0 -8 -5 -15
-11 -15 -6 0 -8 7 -5 16 4 9 1 14 -6 12 -6 -2 -12 -12 -14 -21 -2 -13 4 -17
26 -15 16 1 27 5 24 9 -2 4 3 9 10 12 8 3 20 15 26 26 13 25 8 27 -10 6z"/>
<path d="M1557 563 c-9 -2 -15 -9 -12 -14 4 -5 61 -8 128 -7 l122 2 -108 3
c-66 2 -105 7 -102 13 6 10 2 11 -28 3z"/>
<path d="M2100 559 c0 -5 -4 -7 -10 -4 -5 3 -10 2 -10 -4 0 -5 12 -8 28 -7 38
5 39 5 22 16 -20 13 -30 12 -30 -1z"/>
<path d="M2810 557 c0 -9 16 -14 45 -16 36 -1 45 1 45 14 0 10 -4 13 -12 8
-18 -10 -58 -12 -58 -1 0 4 -4 8 -10 8 -5 0 -10 -6 -10 -13z"/>
<path d="M2146 534 c-33 -36 -26 -43 9 -9 14 15 24 29 22 32 -3 2 -17 -8 -31
-23z"/>
<path d="M2205 550 c-17 -7 -14 -9 13 -9 20 -1 31 3 27 9 -7 12 -13 12 -40 0z"/>
<path d="M2388 543 c72 -2 132 -5 132 -7 0 -13 -34 -68 -37 -59 -3 7 -11 9
-18 6 -11 -4 -12 -7 -2 -16 16 -16 94 -20 102 -7 4 7 -2 9 -21 4 -19 -5 -25
-4 -20 4 5 8 1 10 -10 5 -16 -6 -16 -3 2 28 13 22 30 36 50 40 16 3 -47 6
-141 5 -151 0 -155 -1 -37 -3z"/>
<path d="M2678 543 c12 -2 32 -2 45 0 12 2 2 4 -23 4 -25 0 -35 -2 -22 -4z"/>
<path d="M2738 505 c-18 -37 -24 -42 -31 -29 -6 11 -5 19 4 25 7 4 11 11 7 14
-3 3 -17 -8 -31 -25 -29 -33 -61 -39 -76 -13 -10 18 -23 13 -27 -11 -1 -9 14
-14 53 -15 33 -1 52 2 49 8 -4 5 -2 13 4 16 6 4 9 1 8 -6 -2 -6 2 -13 9 -16 7
-2 23 18 38 46 14 28 23 51 20 51 -3 0 -15 -20 -27 -45z"/>
<path d="M2855 497 c-11 -18 -21 -36 -23 -42 -2 -5 2 -2 8 8 13 19 31 23 28 5
-2 -7 10 -12 30 -13 19 0 32 5 32 13 0 8 -8 10 -24 6 -18 -4 -25 -1 -29 15 -3
14 -1 18 9 14 8 -3 11 -10 7 -17 -4 -6 1 -4 12 4 18 15 18 15 -1 19 -10 2 -21
7 -24 12 -3 4 -14 -7 -25 -24z"/>
<path d="M2751 477 c-15 -19 -4 -27 38 -26 20 0 31 3 24 5 -7 3 -9 13 -6 22 6
16 5 15 -14 0 -24 -22 -37 -23 -29 -3 7 19 2 19 -13 2z"/>
<path d="M1546 464 c-3 -8 1 -14 9 -14 20 0 28 17 11 23 -8 3 -17 -1 -20 -9z"/>
<path d="M1648 472 c-37 -2 -58 -8 -62 -17 -3 -9 0 -12 10 -8 8 3 48 6 89 6
41 1 76 6 78 12 5 10 -19 12 -115 7z"/>
<path d="M1780 464 c0 -15 26 -19 34 -5 3 5 -3 11 -14 14 -13 3 -20 0 -20 -9z"/>
<path d="M1830 465 c0 -7 7 -12 15 -11 24 4 27 13 5 19 -13 3 -20 0 -20 -8z"/>
<path d="M1890 472 c-28 -10 -4 -19 45 -19 31 1 55 6 55 12 0 9 -76 15 -100 7z"/>
<path d="M2013 466 c4 -12 77 -18 77 -7 0 5 -18 11 -40 13 -23 2 -39 -1 -37
-6z"/>
<path d="M2106 472 c-12 -12 -5 -19 19 -19 23 0 48 16 28 18 -4 0 -16 2 -25 4
-9 2 -19 0 -22 -3z"/>
<path d="M2170 468 c0 -10 15 -14 59 -13 33 0 63 4 67 8 4 4 -13 7 -37 7 -24
0 -54 3 -66 6 -16 4 -23 2 -23 -8z"/>
<path d="M2310 466 c0 -14 37 -19 45 -7 2 5 -6 11 -20 13 -15 3 -25 1 -25 -6z"/>
<path d="M2400 459 c-34 -6 -33 -6 13 -8 46 -1 59 3 35 11 -7 2 -29 1 -48 -3z"/>
<path d="M2224 427 c-4 -12 -11 -14 -30 -6 -17 6 -23 6 -19 -1 3 -6 13 -10 21
-10 9 0 14 -6 11 -12 -2 -7 -14 -12 -26 -11 -12 2 -20 -1 -17 -6 4 -5 0 -12
-6 -14 -7 -3 6 -5 29 -5 31 1 40 4 33 13 -6 7 -4 19 6 34 9 12 13 25 10 28 -3
3 -8 -1 -12 -10z"/>
<path d="M2485 410 c3 -5 8 -10 11 -10 2 0 4 5 4 10 0 6 -5 10 -11 10 -5 0 -7
-4 -4 -10z"/>
<path d="M2230 395 c-10 -12 -10 -15 4 -15 9 0 16 7 16 15 0 8 -2 15 -4 15 -2
0 -9 -7 -16 -15z"/>
<path d="M2350 403 c0 -7 -7 -10 -15 -7 -9 4 -18 -1 -21 -10 -6 -15 -8 -15
-23 -2 -15 14 -19 13 -34 -4 -17 -20 -16 -20 13 -15 32 6 38 -3 18 -23 -7 -7
-8 -12 -2 -12 6 0 16 11 22 24 5 13 20 26 31 29 25 6 27 -5 6 -23 -17 -14 -20
-30 -6 -30 5 0 14 14 22 32 9 21 14 27 18 16 7 -16 62 -19 73 -3 5 6 8 6 8 -1
0 -14 31 -14 49 0 10 8 9 2 -3 -22 -10 -19 -15 -36 -12 -39 2 -3 14 13 25 35
l20 39 -54 -2 c-37 -1 -52 1 -48 9 4 6 -4 2 -17 -9 -20 -17 -22 -17 -17 -3 3
10 1 20 -5 24 -7 5 -8 3 -4 -5 10 -15 -25 -11 -36 4 -5 6 -8 5 -8 -2z"/>
<path d="M1923 389 c-6 -6 -30 -10 -52 -7 -25 2 -42 -1 -45 -8 -3 -8 13 -11
49 -11 39 0 55 4 60 15 7 19 2 25 -12 11z"/>
<path d="M2750 393 c0 -15 -40 -24 -59 -13 -9 5 -23 4 -35 -2 -13 -7 -21 -6
-27 3 -7 11 -11 11 -17 2 -4 -6 -23 -13 -42 -16 -21 -2 -11 -4 25 -4 33 0 66
4 73 10 7 5 12 5 12 0 0 -5 51 -9 113 -9 61 0 83 1 47 3 -46 3 -69 9 -77 20
-7 9 -13 12 -13 6z"/>
<path d="M1551 382 c-28 -9 -7 -22 34 -20 25 0 45 5 45 9 0 8 -62 17 -79 11z"/>
<path d="M1640 374 c0 -6 18 -11 40 -12 22 -1 40 2 40 7 0 5 -18 11 -40 13
-25 2 -40 -1 -40 -8z"/>
<path d="M1745 382 c-13 -14 -2 -22 30 -22 19 0 35 4 35 9 0 10 -57 21 -65 13z"/>
<path d="M1990 375 c0 -7 27 -12 75 -12 51 -1 75 2 75 10 0 8 -25 12 -75 13
-49 0 -75 -4 -75 -11z"/>
<path d="M1576 318 c-14 -21 -15 -21 -10 -3 4 15 2 14 -10 -5 -19 -32 -20 -37
-1 -37 8 0 15 4 15 8 0 4 9 5 20 2 11 -3 20 0 20 6 0 5 -7 8 -15 5 -18 -7 -19
0 -5 27 14 26 6 24 -14 -3z"/>
<path d="M1684 316 c-10 -11 -18 -24 -16 -28 1 -5 -2 -8 -8 -8 -5 0 -10 5 -10
10 0 6 -6 10 -13 10 -27 0 -13 -25 16 -27 19 -2 27 2 24 10 -3 9 8 11 39 9
l43 -4 -15 -30 c-9 -16 -13 -32 -10 -35 3 -3 11 6 17 21 l12 26 141 2 141 2
-140 6 c-81 3 -140 9 -140 15 0 5 -18 9 -39 8 -39 -2 -40 11 -1 19 19 4 19 4
-1 10 -15 4 -28 -1 -40 -16z"/>
<path d="M2083 292 c-18 -2 -33 -8 -33 -13 0 -11 59 -8 67 4 7 12 3 13 -34 9z"/>
<path d="M2130 283 c0 -9 15 -13 47 -13 37 0 44 -3 35 -12 -20 -20 -13 -39 19
-50 33 -11 31 -20 -6 -25 -14 -2 -35 -8 -48 -13 -17 -7 -12 -9 25 -7 27 1 48
6 48 11 0 5 6 4 13 -1 17 -13 39 -11 44 4 3 8 -3 11 -16 8 -10 -2 -22 3 -25
11 -4 11 4 14 34 14 28 0 47 7 67 26 l28 25 -30 -19 c-30 -20 -125 -36 -125
-22 0 12 28 20 48 14 15 -5 15 -4 -1 6 -14 9 -23 8 -42 -4 -30 -20 -35 -20
-35 -1 0 17 30 35 59 35 12 0 21 4 21 9 0 5 -29 6 -65 3 -39 -3 -65 -1 -65 5
0 5 -7 10 -15 10 -8 0 -15 -6 -15 -14z"/>
<path d="M2333 293 c20 -2 35 -8 32 -13 -3 -5 4 -8 15 -7 41 3 12 22 -36 23
-37 1 -39 0 -11 -3z"/>
<path d="M2410 283 c0 -8 14 -13 36 -13 22 0 34 4 32 12 -6 16 -68 16 -68 1z"/>
<path d="M2486 285 c6 -16 54 -17 54 -1 0 6 -13 11 -29 12 -19 1 -28 -3 -25
-11z"/>
<path d="M2560 285 c0 -8 7 -15 15 -15 8 0 15 4 15 9 0 5 -7 11 -15 15 -9 3
-15 0 -15 -9z"/>
<path d="M2600 280 c0 -10 80 -9 86 1 2 5 -16 8 -41 7 -25 0 -45 -4 -45 -8z"/>
<path d="M2700 280 c0 -5 5 -10 10 -10 6 0 10 5 10 10 0 6 -4 10 -10 10 -5 0
-10 -4 -10 -10z"/>
<path d="M2730 274 c0 -11 5 -14 16 -10 9 3 27 6 40 6 14 0 22 4 19 10 -3 6
-22 10 -41 10 -25 0 -34 -4 -34 -16z"/>
<path d="M2313 273 c9 -2 23 -2 30 0 6 3 -1 5 -18 5 -16 0 -22 -2 -12 -5z"/>
<path d="M2308 253 c12 -2 30 -2 40 0 9 3 -1 5 -23 4 -22 0 -30 -2 -17 -4z"/>
<path d="M2505 247 c-38 -5 -72 -11 -74 -13 -2 -2 2 -10 9 -19 10 -12 10 -15
-5 -15 -9 0 -27 -8 -40 -18 l-24 -19 35 -1 c19 -1 34 3 34 9 0 6 -7 9 -15 5
-8 -3 -15 -1 -15 4 0 6 9 10 20 10 11 0 20 -6 20 -13 0 -10 18 -14 64 -15 55
-1 64 1 59 14 -5 13 -7 13 -14 2 -6 -8 -9 -9 -9 -1 0 12 -24 12 -36 0 -14 -13
-34 -7 -34 11 0 11 -3 13 -8 5 -5 -8 -11 -4 -18 11 -11 23 -10 24 90 35 56 6
119 13 141 15 22 1 6 3 -35 3 -41 0 -106 -4 -145 -10z"/>
<path d="M1850 240 c0 -5 5 -10 11 -10 5 0 7 5 4 10 -3 6 -8 10 -11 10 -2 0
-4 -4 -4 -10z"/>
<path d="M2380 220 c0 -5 -7 -10 -16 -10 -8 0 -12 -4 -9 -10 6 -9 -8 -14 -27
-11 -12 2 -10 -17 2 -24 6 -3 10 0 10 7 0 10 2 11 8 0 6 -9 12 -6 20 13 7 14
22 30 34 35 l23 9 -22 0 c-13 1 -23 -3 -23 -9z"/>
<path d="M2506 205 c-9 -14 -13 -25 -9 -25 10 0 36 40 30 46 -2 3 -12 -7 -21
-21z"/>
<path d="M2178 203 c7 -3 16 -2 19 1 4 3 -2 6 -13 5 -11 0 -14 -3 -6 -6z"/>
<path d="M2615 194 c-20 -15 -20 -16 4 -12 14 2 26 9 29 16 5 16 -9 15 -33 -4z"/>
<path d="M2118 188 c-27 -9 -39 -28 -18 -28 6 0 10 4 10 8 0 5 12 13 28 19 34
14 17 15 -20 1z"/>
<path d="M2638 175 c-20 -7 -39 -11 -42 -8 -3 4 -6 1 -6 -5 0 -14 51 -5 90 15
32 17 6 16 -42 -2z"/>
<path d="M2695 159 c4 -6 0 -9 -10 -7 -10 2 -20 -4 -22 -12 -4 -13 -3 -13 6 0
7 10 11 11 11 3 0 -7 7 -13 15 -13 8 0 15 9 15 20 0 11 -5 20 -11 20 -5 0 -7
-5 -4 -11z"/>
<path d="M2743 162 c20 -2 27 -8 23 -18 -4 -11 4 -14 34 -14 23 0 40 5 40 11
0 7 -12 10 -30 7 -16 -3 -30 -1 -30 3 0 5 28 10 63 12 38 2 26 3 -33 3 -52 0
-82 -2 -67 -4z"/>
<path d="M2545 138 c-11 -7 -35 -17 -54 -24 -18 -6 -30 -14 -25 -16 9 -6 114
38 114 47 0 8 -14 5 -35 -7z"/>
<path d="M2720 140 c0 -5 7 -10 15 -10 8 0 15 5 15 10 0 6 -7 10 -15 10 -8 0
-15 -4 -15 -10z"/>
<path d="M904 1056 c-27 -12 -84 -86 -66 -86 4 0 15 -14 24 -30 9 -17 22 -30
29 -30 8 0 7 5 -2 17 -13 15 -12 15 8 5 29 -16 33 -15 33 4 0 13 3 14 15 4 8
-6 20 -8 27 -4 9 5 9 2 -1 -10 -12 -15 -12 -19 -1 -26 11 -7 11 -16 0 -54 -7
-25 -16 -43 -21 -40 -12 7 2 -29 15 -39 7 -6 4 -7 -6 -3 -12 4 -18 0 -19 -12
0 -13 -2 -12 -9 4 -5 12 -11 34 -14 50 -12 66 -23 89 -40 86 -10 -2 -15 1 -12
6 10 16 -48 0 -62 -17 -9 -11 -15 -12 -20 -5 -4 7 -8 -26 -9 -72 -2 -55 -8
-94 -18 -112 -13 -22 -15 -23 -12 -6 5 24 -17 47 -51 56 -16 4 -27 0 -37 -15
-13 -19 -17 -20 -25 -7 -8 12 -10 10 -10 -9 0 -17 4 -22 16 -17 9 3 20 6 25 6
5 0 9 7 9 15 0 8 6 15 13 15 19 0 47 -33 47 -53 0 -20 -16 -23 -23 -4 -4 9 -6
9 -6 0 -3 -35 52 -24 73 14 l13 26 7 -33 c3 -19 1 -38 -5 -46 -9 -11 -9 -14 0
-14 6 0 16 12 21 26 9 23 15 26 41 20 17 -3 38 -2 48 3 9 5 23 6 30 2 9 -6 6
-10 -10 -14 -19 -5 -20 -8 -9 -22 10 -12 16 -13 27 -3 8 6 34 13 57 14 36 2
42 0 43 -18 1 -12 7 -26 14 -32 9 -8 10 -7 5 7 -3 10 -6 30 -6 44 0 20 -4 24
-18 21 -15 -4 -18 2 -20 36 0 23 1 35 4 29 7 -16 25 -17 21 -2 -1 6 3 13 9 16
7 2 14 -25 19 -78 8 -97 24 -89 17 8 -3 58 -8 70 -35 98 -71 72 -75 90 -18 90
22 0 34 -3 28 -7 -9 -6 -9 -8 1 -8 7 0 17 -11 22 -26 9 -23 14 -43 26 -114 9
-48 14 -183 8 -206 -9 -35 -20 -21 -23 28 -4 68 -11 58 -11 -15 0 -60 2 -67
20 -67 11 0 20 4 20 9 0 5 4 21 10 36 9 22 13 24 31 15 11 -7 23 -9 25 -7 3 3
-8 11 -25 18 -29 13 -29 14 -30 98 -1 90 -15 188 -32 233 -12 30 -68 56 -79
37 -5 -7 -9 -5 -13 5 -4 9 -14 16 -23 16 -16 0 -16 1 -1 18 21 23 22 69 2 69
-18 0 -20 -14 -3 -19 23 -8 -3 -28 -28 -22 -13 3 -31 1 -39 -6 -16 -13 -35 -6
-35 15 0 7 24 21 53 30 50 16 53 18 49 46 -5 33 -26 37 -78 15z m56 -21 c0 -8
-4 -15 -10 -15 -5 0 -10 7 -10 15 0 8 5 15 10 15 6 0 10 -7 10 -15z m-70 -164
c0 -5 -7 -17 -16 -26 -9 -8 -13 -22 -10 -31 3 -8 2 -13 -3 -9 -5 3 -16 -2 -24
-10 -9 -8 -20 -15 -25 -15 -5 0 -13 -12 -16 -26 -4 -15 -9 -24 -12 -22 -2 3 2
26 11 52 9 25 13 51 10 56 -7 11 9 21 49 31 17 4 32 7 34 8 1 1 2 -3 2 -8z
m10 -51 c0 -5 -4 -10 -10 -10 -5 0 -10 5 -10 10 0 6 5 10 10 10 6 0 10 -4 10
-10z m100 -10 c0 -5 -4 -10 -10 -10 -5 0 -7 -6 -4 -14 3 -7 12 -13 21 -12 9 0
18 -5 20 -11 3 -8 -3 -13 -14 -13 -22 0 -45 33 -37 55 7 17 24 21 24 5z m-100
-20 c0 -5 -5 -10 -11 -10 -5 0 -7 5 -4 10 3 6 8 10 11 10 2 0 4 -4 4 -10z
m-36 -15 c-4 -8 -8 -15 -10 -15 -2 0 -4 7 -4 15 0 8 4 15 10 15 5 0 7 -7 4
-15z m-34 -38 c0 -20 0 -20 15 -1 17 22 19 7 5 -31 -5 -14 -14 -23 -20 -20 -5
3 -10 1 -10 -6 0 -7 -3 -9 -6 -6 -4 4 -2 12 4 20 7 8 7 18 2 27 -13 20 -13 53
0 45 6 -3 10 -16 10 -28z m90 29 c0 -3 -4 -8 -10 -11 -5 -3 -10 -1 -10 4 0 6
5 11 10 11 6 0 10 -2 10 -4z m-34 -56 c1 -22 -2 -40 -7 -40 -5 0 -9 18 -9 40
0 22 3 40 8 40 4 0 8 -18 8 -40z m74 -6 c0 -19 -4 -33 -8 -30 -8 5 -4 66 4 66
2 0 4 -16 4 -36z m40 1 c0 -14 0 -28 1 -32 0 -5 -6 -9 -14 -11 -10 -2 -13 7
-13 33 1 40 26 50 26 10z m-70 5 c8 -5 11 -12 8 -16 -4 -3 -14 1 -23 10 -18
17 -9 21 15 6z"/>
<path d="M328 1043 c7 -3 16 -2 19 1 4 3 -2 6 -13 5 -11 0 -14 -3 -6 -6z"/>
<path d="M320 1020 c0 -5 6 -10 14 -10 8 0 18 5 21 10 3 6 -3 10 -14 10 -12 0
-21 -4 -21 -10z"/>
<path d="M180 1001 c0 -6 9 -8 21 -6 17 4 19 2 9 -10 -10 -12 -9 -15 3 -15 21
0 30 17 15 27 -20 12 -48 14 -48 4z"/>
<path d="M333 1001 l-22 -6 24 -12 c14 -6 22 -7 19 -1 -3 5 0 9 7 7 25 -3 49
1 49 9 0 9 -48 11 -77 3z"/>
<path d="M140 959 c0 -5 5 -7 10 -4 6 3 10 8 10 11 0 2 -4 4 -10 4 -5 0 -10
-5 -10 -11z"/>
<path d="M1020 960 c0 -5 7 -10 15 -10 8 0 15 -5 15 -12 0 -6 3 -8 6 -5 8 8
-14 37 -27 37 -5 0 -9 -4 -9 -10z"/>
<path d="M1105 961 c-2 -5 4 -11 15 -14 11 -3 20 -2 20 3 0 12 -28 21 -35 11z"/>
<path d="M1228 940 c-3 -19 0 -30 7 -30 7 0 10 11 7 30 -2 17 -5 30 -7 30 -2
0 -5 -13 -7 -30z"/>
<path d="M1251 958 c-1 -20 21 -37 27 -20 2 7 8 10 13 6 5 -3 9 0 9 5 0 15
-30 14 -31 -1 0 -7 -4 -4 -9 7 -7 16 -9 17 -9 3z"/>
<path d="M70 949 c0 -5 5 -7 10 -4 6 3 10 8 10 11 0 2 -4 4 -10 4 -5 0 -10 -5
-10 -11z"/>
<path d="M205 950 c3 -5 8 -10 11 -10 2 0 4 5 4 10 0 6 -5 10 -11 10 -5 0 -7
-4 -4 -10z"/>
<path d="M1210 952 c0 -7 -7 -9 -17 -5 -15 5 -16 3 -5 -8 9 -10 15 -10 24 -1
6 6 9 15 5 19 -4 3 -7 1 -7 -5z"/>
<path d="M230 939 c0 -5 5 -7 10 -4 6 3 10 8 10 11 0 2 -4 4 -10 4 -5 0 -10
-5 -10 -11z"/>
<path d="M620 941 c0 -6 4 -13 10 -16 6 -3 7 1 4 9 -7 18 -14 21 -14 7z"/>
<path d="M650 939 c0 -5 5 -7 10 -4 6 3 10 8 10 11 0 2 -4 4 -10 4 -5 0 -10
-5 -10 -11z"/>
<path d="M727 937 c-3 -8 4 -14 20 -15 22 -2 23 0 9 13 -18 18 -22 19 -29 2z"/>
<path d="M780 938 c0 -11 12 -10 30 2 12 7 10 9 -8 7 -12 0 -22 -5 -22 -9z"/>
<path d="M118 928 c-9 -7 -19 -24 -23 -38 -8 -28 -7 -27 24 18 24 35 24 39 -1
20z"/>
<path d="M270 934 c0 -15 25 -36 33 -27 11 11 8 25 -4 17 -6 -3 -15 0 -20 7
-5 8 -9 9 -9 3z"/>
<path d="M496 925 c-16 -12 -17 -15 -4 -15 9 0 18 7 22 15 7 18 6 18 -18 0z"/>
<path d="M570 931 c0 -5 -12 -12 -27 -14 -27 -4 -26 -4 4 -6 32 -1 52 13 33
24 -5 3 -10 2 -10 -4z"/>
<path d="M690 930 c-13 -8 -12 -10 3 -10 9 0 17 5 17 10 0 12 -1 12 -20 0z"/>
<path d="M170 916 c0 -2 7 -9 15 -16 13 -11 14 -10 9 4 -5 14 -24 23 -24 12z"/>
<path d="M597 899 c-5 -19 0 -31 25 -54 28 -28 30 -28 25 -7 -3 12 -1 20 3 17
5 -3 19 9 32 27 l23 33 -26 -17 c-32 -20 -60 -18 -69 7 -6 17 -7 16 -13 -6z"/>
<path d="M240 900 c20 -13 33 -13 25 0 -3 6 -14 10 -23 10 -15 0 -15 -2 -2
-10z"/>
<path d="M734 903 c4 -6 -6 -16 -21 -21 l-28 -10 27 -1 c14 -1 29 5 31 12 3 7
6 6 6 -5 1 -9 6 -20 11 -23 17 -11 11 12 -11 36 -11 13 -18 19 -15 12z"/>
<path d="M910 902 c0 -4 5 -13 12 -20 15 -15 28 -15 28 -1 0 5 -4 8 -9 4 -5
-3 -12 -1 -15 4 -4 5 2 12 11 14 14 4 13 5 -4 6 -13 0 -23 -3 -23 -7z"/>
<path d="M151 878 c6 -14 17 -24 24 -22 6 3 24 0 38 -5 15 -6 27 -7 27 -2 0 5
-17 12 -37 16 -20 4 -43 14 -50 23 -11 14 -12 13 -2 -10z"/>
<path d="M478 893 c7 -3 16 -2 19 1 4 3 -2 6 -13 5 -11 0 -14 -3 -6 -6z"/>
<path d="M300 876 c0 -7 7 -13 15 -13 8 0 15 4 15 8 0 4 -7 9 -15 13 -9 3 -15
0 -15 -8z"/>
<path d="M120 870 c-9 -6 -10 -10 -3 -10 6 0 15 5 18 10 8 12 4 12 -15 0z"/>
<path d="M910 861 c0 -3 7 -14 15 -24 13 -18 14 -18 24 1 9 17 7 20 -14 24
-14 3 -25 2 -25 -1z"/>
<path d="M668 854 c-3 -3 -4 -14 -1 -24 7 -27 43 -37 58 -16 7 10 19 14 29 10
9 -3 16 -1 16 5 0 6 -3 11 -7 12 -13 1 -46 7 -68 13 -12 3 -24 3 -27 0z"/>
<path d="M124 839 c-3 -6 -2 -15 3 -20 5 -5 9 -1 9 11 0 23 -2 24 -12 9z"/>
<path d="M440 840 c0 -5 5 -10 11 -10 5 0 7 5 4 10 -3 6 -8 10 -11 10 -2 0 -4
-4 -4 -10z"/>
<path d="M1145 830 c4 -6 11 -8 16 -5 14 9 11 15 -7 15 -8 0 -12 -5 -9 -10z"/>
<path d="M1280 836 c0 -2 7 -7 16 -10 8 -3 12 -2 9 4 -6 10 -25 14 -25 6z"/>
<path d="M1397 826 c-17 -13 -17 -14 1 -18 12 -4 18 1 19 13 2 22 3 22 -20 5z"/>
<path d="M79 813 c-13 -16 -12 -17 3 -5 14 12 19 10 32 -15 8 -15 15 -21 15
-13 0 15 -22 50 -31 50 -3 0 -12 -8 -19 -17z"/>
<path d="M1183 822 c-6 -4 13 -7 42 -7 29 0 51 3 48 8 -5 9 -74 9 -90 -1z"/>
<path d="M1334 823 c10 -11 37 -12 30 -2 -3 5 -12 9 -21 9 -9 0 -13 -3 -9 -7z"/>
<path d="M456 804 c-18 -17 -22 -54 -6 -54 6 0 10 -5 10 -11 0 -5 -4 -7 -10
-4 -5 3 -10 2 -10 -3 0 -10 29 -22 63 -26 23 -3 22 6 -3 21 -17 11 -18 10 -13
-5 4 -12 3 -14 -5 -7 -15 13 -29 80 -16 72 5 -3 10 3 10 14 0 23 -1 23 -20 3z"/>
<path d="M521 794 c0 -11 3 -14 6 -6 3 7 2 16 -1 19 -3 4 -6 -2 -5 -13z"/>
<path d="M1220 800 c0 -5 5 -10 11 -10 5 0 7 5 4 10 -3 6 -8 10 -11 10 -2 0
-4 -4 -4 -10z"/>
<path d="M165 790 c-4 -6 -11 -7 -17 -4 -6 4 -8 1 -6 -7 3 -8 11 -13 18 -11 7
2 21 -5 31 -14 16 -15 19 -15 19 -2 0 9 -9 18 -21 21 -12 3 -18 10 -14 16 3 6
4 11 1 11 -3 0 -8 -5 -11 -10z"/>
<path d="M235 790 c-3 -5 -1 -10 4 -10 6 0 11 5 11 10 0 6 -2 10 -4 10 -3 0
-8 -4 -11 -10z"/>
<path d="M611 790 c-16 -9 -8 -40 11 -40 9 0 9 3 -2 10 -13 9 -13 11 0 19 18
12 9 23 -9 11z"/>
<path d="M566 781 c-3 -5 1 -11 9 -14 9 -4 12 -1 8 9 -6 16 -10 17 -17 5z"/>
<path d="M651 775 c10 -10 90 -8 101 4 4 3 -19 6 -52 6 -38 0 -56 -3 -49 -10z"/>
<path d="M65 771 c-3 -6 -1 -19 4 -28 7 -13 10 -14 11 -4 0 11 5 10 21 -5 17
-16 22 -16 29 -4 13 20 12 30 0 30 -5 0 -10 -7 -10 -16 0 -8 -5 -12 -11 -9 -6
4 -8 14 -4 23 3 9 3 13 -1 9 -4 -4 -13 -2 -20 4 -8 7 -14 7 -19 0z"/>
<path d="M492 764 c-7 -8 -8 -14 -3 -14 10 0 25 19 20 25 -2 1 -10 -3 -17 -11z"/>
<path d="M1183 762 c0 -9 5 -20 11 -24 6 -4 -2 -8 -19 -8 -26 -1 -27 -2 -12
-11 33 -19 63 25 34 50 -11 8 -14 7 -14 -7z"/>
<path d="M223 755 c0 -8 4 -15 9 -15 4 0 8 7 8 15 0 8 -4 15 -8 15 -5 0 -9 -7
-9 -15z"/>
<path d="M320 755 c0 -8 4 -15 10 -15 5 0 7 7 4 15 -4 8 -8 15 -10 15 -2 0 -4
-7 -4 -15z"/>
<path d="M1290 760 c-7 -4 -23 -6 -36 -4 -12 2 -26 0 -29 -6 -4 -6 7 -10 25
-10 17 0 29 -4 25 -9 -7 -12 12 -24 26 -16 6 5 4 12 -8 21 -16 12 -15 13 15 8
35 -7 42 0 14 15 -10 5 -24 6 -32 1z"/>
<path d="M365 728 c-4 -18 -11 -37 -15 -43 -10 -14 -9 -45 3 -45 5 0 7 7 3 15
-3 8 -1 15 5 15 6 0 7 5 4 10 -3 6 -1 10 5 10 7 0 9 7 6 16 -3 8 -2 12 3 9 5
-3 13 0 17 6 5 8 3 9 -6 4 -10 -6 -12 -4 -7 8 3 9 2 19 -3 22 -4 3 -12 -9 -15
-27z"/>
<path d="M540 750 c0 -5 10 -15 23 -21 22 -12 22 -12 3 10 -21 23 -26 26 -26
11z"/>
<path d="M1140 750 c0 -5 4 -10 9 -10 6 0 13 5 16 10 3 6 -1 10 -9 10 -9 0
-16 -4 -16 -10z"/>
<path d="M1360 748 c0 -4 9 -8 20 -8 11 0 20 4 20 9 0 6 -9 9 -20 8 -11 -1
-20 -5 -20 -9z"/>
<path d="M173 729 c13 -20 23 -24 31 -11 2 4 -6 12 -19 18 -22 11 -23 10 -12
-7z"/>
<path d="M1330 730 c-12 -8 -11 -10 8 -10 12 0 22 -4 22 -10 0 -5 5 -10 11
-10 5 0 7 4 4 10 -3 6 1 7 9 4 9 -3 16 -1 16 5 0 6 -6 11 -14 11 -8 0 -20 2
-28 5 -7 3 -20 0 -28 -5z"/>
<path d="M250 720 c0 -5 5 -10 10 -10 6 0 10 5 10 10 0 6 -4 10 -10 10 -5 0
-10 -4 -10 -10z"/>
<path d="M596 713 c-6 -14 -5 -15 5 -6 7 7 10 15 7 18 -3 3 -9 -2 -12 -12z"/>
<path d="M1235 719 c-4 -6 -5 -12 -2 -15 2 -3 7 2 10 11 7 17 1 20 -8 4z"/>
<path d="M219 718 c-8 -27 -5 -36 9 -30 14 5 15 3 5 -10 -7 -8 -10 -18 -6 -21
3 -4 2 -7 -4 -7 -6 0 -10 -11 -10 -24 0 -18 5 -24 17 -23 14 1 16 5 9 18 -12
22 -12 32 0 24 5 -3 12 -1 16 5 3 5 -2 10 -11 10 -16 0 -16 1 2 15 19 14 19
15 -3 21 -13 3 -20 10 -17 15 3 5 3 9 0 9 -3 0 -6 -1 -7 -2z"/>
<path d="M140 701 c0 -6 4 -13 10 -16 6 -3 7 1 4 9 -7 18 -14 21 -14 7z"/>
<path d="M555 700 c-3 -5 -1 -10 4 -10 6 0 11 5 11 10 0 6 -2 10 -4 10 -3 0
-8 -4 -11 -10z"/>
<path d="M1020 699 c0 -5 5 -7 10 -4 6 3 10 8 10 11 0 2 -4 4 -10 4 -5 0 -10
-5 -10 -11z"/>
<path d="M1315 701 c-3 -5 -1 -12 5 -16 5 -3 10 1 10 9 0 18 -6 21 -15 7z"/>
<path d="M85 689 c-4 -6 -5 -12 -2 -15 2 -3 7 2 10 11 7 17 1 20 -8 4z"/>
<path d="M1196 685 c4 -9 19 -15 39 -15 18 0 38 -7 45 -15 7 -8 16 -13 20 -10
5 3 11 1 15 -5 3 -5 1 -10 -5 -10 -6 0 -8 -5 -4 -11 4 -8 10 -6 17 6 7 13 11
14 17 5 4 -7 13 -9 20 -5 9 6 8 10 -4 17 -9 5 -13 15 -10 21 5 9 3 9 -6 0 -11
-10 -16 -9 -27 5 -7 9 -13 13 -12 7 3 -24 -3 -25 -27 -6 -15 11 -30 18 -34 16
-5 -3 -11 -1 -15 5 -10 16 -35 12 -29 -5z"/>
<path d="M1280 689 c0 -5 5 -7 10 -4 6 3 10 8 10 11 0 2 -4 4 -10 4 -5 0 -10
-5 -10 -11z"/>
<path d="M664 675 c-9 -22 20 -61 45 -61 24 0 28 11 7 19 -8 3 -17 1 -20 -6
-2 -7 -4 -3 -4 8 2 37 -2 55 -12 55 -6 0 -13 -7 -16 -15z"/>
<path d="M1142 665 c1 -14 5 -25 9 -25 4 0 9 11 11 25 4 17 1 25 -8 25 -9 0
-13 -10 -12 -25z"/>
<path d="M180 670 c0 -5 5 -10 11 -10 5 0 7 5 4 10 -3 6 -8 10 -11 10 -2 0 -4
-4 -4 -10z"/>
<path d="M300 666 c14 -18 13 -19 -3 -13 -11 4 -16 3 -12 -3 3 -6 -1 -10 -9
-10 -9 0 -16 -8 -16 -17 0 -15 2 -16 10 -3 6 10 10 11 10 3 0 -7 8 -13 18 -12
10 0 12 3 5 6 -21 8 -15 22 7 16 27 -7 25 9 -2 33 -22 19 -22 19 -8 0z"/>
<path d="M400 669 c0 -5 5 -7 10 -4 6 3 10 8 10 11 0 2 -4 4 -10 4 -5 0 -10
-5 -10 -11z"/>
<path d="M150 660 c-13 -8 -12 -10 3 -10 9 0 17 5 17 10 0 12 -1 12 -20 0z"/>
<path d="M1370 661 c0 -5 6 -14 14 -20 11 -9 15 -7 18 7 4 12 -1 18 -13 19
-11 1 -19 -2 -19 -6z"/>
<path d="M88 653 c6 -2 18 -2 25 0 6 3 1 5 -13 5 -14 0 -19 -2 -12 -5z"/>
<path d="M420 656 c0 -2 7 -7 16 -10 8 -3 12 -2 9 4 -6 10 -25 14 -25 6z"/>
<path d="M1186 651 c-3 -4 6 -7 19 -7 14 0 22 2 19 5 -8 8 -34 10 -38 2z"/>
<path d="M1240 651 c0 -10 19 -25 25 -20 1 2 -3 10 -11 17 -8 7 -14 8 -14 3z"/>
<path d="M497 635 c-3 -6 3 -11 12 -11 10 0 18 5 18 11 0 7 -6 12 -13 12 -7 0
-15 -5 -17 -12z"/>
<path d="M567 643 c-9 -2 -15 -9 -12 -14 9 -14 22 -11 29 6 3 8 4 14 3 14 -1
-1 -10 -3 -20 -6z"/>
<path d="M606 641 c-3 -4 4 -14 16 -22 11 -8 29 -23 39 -33 14 -15 21 -16 32
-8 8 7 17 9 20 5 4 -3 7 -1 7 6 0 7 -10 10 -25 7 -17 -3 -33 4 -55 24 -16 15
-32 25 -34 21z"/>
<path d="M640 640 c0 -5 5 -10 10 -10 6 0 10 5 10 10 0 6 -4 10 -10 10 -5 0
-10 -4 -10 -10z"/>
<path d="M744 628 c3 -13 8 -44 11 -69 6 -49 -1 -59 -47 -64 -32 -3 -32 -15
-1 -15 17 0 36 7 43 15 7 8 21 15 31 15 13 0 19 7 19 24 0 13 3 31 6 40 3 9 2
16 -3 16 -5 0 -9 -10 -10 -21 -1 -12 -4 -24 -7 -27 -12 -11 -17 7 -19 57 -1
34 -6 51 -15 51 -8 0 -11 -9 -8 -22z"/>
<path d="M821 634 c0 -11 3 -14 6 -6 3 7 2 16 -1 19 -3 4 -6 -2 -5 -13z"/>
<path d="M112 633 c-7 -2 -17 -14 -23 -25 -8 -15 -8 -19 0 -14 6 4 11 0 11
-10 0 -13 3 -14 13 -5 14 11 27 5 27 -11 0 -5 -5 -6 -12 -2 -7 4 -8 3 -4 -5
13 -20 26 -1 19 27 -6 25 -5 26 12 12 11 -9 16 -10 11 -2 -10 17 4 15 26 -5
18 -16 18 -16 12 0 -3 9 -10 17 -15 17 -5 0 -9 7 -9 15 0 8 -5 15 -11 15 -5 0
-8 -4 -4 -9 3 -5 1 -12 -4 -15 -5 -3 -11 1 -15 9 -6 15 -12 17 -34 8z m18 -28
c-7 -8 -16 -12 -21 -9 -13 8 -1 24 18 24 13 0 13 -3 3 -15z"/>
<path d="M380 630 c0 -5 5 -10 11 -10 5 0 7 5 4 10 -3 6 -8 10 -11 10 -2 0 -4
-4 -4 -10z"/>
<path d="M410 629 c0 -5 5 -7 10 -4 6 3 10 8 10 11 0 2 -4 4 -10 4 -5 0 -10
-5 -10 -11z"/>
<path d="M1146 618 c3 -4 9 -8 15 -8 5 0 9 4 9 8 0 5 -7 9 -15 9 -8 0 -12 -4
-9 -9z"/>
<path d="M1186 621 c-5 -7 -1 -18 10 -26 15 -11 16 -16 7 -26 -6 -6 -20 -9
-30 -5 -15 6 -15 9 -3 17 12 9 12 10 1 7 -22 -6 -21 -46 2 -52 42 -11 53 18
30 73 -7 17 -12 21 -17 12z"/>
<path d="M1215 619 c-4 -6 0 -9 10 -7 12 2 19 -4 20 -18 2 -28 31 -59 38 -41
3 7 8 5 12 -8 5 -11 15 -28 23 -37 13 -16 13 -18 1 -18 -8 0 -21 6 -29 13 -12
10 -12 9 -2 -4 13 -17 56 -34 47 -19 -3 4 1 13 9 19 11 9 15 9 20 -1 3 -7 5
-4 3 6 -1 11 -8 21 -16 24 -8 3 -11 0 -7 -6 3 -6 2 -13 -3 -16 -15 -10 -24 13
-11 29 6 8 21 15 33 17 21 3 22 4 5 21 -18 17 -19 16 -28 -7 -11 -29 -30 -43
-30 -22 0 8 6 16 13 19 7 3 2 9 -13 15 -16 6 -29 6 -37 0 -14 -11 -27 7 -17
23 3 6 0 15 -7 20 -19 12 -26 11 -34 -2z"/>
<path d="M1276 621 c-3 -5 1 -11 9 -14 9 -4 12 -1 8 9 -6 16 -10 17 -17 5z"/>
<path d="M333 603 c14 -14 19 -15 29 -4 9 9 9 12 1 7 -6 -3 -14 -2 -18 4 -3 5
-11 10 -18 10 -6 0 -4 -7 6 -17z"/>
<path d="M448 613 c7 -3 16 -2 19 1 4 3 -2 6 -13 5 -11 0 -14 -3 -6 -6z"/>
<path d="M390 595 c-7 -8 -19 -15 -28 -15 -8 0 -12 -3 -8 -7 4 -5 8 -6 9 -4 1
2 12 -1 25 -8 16 -8 21 -18 17 -29 -5 -13 -2 -13 15 3 24 22 25 26 5 19 -8 -4
-15 -1 -15 4 0 6 6 12 13 15 6 2 2 2 -10 0 -25 -4 -30 6 -11 25 7 7 9 12 6 12
-3 0 -11 -7 -18 -15z"/>
<path d="M485 600 c3 -5 13 -10 21 -10 8 0 14 -5 14 -12 0 -6 3 -8 7 -4 5 4
-1 14 -11 22 -23 16 -40 19 -31 4z"/>
<path d="M576 602 c-2 -4 4 -9 15 -9 11 -1 17 2 14 8 -7 11 -22 12 -29 1z"/>
<path d="M1330 600 c0 -5 7 -7 15 -4 8 4 15 8 15 10 0 2 -7 4 -15 4 -8 0 -15
-4 -15 -10z"/>
<path d="M257 593 c-10 -9 -9 -23 1 -23 5 0 9 7 9 15 0 17 -1 18 -10 8z"/>
<path d="M294 581 c13 -13 18 -13 28 -2 10 11 10 12 1 7 -7 -4 -13 -3 -13 2 0
5 -7 9 -15 9 -14 0 -14 -2 -1 -16z"/>
<path d="M456 583 c-6 -14 -5 -15 5 -6 7 7 10 15 7 18 -3 3 -9 -2 -12 -12z"/>
<path d="M907 594 c-4 -4 -2 -14 5 -21 9 -11 9 -17 -3 -25 -11 -8 -11 -9 4 -4
9 3 17 1 17 -4 0 -6 -7 -10 -15 -10 -8 0 -15 -4 -15 -9 0 -5 9 -7 21 -4 15 4
19 11 15 26 -3 12 -1 26 5 33 7 8 7 14 -1 19 -5 3 -10 -2 -11 -12 0 -17 -1
-17 -8 0 -3 10 -10 15 -14 11z"/>
<path d="M1390 580 c-13 -8 -12 -10 3 -10 9 0 17 5 17 10 0 12 -1 12 -20 0z"/>
<path d="M161 563 c0 -11 3 -13 6 -5 2 6 9 10 14 6 5 -3 9 0 9 5 0 6 -7 11
-15 11 -8 0 -15 -8 -14 -17z"/>
<path d="M224 572 c3 -5 1 -12 -6 -14 -8 -3 -6 -7 5 -11 20 -7 24 17 5 29 -6
4 -8 3 -4 -4z"/>
<path d="M543 564 c0 -16 13 -19 21 -5 3 5 0 11 -7 14 -8 3 -14 -1 -14 -9z"/>
<path d="M596 571 c-19 -7 -19 -8 2 -13 15 -4 22 -2 22 8 0 8 -1 14 -2 13 -2
0 -12 -4 -22 -8z"/>
<path d="M630 572 c0 -7 6 -12 13 -12 7 -1 4 -7 -7 -15 -10 -8 -23 -12 -27 -9
-5 3 -9 0 -9 -6 0 -6 13 -13 30 -16 17 -4 27 -11 23 -17 -3 -5 -1 -7 5 -4 15
10 8 56 -12 75 -10 11 -16 12 -16 4z m17 -48 c-3 -3 -12 -4 -19 -1 -8 3 -5 6
6 6 11 1 17 -2 13 -5z"/>
<path d="M340 552 c6 -13 14 -21 18 -18 3 4 -2 14 -12 24 -18 16 -18 16 -6 -6z"/>
<path d="M492 556 c10 -9 16 -22 14 -29 -1 -7 -1 -9 1 -4 3 4 10 4 16 0 7 -4
5 4 -4 17 -9 13 -22 26 -30 29 -9 3 -8 -1 3 -13z"/>
<path d="M1229 564 c-1 -5 -1 -13 0 -18 1 -5 -3 -12 -9 -16 -7 -4 2 -7 18 -6
29 1 30 2 14 21 -9 11 -18 22 -19 24 -2 2 -4 0 -4 -5z"/>
<path d="M251 533 c-6 -12 -15 -23 -20 -23 -6 0 -8 -7 -5 -15 5 -11 10 -12 24
-3 9 6 26 8 36 4 18 -7 17 -9 -5 -17 -13 -5 -21 -12 -18 -15 3 -3 14 -1 25 5
27 14 53 15 32 1 -20 -13 -4 -13 21 1 17 9 21 7 26 -10 3 -13 13 -21 27 -21
20 0 20 1 -4 21 -16 14 -19 19 -7 15 21 -7 23 10 1 18 -13 5 -14 9 -4 21 18
22 -4 18 -23 -3 -10 -10 -14 -22 -10 -27 5 -4 2 -5 -5 -1 -7 5 -11 15 -8 23 3
8 2 11 -3 8 -5 -3 -12 -1 -16 5 -3 5 -14 10 -23 9 -12 0 -11 -3 6 -9 22 -9 31
-30 12 -30 -5 0 -10 5 -10 10 0 6 -11 10 -25 10 -34 0 -22 28 13 32 l27 3 -27
6 c-21 5 -28 1 -37 -18z m119 -43 c0 -5 -2 -10 -4 -10 -3 0 -8 5 -11 10 -3 6
-1 10 4 10 6 0 11 -4 11 -10z"/>
<path d="M449 543 c-13 -16 -12 -17 4 -4 9 7 17 15 17 17 0 8 -8 3 -21 -13z"/>
<path d="M685 540 c1 -11 5 -23 10 -27 4 -5 5 -2 0 6 -6 11 -3 13 13 9 15 -4
19 -2 15 9 -3 7 -8 11 -11 9 -3 -3 -10 -1 -17 4 -8 7 -11 4 -10 -10z"/>
<path d="M193 535 c0 -8 4 -12 9 -9 5 3 6 10 3 15 -9 13 -12 11 -12 -6z"/>
<path d="M820 540 c-9 -6 -10 -10 -3 -10 6 0 15 5 18 10 8 12 4 12 -15 0z"/>
<path d="M105 530 c11 -5 14 -9 8 -9 -7 -1 -13 -5 -13 -10 0 -5 8 -8 18 -7 9
2 21 -2 25 -8 6 -7 7 -6 4 4 -2 8 5 20 17 27 17 10 18 12 4 13 -9 0 -20 -5
-24 -11 -4 -8 -9 -8 -17 0 -6 6 -18 11 -26 10 -11 0 -10 -3 4 -9z"/>
<path d="M477 524 c5 -13 3 -15 -8 -9 -11 7 -12 6 -2 -6 8 -10 9 -19 1 -29 -8
-12 -9 -12 -4 3 3 9 1 17 -4 17 -6 0 -10 -9 -10 -20 0 -11 7 -20 15 -20 8 0
15 8 15 18 0 12 3 13 8 5 6 -10 14 -9 36 2 25 13 27 13 22 -1 -5 -12 -1 -14
15 -9 12 4 30 0 45 -10 16 -10 30 -13 41 -7 11 6 12 11 4 16 -6 4 -11 2 -11
-4 0 -6 -4 -9 -10 -5 -5 3 -8 11 -6 18 1 7 1 9 -1 5 -9 -15 -25 -8 -19 8 5 14
4 15 -8 5 -10 -8 -16 -9 -21 -1 -3 6 -11 8 -16 5 -5 -4 -9 0 -9 7 -1 10 -4 9
-13 -2 -19 -24 -47 -24 -47 -1 0 11 -4 23 -10 26 -6 4 -7 -1 -3 -11z"/>
<path d="M1047 493 c-6 -59 -50 -241 -66 -270 -15 -29 -14 -38 3 -24 8 7 17
23 20 37 6 21 9 24 21 14 8 -7 15 -23 15 -36 0 -13 4 -24 9 -24 6 0 6 12 1 29
-4 16 -5 33 -2 37 4 4 2 4 -4 1 -7 -4 -17 0 -24 8 -10 11 -9 24 4 62 9 25 16
55 16 65 0 11 6 29 12 41 13 23 18 107 6 107 -3 0 -8 -21 -11 -47z"/>
<path d="M807 504 c-4 -11 -5 -38 -3 -58 4 -27 2 -36 -7 -33 -7 2 -11 16 -11
30 1 15 -3 27 -8 27 -5 0 -8 -8 -7 -17 2 -10 -1 -40 -5 -66 -7 -48 5 -84 25
-71 5 3 9 0 9 -5 0 -6 4 -11 8 -11 5 0 9 6 9 14 0 8 -8 13 -19 11 -15 -3 -18
3 -18 37 0 23 3 38 7 35 3 -4 13 -1 21 6 13 10 15 9 9 -5 -3 -10 -2 -20 2 -23
5 -2 12 -34 16 -70 7 -68 23 -93 17 -27 -1 20 -3 48 -3 62 -1 14 -5 30 -11 37
-5 7 -13 43 -17 80 -5 47 -9 62 -14 47z"/>
<path d="M1247 504 c6 -15 23 -19 23 -5 0 5 -7 11 -14 14 -10 4 -13 1 -9 -9z"/>
<path d="M405 500 c3 -5 8 -10 11 -10 2 0 4 5 4 10 0 6 -5 10 -11 10 -5 0 -7
-4 -4 -10z"/>
<path d="M1200 506 c0 -2 9 -6 20 -9 11 -3 18 -1 14 4 -5 9 -34 13 -34 5z"/>
<path d="M1410 500 c0 -5 5 -10 11 -10 5 0 7 5 4 10 -3 6 -8 10 -11 10 -2 0
-4 -4 -4 -10z"/>
<path d="M120 479 c0 -5 5 -9 11 -9 5 0 7 -6 3 -12 -5 -9 -2 -9 9 1 21 17 21
18 -3 24 -11 3 -20 1 -20 -4z"/>
<path d="M908 467 c-3 -19 -2 -25 4 -19 6 6 8 18 6 28 -3 14 -5 12 -10 -9z"/>
<path d="M1144 481 c4 -5 0 -11 -6 -14 -7 -3 10 -4 37 -3 29 1 60 -4 75 -13
14 -8 22 -11 18 -6 -4 4 -2 15 5 23 10 13 9 14 -7 5 -15 -8 -26 -7 -44 5 -17
11 -26 12 -31 4 -4 -7 -12 -8 -21 -2 -19 12 -33 13 -26 1z"/>
<path d="M736 453 c-16 -22 -17 -25 -3 -20 8 3 18 1 20 -6 3 -7 5 3 4 21 0 17
0 32 -1 32 -1 0 -10 -13 -20 -27z"/>
<path d="M1354 465 c-17 -13 -17 -14 -2 -15 9 0 20 5 23 11 11 17 0 20 -21 4z"/>
<path d="M208 463 c7 -3 16 -2 19 1 4 3 -2 6 -13 5 -11 0 -14 -3 -6 -6z"/>
<path d="M411 458 c3 -24 -1 -39 -9 -35 -4 3 -7 -8 -7 -23 -1 -16 2 -28 5 -27
7 3 60 -39 60 -47 0 -4 -13 0 -30 9 -37 19 -39 19 -33 -6 4 -16 11 -19 29 -15
29 8 32 -10 4 -19 -25 -8 -27 -26 -2 -22 9 1 18 -2 19 -7 1 -10 24 -26 36 -26
5 0 1 7 -7 16 -14 14 -13 17 10 39 21 20 24 27 14 44 -8 16 -8 21 1 21 7 0 9
3 6 6 -4 4 -13 1 -22 -6 -12 -10 -15 -10 -15 4 0 10 -5 14 -10 11 -6 -4 -8
-11 -5 -16 11 -18 -6 -9 -31 16 -14 14 -21 25 -16 25 5 0 9 6 10 13 0 6 4 22
7 35 5 14 3 22 -4 22 -7 0 -11 -6 -10 -12z m77 -148 c-14 -22 -38 -34 -38 -20
0 6 4 10 9 10 5 0 8 11 7 25 -3 21 -1 23 15 14 16 -8 17 -13 7 -29z"/>
<path d="M502 462 c-18 -12 3 -35 25 -28 12 4 25 1 32 -8 13 -15 68 -19 77 -5
2 4 17 5 32 3 26 -5 26 -4 7 10 -14 10 -25 11 -39 4 -13 -7 -21 -6 -27 3 -7
11 -9 11 -9 1 0 -7 -4 -11 -9 -8 -5 4 -12 0 -14 -6 -4 -10 -6 -10 -6 -1 -1 17
-54 43 -69 35z m23 -12 c3 -5 1 -10 -4 -10 -6 0 -11 5 -11 10 0 6 2 10 4 10 3
0 8 -4 11 -10z"/>
<path d="M677 463 c-4 -3 -7 -11 -7 -16 0 -6 3 -7 7 -4 3 4 12 2 18 -3 9 -8
15 -6 19 7 4 10 4 14 0 10 -4 -4 -12 -2 -19 3 -7 5 -15 7 -18 3z"/>
<path d="M235 450 c-4 -6 -14 -9 -22 -6 -8 3 -11 1 -8 -5 4 -5 17 -9 28 -8 35
2 43 -1 27 -11 -13 -8 -12 -10 3 -10 9 0 17 5 17 10 0 17 36 11 55 -10 15 -17
16 -20 3 -20 -9 0 -19 7 -22 16 -3 8 -10 12 -16 9 -16 -10 -12 -22 9 -28 28
-7 23 -44 -6 -50 -13 -2 -23 -1 -23 3 0 4 -10 6 -22 5 -13 -1 -23 -7 -22 -13
1 -7 2 -26 3 -43 1 -27 3 -30 16 -19 13 11 13 15 0 33 -16 23 -20 41 -7 33 5
-3 23 -8 40 -11 26 -4 34 -1 49 21 22 33 25 56 11 65 -9 6 -9 11 0 22 9 11 9
14 -3 14 -8 0 -12 -3 -10 -7 7 -12 -64 -3 -79 9 -10 9 -16 9 -21 1z"/>
<path d="M1308 453 c-9 -2 -20 -14 -24 -25 -5 -16 -8 -18 -15 -7 -5 8 -9 10
-9 5 0 -14 49 -56 55 -46 3 4 -2 11 -10 14 -13 5 -14 10 -4 28 11 21 12 21 25
3 7 -10 11 -22 8 -26 -3 -5 -1 -9 4 -9 19 0 20 13 2 33 -11 11 -17 24 -14 29
3 4 4 7 2 7 -2 -1 -11 -3 -20 -6z"/>
<path d="M450 440 c8 -5 20 -10 25 -10 6 0 3 5 -5 10 -8 5 -19 10 -25 10 -5 0
-3 -5 5 -10z"/>
<path d="M1170 439 c0 -5 5 -7 10 -4 6 3 10 8 10 11 0 2 -4 4 -10 4 -5 0 -10
-5 -10 -11z"/>
<path d="M1372 435 c-3 -5 -2 -7 3 -3 4 4 17 3 28 -3 12 -7 17 -7 13 -1 -3 6
0 12 6 15 7 2 0 4 -15 3 -16 0 -31 -5 -35 -11z"/>
<path d="M1221 433 c3 -21 -2 -26 -12 -13 -6 9 -12 11 -15 5 -4 -10 -76 -11
-92 -1 -5 3 -9 -1 -9 -9 0 -8 4 -15 9 -15 5 0 6 -4 3 -10 -4 -6 1 -7 12 -3 15
6 16 4 5 -9 -10 -13 -10 -18 -1 -24 7 -4 9 -3 5 4 -3 6 -2 13 4 17 6 4 8 11 5
16 -6 8 -1 10 38 13 6 1 11 -6 9 -14 -3 -12 -1 -13 9 -2 7 6 21 12 30 12 9 0
19 9 22 20 3 13 0 20 -9 20 -8 0 -13 -3 -13 -7z"/>
<path d="M367 410 c3 -11 7 -20 9 -20 2 0 4 9 4 20 0 11 -4 20 -9 20 -5 0 -7
-9 -4 -20z"/>
<path d="M430 424 c0 -19 24 -31 53 -27 18 2 29 -1 33 -11 4 -12 11 -13 31 -5
14 5 28 7 32 4 6 -7 -26 -28 -47 -31 -20 -3 -25 -11 -17 -24 5 -8 13 -6 26 6
16 15 19 15 14 2 -4 -9 0 -18 9 -21 11 -4 14 0 11 14 -3 15 0 19 10 15 8 -3
17 -1 20 5 4 5 1 8 -6 7 -7 -2 -13 6 -14 17 0 16 -6 20 -27 18 -16 -1 -28 2
-28 8 0 5 5 9 12 9 6 0 9 3 5 6 -3 3 -12 2 -19 -2 -18 -11 -81 -5 -90 9 -6 9
-8 9 -8 1z"/>
<path d="M1061 416 c-9 -10 -8 -16 4 -26 9 -7 18 -10 22 -6 3 3 2 6 -4 6 -6 0
-9 9 -6 20 6 23 0 26 -16 6z"/>
<path d="M695 409 c-4 -6 -13 -8 -19 -6 -7 3 -28 2 -47 -3 -32 -7 -31 -8 18
-9 28 -1 57 -3 65 -6 16 -6 45 11 35 21 -3 4 -13 1 -21 -5 -11 -9 -16 -9 -22
0 -4 8 -3 9 4 5 7 -4 12 -2 12 3 0 14 -17 14 -25 0z"/>
<path d="M1368 380 c-7 -11 -16 -20 -21 -20 -4 0 -6 4 -2 9 3 5 -8 3 -25 -5
-16 -9 -30 -16 -30 -17 0 -1 21 -3 46 -5 39 -2 45 0 40 14 -4 9 -1 23 5 30 6
8 9 14 5 14 -3 0 -11 -9 -18 -20z"/>
<path d="M1200 369 c0 -5 4 -9 9 -9 5 0 8 -8 6 -17 -1 -10 0 -12 2 -5 3 6 9
12 14 12 17 0 9 18 -11 23 -11 3 -20 1 -20 -4z"/>
<path d="M1263 365 c-17 -18 -16 -25 1 -25 7 0 16 9 19 20 6 23 -3 25 -20 5z"/>
<path d="M1437 363 c3 -7 9 -10 14 -7 14 8 11 21 -5 21 -8 0 -12 -6 -9 -14z"/>
<path d="M640 358 c0 -5 -4 -6 -10 -3 -5 3 -7 0 -4 -9 3 -8 12 -12 20 -9 16 6
19 -8 4 -23 -7 -7 -6 -11 4 -11 8 0 13 4 10 8 -2 4 10 20 28 35 27 21 28 23 6
10 -33 -19 -39 -20 -32 -3 3 8 -2 14 -11 14 -8 0 -15 -4 -15 -9z"/>
<path d="M735 360 c-3 -5 -1 -10 4 -10 6 0 11 5 11 10 0 6 -2 10 -4 10 -3 0
-8 -4 -11 -10z"/>
<path d="M800 360 c0 -5 5 -10 11 -10 5 0 7 5 4 10 -3 6 -8 10 -11 10 -2 0 -4
-4 -4 -10z"/>
<path d="M205 350 c-3 -5 -1 -10 4 -10 6 0 11 5 11 10 0 6 -2 10 -4 10 -3 0
-8 -4 -11 -10z"/>
<path d="M365 350 c-4 -7 -2 -16 6 -21 18 -11 23 -4 11 17 -7 12 -11 13 -17 4z"/>
<path d="M1133 346 c-6 -8 -9 -17 -6 -20 7 -7 33 13 33 25 0 13 -13 10 -27 -5z"/>
<path d="M168 343 c7 -3 16 -2 19 1 4 3 -2 6 -13 5 -11 0 -14 -3 -6 -6z"/>
<path d="M899 321 c-16 -27 -16 -28 2 -24 12 3 19 14 19 29 0 30 -1 30 -21 -5z"/>
<path d="M933 300 c0 -52 1 -53 10 -22 7 22 7 39 -1 55 -8 18 -10 13 -9 -33z"/>
<path d="M610 329 c0 -5 -4 -7 -10 -4 -5 3 -10 2 -10 -4 0 -5 9 -9 19 -8 11 0
17 6 14 14 -6 16 -13 17 -13 2z"/>
<path d="M688 323 c-9 -11 -7 -12 7 -7 13 5 16 4 11 -4 -4 -7 -3 -12 2 -12 8
0 22 22 22 34 0 9 -32 0 -42 -11z"/>
<path d="M1050 323 c0 -7 2 -13 4 -13 2 0 13 -3 23 -6 15 -5 15 -4 3 5 -8 5
-11 13 -7 18 5 4 17 -3 27 -17 10 -14 22 -21 26 -17 4 4 2 7 -4 7 -6 0 -13 9
-17 20 -7 22 -55 25 -55 3z"/>
<path d="M730 304 c-13 -32 -13 -34 3 -34 6 0 12 13 13 30 1 37 -3 38 -16 4z"/>
<path d="M1157 323 c-10 -10 -8 -33 2 -33 6 0 9 9 8 20 -1 23 -1 22 -10 13z"/>
<path d="M1194 318 c3 -10 1 -20 -4 -23 -13 -8 -13 -25 -1 -25 5 0 11 8 13 18
3 15 5 14 16 -5 7 -12 9 -29 6 -38 -6 -14 -7 -14 -19 1 -11 16 -12 16 -18 0
-4 -9 -1 -16 6 -17 7 0 20 -2 29 -4 10 -2 15 2 12 10 -4 9 1 13 13 11 10 -2
13 -1 6 1 -14 5 -25 32 -17 44 3 5 -2 9 -10 9 -8 0 -20 8 -26 18 -11 16 -11
16 -6 0z"/>
<path d="M1235 320 c-3 -5 -1 -10 4 -10 6 0 11 5 11 10 0 6 -2 10 -4 10 -3 0
-8 -4 -11 -10z"/>
<path d="M341 309 c-1 -20 31 -30 50 -17 11 8 10 9 -3 4 -13 -4 -18 0 -18 12
0 13 -2 14 -9 3 -7 -11 -9 -11 -14 0 -4 10 -6 10 -6 -2z"/>
<path d="M1267 305 c3 -8 9 -12 14 -9 12 7 11 11 -5 17 -10 4 -13 1 -9 -8z"/>
<path d="M510 290 c8 -5 23 -10 32 -10 11 0 15 -5 12 -15 -4 -8 -1 -15 6 -15
6 0 8 5 5 10 -3 6 1 10 9 10 8 0 18 4 21 10 3 6 -1 7 -9 4 -9 -3 -16 -2 -16 3
0 6 -17 10 -37 11 -28 1 -34 -1 -23 -8z"/>
<path d="M672 284 c-15 -17 -46 -19 -36 -3 4 8 0 8 -15 0 -22 -12 -29 -31 -10
-31 5 0 7 5 4 10 -8 13 8 13 21 0 12 -12 44 -3 44 11 0 5 5 9 10 9 15 0 7 -24
-10 -32 -8 -4 0 -6 18 -4 40 5 55 16 23 16 -12 0 -20 4 -17 9 11 17 -18 30
-32 15z"/>
<path d="M1053 284 c0 -16 13 -19 21 -5 3 5 0 11 -7 14 -8 3 -14 -1 -14 -9z"/>
<path d="M902 270 c0 -14 2 -19 5 -12 2 6 2 18 0 25 -3 6 -5 1 -5 -13z"/>
<path d="M1251 274 c0 -11 3 -14 6 -6 3 7 2 16 -1 19 -3 4 -6 -2 -5 -13z"/>
<path d="M1095 270 c3 -6 2 -10 -3 -10 -5 0 -9 -6 -9 -14 0 -8 6 -12 14 -9 7
3 13 9 13 14 0 5 5 9 12 9 6 0 3 -10 -8 -22 -18 -21 -18 -21 0 -15 14 6 17 4
12 -8 -3 -9 -2 -13 4 -10 6 3 10 0 10 -7 0 -10 2 -10 9 1 7 11 11 10 19 -4 9
-17 10 -17 21 3 8 15 8 22 1 22 -5 0 -10 -5 -10 -11 0 -5 -4 -8 -9 -5 -4 3 -6
18 -3 32 3 19 1 25 -7 20 -6 -4 -9 -11 -7 -15 3 -4 1 -13 -5 -21 -9 -16 -10
-14 -13 29 -1 8 -11 18 -24 22 -15 6 -21 5 -17 -1z"/>
<path d="M1305 270 c-3 -5 -1 -10 4 -10 6 0 11 5 11 10 0 6 -2 10 -4 10 -3 0
-8 -4 -11 -10z"/>
<path d="M515 260 c-19 -8 -19 -9 3 -9 12 -1 22 4 22 9 0 6 -1 10 -2 9 -2 0
-12 -4 -23 -9z"/>
<path d="M1370 260 c-13 -8 -12 -10 3 -10 9 0 17 5 17 10 0 12 -1 12 -20 0z"/>
<path d="M1061 244 c0 -11 3 -14 6 -6 3 7 2 16 -1 19 -3 4 -6 -2 -5 -13z"/>
<path d="M1280 250 c0 -5 5 -10 11 -10 5 0 7 5 4 10 -3 6 -8 10 -11 10 -2 0
-4 -4 -4 -10z"/>
<path d="M288 238 c5 -5 16 -8 23 -6 8 3 3 7 -10 11 -17 4 -21 3 -13 -5z"/>
<path d="M1310 235 c-7 -9 -19 -14 -27 -11 -15 6 -53 -14 -53 -28 0 -5 8 -2
18 7 10 10 22 17 25 17 9 0 -14 -42 -28 -52 -15 -11 -27 -10 -20 2 3 6 -1 7
-10 4 -14 -6 -14 -8 2 -19 10 -8 15 -17 10 -21 -4 -4 -7 -2 -7 4 0 7 -8 12
-17 11 -11 0 -13 -3 -5 -6 6 -2 12 -11 12 -19 0 -11 -4 -10 -20 3 -14 13 -17
20 -8 30 8 10 6 13 -6 13 -10 0 -14 -5 -10 -11 4 -7 0 -9 -13 -5 -13 4 -26 -2
-41 -19 l-22 -25 23 4 c12 3 26 5 31 5 4 1 6 8 2 16 -8 22 0 19 27 -11 22 -23
27 -25 48 -13 13 7 33 12 44 10 15 -2 17 0 9 9 -13 13 -6 62 7 54 5 -3 8 -8 5
-12 -2 -4 9 -17 24 -30 21 -16 28 -18 26 -7 -2 17 -26 44 -26 30 0 -11 -29 27
-30 39 0 5 8 2 17 -5 15 -12 16 -12 10 3 -4 12 1 23 16 33 12 8 16 15 10 15
-6 0 -16 -7 -23 -15z m-53 -90 c0 -8 -4 -12 -9 -9 -4 3 -8 9 -8 15 0 5 4 9 8
9 5 0 9 -7 9 -15z"/>
<path d="M619 231 c7 -5 11 -13 7 -19 -3 -6 -3 -13 2 -16 4 -2 9 6 10 20 1 17
-3 24 -16 24 -13 0 -14 -2 -3 -9z"/>
<path d="M670 218 c24 -20 24 -20 3 -14 -15 5 -23 3 -23 -4 0 -6 4 -9 9 -5 5
3 13 0 17 -6 4 -8 9 -7 15 2 15 24 10 37 -18 42 l-28 5 25 -20z"/>
<path d="M730 238 c-2 -5 -3 -11 -4 -15 -1 -5 -7 -18 -14 -30 -11 -21 -11 -23
9 -23 17 0 19 3 10 13 -7 10 -7 17 0 24 6 6 9 17 6 25 -3 7 -6 10 -7 6z"/>
<path d="M1368 233 c10 -4 9 -10 -4 -30 -9 -15 -11 -22 -3 -18 9 6 11 3 6 -9
-4 -10 -3 -15 3 -11 6 4 10 12 9 18 -1 7 -1 19 0 27 1 13 2 13 11 0 9 -13 10
-13 10 0 0 13 1 13 10 0 8 -13 10 -12 10 4 0 12 -5 16 -15 13 -8 -4 -17 -2
-20 3 -4 6 -12 10 -18 9 -8 0 -8 -2 1 -6z"/>
<path d="M840 210 c0 -19 3 -21 12 -12 9 9 9 15 0 24 -9 9 -12 7 -12 -12z"/>
<path d="M485 211 c3 -5 -1 -12 -7 -14 -7 -3 -3 -6 10 -6 25 -1 30 14 6 23 -8
3 -13 2 -9 -3z"/>
<path d="M1013 198 c3 -9 1 -20 -5 -26 -6 -6 -6 -12 1 -16 6 -4 11 -4 11 1 0
4 5 1 10 -7 8 -13 10 -12 10 3 0 9 -4 17 -10 17 -5 0 -7 6 -4 14 3 8 0 17 -7
22 -8 5 -11 2 -6 -8z"/>
<path d="M1096 195 c4 -8 2 -15 -4 -15 -6 0 -13 6 -15 13 -4 9 -6 9 -6 -1 -1
-7 6 -15 14 -18 8 -4 12 -10 9 -16 -3 -5 -14 -2 -24 7 -17 16 -18 15 -16 -10
3 -25 2 -26 -35 -20 -27 5 -39 3 -39 -5 0 -7 8 -9 20 -5 14 4 20 2 20 -9 0
-17 -16 -30 -23 -19 -2 5 -2 2 -1 -4 2 -7 -4 -13 -14 -14 -11 0 -13 -2 -4 -6
7 -3 24 5 37 17 13 12 28 19 34 15 6 -3 11 1 11 9 0 14 13 21 23 14 10 -7 36
26 30 36 -4 6 -6 19 -5 29 2 9 -1 17 -7 17 -6 0 -8 -7 -5 -15z"/>
<path d="M1205 200 c-3 -5 -1 -10 4 -10 6 0 11 5 11 10 0 6 -2 10 -4 10 -3 0
-8 -4 -11 -10z"/>
<path d="M528 193 c7 -3 16 -2 19 1 4 3 -2 6 -13 5 -11 0 -14 -3 -6 -6z"/>
<path d="M385 180 c-4 -6 -10 -8 -15 -5 -5 3 -12 0 -16 -6 -4 -8 -3 -9 4 -5 7
4 12 2 12 -3 0 -6 5 -11 12 -11 6 0 8 3 5 7 -4 3 -2 12 4 20 6 7 9 13 6 13 -3
0 -9 -5 -12 -10z"/>
<path d="M782 177 c-8 -10 -6 -13 7 -13 10 0 18 6 18 13 0 17 -12 17 -25 0z"/>
<path d="M820 175 c0 -8 6 -12 14 -9 8 3 16 -3 19 -15 3 -14 0 -21 -9 -21 -8
0 -14 5 -14 10 0 6 -5 10 -12 10 -6 0 -4 -8 6 -19 15 -16 22 -18 36 -9 15 10
16 15 6 32 -19 36 -46 48 -46 21z"/>
<path d="M413 172 c-15 -9 -21 -36 -8 -37 6 0 15 -4 21 -7 7 -5 12 1 12 17 0
28 -9 37 -25 27z"/>
<path d="M557 169 c7 -7 15 -10 18 -7 3 3 -2 9 -12 12 -14 6 -15 5 -6 -5z"/>
<path d="M920 172 c0 -2 12 -18 27 -36 15 -17 24 -23 20 -14 -3 10 -2 20 3 23
21 13 9 32 -20 32 -16 0 -30 -2 -30 -5z"/>
<path d="M350 136 c0 -8 4 -17 9 -20 5 -4 7 3 4 14 -6 23 -13 26 -13 6z"/>
<path d="M565 140 c3 -5 8 -10 11 -10 2 0 4 5 4 10 0 6 -5 10 -11 10 -5 0 -7
-4 -4 -10z"/>
<path d="M373 113 c2 -19 8 -29 22 -30 11 -2 14 0 8 3 -7 3 -13 14 -13 24 0
10 -4 21 -9 25 -6 3 -9 -7 -8 -22z"/>
<path d="M1290 130 c0 -5 5 -10 11 -10 5 0 7 5 4 10 -3 6 -8 10 -11 10 -2 0
-4 -4 -4 -10z"/>
<path d="M414 108 c1 -7 13 -14 27 -16 18 -2 21 -1 9 7 -8 5 -17 8 -21 5 -4
-2 -10 1 -12 6 -3 6 -4 5 -3 -2z"/>
<path d="M821 100 c0 -8 4 -22 9 -30 12 -18 12 -2 0 25 -6 13 -9 15 -9 5z"/>
<path d="M862 90 c0 -14 2 -19 5 -12 2 6 2 18 0 25 -3 6 -5 1 -5 -13z"/>
<path d="M1155 100 c-3 -5 -1 -10 4 -10 6 0 11 5 11 10 0 6 -2 10 -4 10 -3 0
-8 -4 -11 -10z"/>
<path d="M1385 100 c-19 -8 -19 -9 3 -9 12 -1 22 4 22 9 0 6 -1 10 -2 9 -2 0
-12 -4 -23 -9z"/>
<path d="M1097 68 c-4 -14 -2 -17 7 -9 9 7 16 7 23 0 7 -7 12 -6 16 5 4 9 3
16 -1 17 -4 0 -14 2 -24 4 -9 2 -18 -5 -21 -17z"/>
</g>
</svg>
