<?xml version="1.0" standalone="no"?>
<!DOCTYPE svg PUBLIC "-//W3C//DTD SVG 20010904//EN"
 "http://www.w3.org/TR/2001/REC-SVG-20010904/DTD/svg10.dtd">
<svg version="1.0" xmlns="http://www.w3.org/2000/svg"
 width="300.000000pt" height="300.000000pt" viewBox="0 0 300.000000 300.000000"
 preserveAspectRatio="xMidYMid meet">
<metadata>
Created by potrace 1.10, written by Peter Selinger 2001-2011
</metadata>
<g transform="translate(0.000000,300.000000) scale(0.100000,-0.100000)"
fill="#000000" stroke="none">
<path d="M1240 2631 c-25 -25 -61 -79 -80 -118 -19 -39 -38 -69 -42 -67 -4 3
-29 -5 -55 -16 l-48 -21 22 -18 c12 -10 19 -22 15 -26 -4 -3 0 -5 8 -3 8 2 14
-3 12 -10 -1 -8 2 -11 8 -7 6 3 8 11 5 16 -4 5 -1 9 6 9 7 0 4 6 -6 14 -11 8
-25 12 -32 9 -7 -3 -13 -1 -13 5 0 19 33 22 54 5 45 -37 62 -59 59 -73 -3 -10
-2 -11 4 -3 6 9 15 7 33 -7 l25 -20 -30 -1 c-29 -1 -30 -1 -5 -9 14 -4 63 -5
110 -3 94 6 116 6 207 3 46 -1 66 -6 79 -21 9 -10 24 -19 33 -18 11 0 9 3 -5
9 -33 13 -67 91 -46 104 20 12 172 26 228 20 82 -9 91 -15 69 -48 -17 -26 -18
-26 -144 -26 -113 -1 -124 -2 -107 -15 11 -8 28 -13 37 -10 54 18 496 -1 730
-30 102 -13 179 -30 179 -41 0 -16 -27 -54 -46 -65 -13 -7 -24 -16 -24 -20 0
-5 -15 -16 -32 -25 -18 -9 -35 -20 -38 -23 -16 -20 -218 -120 -285 -141 -22
-7 -49 -16 -60 -21 -11 -4 -47 -13 -80 -20 -33 -7 -66 -17 -74 -23 -12 -9 -13
-5 -7 24 4 19 10 65 13 102 5 62 3 68 -21 93 -20 20 -26 36 -26 69 0 53 -18
71 -62 62 -18 -4 -51 -9 -73 -11 -81 -9 -102 -16 -125 -40 -23 -25 -23 -25
-38 -4 -10 15 -21 19 -40 15 -15 -3 -44 -8 -64 -10 -45 -5 -58 -12 -58 -32 0
-12 -4 -12 -27 3 -22 14 -45 17 -137 14 -109 -3 -142 -12 -132 -37 3 -7 -3
-16 -13 -19 -40 -12 -52 -93 -26 -177 17 -57 8 -66 -45 -45 -8 3 -33 8 -55 12
-58 9 -142 34 -200 60 -83 38 -125 54 -125 49 0 -3 34 -21 76 -41 55 -26 72
-38 62 -45 -9 -7 -4 -8 16 -5 17 3 41 0 55 -6 32 -12 26 -11 140 -42 62 -16
98 -22 105 -15 6 6 4 31 -7 70 -21 74 -22 130 -2 156 15 19 15 19 30 0 14 -19
15 -17 15 22 0 29 4 42 14 42 9 0 13 -8 9 -22 l-5 -23 20 22 c17 19 31 22 101
24 77 2 84 0 109 -25 26 -25 26 -28 11 -54 -9 -16 -22 -26 -33 -24 -14 3 -16
-1 -11 -18 l6 -20 -40 21 c-28 14 -54 20 -81 17 -22 -2 -40 -2 -40 0 0 15 37
53 61 61 37 13 56 6 74 -28 8 -14 14 -20 15 -13 0 17 -45 62 -64 62 -32 0 -68
-21 -84 -50 -14 -26 -21 -30 -45 -26 -17 4 -26 2 -22 -4 3 -6 13 -10 22 -10
12 0 13 -3 4 -14 -10 -12 -9 -13 8 -9 12 3 27 -3 40 -16 23 -23 70 -45 79 -37
3 3 -6 10 -20 15 -13 5 -30 16 -37 25 -12 14 -11 16 8 16 11 0 21 -6 21 -14 0
-8 7 -16 15 -20 19 -7 45 3 45 16 0 6 9 8 19 5 37 -9 99 61 85 96 -3 8 0 18 6
22 8 5 8 10 0 20 -9 11 -2 15 37 20 26 3 58 8 71 11 21 4 21 3 10 -17 -9 -15
-10 -23 -2 -26 6 -2 9 -16 6 -32 -6 -41 48 -101 87 -96 19 2 28 -1 28 -11 0
-9 -7 -13 -21 -9 -12 3 -6 -2 12 -10 28 -13 37 -13 65 -2 17 8 38 21 46 31 9
11 21 14 35 10 17 -5 19 -4 9 7 -10 10 -9 15 5 26 15 13 14 13 -8 7 -14 -5
-45 -7 -70 -6 -29 2 -59 -4 -82 -17 -43 -22 -49 -12 -23 39 30 58 80 59 124 4
15 -18 21 -22 21 -11 0 21 -38 56 -68 64 -32 8 -68 -13 -82 -48 -17 -41 -35
-42 -56 -3 l-19 34 43 39 c33 31 54 41 94 46 51 7 53 6 80 -26 15 -18 28 -37
28 -41 0 -4 5 -8 10 -8 16 0 12 14 -15 54 -21 31 -22 36 -7 36 9 0 28 3 41 7
l24 6 -7 -79 c-6 -70 -6 -77 7 -59 13 16 17 17 31 6 21 -17 21 -91 1 -157 -26
-87 -27 -86 73 -59 135 36 227 72 354 137 174 89 289 193 252 228 -32 29 -215
56 -489 71 l-214 13 44 30 c25 17 45 34 45 38 0 4 -19 11 -41 14 -31 5 -43 13
-47 28 -15 56 -96 197 -128 224 l-36 30 -206 0 -207 0 -45 -47z m498 -17 c19
-21 45 -64 59 -94 14 -30 29 -64 35 -74 9 -17 7 -18 -24 -12 -155 32 -494 44
-520 18 -6 -6 -35 -12 -64 -12 -35 0 -59 -6 -75 -19 -24 -18 -49 -18 -49 0 0
6 8 9 17 7 12 -2 30 20 63 78 87 156 73 150 326 149 l197 -1 35 -40z m52 -195
l65 -14 -120 -6 c-66 -3 -149 -10 -185 -14 -53 -6 -76 -3 -127 14 -34 12 -78
21 -98 21 -19 0 -35 5 -35 11 0 16 415 6 500 -12z m-455 -14 c109 -23 128 -33
120 -64 -4 -14 -7 -26 -8 -27 -1 -1 -50 -4 -110 -8 l-107 -6 -45 45 c-25 24
-45 48 -45 54 0 22 101 26 195 6z m195 -75 c10 -18 8 -20 -25 -20 -38 0 -38 0
-29 24 9 22 41 20 54 -4z m-225 -330 c8 -13 -5 -13 -25 0 -13 8 -13 10 2 10 9
0 20 -4 23 -10z m395 0 c0 -5 -4 -10 -10 -10 -5 0 -10 5 -10 10 0 6 5 10 10
10 6 0 10 -4 10 -10z m51 -4 c-14 -17 -75 -40 -66 -26 4 6 13 10 21 10 8 0 14
7 14 15 0 9 9 15 21 15 17 0 19 -3 10 -14z"/>
<path d="M1255 2374 c-16 -8 -21 -12 -10 -8 11 3 43 10 70 14 49 7 49 8 10 8
-22 1 -53 -6 -70 -14z"/>
<path d="M675 2589 c-4 -5 -10 -7 -14 -4 -5 2 -17 -3 -27 -11 -19 -15 -19 -15
1 -9 11 3 16 3 13 -1 -4 -3 3 -15 15 -25 29 -24 20 -24 -27 0 -21 11 -45 17
-53 14 -13 -5 -13 -7 1 -15 9 -5 25 -11 36 -13 10 -2 28 -9 39 -15 15 -8 21
-8 21 0 0 6 5 8 12 4 7 -4 8 -3 4 4 -4 7 -2 12 4 12 6 0 8 5 5 10 -4 6 -11 8
-16 4 -5 -3 -8 0 -7 8 2 7 -3 12 -11 10 -12 -3 -12 0 -1 12 16 20 30 20 30 2
0 -8 10 -22 23 -31 12 -8 22 -21 22 -28 0 -6 6 -12 13 -12 7 0 21 -13 32 -30
11 -16 20 -25 20 -20 0 6 5 3 10 -5 5 -8 10 -10 10 -4 0 5 -13 23 -29 38 -18
17 -27 34 -24 44 5 13 8 12 20 -4 9 -12 13 -14 13 -4 0 9 5 8 16 -6 14 -18 15
-18 4 4 -6 12 -8 33 -5 45 5 16 4 18 -3 8 -8 -11 -12 -10 -21 7 -11 21 -12 21
-30 3 -22 -22 -57 -21 -55 1 1 16 -32 22 -41 7z m125 -23 c0 -2 3 -13 6 -23 6
-16 5 -16 -9 2 -9 11 -17 15 -17 9 0 -5 -6 -18 -13 -28 -12 -16 -13 -16 -13 6
0 13 5 26 10 30 12 8 36 11 36 4z"/>
<path d="M840 2585 c0 -9 4 -13 10 -10 5 3 12 -7 16 -22 10 -46 12 -49 13 -16
1 17 3 37 4 45 2 7 2 10 0 6 -3 -5 -13 -3 -24 2 -15 9 -19 7 -19 -5z"/>
<path d="M917 2587 c-3 -7 1 -21 8 -30 11 -16 13 -16 19 -2 3 9 0 23 -8 30
-11 11 -15 12 -19 2z"/>
<path d="M972 2542 c-14 -48 -37 -79 -46 -64 -3 6 2 19 13 29 21 21 40 70 22
59 -6 -4 -11 -16 -11 -27 0 -24 -16 -25 -29 -1 -10 16 -10 15 -12 -3 -1 -17
-2 -16 -10 5 -7 20 -8 18 -3 -10 4 -19 6 -46 6 -60 0 -14 2 -19 5 -12 7 17 23
15 23 -3 0 -12 4 -13 19 -6 25 14 35 -9 16 -36 -12 -17 -12 -20 1 -20 13 0 18
11 15 30 -1 5 7 6 17 3 26 -9 82 48 82 83 l0 26 -13 -25 c-12 -24 -31 -32 -51
-22 -4 3 -2 8 5 12 10 7 10 12 1 23 -7 7 -10 17 -7 20 3 4 2 4 -2 1 -5 -3 -8
-14 -8 -25 0 -10 -4 -18 -10 -16 -5 1 -8 19 -7 40 5 47 -2 47 -16 -1z m-48
-37 c-4 -8 -8 -15 -10 -15 -2 0 -4 7 -4 15 0 8 4 15 10 15 5 0 7 -7 4 -15z
m62 -17 c5 -7 3 -8 -6 -3 -9 5 -11 4 -6 -4 6 -9 11 -9 22 0 11 9 15 8 20 -5 3
-9 10 -13 16 -10 5 3 4 -3 -4 -15 -7 -12 -14 -17 -16 -11 -2 6 -7 8 -12 5 -4
-3 -13 2 -20 10 -6 7 -18 11 -27 8 -13 -5 -13 -3 -2 16 16 24 25 26 35 9z"/>
<path d="M996 2462 c-3 -5 1 -9 9 -9 8 0 12 4 9 9 -3 4 -7 8 -9 8 -2 0 -6 -4
-9 -8z"/>
<path d="M852 2535 c0 -16 2 -22 5 -12 2 9 2 23 0 30 -3 6 -5 -1 -5 -18z"/>
<path d="M505 2533 c-45 -10 -51 -13 -35 -23 9 -6 19 -5 24 0 13 13 29 13 21
0 -10 -15 2 -12 20 6 15 15 17 15 30 -2 8 -11 15 -14 15 -8 1 27 -28 38 -75
27z"/>
<path d="M418 2504 c-16 -8 -28 -12 -28 -8 0 4 -11 -5 -25 -20 -14 -15 -25
-35 -25 -46 0 -25 27 -50 54 -50 12 0 26 -4 32 -9 5 -6 33 5 72 27 69 40 86
64 20 27 -72 -39 -158 -39 -158 0 0 8 8 19 18 24 13 8 14 11 2 11 -8 0 0 7 19
15 18 8 36 13 40 11 4 -3 13 -1 19 3 10 6 10 10 0 18 -9 8 -21 7 -40 -3z m39
-120 c-3 -3 -12 -4 -19 -1 -8 3 -5 6 6 6 11 1 17 -2 13 -5z"/>
<path d="M867 2485 c-4 -8 -2 -17 3 -20 6 -4 10 -4 10 -1 0 2 3 11 6 20 3 9 2
16 -4 16 -5 0 -12 -7 -15 -15z"/>
<path d="M1107 2481 c-4 -17 -3 -21 5 -13 5 5 8 16 6 23 -3 8 -7 3 -11 -10z"/>
<path d="M835 2470 c10 -11 20 -20 22 -20 2 0 -1 9 -7 20 -6 11 -16 20 -22 20
-6 0 -3 -9 7 -20z"/>
<path d="M627 2433 c4 -11 1 -14 -8 -11 -8 3 -34 -10 -58 -29 -31 -23 -48 -30
-56 -23 -8 6 -18 5 -31 -5 -21 -16 -21 -16 16 -20 14 -1 38 -8 53 -14 28 -11
28 -11 23 23 -4 25 -2 36 10 40 12 5 15 2 10 -11 -4 -12 0 -10 10 5 18 24 36
30 28 9 -3 -8 2 -14 10 -14 11 0 13 5 5 18 -7 13 -5 20 7 27 14 8 14 10 -4 14
-15 4 -19 2 -15 -9z m-70 -78 c0 -8 -6 -15 -14 -15 -14 0 -17 12 -6 23 11 11
20 8 20 -8z"/>
<path d="M688 2443 c6 -2 18 -2 25 0 6 3 1 5 -13 5 -14 0 -19 -2 -12 -5z"/>
<path d="M723 2417 c1 -7 -6 -11 -15 -11 -10 1 -14 -4 -11 -12 6 -16 23 -19
23 -4 0 6 5 10 11 10 5 0 7 -5 3 -12 -4 -7 -3 -8 5 -4 6 4 9 11 7 15 -3 4 9 6
27 4 32 -3 26 1 -25 17 -20 6 -27 5 -25 -3z"/>
<path d="M650 2410 c0 -5 5 -10 10 -10 6 0 10 5 10 10 0 6 -4 10 -10 10 -5 0
-10 -4 -10 -10z"/>
<path d="M828 2403 c7 -3 16 -2 19 1 4 3 -2 6 -13 5 -11 0 -14 -3 -6 -6z"/>
<path d="M993 2383 c0 -15 2 -22 4 -16 4 10 10 10 26 1 21 -11 21 -10 6 12
-23 34 -37 35 -36 3z"/>
<path d="M515 2390 c-3 -5 -2 -10 4 -10 5 0 13 5 16 10 3 6 2 10 -4 10 -5 0
-13 -4 -16 -10z"/>
<path d="M900 2390 c0 -5 5 -10 11 -10 5 0 7 5 4 10 -3 6 -8 10 -11 10 -2 0
-4 -4 -4 -10z"/>
<path d="M810 2375 c-11 -13 -10 -14 4 -9 9 3 16 10 16 15 0 13 -6 11 -20 -6z"/>
<path d="M303 2362 c0 -12 4 -20 7 -19 3 1 16 -5 28 -12 30 -16 81 -26 67 -12
-5 5 -21 11 -34 13 -14 1 -26 9 -29 17 -3 9 2 11 17 7 11 -3 31 -9 42 -12 13
-4 19 -2 15 4 -3 5 -23 12 -45 16 -22 3 -46 9 -55 12 -10 4 -14 0 -13 -14z"/>
<path d="M655 2370 c-4 -6 -10 -8 -15 -5 -5 3 -12 0 -16 -6 -4 -7 -3 -9 4 -5
5 3 12 1 14 -5 2 -6 13 -3 28 10 20 16 22 20 8 21 -9 0 -20 -5 -23 -10z"/>
<path d="M917 2369 c-11 -6 -31 -9 -46 -7 -24 4 -27 1 -23 -16 3 -11 7 -15 10
-8 2 6 14 12 26 12 12 0 31 7 42 15 22 17 17 19 -9 4z"/>
<path d="M695 2353 c-4 -11 0 -11 18 -2 31 16 32 18 8 16 -11 -1 -23 -7 -26
-14z"/>
<path d="M1685 2361 c22 -4 50 -13 63 -19 12 -7 22 -10 22 -8 0 13 -62 36 -92
35 -32 -1 -32 -2 7 -8z"/>
<path d="M593 2343 c-21 -8 -14 -22 8 -18 12 2 33 -2 48 -9 25 -13 50 -13 101
0 22 6 50 8 66 5 3 0 -8 -12 -23 -26 -17 -15 -21 -23 -10 -19 9 3 17 2 17 -4
0 -6 -24 -13 -52 -17 -107 -15 -283 -56 -297 -70 -13 -13 -13 -18 5 -42 31
-42 156 -133 182 -133 3 0 -17 17 -43 38 -26 20 -68 55 -92 77 -50 44 -54 36
32 70 31 13 110 30 180 40 146 20 199 31 203 44 3 9 0 11 -9 5 -8 -4 -20 -9
-29 -10 -8 -1 -27 -5 -42 -9 -16 -4 -28 -3 -28 1 1 11 83 64 98 64 6 0 14 5
17 10 4 7 -3 8 -22 4 -15 -4 -31 -13 -36 -20 -4 -7 -14 -11 -22 -8 -8 4 -12
10 -9 15 3 5 2 9 -3 8 -4 -1 -20 1 -35 5 -18 5 -35 2 -55 -10 -27 -18 -28 -18
-13 0 15 19 14 19 -17 3 -36 -19 -47 -21 -39 -8 4 5 -3 7 -13 4 -10 -3 -27 -1
-37 5 -11 5 -25 7 -31 5z m237 -46 c-14 -8 -27 -12 -30 -10 -7 6 23 23 40 23
8 0 4 -6 -10 -13z"/>
<path d="M943 2327 c-23 -10 -31 -27 -13 -27 6 0 9 -6 8 -12 -2 -8 9 -14 26
-16 41 -5 98 7 90 19 -3 6 -11 6 -17 1 -7 -5 -30 -10 -52 -11 -35 -2 -41 1
-42 19 -1 11 2 18 7 15 5 -3 12 0 15 6 10 16 3 18 -22 6z"/>
<path d="M1035 2317 l-20 -20 25 13 c32 16 33 17 23 23 -4 2 -17 -5 -28 -16z"/>
<path d="M1105 2327 c-14 -11 -15 -16 -5 -22 9 -6 11 -4 5 5 -5 9 -2 10 14 5
16 -5 20 -3 15 9 -7 19 -6 19 -29 3z"/>
<path d="M874 2298 c-19 -21 -19 -21 6 -8 33 17 33 17 22 24 -5 3 -18 -4 -28
-16z"/>
<path d="M983 2310 c-13 -5 -23 -12 -23 -15 0 -9 16 -5 36 10 22 16 19 18 -13
5z"/>
<path d="M736 2301 c-11 -4 -15 -10 -10 -13 5 -4 18 0 29 8 20 15 12 17 -19 5z"/>
<path d="M267 2289 c12 -12 103 -32 111 -25 2 3 -11 10 -29 15 l-34 11 42 -3
c23 -1 39 1 37 5 -3 5 -35 8 -72 8 -48 0 -63 -3 -55 -11z"/>
<path d="M410 2291 c0 -11 20 -15 49 -12 7 2 10 -2 6 -9 -6 -9 -2 -9 14 0 12
6 31 8 41 5 11 -4 20 -2 20 4 0 6 -19 10 -43 9 -24 0 -53 3 -65 6 -13 5 -22 3
-22 -3z"/>
<path d="M1100 2290 c-12 -8 -11 -10 8 -10 12 0 22 5 22 10 0 13 -11 13 -30 0z"/>
<path d="M560 2280 c-9 -6 -10 -10 -3 -10 6 0 15 5 18 10 8 12 4 12 -15 0z"/>
<path d="M1415 2280 c-3 -5 -1 -10 4 -10 6 0 11 5 11 10 0 6 -2 10 -4 10 -3 0
-8 -4 -11 -10z"/>
<path d="M594 2273 c3 -3 22 -7 42 -9 20 -1 33 0 30 3 -3 3 -22 7 -42 9 -20 1
-33 0 -30 -3z"/>
<path d="M398 2253 c7 -3 16 -2 19 1 4 3 -2 6 -13 5 -11 0 -14 -3 -6 -6z"/>
<path d="M434 2249 c-4 -7 59 -19 96 -18 23 0 23 1 5 8 -11 5 -23 7 -27 4 -5
-2 -8 -1 -8 4 0 9 -60 11 -66 2z"/>
<path d="M1486 2035 c-9 -23 -8 -25 9 -25 17 0 19 9 6 28 -7 11 -10 10 -15 -3z"/>
<path d="M1101 2019 c-1 -18 20 -82 25 -77 2 2 -3 24 -11 48 -7 25 -14 38 -14
29z"/>
<path d="M1866 1994 c-4 -14 -5 -28 -3 -31 3 -2 8 8 11 23 4 14 5 28 3 31 -3
2 -8 -8 -11 -23z"/>
<path d="M555 1990 c-18 -20 -18 -20 5 -17 13 2 26 9 28 15 2 7 8 10 13 6 5
-3 9 0 9 5 0 18 -36 12 -55 -9z"/>
<path d="M1801 1943 c-56 -65 -52 -74 6 -12 25 27 44 52 41 55 -3 3 -24 -17
-47 -43z"/>
<path d="M1140 1974 c1 -5 24 -31 52 -59 48 -47 49 -48 21 -10 -35 46 -73 82
-73 69z"/>
<path d="M1315 1970 c-13 -6 -15 -9 -5 -9 8 0 22 4 30 9 18 12 2 12 -25 0z"/>
<path d="M673 1955 c-16 -18 -3 -28 15 -12 13 10 14 8 8 -18 -4 -19 -3 -25 2
-17 5 8 12 13 16 13 3 -1 6 1 6 4 0 3 0 8 0 13 0 4 -8 12 -18 18 -13 8 -20 8
-29 -1z"/>
<path d="M1473 1930 c0 -25 2 -35 4 -22 2 12 2 32 0 45 -2 12 -4 2 -4 -23z"/>
<path d="M521 1934 c-6 -15 -9 -29 -5 -33 4 -3 9 0 11 7 3 6 17 13 31 13 17 1
21 3 10 6 -10 2 -18 9 -18 14 0 6 5 7 12 3 7 -4 8 -3 4 4 -12 20 -32 13 -45
-14z"/>
<path d="M580 1952 c0 -15 28 -23 36 -9 4 7 4 9 -1 5 -4 -4 -14 -3 -22 3 -8 7
-13 8 -13 1z"/>
<path d="M1512 1925 c0 -16 2 -22 5 -12 2 9 2 23 0 30 -3 6 -5 -1 -5 -18z"/>
<path d="M740 1930 c0 -5 5 -10 11 -10 5 0 7 5 4 10 -3 6 -8 10 -11 10 -2 0
-4 -4 -4 -10z"/>
<path d="M640 1910 c-9 -6 -10 -10 -3 -10 6 0 15 5 18 10 8 12 4 12 -15 0z"/>
<path d="M555 1900 c20 -9 20 -9 0 -10 -26 -3 -27 -3 -48 5 -10 4 -17 4 -15
-1 1 -5 -3 -19 -10 -31 -7 -13 -10 -23 -7 -23 4 0 0 -6 -8 -14 -8 -8 -13 -25
-12 -38 1 -13 3 -31 4 -40 2 -34 38 -41 85 -17 38 19 46 28 56 68 19 75 20 83
9 100 -9 14 -10 14 -5 -2 3 -9 -4 -43 -16 -75 -12 -31 -21 -60 -20 -64 1 -4
-5 -5 -13 -2 -8 4 -15 1 -15 -5 0 -6 -13 -11 -29 -11 -22 0 -30 5 -33 24 -3
13 1 31 8 41 7 10 11 21 9 26 -6 8 38 41 68 52 22 8 13 27 -11 26 -14 0 -13
-2 3 -9z"/>
<path d="M740 1895 c0 -8 2 -15 4 -15 2 0 6 7 10 15 3 8 1 15 -4 15 -6 0 -10
-7 -10 -15z"/>
<path d="M670 1889 c0 -5 -5 -7 -10 -4 -6 4 -9 3 -8 -2 1 -4 -1 -30 -6 -56 -6
-38 -10 -46 -20 -37 -10 8 -15 6 -19 -10 -7 -27 13 -26 43 3 14 12 26 21 27
20 2 -2 6 -2 11 -2 4 1 13 2 21 3 7 0 20 12 28 26 l15 25 -21 -25 c-21 -24
-22 -25 -36 -6 -8 11 -18 16 -22 12 -4 -4 -1 -11 6 -15 9 -6 10 -11 2 -15 -6
-4 -14 -1 -17 8 -9 23 0 61 13 59 7 -2 10 4 7 12 -7 17 -14 20 -14 4z"/>
<path d="M756 1877 c-19 -20 -18 -20 10 -13 16 4 38 8 50 9 11 0 21 6 21 12 0
19 -61 13 -81 -8z"/>
<path d="M631 1858 c0 -9 -4 -25 -7 -35 -5 -14 -4 -15 5 -7 7 7 11 22 8 35 -2
13 -5 16 -6 7z"/>
<path d="M696 1862 c-3 -5 1 -9 9 -9 8 0 15 4 15 9 0 4 -4 8 -9 8 -6 0 -12 -4
-15 -8z"/>
<path d="M876 1844 c-9 -24 -2 -26 12 -4 7 11 8 20 3 20 -5 0 -12 -7 -15 -16z"/>
<path d="M910 1840 c0 -11 -4 -20 -10 -20 -5 0 -10 -5 -10 -11 0 -5 5 -7 12
-3 7 4 8 3 4 -5 -6 -9 -11 -9 -22 0 -11 9 -14 8 -15 -2 0 -8 -4 -5 -10 6 -9
20 -9 20 -6 0 2 -11 9 -19 16 -17 8 2 11 -3 8 -12 -11 -28 3 -22 49 20 31 29
51 41 62 36 15 -5 15 -4 -1 12 -17 18 -18 17 -36 -3 -23 -26 -34 -27 -26 -1 4
11 2 20 -4 20 -6 0 -11 -9 -11 -20z"/>
<path d="M1139 1841 c10 -18 8 -25 -15 -46 -30 -28 -40 -31 -47 -12 -4 9 -6 9
-6 0 -2 -19 17 -25 39 -11 18 11 23 10 36 -6 8 -11 14 -32 14 -48 0 -21 -6
-29 -24 -34 -14 -3 -30 -3 -36 1 -9 6 -9 2 0 -14 11 -21 13 -21 36 -6 24 16
32 9 14 -13 -6 -8 -5 -7 4 0 24 22 27 62 7 101 -10 19 -15 40 -11 46 9 15 43
-56 47 -99 6 -54 11 -60 12 -13 1 40 -47 155 -71 169 -6 4 -5 -3 1 -15z"/>
<path d="M1824 1833 c-4 -15 -16 -42 -26 -60 -11 -18 -18 -40 -15 -50 3 -13 5
-11 6 7 1 17 4 21 9 12 6 -9 12 -5 20 13 9 20 9 24 1 19 -8 -4 -9 -3 -5 4 7
11 31 7 53 -10 14 -11 33 -2 33 15 0 7 -4 6 -10 -3 -7 -12 -12 -11 -32 5 -13
11 -24 20 -26 21 -1 1 2 13 7 28 7 16 7 26 1 26 -5 0 -13 -12 -16 -27z"/>
<path d="M818 1812 c7 -5 10 -17 6 -28 -11 -36 -27 -63 -34 -59 -3 2 -11 -5
-18 -16 -11 -17 -6 -16 40 8 66 33 61 29 52 44 -5 9 -11 7 -21 -7 -13 -17 -14
-16 -11 20 2 28 -1 40 -12 43 -11 3 -12 2 -2 -5z"/>
<path d="M1402 1801 c2 -8 19 -15 37 -17 23 -3 31 0 29 8 -6 18 -48 23 -48 6
0 -10 -3 -9 -11 2 -8 11 -10 12 -7 1z"/>
<path d="M1527 1803 c-15 -15 -5 -22 30 -20 22 2 38 9 41 17 3 13 2 13 -8 0
-9 -11 -13 -12 -17 -2 -5 13 -35 17 -46 5z"/>
<path d="M765 1757 c-32 -56 -91 -87 -113 -59 -11 14 -7 21 23 49 19 17 31 34
26 37 -11 7 -81 -69 -81 -88 0 -32 27 -39 78 -21 40 15 53 26 76 67 35 62 27
76 -9 15z"/>
<path d="M1488 1783 c7 -3 16 -2 19 1 4 3 -2 6 -13 5 -11 0 -14 -3 -6 -6z"/>
<path d="M796 1753 c-6 -14 -5 -15 5 -6 7 7 10 15 7 18 -3 3 -9 -2 -12 -12z"/>
<path d="M1066 1734 c-7 -18 0 -34 15 -34 12 0 12 37 0 44 -5 3 -12 -1 -15
-10z"/>
<path d="M1886 1742 c-3 -6 0 -13 6 -15 10 -4 10 -6 1 -6 -7 -1 -13 -5 -13
-11 0 -15 17 -12 23 3 7 18 -8 43 -17 29z"/>
<path d="M1801 1694 c-1 -19 6 -37 17 -45 14 -11 15 -11 5 1 -21 23 -15 31 11
15 23 -15 25 -15 36 6 9 16 9 20 0 14 -18 -11 -58 3 -63 23 -3 9 -5 3 -6 -14z"/>
<path d="M1387 1661 c-51 -30 -51 -46 -1 -31 16 4 22 9 14 9 -11 1 -9 5 5 15
22 14 132 15 175 0 l25 -8 -25 -7 c-23 -6 -22 -7 8 -8 l33 -1 -26 -34 c-50
-66 -131 -70 -191 -8 -19 19 -34 31 -34 25 0 -5 15 -24 33 -41 61 -59 157 -52
197 14 12 18 28 37 35 42 10 5 -2 16 -41 37 -46 25 -57 28 -74 17 -15 -9 -26
-10 -40 -2 -27 15 -40 12 -93 -19z"/>
<path d="M1768 1668 c0 -13 0 -32 1 -43 1 -11 -5 -24 -12 -30 -8 -5 -24 -39
-36 -75 -39 -114 -104 -159 -227 -160 -59 0 -81 5 -124 28 -29 15 -57 34 -61
42 -8 15 -52 112 -80 178 -15 34 -39 43 -39 14 0 -38 -37 -54 -64 -26 -14 14
-16 14 -16 0 0 -9 12 -19 26 -22 34 -9 78 11 70 32 -3 8 -2 12 3 9 5 -3 15
-22 21 -43 7 -20 23 -57 36 -81 20 -37 24 -57 24 -137 l0 -93 -35 -7 c-20 -3
-34 -9 -31 -11 3 -3 21 -2 41 1 l35 7 0 79 c0 47 4 80 10 80 6 0 10 -4 10 -10
0 -19 90 -61 144 -67 80 -8 141 12 199 65 l47 45 0 -97 c0 -77 3 -96 15 -96 7
0 18 6 22 14 4 8 17 16 28 18 19 5 19 5 1 13 -14 6 -24 2 -38 -14 -18 -23 -18
-21 -18 96 0 65 4 123 9 129 5 5 14 25 20 45 12 36 13 37 42 26 31 -12 61 -2
65 21 1 7 0 8 -3 2 -2 -5 -9 -8 -14 -4 -5 3 -9 0 -9 -5 0 -6 -7 -11 -15 -11
-20 0 -39 39 -36 78 1 17 -1 32 -4 32 -3 0 -6 -10 -7 -22z"/>
<path d="M1881 1648 c-1 -10 -6 -18 -12 -18 -5 0 -7 -5 -3 -11 9 -15 28 16 20
34 -2 7 -5 4 -5 -5z"/>
<path d="M1080 1643 c0 -15 18 -35 23 -27 3 5 -1 15 -9 22 -8 7 -14 9 -14 5z"/>
<path d="M1460 1623 c0 -18 65 -17 79 1 9 11 3 13 -34 12 -28 -1 -45 -6 -45
-13z"/>
<path d="M1449 1598 c18 -24 93 -25 112 -1 13 15 12 15 -8 5 -29 -16 -85 -15
-103 1 -12 10 -12 9 -1 -5z"/>
<path d="M2255 1588 c-2 -7 -6 -31 -9 -53 -2 -22 -2 -32 0 -22 3 9 12 17 20
17 12 0 12 -4 4 -20 -9 -16 -8 -18 5 -14 19 8 19 19 -1 49 -9 14 -14 32 -10
40 3 8 3 15 0 15 -2 0 -6 -6 -9 -12z"/>
<path d="M2187 1583 c-4 -7 -7 -27 -5 -45 1 -27 6 -33 24 -33 16 0 25 7 29 24
3 13 4 26 0 29 -3 3 -6 -3 -6 -14 -1 -12 -4 -7 -9 11 l-8 30 -2 -35 -3 -35 -6
40 c-4 25 -9 35 -14 28z"/>
<path d="M2113 1525 c6 -30 14 -55 19 -55 11 0 10 5 -4 54 -17 63 -26 63 -15
1z"/>
<path d="M2296 1565 c-7 -20 4 -74 17 -82 6 -4 8 0 4 9 -3 9 -3 19 1 22 3 4 6
16 7 28 2 20 1 20 -13 2 -13 -18 -14 -17 -8 9 7 29 2 37 -8 12z"/>
<path d="M2081 1563 c-1 -6 3 -23 9 -37 14 -37 -5 -32 -20 4 -7 17 -15 28 -17
26 -9 -8 37 -94 53 -100 8 -3 13 -2 10 2 -3 5 -8 23 -11 39 -6 37 -23 83 -24
66z"/>
<path d="M808 1528 l5 -33 -21 25 -21 25 0 -30 c0 -25 2 -26 8 -10 7 18 8 17
14 -7 4 -14 13 -28 21 -31 11 -4 13 3 9 36 -3 23 -9 46 -13 50 -3 4 -5 -7 -2
-25z"/>
<path d="M2142 1540 c-1 -14 1 -36 5 -48 7 -29 23 -10 22 28 0 23 -1 23 -9 5
-7 -18 -8 -16 -12 10 -4 26 -5 27 -6 5z"/>
<path d="M831 1533 c-1 -32 17 -75 29 -68 5 3 9 21 9 38 l-1 32 -8 -30 -7 -30
-7 30 c-12 47 -14 52 -15 28z"/>
<path d="M952 1533 c-6 -10 -13 -34 -17 -53 -10 -50 10 -26 23 28 11 45 9 53
-6 25z"/>
<path d="M983 1535 c-7 -8 -17 -32 -22 -54 -8 -39 -8 -40 22 -50 36 -13 45 -8
26 16 -13 16 -12 17 4 4 20 -15 23 -2 5 19 -11 12 -10 12 2 3 13 -10 18 -8 29
10 8 12 10 19 6 15 -5 -4 -15 -2 -24 5 -14 11 -15 10 -1 -7 14 -18 13 -19 -2
-13 -13 4 -22 -1 -32 -21 -17 -30 -17 -29 -20 11 -2 19 1 26 9 23 9 -3 11 3 8
17 -4 18 -3 19 6 7 12 -17 15 -2 3 16 -5 9 -10 8 -19 -1z"/>
<path d="M2369 1522 c-6 -17 -15 -29 -20 -26 -5 3 -9 1 -9 -5 0 -12 19 -25 26
-18 5 5 11 29 13 50 1 5 6 5 12 2 6 -4 8 -14 5 -22 -4 -9 -1 -23 6 -31 11 -13
10 -15 -4 -9 -10 3 -20 2 -23 -4 -4 -5 -3 -9 2 -8 27 5 35 -1 23 -16 -10 -13
-11 -18 -1 -28 12 -12 34 8 62 56 9 16 8 17 -10 5 -11 -6 -18 -15 -16 -19 3
-3 -4 -14 -15 -24 -21 -19 -28 -7 -8 13 7 7 8 12 3 12 -4 0 0 9 10 20 14 16
16 23 7 32 -7 7 -12 8 -12 3 0 -6 -9 3 -20 20 l-19 30 -12 -33z m53 -31 c8 11
9 11 6 1 -4 -16 -22 -18 -24 -2 -2 7 -1 6 3 -1 4 -8 8 -7 15 2z"/>
<path d="M736 1524 c-4 -9 -3 -32 0 -52 5 -27 9 -31 16 -19 5 9 15 14 23 11
10 -4 15 0 15 10 0 14 -4 15 -20 6 -18 -10 -19 -8 -14 19 6 31 -10 51 -20 25z
m11 -26 c-3 -8 -6 -5 -6 6 -1 11 2 17 5 13 3 -3 4 -12 1 -19z"/>
<path d="M1819 1538 c-6 -12 -4 -46 2 -42 4 2 5 12 2 20 -5 13 -1 15 15 10 11
-4 23 -2 27 4 4 6 -4 10 -19 10 -14 0 -27 -1 -27 -2z"/>
<path d="M1888 1517 c-3 -19 -2 -25 4 -19 6 6 8 18 6 28 -3 14 -5 12 -10 -9z"/>
<path d="M887 1523 c-4 -3 -7 -20 -6 -37 l1 -31 8 35 c9 36 8 45 -3 33z"/>
<path d="M2017 1515 c-6 -15 10 -32 20 -21 4 3 1 6 -7 6 -10 0 -10 3 0 15 7 9
8 15 2 15 -5 0 -12 -7 -15 -15z"/>
<path d="M920 1501 c0 -7 -4 -9 -10 -6 -5 3 -10 -3 -10 -14 0 -12 4 -21 9 -21
12 0 25 39 17 47 -3 4 -6 1 -6 -6z"/>
<path d="M1781 1494 c0 -11 3 -14 6 -6 3 7 2 16 -1 19 -3 4 -6 -2 -5 -13z"/>
<path d="M687 1476 c3 -14 10 -26 15 -26 5 0 6 -5 3 -11 -5 -7 -15 -3 -30 11
-27 25 -37 15 -29 -28 6 -28 8 -30 27 -19 12 7 29 19 39 28 17 15 17 17 -6 44
l-24 27 5 -26z m-17 -36 c6 -11 8 -20 6 -20 -3 0 -10 9 -16 20 -6 11 -8 20 -6
20 3 0 10 -9 16 -20z"/>
<path d="M1865 1480 c6 -10 4 -12 -8 -7 -10 3 -17 2 -17 -3 0 -13 27 -13 35
-1 3 5 0 13 -6 17 -8 5 -9 3 -4 -6z"/>
<path d="M1975 1480 c10 -16 -15 -22 -33 -8 -10 8 -8 1 7 -20 12 -18 27 -30
32 -26 6 4 6 11 -2 20 -6 8 -10 14 -8 15 31 6 40 6 45 -2 3 -5 2 -9 -3 -8 -22
4 -24 -3 -7 -22 10 -12 18 -23 17 -25 -2 -2 -2 -7 -2 -11 1 -5 4 6 8 22 4 17
12 29 19 28 7 -2 12 2 12 8 0 5 5 7 11 3 7 -4 7 2 -1 17 -11 20 -14 21 -25 6
-8 -11 -15 -13 -22 -6 -12 12 -55 21 -48 9z"/>
<path d="M1048 1458 c-20 -32 -29 -58 -19 -58 15 0 36 32 36 57 1 28 1 28 -17
1z"/>
<path d="M1095 1460 c-4 -6 -11 -7 -17 -4 -7 4 -8 2 -4 -4 4 -6 -1 -23 -10
-37 -9 -14 -14 -29 -10 -32 11 -12 54 38 54 63 0 26 -3 29 -13 14z m-5 -39
c-5 -11 -15 -23 -21 -27 -6 -3 -3 5 6 20 20 30 30 35 15 7z"/>
<path d="M2464 1437 c-11 -12 -26 -31 -34 -41 -14 -18 -14 -19 6 -8 22 11 59
60 52 68 -3 2 -13 -6 -24 -19z"/>
<path d="M1767 1430 c3 -11 7 -20 9 -20 2 0 4 9 4 20 0 11 -4 20 -9 20 -5 0
-7 -9 -4 -20z"/>
<path d="M1801 1433 c-18 -19 -10 -25 12 -8 10 7 15 15 10 18 -4 3 -14 -2 -22
-10z"/>
<path d="M605 1433 c3 -7 1 -13 -6 -13 -6 0 -3 -8 8 -17 10 -10 14 -15 9 -10
-13 9 -26 9 -26 -1 0 -5 10 -13 23 -19 21 -10 23 -8 22 17 0 16 -2 27 -4 24
-2 -2 -10 4 -18 14 -8 9 -12 11 -8 5z"/>
<path d="M1893 1423 c0 -9 13 -23 29 -32 45 -26 42 -39 -7 -34 -28 4 -45 1
-50 -7 -5 -9 -4 -11 3 -6 6 4 21 2 33 -5 15 -8 19 -8 15 0 -8 12 6 15 17 4 4
-3 -10 -17 -31 -29 -23 -15 -31 -23 -19 -24 9 0 17 5 17 10 0 6 5 10 10 10 6
0 9 -5 8 -11 -2 -6 2 -13 9 -16 8 -3 11 3 8 17 -3 16 0 20 10 16 9 -3 12 0 8
10 -3 8 1 14 11 14 9 0 13 6 10 15 -4 9 2 18 17 24 13 5 18 10 10 10 -8 1 -25
10 -37 22 -18 17 -22 18 -27 5 -4 -10 -1 -13 7 -10 7 3 19 -3 27 -13 13 -16
12 -17 -2 -5 -9 7 -23 11 -30 10 -8 -2 -13 2 -12 8 1 5 -6 15 -16 21 -14 9
-18 8 -18 -4z"/>
<path d="M1101 1396 c-27 -28 -30 -34 -18 -51 11 -14 16 -15 22 -5 6 9 4 11
-6 5 -20 -12 7 21 44 55 26 23 27 26 9 27 -11 1 -34 -13 -51 -31z m39 9 c-7
-8 -17 -15 -22 -15 -6 0 -5 7 2 15 7 8 17 15 22 15 6 0 5 -7 -2 -15z"/>
<path d="M1986 1421 c-4 -5 -2 -12 3 -15 5 -4 12 -2 15 3 4 5 2 12 -3 15 -5 4
-12 2 -15 -3z"/>
<path d="M2510 1411 c-8 -6 -19 -7 -25 -3 -5 3 -4 -1 2 -10 13 -15 8 -28 -9
-28 -5 0 -6 5 -2 12 4 7 3 8 -5 4 -17 -11 -2 -28 18 -21 12 3 18 0 18 -10 0
-8 -3 -15 -7 -15 -4 0 -7 -6 -7 -14 0 -15 21 -11 45 7 19 15 15 38 -5 30 -16
-6 -17 -5 -3 13 14 17 14 18 -2 6 -13 -10 -17 -10 -20 0 -3 7 2 18 11 25 19
14 13 17 -9 4z m24 -72 c-8 -14 -21 -11 -21 5 0 8 6 12 14 9 7 -3 10 -9 7 -14z"/>
<path d="M1140 1377 c-25 -22 -31 -39 -17 -53 4 -4 7 -2 7 5 0 6 10 16 23 21
20 8 20 9 2 10 -19 1 -19 2 4 20 13 11 19 20 15 20 -5 0 -20 -11 -34 -23z"/>
<path d="M590 1362 c0 -5 7 -13 16 -16 10 -4 14 -1 12 6 -5 15 -28 23 -28 10z"/>
<path d="M548 1353 c6 -2 9 -10 6 -15 -4 -6 -2 -8 3 -5 6 4 14 0 17 -9 8 -22
-1 -31 -16 -16 -7 7 -17 12 -22 12 -6 0 -4 -5 4 -10 12 -8 12 -10 -5 -11 -11
0 -14 -3 -7 -6 6 -2 12 -9 12 -14 0 -6 -4 -8 -9 -5 -5 4 -8 -2 -6 -11 2 -10 4
-24 4 -30 2 -21 15 -14 29 14 9 20 9 24 0 15 -19 -19 -29 -14 -16 7 7 11 20
22 30 24 10 3 18 13 18 22 0 9 5 13 10 10 6 -3 10 -4 10 -1 0 7 -56 36 -67 35
-4 0 -2 -3 5 -6z"/>
<path d="M1173 1347 c-18 -6 -33 -14 -33 -18 0 -12 43 -1 59 16 8 8 13 14 11
14 -3 -1 -20 -7 -37 -12z"/>
<path d="M1868 1323 c7 -3 16 -2 19 1 4 3 -2 6 -13 5 -11 0 -14 -3 -6 -6z"/>
<path d="M2520 1310 c-13 -8 -12 -10 3 -10 10 0 16 -4 12 -9 -8 -14 7 -20 30
-10 17 6 17 8 3 8 -11 1 -15 6 -12 16 7 17 -13 20 -36 5z"/>
<path d="M1123 1288 c-17 -19 -17 -19 12 -12 17 4 44 12 60 19 l30 12 -42 0
c-29 0 -48 -6 -60 -19z"/>
<path d="M1190 1276 c0 -2 9 -6 20 -9 11 -3 20 -1 20 4 0 5 -9 9 -20 9 -11 0
-20 -2 -20 -4z"/>
<path d="M1880 1270 c0 -5 9 -10 21 -10 11 0 18 -4 14 -10 -4 -6 -15 -6 -30 0
-14 5 -25 6 -25 1 0 -5 7 -12 16 -15 9 -3 12 -11 8 -18 -5 -9 -3 -9 9 1 15 11
17 11 17 -1 0 -8 -10 -20 -22 -26 -22 -10 -22 -11 -3 -12 20 -1 20 -1 1 -15
-17 -13 -18 -15 -3 -15 27 0 32 4 29 23 -2 10 2 25 8 33 7 8 10 14 6 14 -3 0
-1 12 4 26 6 15 6 23 1 19 -5 -3 -12 -1 -16 5 -8 13 -35 13 -35 0z"/>
<path d="M1120 1261 c-23 -6 -23 -8 -6 -14 11 -4 22 -4 25 2 3 5 15 11 26 14
20 5 20 5 0 5 -11 0 -31 -3 -45 -7z"/>
<path d="M2539 1255 c-1 -3 -2 -23 -3 -45 -1 -41 7 -48 34 -30 13 8 12 10 -2
10 -10 0 -18 5 -18 11 0 5 4 8 9 4 5 -3 12 -1 16 5 3 5 -2 10 -12 11 -16 0
-16 1 2 9 20 9 20 9 0 10 -20 1 -20 1 0 10 19 8 19 9 -2 9 -13 1 -23 -1 -24
-4z"/>
<path d="M1155 1240 c3 -5 -2 -10 -12 -11 -15 0 -15 -2 3 -11 15 -7 28 -7 40
1 15 8 16 11 4 11 -10 1 -9 4 5 10 17 7 14 9 -13 9 -20 1 -31 -3 -27 -9z"/>
<path d="M505 1210 c-4 -6 3 -10 14 -10 25 0 27 6 6 13 -8 4 -17 2 -20 -3z"/>
<path d="M1647 1135 c-20 -41 -37 -78 -37 -83 0 -4 -21 -37 -46 -73 -45 -64
-75 -113 -57 -94 45 47 199 233 172 208 -19 -18 -38 -33 -42 -33 -8 0 20 74
46 118 10 17 15 32 10 32 -5 0 -26 -34 -46 -75z"/>
<path d="M1838 1203 c6 -2 18 -2 25 0 6 3 1 5 -13 5 -14 0 -19 -2 -12 -5z"/>
<path d="M1157 1193 c-18 -17 -5 -33 26 -32 23 1 26 3 10 6 -13 2 -23 8 -23
13 0 5 10 11 23 13 20 4 20 4 -4 6 -14 0 -29 -2 -32 -6z"/>
<path d="M506 1181 c-4 -5 2 -7 13 -4 10 3 22 0 25 -6 4 -6 1 -9 -7 -5 -8 3
-17 -1 -20 -9 -3 -9 2 -17 14 -20 10 -3 17 -1 14 3 -3 5 -1 11 4 15 6 3 8 12
4 20 -6 16 -39 20 -47 6z"/>
<path d="M2530 1156 c0 -3 7 -12 17 -21 9 -9 12 -20 7 -23 -15 -11 -33 -49
-27 -56 15 -15 31 -5 26 15 -4 14 0 26 11 35 12 8 14 14 6 19 -8 5 -8 11 1 21
9 11 7 14 -15 14 -14 0 -26 -2 -26 -4z"/>
<path d="M1160 1140 c11 -7 11 -10 2 -10 -7 0 -10 -5 -7 -10 5 -8 11 -7 21 1
12 10 12 14 2 20 -7 5 -17 9 -23 9 -5 0 -3 -5 5 -10z"/>
<path d="M1532 1103 c-10 -34 -10 -36 3 -19 13 17 21 56 12 56 -2 0 -9 -17
-15 -37z"/>
<path d="M1883 1132 c4 -13 -55 -62 -67 -55 -6 3 -8 3 -4 -2 5 -5 -1 -15 -12
-22 -11 -8 -17 -19 -14 -25 5 -8 1 -9 -10 -5 -13 5 -19 1 -23 -11 -3 -14 -11
-18 -30 -14 -18 3 -24 1 -19 -7 4 -6 -1 -14 -13 -19 -17 -6 -18 -9 -6 -25 8
-12 15 -14 20 -8 3 6 3 11 0 11 -4 0 0 7 9 15 8 8 20 15 26 15 18 0 70 47 62
55 -4 4 0 6 8 3 18 -5 103 78 95 93 -7 11 -26 12 -22 1z"/>
<path d="M510 1126 c0 -2 7 -7 16 -10 8 -3 12 -2 9 4 -6 10 -25 14 -25 6z"/>
<path d="M1475 1090 c9 -16 17 -30 19 -30 3 0 -1 14 -7 30 -6 17 -15 30 -19
30 -5 0 -2 -13 7 -30z"/>
<path d="M521 1086 c-8 -10 -9 -16 -1 -21 5 -3 10 -1 10 5 0 7 7 10 14 7 10
-4 13 -1 9 9 -7 18 -17 18 -32 0z"/>
<path d="M1150 1089 c0 -5 -6 -7 -12 -3 -10 6 -10 5 -1 -8 7 -8 10 -18 6 -21
-3 -4 2 -9 11 -13 9 -3 13 -10 10 -15 -3 -5 2 -6 10 -3 11 4 16 0 16 -10 0 -9
5 -16 11 -16 7 0 19 -9 29 -20 15 -18 19 -18 30 -5 8 10 9 15 2 15 -6 0 -25
12 -41 28 -16 15 -37 33 -46 40 -12 11 -13 17 -4 28 9 11 8 14 -5 14 -9 0 -16
-5 -16 -11z"/>
<path d="M530 1050 c-12 -7 -12 -10 -1 -10 7 0 11 -6 7 -15 -3 -8 0 -15 6 -15
7 0 6 -5 -2 -15 -14 -17 0 -21 17 -4 13 13 5 49 -11 49 -6 0 -4 5 4 10 8 5 11
10 5 10 -5 0 -17 -5 -25 -10z"/>
<path d="M1537 998 c-54 -83 -90 -148 -84 -154 2 -3 26 32 52 78 27 46 55 93
63 106 8 12 12 22 9 22 -3 0 -21 -24 -40 -52z"/>
<path d="M2504 1038 c-5 -7 -2 -9 9 -5 17 6 32 -19 17 -28 -6 -4 -10 -1 -10 4
0 6 -5 11 -11 11 -6 0 -9 -6 -6 -12 2 -7 -4 -22 -14 -34 -19 -20 -19 -21 2
-19 13 1 29 16 42 39 19 32 19 38 7 46 -20 13 -27 12 -36 -2z"/>
<path d="M545 970 c-3 -5 1 -10 9 -10 9 0 13 -7 11 -20 -6 -31 35 -64 50 -40
3 6 -1 7 -10 4 -11 -5 -14 -2 -8 12 5 14 3 16 -12 11 -14 -6 -15 -5 -7 5 7 9
7 18 -2 31 -15 19 -22 21 -31 7z"/>
<path d="M1271 971 c-9 -6 -6 -13 13 -28 14 -11 22 -23 18 -27 -3 -4 1 -4 11
0 11 4 17 1 17 -7 0 -10 3 -10 12 -1 9 9 8 15 -8 27 -10 8 -24 13 -31 10 -7
-2 -10 2 -7 9 7 18 -8 27 -25 17z"/>
<path d="M1637 932 c-10 -10 -14 -23 -10 -27 5 -5 1 -4 -8 3 -14 10 -19 8 -33
-12 -9 -14 -16 -30 -16 -36 0 -5 -3 -9 -7 -8 -15 3 -43 -14 -37 -23 3 -5 0 -9
-6 -9 -6 0 -8 -4 -5 -10 9 -14 19 -12 42 8 21 18 37 50 34 67 0 6 10 -3 25
-20 22 -25 24 -26 14 -6 -11 22 -10 27 9 43 14 10 20 22 15 30 -4 7 2 5 14 -5
20 -18 20 -18 15 2 -7 26 -25 27 -46 3z"/>
<path d="M2422 892 c-23 -26 -42 -54 -41 -62 0 -10 2 -11 6 -2 2 6 9 10 14 7
5 -4 6 2 2 12 -6 16 -5 17 12 3 17 -14 17 -13 10 9 -5 16 -4 21 4 17 6 -4 11
-2 11 4 0 6 4 9 9 6 5 -3 8 2 7 12 0 11 5 16 15 14 9 -1 19 4 22 11 12 31 -32
12 -71 -31z"/>
<path d="M1354 908 c-4 -6 6 -23 24 -39 18 -16 32 -34 32 -40 0 -8 5 -8 15 1
12 10 13 16 4 27 -7 7 -14 11 -17 8 -7 -6 -33 15 -28 24 2 3 -2 12 -10 18 -10
10 -15 10 -20 1z"/>
<path d="M610 875 c-9 -11 -9 -15 -1 -15 7 0 10 -4 7 -8 -2 -4 4 -13 15 -20
14 -9 19 -9 19 0 0 6 3 8 8 4 7 -7 8 -11 11 -37 1 -8 5 -8 16 1 12 10 10 15
-14 36 -16 13 -34 24 -41 24 -7 0 -10 7 -6 15 3 8 4 15 2 15 -2 0 -9 -7 -16
-15z"/>
<path d="M2334 818 c-16 -12 -31 -25 -34 -28 -3 -4 -13 -9 -22 -13 -12 -4 -15
-12 -11 -24 6 -16 5 -16 -10 -4 -11 9 -17 10 -17 2 0 -6 -3 -10 -7 -9 -5 1
-21 -4 -36 -10 -16 -7 -33 -10 -38 -6 -5 3 -9 -1 -9 -9 0 -9 -9 -14 -22 -13
-13 1 -29 -2 -35 -7 -7 -5 -13 -6 -13 -2 0 5 -9 0 -19 -9 -11 -10 -38 -20 -61
-23 -23 -3 -44 -12 -47 -19 -3 -8 -14 -14 -24 -14 -12 0 -19 -7 -19 -20 0 -11
5 -20 10 -20 6 0 10 5 10 10 0 6 9 10 20 10 13 0 20 7 20 20 0 11 5 20 11 20
5 0 8 -4 4 -9 -3 -5 -1 -12 4 -15 5 -3 12 1 15 10 4 9 13 14 21 10 8 -3 24 5
36 17 12 12 19 17 15 10 -4 -7 1 -9 13 -6 13 3 18 11 14 21 -3 13 -1 13 11 -2
9 -11 16 -14 16 -7 0 7 5 9 10 6 6 -3 13 1 16 10 6 13 8 14 15 3 7 -10 9 -11
9 0 0 7 5 10 10 7 6 -3 10 -2 10 4 0 12 37 26 79 30 8 1 11 7 7 17 -3 8 -2 12
4 9 6 -3 10 -1 10 5 0 6 5 8 12 4 7 -5 8 -3 4 5 -5 8 -3 12 5 10 35 -4 42 0
28 18 -12 14 -12 16 2 11 10 -4 16 -1 16 8 0 18 1 18 -33 -8z"/>
<path d="M1438 825 c-3 -3 -4 -15 -1 -26 4 -15 8 -17 19 -8 15 13 19 34 5 25
-5 -4 -11 -1 -13 5 -2 5 -6 7 -10 4z"/>
<path d="M694 789 c-8 -14 -1 -20 25 -22 11 -1 21 -5 21 -10 0 -4 5 -5 10 -2
18 11 11 23 -20 33 -20 7 -32 7 -36 1z"/>
<path d="M1495 789 c-4 -6 -13 -8 -21 -5 -8 3 -14 2 -14 -3 0 -5 9 -11 20 -14
11 -3 20 -1 20 5 0 6 7 8 14 5 10 -4 13 -1 9 9 -6 17 -19 18 -28 3z"/>
<path d="M760 745 c0 -9 6 -12 15 -9 8 4 15 2 15 -4 0 -8 55 -25 64 -19 1 1 9
-3 17 -10 8 -6 26 -14 41 -17 20 -3 27 0 31 15 4 14 2 18 -6 11 -15 -10 -24
-9 -62 8 -16 7 -32 14 -35 15 -3 1 -18 7 -33 13 -37 16 -47 15 -47 -3z"/>
<path d="M1462 748 c-16 -16 -15 -29 1 -22 8 3 14 11 14 19 0 18 0 18 -15 3z"/>
<path d="M954 691 c-2 -2 -4 -9 -4 -14 0 -6 3 -7 7 -4 3 4 12 2 19 -4 15 -12
34 -4 34 14 0 11 -46 17 -56 8z"/>
<path d="M1420 696 c0 -2 9 -6 20 -9 11 -3 20 -1 20 4 0 5 -9 9 -20 9 -11 0
-20 -2 -20 -4z"/>
<path d="M1016 675 c-5 -13 5 -20 27 -16 4 0 7 -3 7 -8 0 -5 11 -8 25 -6 14 1
25 -3 25 -9 0 -6 5 -4 10 4 8 13 10 12 10 -3 0 -10 5 -15 10 -12 6 3 10 1 10
-4 0 -6 3 -10 8 -9 18 5 71 -15 76 -28 3 -9 10 -13 14 -10 5 3 15 -4 22 -15 8
-10 20 -19 28 -19 7 0 11 -4 8 -9 -7 -11 13 -9 32 2 15 10 5 30 -13 24 -6 -3
-23 5 -36 16 -29 27 -79 59 -79 52 0 -3 -18 4 -40 15 -22 11 -45 19 -52 18 -7
-2 -12 2 -11 7 1 6 -6 11 -15 11 -9 0 -27 4 -38 7 -15 5 -23 3 -28 -8z"/>
<path d="M1425 670 c3 -5 8 -10 11 -10 2 0 4 5 4 10 0 6 -5 10 -11 10 -5 0 -7
-4 -4 -10z"/>
<path d="M1875 612 c-32 -11 -145 -84 -174 -113 -38 -39 -61 -71 -72 -98 -7
-17 -13 -21 -21 -13 -7 7 -20 5 -44 -9 -19 -10 -34 -14 -34 -9 0 6 -5 10 -11
10 -12 0 -2 -40 14 -55 7 -7 8 -5 5 5 -3 8 1 21 8 28 9 8 14 9 14 2 0 -6 4 -9
9 -5 5 3 12 -3 14 -12 4 -14 5 -13 6 4 0 12 6 25 13 29 6 4 8 3 4 -4 -3 -6 -1
-14 5 -18 7 -4 9 -3 6 3 -7 12 28 44 39 35 4 -4 4 -2 0 5 -4 7 1 21 11 31 10
10 34 37 53 59 19 23 38 39 42 37 5 -3 21 4 37 15 15 11 32 17 36 13 5 -4 5
-2 1 5 -3 6 -2 14 4 18 5 3 10 1 10 -6 0 -7 6 -5 13 6 8 10 19 15 25 11 8 -5
12 0 12 13 0 12 -1 21 -2 20 -2 -1 -12 -4 -23 -7z"/>
<path d="M1339 535 c-9 -19 -13 -32 -9 -30 13 8 41 -7 38 -19 -2 -6 6 -22 19
-35 13 -13 23 -19 23 -13 0 6 -7 18 -16 26 -8 9 -11 16 -5 16 6 0 11 5 11 11
0 5 -3 8 -7 6 -5 -3 -17 5 -28 15 -20 20 -20 20 5 14 23 -7 24 -6 6 8 -10 8
-15 19 -11 25 3 6 3 11 -2 11 -4 -1 -15 -16 -24 -35z"/>
<path d="M1370 440 c10 -6 11 -10 3 -10 -7 0 -13 -4 -13 -10 0 -5 7 -6 17 -3
11 4 14 3 9 -5 -5 -8 -1 -10 11 -5 17 6 17 5 -1 -15 -20 -23 -9 -31 13 -9 12
10 13 9 7 -7 -7 -20 -7 -20 14 -1 15 14 18 21 9 24 -7 2 -25 15 -38 28 -14 12
-30 23 -36 23 -5 0 -3 -5 5 -10z"/>
<path d="M1472 383 c-12 -2 -27 -14 -33 -25 -8 -15 -8 -19 0 -14 6 4 11 1 11
-6 0 -7 7 -2 16 10 8 12 20 20 25 17 5 -4 9 1 9 9 0 9 -1 15 -2 15 -2 -1 -13
-4 -26 -6z"/>
<path d="M1474 349 c-3 -6 -1 -16 5 -22 8 -8 11 -5 11 11 0 24 -5 28 -16 11z"/>
<path d="M138 173 c7 -3 16 -2 19 1 4 3 -2 6 -13 5 -11 0 -14 -3 -6 -6z"/>
<path d="M176 138 c0 -16 4 -31 8 -36 4 -4 7 -2 6 3 -5 24 1 36 22 44 21 8 21
8 -7 12 -27 4 -30 2 -29 -23z"/>
<path d="M770 132 c0 -21 -6 -44 -12 -51 -11 -10 -10 -11 5 -6 12 5 17 18 17
51 0 24 -2 44 -5 44 -3 0 -5 -17 -5 -38z"/>
<path d="M2470 149 c0 -11 4 -18 10 -14 5 3 7 12 3 20 -7 21 -13 19 -13 -6z"/>
<path d="M140 146 c0 -9 7 -16 16 -16 17 0 14 22 -4 28 -7 2 -12 -3 -12 -12z"/>
<path d="M247 153 c-4 -3 -7 -19 -7 -34 0 -21 -5 -28 -22 -31 -21 -3 -21 -4 4
-9 25 -6 26 -4 30 38 2 23 3 43 2 43 0 0 -4 -3 -7 -7z"/>
<path d="M348 149 c28 -11 29 -49 2 -56 -11 -3 -20 -9 -20 -15 0 -5 9 -4 20 2
11 6 32 8 47 5 25 -5 26 -5 6 4 -30 13 -30 49 -1 60 16 6 9 8 -27 8 -36 0 -43
-2 -27 -8z"/>
<path d="M435 149 c-4 -6 -5 -12 -2 -15 2 -3 7 2 10 11 7 17 1 20 -8 4z"/>
<path d="M640 150 c0 -5 7 -10 15 -10 8 0 15 5 15 10 0 6 -7 10 -15 10 -8 0
-15 -4 -15 -10z"/>
<path d="M683 137 c-2 -17 0 -17 10 -4 7 8 19 17 27 20 8 3 4 5 -11 4 -17 -1
-26 -7 -26 -20z"/>
<path d="M838 142 c9 -10 19 -17 21 -16 6 5 -20 34 -30 34 -5 0 -1 -8 9 -18z"/>
<path d="M2268 150 c24 -10 29 -39 10 -59 -11 -10 -10 -11 5 -6 10 5 17 18 17
35 0 26 -16 41 -43 39 -7 0 -2 -4 11 -9z"/>
<path d="M2403 153 c-7 -2 -13 -12 -13 -21 0 -14 1 -14 13 0 6 9 19 18 27 21
13 5 13 5 0 5 -8 0 -21 -2 -27 -5z"/>
<path d="M2542 154 c9 -3 19 -15 22 -27 4 -18 4 -18 3 3 -1 17 -8 25 -22 27
-14 1 -15 0 -3 -3z"/>
<path d="M2841 150 c10 -7 49 -2 49 5 0 2 -14 3 -31 3 -17 -1 -25 -4 -18 -8z"/>
<path d="M300 140 c0 -5 5 -10 11 -10 5 0 7 5 4 10 -3 6 -8 10 -11 10 -2 0 -4
-4 -4 -10z"/>
<path d="M611 134 c0 -11 3 -14 6 -6 3 7 2 16 -1 19 -3 4 -6 -2 -5 -13z"/>
<path d="M748 123 c5 -21 7 -23 10 -9 2 10 0 22 -6 28 -6 6 -7 0 -4 -19z"/>
<path d="M792 120 c2 -28 8 -36 27 -38 13 -2 27 0 32 5 6 6 -3 8 -22 5 -28 -4
-31 -2 -27 16 3 11 1 26 -4 33 -6 10 -8 3 -6 -21z"/>
<path d="M1981 123 c-1 -24 -6 -33 -23 -36 l-23 -4 23 -2 c25 -1 36 16 29 51
-3 18 -5 16 -6 -9z"/>
<path d="M2100 121 c0 -18 6 -31 16 -35 14 -5 15 -4 4 9 -7 8 -10 24 -7 35 3
11 1 20 -4 20 -5 0 -9 -13 -9 -29z"/>
<path d="M2160 139 c0 -5 5 -7 10 -4 6 3 10 8 10 11 0 2 -4 4 -10 4 -5 0 -10
-5 -10 -11z"/>
<path d="M2450 140 c0 -6 -8 -10 -17 -8 -10 2 -19 -4 -21 -14 -2 -10 1 -18 7
-18 6 0 8 8 5 18 -4 12 0 10 15 -7 l21 -23 0 31 c0 17 -2 31 -5 31 -3 0 -5 -5
-5 -10z"/>
<path d="M2626 137 c3 -10 9 -15 12 -12 3 3 0 11 -7 18 -10 9 -11 8 -5 -6z"/>
<path d="M2795 122 c0 -23 -4 -27 -27 -27 -14 1 -24 -3 -22 -7 6 -10 64 -5 82
6 7 4 12 17 12 29 0 24 -16 13 -23 -18 -4 -15 -5 -14 -6 7 -1 35 -17 44 -16
10z"/>
<path d="M215 130 c3 -5 8 -10 11 -10 2 0 4 5 4 10 0 6 -5 10 -11 10 -5 0 -7
-4 -4 -10z"/>
<path d="M264 129 c-8 -14 11 -33 25 -25 11 7 4 36 -9 36 -5 0 -12 -5 -16 -11z"/>
<path d="M336 133 c-12 -12 -6 -33 9 -33 8 0 15 6 15 14 0 17 -14 28 -24 19z"/>
<path d="M395 130 c-3 -6 1 -7 9 -4 18 7 21 14 7 14 -6 0 -13 -4 -16 -10z"/>
<path d="M2036 132 c-2 -4 -1 -14 5 -22 7 -12 9 -10 9 8 0 23 -5 28 -14 14z"/>
<path d="M2070 133 c0 -4 5 -15 10 -23 8 -13 10 -13 10 2 0 9 -4 20 -10 23 -5
3 -10 3 -10 -2z"/>
<path d="M2185 130 c-3 -6 1 -7 9 -4 18 7 21 14 7 14 -6 0 -13 -4 -16 -10z"/>
<path d="M2254 126 c-8 -22 3 -33 18 -18 9 9 9 15 0 24 -9 9 -13 7 -18 -6z"/>
<path d="M2317 133 c-4 -3 -7 -16 -6 -27 0 -19 1 -19 10 3 10 24 8 36 -4 24z"/>
<path d="M2350 123 c0 -13 5 -23 10 -23 13 0 13 11 0 30 -8 12 -10 11 -10 -7z"/>
<path d="M2494 129 c-3 -6 -1 -16 5 -22 8 -8 11 -5 11 11 0 24 -5 28 -16 11z"/>
<path d="M2530 121 c0 -11 5 -23 10 -26 6 -4 10 5 10 19 0 14 -4 26 -10 26 -5
0 -10 -9 -10 -19z"/>
<path d="M2706 133 c-10 -10 -7 -33 4 -33 5 0 6 8 3 18 -6 15 -5 15 10 3 9 -7
17 -9 17 -3 0 12 -26 23 -34 15z"/>
<path d="M2763 121 c1 -12 6 -20 12 -18 14 5 13 29 -2 34 -7 3 -11 -4 -10 -16z"/>
<path d="M2867 133 c-11 -10 -8 -43 3 -43 6 0 10 11 10 25 0 26 -2 29 -13 18z"/>
<path d="M520 115 c0 -8 4 -15 10 -15 5 0 7 7 4 15 -4 8 -8 15 -10 15 -2 0 -4
-7 -4 -15z"/>
<path d="M555 120 c-3 -5 -4 -14 0 -19 3 -5 -3 -12 -12 -14 -10 -3 2 -5 27 -5
35 0 39 2 20 7 -15 4 -24 14 -24 24 2 19 -2 22 -11 7z"/>
<path d="M2652 110 c0 -14 2 -19 5 -12 2 6 2 18 0 25 -3 6 -5 1 -5 -13z"/>
<path d="M137 101 c-4 -17 -3 -21 5 -13 5 5 8 16 6 23 -3 8 -7 3 -11 -10z"/>
<path d="M430 106 c0 -8 4 -17 9 -20 5 -4 7 3 4 14 -6 23 -13 26 -13 6z"/>
<path d="M580 110 c0 -5 5 -10 10 -10 6 0 10 5 10 10 0 6 -4 10 -10 10 -5 0
-10 -4 -10 -10z"/>
<path d="M640 110 c0 -5 7 -10 15 -10 8 0 15 5 15 10 0 6 -7 10 -15 10 -8 0
-15 -4 -15 -10z"/>
<path d="M815 110 c-3 -5 -1 -10 4 -10 6 0 11 5 11 10 0 6 -2 10 -4 10 -3 0
-8 -4 -11 -10z"/>
<path d="M2160 111 c0 -6 4 -13 10 -16 6 -3 7 1 4 9 -7 18 -14 21 -14 7z"/>
<path d="M208 103 c7 -3 16 -2 19 1 4 3 -2 6 -13 5 -11 0 -14 -3 -6 -6z"/>
<path d="M1948 103 c7 -3 16 -2 19 1 4 3 -2 6 -13 5 -11 0 -14 -3 -6 -6z"/>
<path d="M2330 101 c0 -6 4 -13 10 -16 6 -3 7 1 4 9 -7 18 -14 21 -14 7z"/>
<path d="M2382 94 c-7 -8 -8 -14 -3 -14 10 0 25 19 20 25 -2 1 -10 -3 -17 -11z"/>
<path d="M2470 100 c0 -5 5 -10 11 -10 5 0 7 5 4 10 -3 6 -8 10 -11 10 -2 0
-4 -4 -4 -10z"/>
<path d="M626 88 c3 -4 25 -7 49 -6 24 1 42 4 39 7 -7 8 -92 6 -88 -1z"/>
<path d="M2577 89 c7 -7 15 -10 18 -7 3 3 -2 9 -12 12 -14 6 -15 5 -6 -5z"/>
<path d="M268 83 c7 -3 16 -2 19 1 4 3 -2 6 -13 5 -11 0 -14 -3 -6 -6z"/>
<path d="M2418 83 c7 -3 16 -2 19 1 4 3 -2 6 -13 5 -11 0 -14 -3 -6 -6z"/>
<path d="M2708 83 c7 -3 16 -2 19 1 4 3 -2 6 -13 5 -11 0 -14 -3 -6 -6z"/>
</g>
</svg>
