<?xml version="1.0" standalone="no"?>
<!DOCTYPE svg PUBLIC "-//W3C//DTD SVG 20010904//EN"
 "http://www.w3.org/TR/2001/REC-SVG-20010904/DTD/svg10.dtd">
<svg version="1.0" xmlns="http://www.w3.org/2000/svg"
 width="300.000000pt" height="158.000000pt" viewBox="0 0 300.000000 158.000000"
 preserveAspectRatio="xMidYMid meet">
<metadata>
Created by potrace 1.10, written by Peter Selinger 2001-2011
</metadata>
<g transform="translate(0.000000,158.000000) scale(0.100000,-0.100000)"
fill="#000000" stroke="none">
<path d="M1505 1050 c3 -5 11 -10 16 -10 6 0 7 5 4 10 -3 6 -11 10 -16 10 -6
0 -7 -4 -4 -10z"/>
<path d="M1460 1031 c-5 -11 -10 -32 -10 -47 0 -18 -9 -36 -26 -49 -25 -20
-61 -117 -70 -190 -5 -40 1 -26 39 79 30 85 40 98 79 110 11 3 15 12 11 25 -3
12 -8 19 -12 17 -4 -3 -7 7 -6 22 0 21 5 27 22 26 18 0 20 2 12 13 -16 18 -27
16 -39 -6z"/>
<path d="M1529 1011 c5 -9 6 -31 4 -48 -4 -24 -1 -33 9 -33 30 0 50 -28 65
-90 26 -116 27 -120 10 -120 -13 0 -12 -9 5 -67 10 -38 26 -93 34 -123 21 -74
47 -140 57 -140 4 0 1 12 -6 27 -25 50 -79 293 -69 306 10 12 9 48 -2 84 -3
10 -8 33 -11 51 -7 42 -23 68 -52 83 -18 9 -23 21 -23 49 0 25 -4 37 -14 37
-10 0 -12 -5 -7 -16z"/>
<path d="M1478 904 c15 -28 56 -27 59 1 2 11 0 14 -3 8 -3 -7 -13 -13 -23 -13
-9 0 -23 6 -30 13 -11 10 -12 8 -3 -9z"/>
<path d="M1432 850 c0 -14 2 -19 5 -12 2 6 2 18 0 25 -3 6 -5 1 -5 -13z"/>
<path d="M1570 800 c0 -19 3 -21 12 -12 9 9 9 15 0 24 -9 9 -12 7 -12 -12z"/>
<path d="M1430 794 c0 -16 -2 -17 -10 -4 -6 9 -10 10 -10 3 0 -19 20 -26 26
-8 4 9 4 19 0 22 -3 4 -6 -2 -6 -13z"/>
<path d="M1471 794 c0 -11 3 -14 6 -6 3 7 2 16 -1 19 -3 4 -6 -2 -5 -13z"/>
<path d="M1535 705 c-4 -42 -5 -78 -2 -81 2 -3 8 29 12 71 4 42 5 79 2 81 -3
3 -8 -29 -12 -71z"/>
<path d="M1385 750 c-4 -6 5 -9 19 -8 15 1 26 6 26 10 0 12 -38 10 -45 -2z"/>
<path d="M1580 749 c0 -5 4 -8 9 -5 5 4 11 0 14 -6 2 -7 8 -10 12 -6 4 4 4 11
0 17 -8 14 -35 14 -35 0z"/>
<path d="M1488 560 c2 -102 5 -189 7 -195 7 -20 3 281 -4 330 -4 28 -6 -33 -3
-135z"/>
<path d="M1379 725 c-1 -3 -2 -8 -3 -12 -1 -5 -10 -47 -20 -94 -15 -69 -16
-90 -7 -105 12 -19 12 -19 7 0 -7 22 3 88 13 82 3 -2 7 13 7 33 1 21 9 52 18
69 15 28 15 32 1 32 -8 0 -16 -2 -16 -5z"/>
<path d="M1421 675 c2 -11 0 -26 -4 -32 -9 -14 -1 -33 14 -33 9 0 4 68 -7 79
-3 3 -5 -3 -3 -14z"/>
<path d="M1575 629 c-4 -6 -5 -13 -2 -16 7 -7 27 6 27 18 0 12 -17 12 -25 -2z"/>
<path d="M1561 574 c0 -11 3 -14 6 -6 3 7 2 16 -1 19 -3 4 -6 -2 -5 -13z"/>
<path d="M1531 564 c0 -11 3 -14 6 -6 3 7 2 16 -1 19 -3 4 -6 -2 -5 -13z"/>
<path d="M850 510 c-9 -6 -10 -10 -3 -10 6 0 15 5 18 10 8 12 4 12 -15 0z"/>
<path d="M1331 494 c0 -11 3 -14 6 -6 3 7 2 16 -1 19 -3 4 -6 -2 -5 -13z"/>
<path d="M1570 495 c-1 -5 -4 -26 -6 -45 -3 -28 -1 -31 7 -17 6 10 8 30 6 45
-2 15 -5 23 -7 17z"/>
<path d="M765 450 c-3 -5 -1 -10 4 -10 6 0 11 5 11 10 0 6 -2 10 -4 10 -3 0
-8 -4 -11 -10z"/>
<path d="M440 425 c0 -8 -9 -19 -21 -25 -11 -7 -18 -14 -16 -17 8 -8 56 30 57
45 0 6 -4 12 -10 12 -5 0 -10 -7 -10 -15z"/>
<path d="M1371 414 c0 -11 3 -14 6 -6 3 7 2 16 -1 19 -3 4 -6 -2 -5 -13z"/>
<path d="M473 385 c0 -8 4 -12 9 -9 4 3 8 9 8 15 0 5 -4 9 -8 9 -5 0 -9 -7 -9
-15z"/>
<path d="M1371 364 c0 -11 3 -14 6 -6 3 7 2 16 -1 19 -3 4 -6 -2 -5 -13z"/>
<path d="M420 345 c0 -14 4 -25 9 -25 4 0 6 11 3 25 -2 14 -6 25 -8 25 -2 0
-4 -11 -4 -25z"/>
<path d="M593 349 c-40 -26 -42 -33 -5 -17 42 19 69 38 52 38 -8 0 -30 -10
-47 -21z"/>
<path d="M1666 357 c3 -10 9 -15 12 -12 3 3 0 11 -7 18 -10 9 -11 8 -5 -6z"/>
<path d="M1445 320 l-40 -7 48 -2 c26 0 47 4 47 9 0 6 -3 9 -7 9 -5 -1 -26 -5
-48 -9z"/>
<path d="M1533 315 c0 -7 10 -10 24 -7 13 2 23 6 23 7 0 1 -10 5 -23 7 -14 3
-24 0 -24 -7z"/>
<path d="M528 309 c-10 -5 -18 -15 -18 -22 0 -7 4 -6 10 3 7 12 12 8 25 -20
10 -21 13 -25 10 -10 -4 14 -7 33 -8 43 -1 9 -1 17 -2 17 0 0 -8 -5 -17 -11z"/>
<path d="M1608 313 c12 -2 30 -2 40 0 9 3 -1 5 -23 4 -22 0 -30 -2 -17 -4z"/>
<path d="M430 275 c-11 -14 -43 -16 -216 -13 -111 2 -206 -1 -210 -5 -5 -5 2
-17 16 -27 22 -16 24 -26 25 -88 0 -39 3 -68 7 -65 4 2 5 -10 2 -27 -4 -16 -2
-30 3 -30 5 0 9 10 9 23 -1 20 3 22 59 22 l60 0 6 -35 6 -35 3 35 c1 19 2 68
3 108 2 83 20 108 67 97 31 -8 39 -21 41 -65 4 -129 7 -161 12 -167 4 -3 7 8
7 25 l0 32 55 0 c30 0 55 5 55 10 0 6 -25 10 -55 10 l-55 0 0 65 c0 52 -4 69
-20 85 -20 20 -20 20 45 20 52 0 69 4 85 20 11 11 16 20 11 20 -5 0 -14 -7
-21 -15z m-221 -43 c-19 -16 -22 -28 -22 -83 l1 -64 -64 -1 -64 -1 0 68 c0 59
-3 70 -22 83 -21 15 -15 16 86 16 107 0 108 0 85 -18z"/>
<path d="M573 240 c0 -30 2 -43 4 -27 2 15 2 39 0 55 -2 15 -4 2 -4 -28z"/>
<path d="M440 164 c0 -41 4 -73 9 -70 12 8 13 146 1 146 -6 0 -10 -32 -10 -76z"/>
<path d="M551 204 c0 -11 3 -14 6 -6 3 7 2 16 -1 19 -3 4 -6 -2 -5 -13z"/>
<path d="M482 140 c0 -19 2 -27 5 -17 2 9 2 25 0 35 -3 9 -5 1 -5 -18z"/>
<path d="M2050 126 c0 -8 4 -17 9 -20 5 -4 7 3 4 14 -6 23 -13 26 -13 6z"/>
<path d="M552 45 c0 -17 2 -22 5 -12 2 9 2 23 0 30 -3 6 -5 -1 -5 -18z"/>
<path d="M571 54 c0 -11 3 -14 6 -6 3 7 2 16 -1 19 -3 4 -6 -2 -5 -13z"/>
<path d="M440 40 c0 -5 5 -10 10 -10 6 0 10 5 10 10 0 6 -4 10 -10 10 -5 0
-10 -4 -10 -10z"/>
<path d="M481 14 c0 -11 3 -14 6 -6 3 7 2 16 -1 19 -3 4 -6 -2 -5 -13z"/>
</g>
</svg>
