<?xml version="1.0" standalone="no"?>
<!DOCTYPE svg PUBLIC "-//W3C//DTD SVG 20010904//EN"
 "http://www.w3.org/TR/2001/REC-SVG-20010904/DTD/svg10.dtd">
<svg version="1.0" xmlns="http://www.w3.org/2000/svg"
 width="300.000000pt" height="169.000000pt" viewBox="0 0 300.000000 169.000000"
 preserveAspectRatio="xMidYMid meet">
<metadata>
Created by potrace 1.10, written by Peter Selinger 2001-2011
</metadata>
<g transform="translate(0.000000,169.000000) scale(0.100000,-0.100000)"
fill="#000000" stroke="none">
<path d="M248 1683 c7 -3 16 -2 19 1 4 3 -2 6 -13 5 -11 0 -14 -3 -6 -6z"/>
<path d="M280 1686 c0 -9 30 -14 35 -6 4 6 -3 10 -14 10 -12 0 -21 -2 -21 -4z"/>
<path d="M543 1683 c20 -2 54 -2 75 0 20 2 3 4 -38 4 -41 0 -58 -2 -37 -4z"/>
<path d="M675 1684 c11 -3 24 -10 30 -15 11 -11 55 -12 55 -1 0 4 -10 8 -22 9
-13 1 -36 4 -53 7 -16 3 -21 3 -10 0z"/>
<path d="M850 1680 c0 -6 -17 -10 -37 -11 l-38 -1 45 -9 c61 -12 76 -8 50 13
-11 10 -20 13 -20 8z"/>
<path d="M898 1683 c7 -3 16 -2 19 1 4 3 -2 6 -13 5 -11 0 -14 -3 -6 -6z"/>
<path d="M1361 1681 c-8 -5 17 -8 63 -6 42 1 79 5 83 8 10 10 -130 8 -146 -2z"/>
<path d="M1643 1683 c15 -2 39 -2 55 0 15 2 2 4 -28 4 -30 0 -43 -2 -27 -4z"/>
<path d="M1738 1683 c7 -3 16 -2 19 1 4 3 -2 6 -13 5 -11 0 -14 -3 -6 -6z"/>
<path d="M1793 1683 c9 -2 23 -2 30 0 6 3 -1 5 -18 5 -16 0 -22 -2 -12 -5z"/>
<path d="M2106 1677 c12 -6 41 -23 64 -36 24 -13 52 -33 63 -45 10 -11 16 -14
12 -6 -4 10 -2 9 8 -2 8 -10 23 -18 34 -18 11 0 26 -7 33 -15 8 -9 9 -15 2
-15 -6 0 -14 5 -17 10 -3 6 -12 10 -18 10 -7 0 1 -11 18 -24 16 -13 33 -22 36
-20 4 2 15 -6 25 -18 11 -12 13 -18 7 -14 -22 13 -14 -10 12 -34 25 -24 35
-16 13 10 -11 12 -10 12 5 0 10 -7 23 -23 29 -34 10 -19 10 -20 -5 -7 -10 7
-17 11 -17 7 0 -12 -55 28 -95 70 -42 43 -165 124 -190 124 -7 0 -17 5 -20 10
-4 6 -11 8 -16 5 -5 -4 -9 -1 -9 4 0 15 23 14 38 -1 6 -6 14 -9 18 -6 10 11
-37 30 -54 22 -9 -4 -23 -6 -30 -5 -6 1 -20 -3 -30 -9 -16 -11 -16 -11 2 -6
10 4 24 3 30 -2 6 -5 41 -21 78 -36 37 -16 66 -32 63 -37 -3 -4 11 -15 30 -25
20 -9 33 -19 31 -22 -3 -3 -12 1 -20 7 -11 9 -16 9 -22 0 -4 -7 -3 -9 3 -6 6
4 16 0 23 -8 8 -9 21 -13 34 -10 14 4 17 3 8 -3 -10 -6 -7 -13 9 -28 13 -10
19 -13 15 -6 -4 6 -4 12 1 12 4 0 41 -41 82 -90 41 -50 77 -90 81 -90 4 0 23
-15 42 -32 71 -65 88 -73 88 -40 0 14 -2 15 -10 2 -9 -13 -10 -13 -9 0 0 8 4
24 8 35 7 17 9 15 19 -15 6 -19 13 -44 15 -55 3 -11 3 -4 2 15 -2 19 -13 58
-26 85 -12 28 -21 54 -20 58 1 5 -4 5 -10 1 -8 -4 -9 1 -4 17 4 17 3 20 -3 10
-5 -7 -12 -9 -14 -5 -6 11 1 -11 17 -55 8 -23 15 -29 19 -20 3 8 4 1 0 -16 -3
-16 -10 -34 -16 -40 -8 -7 -9 -5 -5 8 4 9 2 17 -4 17 -6 0 -8 3 -6 8 3 4 1 16
-4 27 -6 17 -8 15 -8 -10 -1 -22 -4 -26 -10 -15 -6 8 -7 18 -4 24 4 5 1 6 -6
2 -16 -10 -41 23 -33 43 3 9 1 12 -7 7 -6 -4 -11 -4 -10 1 10 42 -130 232
-182 248 -11 4 -18 10 -14 13 9 9 45 13 42 4 -1 -4 16 -24 37 -43 65 -56 84
-77 77 -84 -3 -4 1 -5 9 -3 9 2 15 -4 15 -15 0 -10 5 -21 10 -25 10 -7 16 -24
20 -57 1 -11 8 -19 15 -17 8 2 10 -3 7 -13 -7 -17 1 -45 12 -45 4 0 8 7 8 15
0 8 -4 15 -8 15 -5 0 -6 6 -3 14 3 8 1 17 -5 20 -6 4 -7 14 -4 23 5 12 3 14
-7 8 -10 -6 -12 -4 -7 7 6 17 -37 93 -66 117 -9 7 -15 17 -12 21 3 5 0 12 -6
16 -8 5 -9 3 -4 -6 5 -8 3 -11 -6 -8 -8 3 -13 14 -13 26 1 12 -3 19 -7 16 -5
-3 -6 -10 -3 -16 4 -6 1 -8 -7 -6 -8 3 -13 10 -12 17 4 14 -43 44 -57 36 -5
-3 -10 -1 -10 6 0 8 -6 5 -13 -5 -12 -16 -16 -17 -38 -5 -28 16 -40 30 -33 41
2 4 -4 12 -15 17 -30 16 -40 12 -11 -4 33 -19 12 -19 -33 0 -44 18 -70 20 -41
2z m239 -77 c3 -6 -1 -7 -9 -4 -18 7 -21 14 -7 14 6 0 13 -4 16 -10z m65 -207
c35 -31 68 -73 58 -73 -2 0 -28 25 -58 55 -61 62 -61 74 0 18z"/>
<path d="M2318 1683 c7 -3 16 -2 19 1 4 3 -2 6 -13 5 -11 0 -14 -3 -6 -6z"/>
<path d="M2448 1683 c7 -3 16 -2 19 1 4 3 -2 6 -13 5 -11 0 -14 -3 -6 -6z"/>
<path d="M453 1663 c9 -9 20 -13 24 -9 4 4 1 11 -7 16 -25 16 -35 11 -17 -7z"/>
<path d="M1020 1670 c0 -6 -10 -8 -23 -5 -12 3 -34 2 -47 -4 -14 -5 -19 -10
-12 -10 7 -1 10 -6 6 -12 -4 -7 1 -7 16 1 12 6 28 9 35 6 8 -3 17 -1 20 4 4 6
15 10 27 10 16 0 19 -5 15 -21 -4 -16 -3 -18 8 -9 8 7 19 9 25 5 5 -3 10 2 10
13 0 14 -9 21 -31 26 -43 8 -49 8 -49 -4z"/>
<path d="M1144 1663 c4 -9 1 -20 -6 -25 -9 -5 -6 -8 10 -8 15 0 26 7 29 18 4
16 12 18 52 14 30 -3 51 0 55 7 5 8 -16 11 -69 11 -68 0 -76 -2 -71 -17z"/>
<path d="M1880 1670 c-12 -8 -10 -10 8 -10 13 0 20 4 17 10 -7 12 -6 12 -25 0z"/>
<path d="M1919 1663 c-8 -14 -19 -18 -37 -15 -17 3 -23 1 -18 -7 5 -7 -3 -11
-25 -11 -18 0 -52 -11 -76 -25 -23 -14 -43 -21 -43 -15 0 18 -20 11 -43 -17
-12 -15 -33 -38 -47 -52 -13 -15 -22 -27 -20 -28 3 -1 -4 -12 -15 -25 -11 -13
-31 -46 -44 -73 -28 -59 -104 -367 -92 -375 5 -3 9 -42 10 -87 1 -44 4 -96 6
-115 13 -103 18 -127 26 -122 5 3 9 -3 10 -13 0 -10 1 -44 2 -76 1 -31 -1 -57
-5 -57 -5 0 -8 -8 -8 -17 0 -14 2 -15 9 -5 7 11 9 11 14 -2 9 -22 -2 -47 -17
-39 -6 3 -7 2 -3 -3 5 -5 16 -9 25 -9 9 0 16 -6 15 -12 -5 -21 15 -15 27 7 13
25 39 22 62 -5 10 -11 17 -17 18 -13 0 3 -16 26 -36 50 -22 25 -34 35 -30 22
4 -14 0 -26 -13 -38 -18 -16 -19 -16 -25 9 -4 17 -2 33 6 43 10 12 10 14 1 8
-10 -5 -13 6 -14 46 0 29 -3 62 -6 73 -3 11 -5 30 -5 42 0 12 -8 25 -17 28
-12 4 -17 17 -18 48 -1 38 -1 39 6 11 4 -17 18 -41 29 -52 27 -27 29 -10 4 26
-24 36 -45 99 -37 112 3 5 0 10 -7 10 -9 0 -10 3 -2 8 12 7 25 84 13 76 -4 -2
-9 6 -13 19 -8 31 -7 39 3 33 5 -3 12 1 15 10 4 12 2 15 -9 10 -8 -3 -15 -1
-15 4 0 6 4 10 10 10 5 0 9 8 8 18 -1 9 0 35 2 57 l3 40 7 -40 7 -40 2 37 c0
20 13 68 27 105 14 37 25 73 25 78 -1 6 -3 24 -5 40 -2 17 1 33 6 36 5 3 10
15 13 27 2 12 20 36 39 53 20 17 39 42 42 55 5 21 16 30 27 22 2 -2 12 3 21
11 30 25 117 61 144 60 l27 -1 -25 -8 c-24 -8 -23 -8 7 -9 25 -1 31 2 27 14
-4 10 -2 13 8 10 9 -4 19 4 27 21 14 32 7 44 -10 17z m-269 -156 c0 -2 -10
-12 -22 -23 l-23 -19 19 23 c18 21 26 27 26 19z m-86 -202 c-4 -8 -8 -15 -10
-15 -2 0 -4 7 -4 15 0 8 4 15 10 15 5 0 7 -7 4 -15z"/>
<path d="M1997 1664 c2 -7 -7 -9 -27 -6 -24 3 -30 1 -30 -14 0 -14 3 -15 12
-6 7 7 19 12 28 12 13 0 13 -1 0 -10 -8 -5 -10 -10 -5 -10 6 1 19 7 29 15 11
8 30 15 42 15 13 0 25 3 27 8 3 4 -14 7 -38 7 -27 0 -41 -4 -38 -11z"/>
<path d="M1560 1655 c0 -17 2 -18 24 -9 18 7 12 24 -10 24 -8 0 -14 -7 -14
-15z"/>
<path d="M1742 1654 c-18 -8 -30 -19 -27 -24 4 -7 13 -7 25 0 28 15 37 12 14
-4 -34 -25 -10 -24 26 2 24 17 28 22 13 17 -13 -3 -23 -2 -23 4 0 5 8 12 18
14 11 3 12 5 2 5 -8 0 -30 -6 -48 -14z"/>
<path d="M1824 1655 c11 -8 22 -12 25 -9 6 6 -19 24 -34 24 -5 -1 -1 -7 9 -15z"/>
<path d="M2220 1661 c0 -8 41 -23 47 -17 2 1 -8 8 -22 14 -14 6 -25 8 -25 3z"/>
<path d="M2301 1667 c2 -1 13 -9 24 -17 19 -14 19 -14 6 3 -7 9 -18 17 -24 17
-6 0 -8 -1 -6 -3z"/>
<path d="M100 1640 c0 -5 7 -10 16 -10 8 0 12 5 9 10 -3 6 -10 10 -16 10 -5 0
-9 -4 -9 -10z"/>
<path d="M228 1643 c7 -3 16 -2 19 1 4 3 -2 6 -13 5 -11 0 -14 -3 -6 -6z"/>
<path d="M550 1643 c8 -3 22 -11 30 -17 13 -10 13 -9 1 7 -7 9 -21 17 -30 16
-13 0 -14 -1 -1 -6z"/>
<path d="M777 1636 c-12 -9 -14 -16 -7 -21 12 -7 40 11 40 26 0 13 -12 11 -33
-5z"/>
<path d="M1680 1640 c-9 -6 -11 -10 -3 -10 7 0 10 -7 7 -15 -5 -11 -2 -13 10
-9 12 5 14 10 6 19 -5 6 -7 15 -3 18 9 10 0 8 -17 -3z"/>
<path d="M670 1631 c0 -5 5 -13 10 -16 6 -3 10 -2 10 4 0 5 -4 13 -10 16 -5 3
-10 2 -10 -4z"/>
<path d="M1465 1630 c-3 -5 3 -10 15 -10 12 0 18 5 15 10 -3 6 -10 10 -15 10
-5 0 -12 -4 -15 -10z"/>
<path d="M956 1608 c7 -18 54 -51 61 -44 6 6 -46 56 -59 56 -4 0 -5 -6 -2 -12z"/>
<path d="M1545 1611 c-3 -6 -3 -16 1 -23 4 -6 3 -9 -2 -6 -5 3 -18 2 -29 -3
-16 -6 -12 -8 17 -8 43 -1 51 7 33 32 -8 12 -15 14 -20 8z"/>
<path d="M2170 1616 c0 -2 7 -7 16 -10 8 -3 12 -2 9 4 -6 10 -25 14 -25 6z"/>
<path d="M1920 1600 c0 -8 80 -4 87 4 3 2 -16 4 -41 4 -25 -1 -46 -4 -46 -8z"/>
<path d="M2060 1599 c0 -5 9 -9 20 -9 11 0 20 2 20 4 0 2 -9 6 -20 9 -11 3
-20 1 -20 -4z"/>
<path d="M771 1583 c-11 -13 -11 -17 4 -31 17 -16 17 -16 11 2 -4 11 -2 22 5
26 6 4 7 10 3 13 -5 3 -15 -2 -23 -10z"/>
<path d="M1220 1590 c0 -7 55 -40 67 -40 1 0 3 6 3 13 0 8 -16 18 -35 24 -19
6 -35 7 -35 3z"/>
<path d="M1789 1583 c-13 -17 -13 -17 6 -3 11 8 22 16 24 17 2 2 0 3 -6 3 -6
0 -17 -8 -24 -17z"/>
<path d="M1860 1580 c-24 -8 -24 -8 -2 -9 13 -1 26 -10 30 -22 7 -19 9 -19 21
-5 11 14 11 16 -4 16 -11 0 -15 5 -11 15 6 16 3 17 -34 5z"/>
<path d="M1995 1577 c18 -15 19 -16 2 -17 -10 0 -15 -5 -12 -10 4 -6 10 -8 15
-5 10 6 83 -30 108 -53 12 -10 16 -10 26 3 10 15 14 14 31 -7 16 -18 16 -20 2
-9 -9 8 -21 11 -24 7 -4 -4 -2 -11 5 -15 37 -22 106 -89 119 -115 8 -16 24
-54 34 -84 10 -30 36 -75 56 -101 35 -41 38 -50 34 -96 -4 -64 -4 -76 4 -155
5 -44 2 -85 -8 -127 -15 -63 -9 -89 16 -64 8 8 8 11 -2 11 -7 0 -9 5 -5 11 4
7 13 44 21 83 8 39 16 78 18 86 2 8 4 21 4 28 1 6 8 12 17 12 8 0 13 4 10 9
-7 11 14 20 32 14 18 -7 15 -31 -5 -36 -17 -4 -17 -5 0 -6 9 0 17 -6 17 -12 0
-6 -6 -9 -14 -6 -8 3 -19 0 -25 -7 -8 -10 -4 -11 19 -8 25 4 29 1 24 -12 -4
-9 -19 -23 -35 -32 -32 -16 -37 -32 -14 -40 8 -4 12 -10 9 -15 -3 -5 2 -6 11
-3 17 7 15 28 -3 30 -27 3 -25 6 8 17 34 12 35 13 32 62 -3 66 -28 149 -49
166 -15 13 -15 12 -4 -9 7 -13 10 -30 7 -38 -3 -8 -1 -14 5 -14 13 0 -19 -32
-53 -55 -29 -18 -38 -9 -15 14 10 11 9 12 -2 6 -12 -7 -13 1 -7 44 4 28 9 58
12 66 10 26 24 16 24 -17 0 -34 8 -34 15 1 3 15 -11 41 -47 84 -27 34 -56 74
-62 90 -7 15 -16 24 -20 20 -4 -4 -4 -1 -1 8 3 8 -5 36 -18 62 -14 26 -21 47
-18 47 10 0 51 -57 51 -70 0 -6 4 -9 8 -6 5 3 18 -7 29 -22 33 -46 37 -58 11
-34 -18 16 -25 18 -25 8 0 -8 3 -15 6 -14 18 2 24 -3 14 -10 -9 -6 -6 -14 10
-33 12 -14 18 -19 13 -12 -15 23 7 14 37 -14 17 -16 27 -22 23 -15 -4 6 -3 12
1 12 11 0 48 -43 45 -53 -1 -4 1 -6 5 -6 19 3 33 -2 33 -12 0 -6 -6 -9 -14 -6
-11 4 -9 -4 6 -29 11 -19 21 -34 22 -34 6 0 -1 40 -7 46 -4 4 -2 13 3 20 8 9
-1 22 -31 48 -24 20 -47 36 -53 36 -15 0 -85 34 -86 42 0 14 47 0 89 -26 24
-15 40 -23 37 -17 -4 6 -2 11 4 11 6 0 20 -16 31 -35 12 -19 25 -35 30 -35 5
0 8 -3 7 -7 -1 -5 7 -24 17 -44 20 -36 20 -36 40 -17 18 17 18 19 1 12 -21 -8
-32 5 -46 59 -7 24 -17 37 -28 37 -14 0 -14 2 -3 9 11 7 5 14 -25 29 -21 11
-65 46 -96 77 -31 31 -62 54 -68 50 -5 -3 -10 0 -10 7 0 17 -90 110 -133 138
-20 14 -14 5 18 -24 28 -25 45 -46 39 -46 -5 0 -19 8 -30 18 -24 22 -134 106
-154 117 -9 5 -8 0 4 -13 30 -34 14 -35 -25 -2 -29 25 -31 29 -14 30 20 1 20
1 0 9 -11 5 -28 4 -39 -1 -13 -7 -16 -7 -12 1 4 6 3 11 -3 11 -5 0 -18 3 -28
6 -16 6 -16 5 2 -9z m416 -269 c13 -23 80 -88 92 -88 4 0 7 -5 7 -11 0 -13
-51 17 -63 38 -5 7 -13 10 -19 7 -6 -4 -8 -3 -5 3 3 5 -5 21 -19 36 -26 28
-29 37 -14 37 5 0 15 -10 21 -22z"/>
<path d="M2106 1575 c-3 -8 -1 -15 4 -15 13 0 22 18 11 24 -5 3 -11 -1 -15 -9z"/>
<path d="M190 1565 c0 -8 7 -15 15 -15 8 0 15 4 15 9 0 5 -7 11 -15 15 -9 3
-15 0 -15 -9z"/>
<path d="M317 1569 c-9 -6 -15 -14 -12 -20 4 -5 -1 -12 -9 -15 -9 -3 -16 -10
-16 -15 0 -5 14 -2 31 7 25 12 29 18 18 25 -13 8 -12 10 10 13 5 0 13 4 17 9
11 11 -18 8 -39 -4z"/>
<path d="M362 1568 c-20 -20 -14 -26 20 -19 17 4 34 13 36 21 5 13 3 13 -12 1
-13 -11 -19 -12 -25 -3 -5 9 -10 9 -19 0z"/>
<path d="M1185 1570 c-3 -5 1 -10 9 -10 9 0 16 5 16 10 0 6 -4 10 -9 10 -6 0
-13 -4 -16 -10z"/>
<path d="M1940 1570 c0 -5 7 -10 16 -10 8 0 12 5 9 10 -3 6 -10 10 -16 10 -5
0 -9 -4 -9 -10z"/>
<path d="M1714 1534 c-21 -20 -38 -41 -36 -45 1 -5 -5 -9 -15 -9 -9 0 -14 -3
-11 -6 3 -3 -5 -16 -18 -29 -13 -13 -24 -30 -24 -37 0 -7 8 -1 17 12 10 14 27
33 40 43 12 10 22 23 20 29 -1 6 4 13 12 16 9 3 11 0 6 -8 -6 -9 -3 -9 14 -1
25 14 28 22 4 15 -10 -3 -2 8 17 25 19 17 30 31 24 31 -6 0 -28 -16 -50 -36z"/>
<path d="M933 1552 c-19 -12 -5 -82 16 -82 13 0 13 2 2 9 -9 6 -10 11 -2 15
12 8 15 66 4 66 -5 0 -13 -4 -20 -8z"/>
<path d="M1824 1548 c-5 -7 -3 -8 6 -3 9 5 11 4 6 -4 -5 -8 -12 -9 -19 -3 -14
11 -46 7 -60 -7 -7 -7 0 -9 22 -6 38 5 42 -12 4 -21 -50 -10 -75 -27 -70 -46
3 -9 0 -16 -6 -15 -15 3 -38 -47 -45 -96 -4 -33 -7 -37 -13 -22 -7 19 -8 19
-8 -2 -1 -12 -5 -25 -11 -28 -13 -8 -13 -62 -1 -70 6 -3 4 -20 -5 -41 -8 -19
-21 -58 -28 -87 -8 -29 -19 -51 -25 -49 -6 1 -11 -6 -11 -15 0 -16 2 -15 19 2
11 11 22 33 25 49 6 32 15 46 17 25 2 -18 5 -38 18 -119 10 -56 58 -177 67
-167 2 1 -8 31 -22 66 -15 37 -29 99 -35 153 -5 51 -11 93 -13 95 -2 3 0 20 6
39 6 25 6 39 -2 49 -9 10 -2 33 29 96 45 92 46 93 29 83 -7 -5 -8 -3 -4 5 5 7
11 10 14 7 9 -10 42 26 35 38 -3 6 -3 8 2 4 11 -10 125 80 125 98 0 10 -40 3
-46 -8z"/>
<path d="M571 1536 c-9 -11 -7 -15 11 -19 29 -8 42 1 27 19 -14 18 -23 18 -38
0z"/>
<path d="M725 1540 c-3 -5 1 -10 9 -10 9 0 16 5 16 10 0 6 -4 10 -9 10 -6 0
-13 -4 -16 -10z"/>
<path d="M888 1533 c7 -3 16 -2 19 1 4 3 -2 6 -13 5 -11 0 -14 -3 -6 -6z"/>
<path d="M2151 1537 c2 -1 13 -9 24 -17 19 -14 19 -14 6 3 -7 9 -18 17 -24 17
-6 0 -8 -1 -6 -3z"/>
<path d="M780 1519 c0 -5 5 -7 10 -4 6 3 10 8 10 11 0 2 -4 4 -10 4 -5 0 -10
-5 -10 -11z"/>
<path d="M2450 1526 c0 -2 7 -9 15 -16 9 -7 15 -8 15 -2 0 5 -7 12 -15 16 -8
3 -15 4 -15 2z"/>
<path d="M411 1469 c-33 -53 -38 -69 -21 -69 6 0 10 6 10 14 0 8 7 17 16 20 8
3 13 10 10 15 -3 5 7 23 23 40 24 25 26 31 12 31 -11 0 -31 -21 -50 -51z"/>
<path d="M320 1490 c-9 -6 -10 -10 -3 -10 6 0 15 5 18 10 8 12 4 12 -15 0z"/>
<path d="M275 1480 c-3 -5 -2 -10 4 -10 5 0 13 5 16 10 3 6 2 10 -4 10 -5 0
-13 -4 -16 -10z"/>
<path d="M753 1463 c-11 -22 -10 -28 5 -39 25 -20 29 -17 24 16 -3 21 0 30 9
30 11 0 11 2 -1 10 -21 14 -24 13 -37 -17z"/>
<path d="M1030 1480 c0 -5 7 -10 15 -10 8 0 15 5 15 10 0 6 -7 10 -15 10 -8 0
-15 -4 -15 -10z"/>
<path d="M2490 1478 c8 -7 27 -28 43 -46 15 -19 27 -29 27 -24 0 5 -9 17 -20
27 -11 10 -18 21 -15 25 2 4 -8 12 -23 19 -22 9 -24 9 -12 -1z"/>
<path d="M631 1473 c-1 -18 17 -25 35 -15 13 7 14 11 4 17 -7 4 -16 2 -20 -5
-6 -10 -9 -9 -13 1 -3 9 -6 10 -6 2z"/>
<path d="M711 1471 c-10 -6 -9 -10 3 -14 8 -3 18 -2 21 3 8 13 -9 20 -24 11z"/>
<path d="M1157 1474 c-4 -4 -4 -10 -1 -15 6 -10 34 0 34 12 0 10 -24 12 -33 3z"/>
<path d="M2920 1464 c0 -8 5 -12 10 -9 6 4 8 11 5 16 -9 14 -15 11 -15 -7z"/>
<path d="M529 1446 c-37 -36 -68 -76 -60 -76 4 0 20 14 37 31 35 37 74 58 93
51 8 -3 11 0 7 7 -12 19 -52 12 -77 -13z"/>
<path d="M306 1434 c-5 -14 -4 -15 9 -4 17 14 19 20 6 20 -5 0 -12 -7 -15 -16z"/>
<path d="M1391 1424 c0 -11 3 -14 6 -6 3 7 2 16 -1 19 -3 4 -6 -2 -5 -13z"/>
<path d="M430 1414 c0 -8 5 -12 10 -9 6 3 10 10 10 16 0 5 -4 9 -10 9 -5 0
-10 -7 -10 -16z"/>
<path d="M1858 1423 c6 -2 18 -2 25 0 6 3 1 5 -13 5 -14 0 -19 -2 -12 -5z"/>
<path d="M840 1404 c0 -8 5 -12 10 -9 6 4 8 11 5 16 -9 14 -15 11 -15 -7z"/>
<path d="M1930 1383 c-37 -14 -51 -22 -32 -19 31 5 129 45 107 44 -5 -1 -39
-12 -75 -25z"/>
<path d="M2605 1390 c-3 -5 1 -10 10 -10 9 0 13 5 10 10 -3 6 -8 10 -10 10 -2
0 -7 -4 -10 -10z"/>
<path d="M133 1378 c-4 -7 12 -12 30 -9 4 0 7 -5 7 -11 0 -9 4 -8 10 2 5 8 10
17 10 20 0 8 -51 6 -57 -2z"/>
<path d="M295 1380 c-3 -6 5 -10 19 -10 14 0 28 5 31 10 3 6 -5 10 -19 10 -14
0 -28 -4 -31 -10z"/>
<path d="M415 1381 c-6 -11 13 -26 22 -17 4 3 1 6 -6 6 -7 0 -9 5 -6 10 3 6 4
10 1 10 -3 0 -7 -4 -11 -9z"/>
<path d="M1582 1369 c-10 -15 -10 -24 -3 -30 6 -5 9 -6 6 -2 -3 3 2 17 10 30
9 13 12 23 8 23 -5 0 -14 -10 -21 -21z"/>
<path d="M1311 1364 c0 -11 3 -14 6 -6 3 7 2 16 -1 19 -3 4 -6 -2 -5 -13z"/>
<path d="M1815 1370 c-3 -5 -1 -10 4 -10 6 0 11 5 11 10 0 6 -2 10 -4 10 -3 0
-8 -4 -11 -10z"/>
<path d="M55 1359 c-4 -6 -5 -12 -2 -15 2 -3 7 2 10 11 7 17 1 20 -8 4z"/>
<path d="M1956 1339 c-27 -15 -50 -19 -73 -16 -18 3 -33 2 -33 -4 0 -18 79 -9
132 16 29 14 44 25 33 24 -11 0 -38 -9 -59 -20z"/>
<path d="M2118 1353 c7 -3 16 -2 19 1 4 3 -2 6 -13 5 -11 0 -14 -3 -6 -6z"/>
<path d="M2166 1347 c3 -10 9 -15 12 -12 3 3 0 11 -7 18 -10 9 -11 8 -5 -6z"/>
<path d="M95 1340 c-3 -6 1 -7 9 -4 18 7 21 14 7 14 -6 0 -13 -4 -16 -10z"/>
<path d="M2053 1343 c9 -2 23 -2 30 0 6 3 -1 5 -18 5 -16 0 -22 -2 -12 -5z"/>
<path d="M370 1329 c0 -5 5 -7 10 -4 6 3 10 8 10 11 0 2 -4 4 -10 4 -5 0 -10
-5 -10 -11z"/>
<path d="M732 1327 c25 -24 63 -44 93 -50 108 -20 170 -67 204 -156 11 -29 26
-58 35 -64 8 -7 16 -28 19 -48 5 -43 15 -62 28 -54 5 4 5 13 -1 25 -5 10 -7
25 -4 33 3 8 1 18 -5 22 -6 3 -11 12 -11 19 0 23 -63 118 -110 166 -38 38 -59
50 -125 69 -44 13 -89 30 -100 37 -25 18 -41 18 -23 1z"/>
<path d="M860 1335 c0 -2 9 -9 20 -15 16 -9 20 -8 20 5 0 8 -9 15 -20 15 -11
0 -20 -2 -20 -5z"/>
<path d="M1320 1330 c0 -5 12 -10 26 -10 14 0 23 4 19 10 -3 6 -15 10 -26 10
-10 0 -19 -4 -19 -10z"/>
<path d="M506 1322 c-3 -5 1 -9 9 -9 8 0 15 4 15 9 0 4 -4 8 -9 8 -6 0 -12 -4
-15 -8z"/>
<path d="M570 1309 c7 -11 14 -18 17 -15 8 8 -5 36 -17 36 -7 0 -7 -6 0 -21z"/>
<path d="M1990 1309 c-22 -18 -22 -19 -3 -10 12 6 25 16 28 21 9 15 3 12 -25
-11z"/>
<path d="M630 1304 c0 -8 5 -12 10 -9 6 3 10 10 10 16 0 5 -4 9 -10 9 -5 0
-10 -7 -10 -16z"/>
<path d="M692 1293 c1 -21 6 -33 15 -33 17 0 17 21 -1 46 -14 18 -15 17 -14
-13z"/>
<path d="M1745 1305 c-25 -12 -26 -14 -5 -9 14 4 29 10 35 15 12 12 5 11 -30
-6z"/>
<path d="M1595 1294 c-4 -10 -11 -28 -17 -38 -5 -10 -12 -49 -15 -85 -2 -36
-10 -72 -16 -80 -10 -11 -9 -13 3 -9 15 5 28 52 34 123 2 22 9 53 15 69 6 16
9 31 7 34 -3 3 -8 -4 -11 -14z"/>
<path d="M520 1285 c0 -8 5 -15 10 -15 6 0 10 -8 10 -17 0 -15 2 -15 9 -4 6 9
5 21 -2 33 -14 22 -27 23 -27 3z"/>
<path d="M476 1272 c4 -33 16 -62 23 -57 12 7 0 63 -13 68 -7 3 -12 -2 -10
-11z"/>
<path d="M1785 1280 c-23 -6 -15 -8 35 -8 45 0 59 2 45 8 -24 10 -40 10 -80 0z"/>
<path d="M610 1265 c0 -8 -9 -15 -20 -15 -11 0 -20 -5 -20 -11 0 -6 7 -9 15
-5 9 3 15 0 15 -9 0 -7 12 -27 26 -44 23 -28 25 -37 19 -76 -8 -54 1 -58 21
-10 16 38 10 59 -27 99 -24 25 -24 55 -1 72 16 12 15 13 -5 14 -14 0 -23 -6
-23 -15z"/>
<path d="M1320 1271 c0 -15 -46 -61 -53 -54 -4 3 -7 -1 -7 -10 0 -9 3 -17 8
-17 17 0 52 32 52 49 0 9 5 22 12 29 9 9 9 12 0 12 -7 0 -12 -4 -12 -9z"/>
<path d="M2109 1270 c-53 -15 -99 -48 -99 -70 0 -7 7 -7 23 1 12 7 40 18 62
25 38 11 43 10 100 -21 55 -31 61 -32 61 -14 0 10 -6 19 -14 19 -8 0 -10 5 -6
13 6 9 4 9 -8 -1 -9 -7 -23 -9 -34 -5 -17 6 -17 8 5 13 37 8 36 26 -1 35 -55
13 -62 13 -89 5z m75 -19 c3 -5 -1 -11 -9 -14 -9 -4 -12 -1 -8 9 6 16 10 17
17 5z"/>
<path d="M1728 1263 c7 -3 16 -2 19 1 4 3 -2 6 -13 5 -11 0 -14 -3 -6 -6z"/>
<path d="M1966 1233 c7 -37 14 -42 14 -10 0 14 -4 28 -9 32 -6 3 -8 -6 -5 -22z"/>
<path d="M410 1239 c0 -5 5 -7 10 -4 6 3 10 8 10 11 0 2 -4 4 -10 4 -5 0 -10
-5 -10 -11z"/>
<path d="M1765 1240 c-3 -6 1 -7 9 -4 18 7 21 14 7 14 -6 0 -13 -4 -16 -10z"/>
<path d="M367 1206 c-4 -10 -1 -13 9 -9 15 6 19 23 5 23 -5 0 -11 -7 -14 -14z"/>
<path d="M1235 1200 c-3 -5 -1 -10 4 -10 6 0 11 5 11 10 0 6 -2 10 -4 10 -3 0
-8 -4 -11 -10z"/>
<path d="M1716 1201 c-4 -6 -2 -11 3 -11 6 0 11 -7 11 -16 0 -8 5 -12 10 -9 6
3 10 2 10 -4 0 -5 -5 -13 -11 -17 -13 -8 -30 16 -22 30 3 5 1 6 -6 2 -6 -4 -9
-11 -6 -16 3 -4 1 -10 -4 -12 -4 -1 -5 -12 0 -23 7 -18 8 -18 8 -2 1 10 5 16
10 13 15 -10 41 5 42 23 0 12 2 12 9 -4 8 -18 9 -18 9 -2 1 12 5 15 14 10 19
-13 84 -10 84 4 0 7 -4 10 -9 7 -4 -3 -8 -1 -8 4 0 4 -27 8 -61 7 -43 -1 -62
3 -68 13 -6 10 -10 11 -15 3z"/>
<path d="M700 1186 c0 -2 12 -12 28 -21 l27 -18 -19 21 c-17 20 -36 29 -36 18z"/>
<path d="M1980 1185 c0 -5 5 -17 10 -25 5 -8 10 -10 10 -5 0 6 -5 17 -10 25
-5 8 -10 11 -10 5z"/>
<path d="M2270 1175 c0 -8 -5 -15 -11 -15 -5 0 -7 -5 -3 -11 5 -8 8 -8 14 0 4
7 15 9 26 5 19 -7 19 -7 0 14 -23 26 -26 27 -26 7z"/>
<path d="M2771 1181 c14 -4 35 -14 47 -20 13 -7 22 -8 22 -2 0 15 -18 23 -59
27 -30 3 -32 2 -10 -5z"/>
<path d="M327 1169 c7 -7 15 -10 18 -7 3 3 -2 9 -12 12 -14 6 -15 5 -6 -5z"/>
<path d="M498 1175 c-11 -12 35 -86 50 -80 7 3 10 1 7 -4 -7 -13 12 -24 48
-28 25 -3 28 -1 17 12 -7 8 -20 15 -29 15 -21 0 -78 50 -83 73 -1 11 -6 16
-10 12z"/>
<path d="M2650 1171 c0 -14 44 -21 52 -8 4 6 5 14 2 16 -3 3 -9 -1 -13 -8 -6
-9 -11 -10 -15 -2 -9 13 -26 15 -26 2z"/>
<path d="M2760 1166 c0 -5 60 -36 69 -36 3 0 -7 9 -24 20 -29 19 -45 25 -45
16z"/>
<path d="M696 1152 c-3 -6 -2 -13 4 -17 6 -4 7 -12 4 -18 -5 -9 -4 -9 6 0 8 7
9 16 2 28 -6 11 -12 14 -16 7z"/>
<path d="M2107 1149 c-15 -6 -25 -14 -22 -19 3 -5 -2 -16 -11 -24 -14 -15 -14
-16 1 -16 8 0 20 11 25 25 11 30 26 32 35 5 7 -22 9 -23 43 -14 22 6 32 26 11
22 -6 -2 -13 2 -16 8 -3 9 7 8 34 -1 41 -14 54 -12 35 7 -15 15 -101 20 -135
7z"/>
<path d="M2702 1132 c-31 -32 -24 -36 12 -7 15 12 24 24 20 27 -5 2 -19 -7
-32 -20z"/>
<path d="M870 1129 c7 -11 14 -19 16 -16 7 7 -7 37 -17 37 -6 0 -5 -9 1 -21z"/>
<path d="M2460 1141 c0 -13 72 -112 78 -107 2 2 -5 21 -16 43 -22 41 -62 84
-62 64z"/>
<path d="M2610 1134 c0 -8 5 -12 10 -9 6 3 10 10 10 16 0 5 -4 9 -10 9 -5 0
-10 -7 -10 -16z"/>
<path d="M2637 1137 c-3 -8 0 -20 6 -26 8 -8 8 -11 -1 -11 -7 0 -12 -5 -12
-10 0 -6 8 -5 19 2 16 10 18 15 8 27 -7 8 -10 16 -9 18 2 3 2 7 -1 9 -2 3 -7
-2 -10 -9z"/>
<path d="M2878 1126 c17 -15 30 -32 27 -37 -4 -5 0 -7 7 -4 7 3 30 -11 51 -31
21 -20 37 -29 37 -21 0 7 -27 35 -61 61 -67 52 -113 76 -61 32z"/>
<path d="M840 1130 c0 -5 5 -10 11 -10 5 0 7 5 4 10 -3 6 -8 10 -11 10 -2 0
-4 -4 -4 -10z"/>
<path d="M2012 1120 c-8 -19 -7 -28 4 -36 8 -6 14 -17 14 -24 0 -7 3 -11 6 -7
3 3 20 -7 38 -23 35 -34 98 -41 132 -15 22 17 14 18 -38 6 -28 -6 -42 -5 -61
8 -40 26 -81 71 -66 71 9 0 10 3 3 8 -6 4 -13 14 -16 22 -4 11 -8 8 -16 -10z"/>
<path d="M2280 1132 c0 -12 19 -26 26 -19 2 2 -2 10 -11 17 -9 8 -15 8 -15 2z"/>
<path d="M286 1115 c-9 -26 -7 -32 5 -12 6 10 9 21 6 23 -2 3 -7 -2 -11 -11z"/>
<path d="M790 1121 c0 -5 6 -14 14 -21 8 -6 12 -18 9 -26 -4 -10 0 -12 11 -8
14 5 14 9 0 35 -14 27 -34 39 -34 20z"/>
<path d="M2794 1115 c11 -29 14 -46 15 -84 1 -19 4 -31 7 -28 10 10 64 -25 64
-41 0 -10 3 -10 14 0 17 16 11 28 -14 28 -10 0 -22 5 -26 12 -5 8 -2 9 12 4
10 -4 15 -3 10 1 -4 4 -17 8 -29 8 -18 0 -23 8 -29 49 -4 27 -12 54 -19 60 -9
8 -10 6 -5 -9z"/>
<path d="M1535 1110 c-3 -5 -1 -10 4 -10 6 0 11 5 11 10 0 6 -2 10 -4 10 -3 0
-8 -4 -11 -10z"/>
<path d="M397 1103 c-8 -13 23 -42 53 -48 24 -5 40 -21 40 -42 0 -7 -5 -13
-11 -13 -5 0 -7 -5 -3 -11 4 -8 10 -5 17 7 16 30 29 35 75 29 49 -7 56 7 12
25 -27 11 -33 10 -51 -6 -13 -12 -23 -15 -27 -7 -4 5 -26 20 -49 31 -22 12
-43 27 -45 34 -3 8 -6 9 -11 1z"/>
<path d="M1365 1090 c-3 -6 1 -7 9 -4 18 7 21 14 7 14 -6 0 -13 -4 -16 -10z"/>
<path d="M1929 1098 c-6 -15 -5 -68 2 -68 5 0 9 16 9 35 0 28 -6 45 -11 33z"/>
<path d="M2575 1089 c12 -19 6 -117 -10 -155 -17 -41 -20 -94 -5 -94 5 0 8 10
6 23 -2 12 2 33 9 47 7 14 10 31 8 38 -3 6 1 12 7 12 8 0 9 10 5 31 -5 21 -3
34 5 39 9 6 8 15 -4 39 -9 17 -19 31 -22 31 -3 0 -2 -5 1 -11z"/>
<path d="M2722 1080 c8 -12 15 -15 19 -8 4 6 13 14 20 19 10 6 4 9 -19 9 -29
0 -31 -2 -20 -20z"/>
<path d="M2830 1092 c0 -4 11 -12 25 -19 14 -6 25 -8 25 -4 0 4 -11 13 -25 19
-14 6 -25 8 -25 4z"/>
<path d="M922 1068 c-7 -7 -12 -9 -12 -4 0 23 -30 -27 -36 -60 -6 -35 -5 -38
8 -26 9 7 19 24 22 38 4 16 12 24 20 21 9 -4 14 3 14 19 0 28 0 28 -16 12z"/>
<path d="M1130 1070 c0 -5 9 -14 21 -20 19 -11 20 -10 9 9 -11 22 -30 29 -30
11z"/>
<path d="M1294 1072 c-6 -4 -15 -17 -19 -30 -6 -20 -4 -23 16 -20 17 2 23 10
24 31 1 28 -3 32 -21 19z"/>
<path d="M1701 1064 c0 -11 3 -14 6 -6 3 7 2 16 -1 19 -3 4 -6 -2 -5 -13z"/>
<path d="M1758 1050 c-29 -30 -33 -51 -6 -34 7 5 22 7 33 6 16 -2 17 -1 5 7
-13 9 -13 12 1 27 16 15 17 15 24 -5 8 -27 35 -27 42 -1 6 24 12 25 28 3 9
-13 14 -13 20 -3 5 8 4 11 -2 7 -6 -4 -13 0 -17 8 -4 10 -20 15 -51 15 -38 0
-52 -5 -77 -30z m89 14 c-3 -3 -12 -4 -19 -1 -8 3 -5 6 6 6 11 1 17 -2 13 -5z"/>
<path d="M2167 1070 c-16 -5 -36 -6 -45 -3 -15 4 -15 3 -2 -6 21 -15 43 -14
76 4 31 16 16 18 -29 5z"/>
<path d="M2240 1065 c-8 -9 -8 -15 -2 -15 12 0 26 19 19 26 -2 2 -10 -2 -17
-11z"/>
<path d="M2686 1064 c-3 -8 0 -14 7 -14 7 0 19 -11 27 -24 15 -25 15 -25 40
-6 21 16 22 20 8 21 -34 3 -37 4 -57 21 -16 14 -20 14 -25 2z"/>
<path d="M2902 1056 c10 -7 15 -16 11 -19 -3 -4 -1 -7 5 -7 7 0 12 4 12 8 0
12 -22 32 -34 32 -6 0 -3 -7 6 -14z"/>
<path d="M690 1042 c0 -26 8 -27 35 -5 14 11 15 14 4 10 -9 -3 -22 0 -28 6 -8
8 -11 5 -11 -11z"/>
<path d="M770 1045 c0 -2 9 -12 20 -22 19 -19 18 -63 -2 -63 -5 0 -7 9 -3 19
5 17 2 19 -22 14 -15 -3 -38 -7 -50 -7 -16 -1 -23 -7 -23 -21 0 -17 2 -17 10
-5 6 10 10 11 10 3 0 -7 5 -13 10 -13 6 0 10 7 10 15 0 20 19 19 27 -1 4 -10
16 -14 39 -12 26 2 37 -3 54 -25 20 -25 20 -31 9 -65 -19 -55 -16 -116 6 -121
14 -2 16 1 10 15 -18 45 -16 80 4 99 17 15 25 16 46 7 15 -7 27 -8 30 -2 4 6
-1 10 -9 10 -9 0 -16 4 -16 9 0 4 -11 6 -25 3 -29 -5 -32 4 -8 30 18 20 10 39
-9 20 -16 -16 -28 -15 -28 2 0 19 -39 87 -59 104 -15 12 -31 16 -31 7z"/>
<path d="M291 1035 c1 -22 16 -48 22 -38 3 5 0 19 -8 29 -8 10 -14 15 -14 9z"/>
<path d="M1700 1029 c0 -5 5 -7 10 -4 6 3 10 8 10 11 0 2 -4 4 -10 4 -5 0 -10
-5 -10 -11z"/>
<path d="M2420 1030 c0 -5 5 -10 11 -10 5 0 7 5 4 10 -3 6 -8 10 -11 10 -2 0
-4 -4 -4 -10z"/>
<path d="M2635 1031 c-3 -5 7 -22 21 -38 21 -22 24 -23 15 -6 -6 12 -16 25
-21 28 -6 4 -8 11 -5 16 4 5 4 9 1 9 -3 0 -7 -4 -11 -9z"/>
<path d="M350 1010 c6 -11 16 -20 23 -19 9 0 9 2 -1 6 -6 2 -10 8 -7 13 3 4
-2 11 -10 14 -13 4 -14 2 -5 -14z"/>
<path d="M1900 1020 c0 -5 5 -10 11 -10 5 0 7 5 4 10 -3 6 -8 10 -11 10 -2 0
-4 -4 -4 -10z"/>
<path d="M2935 1020 c-3 -5 1 -10 10 -10 10 0 13 -5 9 -12 -4 -7 -3 -8 5 -4 9
6 9 11 0 22 -14 17 -16 17 -24 4z"/>
<path d="M1495 1000 c3 -5 8 -10 11 -10 2 0 4 5 4 10 0 6 -5 10 -11 10 -5 0
-7 -4 -4 -10z"/>
<path d="M2531 993 c-1 -12 4 -25 9 -28 12 -7 12 2 0 30 -8 19 -9 19 -9 -2z"/>
<path d="M2761 1001 c-9 -6 -10 -11 -2 -15 6 -4 8 -12 5 -18 -5 -7 -11 -6 -19
5 -10 14 -13 14 -28 -4 -18 -21 -9 -26 12 -6 11 10 13 9 9 -3 -3 -8 1 -20 8
-27 17 -17 24 -16 24 2 0 9 10 15 23 16 16 1 18 2 4 6 -12 3 -15 11 -11 29 6
25 -1 30 -25 15z"/>
<path d="M1555 977 c-21 -24 -30 -51 -13 -41 5 3 7 8 4 11 -3 3 5 14 17 23 12
10 20 21 16 24 -3 3 -14 -5 -24 -17z"/>
<path d="M1839 983 c-13 -16 -12 -17 4 -4 16 13 21 21 13 21 -2 0 -10 -8 -17
-17z"/>
<path d="M1940 981 c0 -11 4 -22 9 -25 5 -3 8 5 7 19 -1 29 -16 34 -16 6z"/>
<path d="M1884 976 c-8 -22 -59 -39 -96 -32 -32 6 -32 6 5 -9 25 -9 45 -11 55
-6 23 13 64 61 52 61 -6 0 -13 -6 -16 -14z"/>
<path d="M488 970 c-9 -6 -19 -25 -23 -43 -3 -17 -11 -45 -17 -60 -9 -23 -8
-31 6 -45 15 -15 16 -14 16 20 0 53 21 94 45 90 16 -2 17 -1 5 7 -12 8 -13 12
-2 23 11 11 16 9 28 -7 9 -12 17 -16 22 -9 9 13 52 16 52 3 0 -5 5 -9 11 -9
21 0 2 25 -22 28 -13 1 -42 5 -64 7 -22 3 -48 1 -57 -5z"/>
<path d="M2817 953 c-4 -15 -10 -39 -13 -52 -5 -18 -3 -22 7 -19 7 2 13 15 14
29 0 13 3 29 7 34 4 6 3 17 -1 24 -6 9 -10 4 -14 -16z"/>
<path d="M2080 956 c0 -3 14 -18 31 -35 23 -23 29 -36 24 -53 -5 -18 -4 -19 4
-8 8 12 16 10 47 -16 74 -60 102 -123 64 -144 -18 -10 -25 -9 -32 1 -7 11 -8
9 -4 -4 3 -10 6 -21 6 -23 0 -5 38 17 61 35 17 14 17 17 3 32 -9 10 -13 23 -9
28 3 6 1 11 -4 11 -6 0 -10 4 -8 8 3 12 -157 172 -172 172 -6 0 -11 -2 -11 -4z"/>
<path d="M2850 954 c0 -6 5 -15 12 -22 9 -9 8 -12 -7 -13 -19 0 -19 -1 0 -9
20 -9 20 -9 0 -10 -15 -1 -17 -3 -5 -8 8 -4 15 -15 15 -26 0 -10 10 -22 22
-27 17 -6 21 -5 16 7 -4 10 0 12 10 8 9 -3 13 -12 10 -20 -4 -10 0 -12 11 -8
14 5 12 11 -11 38 -14 17 -30 30 -35 29 -4 -2 -8 5 -8 15 -1 18 -30 64 -30 46z
m50 -83 c0 -5 -7 -11 -15 -15 -15 -5 -20 5 -8 17 9 10 23 9 23 -2z"/>
<path d="M2940 952 c0 -6 4 -12 10 -12 5 0 14 -18 20 -40 13 -48 22 -53 14 -7
-6 32 -44 83 -44 59z"/>
<path d="M932 935 c-10 -12 -10 -15 0 -15 7 0 24 -3 36 -7 22 -5 23 -4 11 16
-16 24 -29 26 -47 6z"/>
<path d="M1177 944 c-13 -14 -7 -34 11 -33 10 0 12 3 4 6 -6 2 -10 9 -6 14 8
14 24 11 24 -6 0 -8 7 -15 16 -15 26 0 11 35 -16 38 -14 2 -29 0 -33 -4z"/>
<path d="M1453 910 c0 -25 2 -35 4 -22 2 12 2 32 0 45 -2 12 -4 2 -4 -23z"/>
<path d="M1630 924 c0 -16 5 -36 11 -44 7 -11 8 -4 3 25 -8 50 -14 58 -14 19z"/>
<path d="M2639 917 c6 -17 2 -29 -20 -52 -16 -16 -29 -35 -29 -42 0 -6 -13
-14 -30 -18 -16 -4 -30 -10 -30 -15 0 -4 16 -3 35 3 19 6 35 14 35 19 0 4 8 8
18 9 14 0 14 2 -3 9 -16 7 -16 9 -4 9 9 1 20 8 23 17 3 8 9 13 13 11 5 -3 9
10 10 28 2 21 -2 35 -12 38 -11 5 -12 1 -6 -16z"/>
<path d="M1912 917 c-11 -12 -14 -27 -27 -112 -3 -22 -8 -48 -11 -59 -4 -11
-2 -16 4 -12 6 3 16 32 22 64 6 31 16 72 22 90 11 37 7 50 -10 29z"/>
<path d="M400 905 c0 -8 5 -15 10 -15 6 0 10 7 10 15 0 8 -4 15 -10 15 -5 0
-10 -7 -10 -15z"/>
<path d="M2317 905 c-8 -20 -4 -29 11 -24 5 2 6 13 2 23 -6 19 -7 19 -13 1z"/>
<path d="M2727 863 c6 -66 15 -82 37 -64 12 10 13 16 3 26 -7 7 -15 11 -18 9
-13 -8 -15 43 -2 55 15 14 9 31 -12 31 -10 0 -12 -14 -8 -57z"/>
<path d="M230 894 c0 -8 5 -12 10 -9 6 3 10 10 10 16 0 5 -4 9 -10 9 -5 0 -10
-7 -10 -16z"/>
<path d="M2936 902 c-2 -4 -1 -14 5 -22 7 -12 9 -10 9 8 0 23 -5 28 -14 14z"/>
<path d="M281 873 c0 -25 1 -26 9 -8 12 27 12 35 0 35 -5 0 -10 -12 -9 -27z"/>
<path d="M1515 890 c3 -5 8 -10 11 -10 2 0 4 5 4 10 0 6 -5 10 -11 10 -5 0 -7
-4 -4 -10z"/>
<path d="M2000 891 c0 -14 32 -43 39 -35 3 4 0 9 -6 11 -7 3 -13 11 -13 19 0
8 -4 14 -10 14 -5 0 -10 -4 -10 -9z"/>
<path d="M1110 885 c0 -5 5 -17 10 -25 5 -8 10 -10 10 -5 0 6 -5 17 -10 25 -5
8 -10 11 -10 5z"/>
<path d="M2466 878 c3 -5 10 -6 15 -3 13 9 11 12 -6 12 -8 0 -12 -4 -9 -9z"/>
<path d="M2586 874 c-5 -14 -4 -15 9 -4 17 14 19 20 6 20 -5 0 -12 -7 -15 -16z"/>
<path d="M1219 863 c-13 -16 -12 -17 4 -4 9 7 17 15 17 17 0 8 -8 3 -21 -13z"/>
<path d="M2072 868 c-19 -19 -14 -25 18 -20 17 2 29 9 27 16 -5 16 -30 19 -45
4z"/>
<path d="M1500 861 c0 -6 4 -13 10 -16 6 -3 7 1 4 9 -7 18 -14 21 -14 7z"/>
<path d="M2320 854 c0 -8 5 -12 10 -9 6 4 8 11 5 16 -9 14 -15 11 -15 -7z"/>
<path d="M2682 853 c-7 -12 -12 -30 -12 -40 0 -11 -5 -24 -12 -31 -7 -7 -8
-12 -2 -12 17 0 44 38 31 43 -9 3 -9 8 1 20 8 9 12 22 10 29 -3 8 -9 5 -16 -9z"/>
<path d="M2774 848 c0 -10 4 -18 8 -18 4 0 8 -9 8 -19 0 -10 7 -22 16 -25 14
-5 15 -4 4 9 -7 9 -10 18 -6 22 3 4 13 -2 21 -13 13 -16 14 -16 9 -1 -6 17 4
22 34 18 7 -1 3 8 -9 20 -28 28 -85 33 -85 7z m59 -14 c-4 -10 -9 -12 -18 -4
-6 5 -15 7 -18 3 -4 -3 -7 -1 -7 5 0 11 29 21 42 15 4 -2 5 -10 1 -19z"/>
<path d="M1937 835 c-15 -11 -16 -13 -2 -19 8 -3 15 -1 15 5 0 6 8 6 21 -1 29
-16 32 -9 5 11 -18 14 -25 15 -39 4z"/>
<path d="M2525 840 c-3 -5 -1 -10 4 -10 6 0 11 5 11 10 0 6 -2 10 -4 10 -3 0
-8 -4 -11 -10z"/>
<path d="M2970 835 c7 -8 17 -12 22 -9 6 4 5 10 -3 15 -22 14 -33 10 -19 -6z"/>
<path d="M1670 830 c0 -5 5 -10 11 -10 5 0 7 5 4 10 -3 6 -8 10 -11 10 -2 0
-4 -4 -4 -10z"/>
<path d="M247 813 c9 -23 67 -83 80 -83 6 0 16 6 22 14 10 11 6 17 -20 30 -17
9 -35 13 -40 10 -5 -3 -13 6 -19 20 -5 14 -14 26 -19 26 -6 0 -7 -8 -4 -17z"/>
<path d="M350 815 c0 -9 5 -15 11 -13 6 2 11 8 11 13 0 5 -5 11 -11 13 -6 2
-11 -4 -11 -13z"/>
<path d="M396 816 c6 -16 34 -30 42 -21 6 5 -28 34 -40 35 -4 0 -5 -6 -2 -14z"/>
<path d="M617 816 c-13 -10 -15 -15 -5 -19 16 -5 48 10 48 23 0 14 -22 12 -43
-4z"/>
<path d="M676 821 c-3 -5 4 -11 16 -14 25 -7 33 -3 23 12 -8 13 -32 14 -39 2z"/>
<path d="M1111 816 c-10 -12 -7 -14 22 -13 27 2 33 5 25 15 -14 16 -33 15 -47
-2z"/>
<path d="M1243 823 c-17 -6 -17 -33 0 -33 14 0 37 20 37 32 0 9 -18 9 -37 1z"/>
<path d="M1561 819 c-1 -9 8 -28 19 -42 11 -14 20 -34 20 -45 0 -12 5 -24 11
-28 17 -10 0 58 -21 81 -10 11 -20 27 -23 35 -5 13 -6 12 -6 -1z"/>
<path d="M2042 814 c-7 -8 -8 -14 -3 -14 10 0 25 19 20 25 -2 1 -10 -3 -17
-11z"/>
<path d="M2427 806 c-4 -11 -1 -13 10 -9 11 4 14 2 9 -5 -4 -7 -3 -12 2 -12 5
0 8 -13 7 -29 -1 -20 2 -28 11 -24 9 3 12 -2 9 -16 -3 -17 -1 -20 12 -12 11 6
23 5 35 -2 20 -13 55 2 51 22 -2 6 3 11 11 11 14 0 29 37 20 52 -3 4 -11 8
-17 8 -7 0 -6 -4 3 -10 13 -8 11 -14 -13 -37 -27 -27 -28 -28 -43 -9 -11 16
-14 17 -14 4 0 -9 -6 -15 -14 -14 -16 2 -47 32 -40 39 6 6 -17 57 -27 57 -4 0
-9 -7 -12 -14z m118 -96 c3 -5 2 -10 -4 -10 -5 0 -13 5 -16 10 -3 6 -2 10 4
10 5 0 13 -4 16 -10z"/>
<path d="M2890 810 c0 -5 5 -10 11 -10 5 0 7 5 4 10 -3 6 -8 10 -11 10 -2 0
-4 -4 -4 -10z"/>
<path d="M1700 803 c0 -5 8 -21 18 -38 10 -16 21 -45 25 -63 7 -37 35 -79 90
-133 20 -20 37 -43 37 -49 0 -6 5 -8 10 -5 6 3 10 2 10 -3 0 -12 121 -114 128
-107 3 3 -12 20 -34 37 -64 52 -183 180 -204 220 -11 20 -29 62 -41 93 -11 30
-25 55 -30 55 -5 0 -9 -3 -9 -7z"/>
<path d="M2120 800 c0 -4 9 -10 20 -13 11 -3 20 -2 20 3 0 4 -9 10 -20 13 -11
3 -20 2 -20 -3z"/>
<path d="M2505 800 c-3 -5 -1 -10 4 -10 6 0 11 5 11 10 0 6 -2 10 -4 10 -3 0
-8 -4 -11 -10z"/>
<path d="M2925 800 c-3 -5 1 -10 10 -10 9 0 13 5 10 10 -3 6 -8 10 -10 10 -2
0 -7 -4 -10 -10z"/>
<path d="M460 791 c0 -23 31 -79 47 -84 10 -2 26 -8 36 -12 9 -4 17 -3 17 3 0
5 -12 13 -26 16 -18 5 -31 19 -41 46 -15 36 -33 54 -33 31z"/>
<path d="M956 783 c-5 -12 -9 -14 -18 -5 -7 7 -17 12 -22 12 -6 0 -4 -5 4 -10
13 -8 12 -10 -2 -10 -10 0 -18 -5 -18 -11 0 -11 52 -8 83 6 14 6 15 10 6 21
-15 19 -25 18 -33 -3z"/>
<path d="M2076 791 c-4 -5 3 -7 14 -4 23 6 26 13 6 13 -8 0 -17 -4 -20 -9z"/>
<path d="M2850 780 c0 -14 -5 -18 -17 -13 -14 4 -15 3 -7 -6 6 -6 17 -9 25 -6
16 6 23 45 8 45 -5 0 -9 -9 -9 -20z"/>
<path d="M2875 780 c-3 -5 3 -10 14 -10 12 0 21 -4 21 -8 0 -5 7 -9 15 -9 13
0 13 3 -2 19 -18 20 -38 23 -48 8z"/>
<path d="M2960 775 c0 -8 4 -15 10 -15 5 0 7 7 4 15 -4 8 -8 15 -10 15 -2 0
-4 -7 -4 -15z"/>
<path d="M1030 772 c0 -5 9 -17 20 -27 13 -11 18 -25 14 -37 -3 -12 0 -18 10
-18 9 0 16 7 16 15 0 9 7 27 16 40 15 23 15 25 0 25 -9 0 -16 -7 -16 -15 0
-21 -17 -19 -30 5 -11 20 -30 27 -30 12z"/>
<path d="M2187 774 c-8 -8 1 -24 14 -24 5 0 9 7 9 15 0 15 -12 20 -23 9z"/>
<path d="M2705 747 c-18 -35 -18 -40 -5 -32 6 3 10 1 10 -4 0 -6 -6 -11 -14
-11 -8 0 -16 -7 -20 -15 -3 -9 0 -15 10 -15 8 0 12 4 9 10 -4 6 1 7 11 3 12
-4 15 -3 10 5 -4 7 -2 12 5 12 7 0 9 3 6 7 -10 10 14 34 27 26 8 -4 7 -2 -1 7
-6 7 -9 18 -7 25 10 26 -27 10 -41 -18z"/>
<path d="M2787 769 c7 -7 15 -10 18 -7 3 3 -2 9 -12 12 -14 6 -15 5 -6 -5z"/>
<path d="M156 760 c-16 -5 -37 -18 -48 -29 -10 -12 -23 -21 -28 -21 -6 0 -10
-5 -10 -11 0 -7 -8 -18 -17 -26 -12 -10 -7 -9 12 2 17 9 37 25 46 35 9 10 35
23 57 30 23 6 42 15 42 20 0 12 -14 11 -54 0z"/>
<path d="M1285 758 c11 -8 34 -20 52 -27 17 -7 34 -19 37 -26 3 -8 14 -19 26
-25 19 -10 20 -9 15 13 -5 18 -1 29 15 40 17 12 18 15 5 20 -9 4 -15 1 -15 -8
0 -8 -5 -15 -11 -15 -6 0 -9 7 -5 15 3 8 1 15 -4 15 -6 0 -10 -8 -10 -17 -1
-17 -1 -17 -14 -1 -7 10 -33 20 -62 23 -44 6 -47 5 -29 -7z"/>
<path d="M2486 758 c3 -4 19 -5 36 -1 22 4 29 3 24 -5 -4 -7 -3 -12 3 -12 21
0 21 20 -1 24 -33 6 -67 3 -62 -6z"/>
<path d="M426 747 c3 -10 9 -15 12 -12 3 3 0 11 -7 18 -10 9 -11 8 -5 -6z"/>
<path d="M2887 741 c4 -15 1 -20 -8 -18 -8 2 -10 2 -5 -1 4 -2 2 -9 -5 -14
-12 -8 -12 -9 0 -6 24 7 37 36 24 49 -9 9 -11 7 -6 -10z"/>
<path d="M618 729 c-54 -28 -47 -39 14 -22 40 12 64 13 104 6 37 -7 51 -6 48
2 -6 15 -82 35 -87 22 -2 -6 -10 -6 -22 1 -15 8 -29 5 -57 -9z"/>
<path d="M1136 725 l-29 -23 79 -5 c43 -2 89 -7 102 -12 13 -4 22 -3 22 3 0 6
-26 19 -57 30 -32 10 -65 22 -73 25 -8 4 -28 -4 -44 -18z"/>
<path d="M2657 734 c3 -9 -2 -14 -15 -14 -12 0 -23 -4 -26 -8 -2 -4 7 -7 21
-6 30 1 51 29 28 37 -9 4 -12 1 -8 -9z"/>
<path d="M1649 713 c-1 -16 -3 -38 -4 -51 -1 -12 1 -25 5 -27 5 -3 8 20 9 50
0 56 -8 78 -10 28z"/>
<path d="M2780 721 c0 -25 6 -27 13 -6 4 8 2 17 -3 20 -6 4 -10 -3 -10 -14z"/>
<path d="M2822 717 c7 -12 11 -25 10 -29 -1 -5 3 -8 8 -8 13 0 13 17 0 25 -6
4 -8 10 -5 15 3 4 -2 11 -10 14 -13 5 -14 2 -3 -17z"/>
<path d="M910 720 c0 -6 11 -15 25 -22 20 -9 22 -14 14 -29 -8 -15 -6 -19 7
-19 11 0 14 5 10 16 -5 12 -2 15 10 10 11 -4 9 3 -8 23 -22 29 -58 41 -58 21z"/>
<path d="M1690 717 c0 -7 7 -22 16 -33 15 -18 15 -18 5 3 -8 16 -8 22 1 25 7
3 6 7 -5 11 -11 4 -17 2 -17 -6z"/>
<path d="M2162 706 c-32 -18 -37 -25 -15 -21 10 2 21 4 24 4 4 1 9 8 13 16 3
8 4 15 3 14 -1 -1 -12 -7 -25 -13z"/>
<path d="M2410 710 c0 -5 5 -10 10 -10 6 0 10 5 10 10 0 6 -4 10 -10 10 -5 0
-10 -4 -10 -10z"/>
<path d="M2920 711 c0 -6 5 -13 10 -16 6 -3 10 1 10 9 0 9 -4 16 -10 16 -5 0
-10 -4 -10 -9z"/>
<path d="M1552 688 c0 -13 9 -49 21 -81 14 -42 24 -57 35 -52 10 4 12 1 8 -11
-7 -18 19 -54 38 -54 6 0 0 7 -12 16 -12 8 -20 20 -17 25 4 5 3 19 0 30 -6 17
-9 19 -16 8 -6 -10 -9 -9 -15 6 -3 11 -13 35 -21 53 -8 18 -11 41 -8 51 3 11
1 22 -4 25 -5 4 -10 -4 -9 -16z"/>
<path d="M1880 701 c0 -5 5 -13 10 -16 6 -3 10 -2 10 4 0 5 -4 13 -10 16 -5 3
-10 2 -10 -4z"/>
<path d="M2990 701 c0 -7 -5 -9 -12 -5 -7 5 -8 3 -3 -5 5 -9 10 -10 18 -2 6 6
8 14 4 18 -4 3 -7 1 -7 -6z"/>
<path d="M7 666 c-7 -46 -5 -52 9 -28 6 9 8 28 4 42 -6 22 -7 21 -13 -14z"/>
<path d="M787 677 c-10 -12 -26 -36 -37 -54 -10 -17 -28 -37 -40 -43 -17 -9
-25 -6 -49 21 -18 19 -31 27 -35 20 -4 -6 -2 -11 3 -11 6 0 11 -6 11 -13 0 -7
13 -25 28 -40 l28 -27 30 33 c51 54 107 137 92 137 -7 -1 -21 -11 -31 -23z"/>
<path d="M2796 691 c-3 -5 1 -12 10 -15 8 -3 12 -10 9 -16 -3 -5 0 -7 9 -4 12
5 12 8 -2 25 -19 22 -19 22 -26 10z"/>
<path d="M226 663 c-8 -16 -45 -59 -81 -97 -36 -37 -65 -74 -65 -81 0 -7 -13
-41 -29 -76 -32 -71 -46 -144 -31 -154 5 -3 10 -16 10 -29 0 -30 24 -61 40
-51 10 6 9 10 -4 17 -10 6 -15 18 -12 34 3 13 0 24 -5 24 -17 0 -9 30 9 31 10
0 12 3 5 6 -19 7 -17 92 2 99 8 4 13 10 10 14 -10 16 35 99 82 152 77 87 113
130 113 134 0 2 -7 4 -15 4 -8 0 -21 -12 -29 -27z"/>
<path d="M349 673 c-13 -16 -12 -17 4 -4 16 13 21 21 13 21 -2 0 -10 -8 -17
-17z"/>
<path d="M1584 674 c3 -9 6 -19 6 -23 0 -4 13 -17 29 -29 21 -15 32 -18 37
-10 4 7 3 8 -4 4 -7 -4 -22 10 -37 34 -25 40 -42 54 -31 24z"/>
<path d="M2346 681 c-3 -5 5 -8 19 -7 14 0 25 4 25 9 0 10 -38 9 -44 -2z"/>
<path d="M2430 674 c7 -8 18 -13 24 -13 16 3 66 -19 66 -28 -1 -19 -19 -35
-35 -30 -9 4 -14 3 -13 -1 22 -44 33 -62 40 -62 5 0 4 9 -2 20 -12 23 2 27 20
6 9 -12 17 -13 36 -4 13 6 22 13 20 15 -2 3 -13 0 -23 -5 -15 -8 -22 -6 -32
10 -15 24 -7 36 13 19 16 -14 32 2 20 20 -5 8 -9 8 -14 -1 -5 -8 -9 -8 -13 3
-4 12 0 14 19 11 15 -3 23 -1 20 5 -3 5 -1 11 5 13 6 2 9 13 6 23 -5 19 -5 19
-12 -2 -10 -30 -52 -36 -70 -10 -8 12 -17 18 -21 15 -3 -3 -19 -2 -36 2 -25 8
-28 7 -18 -6z"/>
<path d="M570 666 c-9 -11 -5 -16 20 -21 41 -9 47 -2 16 18 -20 14 -26 14 -36
3z"/>
<path d="M666 671 c-3 -5 8 -11 25 -13 32 -5 49 6 23 16 -22 9 -42 7 -48 -3z"/>
<path d="M2915 671 c-3 -5 -2 -12 3 -15 5 -3 9 1 9 9 0 17 -3 19 -12 6z"/>
<path d="M435 660 c-3 -5 -1 -10 4 -10 6 0 11 5 11 10 0 6 -2 10 -4 10 -3 0
-8 -4 -11 -10z"/>
<path d="M888 663 c6 -2 18 -2 25 0 6 3 1 5 -13 5 -14 0 -19 -2 -12 -5z"/>
<path d="M1886 658 c3 -5 10 -6 15 -3 13 9 11 12 -6 12 -8 0 -12 -4 -9 -9z"/>
<path d="M2405 660 c3 -5 11 -10 16 -10 6 0 7 5 4 10 -3 6 -11 10 -16 10 -6 0
-7 -4 -4 -10z"/>
<path d="M2686 662 c-11 -2 -26 -10 -34 -18 -7 -8 -17 -12 -22 -9 -13 8 -4
-45 9 -58 13 -12 15 -10 74 62 9 12 17 23 17 24 0 5 -20 4 -44 -1z m-6 -29 c0
-5 -12 -13 -26 -20 -26 -12 -26 -12 -9 7 18 20 35 26 35 13z"/>
<path d="M500 645 c0 -9 5 -15 11 -13 6 2 11 8 11 13 0 5 -5 11 -11 13 -6 2
-11 -4 -11 -13z"/>
<path d="M1060 650 c0 -5 7 -10 16 -10 8 0 12 5 9 10 -3 6 -10 10 -16 10 -5 0
-9 -4 -9 -10z"/>
<path d="M2312 639 c-6 -9 -14 -34 -18 -55 -4 -21 -18 -62 -31 -91 -14 -29
-23 -61 -20 -71 3 -15 5 -15 11 3 4 11 21 48 38 82 18 38 27 70 23 82 -4 13 1
24 13 33 10 7 21 18 25 25 12 19 -29 11 -41 -8z"/>
<path d="M2752 647 c-8 -10 -6 -13 11 -14 12 0 16 1 9 4 -6 3 -10 9 -6 14 8
14 -2 11 -14 -4z"/>
<path d="M465 640 c3 -5 8 -10 11 -10 2 0 4 5 4 10 0 6 -5 10 -11 10 -5 0 -7
-4 -4 -10z"/>
<path d="M1705 631 c-3 -5 -1 -12 5 -16 5 -3 10 1 10 9 0 18 -6 21 -15 7z"/>
<path d="M1890 619 c0 -18 2 -19 15 -9 15 12 12 30 -6 30 -5 0 -9 -10 -9 -21z"/>
<path d="M2430 627 c0 -9 -7 -17 -15 -17 -9 0 -12 -6 -8 -17 3 -10 3 -15 -2
-11 -12 11 -35 -11 -28 -28 3 -7 10 -11 15 -8 6 4 5 10 -3 15 -11 7 -11 9 2 9
24 0 63 50 50 63 -8 8 -11 6 -11 -6z"/>
<path d="M2970 625 c-14 -7 -29 -11 -33 -8 -5 3 -13 0 -17 -6 -4 -7 -13 -13
-21 -15 -8 -1 -27 -9 -44 -18 -16 -8 -52 -20 -80 -27 -84 -20 -154 -51 -161
-73 -8 -27 3 -34 24 -15 10 10 23 17 28 17 6 0 15 5 21 11 12 12 121 59 137
59 8 0 162 59 175 67 1 1 1 6 0 12 -3 6 -14 4 -29 -4z m-297 -132 c-7 -2 -19
-2 -25 0 -7 3 -2 5 12 5 14 0 19 -2 13 -5z"/>
<path d="M886 621 c-7 -11 28 -43 37 -34 12 11 8 22 -12 33 -11 5 -22 6 -25 1z"/>
<path d="M1015 620 c-79 -73 -76 -69 -55 -80 11 -6 20 -17 20 -24 0 -8 7 -19
15 -26 8 -7 15 -20 15 -29 0 -10 11 -28 25 -41 30 -28 34 -18 5 12 -11 12 -20
28 -20 35 0 7 -10 34 -21 59 -16 34 -19 48 -10 57 8 8 18 5 38 -11 16 -12 49
-33 76 -47 30 -16 47 -32 47 -44 0 -14 86 -181 94 -181 0 0 1 20 1 45 0 33 -3
44 -13 40 -13 -5 -62 90 -62 120 0 8 -7 15 -15 15 -8 0 -15 5 -15 10 0 6 -8
10 -19 10 -10 0 -24 6 -30 14 -7 8 -23 17 -36 20 -32 8 -32 26 -2 26 13 0 24
6 24 13 0 15 -47 20 -62 7z"/>
<path d="M1835 620 c3 -5 8 -10 11 -10 2 0 4 5 4 10 0 6 -5 10 -11 10 -5 0 -7
-4 -4 -10z"/>
<path d="M1255 610 c-3 -5 2 -10 12 -11 44 -1 87 -10 99 -20 14 -12 35 -73 54
-161 10 -43 16 -54 25 -45 9 9 7 26 -8 77 -33 106 -55 150 -83 160 -33 13 -91
13 -99 0z"/>
<path d="M2740 609 c0 -14 29 -18 39 -5 8 9 4 12 -14 12 -14 0 -25 -3 -25 -7z"/>
<path d="M486 583 c0 -16 3 -35 6 -43 22 -63 28 -91 23 -100 -3 -5 -2 -10 4
-10 15 0 1 -33 -21 -48 -10 -7 -16 -17 -13 -22 3 -5 17 3 31 17 33 33 39 94
12 128 -10 13 -18 34 -18 47 0 13 -6 32 -12 41 -12 15 -13 14 -12 -10z"/>
<path d="M2588 593 c7 -3 16 -2 19 1 4 3 -2 6 -13 5 -11 0 -14 -3 -6 -6z"/>
<path d="M317 576 c-4 -10 -1 -13 7 -10 8 3 23 -5 35 -17 15 -17 18 -26 10
-40 -12 -23 3 -25 21 -4 15 18 42 19 58 3 7 -7 12 -8 12 -2 0 16 -33 43 -58
47 -11 2 -30 11 -40 20 -23 21 -38 22 -45 3z"/>
<path d="M574 563 c5 -17 3 -29 -6 -34 -10 -7 -10 -9 1 -9 8 0 22 -6 30 -14
13 -12 19 -12 33 -2 16 12 15 16 -13 49 -36 44 -54 48 -45 10z m46 -34 c0 -6
-4 -7 -10 -4 -5 3 -10 11 -10 16 0 6 5 7 10 4 6 -3 10 -11 10 -16z"/>
<path d="M1775 570 c-3 -5 -1 -10 4 -10 6 0 11 5 11 10 0 6 -2 10 -4 10 -3 0
-8 -4 -11 -10z"/>
<path d="M1270 560 c0 -5 5 -10 10 -10 6 0 10 5 10 10 0 6 -4 10 -10 10 -5 0
-10 -4 -10 -10z"/>
<path d="M1650 555 c0 -8 4 -15 10 -15 5 0 7 7 4 15 -4 8 -8 15 -10 15 -2 0
-4 -7 -4 -15z"/>
<path d="M2940 560 c-9 -6 -10 -10 -3 -10 6 0 15 5 18 10 8 12 4 12 -15 0z"/>
<path d="M780 550 c0 -5 5 -10 10 -10 6 0 10 5 10 10 0 6 -4 10 -10 10 -5 0
-10 -4 -10 -10z"/>
<path d="M1200 544 c0 -8 5 -12 10 -9 6 3 10 10 10 16 0 5 -4 9 -10 9 -5 0
-10 -7 -10 -16z"/>
<path d="M2430 531 c-32 -31 -58 -45 -79 -42 -11 2 -11 0 0 -12 10 -11 19 -11
42 -3 22 9 30 8 37 -4 8 -13 10 -12 10 3 0 9 -4 17 -10 17 -5 0 -10 5 -10 11
0 7 9 9 24 5 15 -4 28 0 36 9 10 12 10 15 0 15 -7 0 -10 7 -6 15 9 24 -13 17
-44 -14z m40 -11 c0 -5 -5 -10 -11 -10 -5 0 -7 5 -4 10 3 6 8 10 11 10 2 0 4
-4 4 -10z"/>
<path d="M2625 550 c-3 -5 -1 -10 4 -10 6 0 11 5 11 10 0 6 -2 10 -4 10 -3 0
-8 -4 -11 -10z"/>
<path d="M825 530 c-3 -5 -2 -10 4 -10 5 0 13 5 16 10 3 6 2 10 -4 10 -5 0
-13 -4 -16 -10z"/>
<path d="M894 526 c-21 -23 -5 -60 37 -83 21 -12 41 -17 45 -12 8 14 -5 29
-25 29 -9 0 -25 6 -34 13 -15 11 -15 15 -3 40 16 29 2 38 -20 13z"/>
<path d="M1741 525 c0 -11 6 -29 14 -39 8 -11 15 -15 15 -10 0 6 -4 14 -9 20
-5 5 -11 18 -14 29 -5 20 -5 20 -6 0z"/>
<path d="M2525 530 c-4 -6 -1 -9 7 -8 7 2 12 -2 11 -8 -1 -7 6 -10 17 -7 11 3
20 0 20 -6 0 -6 5 -11 10 -11 6 0 10 7 10 16 0 8 5 12 10 9 6 -3 10 -2 10 4 0
6 -15 7 -35 4 -23 -4 -35 -2 -35 6 0 14 -17 15 -25 1z"/>
<path d="M2863 520 c-3 -11 -10 -20 -15 -20 -5 0 -6 5 -3 10 9 15 -17 11 -40
-6 -20 -15 -20 -15 -1 -30 23 -16 40 -19 31 -4 -3 6 5 14 19 20 19 7 24 14 19
27 -3 10 4 5 17 -10 13 -16 28 -26 36 -23 8 3 22 -3 31 -13 16 -19 43 -18 43
1 0 6 -7 4 -17 -3 -14 -13 -14 -11 1 20 10 18 13 30 8 27 -6 -4 -13 -2 -17 4
-3 5 -11 10 -18 10 -6 0 -3 -6 8 -13 29 -22 3 -29 -65 -18 -3 1 0 5 7 9 8 5 3
11 -14 19 -22 11 -26 10 -30 -7z"/>
<path d="M1240 519 c0 -5 -4 -7 -10 -4 -5 3 -10 2 -10 -3 0 -17 13 -21 26 -7
16 16 18 25 4 25 -5 0 -10 -5 -10 -11z"/>
<path d="M764 504 c4 -9 1 -23 -5 -30 -6 -8 -8 -14 -4 -14 8 0 44 42 45 53 0
4 -9 7 -21 7 -15 0 -19 -4 -15 -16z"/>
<path d="M2496 502 c-2 -4 2 -16 10 -27 8 -10 14 -14 14 -8 0 7 -5 15 -10 18
-6 4 -8 11 -5 16 4 5 4 9 1 9 -3 0 -7 -3 -10 -8z"/>
<path d="M665 483 c10 -23 11 -101 2 -135 -4 -17 -3 -28 2 -28 23 0 37 136 17
168 -12 19 -29 14 -21 -5z"/>
<path d="M1196 476 c3 -9 11 -16 16 -16 13 0 5 23 -10 28 -7 2 -10 -2 -6 -12z"/>
<path d="M2755 470 c-3 -5 -3 -10 2 -11 4 0 16 -2 26 -4 22 -4 22 2 -2 15 -13
7 -22 7 -26 0z"/>
<path d="M2885 469 c-4 -5 -4 -13 -1 -16 3 -4 6 0 6 8 0 11 2 11 10 -1 6 -9
10 -10 10 -3 0 17 -17 25 -25 12z"/>
<path d="M1665 460 c-3 -5 -2 -10 4 -10 5 0 13 5 16 10 3 6 2 10 -4 10 -5 0
-13 -4 -16 -10z"/>
<path d="M2318 463 c-19 -5 -25 -23 -9 -23 17 0 41 12 41 21 0 9 -4 10 -32 2z"/>
<path d="M2493 456 c12 -16 8 -28 -8 -22 -8 3 -15 0 -15 -6 0 -7 -5 -6 -15 2
-12 10 -15 9 -15 -5 0 -9 -5 -15 -12 -13 -13 5 -58 -37 -58 -55 -1 -7 -6 -5
-13 5 -9 11 -18 14 -28 7 -13 -8 -6 -13 14 -10 16 2 6 -23 -18 -44 -17 -17
-20 -25 -11 -28 7 -3 30 14 50 39 20 24 42 44 47 44 6 0 17 7 26 16 9 8 22 13
30 10 7 -3 16 1 19 9 4 8 13 15 21 15 8 0 12 -4 8 -10 -7 -11 54 8 73 23 16
13 15 37 -2 37 -7 0 -21 -10 -30 -22 -9 -13 -14 -17 -11 -10 7 14 -11 16 -20
2 -4 -6 -13 -3 -23 7 -9 10 -14 14 -9 9z"/>
<path d="M2703 454 c0 -16 13 -19 21 -5 3 5 0 11 -7 14 -8 3 -14 -1 -14 -9z"/>
<path d="M2923 445 c0 -8 4 -12 9 -9 4 3 8 9 8 15 0 5 -4 9 -8 9 -5 0 -9 -7
-9 -15z"/>
<path d="M408 443 c27 -11 11 -25 -22 -20 -28 5 -34 3 -29 -10 4 -10 16 -14
39 -11 19 2 34 0 34 -4 0 -4 5 -8 10 -8 14 0 13 33 -2 48 -7 7 -19 12 -27 11
-11 0 -12 -2 -3 -6z"/>
<path d="M591 434 c0 -11 3 -14 6 -6 3 7 2 16 -1 19 -3 4 -6 -2 -5 -13z"/>
<path d="M1079 448 c-6 -12 -5 -46 2 -43 4 3 7 14 6 25 -1 18 -5 25 -8 18z"/>
<path d="M1712 430 c0 -14 2 -19 5 -12 2 6 2 18 0 25 -3 6 -5 1 -5 -13z"/>
<path d="M2980 441 c-8 -6 -18 -7 -24 -4 -5 3 -6 1 -2 -5 5 -9 13 -9 27 -2 10
6 19 13 19 15 0 7 -3 6 -20 -4z"/>
<path d="M470 436 c0 -2 7 -6 15 -10 8 -3 15 -1 15 4 0 6 -7 10 -15 10 -8 0
-15 -2 -15 -4z"/>
<path d="M880 430 c0 -5 7 -10 16 -10 8 0 12 5 9 10 -3 6 -10 10 -16 10 -5 0
-9 -4 -9 -10z"/>
<path d="M1511 417 c-38 -19 -41 -22 -21 -25 12 -2 26 2 30 9 5 7 21 18 37 25
15 7 21 13 13 13 -8 0 -35 -9 -59 -22z"/>
<path d="M803 402 c-13 -14 -23 -32 -23 -41 0 -9 12 2 26 22 30 45 29 55 -3
19z"/>
<path d="M2284 419 c-3 -6 -1 -16 6 -22 10 -9 12 -8 7 6 -7 20 4 22 22 5 10
-11 11 -10 6 5 -8 19 -30 23 -41 6z"/>
<path d="M2740 420 c-13 -8 -12 -10 3 -10 9 0 17 5 17 10 0 12 -1 12 -20 0z"/>
<path d="M2847 417 c-3 -9 -4 -24 -1 -32 4 -8 2 -15 -4 -15 -5 0 -7 -11 -4
-25 2 -15 0 -25 -7 -25 -6 0 -11 -7 -11 -15 0 -8 -4 -15 -9 -15 -5 0 -19 -15
-32 -34 -24 -36 -44 -38 -52 -5 -6 22 -34 26 -34 4 0 -8 6 -15 12 -15 7 0 19
-8 28 -18 15 -17 15 -19 -8 -36 -14 -10 -25 -23 -25 -28 0 -5 -11 -19 -25 -32
-13 -13 -22 -25 -20 -28 3 -3 -9 -13 -27 -21 -20 -10 -26 -17 -15 -17 21 0 21
-4 1 -38 l-16 -27 26 29 c15 16 25 35 22 43 -3 8 -2 11 3 8 6 -3 24 15 40 39
17 24 37 50 44 58 53 56 184 227 165 217 -13 -7 -26 -17 -30 -23 -5 -7 -8 -6
-8 3 0 8 8 23 18 34 15 19 16 20 0 14 -9 -3 -18 -1 -21 6 -2 6 -6 4 -10 -6z"/>
<path d="M2945 408 c8 -21 28 -29 46 -17 11 7 9 9 -6 9 -12 0 -27 6 -34 13
-10 10 -11 9 -6 -5z"/>
<path d="M970 401 c0 -5 7 -11 15 -15 8 -3 15 -1 15 3 0 5 -7 11 -15 15 -8 3
-15 1 -15 -3z"/>
<path d="M1560 399 c0 -5 -5 -7 -12 -3 -7 4 -8 3 -4 -5 6 -9 11 -9 22 0 17 14
18 19 4 19 -5 0 -10 -5 -10 -11z"/>
<path d="M1615 399 c-4 -6 -5 -12 -2 -15 2 -3 7 2 10 11 7 17 1 20 -8 4z"/>
<path d="M1751 394 c0 -11 3 -14 6 -6 3 7 2 16 -1 19 -3 4 -6 -2 -5 -13z"/>
<path d="M206 385 c-3 -9 -6 -24 -5 -33 0 -9 5 -4 10 12 9 32 6 48 -5 21z"/>
<path d="M862 371 c-12 -17 -22 -34 -22 -39 0 -5 -7 -15 -15 -22 -13 -11 -20
-8 -44 20 -23 28 -29 31 -34 17 -3 -9 -3 -17 2 -17 28 0 100 -118 85 -141 -3
-5 2 -9 10 -9 16 0 14 27 -4 75 -15 39 -12 47 13 43 19 -3 23 -10 28 -68 3
-36 13 -80 23 -98 9 -18 14 -38 10 -45 -5 -9 -4 -9 7 1 11 10 11 18 0 47 -18
52 -27 145 -12 145 6 0 11 -3 11 -7 0 -15 41 -75 47 -70 10 11 -45 92 -76 112
-34 22 -39 39 -15 53 9 5 15 15 13 21 -3 7 -14 -1 -27 -18z"/>
<path d="M1574 378 l-19 -23 23 19 c21 18 27 26 19 26 -2 0 -12 -10 -23 -22z"/>
<path d="M2655 390 c-3 -5 -15 -10 -25 -10 -19 0 -83 -30 -88 -42 -2 -3 -16
-2 -33 2 -18 5 -27 5 -24 -1 4 -5 -1 -9 -9 -9 -10 0 -13 6 -9 18 7 18 5 17
-17 -12 -10 -13 -10 -17 -2 -12 6 4 12 3 12 -1 0 -5 9 -9 19 -9 11 0 17 4 14
9 -3 5 0 7 8 5 8 -3 13 -12 11 -19 -2 -9 6 -6 20 7 32 30 67 47 83 40 8 -3 17
0 21 5 4 7 10 7 17 0 6 -6 16 -11 22 -11 5 0 3 5 -5 10 -13 8 -12 11 5 24 17
13 18 15 3 16 -9 0 -20 -4 -23 -10z"/>
<path d="M1063 379 c-9 -9 -9 -16 0 -31 10 -15 9 -21 -3 -28 -12 -8 -12 -12
-2 -18 23 -15 93 -167 99 -214 9 -73 23 -46 16 30 -5 50 -11 70 -25 80 -30 22
-65 111 -60 155 4 37 -5 46 -25 26z"/>
<path d="M1685 380 c-3 -5 -1 -10 4 -10 6 0 11 5 11 10 0 6 -2 10 -4 10 -3 0
-8 -4 -11 -10z"/>
<path d="M2251 374 c-12 -14 -11 -16 4 -12 10 1 20 9 23 16 5 17 -10 15 -27
-4z"/>
<path d="M611 353 c7 -10 15 -20 16 -22 2 -2 3 3 3 11 0 9 -7 19 -16 22 -15 6
-15 4 -3 -11z"/>
<path d="M908 356 c-10 -7 -15 -16 -12 -19 7 -7 44 14 44 25 0 12 -13 9 -32
-6z"/>
<path d="M950 360 c0 -5 7 -10 15 -10 8 0 15 5 15 10 0 6 -7 10 -15 10 -8 0
-15 -4 -15 -10z"/>
<path d="M1731 354 c0 -11 3 -14 6 -6 3 7 2 16 -1 19 -3 4 -6 -2 -5 -13z"/>
<path d="M1789 353 c-13 -16 -12 -17 4 -4 16 13 21 21 13 21 -2 0 -10 -8 -17
-17z"/>
<path d="M1437 349 c-9 -5 -21 -8 -26 -5 -5 3 -15 -2 -22 -12 -13 -15 -12 -16
4 -3 10 8 17 9 17 3 0 -6 -4 -14 -10 -17 -5 -3 -10 -15 -10 -26 0 -11 -5 -17
-10 -14 -6 4 -8 10 -6 14 3 4 -7 7 -20 6 -15 0 -30 -9 -36 -20 -6 -11 -16 -23
-21 -26 -5 -4 -7 -13 -5 -20 3 -9 12 0 23 23 11 22 23 34 31 31 19 -7 13 -35
-14 -63 -12 -13 -19 -26 -16 -29 4 -3 9 0 11 7 3 6 10 9 15 6 7 -4 8 -2 4 4
-11 17 9 15 24 -3 7 -8 18 -15 24 -15 6 0 4 5 -4 10 -8 5 -10 10 -5 10 6 0 3
4 -5 10 -8 5 -11 12 -7 16 3 4 12 2 20 -4 11 -9 23 -10 57 -2 3 0 -3 5 -14 11
-14 9 -20 8 -27 -2 -6 -10 -9 -8 -9 9 0 19 3 21 19 12 30 -15 38 -12 13 6 -12
8 -22 24 -22 34 0 23 42 50 48 31 2 -6 8 -8 14 -5 16 10 98 -18 108 -37 6 -11
6 -20 1 -23 -5 -4 -12 -1 -14 4 -3 6 -4 5 -3 -2 4 -20 36 -22 36 -3 0 14 7 16
38 12 20 -3 29 -3 20 -1 -10 3 -18 10 -18 15 0 6 -4 7 -10 4 -5 -3 -10 -3 -10
2 0 4 -27 17 -61 27 -33 11 -62 23 -65 28 -7 11 -35 10 -57 -3z"/>
<path d="M2682 339 c-13 -20 -14 -20 -28 -2 -13 16 -13 15 -2 -10 6 -15 16
-26 22 -24 6 3 18 1 26 -4 12 -5 16 -2 17 12 1 10 -2 19 -7 19 -5 0 -10 7 -12
15 -2 12 -6 11 -16 -6z m23 -27 c-3 -3 -11 0 -18 7 -9 10 -8 11 6 5 10 -3 15
-9 12 -12z"/>
<path d="M2965 351 c-3 -7 0 -8 10 -5 13 5 14 2 5 -20 -6 -17 -6 -26 0 -26 10
0 11 4 14 37 1 19 -19 29 -29 14z"/>
<path d="M2906 341 c-7 -11 22 -36 31 -27 3 3 1 6 -6 6 -7 0 -10 4 -6 9 3 5 1
12 -4 15 -5 4 -12 2 -15 -3z"/>
<path d="M451 324 c0 -11 3 -14 6 -6 3 7 2 16 -1 19 -3 4 -6 -2 -5 -13z"/>
<path d="M2585 330 c-3 -5 -1 -10 4 -10 6 0 11 5 11 10 0 6 -2 10 -4 10 -3 0
-8 -4 -11 -10z"/>
<path d="M1691 325 c1 -19 18 -51 18 -35 0 8 -4 22 -9 30 -5 8 -9 11 -9 5z"/>
<path d="M173 290 c-6 -16 -7 -32 -2 -35 4 -3 11 5 15 19 9 39 0 51 -13 16z"/>
<path d="M550 310 c0 -5 5 -10 11 -10 5 0 7 5 4 10 -3 6 -8 10 -11 10 -2 0 -4
-4 -4 -10z"/>
<path d="M940 308 c0 -5 11 -8 25 -8 14 0 25 4 25 9 0 5 -11 8 -25 7 -14 0
-25 -4 -25 -8z"/>
<path d="M1430 310 c0 -5 5 -10 11 -10 5 0 7 5 4 10 -3 6 -8 10 -11 10 -2 0
-4 -4 -4 -10z"/>
<path d="M2618 313 c7 -3 16 -2 19 1 4 3 -2 6 -13 5 -11 0 -14 -3 -6 -6z"/>
<path d="M240 278 c0 -18 -3 -44 -6 -58 -4 -20 -3 -22 5 -9 16 25 26 99 12 99
-6 0 -11 -15 -11 -32z"/>
<path d="M688 303 c-10 -2 -18 -12 -18 -20 0 -14 3 -14 20 2 17 15 26 28 18
24 -2 -1 -11 -3 -20 -6z"/>
<path d="M2401 291 c-10 -10 -25 -21 -32 -24 -11 -4 -11 -6 1 -6 10 -1 7 -7
-10 -21 -14 -10 -21 -22 -17 -27 5 -4 18 5 29 20 17 24 23 26 37 15 15 -12 15
-11 1 6 -10 13 -11 20 -4 23 6 2 20 10 30 18 17 13 18 14 2 15 -10 0 -26 -8
-37 -19z"/>
<path d="M380 292 c0 -7 29 -32 37 -32 5 0 9 8 9 19 0 13 -7 18 -23 17 -13 0
-23 -2 -23 -4z"/>
<path d="M1015 280 c-10 -16 7 -31 23 -21 10 6 10 10 -2 20 -10 9 -16 9 -21 1z"/>
<path d="M1155 280 c3 -5 11 -10 16 -10 6 0 7 5 4 10 -3 6 -11 10 -16 10 -6 0
-7 -4 -4 -10z"/>
<path d="M1482 270 c-7 -12 -8 -20 -2 -20 5 0 10 5 10 11 0 5 4 7 10 4 6 -3 7
1 4 9 -8 20 -7 20 -22 -4z"/>
<path d="M1925 279 l-30 -8 30 1 c50 1 99 -13 83 -24 -11 -8 -11 -9 0 -6 8 2
13 8 13 13 0 6 10 15 22 22 12 7 16 12 9 13 -7 0 -21 -6 -32 -12 -16 -10 -24
-10 -40 0 -11 6 -21 11 -22 11 -2 -1 -16 -5 -33 -10z"/>
<path d="M2652 272 c-20 -13 -25 -14 -33 -1 -7 11 -9 11 -9 -4 0 -13 6 -18 23
-16 12 2 29 -1 37 -6 13 -7 13 -6 2 7 -10 13 -10 17 0 21 7 2 11 7 8 10 -3 2
-15 -2 -28 -11z"/>
<path d="M2950 283 c0 -4 5 -15 10 -23 8 -13 10 -13 10 2 0 9 -4 20 -10 23 -5
3 -10 3 -10 -2z"/>
<path d="M2435 270 c-3 -5 -2 -10 4 -10 5 0 13 5 16 10 3 6 2 10 -4 10 -5 0
-13 -4 -16 -10z"/>
<path d="M2911 263 c0 -11 3 -13 6 -5 2 6 10 9 15 6 7 -4 8 -2 4 4 -11 18 -26
14 -25 -5z"/>
<path d="M565 187 c-1 -45 1 -73 3 -62 2 11 8 25 12 30 10 12 4 95 -7 106 -4
4 -8 -29 -8 -74z"/>
<path d="M1247 248 c4 -13 8 -43 9 -68 1 -73 4 -90 12 -90 4 0 8 17 9 38 2 20
4 46 4 57 2 24 -22 85 -34 85 -5 0 -5 -10 0 -22z"/>
<path d="M2228 263 c7 -3 16 -2 19 1 4 3 -2 6 -13 5 -11 0 -14 -3 -6 -6z"/>
<path d="M2507 259 c7 -7 15 -10 18 -7 3 3 -2 9 -12 12 -14 6 -15 5 -6 -5z"/>
<path d="M2566 256 c3 -8 12 -12 21 -9 12 5 12 7 1 14 -20 13 -28 11 -22 -5z"/>
<path d="M483 207 c-2 -59 10 -76 21 -32 3 13 0 39 -7 56 -13 32 -13 32 -14
-24z"/>
<path d="M1508 246 c-10 -7 -15 -16 -11 -19 3 -4 1 -7 -6 -7 -6 0 -11 -6 -10
-12 4 -33 -2 -79 -10 -74 -5 3 -12 -1 -15 -10 -3 -8 -2 -12 4 -9 6 3 10 -3 10
-14 0 -10 -6 -22 -12 -24 -8 -3 -6 -6 5 -6 9 -1 17 -9 17 -19 0 -10 7 -27 16
-38 15 -19 15 -19 9 2 -11 42 -8 168 4 172 9 3 9 7 1 17 -9 10 -6 19 9 34 23
23 16 28 -11 7z"/>
<path d="M1650 246 c0 -7 -9 -16 -20 -19 -11 -3 -20 -10 -20 -16 0 -19 18 -12
38 14 11 13 22 21 26 18 3 -3 6 -1 6 5 0 7 -7 12 -15 12 -8 0 -15 -6 -15 -14z"/>
<path d="M1700 245 c0 -8 -5 -15 -12 -15 -6 0 -9 -3 -5 -6 3 -3 15 1 27 9 17
12 18 15 5 20 -9 4 -15 1 -15 -8z"/>
<path d="M2132 244 c-12 -6 -29 -19 -36 -29 -7 -10 -18 -15 -23 -12 -10 7 -34
-15 -47 -43 -4 -8 5 -1 19 15 17 19 25 23 21 12 -4 -14 4 -10 31 12 21 17 43
31 49 31 6 0 17 6 23 13 14 17 -5 18 -37 1z"/>
<path d="M2467 249 c-9 -5 -22 -7 -29 -3 -7 4 -8 3 -4 -4 10 -16 31 -15 46 3
14 17 12 18 -13 4z"/>
<path d="M2845 250 c3 -5 8 -10 11 -10 2 0 4 5 4 10 0 6 -5 10 -11 10 -5 0 -7
-4 -4 -10z"/>
<path d="M2034 234 c-18 -14 -18 -15 4 -4 12 6 22 13 22 15 0 8 -5 6 -26 -11z"/>
<path d="M451 220 c0 -14 -4 -36 -7 -50 -5 -22 -4 -23 6 -7 6 9 9 32 7 50 -3
25 -4 26 -6 7z"/>
<path d="M1825 231 c-3 -5 -2 -12 3 -15 5 -3 9 1 9 9 0 17 -3 19 -12 6z"/>
<path d="M2276 215 c-4 -14 -6 -27 -5 -30 0 -4 -7 -17 -16 -31 -9 -14 -14 -28
-11 -32 10 -9 23 10 36 53 7 22 17 46 23 53 7 8 5 12 -6 12 -8 0 -18 -11 -21
-25z"/>
<path d="M2507 233 c-4 -3 -7 -11 -7 -17 0 -6 5 -4 10 4 5 8 10 10 10 4 0 -7
8 -15 17 -18 15 -6 15 -4 -2 14 -21 23 -19 22 -28 13z"/>
<path d="M2944 225 c-4 -8 -14 -15 -23 -15 -9 0 -23 -4 -30 -9 -10 -6 -1 -8
25 -4 29 4 43 1 53 -11 7 -9 18 -16 24 -16 5 0 -1 9 -14 21 -13 11 -23 27 -21
35 4 19 -7 18 -14 -1z"/>
<path d="M699 214 c-11 -14 -10 -15 11 -12 13 1 25 9 28 16 5 17 -23 15 -39
-4z"/>
<path d="M995 200 c-14 -27 -13 -32 6 -64 14 -23 17 -36 9 -36 -9 0 -7 -8 4
-25 14 -22 14 -25 1 -25 -10 0 -14 -8 -13 -25 3 -29 3 -29 29 -15 13 7 19 7
19 0 0 -5 6 -10 14 -10 13 0 13 4 0 28 -7 15 -14 43 -14 63 0 21 -7 42 -16 49
-26 22 -36 49 -25 68 6 9 11 11 11 5 0 -7 7 -13 16 -13 21 0 13 23 -9 26 -11
1 -23 -9 -32 -26z"/>
<path d="M1537 223 c-10 -10 -8 -23 4 -23 5 0 7 5 4 10 -9 15 4 12 21 -5 9 -8
22 -15 29 -15 22 0 7 27 -18 34 -28 7 -32 7 -40 -1z"/>
<path d="M1869 213 c-13 -16 -12 -17 4 -4 16 13 21 21 13 21 -2 0 -10 -8 -17
-17z"/>
<path d="M1973 211 c-4 -17 -8 -19 -14 -9 -6 9 -9 6 -9 -10 0 -13 -4 -21 -9
-17 -14 8 -25 -15 -13 -27 13 -13 45 8 36 23 -3 5 -1 9 4 9 11 0 24 41 16 49
-3 3 -7 -5 -11 -18z"/>
<path d="M620 211 c0 -5 9 -11 20 -14 24 -6 27 8 4 17 -21 8 -24 8 -24 -3z"/>
<path d="M786 205 c-3 -9 -6 -22 -5 -28 0 -7 5 -1 10 12 5 13 8 26 5 28 -2 2
-6 -3 -10 -12z"/>
<path d="M1423 189 c0 -19 2 -28 5 -21 3 10 8 8 18 -5 12 -16 13 -16 14 -2 0
9 -8 27 -18 39 l-19 23 0 -34z"/>
<path d="M2861 208 c-1 -10 -8 -18 -17 -18 -8 0 -12 5 -9 10 3 6 1 10 -4 10
-6 0 -11 -7 -11 -15 0 -9 -6 -12 -15 -9 -8 4 -12 10 -9 15 3 5 0 9 -5 9 -13 0
-14 -10 -3 -26 8 -13 60 -10 75 5 5 5 7 15 4 23 -4 9 -6 7 -6 -4z"/>
<path d="M740 200 c0 -5 5 -10 10 -10 6 0 10 5 10 10 0 6 -4 10 -10 10 -5 0
-10 -4 -10 -10z"/>
<path d="M1693 203 c9 -2 23 -2 30 0 6 3 -1 5 -18 5 -16 0 -22 -2 -12 -5z"/>
<path d="M1893 194 c0 -7 6 -10 14 -7 7 3 13 8 13 12 0 4 -6 8 -13 8 -8 0 -14
-6 -14 -13z"/>
<path d="M2006 202 c-2 -4 -1 -14 3 -21 6 -9 10 -7 14 8 5 20 -7 29 -17 13z"/>
<path d="M2370 200 c0 -5 5 -10 10 -10 6 0 10 5 10 10 0 6 -4 10 -10 10 -5 0
-10 -4 -10 -10z"/>
<path d="M2427 199 c7 -7 15 -10 18 -7 3 3 -2 9 -12 12 -14 6 -15 5 -6 -5z"/>
<path d="M2098 172 c-34 -40 -109 -65 -123 -42 -11 17 -23 1 -18 -21 4 -16 8
-18 14 -7 7 11 11 10 19 -2 5 -8 10 -10 10 -4 0 7 14 11 31 10 25 -1 36 7 66
47 38 51 39 64 1 19z"/>
<path d="M2316 178 c-9 -12 -16 -27 -16 -32 0 -5 -7 -18 -17 -28 -9 -10 -14
-20 -11 -23 2 -2 15 13 29 34 16 26 27 35 32 27 6 -6 6 -3 3 8 -4 11 -1 23 6
28 9 5 10 8 1 8 -6 0 -19 -10 -27 -22z"/>
<path d="M2 170 c0 -14 2 -19 5 -12 2 6 2 18 0 25 -3 6 -5 1 -5 -13z"/>
<path d="M670 180 c0 -5 5 -10 10 -10 6 0 10 5 10 10 0 6 -4 10 -10 10 -5 0
-10 -4 -10 -10z"/>
<path d="M1553 183 c4 -3 -1 -12 -11 -19 -16 -13 -16 -13 1 -14 9 0 17 2 17 4
0 2 3 11 6 20 4 10 1 16 -7 16 -7 0 -9 -3 -6 -7z"/>
<path d="M1750 180 c-8 -5 -11 -12 -7 -16 4 -4 13 -2 19 4 15 15 7 24 -12 12z"/>
<path d="M2408 184 c-2 -5 9 -22 24 -39 l29 -30 -3 30 c-2 19 -9 30 -18 30 -8
0 -18 4 -21 9 -4 4 -8 4 -11 0z"/>
<path d="M2555 179 c-11 -17 1 -21 15 -4 8 9 8 15 2 15 -6 0 -14 -5 -17 -11z"/>
<path d="M1590 170 c-9 -6 -10 -10 -3 -10 6 0 15 5 18 10 8 12 4 12 -15 0z"/>
<path d="M1646 172 c-2 -4 4 -8 15 -8 10 0 19 4 19 8 0 10 -27 10 -34 0z"/>
<path d="M2928 173 c6 -2 18 -2 25 0 6 3 1 5 -13 5 -14 0 -19 -2 -12 -5z"/>
<path d="M160 151 c0 -25 6 -27 13 -6 4 8 2 17 -3 20 -6 4 -10 -3 -10 -14z"/>
<path d="M811 138 c-14 -39 -5 -51 9 -13 6 15 13 32 16 36 3 5 1 9 -4 9 -6 0
-15 -14 -21 -32z"/>
<path d="M1386 162 c-2 -4 -1 -14 3 -21 6 -10 10 -9 14 3 6 16 -8 32 -17 18z"/>
<path d="M2595 160 c-3 -5 -1 -10 4 -10 6 0 11 5 11 10 0 6 -2 10 -4 10 -3 0
-8 -4 -11 -10z"/>
<path d="M1590 138 c-19 -10 -27 -17 -17 -14 9 3 17 1 17 -4 0 -6 5 -10 10
-10 6 0 10 7 10 16 0 8 4 13 8 10 5 -3 9 1 9 9 0 8 -1 15 -1 14 -1 -1 -17 -10
-36 -21z"/>
<path d="M1765 150 c-3 -6 1 -7 9 -4 18 7 21 14 7 14 -6 0 -13 -4 -16 -10z"/>
<path d="M1805 150 c-3 -6 1 -7 9 -4 18 7 21 14 7 14 -6 0 -13 -4 -16 -10z"/>
<path d="M1880 149 c0 -5 5 -7 10 -4 6 3 10 8 10 11 0 2 -4 4 -10 4 -5 0 -10
-5 -10 -11z"/>
<path d="M2765 150 c-3 -6 1 -7 9 -4 18 7 21 14 7 14 -6 0 -13 -4 -16 -10z"/>
<path d="M2922 147 c-7 -8 -7 -18 -2 -27 8 -12 10 -11 10 7 0 12 6 24 13 26 7
4 8 6 1 6 -6 1 -16 -5 -22 -12z"/>
<path d="M407 129 c-16 -18 -16 -19 8 -19 15 0 25 6 25 14 0 24 -15 26 -33 5z"/>
<path d="M609 131 c14 -26 111 -131 121 -131 4 0 -1 17 -12 38 -11 21 -18 51
-16 70 3 25 0 32 -14 32 -15 0 -16 -4 -7 -26 15 -42 0 -42 -36 -1 -35 40 -52
49 -36 18z"/>
<path d="M1655 131 c4 -13 -1 -24 -17 -35 -12 -9 -18 -16 -12 -16 16 0 44 34
44 53 0 9 -5 17 -11 17 -6 0 -8 -8 -4 -19z"/>
<path d="M2374 138 c3 -10 1 -18 -5 -18 -6 0 -7 -4 -4 -10 11 -17 45 -12 44 8
0 12 -2 13 -6 3 -4 -10 -9 -8 -20 10 -8 13 -12 16 -9 7z"/>
<path d="M2535 140 c3 -6 -1 -13 -9 -16 -9 -3 -16 -10 -16 -15 0 -5 9 -4 20 3
21 14 27 38 9 38 -5 0 -7 -5 -4 -10z"/>
<path d="M75 131 c-3 -5 -1 -12 5 -16 5 -3 10 1 10 9 0 18 -6 21 -15 7z"/>
<path d="M837 105 c-27 -58 -19 -120 13 -100 8 5 7 11 -1 21 -9 11 -9 25 0 60
15 58 10 65 -12 19z"/>
<path d="M1686 124 c-4 -10 -10 -29 -12 -42 -4 -19 -1 -23 13 -20 10 2 17 10
16 16 -2 7 4 12 13 12 8 0 13 4 10 9 -3 5 1 12 10 15 18 7 9 26 -13 26 -9 0
-13 -6 -10 -14 6 -14 -10 -36 -26 -36 -5 0 -4 7 3 15 6 8 10 20 8 27 -3 7 -7
4 -12 -8z"/>
<path d="M2830 122 c6 -13 14 -21 18 -18 3 4 -2 14 -12 24 -18 16 -18 16 -6
-6z"/>
<path d="M1291 114 c0 -11 3 -14 6 -6 3 7 2 16 -1 19 -3 4 -6 -2 -5 -13z"/>
<path d="M1343 109 c7 -11 13 -15 15 -9 2 5 8 10 13 10 4 0 6 -6 3 -14 -8 -20
12 -29 33 -16 16 10 15 10 -3 5 -16 -4 -22 -1 -20 11 0 11 -9 20 -26 25 -25 6
-26 5 -15 -12z"/>
<path d="M1417 123 c-11 -11 -8 -20 7 -20 8 0 12 6 9 14 -6 15 -7 15 -16 6z"/>
<path d="M1801 121 c-1 -8 -8 -11 -21 -8 -11 3 -23 0 -27 -5 -3 -7 -1 -8 5 -4
7 4 12 3 12 -3 0 -6 7 -7 17 -4 10 4 14 2 10 -4 -3 -5 0 -10 8 -10 17 0 17 4
5 32 -5 11 -9 14 -9 6z"/>
<path d="M1865 120 c-3 -5 -1 -10 4 -10 6 0 11 5 11 10 0 6 -2 10 -4 10 -3 0
-8 -4 -11 -10z"/>
<path d="M2482 123 c-6 -2 -10 -9 -6 -14 8 -14 21 -11 21 6 0 8 -1 15 -1 14
-1 0 -7 -3 -14 -6z"/>
<path d="M2760 121 c0 -7 -5 -9 -12 -5 -7 5 -8 3 -3 -5 5 -9 10 -10 18 -2 6 6
8 14 4 18 -4 3 -7 1 -7 -6z"/>
<path d="M1520 99 c0 -5 8 -9 18 -10 9 0 25 -2 35 -4 9 -2 17 1 17 6 0 5 -3 9
-7 10 -5 0 -20 2 -35 4 -16 2 -28 -1 -28 -6z"/>
<path d="M2238 105 c-4 -4 -4 -14 -1 -23 4 -9 2 -13 -4 -9 -13 8 -11 -19 2
-30 4 -4 5 -3 2 4 -4 6 -2 13 4 15 6 2 9 14 7 27 -1 12 -6 20 -10 16z"/>
<path d="M2545 99 c-4 -6 -5 -12 -2 -15 2 -3 7 2 10 11 7 17 1 20 -8 4z"/>
<path d="M434 74 c9 -49 18 -74 27 -74 10 0 7 36 -4 46 -4 4 -7 15 -7 25 0 10
-5 21 -11 24 -7 5 -9 -3 -5 -21z"/>
<path d="M1317 83 c5 -13 2 -15 -13 -9 -18 7 -18 6 1 -12 11 -11 22 -18 24
-16 3 2 15 -3 29 -12 13 -8 26 -13 30 -10 3 3 0 6 -6 6 -6 0 -9 6 -6 14 3 8 0
17 -7 22 -8 5 -10 3 -4 -6 6 -10 4 -12 -9 -7 -10 4 -19 7 -22 7 -2 0 -1 6 2
14 3 7 -2 16 -10 19 -11 4 -13 1 -9 -10z"/>
<path d="M1850 91 c0 -5 -7 -17 -16 -26 -9 -9 -13 -19 -9 -23 4 -4 15 3 24 15
15 17 21 19 32 10 7 -7 5 -2 -5 11 -21 24 -26 27 -26 13z"/>
<path d="M2099 83 c-12 -14 -12 -15 0 -9 8 5 16 3 22 -5 6 -10 8 -7 6 9 -2 26
-10 28 -28 5z"/>
<path d="M2320 93 c0 -7 -9 -13 -21 -13 -31 0 -17 -24 17 -28 16 -2 32 -9 35
-14 4 -7 17 -8 35 -2 l29 8 -30 4 c-21 2 -37 12 -48 30 -9 15 -17 21 -17 15z"/>
<path d="M1740 79 c0 -5 9 -9 20 -9 11 0 20 2 20 4 0 2 -9 6 -20 9 -11 3 -20
1 -20 -4z"/>
<path d="M2460 80 c0 -5 6 -10 13 -10 6 0 23 -3 37 -6 18 -4 16 -1 -9 10 -39
19 -41 19 -41 6z"/>
<path d="M930 70 c0 -5 5 -10 11 -10 5 0 7 5 4 10 -3 6 -8 10 -11 10 -2 0 -4
-4 -4 -10z"/>
<path d="M1225 40 c-25 -25 -33 -40 -24 -40 20 0 41 18 62 53 25 39 7 33 -38
-13z"/>
<path d="M1533 73 c9 -2 17 -13 17 -24 0 -11 5 -17 10 -14 15 9 -7 45 -28 44
-16 -1 -16 -2 1 -6z"/>
<path d="M2140 70 c0 -5 7 -7 15 -4 10 4 15 0 15 -15 0 -12 -5 -21 -11 -21 -5
0 -7 4 -4 10 3 6 -1 7 -9 4 -9 -3 -16 -14 -15 -23 0 -9 3 -11 5 -4 3 7 11 10
17 8 7 -3 18 -1 26 4 10 7 11 13 2 30 -12 21 -41 29 -41 11z"/>
<path d="M2695 70 c-3 -5 -1 -10 4 -10 6 0 11 5 11 10 0 6 -2 10 -4 10 -3 0
-8 -4 -11 -10z"/>
<path d="M1627 49 c-8 -10 -16 -16 -20 -13 -3 3 -14 1 -24 -5 -17 -11 -17 -11
2 -10 11 1 31 -3 45 -8 14 -6 30 -8 35 -5 6 4 -2 9 -17 12 -20 4 -25 9 -19 19
7 10 13 11 29 2 11 -6 23 -8 26 -3 2 4 -7 12 -20 19 -20 9 -26 8 -37 -8z"/>
<path d="M1930 60 c0 -5 5 -10 10 -10 6 0 10 5 10 10 0 6 -4 10 -10 10 -5 0
-10 -4 -10 -10z"/>
<path d="M2020 58 c-12 -8 -12 -9 2 -5 9 3 19 1 22 -6 3 -9 5 -9 5 0 1 18 -13
23 -29 11z"/>
<path d="M2077 59 c7 -7 15 -10 18 -7 3 3 -2 9 -12 12 -14 6 -15 5 -6 -5z"/>
<path d="M2540 66 c0 -2 7 -7 16 -10 8 -3 12 -2 9 4 -6 10 -25 14 -25 6z"/>
<path d="M545 40 c9 -31 25 -50 25 -30 0 8 -8 24 -16 35 -16 19 -16 19 -9 -5z"/>
<path d="M1398 53 c6 -2 9 -10 6 -15 -4 -7 -2 -8 5 -4 13 9 5 26 -12 25 -9 0
-8 -2 1 -6z"/>
<path d="M1969 47 c7 -7 14 -8 21 -1 6 6 2 10 -12 11 -16 2 -18 -1 -9 -10z"/>
<path d="M50 36 c0 -17 14 -29 23 -20 8 8 -3 34 -14 34 -5 0 -9 -6 -9 -14z"/>
<path d="M1291 38 c-1 -10 4 -18 10 -18 5 0 7 -6 3 -12 -5 -10 -4 -10 6 -1 9
9 17 9 26 2 8 -7 14 -6 20 2 4 8 3 9 -4 5 -7 -4 -12 -2 -12 3 0 6 -9 11 -19
11 -11 0 -22 6 -24 13 -3 7 -6 5 -6 -5z"/>
<path d="M1755 36 c11 -8 24 -12 28 -9 11 7 -12 23 -32 23 -11 0 -9 -4 4 -14z"/>
<path d="M900 20 c0 -11 5 -20 10 -20 6 0 10 9 10 20 0 11 -4 20 -10 20 -5 0
-10 -9 -10 -20z"/>
<path d="M2300 36 c0 -3 9 -10 20 -16 11 -6 20 -8 20 -6 0 3 -9 10 -20 16 -11
6 -20 8 -20 6z"/>
<path d="M1955 20 c-3 -5 -1 -10 4 -10 6 0 11 5 11 10 0 6 -2 10 -4 10 -3 0
-8 -4 -11 -10z"/>
<path d="M1981 14 c0 -11 3 -14 6 -6 3 7 2 16 -1 19 -3 4 -6 -2 -5 -13z"/>
<path d="M2021 16 c-10 -12 -8 -13 8 -9 12 3 21 9 21 14 0 14 -16 11 -29 -5z"/>
<path d="M2080 20 c19 -13 30 -13 30 0 0 6 -10 10 -22 10 -19 0 -20 -2 -8 -10z"/>
<path d="M2670 20 c14 -4 34 -8 45 -9 16 -1 17 1 5 9 -8 5 -28 9 -45 9 -29 -1
-29 -1 -5 -9z"/>
<path d="M2740 10 c0 -6 7 -10 15 -10 8 0 15 2 15 4 0 2 -7 6 -15 10 -8 3 -15
1 -15 -4z"/>
</g>
</svg>
